M48
;DRILL file {KiCad 5.0.0-rc2-dev-unknown-952aa7a~63~ubuntu16.04.1} date Thu Mar 29 23:46:14 2018
;FORMAT={-:-/ absolute / metric / decimal}
FMAT,2
METRIC,TZ
T1C0.400
%
G90
G05
M71
T1
X120.142Y-93.218
X120.396Y-68.326
X120.777Y-82.931
X121.412Y-101.6
X121.463Y-115.214
X122.936Y-71.12
X124.054Y-115.189
X125.12Y-104.648
X125.12Y-115.519
X125.476Y-93.218
X127.254Y-101.6
X128.27Y-110.744
X130.048Y-118.872
X130.556Y-70.104
X130.937Y-83.566
X131.318Y-98.425
X132.588Y-90.678
X133.032Y-72.962
X133.096Y-83.566
X133.604Y-111.252
X133.858Y-93.726
X135.128Y-96.266
X135.382Y-80.772
X135.89Y-99.568
X136.144Y-77.724
X136.144Y-91.948
X136.144Y-102.616
X136.906Y-93.98
X137.16Y-89.408
X141.478Y-78.74
X141.478Y-80.772
X141.478Y-82.804
X141.986Y-110.744
X143.256Y-91.44
X143.256Y-109.22
X144.272Y-97.028
X144.272Y-122.999
X144.653Y-109.283
X145.796Y-106.172
X145.796Y-112.014
X146.05Y-115.672
X146.304Y-97.028
X146.304Y-123.761
X146.646Y-110.998
X146.685Y-127.254
X147.32Y-102.108
X147.32Y-120.396
X147.549Y-104.496
X147.549Y-109.779
X147.828Y-97.028
X149.352Y-102.616
X150.114Y-115.57
X150.368Y-97.028
X150.876Y-120.65
X151.575Y-67.945
X152.273Y-129.921
X152.4Y-97.028
X152.4Y-103.632
X152.59Y-109.855
X157.353Y-66.739
X157.924Y-71.882
X159.766Y-91.059
X160.655Y-98.171
X160.655Y-102.235
X162.243Y-75.311
X162.243Y-81.216
X162.306Y-84.328
X162.306Y-90.932
X162.306Y-94.234
X162.306Y-96.012
X162.56Y-117.475
X163.576Y-88.9
X164.084Y-116.078
X164.338Y-94.234
X164.338Y-96.139
X164.338Y-99.314
X164.338Y-104.648
X164.846Y-108.013
X165.163Y-71.056
X165.989Y-109.156
X166.116Y-90.424
X166.433Y-97.79
X167.132Y-88.646
X167.767Y-110.642
X168.402Y-118.872
X168.58Y-117.323
X168.656Y-84.963
X169.418Y-114.808
X169.926Y-94.488
X169.926Y-104.648
X171.196Y-70.993
X173.736Y-101.854
X174.244Y-86.233
X174.625Y-87.757
X175.26Y-76.2
X178.562Y-89.662
X179.578Y-90.678
X179.832Y-101.092
T0
M30
