G04 #@! TF.GenerationSoftware,KiCad,Pcbnew,5.0.0-rc2-dev-unknown-952aa7a~63~ubuntu16.04.1*
G04 #@! TF.CreationDate,2018-03-29T23:45:57+02:00*
G04 #@! TF.ProjectId,ripolab_pcb,7269706F6C61625F7063622E6B696361,rev?*
G04 #@! TF.SameCoordinates,Original*
G04 #@! TF.FileFunction,Soldermask,Bot*
G04 #@! TF.FilePolarity,Negative*
%FSLAX46Y46*%
G04 Gerber Fmt 4.6, Leading zero omitted, Abs format (unit mm)*
G04 Created by KiCad (PCBNEW 5.0.0-rc2-dev-unknown-952aa7a~63~ubuntu16.04.1) date Thu Mar 29 23:45:57 2018*
%MOMM*%
%LPD*%
G01*
G04 APERTURE LIST*
%ADD10C,2.200000*%
%ADD11C,2.200000*%
%ADD12R,1.300000X1.600000*%
%ADD13R,1.370000X1.900000*%
%ADD14R,2.100000X1.400000*%
%ADD15R,2.900000X1.500000*%
%ADD16O,2.900000X1.500000*%
%ADD17O,1.500000X2.800000*%
%ADD18O,3.900000X2.200000*%
%ADD19R,1.545000X1.900000*%
%ADD20R,1.200000X2.000000*%
%ADD21R,2.500000X3.400000*%
%ADD22R,1.460000X1.050000*%
%ADD23C,1.300000*%
%ADD24R,1.900000X1.100000*%
%ADD25R,1.200000X1.400000*%
G04 APERTURE END LIST*
D10*
X123571000Y-66548000D03*
D11*
X122969959Y-65946959D02*
X124172041Y-67149041D01*
D12*
X178180000Y-92710000D03*
X174880000Y-92710000D03*
D10*
X116459000Y-73787000D03*
D11*
X115857959Y-73185959D02*
X117060041Y-74388041D01*
D13*
X148021000Y-66294000D03*
X146111000Y-66294000D03*
D14*
X160630000Y-113162000D03*
X154330000Y-113162000D03*
X160630000Y-116962000D03*
X154330000Y-116962000D03*
X134010000Y-116962000D03*
X140310000Y-116962000D03*
X134010000Y-113162000D03*
X140310000Y-113162000D03*
D15*
X154751000Y-78740000D03*
D16*
X154751000Y-80740000D03*
X154751000Y-82740000D03*
X154751000Y-84740000D03*
X154751000Y-86740000D03*
X154751000Y-88740000D03*
X154751000Y-90740000D03*
X154751000Y-92740000D03*
D17*
X152061000Y-94490000D03*
X150061000Y-94490000D03*
X148061000Y-94490000D03*
X146061000Y-94490000D03*
X144061000Y-94490000D03*
X142061000Y-94490000D03*
D16*
X139351000Y-92740000D03*
X139451000Y-90740000D03*
X139351000Y-88740000D03*
X139351000Y-86740000D03*
X139351000Y-84740000D03*
X139351000Y-82740000D03*
X139351000Y-80740000D03*
X139351000Y-78740000D03*
D18*
X108585000Y-97129600D03*
X108585000Y-94589600D03*
X108585000Y-102209600D03*
X108585000Y-99669600D03*
X108585000Y-92049600D03*
D10*
X175260000Y-116840000D03*
D11*
X175861041Y-117441041D02*
X174658959Y-116238959D01*
D10*
X172720000Y-119380000D03*
D11*
X173321041Y-119981041D02*
X172118959Y-118778959D01*
D10*
X172720000Y-68580000D03*
D11*
X173321041Y-67978959D02*
X172118959Y-69181041D01*
D10*
X170180000Y-121920000D03*
D11*
X170781041Y-122521041D02*
X169578959Y-121318959D01*
D10*
X177800000Y-73660000D03*
D11*
X178401041Y-73058959D02*
X177198959Y-74261041D01*
D10*
X170180000Y-66040000D03*
D11*
X170781041Y-65438959D02*
X169578959Y-66641041D01*
D10*
X124460000Y-121920000D03*
D11*
X123858959Y-122521041D02*
X125061041Y-121318959D01*
D10*
X119380000Y-116840000D03*
D11*
X118778959Y-117441041D02*
X119981041Y-116238959D01*
D10*
X121920000Y-119380000D03*
D11*
X121318959Y-119981041D02*
X122521041Y-118778959D01*
D19*
X164364500Y-97790000D03*
X162279500Y-97790000D03*
X162279500Y-92710000D03*
X164364500Y-92710000D03*
X160247500Y-73660000D03*
X162332500Y-73660000D03*
D20*
X146695000Y-129400000D03*
X147945000Y-129400000D03*
D21*
X144145000Y-126500000D03*
X150495000Y-126500000D03*
D13*
X160335000Y-82804000D03*
X162245000Y-82804000D03*
X148905000Y-113792000D03*
X150815000Y-113792000D03*
X150815000Y-104140000D03*
X148905000Y-104140000D03*
X145735000Y-113792000D03*
X143825000Y-113792000D03*
X143825000Y-104140000D03*
X145735000Y-104140000D03*
X132649000Y-71374000D03*
X134559000Y-71374000D03*
D22*
X162390000Y-103698000D03*
X162390000Y-104648000D03*
X162390000Y-105598000D03*
X160190000Y-105598000D03*
X160190000Y-103698000D03*
D23*
X185480000Y-95180000D03*
X185480000Y-98180000D03*
D24*
X183720000Y-94430000D03*
X183720000Y-97430000D03*
X183720000Y-98930000D03*
D25*
X186580000Y-93030000D03*
X186580000Y-100330000D03*
X184370000Y-100330000D03*
X184370000Y-93030000D03*
D19*
X169952500Y-92710000D03*
X167867500Y-92710000D03*
X169952500Y-106934000D03*
X167867500Y-106934000D03*
M02*
