G04 #@! TF.GenerationSoftware,KiCad,Pcbnew,5.0.0-rc2-dev-unknown-952aa7a~63~ubuntu16.04.1*
G04 #@! TF.CreationDate,2018-03-29T23:45:57+02:00*
G04 #@! TF.ProjectId,ripolab_pcb,7269706F6C61625F7063622E6B696361,rev?*
G04 #@! TF.SameCoordinates,Original*
G04 #@! TF.FileFunction,Copper,L1,Top,Signal*
G04 #@! TF.FilePolarity,Positive*
%FSLAX46Y46*%
G04 Gerber Fmt 4.6, Leading zero omitted, Abs format (unit mm)*
G04 Created by KiCad (PCBNEW 5.0.0-rc2-dev-unknown-952aa7a~63~ubuntu16.04.1) date Thu Mar 29 23:45:57 2018*
%MOMM*%
%LPD*%
G01*
G04 APERTURE LIST*
%ADD10R,1.600000X1.000000*%
%ADD11C,0.600000*%
%ADD12C,0.250000*%
%ADD13C,0.500000*%
%ADD14C,0.254000*%
G04 APERTURE END LIST*
D10*
X144700000Y-64780000D03*
X144700000Y-67980000D03*
X149700000Y-64780000D03*
X149700000Y-67980000D03*
X128250000Y-76780000D03*
X128250000Y-73580000D03*
X123250000Y-76780000D03*
X123250000Y-73580000D03*
X114450000Y-94920000D03*
X114450000Y-98120000D03*
X119450000Y-94920000D03*
X119450000Y-98120000D03*
X128350000Y-116680000D03*
X128350000Y-113480000D03*
X123350000Y-116680000D03*
X123350000Y-113480000D03*
X144500000Y-125380000D03*
X144500000Y-128580000D03*
X149500000Y-125380000D03*
X149500000Y-128580000D03*
X171200000Y-116830000D03*
X171200000Y-113630000D03*
X166200000Y-116830000D03*
X166200000Y-113630000D03*
X175050000Y-95180000D03*
X175050000Y-98380000D03*
X180050000Y-95180000D03*
X180050000Y-98380000D03*
X166100000Y-73730000D03*
X166100000Y-76930000D03*
X171100000Y-73730000D03*
X171100000Y-76930000D03*
D11*
X122936010Y-71120000D03*
X130556004Y-70104000D03*
X120396000Y-68326000D03*
X120777000Y-82931000D03*
X130937000Y-83566000D03*
X131318000Y-98425000D03*
X133032500Y-72961500D03*
X151574502Y-67945000D03*
X162242500Y-75311000D03*
X162242500Y-81216500D03*
X160654990Y-98171000D03*
X160655000Y-102235000D03*
X147320000Y-120396000D03*
X130048000Y-118872000D03*
X167132000Y-88646000D03*
X178562000Y-89662000D03*
X179832000Y-101092000D03*
X173736000Y-101854000D03*
X168402000Y-118872000D03*
X150876000Y-120650000D03*
X127254000Y-101599998D03*
X121412000Y-101600000D03*
X162306000Y-94234000D03*
X162306000Y-96012000D03*
X162306000Y-84328000D03*
X162306000Y-90932000D03*
X145796000Y-112014000D03*
X145796000Y-106172000D03*
X125120400Y-115519200D03*
X125120400Y-104648000D03*
X147320000Y-102108000D03*
X147828000Y-97028000D03*
X152400000Y-97028000D03*
X152400000Y-103632000D03*
X157924500Y-71882000D03*
X157353000Y-66738500D03*
X146685000Y-127254000D03*
X146304000Y-123761500D03*
X144272000Y-122999500D03*
X144653000Y-109283500D03*
X164846000Y-108013500D03*
X164338000Y-99314000D03*
X164338000Y-104648000D03*
X164338000Y-96139000D03*
X164338000Y-94234000D03*
X125476000Y-93218000D03*
X120142000Y-93218000D03*
X141986000Y-110744000D03*
X128270000Y-110744000D03*
X164084000Y-116078000D03*
X150114000Y-115570000D03*
X152273000Y-129921000D03*
X152590500Y-109855000D03*
X165989000Y-109156500D03*
X166433500Y-97790000D03*
X133604000Y-111252000D03*
X141478000Y-78740000D03*
X133858000Y-93726000D03*
X141478000Y-80772000D03*
X135382000Y-80772000D03*
X133096000Y-83566000D03*
X132588000Y-90678000D03*
X141478000Y-82804000D03*
X135128000Y-96266000D03*
X168656000Y-84963000D03*
X169418000Y-114808000D03*
X171196000Y-70993000D03*
X174244000Y-86233000D03*
X174625000Y-87757000D03*
X175260000Y-76200000D03*
X159766000Y-91059000D03*
X162560002Y-117475000D03*
X168579800Y-117322600D03*
X167767000Y-110642400D03*
X147548600Y-109778800D03*
X147548600Y-104495600D03*
X150368016Y-97028000D03*
X149352000Y-102616000D03*
X121462800Y-115214400D03*
X124053600Y-115189000D03*
X146050000Y-115671600D03*
X146646000Y-110998000D03*
X146304000Y-97028000D03*
X143256000Y-91440000D03*
X137160000Y-89408000D03*
X136144000Y-77724000D03*
X143256000Y-109220000D03*
X144272000Y-97028000D03*
X165163496Y-71056500D03*
X163576000Y-88900000D03*
X136144000Y-102616000D03*
X136906000Y-93980000D03*
X136144000Y-91948000D03*
X135890000Y-99568000D03*
X166116000Y-90424000D03*
X179578000Y-90678000D03*
X169926000Y-94488000D03*
X169926000Y-104648000D03*
D12*
X130556004Y-70104000D02*
X134283148Y-70104000D01*
X122636011Y-71419999D02*
X122936010Y-71120000D01*
X121992000Y-76780000D02*
X121412000Y-76200000D01*
X123250000Y-76780000D02*
X121992000Y-76780000D01*
X121412000Y-76200000D02*
X121412000Y-72644010D01*
X121412000Y-72644010D02*
X122636011Y-71419999D01*
X148650000Y-64780000D02*
X149700000Y-64780000D01*
X147724999Y-65705001D02*
X148650000Y-64780000D01*
X138682147Y-65705001D02*
X147724999Y-65705001D01*
X134283148Y-70104000D02*
X138682147Y-65705001D01*
D13*
X120477001Y-82631001D02*
X120396000Y-82550000D01*
X120396000Y-82550000D02*
X120396000Y-68326000D01*
X120777000Y-82931000D02*
X120477001Y-82631001D01*
X131318000Y-98425000D02*
X130937000Y-98044000D01*
X130937000Y-98044000D02*
X130937000Y-83566000D01*
X134548000Y-76780000D02*
X131635500Y-76780000D01*
X133413500Y-75002000D02*
X131635500Y-76780000D01*
X131635500Y-76780000D02*
X128250000Y-76780000D01*
X133413500Y-73342500D02*
X133413500Y-75002000D01*
X133032500Y-72961500D02*
X133413500Y-73342500D01*
X151539502Y-67980000D02*
X151574502Y-67945000D01*
X149700000Y-67980000D02*
X151539502Y-67980000D01*
X162242500Y-81216500D02*
X162242500Y-75311000D01*
X167132000Y-83312000D02*
X167132000Y-78740000D01*
X167132000Y-88646000D02*
X167132000Y-83312000D01*
X160655000Y-102235000D02*
X160655000Y-98171010D01*
X160655000Y-98171010D02*
X160654990Y-98171000D01*
X138411757Y-66929999D02*
X136144000Y-69197756D01*
X136144000Y-75184000D02*
X134548000Y-76780000D01*
X149700000Y-67980000D02*
X148400000Y-67980000D01*
X136144000Y-69197756D02*
X136144000Y-75184000D01*
X148400000Y-67980000D02*
X147349999Y-66929999D01*
X147349999Y-66929999D02*
X138411757Y-66929999D01*
X129032000Y-118872000D02*
X128350000Y-118190000D01*
X148200000Y-128580000D02*
X147828000Y-128208000D01*
X149500000Y-128580000D02*
X148200000Y-128580000D01*
X147828000Y-120904000D02*
X147320000Y-120396000D01*
X147828000Y-128208000D02*
X147828000Y-120904000D01*
X130048000Y-118872000D02*
X129032000Y-118872000D01*
X128350000Y-118190000D02*
X128350000Y-116680000D01*
X167132000Y-78740000D02*
X168942000Y-76930000D01*
X168942000Y-76930000D02*
X171100000Y-76930000D01*
X180050000Y-98380000D02*
X180050000Y-97380000D01*
X180050000Y-97380000D02*
X178562000Y-95892000D01*
X178562000Y-95892000D02*
X178562000Y-89662000D01*
X179832000Y-101092000D02*
X179832000Y-98598000D01*
X179832000Y-98598000D02*
X180050000Y-98380000D01*
X172887010Y-114142990D02*
X172887010Y-102702990D01*
X172887010Y-102702990D02*
X173736000Y-101854000D01*
X171200000Y-115830000D02*
X172887010Y-114142990D01*
X171200000Y-116830000D02*
X171200000Y-115830000D01*
X168402000Y-118872000D02*
X169158000Y-118872000D01*
X169158000Y-118872000D02*
X171200000Y-116830000D01*
X149500000Y-128580000D02*
X149500000Y-127580000D01*
X149500000Y-127580000D02*
X150876000Y-126204000D01*
X150876000Y-126204000D02*
X150876000Y-120650000D01*
X127553999Y-101899997D02*
X127254000Y-101599998D01*
X128350000Y-116680000D02*
X128350000Y-115680000D01*
X128350000Y-115680000D02*
X129700001Y-114329999D01*
X129700001Y-114329999D02*
X129700001Y-104045999D01*
X129700001Y-104045999D02*
X127553999Y-101899997D01*
X120142000Y-101600000D02*
X119450000Y-100908000D01*
X119450000Y-100908000D02*
X119450000Y-98120000D01*
X121412000Y-101600000D02*
X120142000Y-101600000D01*
X128250000Y-76780000D02*
X124206000Y-80824000D01*
X124206000Y-80824000D02*
X124206000Y-93664000D01*
X124206000Y-93664000D02*
X119750000Y-98120000D01*
X119750000Y-98120000D02*
X119450000Y-98120000D01*
X162306000Y-96012000D02*
X162306000Y-94234000D01*
X162306000Y-90932000D02*
X162306000Y-84328000D01*
X145796000Y-106172000D02*
X145796000Y-112014000D01*
D12*
X149500000Y-127830000D02*
X149500000Y-128580000D01*
X171200000Y-116830000D02*
X170900000Y-116830000D01*
X119380000Y-98190000D02*
X119450000Y-98120000D01*
X125120400Y-115519200D02*
X125120400Y-104648000D01*
X147828000Y-97028000D02*
X147320000Y-97536000D01*
X147320000Y-97536000D02*
X147320000Y-102108000D01*
D13*
X152400000Y-103632000D02*
X152400000Y-97028000D01*
X157353000Y-66738500D02*
X157924500Y-67310000D01*
X157924500Y-67310000D02*
X157924500Y-71882000D01*
X146685000Y-124142500D02*
X146685000Y-127254000D01*
X146304000Y-123761500D02*
X146685000Y-124142500D01*
X144653000Y-109283500D02*
X144272000Y-109664500D01*
X144272000Y-109664500D02*
X144272000Y-122999500D01*
X164637999Y-104947999D02*
X164846000Y-105156000D01*
X164846000Y-105156000D02*
X164846000Y-108013500D01*
X164338000Y-104648000D02*
X164637999Y-104947999D01*
X164338000Y-104648000D02*
X164719000Y-104267000D01*
X164719000Y-99695000D02*
X164338000Y-99314000D01*
X164719000Y-104267000D02*
X164719000Y-99695000D01*
X164338000Y-94234000D02*
X164338000Y-96139000D01*
D12*
X115500000Y-98120000D02*
X114450000Y-98120000D01*
X116425001Y-97194999D02*
X115500000Y-98120000D01*
X119467001Y-97194999D02*
X116425001Y-97194999D01*
X123190000Y-93472000D02*
X119467001Y-97194999D01*
X128250000Y-74442000D02*
X123190000Y-79502000D01*
X123190000Y-79502000D02*
X123190000Y-93472000D01*
X128250000Y-73580000D02*
X128250000Y-74442000D01*
X126492000Y-116027200D02*
X125839200Y-116680000D01*
X125984000Y-93218000D02*
X126492000Y-93726000D01*
X126492000Y-93726000D02*
X126492000Y-116027200D01*
X125476000Y-93218000D02*
X125984000Y-93218000D01*
X125839200Y-116680000D02*
X123350000Y-116680000D01*
X119450000Y-94920000D02*
X119450000Y-93910000D01*
X119450000Y-93910000D02*
X120142000Y-93218000D01*
X144500000Y-128580000D02*
X142804000Y-128580000D01*
X142804000Y-128580000D02*
X141986000Y-127762000D01*
X141986000Y-127762000D02*
X141986000Y-111168264D01*
X141986000Y-111168264D02*
X141986000Y-110744000D01*
X128350000Y-113480000D02*
X128350000Y-110824000D01*
X128350000Y-110824000D02*
X128270000Y-110744000D01*
X164846000Y-116840000D02*
X164856000Y-116830000D01*
X164856000Y-116830000D02*
X166200000Y-116830000D01*
X164084000Y-116078000D02*
X164846000Y-116840000D01*
X149500000Y-125380000D02*
X149500000Y-116184000D01*
X149500000Y-116184000D02*
X150114000Y-115570000D01*
X172212000Y-99822000D02*
X173654000Y-98380000D01*
X173654000Y-98380000D02*
X175050000Y-98380000D01*
X172212000Y-111868000D02*
X172212000Y-99822000D01*
X171200000Y-113630000D02*
X171200000Y-112880000D01*
X171200000Y-112880000D02*
X172212000Y-111868000D01*
D13*
X152590500Y-110279264D02*
X152590500Y-129603500D01*
X152590500Y-129603500D02*
X152273000Y-129921000D01*
X152590500Y-109855000D02*
X152590500Y-110279264D01*
X166433500Y-97790000D02*
X165989000Y-98234500D01*
X165989000Y-98234500D02*
X165989000Y-109156500D01*
D12*
X133858000Y-93726000D02*
X133858000Y-110998000D01*
X133858000Y-110998000D02*
X133604000Y-111252000D01*
X133858000Y-93726000D02*
X133858000Y-80772000D01*
X135590001Y-79039999D02*
X141178001Y-79039999D01*
X133858000Y-80772000D02*
X135590001Y-79039999D01*
X141178001Y-79039999D02*
X141478000Y-78740000D01*
D13*
X135382000Y-80772000D02*
X141478000Y-80772000D01*
X132588000Y-90678000D02*
X133096000Y-90170000D01*
X133096000Y-90170000D02*
X133096000Y-83566000D01*
D12*
X135128000Y-96266000D02*
X135128000Y-84328000D01*
X135128000Y-84328000D02*
X136352001Y-83103999D01*
X136352001Y-83103999D02*
X141178001Y-83103999D01*
X141178001Y-83103999D02*
X141478000Y-82804000D01*
X169418000Y-114808000D02*
X169118001Y-114508001D01*
X169118001Y-114508001D02*
X169118001Y-85425001D01*
X169118001Y-85425001D02*
X168656000Y-84963000D01*
X174244000Y-86233000D02*
X174244000Y-72263000D01*
X174244000Y-72263000D02*
X173273999Y-71292999D01*
X173273999Y-71292999D02*
X171495999Y-71292999D01*
X171495999Y-71292999D02*
X171196000Y-70993000D01*
X175260000Y-76200000D02*
X175260000Y-87122000D01*
X175260000Y-87122000D02*
X174924999Y-87457001D01*
X174924999Y-87457001D02*
X174625000Y-87757000D01*
X159766000Y-114680998D02*
X159766000Y-91483264D01*
X162560002Y-117475000D02*
X159766000Y-114680998D01*
X159766000Y-91483264D02*
X159766000Y-91059000D01*
X168224200Y-110642400D02*
X168579800Y-110998000D01*
X168579800Y-110998000D02*
X168579800Y-117322600D01*
X167767000Y-110642400D02*
X168224200Y-110642400D01*
X147548600Y-104495600D02*
X147548600Y-109778800D01*
X149651999Y-102316001D02*
X149352000Y-102616000D01*
X150368016Y-101599984D02*
X149651999Y-102316001D01*
X150368016Y-97028000D02*
X150368016Y-101599984D01*
X124053600Y-115189000D02*
X121488200Y-115189000D01*
X121488200Y-115189000D02*
X121462800Y-115214400D01*
X146646000Y-110998000D02*
X146646000Y-115075600D01*
X146646000Y-115075600D02*
X146050000Y-115671600D01*
X146603999Y-97327999D02*
X146304000Y-97028000D01*
X146646000Y-97370000D02*
X146603999Y-97327999D01*
X146646000Y-110998000D02*
X146646000Y-97370000D01*
X143256000Y-91440000D02*
X141224000Y-89408000D01*
X141224000Y-89408000D02*
X137160000Y-89408000D01*
X136144000Y-77724000D02*
X136961990Y-76906010D01*
X136961990Y-76906010D02*
X136961990Y-69334374D01*
X136961990Y-69334374D02*
X138316364Y-67980000D01*
X138316364Y-67980000D02*
X143650000Y-67980000D01*
X143650000Y-67980000D02*
X144700000Y-67980000D01*
X144272000Y-108204000D02*
X144272000Y-97452268D01*
X143256000Y-109220000D02*
X144272000Y-108204000D01*
X144272000Y-97452268D02*
X144272000Y-97028000D01*
X163576000Y-72643996D02*
X164863497Y-71356499D01*
X163576000Y-88900000D02*
X163576000Y-72643996D01*
X164863497Y-71356499D02*
X165163496Y-71056500D01*
X136906000Y-93980000D02*
X136906000Y-101854000D01*
X136906000Y-101854000D02*
X136443999Y-102316001D01*
X136443999Y-102316001D02*
X136144000Y-102616000D01*
X136144000Y-99314000D02*
X135890000Y-99568000D01*
X136144000Y-91948000D02*
X136144000Y-99314000D01*
X166116000Y-90424000D02*
X166116000Y-76946000D01*
X166116000Y-76946000D02*
X166100000Y-76930000D01*
X180050000Y-95180000D02*
X180050000Y-91150000D01*
X180050000Y-91150000D02*
X179578000Y-90678000D01*
D13*
X169926000Y-104648000D02*
X169926000Y-94488000D01*
D14*
G36*
X190713462Y-50766771D02*
X191122743Y-50816195D01*
X191523016Y-50913782D01*
X191909982Y-51059983D01*
X192279767Y-51255544D01*
X192628848Y-51501734D01*
X192958929Y-51805245D01*
X193520102Y-52447239D01*
X193672554Y-52678642D01*
X193777034Y-52900805D01*
X193849268Y-53148029D01*
X193896731Y-53455880D01*
X193932248Y-54422220D01*
X193914431Y-55146124D01*
X193853355Y-55603228D01*
X193739862Y-55932749D01*
X193531661Y-56296921D01*
X193087634Y-56867629D01*
X192587074Y-57316661D01*
X192034610Y-57653420D01*
X191439210Y-57878206D01*
X190808789Y-57989435D01*
X190151060Y-57983424D01*
X189474270Y-57854590D01*
X188761753Y-57586085D01*
X188131034Y-57286479D01*
X188027485Y-57230288D01*
X187940647Y-57221181D01*
X187855972Y-57199820D01*
X187806345Y-57207096D01*
X187756461Y-57201865D01*
X187672741Y-57226686D01*
X187586346Y-57239353D01*
X187543281Y-57265067D01*
X187495192Y-57279324D01*
X187427341Y-57334295D01*
X187352371Y-57379059D01*
X187282031Y-57473569D01*
X186735519Y-58130992D01*
X181693202Y-63979004D01*
X177271890Y-69083486D01*
X177237702Y-69105901D01*
X177183412Y-69185636D01*
X177165285Y-69206564D01*
X177145525Y-69241280D01*
X177084332Y-69331154D01*
X177078551Y-69358948D01*
X177064509Y-69383618D01*
X177050979Y-69491502D01*
X177028837Y-69597953D01*
X177034132Y-69625841D01*
X177030599Y-69654009D01*
X177059386Y-69758861D01*
X177079666Y-69865679D01*
X177095231Y-69889420D01*
X177102747Y-69916795D01*
X177169462Y-70002643D01*
X177191367Y-70036053D01*
X177210776Y-70055804D01*
X177269966Y-70131968D01*
X177305494Y-70152190D01*
X178509429Y-71377330D01*
X179287117Y-72255478D01*
X179520346Y-72594643D01*
X179677585Y-72896415D01*
X179767126Y-73162235D01*
X179804463Y-73414038D01*
X179796510Y-73681359D01*
X179752220Y-73921512D01*
X179591689Y-74217314D01*
X179088250Y-74961088D01*
X177446085Y-77158012D01*
X176020000Y-79020236D01*
X176020000Y-76762290D01*
X176052655Y-76729635D01*
X176195000Y-76385983D01*
X176195000Y-76014017D01*
X176052655Y-75670365D01*
X175789635Y-75407345D01*
X175445983Y-75265000D01*
X175074017Y-75265000D01*
X175004000Y-75294002D01*
X175004000Y-72337848D01*
X175018888Y-72263000D01*
X175004000Y-72188152D01*
X175004000Y-72188148D01*
X174959904Y-71966463D01*
X174791929Y-71715071D01*
X174728473Y-71672671D01*
X173864330Y-70808529D01*
X173821928Y-70745070D01*
X173570536Y-70577095D01*
X173348851Y-70532999D01*
X173348846Y-70532999D01*
X173273999Y-70518111D01*
X173199152Y-70532999D01*
X172017498Y-70532999D01*
X171988655Y-70463365D01*
X171725635Y-70200345D01*
X171381983Y-70058000D01*
X171010017Y-70058000D01*
X170666365Y-70200345D01*
X170403345Y-70463365D01*
X170261000Y-70807017D01*
X170261000Y-71178983D01*
X170403345Y-71522635D01*
X170666365Y-71785655D01*
X171010017Y-71928000D01*
X171078382Y-71928000D01*
X171078520Y-71928092D01*
X171199461Y-72008903D01*
X171247604Y-72018479D01*
X171421147Y-72052999D01*
X171421151Y-72052999D01*
X171495999Y-72067887D01*
X171570847Y-72052999D01*
X172959198Y-72052999D01*
X173484001Y-72577803D01*
X173484000Y-85670710D01*
X173451345Y-85703365D01*
X173309000Y-86047017D01*
X173309000Y-86418983D01*
X173451345Y-86762635D01*
X173714365Y-87025655D01*
X173940420Y-87119290D01*
X173832345Y-87227365D01*
X173690000Y-87571017D01*
X173690000Y-87942983D01*
X173832345Y-88286635D01*
X174095365Y-88549655D01*
X174439017Y-88692000D01*
X174810983Y-88692000D01*
X175154635Y-88549655D01*
X175417655Y-88286635D01*
X175560000Y-87942983D01*
X175560000Y-87896801D01*
X175744470Y-87712331D01*
X175807929Y-87669929D01*
X175975904Y-87418537D01*
X176020000Y-87196852D01*
X176020000Y-87196847D01*
X176034888Y-87122000D01*
X176020000Y-87047153D01*
X176020000Y-83089921D01*
X176044345Y-83143459D01*
X176881571Y-85080927D01*
X177546073Y-86858432D01*
X178105690Y-88507055D01*
X178108680Y-88552911D01*
X178149104Y-88634954D01*
X178156397Y-88656438D01*
X178178867Y-88695358D01*
X178225232Y-88789457D01*
X178032365Y-88869345D01*
X177769345Y-89132365D01*
X177627000Y-89476017D01*
X177627000Y-89847983D01*
X177677001Y-89968696D01*
X177677000Y-95804839D01*
X177659663Y-95892000D01*
X177677000Y-95979161D01*
X177677000Y-95979164D01*
X177728348Y-96237309D01*
X177923951Y-96530049D01*
X177997847Y-96579425D01*
X178821217Y-97402796D01*
X178792191Y-97422191D01*
X178651843Y-97632235D01*
X178602560Y-97880000D01*
X178602560Y-98880000D01*
X178651843Y-99127765D01*
X178792191Y-99337809D01*
X178947001Y-99441250D01*
X178947000Y-100785306D01*
X178897000Y-100906017D01*
X178897000Y-101277983D01*
X179039345Y-101621635D01*
X179302365Y-101884655D01*
X179646017Y-102027000D01*
X180017983Y-102027000D01*
X180361635Y-101884655D01*
X180624655Y-101621635D01*
X180767000Y-101277983D01*
X180767000Y-100906017D01*
X180717000Y-100785306D01*
X180717000Y-99527440D01*
X180850000Y-99527440D01*
X181097765Y-99478157D01*
X181307809Y-99337809D01*
X181448157Y-99127765D01*
X181497440Y-98880000D01*
X181497440Y-97964180D01*
X184395000Y-97964180D01*
X184395000Y-98395820D01*
X184560182Y-98794603D01*
X184865397Y-99099818D01*
X185264180Y-99265000D01*
X185695820Y-99265000D01*
X186094603Y-99099818D01*
X186399818Y-98794603D01*
X186565000Y-98395820D01*
X186565000Y-97964180D01*
X186399818Y-97565397D01*
X186094603Y-97260182D01*
X185695820Y-97095000D01*
X185264180Y-97095000D01*
X184865397Y-97260182D01*
X184560182Y-97565397D01*
X184395000Y-97964180D01*
X181497440Y-97964180D01*
X181497440Y-97880000D01*
X181448157Y-97632235D01*
X181307809Y-97422191D01*
X181097765Y-97281843D01*
X180926018Y-97247681D01*
X180883652Y-97034690D01*
X180783984Y-96885527D01*
X180737424Y-96815845D01*
X180737423Y-96815844D01*
X180688049Y-96741951D01*
X180614156Y-96692577D01*
X180249019Y-96327440D01*
X180850000Y-96327440D01*
X181097765Y-96278157D01*
X181307809Y-96137809D01*
X181448157Y-95927765D01*
X181497440Y-95680000D01*
X181497440Y-94964180D01*
X184395000Y-94964180D01*
X184395000Y-95395820D01*
X184560182Y-95794603D01*
X184865397Y-96099818D01*
X185264180Y-96265000D01*
X185695820Y-96265000D01*
X186094603Y-96099818D01*
X186399818Y-95794603D01*
X186565000Y-95395820D01*
X186565000Y-94964180D01*
X186399818Y-94565397D01*
X186094603Y-94260182D01*
X185695820Y-94095000D01*
X185264180Y-94095000D01*
X184865397Y-94260182D01*
X184560182Y-94565397D01*
X184395000Y-94964180D01*
X181497440Y-94964180D01*
X181497440Y-94680000D01*
X181448157Y-94432235D01*
X181307809Y-94222191D01*
X181097765Y-94081843D01*
X180850000Y-94032560D01*
X180810000Y-94032560D01*
X180810000Y-91224848D01*
X180824888Y-91150000D01*
X180810000Y-91075152D01*
X180810000Y-91075148D01*
X180765904Y-90853463D01*
X180765904Y-90853462D01*
X180690148Y-90740086D01*
X180597929Y-90602071D01*
X180534470Y-90559669D01*
X180513000Y-90538199D01*
X180513000Y-90492017D01*
X180370655Y-90148365D01*
X180107635Y-89885345D01*
X179763983Y-89743000D01*
X179497000Y-89743000D01*
X179497000Y-89476017D01*
X179357442Y-89139094D01*
X182035853Y-89492633D01*
X182037192Y-89493082D01*
X182102636Y-89501448D01*
X182168212Y-89510104D01*
X182169624Y-89510012D01*
X184568132Y-89816632D01*
X185997151Y-90085667D01*
X186386786Y-90211276D01*
X186641923Y-90338470D01*
X186827448Y-90480016D01*
X187022541Y-90687191D01*
X187361533Y-91090408D01*
X187361532Y-96906439D01*
X187337375Y-100818459D01*
X187288481Y-102033564D01*
X187202571Y-102843406D01*
X187087537Y-103298176D01*
X186973685Y-103497676D01*
X186819788Y-103628670D01*
X186547352Y-103772646D01*
X186122958Y-103898677D01*
X185245894Y-104076935D01*
X182734331Y-104454481D01*
X181586049Y-104584465D01*
X180264786Y-104682841D01*
X178370709Y-104754002D01*
X175541907Y-104800963D01*
X175444737Y-104791600D01*
X175341858Y-104823045D01*
X175236714Y-104845780D01*
X175212406Y-104862612D01*
X175184129Y-104871255D01*
X175101116Y-104939676D01*
X175012674Y-105000918D01*
X174996657Y-105025773D01*
X174973841Y-105044578D01*
X174923330Y-105139559D01*
X174865058Y-105229984D01*
X174859772Y-105259074D01*
X174845889Y-105285180D01*
X174835571Y-105392258D01*
X174816338Y-105498101D01*
X174822587Y-105527001D01*
X174819751Y-105556432D01*
X174851196Y-105659311D01*
X174873931Y-105764455D01*
X174881787Y-105775800D01*
X174750760Y-106100252D01*
X173983816Y-107680103D01*
X173772010Y-108098007D01*
X173772010Y-103069568D01*
X174144923Y-102696655D01*
X174265635Y-102646655D01*
X174528655Y-102383635D01*
X174671000Y-102039983D01*
X174671000Y-101668017D01*
X174528655Y-101324365D01*
X174265635Y-101061345D01*
X173921983Y-100919000D01*
X173550017Y-100919000D01*
X173206365Y-101061345D01*
X172972000Y-101295710D01*
X172972000Y-100136801D01*
X173783700Y-99325102D01*
X173792191Y-99337809D01*
X174002235Y-99478157D01*
X174250000Y-99527440D01*
X175850000Y-99527440D01*
X176097765Y-99478157D01*
X176307809Y-99337809D01*
X176448157Y-99127765D01*
X176497440Y-98880000D01*
X176497440Y-97880000D01*
X176448157Y-97632235D01*
X176307809Y-97422191D01*
X176097765Y-97281843D01*
X175850000Y-97232560D01*
X174250000Y-97232560D01*
X174002235Y-97281843D01*
X173792191Y-97422191D01*
X173668093Y-97607915D01*
X173654000Y-97605112D01*
X173579153Y-97620000D01*
X173579148Y-97620000D01*
X173357463Y-97664096D01*
X173106071Y-97832071D01*
X173063671Y-97895527D01*
X171727528Y-99231671D01*
X171664072Y-99274071D01*
X171621672Y-99337527D01*
X171621671Y-99337528D01*
X171496097Y-99525463D01*
X171437112Y-99822000D01*
X171452001Y-99896852D01*
X171452000Y-111553198D01*
X170715528Y-112289671D01*
X170652072Y-112332071D01*
X170609672Y-112395527D01*
X170609671Y-112395528D01*
X170551518Y-112482560D01*
X170400000Y-112482560D01*
X170152235Y-112531843D01*
X169942191Y-112672191D01*
X169878001Y-112768257D01*
X169878001Y-105583000D01*
X170111983Y-105583000D01*
X170455635Y-105440655D01*
X170718655Y-105177635D01*
X170861000Y-104833983D01*
X170861000Y-104462017D01*
X170811000Y-104341306D01*
X170811000Y-95465750D01*
X173615000Y-95465750D01*
X173615000Y-95806310D01*
X173711673Y-96039699D01*
X173890302Y-96218327D01*
X174123691Y-96315000D01*
X174764250Y-96315000D01*
X174923000Y-96156250D01*
X174923000Y-95307000D01*
X175177000Y-95307000D01*
X175177000Y-96156250D01*
X175335750Y-96315000D01*
X175976309Y-96315000D01*
X176209698Y-96218327D01*
X176388327Y-96039699D01*
X176485000Y-95806310D01*
X176485000Y-95465750D01*
X176326250Y-95307000D01*
X175177000Y-95307000D01*
X174923000Y-95307000D01*
X173773750Y-95307000D01*
X173615000Y-95465750D01*
X170811000Y-95465750D01*
X170811000Y-94794694D01*
X170861000Y-94673983D01*
X170861000Y-94553690D01*
X173615000Y-94553690D01*
X173615000Y-94894250D01*
X173773750Y-95053000D01*
X174923000Y-95053000D01*
X174923000Y-94203750D01*
X175177000Y-94203750D01*
X175177000Y-95053000D01*
X176326250Y-95053000D01*
X176485000Y-94894250D01*
X176485000Y-94553690D01*
X176388327Y-94320301D01*
X176209698Y-94141673D01*
X175976309Y-94045000D01*
X175335750Y-94045000D01*
X175177000Y-94203750D01*
X174923000Y-94203750D01*
X174764250Y-94045000D01*
X174123691Y-94045000D01*
X173890302Y-94141673D01*
X173711673Y-94320301D01*
X173615000Y-94553690D01*
X170861000Y-94553690D01*
X170861000Y-94302017D01*
X170718655Y-93958365D01*
X170455635Y-93695345D01*
X170111983Y-93553000D01*
X169878001Y-93553000D01*
X169878001Y-85499847D01*
X169892889Y-85425000D01*
X169878001Y-85350153D01*
X169878001Y-85350149D01*
X169833905Y-85128464D01*
X169665930Y-84877072D01*
X169602471Y-84834670D01*
X169591000Y-84823199D01*
X169591000Y-84777017D01*
X169448655Y-84433365D01*
X169185635Y-84170345D01*
X168841983Y-84028000D01*
X168470017Y-84028000D01*
X168126365Y-84170345D01*
X168017000Y-84279710D01*
X168017000Y-79106578D01*
X169308579Y-77815000D01*
X169793541Y-77815000D01*
X169842191Y-77887809D01*
X170052235Y-78028157D01*
X170300000Y-78077440D01*
X171900000Y-78077440D01*
X172147765Y-78028157D01*
X172357809Y-77887809D01*
X172498157Y-77677765D01*
X172547440Y-77430000D01*
X172547440Y-76430000D01*
X172498157Y-76182235D01*
X172357809Y-75972191D01*
X172147765Y-75831843D01*
X171900000Y-75782560D01*
X170300000Y-75782560D01*
X170052235Y-75831843D01*
X169842191Y-75972191D01*
X169793541Y-76045000D01*
X169029161Y-76045000D01*
X168942000Y-76027663D01*
X168854839Y-76045000D01*
X168854835Y-76045000D01*
X168596690Y-76096348D01*
X168377845Y-76242576D01*
X168377844Y-76242577D01*
X168303951Y-76291951D01*
X168254577Y-76365844D01*
X167547440Y-77072981D01*
X167547440Y-76430000D01*
X167498157Y-76182235D01*
X167357809Y-75972191D01*
X167147765Y-75831843D01*
X166900000Y-75782560D01*
X165300000Y-75782560D01*
X165052235Y-75831843D01*
X164842191Y-75972191D01*
X164701843Y-76182235D01*
X164652560Y-76430000D01*
X164652560Y-77430000D01*
X164701843Y-77677765D01*
X164842191Y-77887809D01*
X165052235Y-78028157D01*
X165300000Y-78077440D01*
X165356001Y-78077440D01*
X165356000Y-89861710D01*
X165323345Y-89894365D01*
X165181000Y-90238017D01*
X165181000Y-90609983D01*
X165323345Y-90953635D01*
X165586365Y-91216655D01*
X165930017Y-91359000D01*
X166301983Y-91359000D01*
X166645635Y-91216655D01*
X166908655Y-90953635D01*
X167051000Y-90609983D01*
X167051000Y-90238017D01*
X166908655Y-89894365D01*
X166876000Y-89861710D01*
X166876000Y-89551998D01*
X166946017Y-89581000D01*
X167317983Y-89581000D01*
X167661635Y-89438655D01*
X167924655Y-89175635D01*
X168067000Y-88831983D01*
X168067000Y-88460017D01*
X168017000Y-88339306D01*
X168017000Y-85646290D01*
X168126365Y-85755655D01*
X168358002Y-85851602D01*
X168358001Y-109894126D01*
X168336798Y-109889908D01*
X168296635Y-109849745D01*
X167952983Y-109707400D01*
X167581017Y-109707400D01*
X167237365Y-109849745D01*
X166974345Y-110112765D01*
X166832000Y-110456417D01*
X166832000Y-110828383D01*
X166974345Y-111172035D01*
X167237365Y-111435055D01*
X167581017Y-111577400D01*
X167819800Y-111577400D01*
X167819801Y-116760309D01*
X167787145Y-116792965D01*
X167647440Y-117130243D01*
X167647440Y-116330000D01*
X167598157Y-116082235D01*
X167457809Y-115872191D01*
X167247765Y-115731843D01*
X167000000Y-115682560D01*
X165400000Y-115682560D01*
X165152235Y-115731843D01*
X164995918Y-115836292D01*
X164876655Y-115548365D01*
X164613635Y-115285345D01*
X164269983Y-115143000D01*
X163898017Y-115143000D01*
X163554365Y-115285345D01*
X163291345Y-115548365D01*
X163149000Y-115892017D01*
X163149000Y-116263983D01*
X163291345Y-116607635D01*
X163554365Y-116870655D01*
X163898017Y-117013000D01*
X163944198Y-117013000D01*
X164255672Y-117324473D01*
X164298071Y-117387929D01*
X164361526Y-117430328D01*
X164361527Y-117430329D01*
X164549462Y-117555904D01*
X164823682Y-117610449D01*
X164942191Y-117787809D01*
X165152235Y-117928157D01*
X165400000Y-117977440D01*
X167000000Y-117977440D01*
X167247765Y-117928157D01*
X167457809Y-117787809D01*
X167598157Y-117577765D01*
X167644800Y-117343272D01*
X167644800Y-117508583D01*
X167787145Y-117852235D01*
X167972696Y-118037786D01*
X167872365Y-118079345D01*
X167609345Y-118342365D01*
X167467000Y-118686017D01*
X167467000Y-119057983D01*
X167609345Y-119401635D01*
X167872365Y-119664655D01*
X168216017Y-119807000D01*
X168587983Y-119807000D01*
X168708694Y-119757000D01*
X169070839Y-119757000D01*
X169158000Y-119774337D01*
X169245161Y-119757000D01*
X169245165Y-119757000D01*
X169503310Y-119705652D01*
X169796049Y-119510049D01*
X169845425Y-119436153D01*
X171304139Y-117977440D01*
X172000000Y-117977440D01*
X172247765Y-117928157D01*
X172457809Y-117787809D01*
X172598157Y-117577765D01*
X172647440Y-117330000D01*
X172647440Y-116330000D01*
X172598157Y-116082235D01*
X172457809Y-115872191D01*
X172428782Y-115852796D01*
X173451166Y-114830413D01*
X173525059Y-114781039D01*
X173606360Y-114659365D01*
X173700598Y-114518327D01*
X173720662Y-114488300D01*
X173772010Y-114230155D01*
X173772010Y-114230151D01*
X173789347Y-114142991D01*
X173772010Y-114055831D01*
X173772010Y-111658462D01*
X173773774Y-111660020D01*
X176323071Y-114917877D01*
X177583686Y-116625842D01*
X177920408Y-117161089D01*
X177888450Y-117206594D01*
X177164484Y-118049314D01*
X175940612Y-119344268D01*
X174241632Y-121061655D01*
X172031995Y-123245509D01*
X170823469Y-124365092D01*
X170542731Y-124577584D01*
X169461112Y-123799753D01*
X167139385Y-122005039D01*
X164096688Y-119606374D01*
X164063033Y-119563511D01*
X163990685Y-119522808D01*
X163979509Y-119513998D01*
X163931971Y-119489776D01*
X163825530Y-119429893D01*
X163811015Y-119428146D01*
X163797989Y-119421509D01*
X163676221Y-119411925D01*
X163554972Y-119397334D01*
X163540896Y-119401274D01*
X163526320Y-119400127D01*
X163410164Y-119437869D01*
X163358788Y-119452250D01*
X163346095Y-119458686D01*
X163267148Y-119484338D01*
X163225710Y-119519729D01*
X160966078Y-120665514D01*
X159894047Y-121174735D01*
X158674064Y-121699534D01*
X157457697Y-122177567D01*
X156392514Y-122548079D01*
X154771461Y-123080171D01*
X154754932Y-123082998D01*
X154707460Y-123101179D01*
X154659192Y-123117022D01*
X154644595Y-123125254D01*
X153922612Y-123401756D01*
X153800525Y-123445923D01*
X153744967Y-123496634D01*
X153681319Y-123536724D01*
X153645298Y-123587609D01*
X153599253Y-123629637D01*
X153567332Y-123697747D01*
X153523868Y-123759145D01*
X153495111Y-123885778D01*
X153475500Y-123965252D01*
X153475500Y-110161694D01*
X153525500Y-110040983D01*
X153525500Y-109669017D01*
X153383155Y-109325365D01*
X153120135Y-109062345D01*
X152776483Y-108920000D01*
X152404517Y-108920000D01*
X152060865Y-109062345D01*
X151797845Y-109325365D01*
X151655500Y-109669017D01*
X151655500Y-110040983D01*
X151705500Y-110161694D01*
X151705500Y-110192100D01*
X151705501Y-120209318D01*
X151668655Y-120120365D01*
X151405635Y-119857345D01*
X151061983Y-119715000D01*
X150690017Y-119715000D01*
X150346365Y-119857345D01*
X150260000Y-119943710D01*
X150260000Y-116505000D01*
X150299983Y-116505000D01*
X150643635Y-116362655D01*
X150906655Y-116099635D01*
X151049000Y-115755983D01*
X151049000Y-115384017D01*
X150906655Y-115040365D01*
X150643635Y-114777345D01*
X150299983Y-114635000D01*
X149928017Y-114635000D01*
X149584365Y-114777345D01*
X149321345Y-115040365D01*
X149179000Y-115384017D01*
X149179000Y-115430199D01*
X149015528Y-115593671D01*
X148952072Y-115636071D01*
X148909672Y-115699527D01*
X148909671Y-115699528D01*
X148832023Y-115815737D01*
X148784097Y-115887463D01*
X148741413Y-116102052D01*
X148725112Y-116184000D01*
X148740001Y-116258852D01*
X148740000Y-124232560D01*
X148713000Y-124232560D01*
X148713000Y-120991159D01*
X148730337Y-120903999D01*
X148713000Y-120816839D01*
X148713000Y-120816835D01*
X148661652Y-120558690D01*
X148466049Y-120265951D01*
X148392153Y-120216575D01*
X148162656Y-119987078D01*
X148112655Y-119866365D01*
X147849635Y-119603345D01*
X147505983Y-119461000D01*
X147134017Y-119461000D01*
X146790365Y-119603345D01*
X146527345Y-119866365D01*
X146385000Y-120210017D01*
X146385000Y-120581983D01*
X146527345Y-120925635D01*
X146790365Y-121188655D01*
X146911078Y-121238656D01*
X146943001Y-121270579D01*
X146943000Y-128120839D01*
X146925663Y-128208000D01*
X146943000Y-128295161D01*
X146943000Y-128295164D01*
X146994348Y-128553309D01*
X147189951Y-128846049D01*
X147263847Y-128895425D01*
X147512575Y-129144153D01*
X147561951Y-129218049D01*
X147854690Y-129413652D01*
X148112835Y-129465000D01*
X148112839Y-129465000D01*
X148199999Y-129482337D01*
X148204524Y-129481437D01*
X148242191Y-129537809D01*
X148452235Y-129678157D01*
X148700000Y-129727440D01*
X150300000Y-129727440D01*
X150547765Y-129678157D01*
X150757809Y-129537809D01*
X150898157Y-129327765D01*
X150947440Y-129080000D01*
X150947440Y-128080000D01*
X150898157Y-127832235D01*
X150757809Y-127622191D01*
X150728782Y-127602796D01*
X151440156Y-126891423D01*
X151514049Y-126842049D01*
X151623890Y-126677662D01*
X151705501Y-126555523D01*
X151705501Y-129166209D01*
X151480345Y-129391365D01*
X151338000Y-129735017D01*
X151338000Y-130106983D01*
X151480345Y-130450635D01*
X151743365Y-130713655D01*
X152087017Y-130856000D01*
X152458983Y-130856000D01*
X152472838Y-130850261D01*
X152421305Y-131215930D01*
X152248569Y-132146138D01*
X152240120Y-132174542D01*
X152148479Y-132188697D01*
X150911112Y-132278761D01*
X147161125Y-132359974D01*
X143374258Y-132298445D01*
X142088239Y-132214631D01*
X141847272Y-132181260D01*
X141699334Y-131584491D01*
X141497810Y-130320182D01*
X141240900Y-128328574D01*
X140755066Y-124166412D01*
X140756201Y-124162217D01*
X140739301Y-124031357D01*
X140731952Y-123968396D01*
X140730650Y-123964366D01*
X140721298Y-123891953D01*
X140689159Y-123835968D01*
X140669309Y-123774541D01*
X140621977Y-123718941D01*
X140619870Y-123715271D01*
X140578237Y-123667561D01*
X140541474Y-123624376D01*
X140510640Y-123569718D01*
X140454446Y-123525701D01*
X140452738Y-123523743D01*
X140401363Y-123484120D01*
X140350260Y-123444090D01*
X140347940Y-123442917D01*
X140291418Y-123399324D01*
X140227532Y-123382037D01*
X140084742Y-123309840D01*
X140033519Y-123282184D01*
X140024631Y-123279447D01*
X140016334Y-123275252D01*
X139960270Y-123259628D01*
X139326522Y-123064479D01*
X139321797Y-123062021D01*
X139262097Y-123044640D01*
X139202666Y-123026340D01*
X139197367Y-123025796D01*
X137802170Y-122619612D01*
X136062717Y-121982807D01*
X134263556Y-121222363D01*
X132650126Y-120434953D01*
X130878329Y-119489326D01*
X130830613Y-119448775D01*
X130802555Y-119439735D01*
X130840655Y-119401635D01*
X130983000Y-119057983D01*
X130983000Y-118686017D01*
X130840655Y-118342365D01*
X130577635Y-118079345D01*
X130233983Y-117937000D01*
X129862017Y-117937000D01*
X129741306Y-117987000D01*
X129398579Y-117987000D01*
X129235000Y-117823422D01*
X129235000Y-117810533D01*
X129397765Y-117778157D01*
X129607809Y-117637809D01*
X129748157Y-117427765D01*
X129797440Y-117180000D01*
X129797440Y-116180000D01*
X129748157Y-115932235D01*
X129607809Y-115722191D01*
X129578782Y-115702796D01*
X130264157Y-115017422D01*
X130338050Y-114968048D01*
X130447305Y-114804538D01*
X130533653Y-114675309D01*
X130545649Y-114615000D01*
X130585001Y-114417164D01*
X130585001Y-114417160D01*
X130602338Y-114329999D01*
X130585001Y-114242838D01*
X130585001Y-104133158D01*
X130602338Y-104045998D01*
X130585001Y-103958838D01*
X130585001Y-103958834D01*
X130533653Y-103700689D01*
X130451402Y-103577593D01*
X130387425Y-103481844D01*
X130387424Y-103481843D01*
X130338050Y-103407950D01*
X130264157Y-103358576D01*
X128118153Y-101212573D01*
X128096656Y-101191076D01*
X128046655Y-101070363D01*
X127783635Y-100807343D01*
X127439983Y-100664998D01*
X127252000Y-100664998D01*
X127252000Y-93800846D01*
X127266888Y-93725999D01*
X127252000Y-93651152D01*
X127252000Y-93651148D01*
X127207904Y-93429463D01*
X127162874Y-93362071D01*
X127082329Y-93241526D01*
X127082327Y-93241524D01*
X127039929Y-93178071D01*
X126976475Y-93135673D01*
X126574330Y-92733529D01*
X126531929Y-92670071D01*
X126280537Y-92502096D01*
X126058852Y-92458000D01*
X126058847Y-92458000D01*
X126033186Y-92452896D01*
X126005635Y-92425345D01*
X125661983Y-92283000D01*
X125290017Y-92283000D01*
X125091000Y-92365435D01*
X125091000Y-81190578D01*
X128354139Y-77927440D01*
X129050000Y-77927440D01*
X129297765Y-77878157D01*
X129507809Y-77737809D01*
X129556459Y-77665000D01*
X131548339Y-77665000D01*
X131635500Y-77682337D01*
X131722661Y-77665000D01*
X134460839Y-77665000D01*
X134548000Y-77682337D01*
X134635161Y-77665000D01*
X134635165Y-77665000D01*
X134893310Y-77613652D01*
X135186049Y-77418049D01*
X135235425Y-77344153D01*
X135327397Y-77252181D01*
X135209000Y-77538017D01*
X135209000Y-77909983D01*
X135351345Y-78253635D01*
X135400512Y-78302802D01*
X135293464Y-78324095D01*
X135293462Y-78324096D01*
X135293463Y-78324096D01*
X135105527Y-78449670D01*
X135105525Y-78449672D01*
X135042072Y-78492070D01*
X134999674Y-78555523D01*
X133373528Y-80181671D01*
X133310072Y-80224071D01*
X133267672Y-80287527D01*
X133267671Y-80287528D01*
X133142097Y-80475463D01*
X133083112Y-80772000D01*
X133098001Y-80846852D01*
X133098001Y-82631000D01*
X132910017Y-82631000D01*
X132566365Y-82773345D01*
X132303345Y-83036365D01*
X132161000Y-83380017D01*
X132161000Y-83751983D01*
X132211001Y-83872696D01*
X132211000Y-89803422D01*
X132179078Y-89835344D01*
X132058365Y-89885345D01*
X131822000Y-90121710D01*
X131822000Y-83872694D01*
X131872000Y-83751983D01*
X131872000Y-83380017D01*
X131729655Y-83036365D01*
X131466635Y-82773345D01*
X131122983Y-82631000D01*
X130751017Y-82631000D01*
X130407365Y-82773345D01*
X130144345Y-83036365D01*
X130002000Y-83380017D01*
X130002000Y-83751983D01*
X130052001Y-83872696D01*
X130052000Y-97956839D01*
X130034663Y-98044000D01*
X130052000Y-98131161D01*
X130052000Y-98131164D01*
X130103348Y-98389309D01*
X130298951Y-98682049D01*
X130372847Y-98731425D01*
X130475344Y-98833922D01*
X130525345Y-98954635D01*
X130788365Y-99217655D01*
X131132017Y-99360000D01*
X131503983Y-99360000D01*
X131847635Y-99217655D01*
X132110655Y-98954635D01*
X132253000Y-98610983D01*
X132253000Y-98239017D01*
X132110655Y-97895365D01*
X131847635Y-97632345D01*
X131822000Y-97621727D01*
X131822000Y-91234290D01*
X132058365Y-91470655D01*
X132402017Y-91613000D01*
X132773983Y-91613000D01*
X133098000Y-91478788D01*
X133098000Y-93163710D01*
X133065345Y-93196365D01*
X132923000Y-93540017D01*
X132923000Y-93911983D01*
X133065345Y-94255635D01*
X133098000Y-94288290D01*
X133098001Y-110449555D01*
X133074365Y-110459345D01*
X132811345Y-110722365D01*
X132669000Y-111066017D01*
X132669000Y-111437983D01*
X132811345Y-111781635D01*
X133074365Y-112044655D01*
X133418017Y-112187000D01*
X133789983Y-112187000D01*
X134133635Y-112044655D01*
X134396655Y-111781635D01*
X134539000Y-111437983D01*
X134539000Y-111346774D01*
X134573904Y-111294537D01*
X134618000Y-111072852D01*
X134618000Y-111072848D01*
X134632888Y-110998001D01*
X134618000Y-110923154D01*
X134618000Y-110558017D01*
X141051000Y-110558017D01*
X141051000Y-110929983D01*
X141193345Y-111273635D01*
X141226001Y-111306291D01*
X141226000Y-127687153D01*
X141211112Y-127762000D01*
X141226000Y-127836847D01*
X141226000Y-127836851D01*
X141270096Y-128058536D01*
X141438071Y-128309929D01*
X141501530Y-128352331D01*
X142213671Y-129064473D01*
X142256071Y-129127929D01*
X142319527Y-129170329D01*
X142507462Y-129295904D01*
X142555605Y-129305480D01*
X142729148Y-129340000D01*
X142729152Y-129340000D01*
X142804000Y-129354888D01*
X142878848Y-129340000D01*
X143110018Y-129340000D01*
X143242191Y-129537809D01*
X143452235Y-129678157D01*
X143700000Y-129727440D01*
X145300000Y-129727440D01*
X145547765Y-129678157D01*
X145757809Y-129537809D01*
X145898157Y-129327765D01*
X145947440Y-129080000D01*
X145947440Y-128080000D01*
X145898157Y-127832235D01*
X145757809Y-127622191D01*
X145547765Y-127481843D01*
X145300000Y-127432560D01*
X143700000Y-127432560D01*
X143452235Y-127481843D01*
X143242191Y-127622191D01*
X143113536Y-127814735D01*
X142746000Y-127447199D01*
X142746000Y-125665750D01*
X143065000Y-125665750D01*
X143065000Y-126006310D01*
X143161673Y-126239699D01*
X143340302Y-126418327D01*
X143573691Y-126515000D01*
X144214250Y-126515000D01*
X144373000Y-126356250D01*
X144373000Y-125507000D01*
X144627000Y-125507000D01*
X144627000Y-126356250D01*
X144785750Y-126515000D01*
X145426309Y-126515000D01*
X145659698Y-126418327D01*
X145838327Y-126239699D01*
X145935000Y-126006310D01*
X145935000Y-125665750D01*
X145776250Y-125507000D01*
X144627000Y-125507000D01*
X144373000Y-125507000D01*
X143223750Y-125507000D01*
X143065000Y-125665750D01*
X142746000Y-125665750D01*
X142746000Y-124753690D01*
X143065000Y-124753690D01*
X143065000Y-125094250D01*
X143223750Y-125253000D01*
X144373000Y-125253000D01*
X144373000Y-124403750D01*
X144627000Y-124403750D01*
X144627000Y-125253000D01*
X145776250Y-125253000D01*
X145935000Y-125094250D01*
X145935000Y-124753690D01*
X145838327Y-124520301D01*
X145659698Y-124341673D01*
X145426309Y-124245000D01*
X144785750Y-124245000D01*
X144627000Y-124403750D01*
X144373000Y-124403750D01*
X144214250Y-124245000D01*
X143573691Y-124245000D01*
X143340302Y-124341673D01*
X143161673Y-124520301D01*
X143065000Y-124753690D01*
X142746000Y-124753690D01*
X142746000Y-111306290D01*
X142778655Y-111273635D01*
X142921000Y-110929983D01*
X142921000Y-110558017D01*
X142778655Y-110214365D01*
X142515635Y-109951345D01*
X142171983Y-109809000D01*
X141800017Y-109809000D01*
X141456365Y-109951345D01*
X141193345Y-110214365D01*
X141051000Y-110558017D01*
X134618000Y-110558017D01*
X134618000Y-109034017D01*
X142321000Y-109034017D01*
X142321000Y-109405983D01*
X142463345Y-109749635D01*
X142726365Y-110012655D01*
X143070017Y-110155000D01*
X143441983Y-110155000D01*
X143785635Y-110012655D01*
X144048655Y-109749635D01*
X144191000Y-109405983D01*
X144191000Y-109359801D01*
X144756473Y-108794329D01*
X144819929Y-108751929D01*
X144911000Y-108615631D01*
X144911001Y-111707304D01*
X144861000Y-111828017D01*
X144861000Y-112199983D01*
X145003345Y-112543635D01*
X145266365Y-112806655D01*
X145610017Y-112949000D01*
X145886000Y-112949000D01*
X145886001Y-114736600D01*
X145864017Y-114736600D01*
X145520365Y-114878945D01*
X145257345Y-115141965D01*
X145115000Y-115485617D01*
X145115000Y-115857583D01*
X145257345Y-116201235D01*
X145520365Y-116464255D01*
X145864017Y-116606600D01*
X146235983Y-116606600D01*
X146579635Y-116464255D01*
X146842655Y-116201235D01*
X146985000Y-115857583D01*
X146985000Y-115811402D01*
X147130473Y-115665929D01*
X147193929Y-115623529D01*
X147361904Y-115372137D01*
X147406000Y-115150452D01*
X147406000Y-115150448D01*
X147420888Y-115075601D01*
X147406000Y-115000754D01*
X147406000Y-111560290D01*
X147438655Y-111527635D01*
X147581000Y-111183983D01*
X147581000Y-110812017D01*
X147540317Y-110713800D01*
X147734583Y-110713800D01*
X148078235Y-110571455D01*
X148341255Y-110308435D01*
X148483600Y-109964783D01*
X148483600Y-109592817D01*
X148341255Y-109249165D01*
X148308600Y-109216510D01*
X148308600Y-105057890D01*
X148341255Y-105025235D01*
X148483600Y-104681583D01*
X148483600Y-104309617D01*
X148341255Y-103965965D01*
X148078235Y-103702945D01*
X147734583Y-103560600D01*
X147406000Y-103560600D01*
X147406000Y-103043000D01*
X147505983Y-103043000D01*
X147849635Y-102900655D01*
X148112655Y-102637635D01*
X148198652Y-102430017D01*
X148417000Y-102430017D01*
X148417000Y-102801983D01*
X148559345Y-103145635D01*
X148822365Y-103408655D01*
X149166017Y-103551000D01*
X149537983Y-103551000D01*
X149881635Y-103408655D01*
X150144655Y-103145635D01*
X150287000Y-102801983D01*
X150287000Y-102755801D01*
X150852489Y-102190313D01*
X150915945Y-102147913D01*
X151083920Y-101896521D01*
X151128016Y-101674836D01*
X151128016Y-101674831D01*
X151142904Y-101599984D01*
X151128016Y-101525137D01*
X151128016Y-97590290D01*
X151160671Y-97557635D01*
X151303016Y-97213983D01*
X151303016Y-96842017D01*
X151160671Y-96498365D01*
X150897651Y-96235345D01*
X150553999Y-96093000D01*
X150182033Y-96093000D01*
X149838381Y-96235345D01*
X149575361Y-96498365D01*
X149433016Y-96842017D01*
X149433016Y-97213983D01*
X149575361Y-97557635D01*
X149608016Y-97590290D01*
X149608017Y-101285181D01*
X149212199Y-101681000D01*
X149166017Y-101681000D01*
X148822365Y-101823345D01*
X148559345Y-102086365D01*
X148417000Y-102430017D01*
X148198652Y-102430017D01*
X148255000Y-102293983D01*
X148255000Y-101922017D01*
X148112655Y-101578365D01*
X148080000Y-101545710D01*
X148080000Y-97935655D01*
X148357635Y-97820655D01*
X148620655Y-97557635D01*
X148763000Y-97213983D01*
X148763000Y-96842017D01*
X148620655Y-96498365D01*
X148357635Y-96235345D01*
X148013983Y-96093000D01*
X147642017Y-96093000D01*
X147298365Y-96235345D01*
X147066000Y-96467710D01*
X146833635Y-96235345D01*
X146489983Y-96093000D01*
X146118017Y-96093000D01*
X145774365Y-96235345D01*
X145511345Y-96498365D01*
X145369000Y-96842017D01*
X145369000Y-97213983D01*
X145511345Y-97557635D01*
X145774365Y-97820655D01*
X145886001Y-97866896D01*
X145886000Y-105237000D01*
X145610017Y-105237000D01*
X145266365Y-105379345D01*
X145032000Y-105613710D01*
X145032000Y-97590290D01*
X145064655Y-97557635D01*
X145207000Y-97213983D01*
X145207000Y-96842017D01*
X145064655Y-96498365D01*
X144801635Y-96235345D01*
X144457983Y-96093000D01*
X144086017Y-96093000D01*
X143742365Y-96235345D01*
X143479345Y-96498365D01*
X143337000Y-96842017D01*
X143337000Y-97213983D01*
X143479345Y-97557635D01*
X143512001Y-97590291D01*
X143512000Y-107889198D01*
X143116199Y-108285000D01*
X143070017Y-108285000D01*
X142726365Y-108427345D01*
X142463345Y-108690365D01*
X142321000Y-109034017D01*
X134618000Y-109034017D01*
X134618000Y-97066788D01*
X134942017Y-97201000D01*
X135313983Y-97201000D01*
X135384001Y-97171998D01*
X135384001Y-98765555D01*
X135360365Y-98775345D01*
X135097345Y-99038365D01*
X134955000Y-99382017D01*
X134955000Y-99753983D01*
X135097345Y-100097635D01*
X135360365Y-100360655D01*
X135704017Y-100503000D01*
X136075983Y-100503000D01*
X136146001Y-100473998D01*
X136146001Y-101539198D01*
X136004199Y-101681000D01*
X135958017Y-101681000D01*
X135614365Y-101823345D01*
X135351345Y-102086365D01*
X135209000Y-102430017D01*
X135209000Y-102801983D01*
X135351345Y-103145635D01*
X135614365Y-103408655D01*
X135958017Y-103551000D01*
X136329983Y-103551000D01*
X136673635Y-103408655D01*
X136936655Y-103145635D01*
X137079000Y-102801983D01*
X137079000Y-102755801D01*
X137390470Y-102444331D01*
X137453929Y-102401929D01*
X137621904Y-102150537D01*
X137666000Y-101928852D01*
X137666000Y-101928848D01*
X137680888Y-101854001D01*
X137666000Y-101779154D01*
X137666000Y-94542290D01*
X137698655Y-94509635D01*
X137841000Y-94165983D01*
X137841000Y-93794017D01*
X137698655Y-93450365D01*
X137435635Y-93187345D01*
X137091983Y-93045000D01*
X136904000Y-93045000D01*
X136904000Y-92510290D01*
X136936655Y-92477635D01*
X137079000Y-92133983D01*
X137079000Y-91762017D01*
X136936655Y-91418365D01*
X136673635Y-91155345D01*
X136329983Y-91013000D01*
X135958017Y-91013000D01*
X135888000Y-91042002D01*
X135888000Y-89222017D01*
X136225000Y-89222017D01*
X136225000Y-89593983D01*
X136367345Y-89937635D01*
X136630365Y-90200655D01*
X136974017Y-90343000D01*
X137345983Y-90343000D01*
X137689635Y-90200655D01*
X137722290Y-90168000D01*
X140909199Y-90168000D01*
X142321000Y-91579802D01*
X142321000Y-91625983D01*
X142463345Y-91969635D01*
X142726365Y-92232655D01*
X143070017Y-92375000D01*
X143441983Y-92375000D01*
X143785635Y-92232655D01*
X144048655Y-91969635D01*
X144191000Y-91625983D01*
X144191000Y-91254017D01*
X144048655Y-90910365D01*
X144011307Y-90873017D01*
X158831000Y-90873017D01*
X158831000Y-91244983D01*
X158973345Y-91588635D01*
X159006001Y-91621291D01*
X159006000Y-114606151D01*
X158991112Y-114680998D01*
X159006000Y-114755845D01*
X159006000Y-114755849D01*
X159050096Y-114977534D01*
X159218071Y-115228927D01*
X159281530Y-115271329D01*
X161625002Y-117614802D01*
X161625002Y-117660983D01*
X161767347Y-118004635D01*
X162030367Y-118267655D01*
X162374019Y-118410000D01*
X162745985Y-118410000D01*
X163089637Y-118267655D01*
X163352657Y-118004635D01*
X163495002Y-117660983D01*
X163495002Y-117289017D01*
X163352657Y-116945365D01*
X163089637Y-116682345D01*
X162745985Y-116540000D01*
X162699804Y-116540000D01*
X160526000Y-114366197D01*
X160526000Y-113915750D01*
X164765000Y-113915750D01*
X164765000Y-114256310D01*
X164861673Y-114489699D01*
X165040302Y-114668327D01*
X165273691Y-114765000D01*
X165914250Y-114765000D01*
X166073000Y-114606250D01*
X166073000Y-113757000D01*
X166327000Y-113757000D01*
X166327000Y-114606250D01*
X166485750Y-114765000D01*
X167126309Y-114765000D01*
X167359698Y-114668327D01*
X167538327Y-114489699D01*
X167635000Y-114256310D01*
X167635000Y-113915750D01*
X167476250Y-113757000D01*
X166327000Y-113757000D01*
X166073000Y-113757000D01*
X164923750Y-113757000D01*
X164765000Y-113915750D01*
X160526000Y-113915750D01*
X160526000Y-113003690D01*
X164765000Y-113003690D01*
X164765000Y-113344250D01*
X164923750Y-113503000D01*
X166073000Y-113503000D01*
X166073000Y-112653750D01*
X166327000Y-112653750D01*
X166327000Y-113503000D01*
X167476250Y-113503000D01*
X167635000Y-113344250D01*
X167635000Y-113003690D01*
X167538327Y-112770301D01*
X167359698Y-112591673D01*
X167126309Y-112495000D01*
X166485750Y-112495000D01*
X166327000Y-112653750D01*
X166073000Y-112653750D01*
X165914250Y-112495000D01*
X165273691Y-112495000D01*
X165040302Y-112591673D01*
X164861673Y-112770301D01*
X164765000Y-113003690D01*
X160526000Y-113003690D01*
X160526000Y-108970517D01*
X165054000Y-108970517D01*
X165054000Y-109342483D01*
X165196345Y-109686135D01*
X165459365Y-109949155D01*
X165803017Y-110091500D01*
X166174983Y-110091500D01*
X166518635Y-109949155D01*
X166781655Y-109686135D01*
X166924000Y-109342483D01*
X166924000Y-108970517D01*
X166874000Y-108849806D01*
X166874000Y-98619576D01*
X166963135Y-98582655D01*
X167226155Y-98319635D01*
X167368500Y-97975983D01*
X167368500Y-97604017D01*
X167226155Y-97260365D01*
X166963135Y-96997345D01*
X166619483Y-96855000D01*
X166247517Y-96855000D01*
X165903865Y-96997345D01*
X165640845Y-97260365D01*
X165590844Y-97381078D01*
X165424847Y-97547075D01*
X165350951Y-97596451D01*
X165155348Y-97889191D01*
X165104000Y-98147336D01*
X165104000Y-98147339D01*
X165086663Y-98234500D01*
X165104000Y-98321661D01*
X165104001Y-108849804D01*
X165054000Y-108970517D01*
X160526000Y-108970517D01*
X160526000Y-103170000D01*
X160840983Y-103170000D01*
X161184635Y-103027655D01*
X161447655Y-102764635D01*
X161590000Y-102420983D01*
X161590000Y-102049017D01*
X161540000Y-101928306D01*
X161540000Y-98477670D01*
X161589990Y-98356983D01*
X161589990Y-97985017D01*
X161447645Y-97641365D01*
X161184625Y-97378345D01*
X160840973Y-97236000D01*
X160526000Y-97236000D01*
X160526000Y-94048017D01*
X161371000Y-94048017D01*
X161371000Y-94419983D01*
X161421001Y-94540696D01*
X161421000Y-95705306D01*
X161371000Y-95826017D01*
X161371000Y-96197983D01*
X161513345Y-96541635D01*
X161776365Y-96804655D01*
X162120017Y-96947000D01*
X162491983Y-96947000D01*
X162835635Y-96804655D01*
X163098655Y-96541635D01*
X163241000Y-96197983D01*
X163241000Y-95826017D01*
X163191000Y-95705306D01*
X163191000Y-94540694D01*
X163241000Y-94419983D01*
X163241000Y-94048017D01*
X163098655Y-93704365D01*
X162835635Y-93441345D01*
X162491983Y-93299000D01*
X162120017Y-93299000D01*
X161776365Y-93441345D01*
X161513345Y-93704365D01*
X161371000Y-94048017D01*
X160526000Y-94048017D01*
X160526000Y-91621290D01*
X160558655Y-91588635D01*
X160701000Y-91244983D01*
X160701000Y-90873017D01*
X160558655Y-90529365D01*
X160295635Y-90266345D01*
X159951983Y-90124000D01*
X159580017Y-90124000D01*
X159236365Y-90266345D01*
X158973345Y-90529365D01*
X158831000Y-90873017D01*
X144011307Y-90873017D01*
X143785635Y-90647345D01*
X143441983Y-90505000D01*
X143395802Y-90505000D01*
X141814331Y-88923530D01*
X141771929Y-88860071D01*
X141520537Y-88692096D01*
X141298852Y-88648000D01*
X141298847Y-88648000D01*
X141224000Y-88633112D01*
X141149153Y-88648000D01*
X137722290Y-88648000D01*
X137689635Y-88615345D01*
X137345983Y-88473000D01*
X136974017Y-88473000D01*
X136630365Y-88615345D01*
X136367345Y-88878365D01*
X136225000Y-89222017D01*
X135888000Y-89222017D01*
X135888000Y-84642801D01*
X136666803Y-83863999D01*
X141103154Y-83863999D01*
X141178001Y-83878887D01*
X141252848Y-83863999D01*
X141252853Y-83863999D01*
X141474538Y-83819903D01*
X141595618Y-83739000D01*
X141663983Y-83739000D01*
X142007635Y-83596655D01*
X142270655Y-83333635D01*
X142413000Y-82989983D01*
X142413000Y-82618017D01*
X142270655Y-82274365D01*
X142007635Y-82011345D01*
X141663983Y-81869000D01*
X141292017Y-81869000D01*
X140948365Y-82011345D01*
X140685345Y-82274365D01*
X140656502Y-82343999D01*
X136426849Y-82343999D01*
X136352001Y-82329111D01*
X136277153Y-82343999D01*
X136277149Y-82343999D01*
X136103606Y-82378519D01*
X136055463Y-82388095D01*
X135920391Y-82478348D01*
X135804072Y-82556070D01*
X135761672Y-82619526D01*
X134643528Y-83737671D01*
X134618000Y-83754728D01*
X134618000Y-81330290D01*
X134852365Y-81564655D01*
X135196017Y-81707000D01*
X135567983Y-81707000D01*
X135688694Y-81657000D01*
X141171306Y-81657000D01*
X141292017Y-81707000D01*
X141663983Y-81707000D01*
X142007635Y-81564655D01*
X142270655Y-81301635D01*
X142413000Y-80957983D01*
X142413000Y-80586017D01*
X142270655Y-80242365D01*
X142007635Y-79979345D01*
X141663983Y-79837000D01*
X141292017Y-79837000D01*
X141171306Y-79887000D01*
X135817803Y-79887000D01*
X135904804Y-79799999D01*
X141103154Y-79799999D01*
X141178001Y-79814887D01*
X141252848Y-79799999D01*
X141252853Y-79799999D01*
X141474538Y-79755903D01*
X141595618Y-79675000D01*
X141663983Y-79675000D01*
X142007635Y-79532655D01*
X142270655Y-79269635D01*
X142413000Y-78925983D01*
X142413000Y-78554017D01*
X142270655Y-78210365D01*
X142012710Y-77952420D01*
X142179265Y-77946234D01*
X151955602Y-77882752D01*
X154209213Y-77892274D01*
X155336338Y-77897037D01*
X155378148Y-77890144D01*
X156251273Y-77590106D01*
X156295354Y-77564041D01*
X156324845Y-77524219D01*
X156674095Y-76784444D01*
X156685725Y-76741758D01*
X156780975Y-75697183D01*
X156781438Y-75689629D01*
X156799137Y-75125017D01*
X161307500Y-75125017D01*
X161307500Y-75496983D01*
X161357501Y-75617696D01*
X161357500Y-80909806D01*
X161307500Y-81030517D01*
X161307500Y-81402483D01*
X161449845Y-81746135D01*
X161712865Y-82009155D01*
X162056517Y-82151500D01*
X162428483Y-82151500D01*
X162772135Y-82009155D01*
X162816000Y-81965290D01*
X162816000Y-83527212D01*
X162491983Y-83393000D01*
X162120017Y-83393000D01*
X161776365Y-83535345D01*
X161513345Y-83798365D01*
X161371000Y-84142017D01*
X161371000Y-84513983D01*
X161421001Y-84634696D01*
X161421000Y-90625306D01*
X161371000Y-90746017D01*
X161371000Y-91117983D01*
X161513345Y-91461635D01*
X161776365Y-91724655D01*
X162120017Y-91867000D01*
X162491983Y-91867000D01*
X162835635Y-91724655D01*
X163098655Y-91461635D01*
X163241000Y-91117983D01*
X163241000Y-90746017D01*
X163191000Y-90625306D01*
X163191000Y-89752565D01*
X163390017Y-89835000D01*
X163761983Y-89835000D01*
X164105635Y-89692655D01*
X164368655Y-89429635D01*
X164511000Y-89085983D01*
X164511000Y-88714017D01*
X164368655Y-88370365D01*
X164336000Y-88337710D01*
X164336000Y-74015750D01*
X164665000Y-74015750D01*
X164665000Y-74356310D01*
X164761673Y-74589699D01*
X164940302Y-74768327D01*
X165173691Y-74865000D01*
X165814250Y-74865000D01*
X165973000Y-74706250D01*
X165973000Y-73857000D01*
X166227000Y-73857000D01*
X166227000Y-74706250D01*
X166385750Y-74865000D01*
X167026309Y-74865000D01*
X167259698Y-74768327D01*
X167438327Y-74589699D01*
X167535000Y-74356310D01*
X167535000Y-74015750D01*
X167376250Y-73857000D01*
X166227000Y-73857000D01*
X165973000Y-73857000D01*
X164823750Y-73857000D01*
X164665000Y-74015750D01*
X164336000Y-74015750D01*
X164336000Y-73103690D01*
X164665000Y-73103690D01*
X164665000Y-73444250D01*
X164823750Y-73603000D01*
X165973000Y-73603000D01*
X165973000Y-72753750D01*
X166227000Y-72753750D01*
X166227000Y-73603000D01*
X167376250Y-73603000D01*
X167535000Y-73444250D01*
X167535000Y-73230000D01*
X169652560Y-73230000D01*
X169652560Y-74230000D01*
X169701843Y-74477765D01*
X169842191Y-74687809D01*
X170052235Y-74828157D01*
X170300000Y-74877440D01*
X171900000Y-74877440D01*
X172147765Y-74828157D01*
X172357809Y-74687809D01*
X172498157Y-74477765D01*
X172547440Y-74230000D01*
X172547440Y-73230000D01*
X172498157Y-72982235D01*
X172357809Y-72772191D01*
X172147765Y-72631843D01*
X171900000Y-72582560D01*
X170300000Y-72582560D01*
X170052235Y-72631843D01*
X169842191Y-72772191D01*
X169701843Y-72982235D01*
X169652560Y-73230000D01*
X167535000Y-73230000D01*
X167535000Y-73103690D01*
X167438327Y-72870301D01*
X167259698Y-72691673D01*
X167026309Y-72595000D01*
X166385750Y-72595000D01*
X166227000Y-72753750D01*
X165973000Y-72753750D01*
X165814250Y-72595000D01*
X165173691Y-72595000D01*
X164940302Y-72691673D01*
X164761673Y-72870301D01*
X164665000Y-73103690D01*
X164336000Y-73103690D01*
X164336000Y-72958797D01*
X165303298Y-71991500D01*
X165349479Y-71991500D01*
X165693131Y-71849155D01*
X165956151Y-71586135D01*
X166098496Y-71242483D01*
X166098496Y-70870517D01*
X165956151Y-70526865D01*
X165693131Y-70263845D01*
X165349479Y-70121500D01*
X164977513Y-70121500D01*
X164633861Y-70263845D01*
X164370841Y-70526865D01*
X164228496Y-70870517D01*
X164228496Y-70916698D01*
X163091528Y-72053667D01*
X163028072Y-72096067D01*
X162985672Y-72159523D01*
X162985671Y-72159524D01*
X162860097Y-72347459D01*
X162801112Y-72643996D01*
X162816001Y-72718848D01*
X162816001Y-74562211D01*
X162772135Y-74518345D01*
X162428483Y-74376000D01*
X162056517Y-74376000D01*
X161712865Y-74518345D01*
X161449845Y-74781365D01*
X161307500Y-75125017D01*
X156799137Y-75125017D01*
X156844938Y-73663979D01*
X156844865Y-73654138D01*
X156755965Y-71730088D01*
X156754432Y-71715433D01*
X156608382Y-70823258D01*
X156602193Y-70799799D01*
X156329143Y-70060024D01*
X156290958Y-70006149D01*
X156247349Y-69982616D01*
X155298024Y-69690516D01*
X155277022Y-69685956D01*
X154200697Y-69546256D01*
X154195881Y-69545725D01*
X151967031Y-69342525D01*
X151955500Y-69342000D01*
X142176500Y-69342000D01*
X142163542Y-69342663D01*
X139934692Y-69571263D01*
X139932939Y-69571455D01*
X138866260Y-69695849D01*
X138845141Y-69700153D01*
X137886170Y-69982159D01*
X137828967Y-70017548D01*
X137802965Y-70059731D01*
X137721990Y-70277464D01*
X137721990Y-69649175D01*
X138631166Y-68740000D01*
X143310018Y-68740000D01*
X143442191Y-68937809D01*
X143652235Y-69078157D01*
X143900000Y-69127440D01*
X145500000Y-69127440D01*
X145747765Y-69078157D01*
X145957809Y-68937809D01*
X146098157Y-68727765D01*
X146147440Y-68480000D01*
X146147440Y-67814999D01*
X146983421Y-67814999D01*
X147712577Y-68544156D01*
X147761951Y-68618049D01*
X147835844Y-68667423D01*
X147835845Y-68667424D01*
X147957115Y-68748454D01*
X148054690Y-68813652D01*
X148312835Y-68865000D01*
X148312839Y-68865000D01*
X148400000Y-68882337D01*
X148404524Y-68881437D01*
X148442191Y-68937809D01*
X148652235Y-69078157D01*
X148900000Y-69127440D01*
X150500000Y-69127440D01*
X150747765Y-69078157D01*
X150957809Y-68937809D01*
X151006459Y-68865000D01*
X151352306Y-68865000D01*
X151388519Y-68880000D01*
X151527753Y-68880000D01*
X151539502Y-68882337D01*
X151551251Y-68880000D01*
X151760485Y-68880000D01*
X152104137Y-68737655D01*
X152367157Y-68474635D01*
X152509502Y-68130983D01*
X152509502Y-67759017D01*
X152367157Y-67415365D01*
X152104137Y-67152345D01*
X151760485Y-67010000D01*
X151388519Y-67010000D01*
X151183310Y-67095000D01*
X151006459Y-67095000D01*
X150957809Y-67022191D01*
X150747765Y-66881843D01*
X150500000Y-66832560D01*
X148900000Y-66832560D01*
X148652235Y-66881843D01*
X148593001Y-66921422D01*
X148064066Y-66392488D01*
X148272928Y-66252930D01*
X148315330Y-66189471D01*
X148636895Y-65867907D01*
X148652235Y-65878157D01*
X148900000Y-65927440D01*
X150500000Y-65927440D01*
X150747765Y-65878157D01*
X150957809Y-65737809D01*
X151098157Y-65527765D01*
X151147440Y-65280000D01*
X151147440Y-64280000D01*
X151098157Y-64032235D01*
X150957809Y-63822191D01*
X150747765Y-63681843D01*
X150500000Y-63632560D01*
X148900000Y-63632560D01*
X148652235Y-63681843D01*
X148442191Y-63822191D01*
X148301843Y-64032235D01*
X148286622Y-64108758D01*
X148102071Y-64232071D01*
X148059671Y-64295527D01*
X147410198Y-64945001D01*
X146014251Y-64945001D01*
X145976250Y-64907000D01*
X144827000Y-64907000D01*
X144827000Y-64927000D01*
X144573000Y-64927000D01*
X144573000Y-64907000D01*
X143423750Y-64907000D01*
X143385749Y-64945001D01*
X139160500Y-64945001D01*
X139167205Y-64889895D01*
X139166893Y-64888774D01*
X139253890Y-64153690D01*
X143265000Y-64153690D01*
X143265000Y-64494250D01*
X143423750Y-64653000D01*
X144573000Y-64653000D01*
X144573000Y-63803750D01*
X144827000Y-63803750D01*
X144827000Y-64653000D01*
X145976250Y-64653000D01*
X146135000Y-64494250D01*
X146135000Y-64153690D01*
X146038327Y-63920301D01*
X145859698Y-63741673D01*
X145626309Y-63645000D01*
X144985750Y-63645000D01*
X144827000Y-63803750D01*
X144573000Y-63803750D01*
X144414250Y-63645000D01*
X143773691Y-63645000D01*
X143540302Y-63741673D01*
X143361673Y-63920301D01*
X143265000Y-64153690D01*
X139253890Y-64153690D01*
X139620097Y-61059415D01*
X139642863Y-60887502D01*
X139645285Y-60892327D01*
X139647680Y-60899454D01*
X139649796Y-60906380D01*
X139651184Y-60915245D01*
X139659098Y-60936817D01*
X139665869Y-60958972D01*
X139670150Y-60966942D01*
X139672645Y-60973743D01*
X139674874Y-60980374D01*
X139676501Y-60989188D01*
X139685064Y-61010697D01*
X139692495Y-61032808D01*
X139696986Y-61040642D01*
X139699569Y-61047130D01*
X139701902Y-61053489D01*
X139703762Y-61062230D01*
X139712957Y-61083622D01*
X139721051Y-61105683D01*
X139725749Y-61113381D01*
X139728411Y-61119574D01*
X139730839Y-61125672D01*
X139732927Y-61134335D01*
X139742762Y-61155618D01*
X139751512Y-61177597D01*
X139756404Y-61185142D01*
X139759154Y-61191092D01*
X139761652Y-61196905D01*
X139763963Y-61205481D01*
X139774431Y-61226632D01*
X139783833Y-61248506D01*
X139788910Y-61255890D01*
X139791711Y-61261551D01*
X139794304Y-61267161D01*
X139796830Y-61275636D01*
X139807916Y-61296620D01*
X139817968Y-61318373D01*
X139823223Y-61325592D01*
X139826098Y-61331034D01*
X139828754Y-61336402D01*
X139831492Y-61344775D01*
X139843200Y-61365592D01*
X139853885Y-61387182D01*
X139859304Y-61394223D01*
X139862246Y-61399455D01*
X139864967Y-61404605D01*
X139867906Y-61412859D01*
X139880219Y-61433474D01*
X139891540Y-61454902D01*
X139897117Y-61461765D01*
X139900111Y-61466778D01*
X139902907Y-61471749D01*
X139906046Y-61479890D01*
X139918964Y-61500298D01*
X139930897Y-61521514D01*
X139936620Y-61528190D01*
X139939670Y-61533009D01*
X139942540Y-61537814D01*
X139945864Y-61545816D01*
X139959349Y-61565956D01*
X139971908Y-61586982D01*
X139977778Y-61593479D01*
X139980887Y-61598121D01*
X139983823Y-61602759D01*
X139987330Y-61610631D01*
X140001400Y-61630528D01*
X140014554Y-61651308D01*
X140020549Y-61657607D01*
X140023714Y-61662082D01*
X140026719Y-61666570D01*
X140030402Y-61674304D01*
X140045034Y-61693923D01*
X140058777Y-61714448D01*
X140064896Y-61720555D01*
X140068120Y-61724878D01*
X140071197Y-61729229D01*
X140075048Y-61736819D01*
X140090230Y-61756144D01*
X140104551Y-61776396D01*
X140110784Y-61782307D01*
X140114076Y-61786498D01*
X140117221Y-61790715D01*
X140121236Y-61798162D01*
X140136963Y-61817186D01*
X140151832Y-61837123D01*
X140158164Y-61842831D01*
X140161538Y-61846912D01*
X140164759Y-61851013D01*
X140168927Y-61858306D01*
X140185166Y-61876989D01*
X140200589Y-61896621D01*
X140207021Y-61902133D01*
X140210449Y-61906077D01*
X140213776Y-61910101D01*
X140218088Y-61917235D01*
X140234821Y-61935559D01*
X140250790Y-61954875D01*
X140257317Y-61960192D01*
X140260810Y-61964017D01*
X140264238Y-61967961D01*
X140268696Y-61974946D01*
X140285929Y-61992917D01*
X140302394Y-62011860D01*
X140308998Y-62016974D01*
X140312604Y-62020734D01*
X140316106Y-62024569D01*
X140320696Y-62031391D01*
X140338393Y-62048975D01*
X140355370Y-62067565D01*
X140362053Y-62072483D01*
X140365745Y-62076151D01*
X140369359Y-62079919D01*
X140374086Y-62086593D01*
X140392266Y-62103808D01*
X140409695Y-62121983D01*
X140416437Y-62126695D01*
X140420241Y-62130297D01*
X140423961Y-62133993D01*
X140428805Y-62140497D01*
X140447395Y-62157277D01*
X140465312Y-62175079D01*
X140472127Y-62179601D01*
X140476030Y-62183124D01*
X140479878Y-62186768D01*
X140484841Y-62193111D01*
X140503864Y-62209480D01*
X140522225Y-62226866D01*
X140529093Y-62231189D01*
X140533093Y-62234631D01*
X140537088Y-62238237D01*
X140542165Y-62244420D01*
X140561588Y-62260352D01*
X140580368Y-62277303D01*
X140587287Y-62281431D01*
X140591436Y-62284834D01*
X140595549Y-62288374D01*
X140600732Y-62294392D01*
X140620538Y-62309876D01*
X140639731Y-62326391D01*
X140646696Y-62330326D01*
X140650982Y-62333676D01*
X140655250Y-62337177D01*
X140660543Y-62343041D01*
X140680735Y-62358081D01*
X140700287Y-62374118D01*
X140707286Y-62377856D01*
X140711722Y-62381161D01*
X140716159Y-62384630D01*
X140721542Y-62390322D01*
X140742042Y-62404865D01*
X140761990Y-62420459D01*
X140769036Y-62424013D01*
X140773630Y-62427272D01*
X140778225Y-62430695D01*
X140783704Y-62436227D01*
X140804558Y-62450308D01*
X140824844Y-62465418D01*
X140831913Y-62468779D01*
X140836673Y-62471994D01*
X140841450Y-62475382D01*
X140847015Y-62480749D01*
X140868166Y-62494333D01*
X140888790Y-62508964D01*
X140895889Y-62512140D01*
X140900794Y-62515290D01*
X140905789Y-62518663D01*
X140911441Y-62523869D01*
X140932878Y-62536954D01*
X140953804Y-62551084D01*
X140960927Y-62554075D01*
X140966048Y-62557201D01*
X140971228Y-62560528D01*
X140976962Y-62565573D01*
X140998668Y-62578152D01*
X141019877Y-62591774D01*
X141027018Y-62594581D01*
X141032344Y-62597668D01*
X141037719Y-62600949D01*
X141043524Y-62605827D01*
X141065477Y-62617892D01*
X141086971Y-62631012D01*
X141094127Y-62633638D01*
X141099660Y-62636679D01*
X141105257Y-62639922D01*
X141111145Y-62644647D01*
X141133365Y-62656211D01*
X141155067Y-62668788D01*
X141162222Y-62671230D01*
X141167978Y-62674225D01*
X141173819Y-62677436D01*
X141179769Y-62681993D01*
X141202156Y-62693009D01*
X141224112Y-62705076D01*
X141231287Y-62707344D01*
X141237275Y-62710291D01*
X141243366Y-62713461D01*
X141249383Y-62717858D01*
X141271971Y-62728348D01*
X141294127Y-62739879D01*
X141301302Y-62741970D01*
X141307527Y-62744861D01*
X141313869Y-62747981D01*
X141319941Y-62752213D01*
X141342684Y-62762161D01*
X141365051Y-62773167D01*
X141372231Y-62775084D01*
X141378703Y-62777915D01*
X141385313Y-62780985D01*
X141391446Y-62785058D01*
X141414357Y-62794473D01*
X141436876Y-62804931D01*
X141444047Y-62806674D01*
X141450768Y-62809436D01*
X141457678Y-62812458D01*
X141463866Y-62816371D01*
X141486890Y-62825235D01*
X141509551Y-62835147D01*
X141516720Y-62836720D01*
X141523729Y-62839418D01*
X141530926Y-62842376D01*
X141537159Y-62846125D01*
X141560280Y-62854438D01*
X141583085Y-62863810D01*
X141590248Y-62865214D01*
X141597554Y-62867841D01*
X141605027Y-62870718D01*
X141611312Y-62874310D01*
X141634553Y-62882086D01*
X141657445Y-62890899D01*
X141664585Y-62892133D01*
X141672192Y-62894678D01*
X141679975Y-62897477D01*
X141686310Y-62900912D01*
X141709634Y-62908141D01*
X141732584Y-62916393D01*
X141739702Y-62917460D01*
X141747650Y-62919923D01*
X141755731Y-62922627D01*
X141762091Y-62925895D01*
X141785426Y-62932562D01*
X141808495Y-62940280D01*
X141815605Y-62941184D01*
X141823817Y-62943530D01*
X141832272Y-62946151D01*
X141838667Y-62949259D01*
X141862047Y-62955379D01*
X141885160Y-62962543D01*
X141892240Y-62963283D01*
X141900763Y-62965515D01*
X141909575Y-62968032D01*
X141916005Y-62970982D01*
X141939391Y-62976551D01*
X141962517Y-62983158D01*
X141969571Y-62983737D01*
X141978457Y-62985853D01*
X141987611Y-62988250D01*
X141994069Y-62991040D01*
X142017443Y-62996059D01*
X142040577Y-63002115D01*
X142047601Y-63002535D01*
X142056863Y-63004523D01*
X142066344Y-63006781D01*
X142072817Y-63009409D01*
X142096163Y-63013882D01*
X142119312Y-63019394D01*
X142126301Y-63019656D01*
X142135895Y-63021494D01*
X142145763Y-63023613D01*
X142152270Y-63026087D01*
X142175622Y-63030024D01*
X142198679Y-63034975D01*
X142205611Y-63035080D01*
X142215618Y-63036767D01*
X142225849Y-63038727D01*
X142232355Y-63041037D01*
X142255577Y-63044423D01*
X142278639Y-63048841D01*
X142285547Y-63048792D01*
X142295868Y-63050297D01*
X142306544Y-63052097D01*
X142313056Y-63054247D01*
X142336205Y-63057098D01*
X142359214Y-63060977D01*
X142366072Y-63060776D01*
X142376806Y-63062098D01*
X142387834Y-63063706D01*
X142394356Y-63065699D01*
X142417427Y-63068020D01*
X142440327Y-63071359D01*
X142447124Y-63071008D01*
X142458254Y-63072128D01*
X142469710Y-63073539D01*
X142476227Y-63075373D01*
X142499158Y-63077165D01*
X142521966Y-63079974D01*
X142528712Y-63079475D01*
X142540212Y-63080374D01*
X142552124Y-63081572D01*
X142558630Y-63083248D01*
X142581403Y-63084518D01*
X142604111Y-63086803D01*
X142610802Y-63086158D01*
X142622735Y-63086824D01*
X142635047Y-63087786D01*
X142641545Y-63089306D01*
X142664178Y-63090063D01*
X142686736Y-63091826D01*
X142693357Y-63091039D01*
X142705696Y-63091451D01*
X142718454Y-63092163D01*
X142724933Y-63093527D01*
X142747390Y-63093777D01*
X142769798Y-63095027D01*
X142776350Y-63094100D01*
X142789140Y-63094242D01*
X142797496Y-63094521D01*
X142800556Y-63095130D01*
X142815694Y-63095130D01*
X142853281Y-63096387D01*
X142860928Y-63095130D01*
X142868891Y-63095130D01*
X142937143Y-63095890D01*
X142941199Y-63095130D01*
X151072367Y-63095130D01*
X151076423Y-63095890D01*
X151144675Y-63095130D01*
X151152639Y-63095130D01*
X151160286Y-63096387D01*
X151197873Y-63095130D01*
X151213010Y-63095130D01*
X151216069Y-63094521D01*
X151224427Y-63094242D01*
X151237217Y-63094100D01*
X151243769Y-63095027D01*
X151266178Y-63093777D01*
X151288634Y-63093527D01*
X151295113Y-63092163D01*
X151307873Y-63091451D01*
X151320211Y-63091039D01*
X151326832Y-63091826D01*
X151349394Y-63090063D01*
X151372022Y-63089306D01*
X151378518Y-63087787D01*
X151390846Y-63086823D01*
X151402766Y-63086158D01*
X151409456Y-63086803D01*
X151432164Y-63084518D01*
X151454940Y-63083248D01*
X151461445Y-63081573D01*
X151473336Y-63080376D01*
X151484863Y-63079475D01*
X151491604Y-63079974D01*
X151514396Y-63077167D01*
X151537343Y-63075374D01*
X151543864Y-63073539D01*
X151555305Y-63072130D01*
X151566445Y-63071009D01*
X151573243Y-63071360D01*
X151596147Y-63068021D01*
X151619216Y-63065700D01*
X151625737Y-63063707D01*
X151636786Y-63062096D01*
X151647508Y-63060776D01*
X151654361Y-63060977D01*
X151677359Y-63057100D01*
X151700519Y-63054248D01*
X151707033Y-63052097D01*
X151717674Y-63050304D01*
X151728028Y-63048794D01*
X151734938Y-63048843D01*
X151758012Y-63044423D01*
X151781222Y-63041039D01*
X151787723Y-63038731D01*
X151798012Y-63036760D01*
X151807966Y-63035082D01*
X151814900Y-63034977D01*
X151837969Y-63030024D01*
X151861311Y-63026089D01*
X151867814Y-63023616D01*
X151877669Y-63021500D01*
X151887284Y-63019658D01*
X151894273Y-63019397D01*
X151917430Y-63013883D01*
X151940766Y-63009413D01*
X151947234Y-63006787D01*
X151956755Y-63004520D01*
X151965986Y-63002538D01*
X151973010Y-63002119D01*
X151996150Y-62996062D01*
X152019518Y-62991045D01*
X152025972Y-62988256D01*
X152035112Y-62985864D01*
X152044025Y-62983742D01*
X152051076Y-62983163D01*
X152074195Y-62976559D01*
X152097587Y-62970989D01*
X152104018Y-62968039D01*
X152112830Y-62965521D01*
X152121361Y-62963288D01*
X152128435Y-62962549D01*
X152151534Y-62955391D01*
X152174930Y-62949267D01*
X152181327Y-62946158D01*
X152189775Y-62943540D01*
X152197994Y-62941193D01*
X152205108Y-62940288D01*
X152228202Y-62932563D01*
X152251511Y-62925904D01*
X152257861Y-62922641D01*
X152265992Y-62919921D01*
X152273903Y-62917470D01*
X152281022Y-62916403D01*
X152303981Y-62908149D01*
X152327296Y-62900924D01*
X152333627Y-62897491D01*
X152341406Y-62894694D01*
X152349036Y-62892142D01*
X152356172Y-62890909D01*
X152379057Y-62882100D01*
X152402302Y-62874324D01*
X152408586Y-62870733D01*
X152416065Y-62867854D01*
X152423376Y-62865226D01*
X152430530Y-62863824D01*
X152453320Y-62854461D01*
X152476459Y-62846142D01*
X152482694Y-62842392D01*
X152489868Y-62839445D01*
X152496910Y-62836734D01*
X152504073Y-62835163D01*
X152526723Y-62825258D01*
X152549763Y-62816389D01*
X152555952Y-62812476D01*
X152562832Y-62809467D01*
X152569597Y-62806688D01*
X152576761Y-62804947D01*
X152599257Y-62794502D01*
X152622184Y-62785082D01*
X152628321Y-62781007D01*
X152634937Y-62777935D01*
X152641409Y-62775105D01*
X152648585Y-62773189D01*
X152670950Y-62762186D01*
X152693698Y-62752238D01*
X152699768Y-62748008D01*
X152706115Y-62744886D01*
X152712349Y-62741991D01*
X152719524Y-62739901D01*
X152741686Y-62728369D01*
X152764268Y-62717884D01*
X152770281Y-62713490D01*
X152776377Y-62710318D01*
X152782372Y-62707369D01*
X152789542Y-62705103D01*
X152811490Y-62693043D01*
X152833884Y-62682026D01*
X152839834Y-62677470D01*
X152845683Y-62674255D01*
X152851438Y-62671261D01*
X152858596Y-62668819D01*
X152880317Y-62656234D01*
X152902522Y-62644680D01*
X152908404Y-62639961D01*
X152914026Y-62636704D01*
X152919542Y-62633673D01*
X152926703Y-62631046D01*
X152948216Y-62617918D01*
X152970149Y-62605866D01*
X152975948Y-62600993D01*
X152981350Y-62597697D01*
X152986665Y-62594617D01*
X152993801Y-62591813D01*
X153015006Y-62578197D01*
X153036722Y-62565615D01*
X153042456Y-62560571D01*
X153047637Y-62557244D01*
X153052767Y-62554114D01*
X153059884Y-62551126D01*
X153080808Y-62537001D01*
X153102253Y-62523914D01*
X153107903Y-62518711D01*
X153112878Y-62515352D01*
X153117817Y-62512180D01*
X153124916Y-62509006D01*
X153145540Y-62494380D01*
X153166685Y-62480802D01*
X153172249Y-62475437D01*
X153177050Y-62472033D01*
X153181800Y-62468826D01*
X153188873Y-62465464D01*
X153209169Y-62450350D01*
X153230008Y-62436283D01*
X153235484Y-62430755D01*
X153240103Y-62427315D01*
X153244684Y-62424066D01*
X153251725Y-62420516D01*
X153271671Y-62404927D01*
X153292186Y-62390378D01*
X153297569Y-62384687D01*
X153302010Y-62381216D01*
X153306444Y-62377914D01*
X153313446Y-62374175D01*
X153333019Y-62358125D01*
X153353196Y-62343100D01*
X153358482Y-62337245D01*
X153362762Y-62333736D01*
X153367048Y-62330386D01*
X153374014Y-62326452D01*
X153393210Y-62309939D01*
X153413009Y-62294465D01*
X153418191Y-62288449D01*
X153422321Y-62284896D01*
X153426473Y-62281492D01*
X153433389Y-62277367D01*
X153452167Y-62260422D01*
X153471594Y-62244492D01*
X153476671Y-62238311D01*
X153480668Y-62234704D01*
X153484678Y-62231254D01*
X153491544Y-62226934D01*
X153509907Y-62209552D01*
X153528930Y-62193187D01*
X153533891Y-62186847D01*
X153537745Y-62183199D01*
X153541653Y-62179673D01*
X153548469Y-62175152D01*
X153566395Y-62157347D01*
X153584979Y-62140577D01*
X153589821Y-62134079D01*
X153593563Y-62130362D01*
X153597362Y-62126765D01*
X153604106Y-62122053D01*
X153621538Y-62103880D01*
X153639711Y-62086677D01*
X153644437Y-62080007D01*
X153648045Y-62076245D01*
X153651763Y-62072553D01*
X153658443Y-62067639D01*
X153675410Y-62049065D01*
X153693114Y-62031480D01*
X153697707Y-62024656D01*
X153701222Y-62020807D01*
X153704823Y-62017054D01*
X153711424Y-62011944D01*
X153727891Y-61993005D01*
X153745132Y-61975031D01*
X153749590Y-61968048D01*
X153753023Y-61964100D01*
X153756517Y-61960275D01*
X153763047Y-61954957D01*
X153779027Y-61935633D01*
X153795752Y-61917324D01*
X153800061Y-61910197D01*
X153803387Y-61906175D01*
X153806822Y-61902225D01*
X153813254Y-61896715D01*
X153828680Y-61877086D01*
X153844921Y-61858407D01*
X153849089Y-61851116D01*
X153852338Y-61846981D01*
X153855690Y-61842928D01*
X153862031Y-61837214D01*
X153876924Y-61817251D01*
X153892630Y-61798259D01*
X153896639Y-61790825D01*
X153899802Y-61786586D01*
X153903095Y-61782396D01*
X153909325Y-61776489D01*
X153923642Y-61756250D01*
X153938827Y-61736928D01*
X153942679Y-61729339D01*
X153945763Y-61724979D01*
X153948996Y-61720646D01*
X153955118Y-61714538D01*
X153968867Y-61694011D01*
X153983492Y-61674408D01*
X153987174Y-61666680D01*
X153990185Y-61662185D01*
X153993361Y-61657694D01*
X153999353Y-61651401D01*
X154012495Y-61630646D01*
X154026578Y-61610739D01*
X154030090Y-61602861D01*
X154033018Y-61598237D01*
X154036140Y-61593576D01*
X154042005Y-61587087D01*
X154054561Y-61566075D01*
X154068061Y-61545919D01*
X154071387Y-61537914D01*
X154074258Y-61533109D01*
X154077312Y-61528288D01*
X154083042Y-61521605D01*
X154094989Y-61500370D01*
X154107891Y-61479996D01*
X154111027Y-61471867D01*
X154113834Y-61466878D01*
X154116833Y-61461858D01*
X154122411Y-61454996D01*
X154133727Y-61433586D01*
X154146041Y-61412977D01*
X154148983Y-61404719D01*
X154151718Y-61399544D01*
X154154656Y-61394322D01*
X154160078Y-61387279D01*
X154170771Y-61365681D01*
X154182476Y-61344877D01*
X154185213Y-61336510D01*
X154187883Y-61331116D01*
X154190751Y-61325690D01*
X154196007Y-61318472D01*
X154206063Y-61296719D01*
X154217150Y-61275741D01*
X154219677Y-61267269D01*
X154222263Y-61261675D01*
X154225083Y-61255979D01*
X154230159Y-61248598D01*
X154239558Y-61226740D01*
X154250030Y-61205589D01*
X154252343Y-61197010D01*
X154254843Y-61191196D01*
X154257604Y-61185224D01*
X154262496Y-61177681D01*
X154271242Y-61155721D01*
X154281078Y-61134444D01*
X154283168Y-61125777D01*
X154285596Y-61119681D01*
X154288267Y-61113470D01*
X154292962Y-61105780D01*
X154301051Y-61083742D01*
X154310258Y-61062331D01*
X154312121Y-61053582D01*
X154314454Y-61047226D01*
X154317042Y-61040727D01*
X154321539Y-61032885D01*
X154328978Y-61010759D01*
X154337533Y-60989278D01*
X154339160Y-60980472D01*
X154341394Y-60973826D01*
X154343892Y-60967019D01*
X154348174Y-60959051D01*
X154354941Y-60936916D01*
X154362857Y-60915350D01*
X154364247Y-60906480D01*
X154366370Y-60899534D01*
X154368767Y-60892406D01*
X154372828Y-60884317D01*
X154378934Y-60862163D01*
X154382499Y-60851560D01*
X154421414Y-61144584D01*
X154896807Y-65040429D01*
X154890385Y-65090914D01*
X154913161Y-65174453D01*
X154915318Y-65192126D01*
X154930875Y-65239423D01*
X154962067Y-65353828D01*
X154973261Y-65368285D01*
X154978973Y-65385651D01*
X155056308Y-65475540D01*
X155086792Y-65514910D01*
X155100227Y-65526589D01*
X155156700Y-65592229D01*
X155202130Y-65615170D01*
X155206032Y-65618562D01*
X155217015Y-65637546D01*
X155308316Y-65707474D01*
X155343223Y-65737818D01*
X155361785Y-65748427D01*
X155378752Y-65761422D01*
X155420239Y-65781835D01*
X155520098Y-65838908D01*
X155541856Y-65841676D01*
X155827611Y-65982278D01*
X155856524Y-66000198D01*
X155887988Y-66011987D01*
X155918141Y-66026823D01*
X155951009Y-66035598D01*
X157292242Y-66538116D01*
X159222884Y-67262562D01*
X161153617Y-68111512D01*
X163030879Y-69021749D01*
X163067634Y-69053135D01*
X163152390Y-69080666D01*
X163170687Y-69089538D01*
X163216426Y-69101467D01*
X163326813Y-69137324D01*
X163347624Y-69135684D01*
X163367818Y-69140951D01*
X163482781Y-69125035D01*
X163598480Y-69115919D01*
X163617074Y-69106443D01*
X163637754Y-69103580D01*
X163737882Y-69044876D01*
X163779993Y-69023415D01*
X163795960Y-69010825D01*
X163872839Y-68965752D01*
X163902006Y-68927211D01*
X166670875Y-66744037D01*
X168796314Y-65101544D01*
X169858724Y-64337869D01*
X169956036Y-64303078D01*
X170166404Y-64267957D01*
X170807208Y-64271099D01*
X171175629Y-64344186D01*
X171520976Y-64523379D01*
X172081485Y-64989449D01*
X173008236Y-65889062D01*
X174660637Y-67533001D01*
X174681480Y-67569801D01*
X174756424Y-67628297D01*
X174775068Y-67646846D01*
X174809499Y-67669725D01*
X174896298Y-67737474D01*
X174922286Y-67744668D01*
X174944749Y-67759594D01*
X175052807Y-67780800D01*
X175158931Y-67810178D01*
X175185696Y-67806879D01*
X175212158Y-67812072D01*
X175320098Y-67790313D01*
X175429393Y-67776842D01*
X175452859Y-67763551D01*
X175479295Y-67758222D01*
X175570697Y-67696809D01*
X175606660Y-67676440D01*
X175626572Y-67659267D01*
X175705488Y-67606243D01*
X175728895Y-67571017D01*
X181379346Y-62697707D01*
X181381010Y-62696752D01*
X181430296Y-62653764D01*
X181480057Y-62610847D01*
X181481243Y-62609327D01*
X183881511Y-60515781D01*
X183886492Y-60512810D01*
X183932228Y-60471544D01*
X183978805Y-60430919D01*
X183982360Y-60426312D01*
X185696080Y-58880086D01*
X185706663Y-58873239D01*
X185746066Y-58834985D01*
X185786885Y-58798156D01*
X185794424Y-58788038D01*
X186813516Y-57798676D01*
X186835739Y-57781584D01*
X186861794Y-57751806D01*
X186890195Y-57724234D01*
X186906121Y-57701147D01*
X187068629Y-57515421D01*
X187079171Y-57509757D01*
X187158064Y-57413208D01*
X187194894Y-57371116D01*
X187200707Y-57361022D01*
X187208078Y-57352001D01*
X187234343Y-57302611D01*
X187293277Y-57200269D01*
X187314236Y-57177788D01*
X187346196Y-57092275D01*
X187356766Y-57072399D01*
X187369770Y-57029201D01*
X187409640Y-56922524D01*
X187408831Y-56899441D01*
X187415490Y-56877321D01*
X187404086Y-56764003D01*
X187402507Y-56718923D01*
X187397345Y-56697010D01*
X187388204Y-56606181D01*
X187366372Y-56565544D01*
X187276480Y-56183985D01*
X187272659Y-56153433D01*
X187261048Y-56118483D01*
X187252602Y-56082634D01*
X187239830Y-56054617D01*
X187012666Y-55370848D01*
X186911745Y-55044605D01*
X186856694Y-54757299D01*
X186838821Y-54104964D01*
X186957149Y-53449825D01*
X187219274Y-52777707D01*
X187444095Y-52389171D01*
X187712354Y-52034406D01*
X188014781Y-51721876D01*
X188347247Y-51451749D01*
X188705435Y-51224648D01*
X189084766Y-51041469D01*
X189480373Y-50903209D01*
X189887155Y-50810827D01*
X190299926Y-50765136D01*
X190713462Y-50766771D01*
X190713462Y-50766771D01*
G37*
X190713462Y-50766771D02*
X191122743Y-50816195D01*
X191523016Y-50913782D01*
X191909982Y-51059983D01*
X192279767Y-51255544D01*
X192628848Y-51501734D01*
X192958929Y-51805245D01*
X193520102Y-52447239D01*
X193672554Y-52678642D01*
X193777034Y-52900805D01*
X193849268Y-53148029D01*
X193896731Y-53455880D01*
X193932248Y-54422220D01*
X193914431Y-55146124D01*
X193853355Y-55603228D01*
X193739862Y-55932749D01*
X193531661Y-56296921D01*
X193087634Y-56867629D01*
X192587074Y-57316661D01*
X192034610Y-57653420D01*
X191439210Y-57878206D01*
X190808789Y-57989435D01*
X190151060Y-57983424D01*
X189474270Y-57854590D01*
X188761753Y-57586085D01*
X188131034Y-57286479D01*
X188027485Y-57230288D01*
X187940647Y-57221181D01*
X187855972Y-57199820D01*
X187806345Y-57207096D01*
X187756461Y-57201865D01*
X187672741Y-57226686D01*
X187586346Y-57239353D01*
X187543281Y-57265067D01*
X187495192Y-57279324D01*
X187427341Y-57334295D01*
X187352371Y-57379059D01*
X187282031Y-57473569D01*
X186735519Y-58130992D01*
X181693202Y-63979004D01*
X177271890Y-69083486D01*
X177237702Y-69105901D01*
X177183412Y-69185636D01*
X177165285Y-69206564D01*
X177145525Y-69241280D01*
X177084332Y-69331154D01*
X177078551Y-69358948D01*
X177064509Y-69383618D01*
X177050979Y-69491502D01*
X177028837Y-69597953D01*
X177034132Y-69625841D01*
X177030599Y-69654009D01*
X177059386Y-69758861D01*
X177079666Y-69865679D01*
X177095231Y-69889420D01*
X177102747Y-69916795D01*
X177169462Y-70002643D01*
X177191367Y-70036053D01*
X177210776Y-70055804D01*
X177269966Y-70131968D01*
X177305494Y-70152190D01*
X178509429Y-71377330D01*
X179287117Y-72255478D01*
X179520346Y-72594643D01*
X179677585Y-72896415D01*
X179767126Y-73162235D01*
X179804463Y-73414038D01*
X179796510Y-73681359D01*
X179752220Y-73921512D01*
X179591689Y-74217314D01*
X179088250Y-74961088D01*
X177446085Y-77158012D01*
X176020000Y-79020236D01*
X176020000Y-76762290D01*
X176052655Y-76729635D01*
X176195000Y-76385983D01*
X176195000Y-76014017D01*
X176052655Y-75670365D01*
X175789635Y-75407345D01*
X175445983Y-75265000D01*
X175074017Y-75265000D01*
X175004000Y-75294002D01*
X175004000Y-72337848D01*
X175018888Y-72263000D01*
X175004000Y-72188152D01*
X175004000Y-72188148D01*
X174959904Y-71966463D01*
X174791929Y-71715071D01*
X174728473Y-71672671D01*
X173864330Y-70808529D01*
X173821928Y-70745070D01*
X173570536Y-70577095D01*
X173348851Y-70532999D01*
X173348846Y-70532999D01*
X173273999Y-70518111D01*
X173199152Y-70532999D01*
X172017498Y-70532999D01*
X171988655Y-70463365D01*
X171725635Y-70200345D01*
X171381983Y-70058000D01*
X171010017Y-70058000D01*
X170666365Y-70200345D01*
X170403345Y-70463365D01*
X170261000Y-70807017D01*
X170261000Y-71178983D01*
X170403345Y-71522635D01*
X170666365Y-71785655D01*
X171010017Y-71928000D01*
X171078382Y-71928000D01*
X171078520Y-71928092D01*
X171199461Y-72008903D01*
X171247604Y-72018479D01*
X171421147Y-72052999D01*
X171421151Y-72052999D01*
X171495999Y-72067887D01*
X171570847Y-72052999D01*
X172959198Y-72052999D01*
X173484001Y-72577803D01*
X173484000Y-85670710D01*
X173451345Y-85703365D01*
X173309000Y-86047017D01*
X173309000Y-86418983D01*
X173451345Y-86762635D01*
X173714365Y-87025655D01*
X173940420Y-87119290D01*
X173832345Y-87227365D01*
X173690000Y-87571017D01*
X173690000Y-87942983D01*
X173832345Y-88286635D01*
X174095365Y-88549655D01*
X174439017Y-88692000D01*
X174810983Y-88692000D01*
X175154635Y-88549655D01*
X175417655Y-88286635D01*
X175560000Y-87942983D01*
X175560000Y-87896801D01*
X175744470Y-87712331D01*
X175807929Y-87669929D01*
X175975904Y-87418537D01*
X176020000Y-87196852D01*
X176020000Y-87196847D01*
X176034888Y-87122000D01*
X176020000Y-87047153D01*
X176020000Y-83089921D01*
X176044345Y-83143459D01*
X176881571Y-85080927D01*
X177546073Y-86858432D01*
X178105690Y-88507055D01*
X178108680Y-88552911D01*
X178149104Y-88634954D01*
X178156397Y-88656438D01*
X178178867Y-88695358D01*
X178225232Y-88789457D01*
X178032365Y-88869345D01*
X177769345Y-89132365D01*
X177627000Y-89476017D01*
X177627000Y-89847983D01*
X177677001Y-89968696D01*
X177677000Y-95804839D01*
X177659663Y-95892000D01*
X177677000Y-95979161D01*
X177677000Y-95979164D01*
X177728348Y-96237309D01*
X177923951Y-96530049D01*
X177997847Y-96579425D01*
X178821217Y-97402796D01*
X178792191Y-97422191D01*
X178651843Y-97632235D01*
X178602560Y-97880000D01*
X178602560Y-98880000D01*
X178651843Y-99127765D01*
X178792191Y-99337809D01*
X178947001Y-99441250D01*
X178947000Y-100785306D01*
X178897000Y-100906017D01*
X178897000Y-101277983D01*
X179039345Y-101621635D01*
X179302365Y-101884655D01*
X179646017Y-102027000D01*
X180017983Y-102027000D01*
X180361635Y-101884655D01*
X180624655Y-101621635D01*
X180767000Y-101277983D01*
X180767000Y-100906017D01*
X180717000Y-100785306D01*
X180717000Y-99527440D01*
X180850000Y-99527440D01*
X181097765Y-99478157D01*
X181307809Y-99337809D01*
X181448157Y-99127765D01*
X181497440Y-98880000D01*
X181497440Y-97964180D01*
X184395000Y-97964180D01*
X184395000Y-98395820D01*
X184560182Y-98794603D01*
X184865397Y-99099818D01*
X185264180Y-99265000D01*
X185695820Y-99265000D01*
X186094603Y-99099818D01*
X186399818Y-98794603D01*
X186565000Y-98395820D01*
X186565000Y-97964180D01*
X186399818Y-97565397D01*
X186094603Y-97260182D01*
X185695820Y-97095000D01*
X185264180Y-97095000D01*
X184865397Y-97260182D01*
X184560182Y-97565397D01*
X184395000Y-97964180D01*
X181497440Y-97964180D01*
X181497440Y-97880000D01*
X181448157Y-97632235D01*
X181307809Y-97422191D01*
X181097765Y-97281843D01*
X180926018Y-97247681D01*
X180883652Y-97034690D01*
X180783984Y-96885527D01*
X180737424Y-96815845D01*
X180737423Y-96815844D01*
X180688049Y-96741951D01*
X180614156Y-96692577D01*
X180249019Y-96327440D01*
X180850000Y-96327440D01*
X181097765Y-96278157D01*
X181307809Y-96137809D01*
X181448157Y-95927765D01*
X181497440Y-95680000D01*
X181497440Y-94964180D01*
X184395000Y-94964180D01*
X184395000Y-95395820D01*
X184560182Y-95794603D01*
X184865397Y-96099818D01*
X185264180Y-96265000D01*
X185695820Y-96265000D01*
X186094603Y-96099818D01*
X186399818Y-95794603D01*
X186565000Y-95395820D01*
X186565000Y-94964180D01*
X186399818Y-94565397D01*
X186094603Y-94260182D01*
X185695820Y-94095000D01*
X185264180Y-94095000D01*
X184865397Y-94260182D01*
X184560182Y-94565397D01*
X184395000Y-94964180D01*
X181497440Y-94964180D01*
X181497440Y-94680000D01*
X181448157Y-94432235D01*
X181307809Y-94222191D01*
X181097765Y-94081843D01*
X180850000Y-94032560D01*
X180810000Y-94032560D01*
X180810000Y-91224848D01*
X180824888Y-91150000D01*
X180810000Y-91075152D01*
X180810000Y-91075148D01*
X180765904Y-90853463D01*
X180765904Y-90853462D01*
X180690148Y-90740086D01*
X180597929Y-90602071D01*
X180534470Y-90559669D01*
X180513000Y-90538199D01*
X180513000Y-90492017D01*
X180370655Y-90148365D01*
X180107635Y-89885345D01*
X179763983Y-89743000D01*
X179497000Y-89743000D01*
X179497000Y-89476017D01*
X179357442Y-89139094D01*
X182035853Y-89492633D01*
X182037192Y-89493082D01*
X182102636Y-89501448D01*
X182168212Y-89510104D01*
X182169624Y-89510012D01*
X184568132Y-89816632D01*
X185997151Y-90085667D01*
X186386786Y-90211276D01*
X186641923Y-90338470D01*
X186827448Y-90480016D01*
X187022541Y-90687191D01*
X187361533Y-91090408D01*
X187361532Y-96906439D01*
X187337375Y-100818459D01*
X187288481Y-102033564D01*
X187202571Y-102843406D01*
X187087537Y-103298176D01*
X186973685Y-103497676D01*
X186819788Y-103628670D01*
X186547352Y-103772646D01*
X186122958Y-103898677D01*
X185245894Y-104076935D01*
X182734331Y-104454481D01*
X181586049Y-104584465D01*
X180264786Y-104682841D01*
X178370709Y-104754002D01*
X175541907Y-104800963D01*
X175444737Y-104791600D01*
X175341858Y-104823045D01*
X175236714Y-104845780D01*
X175212406Y-104862612D01*
X175184129Y-104871255D01*
X175101116Y-104939676D01*
X175012674Y-105000918D01*
X174996657Y-105025773D01*
X174973841Y-105044578D01*
X174923330Y-105139559D01*
X174865058Y-105229984D01*
X174859772Y-105259074D01*
X174845889Y-105285180D01*
X174835571Y-105392258D01*
X174816338Y-105498101D01*
X174822587Y-105527001D01*
X174819751Y-105556432D01*
X174851196Y-105659311D01*
X174873931Y-105764455D01*
X174881787Y-105775800D01*
X174750760Y-106100252D01*
X173983816Y-107680103D01*
X173772010Y-108098007D01*
X173772010Y-103069568D01*
X174144923Y-102696655D01*
X174265635Y-102646655D01*
X174528655Y-102383635D01*
X174671000Y-102039983D01*
X174671000Y-101668017D01*
X174528655Y-101324365D01*
X174265635Y-101061345D01*
X173921983Y-100919000D01*
X173550017Y-100919000D01*
X173206365Y-101061345D01*
X172972000Y-101295710D01*
X172972000Y-100136801D01*
X173783700Y-99325102D01*
X173792191Y-99337809D01*
X174002235Y-99478157D01*
X174250000Y-99527440D01*
X175850000Y-99527440D01*
X176097765Y-99478157D01*
X176307809Y-99337809D01*
X176448157Y-99127765D01*
X176497440Y-98880000D01*
X176497440Y-97880000D01*
X176448157Y-97632235D01*
X176307809Y-97422191D01*
X176097765Y-97281843D01*
X175850000Y-97232560D01*
X174250000Y-97232560D01*
X174002235Y-97281843D01*
X173792191Y-97422191D01*
X173668093Y-97607915D01*
X173654000Y-97605112D01*
X173579153Y-97620000D01*
X173579148Y-97620000D01*
X173357463Y-97664096D01*
X173106071Y-97832071D01*
X173063671Y-97895527D01*
X171727528Y-99231671D01*
X171664072Y-99274071D01*
X171621672Y-99337527D01*
X171621671Y-99337528D01*
X171496097Y-99525463D01*
X171437112Y-99822000D01*
X171452001Y-99896852D01*
X171452000Y-111553198D01*
X170715528Y-112289671D01*
X170652072Y-112332071D01*
X170609672Y-112395527D01*
X170609671Y-112395528D01*
X170551518Y-112482560D01*
X170400000Y-112482560D01*
X170152235Y-112531843D01*
X169942191Y-112672191D01*
X169878001Y-112768257D01*
X169878001Y-105583000D01*
X170111983Y-105583000D01*
X170455635Y-105440655D01*
X170718655Y-105177635D01*
X170861000Y-104833983D01*
X170861000Y-104462017D01*
X170811000Y-104341306D01*
X170811000Y-95465750D01*
X173615000Y-95465750D01*
X173615000Y-95806310D01*
X173711673Y-96039699D01*
X173890302Y-96218327D01*
X174123691Y-96315000D01*
X174764250Y-96315000D01*
X174923000Y-96156250D01*
X174923000Y-95307000D01*
X175177000Y-95307000D01*
X175177000Y-96156250D01*
X175335750Y-96315000D01*
X175976309Y-96315000D01*
X176209698Y-96218327D01*
X176388327Y-96039699D01*
X176485000Y-95806310D01*
X176485000Y-95465750D01*
X176326250Y-95307000D01*
X175177000Y-95307000D01*
X174923000Y-95307000D01*
X173773750Y-95307000D01*
X173615000Y-95465750D01*
X170811000Y-95465750D01*
X170811000Y-94794694D01*
X170861000Y-94673983D01*
X170861000Y-94553690D01*
X173615000Y-94553690D01*
X173615000Y-94894250D01*
X173773750Y-95053000D01*
X174923000Y-95053000D01*
X174923000Y-94203750D01*
X175177000Y-94203750D01*
X175177000Y-95053000D01*
X176326250Y-95053000D01*
X176485000Y-94894250D01*
X176485000Y-94553690D01*
X176388327Y-94320301D01*
X176209698Y-94141673D01*
X175976309Y-94045000D01*
X175335750Y-94045000D01*
X175177000Y-94203750D01*
X174923000Y-94203750D01*
X174764250Y-94045000D01*
X174123691Y-94045000D01*
X173890302Y-94141673D01*
X173711673Y-94320301D01*
X173615000Y-94553690D01*
X170861000Y-94553690D01*
X170861000Y-94302017D01*
X170718655Y-93958365D01*
X170455635Y-93695345D01*
X170111983Y-93553000D01*
X169878001Y-93553000D01*
X169878001Y-85499847D01*
X169892889Y-85425000D01*
X169878001Y-85350153D01*
X169878001Y-85350149D01*
X169833905Y-85128464D01*
X169665930Y-84877072D01*
X169602471Y-84834670D01*
X169591000Y-84823199D01*
X169591000Y-84777017D01*
X169448655Y-84433365D01*
X169185635Y-84170345D01*
X168841983Y-84028000D01*
X168470017Y-84028000D01*
X168126365Y-84170345D01*
X168017000Y-84279710D01*
X168017000Y-79106578D01*
X169308579Y-77815000D01*
X169793541Y-77815000D01*
X169842191Y-77887809D01*
X170052235Y-78028157D01*
X170300000Y-78077440D01*
X171900000Y-78077440D01*
X172147765Y-78028157D01*
X172357809Y-77887809D01*
X172498157Y-77677765D01*
X172547440Y-77430000D01*
X172547440Y-76430000D01*
X172498157Y-76182235D01*
X172357809Y-75972191D01*
X172147765Y-75831843D01*
X171900000Y-75782560D01*
X170300000Y-75782560D01*
X170052235Y-75831843D01*
X169842191Y-75972191D01*
X169793541Y-76045000D01*
X169029161Y-76045000D01*
X168942000Y-76027663D01*
X168854839Y-76045000D01*
X168854835Y-76045000D01*
X168596690Y-76096348D01*
X168377845Y-76242576D01*
X168377844Y-76242577D01*
X168303951Y-76291951D01*
X168254577Y-76365844D01*
X167547440Y-77072981D01*
X167547440Y-76430000D01*
X167498157Y-76182235D01*
X167357809Y-75972191D01*
X167147765Y-75831843D01*
X166900000Y-75782560D01*
X165300000Y-75782560D01*
X165052235Y-75831843D01*
X164842191Y-75972191D01*
X164701843Y-76182235D01*
X164652560Y-76430000D01*
X164652560Y-77430000D01*
X164701843Y-77677765D01*
X164842191Y-77887809D01*
X165052235Y-78028157D01*
X165300000Y-78077440D01*
X165356001Y-78077440D01*
X165356000Y-89861710D01*
X165323345Y-89894365D01*
X165181000Y-90238017D01*
X165181000Y-90609983D01*
X165323345Y-90953635D01*
X165586365Y-91216655D01*
X165930017Y-91359000D01*
X166301983Y-91359000D01*
X166645635Y-91216655D01*
X166908655Y-90953635D01*
X167051000Y-90609983D01*
X167051000Y-90238017D01*
X166908655Y-89894365D01*
X166876000Y-89861710D01*
X166876000Y-89551998D01*
X166946017Y-89581000D01*
X167317983Y-89581000D01*
X167661635Y-89438655D01*
X167924655Y-89175635D01*
X168067000Y-88831983D01*
X168067000Y-88460017D01*
X168017000Y-88339306D01*
X168017000Y-85646290D01*
X168126365Y-85755655D01*
X168358002Y-85851602D01*
X168358001Y-109894126D01*
X168336798Y-109889908D01*
X168296635Y-109849745D01*
X167952983Y-109707400D01*
X167581017Y-109707400D01*
X167237365Y-109849745D01*
X166974345Y-110112765D01*
X166832000Y-110456417D01*
X166832000Y-110828383D01*
X166974345Y-111172035D01*
X167237365Y-111435055D01*
X167581017Y-111577400D01*
X167819800Y-111577400D01*
X167819801Y-116760309D01*
X167787145Y-116792965D01*
X167647440Y-117130243D01*
X167647440Y-116330000D01*
X167598157Y-116082235D01*
X167457809Y-115872191D01*
X167247765Y-115731843D01*
X167000000Y-115682560D01*
X165400000Y-115682560D01*
X165152235Y-115731843D01*
X164995918Y-115836292D01*
X164876655Y-115548365D01*
X164613635Y-115285345D01*
X164269983Y-115143000D01*
X163898017Y-115143000D01*
X163554365Y-115285345D01*
X163291345Y-115548365D01*
X163149000Y-115892017D01*
X163149000Y-116263983D01*
X163291345Y-116607635D01*
X163554365Y-116870655D01*
X163898017Y-117013000D01*
X163944198Y-117013000D01*
X164255672Y-117324473D01*
X164298071Y-117387929D01*
X164361526Y-117430328D01*
X164361527Y-117430329D01*
X164549462Y-117555904D01*
X164823682Y-117610449D01*
X164942191Y-117787809D01*
X165152235Y-117928157D01*
X165400000Y-117977440D01*
X167000000Y-117977440D01*
X167247765Y-117928157D01*
X167457809Y-117787809D01*
X167598157Y-117577765D01*
X167644800Y-117343272D01*
X167644800Y-117508583D01*
X167787145Y-117852235D01*
X167972696Y-118037786D01*
X167872365Y-118079345D01*
X167609345Y-118342365D01*
X167467000Y-118686017D01*
X167467000Y-119057983D01*
X167609345Y-119401635D01*
X167872365Y-119664655D01*
X168216017Y-119807000D01*
X168587983Y-119807000D01*
X168708694Y-119757000D01*
X169070839Y-119757000D01*
X169158000Y-119774337D01*
X169245161Y-119757000D01*
X169245165Y-119757000D01*
X169503310Y-119705652D01*
X169796049Y-119510049D01*
X169845425Y-119436153D01*
X171304139Y-117977440D01*
X172000000Y-117977440D01*
X172247765Y-117928157D01*
X172457809Y-117787809D01*
X172598157Y-117577765D01*
X172647440Y-117330000D01*
X172647440Y-116330000D01*
X172598157Y-116082235D01*
X172457809Y-115872191D01*
X172428782Y-115852796D01*
X173451166Y-114830413D01*
X173525059Y-114781039D01*
X173606360Y-114659365D01*
X173700598Y-114518327D01*
X173720662Y-114488300D01*
X173772010Y-114230155D01*
X173772010Y-114230151D01*
X173789347Y-114142991D01*
X173772010Y-114055831D01*
X173772010Y-111658462D01*
X173773774Y-111660020D01*
X176323071Y-114917877D01*
X177583686Y-116625842D01*
X177920408Y-117161089D01*
X177888450Y-117206594D01*
X177164484Y-118049314D01*
X175940612Y-119344268D01*
X174241632Y-121061655D01*
X172031995Y-123245509D01*
X170823469Y-124365092D01*
X170542731Y-124577584D01*
X169461112Y-123799753D01*
X167139385Y-122005039D01*
X164096688Y-119606374D01*
X164063033Y-119563511D01*
X163990685Y-119522808D01*
X163979509Y-119513998D01*
X163931971Y-119489776D01*
X163825530Y-119429893D01*
X163811015Y-119428146D01*
X163797989Y-119421509D01*
X163676221Y-119411925D01*
X163554972Y-119397334D01*
X163540896Y-119401274D01*
X163526320Y-119400127D01*
X163410164Y-119437869D01*
X163358788Y-119452250D01*
X163346095Y-119458686D01*
X163267148Y-119484338D01*
X163225710Y-119519729D01*
X160966078Y-120665514D01*
X159894047Y-121174735D01*
X158674064Y-121699534D01*
X157457697Y-122177567D01*
X156392514Y-122548079D01*
X154771461Y-123080171D01*
X154754932Y-123082998D01*
X154707460Y-123101179D01*
X154659192Y-123117022D01*
X154644595Y-123125254D01*
X153922612Y-123401756D01*
X153800525Y-123445923D01*
X153744967Y-123496634D01*
X153681319Y-123536724D01*
X153645298Y-123587609D01*
X153599253Y-123629637D01*
X153567332Y-123697747D01*
X153523868Y-123759145D01*
X153495111Y-123885778D01*
X153475500Y-123965252D01*
X153475500Y-110161694D01*
X153525500Y-110040983D01*
X153525500Y-109669017D01*
X153383155Y-109325365D01*
X153120135Y-109062345D01*
X152776483Y-108920000D01*
X152404517Y-108920000D01*
X152060865Y-109062345D01*
X151797845Y-109325365D01*
X151655500Y-109669017D01*
X151655500Y-110040983D01*
X151705500Y-110161694D01*
X151705500Y-110192100D01*
X151705501Y-120209318D01*
X151668655Y-120120365D01*
X151405635Y-119857345D01*
X151061983Y-119715000D01*
X150690017Y-119715000D01*
X150346365Y-119857345D01*
X150260000Y-119943710D01*
X150260000Y-116505000D01*
X150299983Y-116505000D01*
X150643635Y-116362655D01*
X150906655Y-116099635D01*
X151049000Y-115755983D01*
X151049000Y-115384017D01*
X150906655Y-115040365D01*
X150643635Y-114777345D01*
X150299983Y-114635000D01*
X149928017Y-114635000D01*
X149584365Y-114777345D01*
X149321345Y-115040365D01*
X149179000Y-115384017D01*
X149179000Y-115430199D01*
X149015528Y-115593671D01*
X148952072Y-115636071D01*
X148909672Y-115699527D01*
X148909671Y-115699528D01*
X148832023Y-115815737D01*
X148784097Y-115887463D01*
X148741413Y-116102052D01*
X148725112Y-116184000D01*
X148740001Y-116258852D01*
X148740000Y-124232560D01*
X148713000Y-124232560D01*
X148713000Y-120991159D01*
X148730337Y-120903999D01*
X148713000Y-120816839D01*
X148713000Y-120816835D01*
X148661652Y-120558690D01*
X148466049Y-120265951D01*
X148392153Y-120216575D01*
X148162656Y-119987078D01*
X148112655Y-119866365D01*
X147849635Y-119603345D01*
X147505983Y-119461000D01*
X147134017Y-119461000D01*
X146790365Y-119603345D01*
X146527345Y-119866365D01*
X146385000Y-120210017D01*
X146385000Y-120581983D01*
X146527345Y-120925635D01*
X146790365Y-121188655D01*
X146911078Y-121238656D01*
X146943001Y-121270579D01*
X146943000Y-128120839D01*
X146925663Y-128208000D01*
X146943000Y-128295161D01*
X146943000Y-128295164D01*
X146994348Y-128553309D01*
X147189951Y-128846049D01*
X147263847Y-128895425D01*
X147512575Y-129144153D01*
X147561951Y-129218049D01*
X147854690Y-129413652D01*
X148112835Y-129465000D01*
X148112839Y-129465000D01*
X148199999Y-129482337D01*
X148204524Y-129481437D01*
X148242191Y-129537809D01*
X148452235Y-129678157D01*
X148700000Y-129727440D01*
X150300000Y-129727440D01*
X150547765Y-129678157D01*
X150757809Y-129537809D01*
X150898157Y-129327765D01*
X150947440Y-129080000D01*
X150947440Y-128080000D01*
X150898157Y-127832235D01*
X150757809Y-127622191D01*
X150728782Y-127602796D01*
X151440156Y-126891423D01*
X151514049Y-126842049D01*
X151623890Y-126677662D01*
X151705501Y-126555523D01*
X151705501Y-129166209D01*
X151480345Y-129391365D01*
X151338000Y-129735017D01*
X151338000Y-130106983D01*
X151480345Y-130450635D01*
X151743365Y-130713655D01*
X152087017Y-130856000D01*
X152458983Y-130856000D01*
X152472838Y-130850261D01*
X152421305Y-131215930D01*
X152248569Y-132146138D01*
X152240120Y-132174542D01*
X152148479Y-132188697D01*
X150911112Y-132278761D01*
X147161125Y-132359974D01*
X143374258Y-132298445D01*
X142088239Y-132214631D01*
X141847272Y-132181260D01*
X141699334Y-131584491D01*
X141497810Y-130320182D01*
X141240900Y-128328574D01*
X140755066Y-124166412D01*
X140756201Y-124162217D01*
X140739301Y-124031357D01*
X140731952Y-123968396D01*
X140730650Y-123964366D01*
X140721298Y-123891953D01*
X140689159Y-123835968D01*
X140669309Y-123774541D01*
X140621977Y-123718941D01*
X140619870Y-123715271D01*
X140578237Y-123667561D01*
X140541474Y-123624376D01*
X140510640Y-123569718D01*
X140454446Y-123525701D01*
X140452738Y-123523743D01*
X140401363Y-123484120D01*
X140350260Y-123444090D01*
X140347940Y-123442917D01*
X140291418Y-123399324D01*
X140227532Y-123382037D01*
X140084742Y-123309840D01*
X140033519Y-123282184D01*
X140024631Y-123279447D01*
X140016334Y-123275252D01*
X139960270Y-123259628D01*
X139326522Y-123064479D01*
X139321797Y-123062021D01*
X139262097Y-123044640D01*
X139202666Y-123026340D01*
X139197367Y-123025796D01*
X137802170Y-122619612D01*
X136062717Y-121982807D01*
X134263556Y-121222363D01*
X132650126Y-120434953D01*
X130878329Y-119489326D01*
X130830613Y-119448775D01*
X130802555Y-119439735D01*
X130840655Y-119401635D01*
X130983000Y-119057983D01*
X130983000Y-118686017D01*
X130840655Y-118342365D01*
X130577635Y-118079345D01*
X130233983Y-117937000D01*
X129862017Y-117937000D01*
X129741306Y-117987000D01*
X129398579Y-117987000D01*
X129235000Y-117823422D01*
X129235000Y-117810533D01*
X129397765Y-117778157D01*
X129607809Y-117637809D01*
X129748157Y-117427765D01*
X129797440Y-117180000D01*
X129797440Y-116180000D01*
X129748157Y-115932235D01*
X129607809Y-115722191D01*
X129578782Y-115702796D01*
X130264157Y-115017422D01*
X130338050Y-114968048D01*
X130447305Y-114804538D01*
X130533653Y-114675309D01*
X130545649Y-114615000D01*
X130585001Y-114417164D01*
X130585001Y-114417160D01*
X130602338Y-114329999D01*
X130585001Y-114242838D01*
X130585001Y-104133158D01*
X130602338Y-104045998D01*
X130585001Y-103958838D01*
X130585001Y-103958834D01*
X130533653Y-103700689D01*
X130451402Y-103577593D01*
X130387425Y-103481844D01*
X130387424Y-103481843D01*
X130338050Y-103407950D01*
X130264157Y-103358576D01*
X128118153Y-101212573D01*
X128096656Y-101191076D01*
X128046655Y-101070363D01*
X127783635Y-100807343D01*
X127439983Y-100664998D01*
X127252000Y-100664998D01*
X127252000Y-93800846D01*
X127266888Y-93725999D01*
X127252000Y-93651152D01*
X127252000Y-93651148D01*
X127207904Y-93429463D01*
X127162874Y-93362071D01*
X127082329Y-93241526D01*
X127082327Y-93241524D01*
X127039929Y-93178071D01*
X126976475Y-93135673D01*
X126574330Y-92733529D01*
X126531929Y-92670071D01*
X126280537Y-92502096D01*
X126058852Y-92458000D01*
X126058847Y-92458000D01*
X126033186Y-92452896D01*
X126005635Y-92425345D01*
X125661983Y-92283000D01*
X125290017Y-92283000D01*
X125091000Y-92365435D01*
X125091000Y-81190578D01*
X128354139Y-77927440D01*
X129050000Y-77927440D01*
X129297765Y-77878157D01*
X129507809Y-77737809D01*
X129556459Y-77665000D01*
X131548339Y-77665000D01*
X131635500Y-77682337D01*
X131722661Y-77665000D01*
X134460839Y-77665000D01*
X134548000Y-77682337D01*
X134635161Y-77665000D01*
X134635165Y-77665000D01*
X134893310Y-77613652D01*
X135186049Y-77418049D01*
X135235425Y-77344153D01*
X135327397Y-77252181D01*
X135209000Y-77538017D01*
X135209000Y-77909983D01*
X135351345Y-78253635D01*
X135400512Y-78302802D01*
X135293464Y-78324095D01*
X135293462Y-78324096D01*
X135293463Y-78324096D01*
X135105527Y-78449670D01*
X135105525Y-78449672D01*
X135042072Y-78492070D01*
X134999674Y-78555523D01*
X133373528Y-80181671D01*
X133310072Y-80224071D01*
X133267672Y-80287527D01*
X133267671Y-80287528D01*
X133142097Y-80475463D01*
X133083112Y-80772000D01*
X133098001Y-80846852D01*
X133098001Y-82631000D01*
X132910017Y-82631000D01*
X132566365Y-82773345D01*
X132303345Y-83036365D01*
X132161000Y-83380017D01*
X132161000Y-83751983D01*
X132211001Y-83872696D01*
X132211000Y-89803422D01*
X132179078Y-89835344D01*
X132058365Y-89885345D01*
X131822000Y-90121710D01*
X131822000Y-83872694D01*
X131872000Y-83751983D01*
X131872000Y-83380017D01*
X131729655Y-83036365D01*
X131466635Y-82773345D01*
X131122983Y-82631000D01*
X130751017Y-82631000D01*
X130407365Y-82773345D01*
X130144345Y-83036365D01*
X130002000Y-83380017D01*
X130002000Y-83751983D01*
X130052001Y-83872696D01*
X130052000Y-97956839D01*
X130034663Y-98044000D01*
X130052000Y-98131161D01*
X130052000Y-98131164D01*
X130103348Y-98389309D01*
X130298951Y-98682049D01*
X130372847Y-98731425D01*
X130475344Y-98833922D01*
X130525345Y-98954635D01*
X130788365Y-99217655D01*
X131132017Y-99360000D01*
X131503983Y-99360000D01*
X131847635Y-99217655D01*
X132110655Y-98954635D01*
X132253000Y-98610983D01*
X132253000Y-98239017D01*
X132110655Y-97895365D01*
X131847635Y-97632345D01*
X131822000Y-97621727D01*
X131822000Y-91234290D01*
X132058365Y-91470655D01*
X132402017Y-91613000D01*
X132773983Y-91613000D01*
X133098000Y-91478788D01*
X133098000Y-93163710D01*
X133065345Y-93196365D01*
X132923000Y-93540017D01*
X132923000Y-93911983D01*
X133065345Y-94255635D01*
X133098000Y-94288290D01*
X133098001Y-110449555D01*
X133074365Y-110459345D01*
X132811345Y-110722365D01*
X132669000Y-111066017D01*
X132669000Y-111437983D01*
X132811345Y-111781635D01*
X133074365Y-112044655D01*
X133418017Y-112187000D01*
X133789983Y-112187000D01*
X134133635Y-112044655D01*
X134396655Y-111781635D01*
X134539000Y-111437983D01*
X134539000Y-111346774D01*
X134573904Y-111294537D01*
X134618000Y-111072852D01*
X134618000Y-111072848D01*
X134632888Y-110998001D01*
X134618000Y-110923154D01*
X134618000Y-110558017D01*
X141051000Y-110558017D01*
X141051000Y-110929983D01*
X141193345Y-111273635D01*
X141226001Y-111306291D01*
X141226000Y-127687153D01*
X141211112Y-127762000D01*
X141226000Y-127836847D01*
X141226000Y-127836851D01*
X141270096Y-128058536D01*
X141438071Y-128309929D01*
X141501530Y-128352331D01*
X142213671Y-129064473D01*
X142256071Y-129127929D01*
X142319527Y-129170329D01*
X142507462Y-129295904D01*
X142555605Y-129305480D01*
X142729148Y-129340000D01*
X142729152Y-129340000D01*
X142804000Y-129354888D01*
X142878848Y-129340000D01*
X143110018Y-129340000D01*
X143242191Y-129537809D01*
X143452235Y-129678157D01*
X143700000Y-129727440D01*
X145300000Y-129727440D01*
X145547765Y-129678157D01*
X145757809Y-129537809D01*
X145898157Y-129327765D01*
X145947440Y-129080000D01*
X145947440Y-128080000D01*
X145898157Y-127832235D01*
X145757809Y-127622191D01*
X145547765Y-127481843D01*
X145300000Y-127432560D01*
X143700000Y-127432560D01*
X143452235Y-127481843D01*
X143242191Y-127622191D01*
X143113536Y-127814735D01*
X142746000Y-127447199D01*
X142746000Y-125665750D01*
X143065000Y-125665750D01*
X143065000Y-126006310D01*
X143161673Y-126239699D01*
X143340302Y-126418327D01*
X143573691Y-126515000D01*
X144214250Y-126515000D01*
X144373000Y-126356250D01*
X144373000Y-125507000D01*
X144627000Y-125507000D01*
X144627000Y-126356250D01*
X144785750Y-126515000D01*
X145426309Y-126515000D01*
X145659698Y-126418327D01*
X145838327Y-126239699D01*
X145935000Y-126006310D01*
X145935000Y-125665750D01*
X145776250Y-125507000D01*
X144627000Y-125507000D01*
X144373000Y-125507000D01*
X143223750Y-125507000D01*
X143065000Y-125665750D01*
X142746000Y-125665750D01*
X142746000Y-124753690D01*
X143065000Y-124753690D01*
X143065000Y-125094250D01*
X143223750Y-125253000D01*
X144373000Y-125253000D01*
X144373000Y-124403750D01*
X144627000Y-124403750D01*
X144627000Y-125253000D01*
X145776250Y-125253000D01*
X145935000Y-125094250D01*
X145935000Y-124753690D01*
X145838327Y-124520301D01*
X145659698Y-124341673D01*
X145426309Y-124245000D01*
X144785750Y-124245000D01*
X144627000Y-124403750D01*
X144373000Y-124403750D01*
X144214250Y-124245000D01*
X143573691Y-124245000D01*
X143340302Y-124341673D01*
X143161673Y-124520301D01*
X143065000Y-124753690D01*
X142746000Y-124753690D01*
X142746000Y-111306290D01*
X142778655Y-111273635D01*
X142921000Y-110929983D01*
X142921000Y-110558017D01*
X142778655Y-110214365D01*
X142515635Y-109951345D01*
X142171983Y-109809000D01*
X141800017Y-109809000D01*
X141456365Y-109951345D01*
X141193345Y-110214365D01*
X141051000Y-110558017D01*
X134618000Y-110558017D01*
X134618000Y-109034017D01*
X142321000Y-109034017D01*
X142321000Y-109405983D01*
X142463345Y-109749635D01*
X142726365Y-110012655D01*
X143070017Y-110155000D01*
X143441983Y-110155000D01*
X143785635Y-110012655D01*
X144048655Y-109749635D01*
X144191000Y-109405983D01*
X144191000Y-109359801D01*
X144756473Y-108794329D01*
X144819929Y-108751929D01*
X144911000Y-108615631D01*
X144911001Y-111707304D01*
X144861000Y-111828017D01*
X144861000Y-112199983D01*
X145003345Y-112543635D01*
X145266365Y-112806655D01*
X145610017Y-112949000D01*
X145886000Y-112949000D01*
X145886001Y-114736600D01*
X145864017Y-114736600D01*
X145520365Y-114878945D01*
X145257345Y-115141965D01*
X145115000Y-115485617D01*
X145115000Y-115857583D01*
X145257345Y-116201235D01*
X145520365Y-116464255D01*
X145864017Y-116606600D01*
X146235983Y-116606600D01*
X146579635Y-116464255D01*
X146842655Y-116201235D01*
X146985000Y-115857583D01*
X146985000Y-115811402D01*
X147130473Y-115665929D01*
X147193929Y-115623529D01*
X147361904Y-115372137D01*
X147406000Y-115150452D01*
X147406000Y-115150448D01*
X147420888Y-115075601D01*
X147406000Y-115000754D01*
X147406000Y-111560290D01*
X147438655Y-111527635D01*
X147581000Y-111183983D01*
X147581000Y-110812017D01*
X147540317Y-110713800D01*
X147734583Y-110713800D01*
X148078235Y-110571455D01*
X148341255Y-110308435D01*
X148483600Y-109964783D01*
X148483600Y-109592817D01*
X148341255Y-109249165D01*
X148308600Y-109216510D01*
X148308600Y-105057890D01*
X148341255Y-105025235D01*
X148483600Y-104681583D01*
X148483600Y-104309617D01*
X148341255Y-103965965D01*
X148078235Y-103702945D01*
X147734583Y-103560600D01*
X147406000Y-103560600D01*
X147406000Y-103043000D01*
X147505983Y-103043000D01*
X147849635Y-102900655D01*
X148112655Y-102637635D01*
X148198652Y-102430017D01*
X148417000Y-102430017D01*
X148417000Y-102801983D01*
X148559345Y-103145635D01*
X148822365Y-103408655D01*
X149166017Y-103551000D01*
X149537983Y-103551000D01*
X149881635Y-103408655D01*
X150144655Y-103145635D01*
X150287000Y-102801983D01*
X150287000Y-102755801D01*
X150852489Y-102190313D01*
X150915945Y-102147913D01*
X151083920Y-101896521D01*
X151128016Y-101674836D01*
X151128016Y-101674831D01*
X151142904Y-101599984D01*
X151128016Y-101525137D01*
X151128016Y-97590290D01*
X151160671Y-97557635D01*
X151303016Y-97213983D01*
X151303016Y-96842017D01*
X151160671Y-96498365D01*
X150897651Y-96235345D01*
X150553999Y-96093000D01*
X150182033Y-96093000D01*
X149838381Y-96235345D01*
X149575361Y-96498365D01*
X149433016Y-96842017D01*
X149433016Y-97213983D01*
X149575361Y-97557635D01*
X149608016Y-97590290D01*
X149608017Y-101285181D01*
X149212199Y-101681000D01*
X149166017Y-101681000D01*
X148822365Y-101823345D01*
X148559345Y-102086365D01*
X148417000Y-102430017D01*
X148198652Y-102430017D01*
X148255000Y-102293983D01*
X148255000Y-101922017D01*
X148112655Y-101578365D01*
X148080000Y-101545710D01*
X148080000Y-97935655D01*
X148357635Y-97820655D01*
X148620655Y-97557635D01*
X148763000Y-97213983D01*
X148763000Y-96842017D01*
X148620655Y-96498365D01*
X148357635Y-96235345D01*
X148013983Y-96093000D01*
X147642017Y-96093000D01*
X147298365Y-96235345D01*
X147066000Y-96467710D01*
X146833635Y-96235345D01*
X146489983Y-96093000D01*
X146118017Y-96093000D01*
X145774365Y-96235345D01*
X145511345Y-96498365D01*
X145369000Y-96842017D01*
X145369000Y-97213983D01*
X145511345Y-97557635D01*
X145774365Y-97820655D01*
X145886001Y-97866896D01*
X145886000Y-105237000D01*
X145610017Y-105237000D01*
X145266365Y-105379345D01*
X145032000Y-105613710D01*
X145032000Y-97590290D01*
X145064655Y-97557635D01*
X145207000Y-97213983D01*
X145207000Y-96842017D01*
X145064655Y-96498365D01*
X144801635Y-96235345D01*
X144457983Y-96093000D01*
X144086017Y-96093000D01*
X143742365Y-96235345D01*
X143479345Y-96498365D01*
X143337000Y-96842017D01*
X143337000Y-97213983D01*
X143479345Y-97557635D01*
X143512001Y-97590291D01*
X143512000Y-107889198D01*
X143116199Y-108285000D01*
X143070017Y-108285000D01*
X142726365Y-108427345D01*
X142463345Y-108690365D01*
X142321000Y-109034017D01*
X134618000Y-109034017D01*
X134618000Y-97066788D01*
X134942017Y-97201000D01*
X135313983Y-97201000D01*
X135384001Y-97171998D01*
X135384001Y-98765555D01*
X135360365Y-98775345D01*
X135097345Y-99038365D01*
X134955000Y-99382017D01*
X134955000Y-99753983D01*
X135097345Y-100097635D01*
X135360365Y-100360655D01*
X135704017Y-100503000D01*
X136075983Y-100503000D01*
X136146001Y-100473998D01*
X136146001Y-101539198D01*
X136004199Y-101681000D01*
X135958017Y-101681000D01*
X135614365Y-101823345D01*
X135351345Y-102086365D01*
X135209000Y-102430017D01*
X135209000Y-102801983D01*
X135351345Y-103145635D01*
X135614365Y-103408655D01*
X135958017Y-103551000D01*
X136329983Y-103551000D01*
X136673635Y-103408655D01*
X136936655Y-103145635D01*
X137079000Y-102801983D01*
X137079000Y-102755801D01*
X137390470Y-102444331D01*
X137453929Y-102401929D01*
X137621904Y-102150537D01*
X137666000Y-101928852D01*
X137666000Y-101928848D01*
X137680888Y-101854001D01*
X137666000Y-101779154D01*
X137666000Y-94542290D01*
X137698655Y-94509635D01*
X137841000Y-94165983D01*
X137841000Y-93794017D01*
X137698655Y-93450365D01*
X137435635Y-93187345D01*
X137091983Y-93045000D01*
X136904000Y-93045000D01*
X136904000Y-92510290D01*
X136936655Y-92477635D01*
X137079000Y-92133983D01*
X137079000Y-91762017D01*
X136936655Y-91418365D01*
X136673635Y-91155345D01*
X136329983Y-91013000D01*
X135958017Y-91013000D01*
X135888000Y-91042002D01*
X135888000Y-89222017D01*
X136225000Y-89222017D01*
X136225000Y-89593983D01*
X136367345Y-89937635D01*
X136630365Y-90200655D01*
X136974017Y-90343000D01*
X137345983Y-90343000D01*
X137689635Y-90200655D01*
X137722290Y-90168000D01*
X140909199Y-90168000D01*
X142321000Y-91579802D01*
X142321000Y-91625983D01*
X142463345Y-91969635D01*
X142726365Y-92232655D01*
X143070017Y-92375000D01*
X143441983Y-92375000D01*
X143785635Y-92232655D01*
X144048655Y-91969635D01*
X144191000Y-91625983D01*
X144191000Y-91254017D01*
X144048655Y-90910365D01*
X144011307Y-90873017D01*
X158831000Y-90873017D01*
X158831000Y-91244983D01*
X158973345Y-91588635D01*
X159006001Y-91621291D01*
X159006000Y-114606151D01*
X158991112Y-114680998D01*
X159006000Y-114755845D01*
X159006000Y-114755849D01*
X159050096Y-114977534D01*
X159218071Y-115228927D01*
X159281530Y-115271329D01*
X161625002Y-117614802D01*
X161625002Y-117660983D01*
X161767347Y-118004635D01*
X162030367Y-118267655D01*
X162374019Y-118410000D01*
X162745985Y-118410000D01*
X163089637Y-118267655D01*
X163352657Y-118004635D01*
X163495002Y-117660983D01*
X163495002Y-117289017D01*
X163352657Y-116945365D01*
X163089637Y-116682345D01*
X162745985Y-116540000D01*
X162699804Y-116540000D01*
X160526000Y-114366197D01*
X160526000Y-113915750D01*
X164765000Y-113915750D01*
X164765000Y-114256310D01*
X164861673Y-114489699D01*
X165040302Y-114668327D01*
X165273691Y-114765000D01*
X165914250Y-114765000D01*
X166073000Y-114606250D01*
X166073000Y-113757000D01*
X166327000Y-113757000D01*
X166327000Y-114606250D01*
X166485750Y-114765000D01*
X167126309Y-114765000D01*
X167359698Y-114668327D01*
X167538327Y-114489699D01*
X167635000Y-114256310D01*
X167635000Y-113915750D01*
X167476250Y-113757000D01*
X166327000Y-113757000D01*
X166073000Y-113757000D01*
X164923750Y-113757000D01*
X164765000Y-113915750D01*
X160526000Y-113915750D01*
X160526000Y-113003690D01*
X164765000Y-113003690D01*
X164765000Y-113344250D01*
X164923750Y-113503000D01*
X166073000Y-113503000D01*
X166073000Y-112653750D01*
X166327000Y-112653750D01*
X166327000Y-113503000D01*
X167476250Y-113503000D01*
X167635000Y-113344250D01*
X167635000Y-113003690D01*
X167538327Y-112770301D01*
X167359698Y-112591673D01*
X167126309Y-112495000D01*
X166485750Y-112495000D01*
X166327000Y-112653750D01*
X166073000Y-112653750D01*
X165914250Y-112495000D01*
X165273691Y-112495000D01*
X165040302Y-112591673D01*
X164861673Y-112770301D01*
X164765000Y-113003690D01*
X160526000Y-113003690D01*
X160526000Y-108970517D01*
X165054000Y-108970517D01*
X165054000Y-109342483D01*
X165196345Y-109686135D01*
X165459365Y-109949155D01*
X165803017Y-110091500D01*
X166174983Y-110091500D01*
X166518635Y-109949155D01*
X166781655Y-109686135D01*
X166924000Y-109342483D01*
X166924000Y-108970517D01*
X166874000Y-108849806D01*
X166874000Y-98619576D01*
X166963135Y-98582655D01*
X167226155Y-98319635D01*
X167368500Y-97975983D01*
X167368500Y-97604017D01*
X167226155Y-97260365D01*
X166963135Y-96997345D01*
X166619483Y-96855000D01*
X166247517Y-96855000D01*
X165903865Y-96997345D01*
X165640845Y-97260365D01*
X165590844Y-97381078D01*
X165424847Y-97547075D01*
X165350951Y-97596451D01*
X165155348Y-97889191D01*
X165104000Y-98147336D01*
X165104000Y-98147339D01*
X165086663Y-98234500D01*
X165104000Y-98321661D01*
X165104001Y-108849804D01*
X165054000Y-108970517D01*
X160526000Y-108970517D01*
X160526000Y-103170000D01*
X160840983Y-103170000D01*
X161184635Y-103027655D01*
X161447655Y-102764635D01*
X161590000Y-102420983D01*
X161590000Y-102049017D01*
X161540000Y-101928306D01*
X161540000Y-98477670D01*
X161589990Y-98356983D01*
X161589990Y-97985017D01*
X161447645Y-97641365D01*
X161184625Y-97378345D01*
X160840973Y-97236000D01*
X160526000Y-97236000D01*
X160526000Y-94048017D01*
X161371000Y-94048017D01*
X161371000Y-94419983D01*
X161421001Y-94540696D01*
X161421000Y-95705306D01*
X161371000Y-95826017D01*
X161371000Y-96197983D01*
X161513345Y-96541635D01*
X161776365Y-96804655D01*
X162120017Y-96947000D01*
X162491983Y-96947000D01*
X162835635Y-96804655D01*
X163098655Y-96541635D01*
X163241000Y-96197983D01*
X163241000Y-95826017D01*
X163191000Y-95705306D01*
X163191000Y-94540694D01*
X163241000Y-94419983D01*
X163241000Y-94048017D01*
X163098655Y-93704365D01*
X162835635Y-93441345D01*
X162491983Y-93299000D01*
X162120017Y-93299000D01*
X161776365Y-93441345D01*
X161513345Y-93704365D01*
X161371000Y-94048017D01*
X160526000Y-94048017D01*
X160526000Y-91621290D01*
X160558655Y-91588635D01*
X160701000Y-91244983D01*
X160701000Y-90873017D01*
X160558655Y-90529365D01*
X160295635Y-90266345D01*
X159951983Y-90124000D01*
X159580017Y-90124000D01*
X159236365Y-90266345D01*
X158973345Y-90529365D01*
X158831000Y-90873017D01*
X144011307Y-90873017D01*
X143785635Y-90647345D01*
X143441983Y-90505000D01*
X143395802Y-90505000D01*
X141814331Y-88923530D01*
X141771929Y-88860071D01*
X141520537Y-88692096D01*
X141298852Y-88648000D01*
X141298847Y-88648000D01*
X141224000Y-88633112D01*
X141149153Y-88648000D01*
X137722290Y-88648000D01*
X137689635Y-88615345D01*
X137345983Y-88473000D01*
X136974017Y-88473000D01*
X136630365Y-88615345D01*
X136367345Y-88878365D01*
X136225000Y-89222017D01*
X135888000Y-89222017D01*
X135888000Y-84642801D01*
X136666803Y-83863999D01*
X141103154Y-83863999D01*
X141178001Y-83878887D01*
X141252848Y-83863999D01*
X141252853Y-83863999D01*
X141474538Y-83819903D01*
X141595618Y-83739000D01*
X141663983Y-83739000D01*
X142007635Y-83596655D01*
X142270655Y-83333635D01*
X142413000Y-82989983D01*
X142413000Y-82618017D01*
X142270655Y-82274365D01*
X142007635Y-82011345D01*
X141663983Y-81869000D01*
X141292017Y-81869000D01*
X140948365Y-82011345D01*
X140685345Y-82274365D01*
X140656502Y-82343999D01*
X136426849Y-82343999D01*
X136352001Y-82329111D01*
X136277153Y-82343999D01*
X136277149Y-82343999D01*
X136103606Y-82378519D01*
X136055463Y-82388095D01*
X135920391Y-82478348D01*
X135804072Y-82556070D01*
X135761672Y-82619526D01*
X134643528Y-83737671D01*
X134618000Y-83754728D01*
X134618000Y-81330290D01*
X134852365Y-81564655D01*
X135196017Y-81707000D01*
X135567983Y-81707000D01*
X135688694Y-81657000D01*
X141171306Y-81657000D01*
X141292017Y-81707000D01*
X141663983Y-81707000D01*
X142007635Y-81564655D01*
X142270655Y-81301635D01*
X142413000Y-80957983D01*
X142413000Y-80586017D01*
X142270655Y-80242365D01*
X142007635Y-79979345D01*
X141663983Y-79837000D01*
X141292017Y-79837000D01*
X141171306Y-79887000D01*
X135817803Y-79887000D01*
X135904804Y-79799999D01*
X141103154Y-79799999D01*
X141178001Y-79814887D01*
X141252848Y-79799999D01*
X141252853Y-79799999D01*
X141474538Y-79755903D01*
X141595618Y-79675000D01*
X141663983Y-79675000D01*
X142007635Y-79532655D01*
X142270655Y-79269635D01*
X142413000Y-78925983D01*
X142413000Y-78554017D01*
X142270655Y-78210365D01*
X142012710Y-77952420D01*
X142179265Y-77946234D01*
X151955602Y-77882752D01*
X154209213Y-77892274D01*
X155336338Y-77897037D01*
X155378148Y-77890144D01*
X156251273Y-77590106D01*
X156295354Y-77564041D01*
X156324845Y-77524219D01*
X156674095Y-76784444D01*
X156685725Y-76741758D01*
X156780975Y-75697183D01*
X156781438Y-75689629D01*
X156799137Y-75125017D01*
X161307500Y-75125017D01*
X161307500Y-75496983D01*
X161357501Y-75617696D01*
X161357500Y-80909806D01*
X161307500Y-81030517D01*
X161307500Y-81402483D01*
X161449845Y-81746135D01*
X161712865Y-82009155D01*
X162056517Y-82151500D01*
X162428483Y-82151500D01*
X162772135Y-82009155D01*
X162816000Y-81965290D01*
X162816000Y-83527212D01*
X162491983Y-83393000D01*
X162120017Y-83393000D01*
X161776365Y-83535345D01*
X161513345Y-83798365D01*
X161371000Y-84142017D01*
X161371000Y-84513983D01*
X161421001Y-84634696D01*
X161421000Y-90625306D01*
X161371000Y-90746017D01*
X161371000Y-91117983D01*
X161513345Y-91461635D01*
X161776365Y-91724655D01*
X162120017Y-91867000D01*
X162491983Y-91867000D01*
X162835635Y-91724655D01*
X163098655Y-91461635D01*
X163241000Y-91117983D01*
X163241000Y-90746017D01*
X163191000Y-90625306D01*
X163191000Y-89752565D01*
X163390017Y-89835000D01*
X163761983Y-89835000D01*
X164105635Y-89692655D01*
X164368655Y-89429635D01*
X164511000Y-89085983D01*
X164511000Y-88714017D01*
X164368655Y-88370365D01*
X164336000Y-88337710D01*
X164336000Y-74015750D01*
X164665000Y-74015750D01*
X164665000Y-74356310D01*
X164761673Y-74589699D01*
X164940302Y-74768327D01*
X165173691Y-74865000D01*
X165814250Y-74865000D01*
X165973000Y-74706250D01*
X165973000Y-73857000D01*
X166227000Y-73857000D01*
X166227000Y-74706250D01*
X166385750Y-74865000D01*
X167026309Y-74865000D01*
X167259698Y-74768327D01*
X167438327Y-74589699D01*
X167535000Y-74356310D01*
X167535000Y-74015750D01*
X167376250Y-73857000D01*
X166227000Y-73857000D01*
X165973000Y-73857000D01*
X164823750Y-73857000D01*
X164665000Y-74015750D01*
X164336000Y-74015750D01*
X164336000Y-73103690D01*
X164665000Y-73103690D01*
X164665000Y-73444250D01*
X164823750Y-73603000D01*
X165973000Y-73603000D01*
X165973000Y-72753750D01*
X166227000Y-72753750D01*
X166227000Y-73603000D01*
X167376250Y-73603000D01*
X167535000Y-73444250D01*
X167535000Y-73230000D01*
X169652560Y-73230000D01*
X169652560Y-74230000D01*
X169701843Y-74477765D01*
X169842191Y-74687809D01*
X170052235Y-74828157D01*
X170300000Y-74877440D01*
X171900000Y-74877440D01*
X172147765Y-74828157D01*
X172357809Y-74687809D01*
X172498157Y-74477765D01*
X172547440Y-74230000D01*
X172547440Y-73230000D01*
X172498157Y-72982235D01*
X172357809Y-72772191D01*
X172147765Y-72631843D01*
X171900000Y-72582560D01*
X170300000Y-72582560D01*
X170052235Y-72631843D01*
X169842191Y-72772191D01*
X169701843Y-72982235D01*
X169652560Y-73230000D01*
X167535000Y-73230000D01*
X167535000Y-73103690D01*
X167438327Y-72870301D01*
X167259698Y-72691673D01*
X167026309Y-72595000D01*
X166385750Y-72595000D01*
X166227000Y-72753750D01*
X165973000Y-72753750D01*
X165814250Y-72595000D01*
X165173691Y-72595000D01*
X164940302Y-72691673D01*
X164761673Y-72870301D01*
X164665000Y-73103690D01*
X164336000Y-73103690D01*
X164336000Y-72958797D01*
X165303298Y-71991500D01*
X165349479Y-71991500D01*
X165693131Y-71849155D01*
X165956151Y-71586135D01*
X166098496Y-71242483D01*
X166098496Y-70870517D01*
X165956151Y-70526865D01*
X165693131Y-70263845D01*
X165349479Y-70121500D01*
X164977513Y-70121500D01*
X164633861Y-70263845D01*
X164370841Y-70526865D01*
X164228496Y-70870517D01*
X164228496Y-70916698D01*
X163091528Y-72053667D01*
X163028072Y-72096067D01*
X162985672Y-72159523D01*
X162985671Y-72159524D01*
X162860097Y-72347459D01*
X162801112Y-72643996D01*
X162816001Y-72718848D01*
X162816001Y-74562211D01*
X162772135Y-74518345D01*
X162428483Y-74376000D01*
X162056517Y-74376000D01*
X161712865Y-74518345D01*
X161449845Y-74781365D01*
X161307500Y-75125017D01*
X156799137Y-75125017D01*
X156844938Y-73663979D01*
X156844865Y-73654138D01*
X156755965Y-71730088D01*
X156754432Y-71715433D01*
X156608382Y-70823258D01*
X156602193Y-70799799D01*
X156329143Y-70060024D01*
X156290958Y-70006149D01*
X156247349Y-69982616D01*
X155298024Y-69690516D01*
X155277022Y-69685956D01*
X154200697Y-69546256D01*
X154195881Y-69545725D01*
X151967031Y-69342525D01*
X151955500Y-69342000D01*
X142176500Y-69342000D01*
X142163542Y-69342663D01*
X139934692Y-69571263D01*
X139932939Y-69571455D01*
X138866260Y-69695849D01*
X138845141Y-69700153D01*
X137886170Y-69982159D01*
X137828967Y-70017548D01*
X137802965Y-70059731D01*
X137721990Y-70277464D01*
X137721990Y-69649175D01*
X138631166Y-68740000D01*
X143310018Y-68740000D01*
X143442191Y-68937809D01*
X143652235Y-69078157D01*
X143900000Y-69127440D01*
X145500000Y-69127440D01*
X145747765Y-69078157D01*
X145957809Y-68937809D01*
X146098157Y-68727765D01*
X146147440Y-68480000D01*
X146147440Y-67814999D01*
X146983421Y-67814999D01*
X147712577Y-68544156D01*
X147761951Y-68618049D01*
X147835844Y-68667423D01*
X147835845Y-68667424D01*
X147957115Y-68748454D01*
X148054690Y-68813652D01*
X148312835Y-68865000D01*
X148312839Y-68865000D01*
X148400000Y-68882337D01*
X148404524Y-68881437D01*
X148442191Y-68937809D01*
X148652235Y-69078157D01*
X148900000Y-69127440D01*
X150500000Y-69127440D01*
X150747765Y-69078157D01*
X150957809Y-68937809D01*
X151006459Y-68865000D01*
X151352306Y-68865000D01*
X151388519Y-68880000D01*
X151527753Y-68880000D01*
X151539502Y-68882337D01*
X151551251Y-68880000D01*
X151760485Y-68880000D01*
X152104137Y-68737655D01*
X152367157Y-68474635D01*
X152509502Y-68130983D01*
X152509502Y-67759017D01*
X152367157Y-67415365D01*
X152104137Y-67152345D01*
X151760485Y-67010000D01*
X151388519Y-67010000D01*
X151183310Y-67095000D01*
X151006459Y-67095000D01*
X150957809Y-67022191D01*
X150747765Y-66881843D01*
X150500000Y-66832560D01*
X148900000Y-66832560D01*
X148652235Y-66881843D01*
X148593001Y-66921422D01*
X148064066Y-66392488D01*
X148272928Y-66252930D01*
X148315330Y-66189471D01*
X148636895Y-65867907D01*
X148652235Y-65878157D01*
X148900000Y-65927440D01*
X150500000Y-65927440D01*
X150747765Y-65878157D01*
X150957809Y-65737809D01*
X151098157Y-65527765D01*
X151147440Y-65280000D01*
X151147440Y-64280000D01*
X151098157Y-64032235D01*
X150957809Y-63822191D01*
X150747765Y-63681843D01*
X150500000Y-63632560D01*
X148900000Y-63632560D01*
X148652235Y-63681843D01*
X148442191Y-63822191D01*
X148301843Y-64032235D01*
X148286622Y-64108758D01*
X148102071Y-64232071D01*
X148059671Y-64295527D01*
X147410198Y-64945001D01*
X146014251Y-64945001D01*
X145976250Y-64907000D01*
X144827000Y-64907000D01*
X144827000Y-64927000D01*
X144573000Y-64927000D01*
X144573000Y-64907000D01*
X143423750Y-64907000D01*
X143385749Y-64945001D01*
X139160500Y-64945001D01*
X139167205Y-64889895D01*
X139166893Y-64888774D01*
X139253890Y-64153690D01*
X143265000Y-64153690D01*
X143265000Y-64494250D01*
X143423750Y-64653000D01*
X144573000Y-64653000D01*
X144573000Y-63803750D01*
X144827000Y-63803750D01*
X144827000Y-64653000D01*
X145976250Y-64653000D01*
X146135000Y-64494250D01*
X146135000Y-64153690D01*
X146038327Y-63920301D01*
X145859698Y-63741673D01*
X145626309Y-63645000D01*
X144985750Y-63645000D01*
X144827000Y-63803750D01*
X144573000Y-63803750D01*
X144414250Y-63645000D01*
X143773691Y-63645000D01*
X143540302Y-63741673D01*
X143361673Y-63920301D01*
X143265000Y-64153690D01*
X139253890Y-64153690D01*
X139620097Y-61059415D01*
X139642863Y-60887502D01*
X139645285Y-60892327D01*
X139647680Y-60899454D01*
X139649796Y-60906380D01*
X139651184Y-60915245D01*
X139659098Y-60936817D01*
X139665869Y-60958972D01*
X139670150Y-60966942D01*
X139672645Y-60973743D01*
X139674874Y-60980374D01*
X139676501Y-60989188D01*
X139685064Y-61010697D01*
X139692495Y-61032808D01*
X139696986Y-61040642D01*
X139699569Y-61047130D01*
X139701902Y-61053489D01*
X139703762Y-61062230D01*
X139712957Y-61083622D01*
X139721051Y-61105683D01*
X139725749Y-61113381D01*
X139728411Y-61119574D01*
X139730839Y-61125672D01*
X139732927Y-61134335D01*
X139742762Y-61155618D01*
X139751512Y-61177597D01*
X139756404Y-61185142D01*
X139759154Y-61191092D01*
X139761652Y-61196905D01*
X139763963Y-61205481D01*
X139774431Y-61226632D01*
X139783833Y-61248506D01*
X139788910Y-61255890D01*
X139791711Y-61261551D01*
X139794304Y-61267161D01*
X139796830Y-61275636D01*
X139807916Y-61296620D01*
X139817968Y-61318373D01*
X139823223Y-61325592D01*
X139826098Y-61331034D01*
X139828754Y-61336402D01*
X139831492Y-61344775D01*
X139843200Y-61365592D01*
X139853885Y-61387182D01*
X139859304Y-61394223D01*
X139862246Y-61399455D01*
X139864967Y-61404605D01*
X139867906Y-61412859D01*
X139880219Y-61433474D01*
X139891540Y-61454902D01*
X139897117Y-61461765D01*
X139900111Y-61466778D01*
X139902907Y-61471749D01*
X139906046Y-61479890D01*
X139918964Y-61500298D01*
X139930897Y-61521514D01*
X139936620Y-61528190D01*
X139939670Y-61533009D01*
X139942540Y-61537814D01*
X139945864Y-61545816D01*
X139959349Y-61565956D01*
X139971908Y-61586982D01*
X139977778Y-61593479D01*
X139980887Y-61598121D01*
X139983823Y-61602759D01*
X139987330Y-61610631D01*
X140001400Y-61630528D01*
X140014554Y-61651308D01*
X140020549Y-61657607D01*
X140023714Y-61662082D01*
X140026719Y-61666570D01*
X140030402Y-61674304D01*
X140045034Y-61693923D01*
X140058777Y-61714448D01*
X140064896Y-61720555D01*
X140068120Y-61724878D01*
X140071197Y-61729229D01*
X140075048Y-61736819D01*
X140090230Y-61756144D01*
X140104551Y-61776396D01*
X140110784Y-61782307D01*
X140114076Y-61786498D01*
X140117221Y-61790715D01*
X140121236Y-61798162D01*
X140136963Y-61817186D01*
X140151832Y-61837123D01*
X140158164Y-61842831D01*
X140161538Y-61846912D01*
X140164759Y-61851013D01*
X140168927Y-61858306D01*
X140185166Y-61876989D01*
X140200589Y-61896621D01*
X140207021Y-61902133D01*
X140210449Y-61906077D01*
X140213776Y-61910101D01*
X140218088Y-61917235D01*
X140234821Y-61935559D01*
X140250790Y-61954875D01*
X140257317Y-61960192D01*
X140260810Y-61964017D01*
X140264238Y-61967961D01*
X140268696Y-61974946D01*
X140285929Y-61992917D01*
X140302394Y-62011860D01*
X140308998Y-62016974D01*
X140312604Y-62020734D01*
X140316106Y-62024569D01*
X140320696Y-62031391D01*
X140338393Y-62048975D01*
X140355370Y-62067565D01*
X140362053Y-62072483D01*
X140365745Y-62076151D01*
X140369359Y-62079919D01*
X140374086Y-62086593D01*
X140392266Y-62103808D01*
X140409695Y-62121983D01*
X140416437Y-62126695D01*
X140420241Y-62130297D01*
X140423961Y-62133993D01*
X140428805Y-62140497D01*
X140447395Y-62157277D01*
X140465312Y-62175079D01*
X140472127Y-62179601D01*
X140476030Y-62183124D01*
X140479878Y-62186768D01*
X140484841Y-62193111D01*
X140503864Y-62209480D01*
X140522225Y-62226866D01*
X140529093Y-62231189D01*
X140533093Y-62234631D01*
X140537088Y-62238237D01*
X140542165Y-62244420D01*
X140561588Y-62260352D01*
X140580368Y-62277303D01*
X140587287Y-62281431D01*
X140591436Y-62284834D01*
X140595549Y-62288374D01*
X140600732Y-62294392D01*
X140620538Y-62309876D01*
X140639731Y-62326391D01*
X140646696Y-62330326D01*
X140650982Y-62333676D01*
X140655250Y-62337177D01*
X140660543Y-62343041D01*
X140680735Y-62358081D01*
X140700287Y-62374118D01*
X140707286Y-62377856D01*
X140711722Y-62381161D01*
X140716159Y-62384630D01*
X140721542Y-62390322D01*
X140742042Y-62404865D01*
X140761990Y-62420459D01*
X140769036Y-62424013D01*
X140773630Y-62427272D01*
X140778225Y-62430695D01*
X140783704Y-62436227D01*
X140804558Y-62450308D01*
X140824844Y-62465418D01*
X140831913Y-62468779D01*
X140836673Y-62471994D01*
X140841450Y-62475382D01*
X140847015Y-62480749D01*
X140868166Y-62494333D01*
X140888790Y-62508964D01*
X140895889Y-62512140D01*
X140900794Y-62515290D01*
X140905789Y-62518663D01*
X140911441Y-62523869D01*
X140932878Y-62536954D01*
X140953804Y-62551084D01*
X140960927Y-62554075D01*
X140966048Y-62557201D01*
X140971228Y-62560528D01*
X140976962Y-62565573D01*
X140998668Y-62578152D01*
X141019877Y-62591774D01*
X141027018Y-62594581D01*
X141032344Y-62597668D01*
X141037719Y-62600949D01*
X141043524Y-62605827D01*
X141065477Y-62617892D01*
X141086971Y-62631012D01*
X141094127Y-62633638D01*
X141099660Y-62636679D01*
X141105257Y-62639922D01*
X141111145Y-62644647D01*
X141133365Y-62656211D01*
X141155067Y-62668788D01*
X141162222Y-62671230D01*
X141167978Y-62674225D01*
X141173819Y-62677436D01*
X141179769Y-62681993D01*
X141202156Y-62693009D01*
X141224112Y-62705076D01*
X141231287Y-62707344D01*
X141237275Y-62710291D01*
X141243366Y-62713461D01*
X141249383Y-62717858D01*
X141271971Y-62728348D01*
X141294127Y-62739879D01*
X141301302Y-62741970D01*
X141307527Y-62744861D01*
X141313869Y-62747981D01*
X141319941Y-62752213D01*
X141342684Y-62762161D01*
X141365051Y-62773167D01*
X141372231Y-62775084D01*
X141378703Y-62777915D01*
X141385313Y-62780985D01*
X141391446Y-62785058D01*
X141414357Y-62794473D01*
X141436876Y-62804931D01*
X141444047Y-62806674D01*
X141450768Y-62809436D01*
X141457678Y-62812458D01*
X141463866Y-62816371D01*
X141486890Y-62825235D01*
X141509551Y-62835147D01*
X141516720Y-62836720D01*
X141523729Y-62839418D01*
X141530926Y-62842376D01*
X141537159Y-62846125D01*
X141560280Y-62854438D01*
X141583085Y-62863810D01*
X141590248Y-62865214D01*
X141597554Y-62867841D01*
X141605027Y-62870718D01*
X141611312Y-62874310D01*
X141634553Y-62882086D01*
X141657445Y-62890899D01*
X141664585Y-62892133D01*
X141672192Y-62894678D01*
X141679975Y-62897477D01*
X141686310Y-62900912D01*
X141709634Y-62908141D01*
X141732584Y-62916393D01*
X141739702Y-62917460D01*
X141747650Y-62919923D01*
X141755731Y-62922627D01*
X141762091Y-62925895D01*
X141785426Y-62932562D01*
X141808495Y-62940280D01*
X141815605Y-62941184D01*
X141823817Y-62943530D01*
X141832272Y-62946151D01*
X141838667Y-62949259D01*
X141862047Y-62955379D01*
X141885160Y-62962543D01*
X141892240Y-62963283D01*
X141900763Y-62965515D01*
X141909575Y-62968032D01*
X141916005Y-62970982D01*
X141939391Y-62976551D01*
X141962517Y-62983158D01*
X141969571Y-62983737D01*
X141978457Y-62985853D01*
X141987611Y-62988250D01*
X141994069Y-62991040D01*
X142017443Y-62996059D01*
X142040577Y-63002115D01*
X142047601Y-63002535D01*
X142056863Y-63004523D01*
X142066344Y-63006781D01*
X142072817Y-63009409D01*
X142096163Y-63013882D01*
X142119312Y-63019394D01*
X142126301Y-63019656D01*
X142135895Y-63021494D01*
X142145763Y-63023613D01*
X142152270Y-63026087D01*
X142175622Y-63030024D01*
X142198679Y-63034975D01*
X142205611Y-63035080D01*
X142215618Y-63036767D01*
X142225849Y-63038727D01*
X142232355Y-63041037D01*
X142255577Y-63044423D01*
X142278639Y-63048841D01*
X142285547Y-63048792D01*
X142295868Y-63050297D01*
X142306544Y-63052097D01*
X142313056Y-63054247D01*
X142336205Y-63057098D01*
X142359214Y-63060977D01*
X142366072Y-63060776D01*
X142376806Y-63062098D01*
X142387834Y-63063706D01*
X142394356Y-63065699D01*
X142417427Y-63068020D01*
X142440327Y-63071359D01*
X142447124Y-63071008D01*
X142458254Y-63072128D01*
X142469710Y-63073539D01*
X142476227Y-63075373D01*
X142499158Y-63077165D01*
X142521966Y-63079974D01*
X142528712Y-63079475D01*
X142540212Y-63080374D01*
X142552124Y-63081572D01*
X142558630Y-63083248D01*
X142581403Y-63084518D01*
X142604111Y-63086803D01*
X142610802Y-63086158D01*
X142622735Y-63086824D01*
X142635047Y-63087786D01*
X142641545Y-63089306D01*
X142664178Y-63090063D01*
X142686736Y-63091826D01*
X142693357Y-63091039D01*
X142705696Y-63091451D01*
X142718454Y-63092163D01*
X142724933Y-63093527D01*
X142747390Y-63093777D01*
X142769798Y-63095027D01*
X142776350Y-63094100D01*
X142789140Y-63094242D01*
X142797496Y-63094521D01*
X142800556Y-63095130D01*
X142815694Y-63095130D01*
X142853281Y-63096387D01*
X142860928Y-63095130D01*
X142868891Y-63095130D01*
X142937143Y-63095890D01*
X142941199Y-63095130D01*
X151072367Y-63095130D01*
X151076423Y-63095890D01*
X151144675Y-63095130D01*
X151152639Y-63095130D01*
X151160286Y-63096387D01*
X151197873Y-63095130D01*
X151213010Y-63095130D01*
X151216069Y-63094521D01*
X151224427Y-63094242D01*
X151237217Y-63094100D01*
X151243769Y-63095027D01*
X151266178Y-63093777D01*
X151288634Y-63093527D01*
X151295113Y-63092163D01*
X151307873Y-63091451D01*
X151320211Y-63091039D01*
X151326832Y-63091826D01*
X151349394Y-63090063D01*
X151372022Y-63089306D01*
X151378518Y-63087787D01*
X151390846Y-63086823D01*
X151402766Y-63086158D01*
X151409456Y-63086803D01*
X151432164Y-63084518D01*
X151454940Y-63083248D01*
X151461445Y-63081573D01*
X151473336Y-63080376D01*
X151484863Y-63079475D01*
X151491604Y-63079974D01*
X151514396Y-63077167D01*
X151537343Y-63075374D01*
X151543864Y-63073539D01*
X151555305Y-63072130D01*
X151566445Y-63071009D01*
X151573243Y-63071360D01*
X151596147Y-63068021D01*
X151619216Y-63065700D01*
X151625737Y-63063707D01*
X151636786Y-63062096D01*
X151647508Y-63060776D01*
X151654361Y-63060977D01*
X151677359Y-63057100D01*
X151700519Y-63054248D01*
X151707033Y-63052097D01*
X151717674Y-63050304D01*
X151728028Y-63048794D01*
X151734938Y-63048843D01*
X151758012Y-63044423D01*
X151781222Y-63041039D01*
X151787723Y-63038731D01*
X151798012Y-63036760D01*
X151807966Y-63035082D01*
X151814900Y-63034977D01*
X151837969Y-63030024D01*
X151861311Y-63026089D01*
X151867814Y-63023616D01*
X151877669Y-63021500D01*
X151887284Y-63019658D01*
X151894273Y-63019397D01*
X151917430Y-63013883D01*
X151940766Y-63009413D01*
X151947234Y-63006787D01*
X151956755Y-63004520D01*
X151965986Y-63002538D01*
X151973010Y-63002119D01*
X151996150Y-62996062D01*
X152019518Y-62991045D01*
X152025972Y-62988256D01*
X152035112Y-62985864D01*
X152044025Y-62983742D01*
X152051076Y-62983163D01*
X152074195Y-62976559D01*
X152097587Y-62970989D01*
X152104018Y-62968039D01*
X152112830Y-62965521D01*
X152121361Y-62963288D01*
X152128435Y-62962549D01*
X152151534Y-62955391D01*
X152174930Y-62949267D01*
X152181327Y-62946158D01*
X152189775Y-62943540D01*
X152197994Y-62941193D01*
X152205108Y-62940288D01*
X152228202Y-62932563D01*
X152251511Y-62925904D01*
X152257861Y-62922641D01*
X152265992Y-62919921D01*
X152273903Y-62917470D01*
X152281022Y-62916403D01*
X152303981Y-62908149D01*
X152327296Y-62900924D01*
X152333627Y-62897491D01*
X152341406Y-62894694D01*
X152349036Y-62892142D01*
X152356172Y-62890909D01*
X152379057Y-62882100D01*
X152402302Y-62874324D01*
X152408586Y-62870733D01*
X152416065Y-62867854D01*
X152423376Y-62865226D01*
X152430530Y-62863824D01*
X152453320Y-62854461D01*
X152476459Y-62846142D01*
X152482694Y-62842392D01*
X152489868Y-62839445D01*
X152496910Y-62836734D01*
X152504073Y-62835163D01*
X152526723Y-62825258D01*
X152549763Y-62816389D01*
X152555952Y-62812476D01*
X152562832Y-62809467D01*
X152569597Y-62806688D01*
X152576761Y-62804947D01*
X152599257Y-62794502D01*
X152622184Y-62785082D01*
X152628321Y-62781007D01*
X152634937Y-62777935D01*
X152641409Y-62775105D01*
X152648585Y-62773189D01*
X152670950Y-62762186D01*
X152693698Y-62752238D01*
X152699768Y-62748008D01*
X152706115Y-62744886D01*
X152712349Y-62741991D01*
X152719524Y-62739901D01*
X152741686Y-62728369D01*
X152764268Y-62717884D01*
X152770281Y-62713490D01*
X152776377Y-62710318D01*
X152782372Y-62707369D01*
X152789542Y-62705103D01*
X152811490Y-62693043D01*
X152833884Y-62682026D01*
X152839834Y-62677470D01*
X152845683Y-62674255D01*
X152851438Y-62671261D01*
X152858596Y-62668819D01*
X152880317Y-62656234D01*
X152902522Y-62644680D01*
X152908404Y-62639961D01*
X152914026Y-62636704D01*
X152919542Y-62633673D01*
X152926703Y-62631046D01*
X152948216Y-62617918D01*
X152970149Y-62605866D01*
X152975948Y-62600993D01*
X152981350Y-62597697D01*
X152986665Y-62594617D01*
X152993801Y-62591813D01*
X153015006Y-62578197D01*
X153036722Y-62565615D01*
X153042456Y-62560571D01*
X153047637Y-62557244D01*
X153052767Y-62554114D01*
X153059884Y-62551126D01*
X153080808Y-62537001D01*
X153102253Y-62523914D01*
X153107903Y-62518711D01*
X153112878Y-62515352D01*
X153117817Y-62512180D01*
X153124916Y-62509006D01*
X153145540Y-62494380D01*
X153166685Y-62480802D01*
X153172249Y-62475437D01*
X153177050Y-62472033D01*
X153181800Y-62468826D01*
X153188873Y-62465464D01*
X153209169Y-62450350D01*
X153230008Y-62436283D01*
X153235484Y-62430755D01*
X153240103Y-62427315D01*
X153244684Y-62424066D01*
X153251725Y-62420516D01*
X153271671Y-62404927D01*
X153292186Y-62390378D01*
X153297569Y-62384687D01*
X153302010Y-62381216D01*
X153306444Y-62377914D01*
X153313446Y-62374175D01*
X153333019Y-62358125D01*
X153353196Y-62343100D01*
X153358482Y-62337245D01*
X153362762Y-62333736D01*
X153367048Y-62330386D01*
X153374014Y-62326452D01*
X153393210Y-62309939D01*
X153413009Y-62294465D01*
X153418191Y-62288449D01*
X153422321Y-62284896D01*
X153426473Y-62281492D01*
X153433389Y-62277367D01*
X153452167Y-62260422D01*
X153471594Y-62244492D01*
X153476671Y-62238311D01*
X153480668Y-62234704D01*
X153484678Y-62231254D01*
X153491544Y-62226934D01*
X153509907Y-62209552D01*
X153528930Y-62193187D01*
X153533891Y-62186847D01*
X153537745Y-62183199D01*
X153541653Y-62179673D01*
X153548469Y-62175152D01*
X153566395Y-62157347D01*
X153584979Y-62140577D01*
X153589821Y-62134079D01*
X153593563Y-62130362D01*
X153597362Y-62126765D01*
X153604106Y-62122053D01*
X153621538Y-62103880D01*
X153639711Y-62086677D01*
X153644437Y-62080007D01*
X153648045Y-62076245D01*
X153651763Y-62072553D01*
X153658443Y-62067639D01*
X153675410Y-62049065D01*
X153693114Y-62031480D01*
X153697707Y-62024656D01*
X153701222Y-62020807D01*
X153704823Y-62017054D01*
X153711424Y-62011944D01*
X153727891Y-61993005D01*
X153745132Y-61975031D01*
X153749590Y-61968048D01*
X153753023Y-61964100D01*
X153756517Y-61960275D01*
X153763047Y-61954957D01*
X153779027Y-61935633D01*
X153795752Y-61917324D01*
X153800061Y-61910197D01*
X153803387Y-61906175D01*
X153806822Y-61902225D01*
X153813254Y-61896715D01*
X153828680Y-61877086D01*
X153844921Y-61858407D01*
X153849089Y-61851116D01*
X153852338Y-61846981D01*
X153855690Y-61842928D01*
X153862031Y-61837214D01*
X153876924Y-61817251D01*
X153892630Y-61798259D01*
X153896639Y-61790825D01*
X153899802Y-61786586D01*
X153903095Y-61782396D01*
X153909325Y-61776489D01*
X153923642Y-61756250D01*
X153938827Y-61736928D01*
X153942679Y-61729339D01*
X153945763Y-61724979D01*
X153948996Y-61720646D01*
X153955118Y-61714538D01*
X153968867Y-61694011D01*
X153983492Y-61674408D01*
X153987174Y-61666680D01*
X153990185Y-61662185D01*
X153993361Y-61657694D01*
X153999353Y-61651401D01*
X154012495Y-61630646D01*
X154026578Y-61610739D01*
X154030090Y-61602861D01*
X154033018Y-61598237D01*
X154036140Y-61593576D01*
X154042005Y-61587087D01*
X154054561Y-61566075D01*
X154068061Y-61545919D01*
X154071387Y-61537914D01*
X154074258Y-61533109D01*
X154077312Y-61528288D01*
X154083042Y-61521605D01*
X154094989Y-61500370D01*
X154107891Y-61479996D01*
X154111027Y-61471867D01*
X154113834Y-61466878D01*
X154116833Y-61461858D01*
X154122411Y-61454996D01*
X154133727Y-61433586D01*
X154146041Y-61412977D01*
X154148983Y-61404719D01*
X154151718Y-61399544D01*
X154154656Y-61394322D01*
X154160078Y-61387279D01*
X154170771Y-61365681D01*
X154182476Y-61344877D01*
X154185213Y-61336510D01*
X154187883Y-61331116D01*
X154190751Y-61325690D01*
X154196007Y-61318472D01*
X154206063Y-61296719D01*
X154217150Y-61275741D01*
X154219677Y-61267269D01*
X154222263Y-61261675D01*
X154225083Y-61255979D01*
X154230159Y-61248598D01*
X154239558Y-61226740D01*
X154250030Y-61205589D01*
X154252343Y-61197010D01*
X154254843Y-61191196D01*
X154257604Y-61185224D01*
X154262496Y-61177681D01*
X154271242Y-61155721D01*
X154281078Y-61134444D01*
X154283168Y-61125777D01*
X154285596Y-61119681D01*
X154288267Y-61113470D01*
X154292962Y-61105780D01*
X154301051Y-61083742D01*
X154310258Y-61062331D01*
X154312121Y-61053582D01*
X154314454Y-61047226D01*
X154317042Y-61040727D01*
X154321539Y-61032885D01*
X154328978Y-61010759D01*
X154337533Y-60989278D01*
X154339160Y-60980472D01*
X154341394Y-60973826D01*
X154343892Y-60967019D01*
X154348174Y-60959051D01*
X154354941Y-60936916D01*
X154362857Y-60915350D01*
X154364247Y-60906480D01*
X154366370Y-60899534D01*
X154368767Y-60892406D01*
X154372828Y-60884317D01*
X154378934Y-60862163D01*
X154382499Y-60851560D01*
X154421414Y-61144584D01*
X154896807Y-65040429D01*
X154890385Y-65090914D01*
X154913161Y-65174453D01*
X154915318Y-65192126D01*
X154930875Y-65239423D01*
X154962067Y-65353828D01*
X154973261Y-65368285D01*
X154978973Y-65385651D01*
X155056308Y-65475540D01*
X155086792Y-65514910D01*
X155100227Y-65526589D01*
X155156700Y-65592229D01*
X155202130Y-65615170D01*
X155206032Y-65618562D01*
X155217015Y-65637546D01*
X155308316Y-65707474D01*
X155343223Y-65737818D01*
X155361785Y-65748427D01*
X155378752Y-65761422D01*
X155420239Y-65781835D01*
X155520098Y-65838908D01*
X155541856Y-65841676D01*
X155827611Y-65982278D01*
X155856524Y-66000198D01*
X155887988Y-66011987D01*
X155918141Y-66026823D01*
X155951009Y-66035598D01*
X157292242Y-66538116D01*
X159222884Y-67262562D01*
X161153617Y-68111512D01*
X163030879Y-69021749D01*
X163067634Y-69053135D01*
X163152390Y-69080666D01*
X163170687Y-69089538D01*
X163216426Y-69101467D01*
X163326813Y-69137324D01*
X163347624Y-69135684D01*
X163367818Y-69140951D01*
X163482781Y-69125035D01*
X163598480Y-69115919D01*
X163617074Y-69106443D01*
X163637754Y-69103580D01*
X163737882Y-69044876D01*
X163779993Y-69023415D01*
X163795960Y-69010825D01*
X163872839Y-68965752D01*
X163902006Y-68927211D01*
X166670875Y-66744037D01*
X168796314Y-65101544D01*
X169858724Y-64337869D01*
X169956036Y-64303078D01*
X170166404Y-64267957D01*
X170807208Y-64271099D01*
X171175629Y-64344186D01*
X171520976Y-64523379D01*
X172081485Y-64989449D01*
X173008236Y-65889062D01*
X174660637Y-67533001D01*
X174681480Y-67569801D01*
X174756424Y-67628297D01*
X174775068Y-67646846D01*
X174809499Y-67669725D01*
X174896298Y-67737474D01*
X174922286Y-67744668D01*
X174944749Y-67759594D01*
X175052807Y-67780800D01*
X175158931Y-67810178D01*
X175185696Y-67806879D01*
X175212158Y-67812072D01*
X175320098Y-67790313D01*
X175429393Y-67776842D01*
X175452859Y-67763551D01*
X175479295Y-67758222D01*
X175570697Y-67696809D01*
X175606660Y-67676440D01*
X175626572Y-67659267D01*
X175705488Y-67606243D01*
X175728895Y-67571017D01*
X181379346Y-62697707D01*
X181381010Y-62696752D01*
X181430296Y-62653764D01*
X181480057Y-62610847D01*
X181481243Y-62609327D01*
X183881511Y-60515781D01*
X183886492Y-60512810D01*
X183932228Y-60471544D01*
X183978805Y-60430919D01*
X183982360Y-60426312D01*
X185696080Y-58880086D01*
X185706663Y-58873239D01*
X185746066Y-58834985D01*
X185786885Y-58798156D01*
X185794424Y-58788038D01*
X186813516Y-57798676D01*
X186835739Y-57781584D01*
X186861794Y-57751806D01*
X186890195Y-57724234D01*
X186906121Y-57701147D01*
X187068629Y-57515421D01*
X187079171Y-57509757D01*
X187158064Y-57413208D01*
X187194894Y-57371116D01*
X187200707Y-57361022D01*
X187208078Y-57352001D01*
X187234343Y-57302611D01*
X187293277Y-57200269D01*
X187314236Y-57177788D01*
X187346196Y-57092275D01*
X187356766Y-57072399D01*
X187369770Y-57029201D01*
X187409640Y-56922524D01*
X187408831Y-56899441D01*
X187415490Y-56877321D01*
X187404086Y-56764003D01*
X187402507Y-56718923D01*
X187397345Y-56697010D01*
X187388204Y-56606181D01*
X187366372Y-56565544D01*
X187276480Y-56183985D01*
X187272659Y-56153433D01*
X187261048Y-56118483D01*
X187252602Y-56082634D01*
X187239830Y-56054617D01*
X187012666Y-55370848D01*
X186911745Y-55044605D01*
X186856694Y-54757299D01*
X186838821Y-54104964D01*
X186957149Y-53449825D01*
X187219274Y-52777707D01*
X187444095Y-52389171D01*
X187712354Y-52034406D01*
X188014781Y-51721876D01*
X188347247Y-51451749D01*
X188705435Y-51224648D01*
X189084766Y-51041469D01*
X189480373Y-50903209D01*
X189887155Y-50810827D01*
X190299926Y-50765136D01*
X190713462Y-50766771D01*
G36*
X104750508Y-50600075D02*
X105208181Y-50698268D01*
X105649397Y-50855319D01*
X106067375Y-51070025D01*
X106455779Y-51341335D01*
X106808707Y-51668644D01*
X107120513Y-52052106D01*
X107383076Y-52488881D01*
X107676499Y-53208173D01*
X107816226Y-53903925D01*
X107828483Y-54210640D01*
X107805997Y-54527363D01*
X107748255Y-54838284D01*
X107648182Y-55166476D01*
X107260259Y-56259346D01*
X107232746Y-56300081D01*
X107215088Y-56386603D01*
X107208558Y-56404999D01*
X107201624Y-56452575D01*
X107178253Y-56567087D01*
X107182065Y-56586764D01*
X107179175Y-56606593D01*
X107207856Y-56719879D01*
X107217003Y-56767093D01*
X107224385Y-56785168D01*
X107246056Y-56870768D01*
X107266420Y-56898081D01*
X107268934Y-56922479D01*
X107316156Y-57009879D01*
X107327713Y-57038178D01*
X107348153Y-57069101D01*
X107365775Y-57101716D01*
X107385275Y-57125260D01*
X107440053Y-57208131D01*
X107471504Y-57229373D01*
X107622076Y-57411174D01*
X107642045Y-57440467D01*
X107664996Y-57462996D01*
X107685514Y-57487769D01*
X107713023Y-57510139D01*
X108661733Y-58441391D01*
X108670575Y-58453237D01*
X108709782Y-58488556D01*
X108747463Y-58525543D01*
X108759837Y-58533646D01*
X110439687Y-60046888D01*
X110443414Y-60051702D01*
X110489730Y-60091967D01*
X110535402Y-60133110D01*
X110540642Y-60136229D01*
X113004499Y-62278233D01*
X113005613Y-62279656D01*
X113055340Y-62322432D01*
X113104956Y-62365567D01*
X113106528Y-62366466D01*
X118711127Y-67187673D01*
X118734212Y-67222439D01*
X118813567Y-67275794D01*
X118833922Y-67293304D01*
X118869436Y-67313358D01*
X118960357Y-67374490D01*
X118987344Y-67379939D01*
X119011318Y-67393477D01*
X119120072Y-67406740D01*
X119227476Y-67428427D01*
X119254497Y-67423133D01*
X119281824Y-67426466D01*
X119387373Y-67397101D01*
X119494901Y-67376035D01*
X119517839Y-67360804D01*
X119544362Y-67353425D01*
X119630639Y-67285904D01*
X119664619Y-67263341D01*
X119683662Y-67244408D01*
X119758965Y-67185475D01*
X119779484Y-67149138D01*
X121239598Y-65697437D01*
X122059816Y-64905895D01*
X122560479Y-64500950D01*
X122889017Y-64340831D01*
X123304544Y-64262371D01*
X123600079Y-64233117D01*
X123797251Y-64236776D01*
X123974198Y-64281228D01*
X124258622Y-64420552D01*
X124714623Y-64717802D01*
X125376557Y-65205938D01*
X127500927Y-66867057D01*
X130130003Y-68939396D01*
X130159157Y-68977914D01*
X130236056Y-69022991D01*
X130252046Y-69035595D01*
X130294150Y-69057045D01*
X130394253Y-69115724D01*
X130414952Y-69118588D01*
X130433572Y-69128074D01*
X130549257Y-69137172D01*
X130664190Y-69153075D01*
X130684408Y-69147800D01*
X130705244Y-69149439D01*
X130815604Y-69113573D01*
X130861317Y-69101647D01*
X130879635Y-69092764D01*
X130964411Y-69065212D01*
X131001143Y-69033836D01*
X132890545Y-68117540D01*
X134830548Y-67264278D01*
X136758337Y-66540646D01*
X136778872Y-66533475D01*
X133968347Y-69344000D01*
X131118294Y-69344000D01*
X131085639Y-69311345D01*
X130741987Y-69169000D01*
X130370021Y-69169000D01*
X130026369Y-69311345D01*
X129763349Y-69574365D01*
X129621004Y-69918017D01*
X129621004Y-70289983D01*
X129763349Y-70633635D01*
X130026369Y-70896655D01*
X130370021Y-71039000D01*
X130741987Y-71039000D01*
X131085639Y-70896655D01*
X131118294Y-70864000D01*
X134208301Y-70864000D01*
X134283148Y-70878888D01*
X134357995Y-70864000D01*
X134358000Y-70864000D01*
X134579685Y-70819904D01*
X134831077Y-70651929D01*
X134873479Y-70588470D01*
X135259000Y-70202949D01*
X135259001Y-74817420D01*
X134181422Y-75895000D01*
X133772079Y-75895000D01*
X133977656Y-75689423D01*
X134051549Y-75640049D01*
X134151471Y-75490507D01*
X134247152Y-75347310D01*
X134264823Y-75258470D01*
X134298500Y-75089165D01*
X134298500Y-75089161D01*
X134315837Y-75002000D01*
X134298500Y-74914839D01*
X134298500Y-73429659D01*
X134315837Y-73342499D01*
X134298500Y-73255339D01*
X134298500Y-73255335D01*
X134247152Y-72997190D01*
X134051549Y-72704451D01*
X133977654Y-72655076D01*
X133875156Y-72552578D01*
X133825155Y-72431865D01*
X133562135Y-72168845D01*
X133218483Y-72026500D01*
X132846517Y-72026500D01*
X132502865Y-72168845D01*
X132239845Y-72431865D01*
X132097500Y-72775517D01*
X132097500Y-73147483D01*
X132239845Y-73491135D01*
X132502865Y-73754155D01*
X132528500Y-73764773D01*
X132528501Y-74635420D01*
X131268922Y-75895000D01*
X129556459Y-75895000D01*
X129507809Y-75822191D01*
X129297765Y-75681843D01*
X129050000Y-75632560D01*
X128134242Y-75632560D01*
X128734473Y-75032329D01*
X128797929Y-74989929D01*
X128965904Y-74738537D01*
X128968111Y-74727440D01*
X129050000Y-74727440D01*
X129297765Y-74678157D01*
X129507809Y-74537809D01*
X129648157Y-74327765D01*
X129697440Y-74080000D01*
X129697440Y-73080000D01*
X129648157Y-72832235D01*
X129507809Y-72622191D01*
X129297765Y-72481843D01*
X129050000Y-72432560D01*
X127450000Y-72432560D01*
X127202235Y-72481843D01*
X126992191Y-72622191D01*
X126851843Y-72832235D01*
X126802560Y-73080000D01*
X126802560Y-74080000D01*
X126851843Y-74327765D01*
X126992191Y-74537809D01*
X127044462Y-74572736D01*
X124697440Y-76919759D01*
X124697440Y-76280000D01*
X124648157Y-76032235D01*
X124507809Y-75822191D01*
X124297765Y-75681843D01*
X124050000Y-75632560D01*
X122450000Y-75632560D01*
X122202235Y-75681843D01*
X122172000Y-75702046D01*
X122172000Y-74652167D01*
X122323691Y-74715000D01*
X122964250Y-74715000D01*
X123123000Y-74556250D01*
X123123000Y-73707000D01*
X123377000Y-73707000D01*
X123377000Y-74556250D01*
X123535750Y-74715000D01*
X124176309Y-74715000D01*
X124409698Y-74618327D01*
X124588327Y-74439699D01*
X124685000Y-74206310D01*
X124685000Y-73865750D01*
X124526250Y-73707000D01*
X123377000Y-73707000D01*
X123123000Y-73707000D01*
X123103000Y-73707000D01*
X123103000Y-73453000D01*
X123123000Y-73453000D01*
X123123000Y-72603750D01*
X123377000Y-72603750D01*
X123377000Y-73453000D01*
X124526250Y-73453000D01*
X124685000Y-73294250D01*
X124685000Y-72953690D01*
X124588327Y-72720301D01*
X124409698Y-72541673D01*
X124176309Y-72445000D01*
X123535750Y-72445000D01*
X123377000Y-72603750D01*
X123123000Y-72603750D01*
X122964250Y-72445000D01*
X122685812Y-72445000D01*
X123075812Y-72055000D01*
X123121993Y-72055000D01*
X123465645Y-71912655D01*
X123728665Y-71649635D01*
X123871010Y-71305983D01*
X123871010Y-70934017D01*
X123728665Y-70590365D01*
X123465645Y-70327345D01*
X123121993Y-70185000D01*
X122750027Y-70185000D01*
X122406375Y-70327345D01*
X122143355Y-70590365D01*
X122001010Y-70934017D01*
X122001010Y-70980198D01*
X121281000Y-71700209D01*
X121281000Y-68632694D01*
X121331000Y-68511983D01*
X121331000Y-68140017D01*
X121188655Y-67796365D01*
X120925635Y-67533345D01*
X120581983Y-67391000D01*
X120210017Y-67391000D01*
X119866365Y-67533345D01*
X119603345Y-67796365D01*
X119461000Y-68140017D01*
X119461000Y-68511983D01*
X119511001Y-68632696D01*
X119511000Y-82462839D01*
X119493663Y-82550000D01*
X119511000Y-82637161D01*
X119511000Y-82637164D01*
X119562348Y-82895309D01*
X119757951Y-83188049D01*
X119831847Y-83237425D01*
X119934344Y-83339922D01*
X119984345Y-83460635D01*
X120247365Y-83723655D01*
X120591017Y-83866000D01*
X120962983Y-83866000D01*
X121306635Y-83723655D01*
X121569655Y-83460635D01*
X121712000Y-83116983D01*
X121712000Y-82745017D01*
X121569655Y-82401365D01*
X121306635Y-82138345D01*
X121281000Y-82127727D01*
X121281000Y-77143802D01*
X121401671Y-77264473D01*
X121444071Y-77327929D01*
X121695463Y-77495904D01*
X121851687Y-77526979D01*
X121851843Y-77527765D01*
X121992191Y-77737809D01*
X122202235Y-77878157D01*
X122450000Y-77927440D01*
X123689759Y-77927440D01*
X122705530Y-78911669D01*
X122642071Y-78954071D01*
X122474096Y-79205464D01*
X122430000Y-79427149D01*
X122430000Y-79427153D01*
X122415112Y-79502000D01*
X122430000Y-79576847D01*
X122430001Y-93157197D01*
X120897440Y-94689758D01*
X120897440Y-94420000D01*
X120848157Y-94172235D01*
X120712732Y-93969558D01*
X120934655Y-93747635D01*
X121077000Y-93403983D01*
X121077000Y-93032017D01*
X120934655Y-92688365D01*
X120671635Y-92425345D01*
X120327983Y-92283000D01*
X119956017Y-92283000D01*
X119612365Y-92425345D01*
X119349345Y-92688365D01*
X119207000Y-93032017D01*
X119207000Y-93078199D01*
X118965528Y-93319671D01*
X118902072Y-93362071D01*
X118859672Y-93425527D01*
X118859671Y-93425528D01*
X118783172Y-93540017D01*
X118734097Y-93613463D01*
X118702451Y-93772560D01*
X118650000Y-93772560D01*
X118402235Y-93821843D01*
X118192191Y-93962191D01*
X118051843Y-94172235D01*
X118002560Y-94420000D01*
X118002560Y-95420000D01*
X118051843Y-95667765D01*
X118192191Y-95877809D01*
X118402235Y-96018157D01*
X118650000Y-96067440D01*
X119519759Y-96067440D01*
X119152200Y-96434999D01*
X116499848Y-96434999D01*
X116425001Y-96420111D01*
X116350154Y-96434999D01*
X116350149Y-96434999D01*
X116128464Y-96479095D01*
X115877072Y-96647070D01*
X115834672Y-96710526D01*
X115513105Y-97032093D01*
X115497765Y-97021843D01*
X115250000Y-96972560D01*
X113650000Y-96972560D01*
X113402235Y-97021843D01*
X113192191Y-97162191D01*
X113051843Y-97372235D01*
X113002560Y-97620000D01*
X113002560Y-98620000D01*
X113051843Y-98867765D01*
X113192191Y-99077809D01*
X113402235Y-99218157D01*
X113650000Y-99267440D01*
X115250000Y-99267440D01*
X115497765Y-99218157D01*
X115707809Y-99077809D01*
X115848157Y-98867765D01*
X115863378Y-98791242D01*
X116047929Y-98667929D01*
X116090331Y-98604470D01*
X116739803Y-97954999D01*
X118002560Y-97954999D01*
X118002560Y-98620000D01*
X118051843Y-98867765D01*
X118192191Y-99077809D01*
X118402235Y-99218157D01*
X118565001Y-99250533D01*
X118565000Y-100820839D01*
X118547663Y-100908000D01*
X118565000Y-100995161D01*
X118565000Y-100995164D01*
X118616348Y-101253309D01*
X118811951Y-101546049D01*
X118885847Y-101595425D01*
X119454577Y-102164156D01*
X119503951Y-102238049D01*
X119577844Y-102287423D01*
X119577845Y-102287424D01*
X119773497Y-102418155D01*
X119796690Y-102433652D01*
X120054835Y-102485000D01*
X120054839Y-102485000D01*
X120142000Y-102502337D01*
X120229161Y-102485000D01*
X121105306Y-102485000D01*
X121226017Y-102535000D01*
X121597983Y-102535000D01*
X121941635Y-102392655D01*
X122204655Y-102129635D01*
X122347000Y-101785983D01*
X122347000Y-101414017D01*
X122204655Y-101070365D01*
X121941635Y-100807345D01*
X121597983Y-100665000D01*
X121226017Y-100665000D01*
X121105306Y-100715000D01*
X120508579Y-100715000D01*
X120335000Y-100541422D01*
X120335000Y-99250533D01*
X120497765Y-99218157D01*
X120707809Y-99077809D01*
X120848157Y-98867765D01*
X120897440Y-98620000D01*
X120897440Y-98224138D01*
X124770156Y-94351423D01*
X124844049Y-94302049D01*
X124907869Y-94206537D01*
X125018726Y-94040628D01*
X125290017Y-94153000D01*
X125661983Y-94153000D01*
X125732000Y-94123998D01*
X125732000Y-103937310D01*
X125650035Y-103855345D01*
X125306383Y-103713000D01*
X124934417Y-103713000D01*
X124590765Y-103855345D01*
X124327745Y-104118365D01*
X124185400Y-104462017D01*
X124185400Y-104833983D01*
X124327745Y-105177635D01*
X124360401Y-105210291D01*
X124360400Y-112379832D01*
X124276309Y-112345000D01*
X123635750Y-112345000D01*
X123477000Y-112503750D01*
X123477000Y-113353000D01*
X123497000Y-113353000D01*
X123497000Y-113607000D01*
X123477000Y-113607000D01*
X123477000Y-113627000D01*
X123223000Y-113627000D01*
X123223000Y-113607000D01*
X122073750Y-113607000D01*
X121915000Y-113765750D01*
X121915000Y-114106310D01*
X122011673Y-114339699D01*
X122100974Y-114429000D01*
X121999690Y-114429000D01*
X121992435Y-114421745D01*
X121648783Y-114279400D01*
X121276817Y-114279400D01*
X120933165Y-114421745D01*
X120670145Y-114684765D01*
X120527800Y-115028417D01*
X120527800Y-115400383D01*
X120670145Y-115744035D01*
X120933165Y-116007055D01*
X121276817Y-116149400D01*
X121648783Y-116149400D01*
X121931980Y-116032096D01*
X121902560Y-116180000D01*
X121902560Y-117180000D01*
X121951843Y-117427765D01*
X122092191Y-117637809D01*
X122302235Y-117778157D01*
X122550000Y-117827440D01*
X124150000Y-117827440D01*
X124397765Y-117778157D01*
X124607809Y-117637809D01*
X124739982Y-117440000D01*
X125764353Y-117440000D01*
X125839200Y-117454888D01*
X125914047Y-117440000D01*
X125914052Y-117440000D01*
X126135737Y-117395904D01*
X126387129Y-117227929D01*
X126429531Y-117164470D01*
X126902560Y-116691442D01*
X126902560Y-117180000D01*
X126951843Y-117427765D01*
X127092191Y-117637809D01*
X127302235Y-117778157D01*
X127465000Y-117810533D01*
X127465000Y-118102839D01*
X127447663Y-118190000D01*
X127465000Y-118277161D01*
X127465000Y-118277164D01*
X127516348Y-118535309D01*
X127711951Y-118828049D01*
X127785847Y-118877425D01*
X128344577Y-119436156D01*
X128393951Y-119510049D01*
X128467844Y-119559423D01*
X128467845Y-119559424D01*
X128566356Y-119625247D01*
X128686690Y-119705652D01*
X128944835Y-119757000D01*
X128944839Y-119757000D01*
X129032000Y-119774337D01*
X129119161Y-119757000D01*
X129741306Y-119757000D01*
X129759459Y-119764519D01*
X126838583Y-122078791D01*
X124461180Y-123916786D01*
X123546185Y-124558477D01*
X123016048Y-124148049D01*
X121780187Y-122995902D01*
X119803194Y-121049630D01*
X118109940Y-119337944D01*
X116889680Y-118046584D01*
X116167841Y-117206020D01*
X116136372Y-117161177D01*
X116473183Y-116625781D01*
X117733774Y-114917807D01*
X119349304Y-112853690D01*
X121915000Y-112853690D01*
X121915000Y-113194250D01*
X122073750Y-113353000D01*
X123223000Y-113353000D01*
X123223000Y-112503750D01*
X123064250Y-112345000D01*
X122423691Y-112345000D01*
X122190302Y-112441673D01*
X122011673Y-112620301D01*
X121915000Y-112853690D01*
X119349304Y-112853690D01*
X120283639Y-111659917D01*
X120287106Y-111656853D01*
X120325167Y-111606858D01*
X120363942Y-111557316D01*
X120366031Y-111553181D01*
X121055375Y-110647688D01*
X121093569Y-110617711D01*
X121137169Y-110540248D01*
X121149356Y-110524239D01*
X121170203Y-110481556D01*
X121227232Y-110380233D01*
X121229703Y-110359733D01*
X121238764Y-110341181D01*
X121245927Y-110225125D01*
X121259841Y-110109681D01*
X121254279Y-110089797D01*
X121255551Y-110069189D01*
X121217759Y-109959234D01*
X121204962Y-109913486D01*
X121195866Y-109895539D01*
X121166973Y-109811477D01*
X121134821Y-109775095D01*
X120073067Y-107680213D01*
X119306404Y-106100384D01*
X119252762Y-105967442D01*
X119276744Y-105952146D01*
X119315247Y-105897095D01*
X119363971Y-105850834D01*
X119392588Y-105786515D01*
X119432929Y-105728835D01*
X119447434Y-105663240D01*
X119474745Y-105601855D01*
X119476570Y-105531484D01*
X119491768Y-105462753D01*
X119480067Y-105396600D01*
X119481808Y-105329438D01*
X119456563Y-105263724D01*
X119444303Y-105194411D01*
X119408178Y-105137773D01*
X119384084Y-105075054D01*
X119335613Y-105024003D01*
X119297761Y-104964657D01*
X119242709Y-104926153D01*
X119196449Y-104877431D01*
X119132133Y-104848816D01*
X119074450Y-104808472D01*
X119008853Y-104793966D01*
X118947470Y-104766656D01*
X118877102Y-104764832D01*
X118875530Y-104764484D01*
X118809435Y-104763077D01*
X118743813Y-104761376D01*
X118742237Y-104761647D01*
X113540522Y-104650940D01*
X112135268Y-104563964D01*
X111069344Y-104450699D01*
X108960960Y-104172240D01*
X107843563Y-103960884D01*
X107589320Y-103872991D01*
X107446438Y-103793163D01*
X107061949Y-103434009D01*
X106695274Y-103042035D01*
X106695274Y-95205750D01*
X113015000Y-95205750D01*
X113015000Y-95546310D01*
X113111673Y-95779699D01*
X113290302Y-95958327D01*
X113523691Y-96055000D01*
X114164250Y-96055000D01*
X114323000Y-95896250D01*
X114323000Y-95047000D01*
X114577000Y-95047000D01*
X114577000Y-95896250D01*
X114735750Y-96055000D01*
X115376309Y-96055000D01*
X115609698Y-95958327D01*
X115788327Y-95779699D01*
X115885000Y-95546310D01*
X115885000Y-95205750D01*
X115726250Y-95047000D01*
X114577000Y-95047000D01*
X114323000Y-95047000D01*
X113173750Y-95047000D01*
X113015000Y-95205750D01*
X106695274Y-95205750D01*
X106695274Y-94293690D01*
X113015000Y-94293690D01*
X113015000Y-94634250D01*
X113173750Y-94793000D01*
X114323000Y-94793000D01*
X114323000Y-93943750D01*
X114577000Y-93943750D01*
X114577000Y-94793000D01*
X115726250Y-94793000D01*
X115885000Y-94634250D01*
X115885000Y-94293690D01*
X115788327Y-94060301D01*
X115609698Y-93881673D01*
X115376309Y-93785000D01*
X114735750Y-93785000D01*
X114577000Y-93943750D01*
X114323000Y-93943750D01*
X114164250Y-93785000D01*
X113523691Y-93785000D01*
X113290302Y-93881673D01*
X113111673Y-94060301D01*
X113015000Y-94293690D01*
X106695274Y-94293690D01*
X106695274Y-91090582D01*
X107034659Y-90687334D01*
X107230145Y-90479831D01*
X107416086Y-90338088D01*
X107671526Y-90210880D01*
X108061022Y-90085573D01*
X109487990Y-89818445D01*
X111881170Y-89516013D01*
X111883079Y-89516138D01*
X111948124Y-89507552D01*
X112013133Y-89499337D01*
X112014946Y-89498732D01*
X115267349Y-89069428D01*
X115312190Y-89075425D01*
X115401267Y-89051752D01*
X115424456Y-89048691D01*
X115466334Y-89034460D01*
X115575558Y-89005432D01*
X115594628Y-88990861D01*
X115617348Y-88983140D01*
X115702292Y-88908596D01*
X115792093Y-88839980D01*
X115804134Y-88819223D01*
X115822171Y-88803394D01*
X115872123Y-88702015D01*
X115894316Y-88663756D01*
X115901880Y-88641623D01*
X115942616Y-88558947D01*
X115945560Y-88513803D01*
X116511060Y-86858996D01*
X117175546Y-85080804D01*
X118012412Y-83143548D01*
X118672702Y-81694078D01*
X118681068Y-81681295D01*
X118700610Y-81632814D01*
X118722296Y-81585209D01*
X118725798Y-81570327D01*
X118941442Y-81035345D01*
X118943685Y-81033017D01*
X118992281Y-80909221D01*
X119016392Y-80849406D01*
X119016977Y-80846310D01*
X119043262Y-80779351D01*
X119042039Y-80713724D01*
X119054230Y-80649226D01*
X119039524Y-80578808D01*
X119038183Y-80506888D01*
X119011939Y-80446725D01*
X118998520Y-80382471D01*
X118957989Y-80323046D01*
X118956728Y-80320156D01*
X118919897Y-80267198D01*
X118844968Y-80157341D01*
X118842263Y-80155570D01*
X118353784Y-79453204D01*
X118346464Y-79438400D01*
X118315333Y-79397918D01*
X118286178Y-79355996D01*
X118274286Y-79344539D01*
X116918956Y-77582057D01*
X116918353Y-77580850D01*
X116877699Y-77528407D01*
X116837525Y-77476164D01*
X116836517Y-77475281D01*
X115368076Y-75581002D01*
X114575814Y-74439087D01*
X114400370Y-74104559D01*
X114312656Y-73852188D01*
X114273831Y-73613491D01*
X114263768Y-73325777D01*
X114292933Y-72920319D01*
X114320687Y-72830620D01*
X114385077Y-72708824D01*
X114798292Y-72189814D01*
X115645405Y-71298648D01*
X117148716Y-69753754D01*
X117182273Y-69734728D01*
X117242983Y-69656879D01*
X117263876Y-69635408D01*
X117284386Y-69603787D01*
X117349854Y-69519837D01*
X117358031Y-69490248D01*
X117374739Y-69464489D01*
X117394085Y-69359787D01*
X117422443Y-69257173D01*
X117418674Y-69226707D01*
X117424253Y-69196515D01*
X117402059Y-69092385D01*
X117388989Y-68986724D01*
X117373846Y-68960015D01*
X117367447Y-68929991D01*
X117307102Y-68842291D01*
X117288511Y-68809501D01*
X117268934Y-68786822D01*
X117212973Y-68705494D01*
X117180609Y-68684502D01*
X112861930Y-63681526D01*
X107919642Y-57932326D01*
X107368364Y-57269820D01*
X107292773Y-57171894D01*
X107222128Y-57131378D01*
X107158831Y-57080147D01*
X107105042Y-57064228D01*
X107056380Y-57036320D01*
X106975612Y-57025924D01*
X106897524Y-57002814D01*
X106841734Y-57008692D01*
X106786100Y-57001531D01*
X106707501Y-57022834D01*
X106626515Y-57031367D01*
X106517854Y-57090400D01*
X105796159Y-57448893D01*
X105468267Y-57576942D01*
X105078906Y-57671131D01*
X104629952Y-57732689D01*
X104155087Y-57756804D01*
X103685944Y-57742189D01*
X103254812Y-57690193D01*
X102897513Y-57606673D01*
X102629401Y-57498498D01*
X102230186Y-57258099D01*
X101862070Y-56977793D01*
X101539961Y-56670651D01*
X101263457Y-56340237D01*
X101032328Y-55989964D01*
X100846514Y-55623138D01*
X100706114Y-55242992D01*
X100611379Y-54852721D01*
X100562685Y-54455437D01*
X100560550Y-54054202D01*
X100605646Y-53651997D01*
X100698855Y-53251696D01*
X100841300Y-52856159D01*
X101034407Y-52468220D01*
X101279889Y-52090859D01*
X101579973Y-51726945D01*
X101870865Y-51443588D01*
X102180681Y-51201210D01*
X102506589Y-50998791D01*
X102846040Y-50835383D01*
X103196355Y-50710339D01*
X103554714Y-50623196D01*
X103918123Y-50573605D01*
X104278205Y-50561427D01*
X104750508Y-50600075D01*
X104750508Y-50600075D01*
G37*
X104750508Y-50600075D02*
X105208181Y-50698268D01*
X105649397Y-50855319D01*
X106067375Y-51070025D01*
X106455779Y-51341335D01*
X106808707Y-51668644D01*
X107120513Y-52052106D01*
X107383076Y-52488881D01*
X107676499Y-53208173D01*
X107816226Y-53903925D01*
X107828483Y-54210640D01*
X107805997Y-54527363D01*
X107748255Y-54838284D01*
X107648182Y-55166476D01*
X107260259Y-56259346D01*
X107232746Y-56300081D01*
X107215088Y-56386603D01*
X107208558Y-56404999D01*
X107201624Y-56452575D01*
X107178253Y-56567087D01*
X107182065Y-56586764D01*
X107179175Y-56606593D01*
X107207856Y-56719879D01*
X107217003Y-56767093D01*
X107224385Y-56785168D01*
X107246056Y-56870768D01*
X107266420Y-56898081D01*
X107268934Y-56922479D01*
X107316156Y-57009879D01*
X107327713Y-57038178D01*
X107348153Y-57069101D01*
X107365775Y-57101716D01*
X107385275Y-57125260D01*
X107440053Y-57208131D01*
X107471504Y-57229373D01*
X107622076Y-57411174D01*
X107642045Y-57440467D01*
X107664996Y-57462996D01*
X107685514Y-57487769D01*
X107713023Y-57510139D01*
X108661733Y-58441391D01*
X108670575Y-58453237D01*
X108709782Y-58488556D01*
X108747463Y-58525543D01*
X108759837Y-58533646D01*
X110439687Y-60046888D01*
X110443414Y-60051702D01*
X110489730Y-60091967D01*
X110535402Y-60133110D01*
X110540642Y-60136229D01*
X113004499Y-62278233D01*
X113005613Y-62279656D01*
X113055340Y-62322432D01*
X113104956Y-62365567D01*
X113106528Y-62366466D01*
X118711127Y-67187673D01*
X118734212Y-67222439D01*
X118813567Y-67275794D01*
X118833922Y-67293304D01*
X118869436Y-67313358D01*
X118960357Y-67374490D01*
X118987344Y-67379939D01*
X119011318Y-67393477D01*
X119120072Y-67406740D01*
X119227476Y-67428427D01*
X119254497Y-67423133D01*
X119281824Y-67426466D01*
X119387373Y-67397101D01*
X119494901Y-67376035D01*
X119517839Y-67360804D01*
X119544362Y-67353425D01*
X119630639Y-67285904D01*
X119664619Y-67263341D01*
X119683662Y-67244408D01*
X119758965Y-67185475D01*
X119779484Y-67149138D01*
X121239598Y-65697437D01*
X122059816Y-64905895D01*
X122560479Y-64500950D01*
X122889017Y-64340831D01*
X123304544Y-64262371D01*
X123600079Y-64233117D01*
X123797251Y-64236776D01*
X123974198Y-64281228D01*
X124258622Y-64420552D01*
X124714623Y-64717802D01*
X125376557Y-65205938D01*
X127500927Y-66867057D01*
X130130003Y-68939396D01*
X130159157Y-68977914D01*
X130236056Y-69022991D01*
X130252046Y-69035595D01*
X130294150Y-69057045D01*
X130394253Y-69115724D01*
X130414952Y-69118588D01*
X130433572Y-69128074D01*
X130549257Y-69137172D01*
X130664190Y-69153075D01*
X130684408Y-69147800D01*
X130705244Y-69149439D01*
X130815604Y-69113573D01*
X130861317Y-69101647D01*
X130879635Y-69092764D01*
X130964411Y-69065212D01*
X131001143Y-69033836D01*
X132890545Y-68117540D01*
X134830548Y-67264278D01*
X136758337Y-66540646D01*
X136778872Y-66533475D01*
X133968347Y-69344000D01*
X131118294Y-69344000D01*
X131085639Y-69311345D01*
X130741987Y-69169000D01*
X130370021Y-69169000D01*
X130026369Y-69311345D01*
X129763349Y-69574365D01*
X129621004Y-69918017D01*
X129621004Y-70289983D01*
X129763349Y-70633635D01*
X130026369Y-70896655D01*
X130370021Y-71039000D01*
X130741987Y-71039000D01*
X131085639Y-70896655D01*
X131118294Y-70864000D01*
X134208301Y-70864000D01*
X134283148Y-70878888D01*
X134357995Y-70864000D01*
X134358000Y-70864000D01*
X134579685Y-70819904D01*
X134831077Y-70651929D01*
X134873479Y-70588470D01*
X135259000Y-70202949D01*
X135259001Y-74817420D01*
X134181422Y-75895000D01*
X133772079Y-75895000D01*
X133977656Y-75689423D01*
X134051549Y-75640049D01*
X134151471Y-75490507D01*
X134247152Y-75347310D01*
X134264823Y-75258470D01*
X134298500Y-75089165D01*
X134298500Y-75089161D01*
X134315837Y-75002000D01*
X134298500Y-74914839D01*
X134298500Y-73429659D01*
X134315837Y-73342499D01*
X134298500Y-73255339D01*
X134298500Y-73255335D01*
X134247152Y-72997190D01*
X134051549Y-72704451D01*
X133977654Y-72655076D01*
X133875156Y-72552578D01*
X133825155Y-72431865D01*
X133562135Y-72168845D01*
X133218483Y-72026500D01*
X132846517Y-72026500D01*
X132502865Y-72168845D01*
X132239845Y-72431865D01*
X132097500Y-72775517D01*
X132097500Y-73147483D01*
X132239845Y-73491135D01*
X132502865Y-73754155D01*
X132528500Y-73764773D01*
X132528501Y-74635420D01*
X131268922Y-75895000D01*
X129556459Y-75895000D01*
X129507809Y-75822191D01*
X129297765Y-75681843D01*
X129050000Y-75632560D01*
X128134242Y-75632560D01*
X128734473Y-75032329D01*
X128797929Y-74989929D01*
X128965904Y-74738537D01*
X128968111Y-74727440D01*
X129050000Y-74727440D01*
X129297765Y-74678157D01*
X129507809Y-74537809D01*
X129648157Y-74327765D01*
X129697440Y-74080000D01*
X129697440Y-73080000D01*
X129648157Y-72832235D01*
X129507809Y-72622191D01*
X129297765Y-72481843D01*
X129050000Y-72432560D01*
X127450000Y-72432560D01*
X127202235Y-72481843D01*
X126992191Y-72622191D01*
X126851843Y-72832235D01*
X126802560Y-73080000D01*
X126802560Y-74080000D01*
X126851843Y-74327765D01*
X126992191Y-74537809D01*
X127044462Y-74572736D01*
X124697440Y-76919759D01*
X124697440Y-76280000D01*
X124648157Y-76032235D01*
X124507809Y-75822191D01*
X124297765Y-75681843D01*
X124050000Y-75632560D01*
X122450000Y-75632560D01*
X122202235Y-75681843D01*
X122172000Y-75702046D01*
X122172000Y-74652167D01*
X122323691Y-74715000D01*
X122964250Y-74715000D01*
X123123000Y-74556250D01*
X123123000Y-73707000D01*
X123377000Y-73707000D01*
X123377000Y-74556250D01*
X123535750Y-74715000D01*
X124176309Y-74715000D01*
X124409698Y-74618327D01*
X124588327Y-74439699D01*
X124685000Y-74206310D01*
X124685000Y-73865750D01*
X124526250Y-73707000D01*
X123377000Y-73707000D01*
X123123000Y-73707000D01*
X123103000Y-73707000D01*
X123103000Y-73453000D01*
X123123000Y-73453000D01*
X123123000Y-72603750D01*
X123377000Y-72603750D01*
X123377000Y-73453000D01*
X124526250Y-73453000D01*
X124685000Y-73294250D01*
X124685000Y-72953690D01*
X124588327Y-72720301D01*
X124409698Y-72541673D01*
X124176309Y-72445000D01*
X123535750Y-72445000D01*
X123377000Y-72603750D01*
X123123000Y-72603750D01*
X122964250Y-72445000D01*
X122685812Y-72445000D01*
X123075812Y-72055000D01*
X123121993Y-72055000D01*
X123465645Y-71912655D01*
X123728665Y-71649635D01*
X123871010Y-71305983D01*
X123871010Y-70934017D01*
X123728665Y-70590365D01*
X123465645Y-70327345D01*
X123121993Y-70185000D01*
X122750027Y-70185000D01*
X122406375Y-70327345D01*
X122143355Y-70590365D01*
X122001010Y-70934017D01*
X122001010Y-70980198D01*
X121281000Y-71700209D01*
X121281000Y-68632694D01*
X121331000Y-68511983D01*
X121331000Y-68140017D01*
X121188655Y-67796365D01*
X120925635Y-67533345D01*
X120581983Y-67391000D01*
X120210017Y-67391000D01*
X119866365Y-67533345D01*
X119603345Y-67796365D01*
X119461000Y-68140017D01*
X119461000Y-68511983D01*
X119511001Y-68632696D01*
X119511000Y-82462839D01*
X119493663Y-82550000D01*
X119511000Y-82637161D01*
X119511000Y-82637164D01*
X119562348Y-82895309D01*
X119757951Y-83188049D01*
X119831847Y-83237425D01*
X119934344Y-83339922D01*
X119984345Y-83460635D01*
X120247365Y-83723655D01*
X120591017Y-83866000D01*
X120962983Y-83866000D01*
X121306635Y-83723655D01*
X121569655Y-83460635D01*
X121712000Y-83116983D01*
X121712000Y-82745017D01*
X121569655Y-82401365D01*
X121306635Y-82138345D01*
X121281000Y-82127727D01*
X121281000Y-77143802D01*
X121401671Y-77264473D01*
X121444071Y-77327929D01*
X121695463Y-77495904D01*
X121851687Y-77526979D01*
X121851843Y-77527765D01*
X121992191Y-77737809D01*
X122202235Y-77878157D01*
X122450000Y-77927440D01*
X123689759Y-77927440D01*
X122705530Y-78911669D01*
X122642071Y-78954071D01*
X122474096Y-79205464D01*
X122430000Y-79427149D01*
X122430000Y-79427153D01*
X122415112Y-79502000D01*
X122430000Y-79576847D01*
X122430001Y-93157197D01*
X120897440Y-94689758D01*
X120897440Y-94420000D01*
X120848157Y-94172235D01*
X120712732Y-93969558D01*
X120934655Y-93747635D01*
X121077000Y-93403983D01*
X121077000Y-93032017D01*
X120934655Y-92688365D01*
X120671635Y-92425345D01*
X120327983Y-92283000D01*
X119956017Y-92283000D01*
X119612365Y-92425345D01*
X119349345Y-92688365D01*
X119207000Y-93032017D01*
X119207000Y-93078199D01*
X118965528Y-93319671D01*
X118902072Y-93362071D01*
X118859672Y-93425527D01*
X118859671Y-93425528D01*
X118783172Y-93540017D01*
X118734097Y-93613463D01*
X118702451Y-93772560D01*
X118650000Y-93772560D01*
X118402235Y-93821843D01*
X118192191Y-93962191D01*
X118051843Y-94172235D01*
X118002560Y-94420000D01*
X118002560Y-95420000D01*
X118051843Y-95667765D01*
X118192191Y-95877809D01*
X118402235Y-96018157D01*
X118650000Y-96067440D01*
X119519759Y-96067440D01*
X119152200Y-96434999D01*
X116499848Y-96434999D01*
X116425001Y-96420111D01*
X116350154Y-96434999D01*
X116350149Y-96434999D01*
X116128464Y-96479095D01*
X115877072Y-96647070D01*
X115834672Y-96710526D01*
X115513105Y-97032093D01*
X115497765Y-97021843D01*
X115250000Y-96972560D01*
X113650000Y-96972560D01*
X113402235Y-97021843D01*
X113192191Y-97162191D01*
X113051843Y-97372235D01*
X113002560Y-97620000D01*
X113002560Y-98620000D01*
X113051843Y-98867765D01*
X113192191Y-99077809D01*
X113402235Y-99218157D01*
X113650000Y-99267440D01*
X115250000Y-99267440D01*
X115497765Y-99218157D01*
X115707809Y-99077809D01*
X115848157Y-98867765D01*
X115863378Y-98791242D01*
X116047929Y-98667929D01*
X116090331Y-98604470D01*
X116739803Y-97954999D01*
X118002560Y-97954999D01*
X118002560Y-98620000D01*
X118051843Y-98867765D01*
X118192191Y-99077809D01*
X118402235Y-99218157D01*
X118565001Y-99250533D01*
X118565000Y-100820839D01*
X118547663Y-100908000D01*
X118565000Y-100995161D01*
X118565000Y-100995164D01*
X118616348Y-101253309D01*
X118811951Y-101546049D01*
X118885847Y-101595425D01*
X119454577Y-102164156D01*
X119503951Y-102238049D01*
X119577844Y-102287423D01*
X119577845Y-102287424D01*
X119773497Y-102418155D01*
X119796690Y-102433652D01*
X120054835Y-102485000D01*
X120054839Y-102485000D01*
X120142000Y-102502337D01*
X120229161Y-102485000D01*
X121105306Y-102485000D01*
X121226017Y-102535000D01*
X121597983Y-102535000D01*
X121941635Y-102392655D01*
X122204655Y-102129635D01*
X122347000Y-101785983D01*
X122347000Y-101414017D01*
X122204655Y-101070365D01*
X121941635Y-100807345D01*
X121597983Y-100665000D01*
X121226017Y-100665000D01*
X121105306Y-100715000D01*
X120508579Y-100715000D01*
X120335000Y-100541422D01*
X120335000Y-99250533D01*
X120497765Y-99218157D01*
X120707809Y-99077809D01*
X120848157Y-98867765D01*
X120897440Y-98620000D01*
X120897440Y-98224138D01*
X124770156Y-94351423D01*
X124844049Y-94302049D01*
X124907869Y-94206537D01*
X125018726Y-94040628D01*
X125290017Y-94153000D01*
X125661983Y-94153000D01*
X125732000Y-94123998D01*
X125732000Y-103937310D01*
X125650035Y-103855345D01*
X125306383Y-103713000D01*
X124934417Y-103713000D01*
X124590765Y-103855345D01*
X124327745Y-104118365D01*
X124185400Y-104462017D01*
X124185400Y-104833983D01*
X124327745Y-105177635D01*
X124360401Y-105210291D01*
X124360400Y-112379832D01*
X124276309Y-112345000D01*
X123635750Y-112345000D01*
X123477000Y-112503750D01*
X123477000Y-113353000D01*
X123497000Y-113353000D01*
X123497000Y-113607000D01*
X123477000Y-113607000D01*
X123477000Y-113627000D01*
X123223000Y-113627000D01*
X123223000Y-113607000D01*
X122073750Y-113607000D01*
X121915000Y-113765750D01*
X121915000Y-114106310D01*
X122011673Y-114339699D01*
X122100974Y-114429000D01*
X121999690Y-114429000D01*
X121992435Y-114421745D01*
X121648783Y-114279400D01*
X121276817Y-114279400D01*
X120933165Y-114421745D01*
X120670145Y-114684765D01*
X120527800Y-115028417D01*
X120527800Y-115400383D01*
X120670145Y-115744035D01*
X120933165Y-116007055D01*
X121276817Y-116149400D01*
X121648783Y-116149400D01*
X121931980Y-116032096D01*
X121902560Y-116180000D01*
X121902560Y-117180000D01*
X121951843Y-117427765D01*
X122092191Y-117637809D01*
X122302235Y-117778157D01*
X122550000Y-117827440D01*
X124150000Y-117827440D01*
X124397765Y-117778157D01*
X124607809Y-117637809D01*
X124739982Y-117440000D01*
X125764353Y-117440000D01*
X125839200Y-117454888D01*
X125914047Y-117440000D01*
X125914052Y-117440000D01*
X126135737Y-117395904D01*
X126387129Y-117227929D01*
X126429531Y-117164470D01*
X126902560Y-116691442D01*
X126902560Y-117180000D01*
X126951843Y-117427765D01*
X127092191Y-117637809D01*
X127302235Y-117778157D01*
X127465000Y-117810533D01*
X127465000Y-118102839D01*
X127447663Y-118190000D01*
X127465000Y-118277161D01*
X127465000Y-118277164D01*
X127516348Y-118535309D01*
X127711951Y-118828049D01*
X127785847Y-118877425D01*
X128344577Y-119436156D01*
X128393951Y-119510049D01*
X128467844Y-119559423D01*
X128467845Y-119559424D01*
X128566356Y-119625247D01*
X128686690Y-119705652D01*
X128944835Y-119757000D01*
X128944839Y-119757000D01*
X129032000Y-119774337D01*
X129119161Y-119757000D01*
X129741306Y-119757000D01*
X129759459Y-119764519D01*
X126838583Y-122078791D01*
X124461180Y-123916786D01*
X123546185Y-124558477D01*
X123016048Y-124148049D01*
X121780187Y-122995902D01*
X119803194Y-121049630D01*
X118109940Y-119337944D01*
X116889680Y-118046584D01*
X116167841Y-117206020D01*
X116136372Y-117161177D01*
X116473183Y-116625781D01*
X117733774Y-114917807D01*
X119349304Y-112853690D01*
X121915000Y-112853690D01*
X121915000Y-113194250D01*
X122073750Y-113353000D01*
X123223000Y-113353000D01*
X123223000Y-112503750D01*
X123064250Y-112345000D01*
X122423691Y-112345000D01*
X122190302Y-112441673D01*
X122011673Y-112620301D01*
X121915000Y-112853690D01*
X119349304Y-112853690D01*
X120283639Y-111659917D01*
X120287106Y-111656853D01*
X120325167Y-111606858D01*
X120363942Y-111557316D01*
X120366031Y-111553181D01*
X121055375Y-110647688D01*
X121093569Y-110617711D01*
X121137169Y-110540248D01*
X121149356Y-110524239D01*
X121170203Y-110481556D01*
X121227232Y-110380233D01*
X121229703Y-110359733D01*
X121238764Y-110341181D01*
X121245927Y-110225125D01*
X121259841Y-110109681D01*
X121254279Y-110089797D01*
X121255551Y-110069189D01*
X121217759Y-109959234D01*
X121204962Y-109913486D01*
X121195866Y-109895539D01*
X121166973Y-109811477D01*
X121134821Y-109775095D01*
X120073067Y-107680213D01*
X119306404Y-106100384D01*
X119252762Y-105967442D01*
X119276744Y-105952146D01*
X119315247Y-105897095D01*
X119363971Y-105850834D01*
X119392588Y-105786515D01*
X119432929Y-105728835D01*
X119447434Y-105663240D01*
X119474745Y-105601855D01*
X119476570Y-105531484D01*
X119491768Y-105462753D01*
X119480067Y-105396600D01*
X119481808Y-105329438D01*
X119456563Y-105263724D01*
X119444303Y-105194411D01*
X119408178Y-105137773D01*
X119384084Y-105075054D01*
X119335613Y-105024003D01*
X119297761Y-104964657D01*
X119242709Y-104926153D01*
X119196449Y-104877431D01*
X119132133Y-104848816D01*
X119074450Y-104808472D01*
X119008853Y-104793966D01*
X118947470Y-104766656D01*
X118877102Y-104764832D01*
X118875530Y-104764484D01*
X118809435Y-104763077D01*
X118743813Y-104761376D01*
X118742237Y-104761647D01*
X113540522Y-104650940D01*
X112135268Y-104563964D01*
X111069344Y-104450699D01*
X108960960Y-104172240D01*
X107843563Y-103960884D01*
X107589320Y-103872991D01*
X107446438Y-103793163D01*
X107061949Y-103434009D01*
X106695274Y-103042035D01*
X106695274Y-95205750D01*
X113015000Y-95205750D01*
X113015000Y-95546310D01*
X113111673Y-95779699D01*
X113290302Y-95958327D01*
X113523691Y-96055000D01*
X114164250Y-96055000D01*
X114323000Y-95896250D01*
X114323000Y-95047000D01*
X114577000Y-95047000D01*
X114577000Y-95896250D01*
X114735750Y-96055000D01*
X115376309Y-96055000D01*
X115609698Y-95958327D01*
X115788327Y-95779699D01*
X115885000Y-95546310D01*
X115885000Y-95205750D01*
X115726250Y-95047000D01*
X114577000Y-95047000D01*
X114323000Y-95047000D01*
X113173750Y-95047000D01*
X113015000Y-95205750D01*
X106695274Y-95205750D01*
X106695274Y-94293690D01*
X113015000Y-94293690D01*
X113015000Y-94634250D01*
X113173750Y-94793000D01*
X114323000Y-94793000D01*
X114323000Y-93943750D01*
X114577000Y-93943750D01*
X114577000Y-94793000D01*
X115726250Y-94793000D01*
X115885000Y-94634250D01*
X115885000Y-94293690D01*
X115788327Y-94060301D01*
X115609698Y-93881673D01*
X115376309Y-93785000D01*
X114735750Y-93785000D01*
X114577000Y-93943750D01*
X114323000Y-93943750D01*
X114164250Y-93785000D01*
X113523691Y-93785000D01*
X113290302Y-93881673D01*
X113111673Y-94060301D01*
X113015000Y-94293690D01*
X106695274Y-94293690D01*
X106695274Y-91090582D01*
X107034659Y-90687334D01*
X107230145Y-90479831D01*
X107416086Y-90338088D01*
X107671526Y-90210880D01*
X108061022Y-90085573D01*
X109487990Y-89818445D01*
X111881170Y-89516013D01*
X111883079Y-89516138D01*
X111948124Y-89507552D01*
X112013133Y-89499337D01*
X112014946Y-89498732D01*
X115267349Y-89069428D01*
X115312190Y-89075425D01*
X115401267Y-89051752D01*
X115424456Y-89048691D01*
X115466334Y-89034460D01*
X115575558Y-89005432D01*
X115594628Y-88990861D01*
X115617348Y-88983140D01*
X115702292Y-88908596D01*
X115792093Y-88839980D01*
X115804134Y-88819223D01*
X115822171Y-88803394D01*
X115872123Y-88702015D01*
X115894316Y-88663756D01*
X115901880Y-88641623D01*
X115942616Y-88558947D01*
X115945560Y-88513803D01*
X116511060Y-86858996D01*
X117175546Y-85080804D01*
X118012412Y-83143548D01*
X118672702Y-81694078D01*
X118681068Y-81681295D01*
X118700610Y-81632814D01*
X118722296Y-81585209D01*
X118725798Y-81570327D01*
X118941442Y-81035345D01*
X118943685Y-81033017D01*
X118992281Y-80909221D01*
X119016392Y-80849406D01*
X119016977Y-80846310D01*
X119043262Y-80779351D01*
X119042039Y-80713724D01*
X119054230Y-80649226D01*
X119039524Y-80578808D01*
X119038183Y-80506888D01*
X119011939Y-80446725D01*
X118998520Y-80382471D01*
X118957989Y-80323046D01*
X118956728Y-80320156D01*
X118919897Y-80267198D01*
X118844968Y-80157341D01*
X118842263Y-80155570D01*
X118353784Y-79453204D01*
X118346464Y-79438400D01*
X118315333Y-79397918D01*
X118286178Y-79355996D01*
X118274286Y-79344539D01*
X116918956Y-77582057D01*
X116918353Y-77580850D01*
X116877699Y-77528407D01*
X116837525Y-77476164D01*
X116836517Y-77475281D01*
X115368076Y-75581002D01*
X114575814Y-74439087D01*
X114400370Y-74104559D01*
X114312656Y-73852188D01*
X114273831Y-73613491D01*
X114263768Y-73325777D01*
X114292933Y-72920319D01*
X114320687Y-72830620D01*
X114385077Y-72708824D01*
X114798292Y-72189814D01*
X115645405Y-71298648D01*
X117148716Y-69753754D01*
X117182273Y-69734728D01*
X117242983Y-69656879D01*
X117263876Y-69635408D01*
X117284386Y-69603787D01*
X117349854Y-69519837D01*
X117358031Y-69490248D01*
X117374739Y-69464489D01*
X117394085Y-69359787D01*
X117422443Y-69257173D01*
X117418674Y-69226707D01*
X117424253Y-69196515D01*
X117402059Y-69092385D01*
X117388989Y-68986724D01*
X117373846Y-68960015D01*
X117367447Y-68929991D01*
X117307102Y-68842291D01*
X117288511Y-68809501D01*
X117268934Y-68786822D01*
X117212973Y-68705494D01*
X117180609Y-68684502D01*
X112861930Y-63681526D01*
X107919642Y-57932326D01*
X107368364Y-57269820D01*
X107292773Y-57171894D01*
X107222128Y-57131378D01*
X107158831Y-57080147D01*
X107105042Y-57064228D01*
X107056380Y-57036320D01*
X106975612Y-57025924D01*
X106897524Y-57002814D01*
X106841734Y-57008692D01*
X106786100Y-57001531D01*
X106707501Y-57022834D01*
X106626515Y-57031367D01*
X106517854Y-57090400D01*
X105796159Y-57448893D01*
X105468267Y-57576942D01*
X105078906Y-57671131D01*
X104629952Y-57732689D01*
X104155087Y-57756804D01*
X103685944Y-57742189D01*
X103254812Y-57690193D01*
X102897513Y-57606673D01*
X102629401Y-57498498D01*
X102230186Y-57258099D01*
X101862070Y-56977793D01*
X101539961Y-56670651D01*
X101263457Y-56340237D01*
X101032328Y-55989964D01*
X100846514Y-55623138D01*
X100706114Y-55242992D01*
X100611379Y-54852721D01*
X100562685Y-54455437D01*
X100560550Y-54054202D01*
X100605646Y-53651997D01*
X100698855Y-53251696D01*
X100841300Y-52856159D01*
X101034407Y-52468220D01*
X101279889Y-52090859D01*
X101579973Y-51726945D01*
X101870865Y-51443588D01*
X102180681Y-51201210D01*
X102506589Y-50998791D01*
X102846040Y-50835383D01*
X103196355Y-50710339D01*
X103554714Y-50623196D01*
X103918123Y-50573605D01*
X104278205Y-50561427D01*
X104750508Y-50600075D01*
M02*
