G04 #@! TF.GenerationSoftware,KiCad,Pcbnew,5.0.0-rc2-dev-unknown-952aa7a~63~ubuntu16.04.1*
G04 #@! TF.CreationDate,2018-03-29T23:45:57+02:00*
G04 #@! TF.ProjectId,ripolab_pcb,7269706F6C61625F7063622E6B696361,rev?*
G04 #@! TF.SameCoordinates,Original*
G04 #@! TF.FileFunction,Legend,Top*
G04 #@! TF.FilePolarity,Positive*
%FSLAX46Y46*%
G04 Gerber Fmt 4.6, Leading zero omitted, Abs format (unit mm)*
G04 Created by KiCad (PCBNEW 5.0.0-rc2-dev-unknown-952aa7a~63~ubuntu16.04.1) date Thu Mar 29 23:45:57 2018*
%MOMM*%
%LPD*%
G01*
G04 APERTURE LIST*
%ADD10C,0.150000*%
%ADD11C,0.120000*%
%ADD12C,0.014111*%
%ADD13C,0.007056*%
G04 APERTURE END LIST*
D10*
X117619542Y-117497305D02*
X118090946Y-117025901D01*
X117956259Y-117160588D02*
X118057275Y-117126916D01*
X118124618Y-117126916D01*
X118225633Y-117160588D01*
X118292977Y-117227931D01*
X118057275Y-117935038D02*
X118528679Y-117463633D01*
X118764381Y-117227931D02*
X118697038Y-117227931D01*
X118697038Y-117295275D01*
X118764381Y-117295275D01*
X118764381Y-117227931D01*
X118697038Y-117295275D01*
X118865397Y-117800351D02*
X118158290Y-118507458D01*
X118831725Y-117834023D02*
X118932740Y-117867694D01*
X119067427Y-118002381D01*
X119101099Y-118103397D01*
X119101099Y-118170740D01*
X119067427Y-118271755D01*
X118865397Y-118473786D01*
X118764381Y-118507458D01*
X118697038Y-118507458D01*
X118596023Y-118473786D01*
X118461336Y-118339099D01*
X118427664Y-118238084D01*
X119134771Y-119012534D02*
X119101099Y-118911519D01*
X119101099Y-118844175D01*
X119134771Y-118743160D01*
X119336801Y-118541129D01*
X119437816Y-118507458D01*
X119505160Y-118507458D01*
X119606175Y-118541129D01*
X119707190Y-118642145D01*
X119740862Y-118743160D01*
X119740862Y-118810503D01*
X119707190Y-118911519D01*
X119505160Y-119113549D01*
X119404145Y-119147221D01*
X119336801Y-119147221D01*
X119235786Y-119113549D01*
X119134771Y-119012534D01*
X119774534Y-119652297D02*
X119740862Y-119551282D01*
X119774534Y-119450267D01*
X120380625Y-118844175D01*
X120346954Y-120224717D02*
X120717343Y-119854328D01*
X120751015Y-119753312D01*
X120717343Y-119652297D01*
X120582656Y-119517610D01*
X120481641Y-119483938D01*
X120380625Y-120191045D02*
X120279610Y-120157374D01*
X120111251Y-119989015D01*
X120077580Y-119888000D01*
X120111251Y-119786984D01*
X120178595Y-119719641D01*
X120279610Y-119685969D01*
X120380625Y-119719641D01*
X120548984Y-119888000D01*
X120650000Y-119921671D01*
X120683671Y-120561435D02*
X121390778Y-119854328D01*
X121121404Y-120123702D02*
X121222419Y-120157374D01*
X121357106Y-120292061D01*
X121390778Y-120393076D01*
X121390778Y-120460419D01*
X121357106Y-120561435D01*
X121155076Y-120763465D01*
X121054061Y-120797137D01*
X120986717Y-120797137D01*
X120885702Y-120763465D01*
X120751015Y-120628778D01*
X120717343Y-120527763D01*
X121390778Y-121133854D02*
X121390778Y-121201198D01*
X121323435Y-121201198D01*
X121323435Y-121133854D01*
X121390778Y-121133854D01*
X121323435Y-121201198D01*
X121761167Y-121638931D02*
X121727496Y-121537915D01*
X121727496Y-121470572D01*
X121761167Y-121369557D01*
X121963198Y-121167526D01*
X122064213Y-121133854D01*
X122131557Y-121133854D01*
X122232572Y-121167526D01*
X122333587Y-121268541D01*
X122367259Y-121369557D01*
X122367259Y-121436900D01*
X122333587Y-121537915D01*
X122131557Y-121739946D01*
X122030541Y-121773618D01*
X121963198Y-121773618D01*
X121862183Y-121739946D01*
X121761167Y-121638931D01*
X122299915Y-122177679D02*
X122771320Y-121706274D01*
X122636633Y-121840961D02*
X122737648Y-121807289D01*
X122804992Y-121807289D01*
X122906007Y-121840961D01*
X122973350Y-121908305D01*
X123512098Y-122447053D02*
X122939679Y-123019472D01*
X122838663Y-123053144D01*
X122771320Y-123053144D01*
X122670305Y-123019472D01*
X122569289Y-122918457D01*
X122535618Y-122817442D01*
X123074366Y-122884785D02*
X122973350Y-122851114D01*
X122838663Y-122716427D01*
X122804992Y-122615411D01*
X122804992Y-122548068D01*
X122838663Y-122447053D01*
X123040694Y-122245022D01*
X123141709Y-122211350D01*
X123209053Y-122211350D01*
X123310068Y-122245022D01*
X123444755Y-122379709D01*
X123478427Y-122480724D01*
X172037038Y-122061289D02*
X171969694Y-122061289D01*
X171868679Y-122094961D01*
X171801336Y-122162305D01*
X171767664Y-122263320D01*
X171767664Y-122330663D01*
X171801336Y-122431679D01*
X171868679Y-122499022D01*
X171969694Y-122532694D01*
X172037038Y-122532694D01*
X172138053Y-122499022D01*
X172205397Y-122431679D01*
X172239068Y-122330663D01*
X172239068Y-122263320D01*
X171969694Y-121993946D02*
X172239068Y-122263320D01*
X172306412Y-122263320D01*
X172340084Y-122229648D01*
X172373755Y-122128633D01*
X172340084Y-122027618D01*
X172171725Y-121859259D01*
X172003366Y-121825587D01*
X171835007Y-121859259D01*
X171666649Y-121960274D01*
X171565633Y-122128633D01*
X171531962Y-122296992D01*
X171565633Y-122465350D01*
X171666649Y-122633709D01*
X171835007Y-122734724D01*
X172003366Y-122768396D01*
X172171725Y-122734724D01*
X172340084Y-122633709D01*
X172441099Y-122465350D01*
X172474771Y-122296992D01*
X173249221Y-121522541D02*
X172676801Y-121421526D01*
X172845160Y-121926602D02*
X172138053Y-121219496D01*
X172407427Y-120950122D01*
X172508442Y-120916450D01*
X172575786Y-120916450D01*
X172676801Y-120950122D01*
X172777816Y-121051137D01*
X172811488Y-121152152D01*
X172811488Y-121219496D01*
X172777816Y-121320511D01*
X172508442Y-121589885D01*
X173552267Y-121219496D02*
X173080862Y-120748091D01*
X172845160Y-120512389D02*
X172845160Y-120579732D01*
X172912503Y-120579732D01*
X172912503Y-120512389D01*
X172845160Y-120512389D01*
X172912503Y-120579732D01*
X173417580Y-120411374D02*
X174124687Y-121118480D01*
X173451251Y-120445045D02*
X173484923Y-120344030D01*
X173619610Y-120209343D01*
X173720625Y-120175671D01*
X173787969Y-120175671D01*
X173888984Y-120209343D01*
X174091015Y-120411374D01*
X174124687Y-120512389D01*
X174124687Y-120579732D01*
X174091015Y-120680748D01*
X173956328Y-120815435D01*
X173855312Y-120849106D01*
X174629763Y-120142000D02*
X174528748Y-120175671D01*
X174461404Y-120175671D01*
X174360389Y-120141999D01*
X174158358Y-119939969D01*
X174124687Y-119838954D01*
X174124687Y-119771610D01*
X174158358Y-119670595D01*
X174259374Y-119569580D01*
X174360389Y-119535908D01*
X174427732Y-119535908D01*
X174528748Y-119569580D01*
X174730778Y-119771610D01*
X174764450Y-119872625D01*
X174764450Y-119939969D01*
X174730778Y-120040984D01*
X174629763Y-120142000D01*
X175505228Y-119266534D02*
X175168511Y-119603251D01*
X174461404Y-118896145D01*
X176043976Y-118727786D02*
X175673587Y-118357397D01*
X175572572Y-118323725D01*
X175471557Y-118357397D01*
X175336870Y-118492084D01*
X175303198Y-118593099D01*
X176010305Y-118694114D02*
X175976633Y-118795129D01*
X175808274Y-118963488D01*
X175707259Y-118997160D01*
X175606244Y-118963488D01*
X175538900Y-118896145D01*
X175505228Y-118795129D01*
X175538900Y-118694114D01*
X175707259Y-118525755D01*
X175740931Y-118424740D01*
X176380694Y-118391068D02*
X175673587Y-117683962D01*
X175942961Y-117953336D02*
X175976633Y-117852320D01*
X176111320Y-117717633D01*
X176212335Y-117683962D01*
X176279679Y-117683962D01*
X176380694Y-117717633D01*
X176582724Y-117919664D01*
X176616396Y-118020679D01*
X176616396Y-118088023D01*
X176582724Y-118189038D01*
X176448037Y-118323725D01*
X176347022Y-118357397D01*
D11*
X150700000Y-68980000D02*
X150700000Y-67980000D01*
X143700000Y-68980000D02*
X150700000Y-68980000D01*
X143700000Y-63780000D02*
X150700000Y-63780000D01*
X122250000Y-72580000D02*
X129250000Y-72580000D01*
X122250000Y-77780000D02*
X129250000Y-77780000D01*
X129250000Y-77780000D02*
X129250000Y-76780000D01*
X120450000Y-99120000D02*
X120450000Y-98120000D01*
X113450000Y-99120000D02*
X120450000Y-99120000D01*
X113450000Y-93920000D02*
X120450000Y-93920000D01*
X122350000Y-112480000D02*
X129350000Y-112480000D01*
X122350000Y-117680000D02*
X129350000Y-117680000D01*
X129350000Y-117680000D02*
X129350000Y-116680000D01*
X150500000Y-129580000D02*
X150500000Y-128580000D01*
X143500000Y-129580000D02*
X150500000Y-129580000D01*
X143500000Y-124380000D02*
X150500000Y-124380000D01*
X165200000Y-112630000D02*
X172200000Y-112630000D01*
X165200000Y-117830000D02*
X172200000Y-117830000D01*
X172200000Y-117830000D02*
X172200000Y-116830000D01*
X181050000Y-99380000D02*
X181050000Y-98380000D01*
X174050000Y-99380000D02*
X181050000Y-99380000D01*
X174050000Y-94180000D02*
X181050000Y-94180000D01*
X172100000Y-77930000D02*
X172100000Y-76930000D01*
X165100000Y-77930000D02*
X172100000Y-77930000D01*
X165100000Y-72730000D02*
X172100000Y-72730000D01*
D12*
G36*
X153517718Y-92329941D02*
X152796978Y-90772330D01*
X150944444Y-90404309D01*
X149219255Y-90123998D01*
X149219255Y-88359090D01*
X149219255Y-86594182D01*
X149708440Y-86494639D01*
X152155055Y-85922705D01*
X153049722Y-85482028D01*
X153738005Y-84003527D01*
X154208860Y-82835446D01*
X153219242Y-81365738D01*
X152229625Y-79751207D01*
X153396144Y-78420112D01*
X154562662Y-77233845D01*
X156143107Y-78289338D01*
X157878317Y-79345102D01*
X159149513Y-78802638D01*
X160388515Y-78044956D01*
X160827191Y-77024778D01*
X161180916Y-75319005D01*
X161288986Y-74528783D01*
X162231150Y-74528783D01*
X164071185Y-74622629D01*
X164969052Y-74716474D01*
X165238932Y-76315962D01*
X165621113Y-78121838D01*
X166970100Y-78801828D01*
X168490589Y-79345376D01*
X170155390Y-78282029D01*
X171944429Y-77491807D01*
X173153021Y-78785426D01*
X174111159Y-79805921D01*
X173042254Y-81358727D01*
X171973353Y-82911533D01*
X172584976Y-84301605D01*
X173512817Y-85811149D01*
X175376194Y-86210833D01*
X176923356Y-86491041D01*
X176881380Y-88291526D01*
X176839403Y-90092007D01*
X175409477Y-90368299D01*
X173603255Y-90915976D01*
X172700144Y-92489322D01*
X172173329Y-93791280D01*
X168844362Y-93793086D01*
X165515392Y-93794892D01*
X165186413Y-93004670D01*
X164857434Y-92214448D01*
X165279232Y-91881946D01*
X166682085Y-90304542D01*
X167130959Y-88477013D01*
X166918388Y-86937560D01*
X166183023Y-85726943D01*
X164850324Y-84666214D01*
X163066959Y-84389282D01*
X161110218Y-84787078D01*
X159572651Y-86260011D01*
X159082688Y-88300957D01*
X159394874Y-89925023D01*
X160544479Y-91486188D01*
X161300163Y-92285216D01*
X161005930Y-93002418D01*
X160711693Y-93719624D01*
X157411400Y-93759596D01*
X154111107Y-93799570D01*
X153517718Y-92329670D01*
X153517718Y-92329941D01*
X153517718Y-92329941D01*
G37*
X153517718Y-92329941D02*
X152796978Y-90772330D01*
X150944444Y-90404309D01*
X149219255Y-90123998D01*
X149219255Y-88359090D01*
X149219255Y-86594182D01*
X149708440Y-86494639D01*
X152155055Y-85922705D01*
X153049722Y-85482028D01*
X153738005Y-84003527D01*
X154208860Y-82835446D01*
X153219242Y-81365738D01*
X152229625Y-79751207D01*
X153396144Y-78420112D01*
X154562662Y-77233845D01*
X156143107Y-78289338D01*
X157878317Y-79345102D01*
X159149513Y-78802638D01*
X160388515Y-78044956D01*
X160827191Y-77024778D01*
X161180916Y-75319005D01*
X161288986Y-74528783D01*
X162231150Y-74528783D01*
X164071185Y-74622629D01*
X164969052Y-74716474D01*
X165238932Y-76315962D01*
X165621113Y-78121838D01*
X166970100Y-78801828D01*
X168490589Y-79345376D01*
X170155390Y-78282029D01*
X171944429Y-77491807D01*
X173153021Y-78785426D01*
X174111159Y-79805921D01*
X173042254Y-81358727D01*
X171973353Y-82911533D01*
X172584976Y-84301605D01*
X173512817Y-85811149D01*
X175376194Y-86210833D01*
X176923356Y-86491041D01*
X176881380Y-88291526D01*
X176839403Y-90092007D01*
X175409477Y-90368299D01*
X173603255Y-90915976D01*
X172700144Y-92489322D01*
X172173329Y-93791280D01*
X168844362Y-93793086D01*
X165515392Y-93794892D01*
X165186413Y-93004670D01*
X164857434Y-92214448D01*
X165279232Y-91881946D01*
X166682085Y-90304542D01*
X167130959Y-88477013D01*
X166918388Y-86937560D01*
X166183023Y-85726943D01*
X164850324Y-84666214D01*
X163066959Y-84389282D01*
X161110218Y-84787078D01*
X159572651Y-86260011D01*
X159082688Y-88300957D01*
X159394874Y-89925023D01*
X160544479Y-91486188D01*
X161300163Y-92285216D01*
X161005930Y-93002418D01*
X160711693Y-93719624D01*
X157411400Y-93759596D01*
X154111107Y-93799570D01*
X153517718Y-92329670D01*
X153517718Y-92329941D01*
G36*
X144278882Y-123280230D02*
X141762495Y-122794005D01*
X139043091Y-121943400D01*
X136479885Y-120840777D01*
X134591034Y-119749930D01*
X132696085Y-118397250D01*
X130884036Y-116858321D01*
X129243884Y-115208727D01*
X127864627Y-113524050D01*
X126942514Y-112255613D01*
X126942514Y-110626569D01*
X126942514Y-108997525D01*
X147111996Y-108997525D01*
X167281477Y-108997525D01*
X167281477Y-110747002D01*
X167281477Y-112496481D01*
X166571099Y-113493965D01*
X165280962Y-115096884D01*
X163723239Y-116682080D01*
X161963459Y-118193280D01*
X160067152Y-119574212D01*
X158099848Y-120768603D01*
X156076669Y-121715384D01*
X153859524Y-122465766D01*
X151509793Y-123008596D01*
X149088856Y-123332719D01*
X146658092Y-123426982D01*
X144278882Y-123280230D01*
X144278882Y-123280230D01*
G37*
X144278882Y-123280230D02*
X141762495Y-122794005D01*
X139043091Y-121943400D01*
X136479885Y-120840777D01*
X134591034Y-119749930D01*
X132696085Y-118397250D01*
X130884036Y-116858321D01*
X129243884Y-115208727D01*
X127864627Y-113524050D01*
X126942514Y-112255613D01*
X126942514Y-110626569D01*
X126942514Y-108997525D01*
X147111996Y-108997525D01*
X167281477Y-108997525D01*
X167281477Y-110747002D01*
X167281477Y-112496481D01*
X166571099Y-113493965D01*
X165280962Y-115096884D01*
X163723239Y-116682080D01*
X161963459Y-118193280D01*
X160067152Y-119574212D01*
X158099848Y-120768603D01*
X156076669Y-121715384D01*
X153859524Y-122465766D01*
X151509793Y-123008596D01*
X149088856Y-123332719D01*
X146658092Y-123426982D01*
X144278882Y-123280230D01*
D13*
G36*
X122497004Y-93665847D02*
X121946840Y-92030063D01*
X121208796Y-90558292D01*
X119391162Y-90213942D01*
X117716644Y-89921313D01*
X117717156Y-88114892D01*
X117717667Y-86308471D01*
X119001745Y-86061019D01*
X120870594Y-85628835D01*
X121455365Y-85444104D01*
X121742814Y-84831562D01*
X122344761Y-83419894D01*
X122659260Y-82620767D01*
X121815552Y-81378990D01*
X120807312Y-79811544D01*
X120642780Y-79485876D01*
X120848371Y-79209470D01*
X122004994Y-77967037D01*
X123016983Y-77013952D01*
X124688822Y-78074687D01*
X126459151Y-79079885D01*
X127532586Y-78623411D01*
X129155651Y-77261200D01*
X129503351Y-75786535D01*
X129758144Y-74361328D01*
X131581197Y-74334988D01*
X133436139Y-74420335D01*
X133785462Y-76224669D01*
X134131857Y-78021993D01*
X135553794Y-78590328D01*
X136985775Y-79121203D01*
X138523502Y-78103977D01*
X140084515Y-77049517D01*
X141440726Y-78273705D01*
X142699904Y-79535129D01*
X141610059Y-81096331D01*
X140520218Y-82703610D01*
X141133177Y-84132347D01*
X141895981Y-85562568D01*
X143735603Y-85934589D01*
X145465028Y-86298703D01*
X145439560Y-88129119D01*
X145374443Y-89919883D01*
X144998147Y-89983604D01*
X142367694Y-90565719D01*
X141103245Y-92508067D01*
X140740324Y-93740314D01*
X140322361Y-93852853D01*
X137454044Y-93871500D01*
X134085554Y-93870898D01*
X133689501Y-92920708D01*
X133379508Y-91866822D01*
X133991745Y-91413325D01*
X135330474Y-89641486D01*
X135557111Y-87308718D01*
X134771981Y-85640016D01*
X133349522Y-84523303D01*
X131582080Y-84099742D01*
X129762000Y-84510494D01*
X128311346Y-85782452D01*
X127583916Y-87512529D01*
X127856901Y-89537082D01*
X129239433Y-91424554D01*
X129854316Y-92012009D01*
X129486380Y-92923158D01*
X129118443Y-93834307D01*
X125789946Y-93853904D01*
X122461448Y-93873502D01*
X122497024Y-93665759D01*
X122497004Y-93665847D01*
X122497004Y-93665847D01*
G37*
X122497004Y-93665847D02*
X121946840Y-92030063D01*
X121208796Y-90558292D01*
X119391162Y-90213942D01*
X117716644Y-89921313D01*
X117717156Y-88114892D01*
X117717667Y-86308471D01*
X119001745Y-86061019D01*
X120870594Y-85628835D01*
X121455365Y-85444104D01*
X121742814Y-84831562D01*
X122344761Y-83419894D01*
X122659260Y-82620767D01*
X121815552Y-81378990D01*
X120807312Y-79811544D01*
X120642780Y-79485876D01*
X120848371Y-79209470D01*
X122004994Y-77967037D01*
X123016983Y-77013952D01*
X124688822Y-78074687D01*
X126459151Y-79079885D01*
X127532586Y-78623411D01*
X129155651Y-77261200D01*
X129503351Y-75786535D01*
X129758144Y-74361328D01*
X131581197Y-74334988D01*
X133436139Y-74420335D01*
X133785462Y-76224669D01*
X134131857Y-78021993D01*
X135553794Y-78590328D01*
X136985775Y-79121203D01*
X138523502Y-78103977D01*
X140084515Y-77049517D01*
X141440726Y-78273705D01*
X142699904Y-79535129D01*
X141610059Y-81096331D01*
X140520218Y-82703610D01*
X141133177Y-84132347D01*
X141895981Y-85562568D01*
X143735603Y-85934589D01*
X145465028Y-86298703D01*
X145439560Y-88129119D01*
X145374443Y-89919883D01*
X144998147Y-89983604D01*
X142367694Y-90565719D01*
X141103245Y-92508067D01*
X140740324Y-93740314D01*
X140322361Y-93852853D01*
X137454044Y-93871500D01*
X134085554Y-93870898D01*
X133689501Y-92920708D01*
X133379508Y-91866822D01*
X133991745Y-91413325D01*
X135330474Y-89641486D01*
X135557111Y-87308718D01*
X134771981Y-85640016D01*
X133349522Y-84523303D01*
X131582080Y-84099742D01*
X129762000Y-84510494D01*
X128311346Y-85782452D01*
X127583916Y-87512529D01*
X127856901Y-89537082D01*
X129239433Y-91424554D01*
X129854316Y-92012009D01*
X129486380Y-92923158D01*
X129118443Y-93834307D01*
X125789946Y-93853904D01*
X122461448Y-93873502D01*
X122497024Y-93665759D01*
X122497004Y-93665847D01*
D10*
X145946952Y-70429380D02*
X145470761Y-70429380D01*
X145470761Y-69429380D01*
X146280285Y-69905571D02*
X146613619Y-69905571D01*
X146756476Y-70429380D02*
X146280285Y-70429380D01*
X146280285Y-69429380D01*
X146756476Y-69429380D01*
X147185047Y-70429380D02*
X147185047Y-69429380D01*
X147423142Y-69429380D01*
X147566000Y-69477000D01*
X147661238Y-69572238D01*
X147708857Y-69667476D01*
X147756476Y-69857952D01*
X147756476Y-70000809D01*
X147708857Y-70191285D01*
X147661238Y-70286523D01*
X147566000Y-70381761D01*
X147423142Y-70429380D01*
X147185047Y-70429380D01*
X148708857Y-70429380D02*
X148137428Y-70429380D01*
X148423142Y-70429380D02*
X148423142Y-69429380D01*
X148327904Y-69572238D01*
X148232666Y-69667476D01*
X148137428Y-69715095D01*
X122705952Y-71572380D02*
X122229761Y-71572380D01*
X122229761Y-70572380D01*
X123039285Y-71048571D02*
X123372619Y-71048571D01*
X123515476Y-71572380D02*
X123039285Y-71572380D01*
X123039285Y-70572380D01*
X123515476Y-70572380D01*
X123944047Y-71572380D02*
X123944047Y-70572380D01*
X124182142Y-70572380D01*
X124325000Y-70620000D01*
X124420238Y-70715238D01*
X124467857Y-70810476D01*
X124515476Y-71000952D01*
X124515476Y-71143809D01*
X124467857Y-71334285D01*
X124420238Y-71429523D01*
X124325000Y-71524761D01*
X124182142Y-71572380D01*
X123944047Y-71572380D01*
X124896428Y-70667619D02*
X124944047Y-70620000D01*
X125039285Y-70572380D01*
X125277380Y-70572380D01*
X125372619Y-70620000D01*
X125420238Y-70667619D01*
X125467857Y-70762857D01*
X125467857Y-70858095D01*
X125420238Y-71000952D01*
X124848809Y-71572380D01*
X125467857Y-71572380D01*
X113815952Y-93162380D02*
X113339761Y-93162380D01*
X113339761Y-92162380D01*
X114149285Y-92638571D02*
X114482619Y-92638571D01*
X114625476Y-93162380D02*
X114149285Y-93162380D01*
X114149285Y-92162380D01*
X114625476Y-92162380D01*
X115054047Y-93162380D02*
X115054047Y-92162380D01*
X115292142Y-92162380D01*
X115435000Y-92210000D01*
X115530238Y-92305238D01*
X115577857Y-92400476D01*
X115625476Y-92590952D01*
X115625476Y-92733809D01*
X115577857Y-92924285D01*
X115530238Y-93019523D01*
X115435000Y-93114761D01*
X115292142Y-93162380D01*
X115054047Y-93162380D01*
X115958809Y-92162380D02*
X116577857Y-92162380D01*
X116244523Y-92543333D01*
X116387380Y-92543333D01*
X116482619Y-92590952D01*
X116530238Y-92638571D01*
X116577857Y-92733809D01*
X116577857Y-92971904D01*
X116530238Y-93067142D01*
X116482619Y-93114761D01*
X116387380Y-93162380D01*
X116101666Y-93162380D01*
X116006428Y-93114761D01*
X115958809Y-93067142D01*
X122705952Y-111577380D02*
X122229761Y-111577380D01*
X122229761Y-110577380D01*
X123039285Y-111053571D02*
X123372619Y-111053571D01*
X123515476Y-111577380D02*
X123039285Y-111577380D01*
X123039285Y-110577380D01*
X123515476Y-110577380D01*
X123944047Y-111577380D02*
X123944047Y-110577380D01*
X124182142Y-110577380D01*
X124325000Y-110625000D01*
X124420238Y-110720238D01*
X124467857Y-110815476D01*
X124515476Y-111005952D01*
X124515476Y-111148809D01*
X124467857Y-111339285D01*
X124420238Y-111434523D01*
X124325000Y-111529761D01*
X124182142Y-111577380D01*
X123944047Y-111577380D01*
X125372619Y-110910714D02*
X125372619Y-111577380D01*
X125134523Y-110529761D02*
X124896428Y-111244047D01*
X125515476Y-111244047D01*
X146073952Y-131262380D02*
X145597761Y-131262380D01*
X145597761Y-130262380D01*
X146407285Y-130738571D02*
X146740619Y-130738571D01*
X146883476Y-131262380D02*
X146407285Y-131262380D01*
X146407285Y-130262380D01*
X146883476Y-130262380D01*
X147312047Y-131262380D02*
X147312047Y-130262380D01*
X147550142Y-130262380D01*
X147693000Y-130310000D01*
X147788238Y-130405238D01*
X147835857Y-130500476D01*
X147883476Y-130690952D01*
X147883476Y-130833809D01*
X147835857Y-131024285D01*
X147788238Y-131119523D01*
X147693000Y-131214761D01*
X147550142Y-131262380D01*
X147312047Y-131262380D01*
X148788238Y-130262380D02*
X148312047Y-130262380D01*
X148264428Y-130738571D01*
X148312047Y-130690952D01*
X148407285Y-130643333D01*
X148645380Y-130643333D01*
X148740619Y-130690952D01*
X148788238Y-130738571D01*
X148835857Y-130833809D01*
X148835857Y-131071904D01*
X148788238Y-131167142D01*
X148740619Y-131214761D01*
X148645380Y-131262380D01*
X148407285Y-131262380D01*
X148312047Y-131214761D01*
X148264428Y-131167142D01*
X169695952Y-111577380D02*
X169219761Y-111577380D01*
X169219761Y-110577380D01*
X170029285Y-111053571D02*
X170362619Y-111053571D01*
X170505476Y-111577380D02*
X170029285Y-111577380D01*
X170029285Y-110577380D01*
X170505476Y-110577380D01*
X170934047Y-111577380D02*
X170934047Y-110577380D01*
X171172142Y-110577380D01*
X171315000Y-110625000D01*
X171410238Y-110720238D01*
X171457857Y-110815476D01*
X171505476Y-111005952D01*
X171505476Y-111148809D01*
X171457857Y-111339285D01*
X171410238Y-111434523D01*
X171315000Y-111529761D01*
X171172142Y-111577380D01*
X170934047Y-111577380D01*
X172362619Y-110577380D02*
X172172142Y-110577380D01*
X172076904Y-110625000D01*
X172029285Y-110672619D01*
X171934047Y-110815476D01*
X171886428Y-111005952D01*
X171886428Y-111386904D01*
X171934047Y-111482142D01*
X171981666Y-111529761D01*
X172076904Y-111577380D01*
X172267380Y-111577380D01*
X172362619Y-111529761D01*
X172410238Y-111482142D01*
X172457857Y-111386904D01*
X172457857Y-111148809D01*
X172410238Y-111053571D01*
X172362619Y-111005952D01*
X172267380Y-110958333D01*
X172076904Y-110958333D01*
X171981666Y-111005952D01*
X171934047Y-111053571D01*
X171886428Y-111148809D01*
X178585952Y-93162380D02*
X178109761Y-93162380D01*
X178109761Y-92162380D01*
X178919285Y-92638571D02*
X179252619Y-92638571D01*
X179395476Y-93162380D02*
X178919285Y-93162380D01*
X178919285Y-92162380D01*
X179395476Y-92162380D01*
X179824047Y-93162380D02*
X179824047Y-92162380D01*
X180062142Y-92162380D01*
X180205000Y-92210000D01*
X180300238Y-92305238D01*
X180347857Y-92400476D01*
X180395476Y-92590952D01*
X180395476Y-92733809D01*
X180347857Y-92924285D01*
X180300238Y-93019523D01*
X180205000Y-93114761D01*
X180062142Y-93162380D01*
X179824047Y-93162380D01*
X180728809Y-92162380D02*
X181395476Y-92162380D01*
X180966904Y-93162380D01*
X169695952Y-71572380D02*
X169219761Y-71572380D01*
X169219761Y-70572380D01*
X170029285Y-71048571D02*
X170362619Y-71048571D01*
X170505476Y-71572380D02*
X170029285Y-71572380D01*
X170029285Y-70572380D01*
X170505476Y-70572380D01*
X170934047Y-71572380D02*
X170934047Y-70572380D01*
X171172142Y-70572380D01*
X171315000Y-70620000D01*
X171410238Y-70715238D01*
X171457857Y-70810476D01*
X171505476Y-71000952D01*
X171505476Y-71143809D01*
X171457857Y-71334285D01*
X171410238Y-71429523D01*
X171315000Y-71524761D01*
X171172142Y-71572380D01*
X170934047Y-71572380D01*
X172076904Y-71000952D02*
X171981666Y-70953333D01*
X171934047Y-70905714D01*
X171886428Y-70810476D01*
X171886428Y-70762857D01*
X171934047Y-70667619D01*
X171981666Y-70620000D01*
X172076904Y-70572380D01*
X172267380Y-70572380D01*
X172362619Y-70620000D01*
X172410238Y-70667619D01*
X172457857Y-70762857D01*
X172457857Y-70810476D01*
X172410238Y-70905714D01*
X172362619Y-70953333D01*
X172267380Y-71000952D01*
X172076904Y-71000952D01*
X171981666Y-71048571D01*
X171934047Y-71096190D01*
X171886428Y-71191428D01*
X171886428Y-71381904D01*
X171934047Y-71477142D01*
X171981666Y-71524761D01*
X172076904Y-71572380D01*
X172267380Y-71572380D01*
X172362619Y-71524761D01*
X172410238Y-71477142D01*
X172457857Y-71381904D01*
X172457857Y-71191428D01*
X172410238Y-71096190D01*
X172362619Y-71048571D01*
X172267380Y-71000952D01*
M02*
