G04 #@! TF.GenerationSoftware,KiCad,Pcbnew,5.0.2-bee76a0~70~ubuntu18.04.1*
G04 #@! TF.CreationDate,2019-03-10T18:19:14+01:00*
G04 #@! TF.ProjectId,robotac19,726f626f-7461-4633-9139-2e6b69636164,rev?*
G04 #@! TF.SameCoordinates,Original*
G04 #@! TF.FileFunction,Soldermask,Bot*
G04 #@! TF.FilePolarity,Negative*
%FSLAX46Y46*%
G04 Gerber Fmt 4.6, Leading zero omitted, Abs format (unit mm)*
G04 Created by KiCad (PCBNEW 5.0.2-bee76a0~70~ubuntu18.04.1) date dom 10 mar 2019 18:19:14 CET*
%MOMM*%
%LPD*%
G01*
G04 APERTURE LIST*
%ADD10C,0.100000*%
G04 APERTURE END LIST*
D10*
G36*
X160566030Y-124134469D02*
X160566033Y-124134470D01*
X160566034Y-124134470D01*
X160754535Y-124191651D01*
X160754537Y-124191652D01*
X160928260Y-124284509D01*
X161080528Y-124409472D01*
X161205491Y-124561740D01*
X161298348Y-124735463D01*
X161355531Y-124923970D01*
X161374838Y-125120000D01*
X161355531Y-125316030D01*
X161298348Y-125504537D01*
X161205491Y-125678260D01*
X161080528Y-125830528D01*
X160928260Y-125955491D01*
X160928258Y-125955492D01*
X160754535Y-126048349D01*
X160566034Y-126105530D01*
X160566033Y-126105530D01*
X160566030Y-126105531D01*
X160419124Y-126120000D01*
X160320876Y-126120000D01*
X160173970Y-126105531D01*
X160173967Y-126105530D01*
X160173966Y-126105530D01*
X159985465Y-126048349D01*
X159811742Y-125955492D01*
X159811740Y-125955491D01*
X159659472Y-125830528D01*
X159534509Y-125678260D01*
X159441652Y-125504537D01*
X159384469Y-125316030D01*
X159365162Y-125120000D01*
X159384469Y-124923970D01*
X159441652Y-124735463D01*
X159534509Y-124561740D01*
X159659472Y-124409472D01*
X159811740Y-124284509D01*
X159985463Y-124191652D01*
X159985465Y-124191651D01*
X160173966Y-124134470D01*
X160173967Y-124134470D01*
X160173970Y-124134469D01*
X160320876Y-124120000D01*
X160419124Y-124120000D01*
X160566030Y-124134469D01*
X160566030Y-124134469D01*
G37*
G36*
X152946030Y-124134469D02*
X152946033Y-124134470D01*
X152946034Y-124134470D01*
X153134535Y-124191651D01*
X153134537Y-124191652D01*
X153308260Y-124284509D01*
X153460528Y-124409472D01*
X153585491Y-124561740D01*
X153678348Y-124735463D01*
X153735531Y-124923970D01*
X153754838Y-125120000D01*
X153735531Y-125316030D01*
X153678348Y-125504537D01*
X153585491Y-125678260D01*
X153460528Y-125830528D01*
X153308260Y-125955491D01*
X153308258Y-125955492D01*
X153134535Y-126048349D01*
X152946034Y-126105530D01*
X152946033Y-126105530D01*
X152946030Y-126105531D01*
X152799124Y-126120000D01*
X152700876Y-126120000D01*
X152553970Y-126105531D01*
X152553967Y-126105530D01*
X152553966Y-126105530D01*
X152365465Y-126048349D01*
X152191742Y-125955492D01*
X152191740Y-125955491D01*
X152039472Y-125830528D01*
X151914509Y-125678260D01*
X151821652Y-125504537D01*
X151764469Y-125316030D01*
X151745162Y-125120000D01*
X151764469Y-124923970D01*
X151821652Y-124735463D01*
X151914509Y-124561740D01*
X152039472Y-124409472D01*
X152191740Y-124284509D01*
X152365463Y-124191652D01*
X152365465Y-124191651D01*
X152553966Y-124134470D01*
X152553967Y-124134470D01*
X152553970Y-124134469D01*
X152700876Y-124120000D01*
X152799124Y-124120000D01*
X152946030Y-124134469D01*
X152946030Y-124134469D01*
G37*
G36*
X160566030Y-121594469D02*
X160566033Y-121594470D01*
X160566034Y-121594470D01*
X160754535Y-121651651D01*
X160754537Y-121651652D01*
X160928260Y-121744509D01*
X161080528Y-121869472D01*
X161205491Y-122021740D01*
X161298348Y-122195463D01*
X161355531Y-122383970D01*
X161374838Y-122580000D01*
X161355531Y-122776030D01*
X161298348Y-122964537D01*
X161205491Y-123138260D01*
X161080528Y-123290528D01*
X160928260Y-123415491D01*
X160928258Y-123415492D01*
X160754535Y-123508349D01*
X160566034Y-123565530D01*
X160566033Y-123565530D01*
X160566030Y-123565531D01*
X160419124Y-123580000D01*
X160320876Y-123580000D01*
X160173970Y-123565531D01*
X160173967Y-123565530D01*
X160173966Y-123565530D01*
X159985465Y-123508349D01*
X159811742Y-123415492D01*
X159811740Y-123415491D01*
X159659472Y-123290528D01*
X159534509Y-123138260D01*
X159441652Y-122964537D01*
X159384469Y-122776030D01*
X159365162Y-122580000D01*
X159384469Y-122383970D01*
X159441652Y-122195463D01*
X159534509Y-122021740D01*
X159659472Y-121869472D01*
X159811740Y-121744509D01*
X159985463Y-121651652D01*
X159985465Y-121651651D01*
X160173966Y-121594470D01*
X160173967Y-121594470D01*
X160173970Y-121594469D01*
X160320876Y-121580000D01*
X160419124Y-121580000D01*
X160566030Y-121594469D01*
X160566030Y-121594469D01*
G37*
G36*
X152946030Y-121594469D02*
X152946033Y-121594470D01*
X152946034Y-121594470D01*
X153134535Y-121651651D01*
X153134537Y-121651652D01*
X153308260Y-121744509D01*
X153460528Y-121869472D01*
X153585491Y-122021740D01*
X153678348Y-122195463D01*
X153735531Y-122383970D01*
X153754838Y-122580000D01*
X153735531Y-122776030D01*
X153678348Y-122964537D01*
X153585491Y-123138260D01*
X153460528Y-123290528D01*
X153308260Y-123415491D01*
X153308258Y-123415492D01*
X153134535Y-123508349D01*
X152946034Y-123565530D01*
X152946033Y-123565530D01*
X152946030Y-123565531D01*
X152799124Y-123580000D01*
X152700876Y-123580000D01*
X152553970Y-123565531D01*
X152553967Y-123565530D01*
X152553966Y-123565530D01*
X152365465Y-123508349D01*
X152191742Y-123415492D01*
X152191740Y-123415491D01*
X152039472Y-123290528D01*
X151914509Y-123138260D01*
X151821652Y-122964537D01*
X151764469Y-122776030D01*
X151745162Y-122580000D01*
X151764469Y-122383970D01*
X151821652Y-122195463D01*
X151914509Y-122021740D01*
X152039472Y-121869472D01*
X152191740Y-121744509D01*
X152365463Y-121651652D01*
X152365465Y-121651651D01*
X152553966Y-121594470D01*
X152553967Y-121594470D01*
X152553970Y-121594469D01*
X152700876Y-121580000D01*
X152799124Y-121580000D01*
X152946030Y-121594469D01*
X152946030Y-121594469D01*
G37*
G36*
X164416105Y-119400000D02*
X164524085Y-119410635D01*
X164616450Y-119438654D01*
X164662634Y-119452663D01*
X164717036Y-119481742D01*
X164790320Y-119520913D01*
X164902238Y-119612762D01*
X164994087Y-119724680D01*
X165025856Y-119784116D01*
X165062337Y-119852366D01*
X165076346Y-119898550D01*
X165104365Y-119990915D01*
X165115000Y-120098895D01*
X165115000Y-120901105D01*
X165104365Y-121009085D01*
X165099376Y-121025530D01*
X165062337Y-121147634D01*
X165062336Y-121147635D01*
X164994088Y-121275319D01*
X164994086Y-121275321D01*
X164902238Y-121387238D01*
X164790321Y-121479086D01*
X164662633Y-121547337D01*
X164616449Y-121561346D01*
X164524084Y-121589365D01*
X164380000Y-121603556D01*
X164379999Y-121603556D01*
X164331972Y-121598826D01*
X164235915Y-121589365D01*
X164143550Y-121561346D01*
X164097366Y-121547337D01*
X164029116Y-121510856D01*
X163969680Y-121479087D01*
X163952662Y-121465121D01*
X163857762Y-121387238D01*
X163765914Y-121275321D01*
X163697663Y-121147633D01*
X163683654Y-121101449D01*
X163655635Y-121009084D01*
X163645000Y-120901104D01*
X163645000Y-120098895D01*
X163655635Y-119990915D01*
X163697664Y-119852367D01*
X163765914Y-119724680D01*
X163857763Y-119612762D01*
X163969681Y-119520913D01*
X164042965Y-119481742D01*
X164097367Y-119452663D01*
X164143551Y-119438654D01*
X164235916Y-119410635D01*
X164380000Y-119396444D01*
X164380001Y-119396444D01*
X164416105Y-119400000D01*
X164416105Y-119400000D01*
G37*
G36*
X143684084Y-119410635D02*
X143776449Y-119438654D01*
X143822633Y-119452663D01*
X143950321Y-119520914D01*
X144062238Y-119612762D01*
X144097283Y-119655465D01*
X144154087Y-119724680D01*
X144185856Y-119784116D01*
X144222337Y-119852366D01*
X144236346Y-119898550D01*
X144264365Y-119990915D01*
X144275000Y-120098895D01*
X144275000Y-120901105D01*
X144264365Y-121009085D01*
X144259376Y-121025530D01*
X144222337Y-121147634D01*
X144222336Y-121147635D01*
X144154087Y-121275320D01*
X144062238Y-121387238D01*
X143950320Y-121479087D01*
X143890884Y-121510856D01*
X143822634Y-121547337D01*
X143776450Y-121561346D01*
X143684085Y-121589365D01*
X143588028Y-121598826D01*
X143540001Y-121603556D01*
X143540000Y-121603556D01*
X143395916Y-121589365D01*
X143303551Y-121561346D01*
X143257367Y-121547337D01*
X143189117Y-121510856D01*
X143129681Y-121479087D01*
X143017763Y-121387238D01*
X142925914Y-121275320D01*
X142857664Y-121147633D01*
X142815635Y-121009085D01*
X142805000Y-120901105D01*
X142805000Y-120098896D01*
X142815635Y-119990916D01*
X142857663Y-119852368D01*
X142857663Y-119852367D01*
X142925914Y-119724679D01*
X143017762Y-119612762D01*
X143129679Y-119520914D01*
X143129678Y-119520914D01*
X143129680Y-119520913D01*
X143202964Y-119481742D01*
X143257366Y-119452663D01*
X143303550Y-119438654D01*
X143395915Y-119410635D01*
X143503895Y-119400000D01*
X143539999Y-119396444D01*
X143540000Y-119396444D01*
X143684084Y-119410635D01*
X143684084Y-119410635D01*
G37*
G36*
X166956105Y-119400000D02*
X167064085Y-119410635D01*
X167156450Y-119438654D01*
X167202634Y-119452663D01*
X167257036Y-119481742D01*
X167330320Y-119520913D01*
X167442238Y-119612762D01*
X167534087Y-119724680D01*
X167565856Y-119784116D01*
X167602337Y-119852366D01*
X167616346Y-119898550D01*
X167644365Y-119990915D01*
X167655000Y-120098895D01*
X167655000Y-120901105D01*
X167644365Y-121009085D01*
X167639376Y-121025530D01*
X167602337Y-121147634D01*
X167602336Y-121147635D01*
X167534088Y-121275319D01*
X167534086Y-121275321D01*
X167442238Y-121387238D01*
X167330321Y-121479086D01*
X167202633Y-121547337D01*
X167156449Y-121561346D01*
X167064084Y-121589365D01*
X166920000Y-121603556D01*
X166919999Y-121603556D01*
X166871972Y-121598826D01*
X166775915Y-121589365D01*
X166683550Y-121561346D01*
X166637366Y-121547337D01*
X166569116Y-121510856D01*
X166509680Y-121479087D01*
X166492662Y-121465121D01*
X166397762Y-121387238D01*
X166305914Y-121275321D01*
X166237663Y-121147633D01*
X166223654Y-121101449D01*
X166195635Y-121009084D01*
X166185000Y-120901104D01*
X166185000Y-120098895D01*
X166195635Y-119990915D01*
X166237664Y-119852367D01*
X166305914Y-119724680D01*
X166397763Y-119612762D01*
X166509681Y-119520913D01*
X166582965Y-119481742D01*
X166637367Y-119452663D01*
X166683551Y-119438654D01*
X166775916Y-119410635D01*
X166920000Y-119396444D01*
X166920001Y-119396444D01*
X166956105Y-119400000D01*
X166956105Y-119400000D01*
G37*
G36*
X169496105Y-119400000D02*
X169604085Y-119410635D01*
X169696450Y-119438654D01*
X169742634Y-119452663D01*
X169797036Y-119481742D01*
X169870320Y-119520913D01*
X169982238Y-119612762D01*
X170074087Y-119724680D01*
X170105856Y-119784116D01*
X170142337Y-119852366D01*
X170156346Y-119898550D01*
X170184365Y-119990915D01*
X170195000Y-120098895D01*
X170195000Y-120901105D01*
X170184365Y-121009085D01*
X170179376Y-121025530D01*
X170142337Y-121147634D01*
X170142336Y-121147635D01*
X170074088Y-121275319D01*
X170074086Y-121275321D01*
X169982238Y-121387238D01*
X169870321Y-121479086D01*
X169742633Y-121547337D01*
X169696449Y-121561346D01*
X169604084Y-121589365D01*
X169460000Y-121603556D01*
X169459999Y-121603556D01*
X169411972Y-121598826D01*
X169315915Y-121589365D01*
X169223550Y-121561346D01*
X169177366Y-121547337D01*
X169109116Y-121510856D01*
X169049680Y-121479087D01*
X169032662Y-121465121D01*
X168937762Y-121387238D01*
X168845914Y-121275321D01*
X168777663Y-121147633D01*
X168763654Y-121101449D01*
X168735635Y-121009084D01*
X168725000Y-120901104D01*
X168725000Y-120098895D01*
X168735635Y-119990915D01*
X168777664Y-119852367D01*
X168845914Y-119724680D01*
X168937763Y-119612762D01*
X169049681Y-119520913D01*
X169122965Y-119481742D01*
X169177367Y-119452663D01*
X169223551Y-119438654D01*
X169315916Y-119410635D01*
X169460000Y-119396444D01*
X169460001Y-119396444D01*
X169496105Y-119400000D01*
X169496105Y-119400000D01*
G37*
G36*
X146224084Y-119410635D02*
X146316449Y-119438654D01*
X146362633Y-119452663D01*
X146490321Y-119520914D01*
X146602238Y-119612762D01*
X146637283Y-119655465D01*
X146694087Y-119724680D01*
X146725856Y-119784116D01*
X146762337Y-119852366D01*
X146776346Y-119898550D01*
X146804365Y-119990915D01*
X146815000Y-120098895D01*
X146815000Y-120901105D01*
X146804365Y-121009085D01*
X146799376Y-121025530D01*
X146762337Y-121147634D01*
X146762336Y-121147635D01*
X146694087Y-121275320D01*
X146602238Y-121387238D01*
X146490320Y-121479087D01*
X146430884Y-121510856D01*
X146362634Y-121547337D01*
X146316450Y-121561346D01*
X146224085Y-121589365D01*
X146128028Y-121598826D01*
X146080001Y-121603556D01*
X146080000Y-121603556D01*
X145935916Y-121589365D01*
X145843551Y-121561346D01*
X145797367Y-121547337D01*
X145729117Y-121510856D01*
X145669681Y-121479087D01*
X145557763Y-121387238D01*
X145465914Y-121275320D01*
X145397664Y-121147633D01*
X145355635Y-121009085D01*
X145345000Y-120901105D01*
X145345000Y-120098896D01*
X145355635Y-119990916D01*
X145397663Y-119852368D01*
X145397663Y-119852367D01*
X145465914Y-119724679D01*
X145557762Y-119612762D01*
X145669679Y-119520914D01*
X145669678Y-119520914D01*
X145669680Y-119520913D01*
X145742964Y-119481742D01*
X145797366Y-119452663D01*
X145843550Y-119438654D01*
X145935915Y-119410635D01*
X146043895Y-119400000D01*
X146079999Y-119396444D01*
X146080000Y-119396444D01*
X146224084Y-119410635D01*
X146224084Y-119410635D01*
G37*
G36*
X148764084Y-119410635D02*
X148856449Y-119438654D01*
X148902633Y-119452663D01*
X149030321Y-119520914D01*
X149142238Y-119612762D01*
X149177283Y-119655465D01*
X149234087Y-119724680D01*
X149265856Y-119784116D01*
X149302337Y-119852366D01*
X149316346Y-119898550D01*
X149344365Y-119990915D01*
X149355000Y-120098895D01*
X149355000Y-120901105D01*
X149344365Y-121009085D01*
X149339376Y-121025530D01*
X149302337Y-121147634D01*
X149302336Y-121147635D01*
X149234087Y-121275320D01*
X149142238Y-121387238D01*
X149030320Y-121479087D01*
X148970884Y-121510856D01*
X148902634Y-121547337D01*
X148856450Y-121561346D01*
X148764085Y-121589365D01*
X148668028Y-121598826D01*
X148620001Y-121603556D01*
X148620000Y-121603556D01*
X148475916Y-121589365D01*
X148383551Y-121561346D01*
X148337367Y-121547337D01*
X148269117Y-121510856D01*
X148209681Y-121479087D01*
X148097763Y-121387238D01*
X148005914Y-121275320D01*
X147937664Y-121147633D01*
X147895635Y-121009085D01*
X147885000Y-120901105D01*
X147885000Y-120098896D01*
X147895635Y-119990916D01*
X147937663Y-119852368D01*
X147937663Y-119852367D01*
X148005914Y-119724679D01*
X148097762Y-119612762D01*
X148209679Y-119520914D01*
X148209678Y-119520914D01*
X148209680Y-119520913D01*
X148282964Y-119481742D01*
X148337366Y-119452663D01*
X148383550Y-119438654D01*
X148475915Y-119410635D01*
X148583895Y-119400000D01*
X148619999Y-119396444D01*
X148620000Y-119396444D01*
X148764084Y-119410635D01*
X148764084Y-119410635D01*
G37*
G36*
X141735000Y-121600000D02*
X140265000Y-121600000D01*
X140265000Y-119400000D01*
X141735000Y-119400000D01*
X141735000Y-121600000D01*
X141735000Y-121600000D01*
G37*
G36*
X172735000Y-121600000D02*
X171265000Y-121600000D01*
X171265000Y-119400000D01*
X172735000Y-119400000D01*
X172735000Y-121600000D01*
X172735000Y-121600000D01*
G37*
G36*
X160566030Y-119054469D02*
X160566033Y-119054470D01*
X160566034Y-119054470D01*
X160754535Y-119111651D01*
X160754537Y-119111652D01*
X160928260Y-119204509D01*
X161080528Y-119329472D01*
X161205491Y-119481740D01*
X161205492Y-119481742D01*
X161298349Y-119655465D01*
X161319345Y-119724680D01*
X161355531Y-119843970D01*
X161374838Y-120040000D01*
X161355531Y-120236030D01*
X161298348Y-120424537D01*
X161205491Y-120598260D01*
X161080528Y-120750528D01*
X160928260Y-120875491D01*
X160880340Y-120901105D01*
X160754535Y-120968349D01*
X160566034Y-121025530D01*
X160566033Y-121025530D01*
X160566030Y-121025531D01*
X160419124Y-121040000D01*
X160320876Y-121040000D01*
X160173970Y-121025531D01*
X160173967Y-121025530D01*
X160173966Y-121025530D01*
X159985465Y-120968349D01*
X159859660Y-120901105D01*
X159811740Y-120875491D01*
X159659472Y-120750528D01*
X159534509Y-120598260D01*
X159441652Y-120424537D01*
X159384469Y-120236030D01*
X159365162Y-120040000D01*
X159384469Y-119843970D01*
X159420655Y-119724680D01*
X159441651Y-119655465D01*
X159534508Y-119481742D01*
X159534509Y-119481740D01*
X159659472Y-119329472D01*
X159811740Y-119204509D01*
X159985463Y-119111652D01*
X159985465Y-119111651D01*
X160173966Y-119054470D01*
X160173967Y-119054470D01*
X160173970Y-119054469D01*
X160320876Y-119040000D01*
X160419124Y-119040000D01*
X160566030Y-119054469D01*
X160566030Y-119054469D01*
G37*
G36*
X152946030Y-119054469D02*
X152946033Y-119054470D01*
X152946034Y-119054470D01*
X153134535Y-119111651D01*
X153134537Y-119111652D01*
X153308260Y-119204509D01*
X153460528Y-119329472D01*
X153585491Y-119481740D01*
X153585492Y-119481742D01*
X153678349Y-119655465D01*
X153699345Y-119724680D01*
X153735531Y-119843970D01*
X153754838Y-120040000D01*
X153735531Y-120236030D01*
X153678348Y-120424537D01*
X153585491Y-120598260D01*
X153460528Y-120750528D01*
X153308260Y-120875491D01*
X153260340Y-120901105D01*
X153134535Y-120968349D01*
X152946034Y-121025530D01*
X152946033Y-121025530D01*
X152946030Y-121025531D01*
X152799124Y-121040000D01*
X152700876Y-121040000D01*
X152553970Y-121025531D01*
X152553967Y-121025530D01*
X152553966Y-121025530D01*
X152365465Y-120968349D01*
X152239660Y-120901105D01*
X152191740Y-120875491D01*
X152039472Y-120750528D01*
X151914509Y-120598260D01*
X151821652Y-120424537D01*
X151764469Y-120236030D01*
X151745162Y-120040000D01*
X151764469Y-119843970D01*
X151800655Y-119724680D01*
X151821651Y-119655465D01*
X151914508Y-119481742D01*
X151914509Y-119481740D01*
X152039472Y-119329472D01*
X152191740Y-119204509D01*
X152365463Y-119111652D01*
X152365465Y-119111651D01*
X152553966Y-119054470D01*
X152553967Y-119054470D01*
X152553970Y-119054469D01*
X152700876Y-119040000D01*
X152799124Y-119040000D01*
X152946030Y-119054469D01*
X152946030Y-119054469D01*
G37*
G36*
X160566030Y-116514469D02*
X160566033Y-116514470D01*
X160566034Y-116514470D01*
X160754535Y-116571651D01*
X160754537Y-116571652D01*
X160928260Y-116664509D01*
X161080528Y-116789472D01*
X161205491Y-116941740D01*
X161298348Y-117115463D01*
X161355531Y-117303970D01*
X161374838Y-117500000D01*
X161355531Y-117696030D01*
X161298348Y-117884537D01*
X161205491Y-118058260D01*
X161080528Y-118210528D01*
X160928260Y-118335491D01*
X160928258Y-118335492D01*
X160754535Y-118428349D01*
X160566034Y-118485530D01*
X160566033Y-118485530D01*
X160566030Y-118485531D01*
X160419124Y-118500000D01*
X160320876Y-118500000D01*
X160173970Y-118485531D01*
X160173967Y-118485530D01*
X160173966Y-118485530D01*
X159985465Y-118428349D01*
X159811742Y-118335492D01*
X159811740Y-118335491D01*
X159659472Y-118210528D01*
X159534509Y-118058260D01*
X159441652Y-117884537D01*
X159384469Y-117696030D01*
X159365162Y-117500000D01*
X159384469Y-117303970D01*
X159441652Y-117115463D01*
X159534509Y-116941740D01*
X159659472Y-116789472D01*
X159811740Y-116664509D01*
X159985463Y-116571652D01*
X159985465Y-116571651D01*
X160173966Y-116514470D01*
X160173967Y-116514470D01*
X160173970Y-116514469D01*
X160320876Y-116500000D01*
X160419124Y-116500000D01*
X160566030Y-116514469D01*
X160566030Y-116514469D01*
G37*
G36*
X153750000Y-118500000D02*
X151750000Y-118500000D01*
X151750000Y-116500000D01*
X153750000Y-116500000D01*
X153750000Y-118500000D01*
X153750000Y-118500000D01*
G37*
G36*
X143162000Y-116940000D02*
X141362000Y-116940000D01*
X141362000Y-115140000D01*
X143162000Y-115140000D01*
X143162000Y-116940000D01*
X143162000Y-116940000D01*
G37*
G36*
X142524521Y-112634586D02*
X142688309Y-112702429D01*
X142835720Y-112800926D01*
X142961074Y-112926280D01*
X143059571Y-113073691D01*
X143127414Y-113237479D01*
X143162000Y-113411356D01*
X143162000Y-113588644D01*
X143127414Y-113762521D01*
X143059571Y-113926309D01*
X142961074Y-114073720D01*
X142835720Y-114199074D01*
X142688309Y-114297571D01*
X142524521Y-114365414D01*
X142350644Y-114400000D01*
X142173356Y-114400000D01*
X141999479Y-114365414D01*
X141835691Y-114297571D01*
X141688280Y-114199074D01*
X141562926Y-114073720D01*
X141464429Y-113926309D01*
X141396586Y-113762521D01*
X141362000Y-113588644D01*
X141362000Y-113411356D01*
X141396586Y-113237479D01*
X141464429Y-113073691D01*
X141562926Y-112926280D01*
X141688280Y-112800926D01*
X141835691Y-112702429D01*
X141999479Y-112634586D01*
X142173356Y-112600000D01*
X142350644Y-112600000D01*
X142524521Y-112634586D01*
X142524521Y-112634586D01*
G37*
G36*
X142524521Y-110094586D02*
X142688309Y-110162429D01*
X142835720Y-110260926D01*
X142961074Y-110386280D01*
X143059571Y-110533691D01*
X143127414Y-110697479D01*
X143162000Y-110871356D01*
X143162000Y-111048644D01*
X143127414Y-111222521D01*
X143059571Y-111386309D01*
X142961074Y-111533720D01*
X142835720Y-111659074D01*
X142688309Y-111757571D01*
X142524521Y-111825414D01*
X142350644Y-111860000D01*
X142173356Y-111860000D01*
X141999479Y-111825414D01*
X141835691Y-111757571D01*
X141688280Y-111659074D01*
X141562926Y-111533720D01*
X141464429Y-111386309D01*
X141396586Y-111222521D01*
X141362000Y-111048644D01*
X141362000Y-110871356D01*
X141396586Y-110697479D01*
X141464429Y-110533691D01*
X141562926Y-110386280D01*
X141688280Y-110260926D01*
X141835691Y-110162429D01*
X141999479Y-110094586D01*
X142173356Y-110060000D01*
X142350644Y-110060000D01*
X142524521Y-110094586D01*
X142524521Y-110094586D01*
G37*
G36*
X143770000Y-97200000D02*
X137870000Y-97200000D01*
X137870000Y-92800000D01*
X143770000Y-92800000D01*
X143770000Y-97200000D01*
X143770000Y-97200000D01*
G37*
G36*
X173130000Y-97200000D02*
X167230000Y-97200000D01*
X167230000Y-92800000D01*
X173130000Y-92800000D01*
X173130000Y-97200000D01*
X173130000Y-97200000D01*
G37*
G36*
X160356030Y-81014469D02*
X160356033Y-81014470D01*
X160356034Y-81014470D01*
X160544535Y-81071651D01*
X160544537Y-81071652D01*
X160718260Y-81164509D01*
X160870528Y-81289472D01*
X160995491Y-81441740D01*
X161088348Y-81615463D01*
X161145531Y-81803970D01*
X161164838Y-82000000D01*
X161145531Y-82196030D01*
X161088348Y-82384537D01*
X160995491Y-82558260D01*
X160870528Y-82710528D01*
X160718260Y-82835491D01*
X160718258Y-82835492D01*
X160544535Y-82928349D01*
X160356034Y-82985530D01*
X160356033Y-82985530D01*
X160356030Y-82985531D01*
X160209124Y-83000000D01*
X160110876Y-83000000D01*
X159963970Y-82985531D01*
X159963967Y-82985530D01*
X159963966Y-82985530D01*
X159775465Y-82928349D01*
X159601742Y-82835492D01*
X159601740Y-82835491D01*
X159449472Y-82710528D01*
X159324509Y-82558260D01*
X159231652Y-82384537D01*
X159174469Y-82196030D01*
X159155162Y-82000000D01*
X159174469Y-81803970D01*
X159231652Y-81615463D01*
X159324509Y-81441740D01*
X159449472Y-81289472D01*
X159601740Y-81164509D01*
X159775463Y-81071652D01*
X159775465Y-81071651D01*
X159963966Y-81014470D01*
X159963967Y-81014470D01*
X159963970Y-81014469D01*
X160110876Y-81000000D01*
X160209124Y-81000000D01*
X160356030Y-81014469D01*
X160356030Y-81014469D01*
G37*
G36*
X150175770Y-81015372D02*
X150291689Y-81038429D01*
X150473678Y-81113811D01*
X150637463Y-81223249D01*
X150776751Y-81362537D01*
X150886189Y-81526322D01*
X150961571Y-81708311D01*
X151000000Y-81901509D01*
X151000000Y-82098491D01*
X150961571Y-82291689D01*
X150886189Y-82473678D01*
X150776751Y-82637463D01*
X150637463Y-82776751D01*
X150473678Y-82886189D01*
X150291689Y-82961571D01*
X150175770Y-82984628D01*
X150098493Y-83000000D01*
X149901507Y-83000000D01*
X149824230Y-82984628D01*
X149708311Y-82961571D01*
X149526322Y-82886189D01*
X149362537Y-82776751D01*
X149223249Y-82637463D01*
X149113811Y-82473678D01*
X149038429Y-82291689D01*
X149000000Y-82098491D01*
X149000000Y-81901509D01*
X149038429Y-81708311D01*
X149113811Y-81526322D01*
X149223249Y-81362537D01*
X149362537Y-81223249D01*
X149526322Y-81113811D01*
X149708311Y-81038429D01*
X149824230Y-81015372D01*
X149901507Y-81000000D01*
X150098493Y-81000000D01*
X150175770Y-81015372D01*
X150175770Y-81015372D01*
G37*
G36*
X158600026Y-75596115D02*
X158818412Y-75686573D01*
X159014958Y-75817901D01*
X159182099Y-75985042D01*
X159313427Y-76181588D01*
X159403885Y-76399974D01*
X159450000Y-76631809D01*
X159450000Y-76868191D01*
X159403885Y-77100026D01*
X159313427Y-77318412D01*
X159182099Y-77514958D01*
X159014958Y-77682099D01*
X158818412Y-77813427D01*
X158600026Y-77903885D01*
X158368191Y-77950000D01*
X158131809Y-77950000D01*
X157899974Y-77903885D01*
X157681588Y-77813427D01*
X157485042Y-77682099D01*
X157317901Y-77514958D01*
X157186573Y-77318412D01*
X157096115Y-77100026D01*
X157050000Y-76868191D01*
X157050000Y-76631809D01*
X157096115Y-76399974D01*
X157186573Y-76181588D01*
X157317901Y-75985042D01*
X157485042Y-75817901D01*
X157681588Y-75686573D01*
X157899974Y-75596115D01*
X158131809Y-75550000D01*
X158368191Y-75550000D01*
X158600026Y-75596115D01*
X158600026Y-75596115D01*
G37*
G36*
X152100026Y-75596115D02*
X152318412Y-75686573D01*
X152514958Y-75817901D01*
X152682099Y-75985042D01*
X152813427Y-76181588D01*
X152903885Y-76399974D01*
X152950000Y-76631809D01*
X152950000Y-76868191D01*
X152903885Y-77100026D01*
X152813427Y-77318412D01*
X152682099Y-77514958D01*
X152514958Y-77682099D01*
X152318412Y-77813427D01*
X152100026Y-77903885D01*
X151868191Y-77950000D01*
X151631809Y-77950000D01*
X151399974Y-77903885D01*
X151181588Y-77813427D01*
X150985042Y-77682099D01*
X150817901Y-77514958D01*
X150686573Y-77318412D01*
X150596115Y-77100026D01*
X150550000Y-76868191D01*
X150550000Y-76631809D01*
X150596115Y-76399974D01*
X150686573Y-76181588D01*
X150817901Y-75985042D01*
X150985042Y-75817901D01*
X151181588Y-75686573D01*
X151399974Y-75596115D01*
X151631809Y-75550000D01*
X151868191Y-75550000D01*
X152100026Y-75596115D01*
X152100026Y-75596115D01*
G37*
G36*
X158600026Y-71096115D02*
X158818412Y-71186573D01*
X159014958Y-71317901D01*
X159182099Y-71485042D01*
X159313427Y-71681588D01*
X159403885Y-71899974D01*
X159450000Y-72131809D01*
X159450000Y-72368191D01*
X159403885Y-72600026D01*
X159313427Y-72818412D01*
X159182099Y-73014958D01*
X159014958Y-73182099D01*
X158818412Y-73313427D01*
X158600026Y-73403885D01*
X158368191Y-73450000D01*
X158131809Y-73450000D01*
X157899974Y-73403885D01*
X157681588Y-73313427D01*
X157485042Y-73182099D01*
X157317901Y-73014958D01*
X157186573Y-72818412D01*
X157096115Y-72600026D01*
X157050000Y-72368191D01*
X157050000Y-72131809D01*
X157096115Y-71899974D01*
X157186573Y-71681588D01*
X157317901Y-71485042D01*
X157485042Y-71317901D01*
X157681588Y-71186573D01*
X157899974Y-71096115D01*
X158131809Y-71050000D01*
X158368191Y-71050000D01*
X158600026Y-71096115D01*
X158600026Y-71096115D01*
G37*
G36*
X152100026Y-71096115D02*
X152318412Y-71186573D01*
X152514958Y-71317901D01*
X152682099Y-71485042D01*
X152813427Y-71681588D01*
X152903885Y-71899974D01*
X152950000Y-72131809D01*
X152950000Y-72368191D01*
X152903885Y-72600026D01*
X152813427Y-72818412D01*
X152682099Y-73014958D01*
X152514958Y-73182099D01*
X152318412Y-73313427D01*
X152100026Y-73403885D01*
X151868191Y-73450000D01*
X151631809Y-73450000D01*
X151399974Y-73403885D01*
X151181588Y-73313427D01*
X150985042Y-73182099D01*
X150817901Y-73014958D01*
X150686573Y-72818412D01*
X150596115Y-72600026D01*
X150550000Y-72368191D01*
X150550000Y-72131809D01*
X150596115Y-71899974D01*
X150686573Y-71681588D01*
X150817901Y-71485042D01*
X150985042Y-71317901D01*
X151181588Y-71186573D01*
X151399974Y-71096115D01*
X151631809Y-71050000D01*
X151868191Y-71050000D01*
X152100026Y-71096115D01*
X152100026Y-71096115D01*
G37*
M02*
