M48
;DRILL file {KiCad 5.0.2-bee76a0~70~ubuntu18.04.1} date dom 10 mar 2019 18:19:20 CET
;FORMAT={-:-/ absolute / metric / decimal}
FMAT,2
METRIC,TZ
T1C0.400
T2C0.800
T3C0.900
T4C1.100
%
G90
G05
T1
X142.Y-122.75
X145.75Y-84.
X145.75Y-113.5
X146.5Y-103.25
X147.25Y-118.75
X148.582Y-98.75
X148.75Y-113.5
X149.25Y-83.75
X150.75Y-100.5
X152.5Y-103.
X162.Y-126.75
T2
X150.Y-82.
X160.16Y-82.
X152.75Y-117.5
X152.75Y-120.04
X152.75Y-122.58
X152.75Y-125.12
X160.37Y-117.5
X160.37Y-120.04
X160.37Y-122.58
X160.37Y-125.12
T3
X141.Y-120.5
X143.54Y-120.5
X146.08Y-120.5
X148.62Y-120.5
X164.38Y-120.5
X166.92Y-120.5
X169.46Y-120.5
X172.Y-120.5
X142.262Y-110.96
X142.262Y-113.5
X142.262Y-116.04
T4
X151.75Y-72.25
X151.75Y-76.75
X158.25Y-72.25
X158.25Y-76.75
T0
M30
