G04 #@! TF.GenerationSoftware,KiCad,Pcbnew,5.0.2-bee76a0~70~ubuntu18.04.1*
G04 #@! TF.CreationDate,2019-03-10T18:19:14+01:00*
G04 #@! TF.ProjectId,robotac19,726f626f-7461-4633-9139-2e6b69636164,rev?*
G04 #@! TF.SameCoordinates,Original*
G04 #@! TF.FileFunction,Profile,NP*
%FSLAX46Y46*%
G04 Gerber Fmt 4.6, Leading zero omitted, Abs format (unit mm)*
G04 Created by KiCad (PCBNEW 5.0.2-bee76a0~70~ubuntu18.04.1) date dom 10 mar 2019 18:19:14 CET*
%MOMM*%
%LPD*%
G01*
G04 APERTURE LIST*
G04 #@! TA.AperFunction,NonConductor*
%ADD10C,0.100000*%
G04 #@! TD*
G04 APERTURE END LIST*
D10*
G04 #@! TO.C,*
X165506278Y-70528689D02*
X165506519Y-70528728D01*
X165506278Y-70528689D02*
X165506278Y-70528689D01*
X165616917Y-70569860D02*
X165506278Y-70528689D01*
X165718215Y-70613755D02*
X165616917Y-70569860D01*
X165891943Y-70694130D02*
X165718215Y-70613755D01*
X165963963Y-70722829D02*
X165891943Y-70694130D01*
X166025804Y-70738678D02*
X165963963Y-70722829D01*
X166052844Y-70740530D02*
X166025804Y-70738678D01*
X166077265Y-70737752D02*
X166052844Y-70740530D01*
X166099040Y-70729814D02*
X166077265Y-70737752D01*
X166118143Y-70716241D02*
X166099040Y-70729814D01*
X166131134Y-70707086D02*
X166118143Y-70716241D01*
X166142115Y-70694148D02*
X166131134Y-70707086D01*
X166151137Y-70675760D02*
X166142115Y-70694148D01*
X166158201Y-70650280D02*
X166151137Y-70675760D01*
X166166536Y-70571347D02*
X166158201Y-70650280D01*
X166167329Y-70444075D02*
X166166536Y-70571347D01*
X166160635Y-70255191D02*
X166167329Y-70444075D01*
X166146639Y-69991423D02*
X166160635Y-70255191D01*
X166097429Y-69186134D02*
X166146639Y-69991423D01*
X166072373Y-68706347D02*
X166097429Y-69186134D01*
X166054461Y-68244776D02*
X166072373Y-68706347D01*
X166035437Y-67584008D02*
X166054461Y-68244776D01*
X166033850Y-67361515D02*
X166035437Y-67584008D01*
X166025145Y-67245445D02*
X166033850Y-67361515D01*
X166002576Y-67116852D02*
X166025145Y-67245445D01*
X165993368Y-67095236D02*
X166002576Y-67116852D01*
X165977626Y-67074069D02*
X165993368Y-67095236D01*
X165929212Y-67032961D02*
X165977626Y-67074069D01*
X165862680Y-66993331D02*
X165929212Y-67032961D01*
X165783390Y-66954972D02*
X165862680Y-66993331D01*
X165607953Y-66881217D02*
X165783390Y-66954972D01*
X165445750Y-66810002D02*
X165607953Y-66881217D01*
X165231427Y-66704758D02*
X165445750Y-66810002D01*
X164950942Y-66571668D02*
X165231427Y-66704758D01*
X164630942Y-66426594D02*
X164950942Y-66571668D01*
X164298072Y-66285396D02*
X164630942Y-66426594D01*
X164135136Y-66221206D02*
X164298072Y-66285396D01*
X163978974Y-66163934D02*
X164135136Y-66221206D01*
X163832919Y-66115560D02*
X163978974Y-66163934D01*
X163700296Y-66078066D02*
X163832919Y-66115560D01*
X163584443Y-66053433D02*
X163700296Y-66078066D01*
X163488682Y-66043644D02*
X163584443Y-66053433D01*
X163449381Y-66044967D02*
X163488682Y-66043644D01*
X163416353Y-66050708D02*
X163449381Y-66044967D01*
X163390001Y-66061159D02*
X163416353Y-66050708D01*
X163370766Y-66076558D02*
X163390001Y-66061159D01*
X163353779Y-66109959D02*
X163370766Y-66076558D01*
X163340100Y-66157470D02*
X163353779Y-66109959D01*
X163329438Y-66218682D02*
X163340100Y-66157470D01*
X163321527Y-66293188D02*
X163329438Y-66218682D01*
X163312901Y-66480458D02*
X163321527Y-66293188D01*
X163312107Y-66716014D02*
X163312901Y-66480458D01*
X163325204Y-67318965D02*
X163312107Y-66716014D01*
X163343699Y-68075972D02*
X163325204Y-67318965D01*
X163349731Y-68656431D02*
X163343699Y-68075972D01*
X163355949Y-69289002D02*
X163349731Y-68656431D01*
X163362325Y-69574037D02*
X163355949Y-69289002D01*
X163372618Y-69811152D02*
X163362325Y-69574037D01*
X163388096Y-69980025D02*
X163372618Y-69811152D01*
X163398176Y-70032526D02*
X163388096Y-69980025D01*
X163410030Y-70060347D02*
X163398176Y-70032526D01*
X163457139Y-70083154D02*
X163410030Y-70060347D01*
X163503335Y-70095219D02*
X163457139Y-70083154D01*
X163547724Y-70100167D02*
X163503335Y-70095219D01*
X163589407Y-70101754D02*
X163547724Y-70100167D01*
X163708324Y-70112576D02*
X163589407Y-70101754D01*
X163888158Y-70139775D02*
X163708324Y-70112576D01*
X164115697Y-70181240D02*
X163888158Y-70139775D01*
X164377730Y-70234861D02*
X164115697Y-70181240D01*
X164661041Y-70298527D02*
X164377730Y-70234861D01*
X164952416Y-70370134D02*
X164661041Y-70298527D01*
X165238647Y-70447570D02*
X164952416Y-70370134D01*
X165506519Y-70528728D02*
X165238647Y-70447570D01*
X152070726Y-67208078D02*
X152070647Y-67208054D01*
X152070724Y-67208078D02*
X152070726Y-67208078D01*
X152071253Y-67490851D02*
X152070724Y-67208078D01*
X152064030Y-67813368D02*
X152071253Y-67490851D01*
X152046779Y-68485970D02*
X152064030Y-67813368D01*
X152047038Y-68790220D02*
X152046779Y-68485970D01*
X152051642Y-68924308D02*
X152047038Y-68790220D01*
X152060082Y-69042550D02*
X152051642Y-68924308D01*
X152072994Y-69142081D02*
X152060082Y-69042550D01*
X152091038Y-69220038D02*
X152072994Y-69142081D01*
X152102177Y-69250031D02*
X152091038Y-69220038D01*
X152114851Y-69273553D02*
X152102177Y-69250031D01*
X152129112Y-69290248D02*
X152114851Y-69273553D01*
X152145066Y-69299773D02*
X152129112Y-69290248D01*
X152164434Y-69311071D02*
X152145066Y-69299773D01*
X152193205Y-69320887D02*
X152164434Y-69311071D01*
X152277149Y-69336391D02*
X152193205Y-69320887D01*
X152393206Y-69346869D02*
X152277149Y-69336391D01*
X152537666Y-69352901D02*
X152393206Y-69346869D01*
X152896983Y-69353960D02*
X152537666Y-69352901D01*
X153325460Y-69344223D02*
X152896983Y-69353960D01*
X154271340Y-69310862D02*
X153325460Y-69344223D01*
X154729458Y-69296495D02*
X154271340Y-69310862D01*
X155138176Y-69289854D02*
X154729458Y-69296495D01*
X155549725Y-69295622D02*
X155138176Y-69289854D01*
X156014444Y-69311206D02*
X155549725Y-69295622D01*
X156499851Y-69330282D02*
X156014444Y-69311206D01*
X156973461Y-69346554D02*
X156499851Y-69330282D01*
X157402790Y-69353698D02*
X156973461Y-69346554D01*
X157590699Y-69351846D02*
X157402790Y-69353698D01*
X157755357Y-69345363D02*
X157590699Y-69351846D01*
X157892703Y-69333457D02*
X157755357Y-69345363D01*
X157998676Y-69315307D02*
X157892703Y-69333457D01*
X158038631Y-69303665D02*
X157998676Y-69315307D01*
X158069219Y-69290171D02*
X158038631Y-69303665D01*
X158089936Y-69274720D02*
X158069219Y-69290171D01*
X158100282Y-69257204D02*
X158089936Y-69274720D01*
X158110574Y-69233842D02*
X158100282Y-69257204D01*
X158118723Y-69204108D02*
X158110574Y-69233842D01*
X158129359Y-69129868D02*
X158118723Y-69204108D01*
X158133831Y-69043191D02*
X158129359Y-69129868D01*
X158133804Y-68952767D02*
X158133831Y-69043191D01*
X158126819Y-68795480D02*
X158133804Y-68952767D01*
X158121554Y-68727588D02*
X158126819Y-68795480D01*
X158107108Y-67744565D02*
X158121554Y-68727588D01*
X158095545Y-67159095D02*
X158107108Y-67744565D01*
X158077845Y-66571064D02*
X158095545Y-67159095D01*
X158051545Y-66025531D02*
X158077845Y-66571064D01*
X158034400Y-65782781D02*
X158051545Y-66025531D01*
X158014213Y-65567550D02*
X158034400Y-65782781D01*
X157990665Y-65385472D02*
X158014213Y-65567550D01*
X157963434Y-65242181D02*
X157990665Y-65385472D01*
X157948352Y-65186841D02*
X157963434Y-65242181D01*
X157932239Y-65143307D02*
X157948352Y-65186841D01*
X157915041Y-65112287D02*
X157932239Y-65143307D01*
X157896732Y-65094480D02*
X157915041Y-65112287D01*
X157881466Y-65081595D02*
X157896732Y-65094480D01*
X157852232Y-65069054D02*
X157881466Y-65081595D01*
X157754598Y-65045083D02*
X157852232Y-65069054D01*
X157609236Y-65022752D02*
X157754598Y-65045083D01*
X157421543Y-65002273D02*
X157609236Y-65022752D01*
X157196915Y-64983779D02*
X157421543Y-65002273D01*
X156940750Y-64967454D02*
X157196915Y-64983779D01*
X156355397Y-64942054D02*
X156940750Y-64967454D01*
X155708655Y-64927475D02*
X156355397Y-64942054D01*
X155043698Y-64925094D02*
X155708655Y-64927475D01*
X154403706Y-64936339D02*
X155043698Y-64925094D01*
X154106560Y-64947504D02*
X154403706Y-64936339D01*
X153831846Y-64962612D02*
X154106560Y-64947504D01*
X153359020Y-64986795D02*
X153831846Y-64962612D01*
X152947042Y-64999812D02*
X153359020Y-64986795D01*
X152632267Y-65008702D02*
X152947042Y-64999812D01*
X152522693Y-65013809D02*
X152632267Y-65008702D01*
X152451052Y-65020529D02*
X152522693Y-65013809D01*
X152366226Y-65013650D02*
X152451052Y-65020529D01*
X152326380Y-65015767D02*
X152366226Y-65013650D01*
X152287986Y-65022672D02*
X152326380Y-65015767D01*
X152250855Y-65035319D02*
X152287986Y-65022672D01*
X152214797Y-65054555D02*
X152250855Y-65035319D01*
X152179618Y-65081288D02*
X152214797Y-65054555D01*
X152145127Y-65116385D02*
X152179618Y-65081288D01*
X152123802Y-65130302D02*
X152145127Y-65116385D01*
X152104884Y-65150755D02*
X152123802Y-65130302D01*
X152088268Y-65177417D02*
X152104884Y-65150755D01*
X152073822Y-65209968D02*
X152088268Y-65177417D01*
X152050988Y-65291452D02*
X152073822Y-65209968D01*
X152035431Y-65392634D02*
X152050988Y-65291452D01*
X152026197Y-65510945D02*
X152035431Y-65392634D01*
X152022334Y-65643816D02*
X152026197Y-65510945D01*
X152026938Y-65942959D02*
X152022334Y-65643816D01*
X152041675Y-66269511D02*
X152026938Y-65942959D01*
X152058952Y-66602915D02*
X152041675Y-66269511D01*
X152071176Y-66922614D02*
X152058952Y-66602915D01*
X152073028Y-67070902D02*
X152071176Y-66922614D01*
X152070647Y-67208054D02*
X152073028Y-67070902D01*
X144316882Y-70353145D02*
X144316916Y-70353148D01*
X144316884Y-70353145D02*
X144316882Y-70353145D01*
X144342866Y-70613501D02*
X144316884Y-70353145D01*
X144358874Y-70703761D02*
X144342866Y-70613501D01*
X144380226Y-70771169D02*
X144358874Y-70703761D01*
X144393693Y-70797177D02*
X144380226Y-70771169D01*
X144409436Y-70818529D02*
X144393693Y-70797177D01*
X144427771Y-70835595D02*
X144409436Y-70818529D01*
X144449017Y-70848718D02*
X144427771Y-70835595D01*
X144473491Y-70858243D02*
X144449017Y-70848718D01*
X144501492Y-70864514D02*
X144473491Y-70858243D01*
X144569352Y-70868747D02*
X144501492Y-70864514D01*
X144678848Y-70861180D02*
X144569352Y-70868747D01*
X144810012Y-70841098D02*
X144678848Y-70861180D01*
X144959134Y-70810240D02*
X144810012Y-70841098D01*
X145122501Y-70770335D02*
X144959134Y-70810240D01*
X145477135Y-70670317D02*
X145122501Y-70770335D01*
X145844226Y-70554917D02*
X145477135Y-70670317D01*
X146194085Y-70438008D02*
X145844226Y-70554917D01*
X146497025Y-70333463D02*
X146194085Y-70438008D01*
X146723360Y-70255154D02*
X146497025Y-70333463D01*
X146843399Y-70216962D02*
X146723360Y-70255154D01*
X146873577Y-70204129D02*
X146843399Y-70216962D01*
X146901514Y-70186640D02*
X146873577Y-70204129D01*
X146926994Y-70165183D02*
X146901514Y-70186640D01*
X146949774Y-70140418D02*
X146926994Y-70165183D01*
X146986340Y-70083797D02*
X146949774Y-70140418D01*
X147009411Y-70022287D02*
X146986340Y-70083797D01*
X146963160Y-68683958D02*
X147009411Y-70022287D01*
X146957021Y-68390453D02*
X146963160Y-68683958D01*
X146957815Y-68104878D02*
X146957021Y-68390453D01*
X146963636Y-67831989D02*
X146957815Y-68104878D01*
X146972605Y-67576537D02*
X146963636Y-67831989D01*
X146992475Y-67136966D02*
X146972605Y-67576537D01*
X147002397Y-66824199D02*
X146992475Y-67136966D01*
X147025919Y-66672588D02*
X147002397Y-66824199D01*
X147032269Y-66589262D02*
X147025919Y-66672588D01*
X147031210Y-66502717D02*
X147032269Y-66589262D01*
X147019780Y-66414293D02*
X147031210Y-66502717D01*
X146995148Y-66325335D02*
X147019780Y-66414293D01*
X146976971Y-66281076D02*
X146995148Y-66325335D01*
X146954428Y-66237187D02*
X146976971Y-66281076D01*
X146927139Y-66193837D02*
X146954428Y-66237187D01*
X146894752Y-66151194D02*
X146927139Y-66193837D01*
X146791191Y-66136219D02*
X146894752Y-66151194D01*
X146698111Y-66137013D02*
X146791191Y-66136219D01*
X146613240Y-66150692D02*
X146698111Y-66137013D01*
X146534307Y-66174504D02*
X146613240Y-66150692D01*
X146459044Y-66205654D02*
X146534307Y-66174504D01*
X146385175Y-66241341D02*
X146459044Y-66205654D01*
X146232547Y-66315138D02*
X146385175Y-66241341D01*
X145732315Y-66515348D02*
X146232547Y-66315138D01*
X145498577Y-66613940D02*
X145732315Y-66515348D01*
X145277052Y-66711825D02*
X145498577Y-66613940D01*
X145068711Y-66809245D02*
X145277052Y-66711825D01*
X144874520Y-66906426D02*
X145068711Y-66809245D01*
X144695455Y-67003602D02*
X144874520Y-66906426D01*
X144532485Y-67101006D02*
X144695455Y-67003602D01*
X144476253Y-67139125D02*
X144532485Y-67101006D01*
X144428504Y-67180453D02*
X144476253Y-67139125D01*
X144388409Y-67224156D02*
X144428504Y-67180453D01*
X144355138Y-67269408D02*
X144388409Y-67224156D01*
X144327862Y-67315380D02*
X144355138Y-67269408D01*
X144305743Y-67361240D02*
X144327862Y-67315380D01*
X144273710Y-67449306D02*
X144305743Y-67361240D01*
X144273710Y-68596048D02*
X144273710Y-67449306D01*
X144277123Y-69120163D02*
X144273710Y-68596048D01*
X144286410Y-69626155D02*
X144277123Y-69120163D01*
X144300142Y-70056368D02*
X144286410Y-69626155D01*
X144316916Y-70353148D02*
X144300142Y-70056368D01*
X154794760Y-36265213D02*
X155008699Y-32672196D01*
X154643241Y-36267806D02*
X154794760Y-36265213D01*
X154491603Y-36270399D02*
X154643241Y-36267806D01*
X154340224Y-36272966D02*
X154491603Y-36270399D01*
X154188642Y-36275559D02*
X154340224Y-36272966D01*
X154037149Y-36278152D02*
X154188642Y-36275559D01*
X153788486Y-36305850D02*
X154037149Y-36278152D01*
X153539630Y-36333570D02*
X153788486Y-36305850D01*
X153291202Y-36361242D02*
X153539630Y-36333570D01*
X153042432Y-36388951D02*
X153291202Y-36361242D01*
X152793814Y-36416645D02*
X153042432Y-36388951D01*
X152650362Y-36436488D02*
X152793814Y-36416645D01*
X152506799Y-36456348D02*
X152650362Y-36436488D01*
X152363483Y-36476173D02*
X152506799Y-36456348D01*
X152219970Y-36496025D02*
X152363483Y-36476173D01*
X152076545Y-36515866D02*
X152219970Y-36496025D01*
X151898782Y-36547388D02*
X152076545Y-36515866D01*
X151720878Y-36578935D02*
X151898782Y-36547388D01*
X151543282Y-36610427D02*
X151720878Y-36578935D01*
X151365442Y-36641962D02*
X151543282Y-36610427D01*
X151187711Y-36673479D02*
X151365442Y-36641962D01*
X151053562Y-36717713D02*
X151187711Y-36673479D01*
X150919307Y-36761982D02*
X151053562Y-36717713D01*
X150785283Y-36806175D02*
X150919307Y-36761982D01*
X150651075Y-36850428D02*
X150785283Y-36806175D01*
X150516950Y-36894654D02*
X150651075Y-36850428D01*
X150377012Y-36946330D02*
X150516950Y-36894654D01*
X150236965Y-36998046D02*
X150377012Y-36946330D01*
X150097160Y-37049673D02*
X150236965Y-36998046D01*
X149957163Y-37101370D02*
X150097160Y-37049673D01*
X149817252Y-37153036D02*
X149957163Y-37101370D01*
X149662328Y-37213807D02*
X149817252Y-37153036D01*
X149507284Y-37274625D02*
X149662328Y-37213807D01*
X149352506Y-37335338D02*
X149507284Y-37274625D01*
X149197518Y-37396134D02*
X149352506Y-37335338D01*
X149042623Y-37456894D02*
X149197518Y-37396134D01*
X149032860Y-37464019D02*
X149042623Y-37456894D01*
X149022726Y-37471409D02*
X149032860Y-37464019D01*
X149012910Y-37478571D02*
X149022726Y-37471409D01*
X149003068Y-37485749D02*
X149012910Y-37478571D01*
X148993040Y-37493070D02*
X149003068Y-37485749D01*
X148985420Y-37502331D02*
X148993040Y-37493070D01*
X148977509Y-37511935D02*
X148985420Y-37502331D01*
X148969836Y-37521246D02*
X148977509Y-37511935D01*
X148962137Y-37530578D02*
X148969836Y-37521246D01*
X148954305Y-37540095D02*
X148962137Y-37530578D01*
X148944489Y-37564008D02*
X148954305Y-37540095D01*
X148934726Y-37587781D02*
X148944489Y-37564008D01*
X148925069Y-37611276D02*
X148934726Y-37587781D01*
X148915411Y-37634771D02*
X148925069Y-37611276D01*
X148905701Y-37658435D02*
X148915411Y-37634771D01*
X148902500Y-37686791D02*
X148905701Y-37658435D01*
X148899298Y-37715028D02*
X148902500Y-37686791D01*
X148896070Y-37743603D02*
X148899298Y-37715028D01*
X148892895Y-37771715D02*
X148896070Y-37743603D01*
X148889694Y-37800028D02*
X148892895Y-37771715D01*
X148891546Y-37830350D02*
X148889694Y-37800028D01*
X148893398Y-37860546D02*
X148891546Y-37830350D01*
X148895250Y-37891102D02*
X148893398Y-37860546D01*
X148897102Y-37921164D02*
X148895250Y-37891102D01*
X148898954Y-37951440D02*
X148897102Y-37921164D01*
X148904431Y-37981348D02*
X148898954Y-37951440D01*
X148909882Y-38011132D02*
X148904431Y-37981348D01*
X148915411Y-38041271D02*
X148909882Y-38011132D01*
X148920862Y-38070922D02*
X148915411Y-38041271D01*
X148926339Y-38100785D02*
X148920862Y-38070922D01*
X148933985Y-38127589D02*
X148926339Y-38100785D01*
X148941605Y-38154280D02*
X148933985Y-38127589D01*
X148949331Y-38181291D02*
X148941605Y-38154280D01*
X148956925Y-38207864D02*
X148949331Y-38181291D01*
X148964571Y-38234627D02*
X148956925Y-38207864D01*
X148980393Y-38269095D02*
X148964571Y-38234627D01*
X148996162Y-38303419D02*
X148980393Y-38269095D01*
X149011958Y-38337781D02*
X148996162Y-38303419D01*
X149027806Y-38372300D02*
X149011958Y-38337781D01*
X149043602Y-38406710D02*
X149027806Y-38372300D01*
X149182921Y-38565457D02*
X149043602Y-38406710D01*
X149322346Y-38724329D02*
X149182921Y-38565457D01*
X149461533Y-38882926D02*
X149322346Y-38724329D01*
X149600910Y-39041740D02*
X149461533Y-38882926D01*
X149740202Y-39200460D02*
X149600910Y-39041740D01*
X149879003Y-39364168D02*
X149740202Y-39200460D01*
X150017912Y-39528004D02*
X149879003Y-39364168D01*
X150156580Y-39691558D02*
X150017912Y-39528004D01*
X150295438Y-39855335D02*
X150156580Y-39691558D01*
X150434215Y-40019014D02*
X150295438Y-39855335D01*
X150499877Y-40094427D02*
X150434215Y-40019014D01*
X150565237Y-40169493D02*
X150499877Y-40094427D01*
X150630636Y-40244604D02*
X150565237Y-40169493D01*
X150695917Y-40319579D02*
X150630636Y-40244604D01*
X150761327Y-40394702D02*
X150695917Y-40319579D01*
X150822293Y-40460740D02*
X150761327Y-40394702D01*
X150883004Y-40526500D02*
X150822293Y-40460740D01*
X150943784Y-40592336D02*
X150883004Y-40526500D01*
X151004839Y-40658471D02*
X150943784Y-40592336D01*
X151065701Y-40724398D02*
X151004839Y-40658471D01*
X151120457Y-40777808D02*
X151065701Y-40724398D01*
X151174982Y-40830993D02*
X151120457Y-40777808D01*
X151229571Y-40884240D02*
X151174982Y-40830993D01*
X151284406Y-40937728D02*
X151229571Y-40884240D01*
X151339069Y-40991048D02*
X151284406Y-40937728D01*
X151386165Y-41028311D02*
X151339069Y-40991048D01*
X151433065Y-41065417D02*
X151386165Y-41028311D01*
X151480018Y-41102566D02*
X151433065Y-41065417D01*
X151527182Y-41139883D02*
X151480018Y-41102566D01*
X151574199Y-41177083D02*
X151527182Y-41139883D01*
X151598726Y-41187317D02*
X151574199Y-41177083D01*
X151623120Y-41197490D02*
X151598726Y-41187317D01*
X151647224Y-41207545D02*
X151623120Y-41197490D01*
X151671327Y-41217599D02*
X151647224Y-41207545D01*
X151695616Y-41227724D02*
X151671327Y-41217599D01*
X151721625Y-41235453D02*
X151695616Y-41227724D01*
X151747474Y-41243134D02*
X151721625Y-41235453D01*
X151773033Y-41250725D02*
X151747474Y-41243134D01*
X151798592Y-41258315D02*
X151773033Y-41250725D01*
X151824336Y-41265962D02*
X151798592Y-41258315D01*
X151880229Y-41274450D02*
X151824336Y-41265962D01*
X151935889Y-41282903D02*
X151880229Y-41274450D01*
X151991613Y-41291365D02*
X151935889Y-41282903D01*
X152047589Y-41299866D02*
X151991613Y-41291365D01*
X152103389Y-41308338D02*
X152047589Y-41299866D01*
X152164770Y-41309687D02*
X152103389Y-41308338D01*
X152225891Y-41311036D02*
X152164770Y-41309687D01*
X152287084Y-41312386D02*
X152225891Y-41311036D01*
X152348552Y-41313735D02*
X152287084Y-41312386D01*
X152409830Y-41315084D02*
X152348552Y-41313735D01*
X152476695Y-41311359D02*
X152409830Y-41315084D01*
X152543280Y-41307650D02*
X152476695Y-41311359D01*
X152609942Y-41303935D02*
X152543280Y-41307650D01*
X152676905Y-41300204D02*
X152609942Y-41303935D01*
X152743660Y-41296484D02*
X152676905Y-41300204D01*
X152892176Y-41282533D02*
X152743660Y-41296484D01*
X153040808Y-41268571D02*
X152892176Y-41282533D01*
X153189184Y-41254632D02*
X153040808Y-41268571D01*
X153337760Y-41240673D02*
X153189184Y-41254632D01*
X153486250Y-41226724D02*
X153337760Y-41240673D01*
X153567710Y-41220618D02*
X153486250Y-41226724D01*
X153648828Y-41214538D02*
X153567710Y-41220618D01*
X153730040Y-41208449D02*
X153648828Y-41214538D01*
X153811621Y-41202332D02*
X153730040Y-41208449D01*
X153892944Y-41196236D02*
X153811621Y-41202332D01*
X153978751Y-41193643D02*
X153892944Y-41196236D01*
X154064198Y-41191077D02*
X153978751Y-41193643D01*
X154149745Y-41188484D02*
X154064198Y-41191077D01*
X154235677Y-41185891D02*
X154149745Y-41188484D01*
X154321341Y-41183298D02*
X154235677Y-41185891D01*
X154407148Y-41181129D02*
X154321341Y-41183298D01*
X154492595Y-41178959D02*
X154407148Y-41181129D01*
X154578143Y-41176789D02*
X154492595Y-41178959D01*
X154664074Y-41174620D02*
X154578143Y-41176789D01*
X154749738Y-41172450D02*
X154664074Y-41174620D01*
X154839893Y-41175866D02*
X154749738Y-41172450D01*
X154929671Y-41179269D02*
X154839893Y-41175866D01*
X155019550Y-41182674D02*
X154929671Y-41179269D01*
X155109836Y-41186095D02*
X155019550Y-41182674D01*
X155199840Y-41189505D02*
X155109836Y-41186095D01*
X155378018Y-41203147D02*
X155199840Y-41189505D01*
X155556334Y-41216800D02*
X155378018Y-41203147D01*
X155734343Y-41230428D02*
X155556334Y-41216800D01*
X155912595Y-41244076D02*
X155734343Y-41230428D01*
X156090742Y-41257715D02*
X155912595Y-41244076D01*
X156171167Y-41262684D02*
X156090742Y-41257715D01*
X156251257Y-41267631D02*
X156171167Y-41262684D01*
X156331436Y-41272584D02*
X156251257Y-41267631D01*
X156411978Y-41277561D02*
X156331436Y-41272584D01*
X156492268Y-41282522D02*
X156411978Y-41277561D01*
X156561722Y-41282840D02*
X156492268Y-41282522D01*
X156630884Y-41283157D02*
X156561722Y-41282840D01*
X156700125Y-41283475D02*
X156630884Y-41283157D01*
X156769679Y-41283792D02*
X156700125Y-41283475D01*
X156839015Y-41284110D02*
X156769679Y-41283792D01*
X156893565Y-41277072D02*
X156839015Y-41284110D01*
X156947884Y-41270063D02*
X156893565Y-41277072D01*
X157002266Y-41263046D02*
X156947884Y-41270063D01*
X157056894Y-41255998D02*
X157002266Y-41263046D01*
X157111351Y-41248970D02*
X157056894Y-41255998D01*
X157131936Y-41241800D02*
X157111351Y-41248970D01*
X157152414Y-41234664D02*
X157131936Y-41241800D01*
X157172681Y-41227605D02*
X157152414Y-41234664D01*
X157192975Y-41220530D02*
X157172681Y-41227605D01*
X157213692Y-41213315D02*
X157192975Y-41220530D01*
X157229170Y-41203444D02*
X157213692Y-41213315D01*
X157244569Y-41193620D02*
X157229170Y-41203444D01*
X157259809Y-41183899D02*
X157244569Y-41193620D01*
X157275075Y-41174157D02*
X157259809Y-41183899D01*
X157290659Y-41164222D02*
X157275075Y-41174157D01*
X157319642Y-41126234D02*
X157290659Y-41164222D01*
X157348502Y-41088406D02*
X157319642Y-41126234D01*
X157377395Y-41050535D02*
X157348502Y-41088406D01*
X157406420Y-41012492D02*
X157377395Y-41050535D01*
X157435352Y-40974569D02*
X157406420Y-41012492D01*
X157489189Y-40892310D02*
X157435352Y-40974569D01*
X157542778Y-40810430D02*
X157489189Y-40892310D01*
X157596398Y-40728500D02*
X157542778Y-40810430D01*
X157649924Y-40646718D02*
X157596398Y-40728500D01*
X157703552Y-40564775D02*
X157649924Y-40646718D01*
X157858061Y-40324277D02*
X157703552Y-40564775D01*
X158012694Y-40083591D02*
X157858061Y-40324277D01*
X158167057Y-39843319D02*
X158012694Y-40083591D01*
X158321632Y-39602720D02*
X158167057Y-39843319D01*
X158476114Y-39362264D02*
X158321632Y-39602720D01*
X158557246Y-39238243D02*
X158476114Y-39362264D01*
X158638439Y-39114125D02*
X158557246Y-39238243D01*
X158719494Y-38990220D02*
X158638439Y-39114125D01*
X158800660Y-38866147D02*
X158719494Y-38990220D01*
X158881776Y-38742147D02*
X158800660Y-38866147D01*
X158918625Y-38682423D02*
X158881776Y-38742147D01*
X158955320Y-38622950D02*
X158918625Y-38682423D01*
X158992054Y-38563409D02*
X158955320Y-38622950D01*
X159028956Y-38503597D02*
X158992054Y-38563409D01*
X159065743Y-38443974D02*
X159028956Y-38503597D01*
X159097001Y-38387356D02*
X159065743Y-38443974D01*
X159128130Y-38330975D02*
X159097001Y-38387356D01*
X159159295Y-38274529D02*
X159128130Y-38330975D01*
X159190598Y-38217828D02*
X159159295Y-38274529D01*
X159221805Y-38161304D02*
X159190598Y-38217828D01*
X159245089Y-38109033D02*
X159221805Y-38161304D01*
X159268293Y-38056981D02*
X159245089Y-38109033D01*
X159291497Y-38004869D02*
X159268293Y-38056981D01*
X159314833Y-37952522D02*
X159291497Y-38004869D01*
X159338090Y-37900338D02*
X159314833Y-37952522D01*
X159351134Y-37853656D02*
X159338090Y-37900338D01*
X159364125Y-37807170D02*
X159351134Y-37853656D01*
X159377116Y-37760631D02*
X159364125Y-37807170D01*
X159390186Y-37713881D02*
X159377116Y-37760631D01*
X159403204Y-37667278D02*
X159390186Y-37713881D01*
X159405056Y-37646182D02*
X159403204Y-37667278D01*
X159406908Y-37625190D02*
X159405056Y-37646182D01*
X159408760Y-37604420D02*
X159406908Y-37625190D01*
X159410612Y-37583603D02*
X159408760Y-37604420D01*
X159412729Y-37562376D02*
X159410612Y-37583603D01*
X159411141Y-37543151D02*
X159412729Y-37562376D01*
X159409554Y-37524022D02*
X159411141Y-37543151D01*
X159407966Y-37505093D02*
X159409554Y-37524022D01*
X159406379Y-37486123D02*
X159407966Y-37505093D01*
X159404791Y-37466776D02*
X159406379Y-37486123D01*
X159399605Y-37449629D02*
X159404791Y-37466776D01*
X159394446Y-37432566D02*
X159399605Y-37449629D01*
X159389339Y-37415683D02*
X159394446Y-37432566D01*
X159384207Y-37398762D02*
X159389339Y-37415683D01*
X159378994Y-37381509D02*
X159384207Y-37398762D01*
X159369734Y-37366335D02*
X159378994Y-37381509D01*
X159360526Y-37351238D02*
X159369734Y-37366335D01*
X159351425Y-37336300D02*
X159360526Y-37351238D01*
X159342297Y-37321330D02*
X159351425Y-37336300D01*
X159332983Y-37306060D02*
X159342297Y-37321330D01*
X159302966Y-37276561D02*
X159332983Y-37306060D01*
X159273074Y-37247185D02*
X159302966Y-37276561D01*
X159243149Y-37217775D02*
X159273074Y-37247185D01*
X159213087Y-37188232D02*
X159243149Y-37217775D01*
X159183121Y-37158783D02*
X159213087Y-37188232D01*
X159138819Y-37123693D02*
X159183121Y-37158783D01*
X159094705Y-37088752D02*
X159138819Y-37123693D01*
X159050538Y-37053770D02*
X159094705Y-37088752D01*
X159006172Y-37018629D02*
X159050538Y-37053770D01*
X158961945Y-36983600D02*
X159006172Y-37018629D01*
X158932139Y-36965076D02*
X158961945Y-36983600D01*
X158902458Y-36946629D02*
X158932139Y-36965076D01*
X158872426Y-36927963D02*
X158902458Y-36946629D01*
X158842877Y-36909598D02*
X158872426Y-36927963D01*
X158813117Y-36891101D02*
X158842877Y-36909598D01*
X158776890Y-36872366D02*
X158813117Y-36891101D01*
X158740814Y-36853710D02*
X158776890Y-36872366D01*
X158704698Y-36835033D02*
X158740814Y-36853710D01*
X158668416Y-36816272D02*
X158704698Y-36835033D01*
X158632250Y-36797568D02*
X158668416Y-36816272D01*
X158588673Y-36779145D02*
X158632250Y-36797568D01*
X158545279Y-36760799D02*
X158588673Y-36779145D01*
X158501837Y-36742432D02*
X158545279Y-36760799D01*
X158458197Y-36723980D02*
X158501837Y-36742432D01*
X158414694Y-36705586D02*
X158458197Y-36723980D01*
X158362835Y-36687885D02*
X158414694Y-36705586D01*
X158311197Y-36670259D02*
X158362835Y-36687885D01*
X158259497Y-36652614D02*
X158311197Y-36670259D01*
X158207565Y-36634887D02*
X158259497Y-36652614D01*
X158155794Y-36617218D02*
X158207565Y-36634887D01*
X158094725Y-36600552D02*
X158155794Y-36617218D01*
X158033911Y-36583957D02*
X158094725Y-36600552D01*
X157973030Y-36567344D02*
X158033911Y-36583957D01*
X157911869Y-36550654D02*
X157973030Y-36567344D01*
X157850904Y-36534017D02*
X157911869Y-36550654D01*
X157779794Y-36518801D02*
X157850904Y-36534017D01*
X157708981Y-36503648D02*
X157779794Y-36518801D01*
X157638089Y-36488479D02*
X157708981Y-36503648D01*
X157566876Y-36473242D02*
X157638089Y-36488479D01*
X157495886Y-36458052D02*
X157566876Y-36473242D01*
X157413598Y-36444908D02*
X157495886Y-36458052D01*
X157331654Y-36431819D02*
X157413598Y-36444908D01*
X157249617Y-36418714D02*
X157331654Y-36431819D01*
X157167210Y-36405548D02*
X157249617Y-36418714D01*
X157085059Y-36392425D02*
X157167210Y-36405548D01*
X156990455Y-36381532D02*
X157085059Y-36392425D01*
X156896287Y-36370690D02*
X156990455Y-36381532D01*
X156802064Y-36359842D02*
X156896287Y-36370690D01*
X156708007Y-36349012D02*
X156802064Y-36359842D01*
X156613768Y-36338162D02*
X156708007Y-36349012D01*
X156506302Y-36329968D02*
X156613768Y-36338162D01*
X156399331Y-36321810D02*
X156506302Y-36329968D01*
X156292296Y-36313648D02*
X156399331Y-36321810D01*
X156185455Y-36305502D02*
X156292296Y-36313648D01*
X156078402Y-36297339D02*
X156185455Y-36305502D01*
X155957379Y-36292378D02*
X156078402Y-36297339D01*
X155836258Y-36287415D02*
X155957379Y-36292378D01*
X155715349Y-36282459D02*
X155836258Y-36287415D01*
X155594273Y-36277495D02*
X155715349Y-36282459D01*
X155473271Y-36272534D02*
X155594273Y-36277495D01*
X155337468Y-36271079D02*
X155473271Y-36272534D01*
X155201557Y-36269624D02*
X155337468Y-36271079D01*
X155065881Y-36268169D02*
X155201557Y-36269624D01*
X154930020Y-36266714D02*
X155065881Y-36268169D01*
X154794241Y-36265258D02*
X154930020Y-36266714D01*
X155008699Y-32672196D02*
X154794241Y-36265258D01*
X155112223Y-32675204D02*
X155008699Y-32672196D01*
X155215270Y-32678199D02*
X155112223Y-32675204D01*
X155318381Y-32681195D02*
X155215270Y-32678199D01*
X155421304Y-32684186D02*
X155318381Y-32681195D01*
X155524430Y-32687182D02*
X155421304Y-32684186D01*
X155627435Y-32695689D02*
X155524430Y-32687182D01*
X155729967Y-32704155D02*
X155627435Y-32695689D01*
X155832559Y-32712627D02*
X155729967Y-32704155D01*
X155934966Y-32721084D02*
X155832559Y-32712627D01*
X156037577Y-32729557D02*
X155934966Y-32721084D01*
X156140166Y-32743976D02*
X156037577Y-32729557D01*
X156242285Y-32758328D02*
X156140166Y-32743976D01*
X156344464Y-32772689D02*
X156242285Y-32758328D01*
X156446461Y-32787025D02*
X156344464Y-32772689D01*
X156548656Y-32801388D02*
X156446461Y-32787025D01*
X156650624Y-32821823D02*
X156548656Y-32801388D01*
X156752124Y-32842164D02*
X156650624Y-32821823D01*
X156853684Y-32862517D02*
X156752124Y-32842164D01*
X156955059Y-32882834D02*
X156853684Y-32862517D01*
X157056635Y-32903190D02*
X156955059Y-32882834D01*
X157158293Y-32930057D02*
X157056635Y-32903190D01*
X157259481Y-32956799D02*
X157158293Y-32930057D01*
X157360731Y-32983558D02*
X157259481Y-32956799D01*
X157461800Y-33010269D02*
X157360731Y-32983558D01*
X157563066Y-33037032D02*
X157461800Y-33010269D01*
X157664203Y-33070537D02*
X157563066Y-33037032D01*
X157764877Y-33103888D02*
X157664203Y-33070537D01*
X157865609Y-33137260D02*
X157764877Y-33103888D01*
X157966162Y-33170570D02*
X157865609Y-33137260D01*
X158066910Y-33203947D02*
X157966162Y-33170570D01*
X158167531Y-33244506D02*
X158066910Y-33203947D01*
X158267686Y-33284878D02*
X158167531Y-33244506D01*
X158367902Y-33325275D02*
X158267686Y-33284878D01*
X158467939Y-33365599D02*
X158367902Y-33325275D01*
X158568171Y-33406002D02*
X158467939Y-33365599D01*
X158668479Y-33453822D02*
X158568171Y-33406002D01*
X158768325Y-33501422D02*
X158668479Y-33453822D01*
X158868235Y-33549051D02*
X158768325Y-33501422D01*
X158967961Y-33596594D02*
X158868235Y-33549051D01*
X159067884Y-33644230D02*
X158967961Y-33596594D01*
X159167674Y-33699623D02*
X159067884Y-33644230D01*
X159267004Y-33754760D02*
X159167674Y-33699623D01*
X159366392Y-33809931D02*
X159267004Y-33754760D01*
X159465603Y-33865002D02*
X159366392Y-33809931D01*
X159565010Y-33920182D02*
X159465603Y-33865002D01*
X159664128Y-33983295D02*
X159565010Y-33920182D01*
X159762603Y-34046396D02*
X159664128Y-33983295D01*
X159861581Y-34109419D02*
X159762603Y-34046396D01*
X159960379Y-34172328D02*
X159861581Y-34109419D01*
X160059373Y-34235361D02*
X159960379Y-34172328D01*
X160157970Y-34306570D02*
X160059373Y-34235361D01*
X160256644Y-34377835D02*
X160157970Y-34306570D01*
X160355148Y-34448977D02*
X160256644Y-34377835D01*
X160453787Y-34520215D02*
X160355148Y-34448977D01*
X160552366Y-34591412D02*
X160453787Y-34520215D01*
X160650658Y-34670975D02*
X160552366Y-34591412D01*
X160749028Y-34750600D02*
X160650658Y-34670975D01*
X160847231Y-34830088D02*
X160749028Y-34750600D01*
X160945563Y-34909684D02*
X160847231Y-34830088D01*
X161043840Y-34989233D02*
X160945563Y-34909684D01*
X161141611Y-35077495D02*
X161043840Y-34989233D01*
X161239457Y-35165826D02*
X161141611Y-35077495D01*
X161337136Y-35254005D02*
X161239457Y-35165826D01*
X161434947Y-35342304D02*
X161337136Y-35254005D01*
X161532700Y-35430550D02*
X161434947Y-35342304D01*
X161630159Y-35527907D02*
X161532700Y-35430550D01*
X161727695Y-35625340D02*
X161630159Y-35527907D01*
X161825064Y-35722605D02*
X161727695Y-35625340D01*
X161922563Y-35820002D02*
X161825064Y-35722605D01*
X162020007Y-35917342D02*
X161922563Y-35820002D01*
X162068965Y-35986381D02*
X162020007Y-35917342D01*
X162117720Y-36055131D02*
X162068965Y-35986381D01*
X162166530Y-36123960D02*
X162117720Y-36055131D01*
X162215560Y-36193100D02*
X162166530Y-36123960D01*
X162264437Y-36262024D02*
X162215560Y-36193100D01*
X162313088Y-36346876D02*
X162264437Y-36262024D01*
X162361512Y-36431338D02*
X162313088Y-36346876D01*
X162409968Y-36515851D02*
X162361512Y-36431338D01*
X162458337Y-36600211D02*
X162409968Y-36515851D01*
X162506800Y-36684737D02*
X162458337Y-36600211D01*
X162551198Y-36784008D02*
X162506800Y-36684737D01*
X162595388Y-36882822D02*
X162551198Y-36784008D01*
X162639608Y-36981696D02*
X162595388Y-36882822D01*
X162683748Y-37080391D02*
X162639608Y-36981696D01*
X162727974Y-37179280D02*
X162683748Y-37080391D01*
X162747526Y-37233829D02*
X162727974Y-37179280D01*
X162767000Y-37288148D02*
X162747526Y-37233829D01*
X162786499Y-37342530D02*
X162767000Y-37288148D01*
X162806079Y-37397159D02*
X162786499Y-37342530D01*
X162825605Y-37451615D02*
X162806079Y-37397159D01*
X162842670Y-37509372D02*
X162825605Y-37451615D01*
X162859683Y-37566887D02*
X162842670Y-37509372D01*
X162876696Y-37624468D02*
X162859683Y-37566887D01*
X162893814Y-37682310D02*
X162876696Y-37624468D01*
X162910854Y-37739970D02*
X162893814Y-37682310D01*
X162925141Y-37800625D02*
X162910854Y-37739970D01*
X162939376Y-37861026D02*
X162925141Y-37800625D01*
X162953610Y-37921496D02*
X162939376Y-37861026D01*
X162967924Y-37982240D02*
X162953610Y-37921496D01*
X162982185Y-38042794D02*
X162967924Y-37982240D01*
X162993271Y-38106244D02*
X162982185Y-38042794D01*
X163004304Y-38169428D02*
X162993271Y-38106244D01*
X163015338Y-38232684D02*
X163004304Y-38169428D01*
X163026424Y-38296227D02*
X163015338Y-38232684D01*
X163037483Y-38359570D02*
X163026424Y-38296227D01*
X163044733Y-38425815D02*
X163037483Y-38359570D01*
X163051956Y-38491782D02*
X163044733Y-38425815D01*
X163059179Y-38557824D02*
X163051956Y-38491782D01*
X163066429Y-38624166D02*
X163059179Y-38557824D01*
X163073652Y-38690299D02*
X163066429Y-38624166D01*
X163076642Y-38758925D02*
X163073652Y-38690299D01*
X163079631Y-38827262D02*
X163076642Y-38758925D01*
X163082621Y-38895678D02*
X163079631Y-38827262D01*
X163085637Y-38964404D02*
X163082621Y-38895678D01*
X163088627Y-39032914D02*
X163085637Y-38964404D01*
X163087040Y-39103920D02*
X163088627Y-39032914D01*
X163085452Y-39174628D02*
X163087040Y-39103920D01*
X163083865Y-39245418D02*
X163085452Y-39174628D01*
X163082277Y-39316528D02*
X163083865Y-39245418D01*
X163080690Y-39387414D02*
X163082277Y-39316528D01*
X163073969Y-39460697D02*
X163080690Y-39387414D01*
X163067275Y-39533673D02*
X163073969Y-39460697D01*
X163060555Y-39606733D02*
X163067275Y-39533673D01*
X163053808Y-39680124D02*
X163060555Y-39606733D01*
X163047088Y-39753283D02*
X163053808Y-39680124D01*
X163034864Y-39828533D02*
X163047088Y-39753283D01*
X163022693Y-39903468D02*
X163034864Y-39828533D01*
X163010522Y-39978488D02*
X163022693Y-39903468D01*
X162998298Y-40053848D02*
X163010522Y-39978488D01*
X162986101Y-40128971D02*
X162998298Y-40053848D01*
X162967898Y-40206084D02*
X162986101Y-40128971D01*
X162949747Y-40282874D02*
X162967898Y-40206084D01*
X162931597Y-40359751D02*
X162949747Y-40282874D01*
X162913341Y-40436977D02*
X162931597Y-40359751D01*
X162895164Y-40513961D02*
X162913341Y-40436977D01*
X162883363Y-40565714D02*
X162895164Y-40513961D01*
X162871616Y-40617251D02*
X162883363Y-40565714D01*
X162859842Y-40668847D02*
X162871616Y-40617251D01*
X162848015Y-40720676D02*
X162859842Y-40668847D01*
X162836241Y-40772343D02*
X162848015Y-40720676D01*
X162829838Y-40821095D02*
X162836241Y-40772343D01*
X162823435Y-40869642D02*
X162829838Y-40821095D01*
X162817032Y-40918245D02*
X162823435Y-40869642D01*
X162810603Y-40967069D02*
X162817032Y-40918245D01*
X162804200Y-41015739D02*
X162810603Y-40967069D01*
X162803142Y-41061696D02*
X162804200Y-41015739D01*
X162802083Y-41107461D02*
X162803142Y-41061696D01*
X162801025Y-41153277D02*
X162802083Y-41107461D01*
X162799967Y-41199302D02*
X162801025Y-41153277D01*
X162798908Y-41245182D02*
X162799967Y-41199302D01*
X162803353Y-41288345D02*
X162798908Y-41245182D01*
X162807798Y-41331326D02*
X162803353Y-41288345D01*
X162812243Y-41374357D02*
X162807798Y-41331326D01*
X162816715Y-41417583D02*
X162812243Y-41374357D01*
X162821160Y-41460673D02*
X162816715Y-41417583D01*
X162830791Y-41500937D02*
X162821160Y-41460673D01*
X162840369Y-41541033D02*
X162830791Y-41500937D01*
X162849973Y-41581174D02*
X162840369Y-41541033D01*
X162859604Y-41621498D02*
X162849973Y-41581174D01*
X162869208Y-41661694D02*
X162859604Y-41621498D01*
X162883998Y-41699060D02*
X162869208Y-41661694D01*
X162898736Y-41736270D02*
X162883998Y-41699060D01*
X162913499Y-41773522D02*
X162898736Y-41736270D01*
X162928316Y-41810943D02*
X162913499Y-41773522D01*
X162943080Y-41848246D02*
X162928316Y-41810943D01*
X162963056Y-41882921D02*
X162943080Y-41848246D01*
X162982953Y-41917451D02*
X162963056Y-41882921D01*
X163002876Y-41952020D02*
X162982953Y-41917451D01*
X163022878Y-41986746D02*
X163002876Y-41952020D01*
X163042828Y-42021362D02*
X163022878Y-41986746D01*
X163067778Y-42053139D02*
X163042828Y-42021362D01*
X163092622Y-42084783D02*
X163067778Y-42053139D01*
X163117493Y-42116462D02*
X163092622Y-42084783D01*
X163142470Y-42148285D02*
X163117493Y-42116462D01*
X163167367Y-42180009D02*
X163142470Y-42148285D01*
X163197281Y-42208991D02*
X163167367Y-42180009D01*
X163227068Y-42237851D02*
X163197281Y-42208991D01*
X163256892Y-42266745D02*
X163227068Y-42237851D01*
X163286848Y-42295769D02*
X163256892Y-42266745D01*
X163316711Y-42324703D02*
X163286848Y-42295769D01*
X163351491Y-42350891D02*
X163316711Y-42324703D01*
X163386122Y-42376968D02*
X163351491Y-42350891D01*
X163420796Y-42403075D02*
X163386122Y-42376968D01*
X163455625Y-42429300D02*
X163420796Y-42403075D01*
X163490344Y-42455444D02*
X163455625Y-42429300D01*
X163529987Y-42478939D02*
X163490344Y-42455444D01*
X163569465Y-42502336D02*
X163529987Y-42478939D01*
X163608988Y-42525760D02*
X163569465Y-42502336D01*
X163648689Y-42549289D02*
X163608988Y-42525760D01*
X163688266Y-42572747D02*
X163648689Y-42549289D01*
X163732671Y-42593345D02*
X163688266Y-42572747D01*
X163776888Y-42613855D02*
X163732671Y-42593345D01*
X163821158Y-42634390D02*
X163776888Y-42613855D01*
X163865626Y-42655016D02*
X163821158Y-42634390D01*
X163909957Y-42675580D02*
X163865626Y-42655016D01*
X163958916Y-42693487D02*
X163909957Y-42675580D01*
X164007668Y-42711320D02*
X163958916Y-42693487D01*
X164056478Y-42729171D02*
X164007668Y-42711320D01*
X164105508Y-42747105D02*
X164056478Y-42729171D01*
X164154385Y-42764980D02*
X164105508Y-42747105D01*
X164208002Y-42780196D02*
X164154385Y-42764980D01*
X164261393Y-42795349D02*
X164208002Y-42780196D01*
X164314847Y-42810517D02*
X164261393Y-42795349D01*
X164368541Y-42825755D02*
X164314847Y-42810517D01*
X164422069Y-42840944D02*
X164368541Y-42825755D01*
X164480240Y-42853261D02*
X164422069Y-42840944D01*
X164538168Y-42865527D02*
X164480240Y-42853261D01*
X164596162Y-42877806D02*
X164538168Y-42865527D01*
X164654418Y-42890141D02*
X164596162Y-42877806D01*
X164712491Y-42902439D02*
X164654418Y-42890141D01*
X164775010Y-42912168D02*
X164712491Y-42902439D01*
X164837266Y-42921857D02*
X164775010Y-42912168D01*
X164899594Y-42931556D02*
X164837266Y-42921857D01*
X164962205Y-42941301D02*
X164899594Y-42931556D01*
X165024618Y-42951014D02*
X164962205Y-42941301D01*
X165046155Y-42985896D02*
X165024618Y-42951014D01*
X165067586Y-43020632D02*
X165046155Y-42985896D01*
X165089044Y-43055407D02*
X165067586Y-43020632D01*
X165110607Y-43090340D02*
X165089044Y-43055407D01*
X165132091Y-43125164D02*
X165110607Y-43090340D01*
X165144818Y-43158590D02*
X165132091Y-43125164D01*
X165157491Y-43191878D02*
X165144818Y-43158590D01*
X165170324Y-43225562D02*
X165157491Y-43191878D01*
X165182944Y-43258702D02*
X165170324Y-43225562D01*
X165195644Y-43292078D02*
X165182944Y-43258702D01*
X165200407Y-43324160D02*
X165195644Y-43292078D01*
X165205143Y-43356108D02*
X165200407Y-43324160D01*
X165209932Y-43388436D02*
X165205143Y-43356108D01*
X165214641Y-43420242D02*
X165209932Y-43388436D01*
X165219404Y-43452275D02*
X165214641Y-43420242D01*
X165216705Y-43483218D02*
X165219404Y-43452275D01*
X165214033Y-43514033D02*
X165216705Y-43483218D01*
X165211308Y-43545214D02*
X165214033Y-43514033D01*
X165208635Y-43575891D02*
X165211308Y-43545214D01*
X165205937Y-43606788D02*
X165208635Y-43575891D01*
X165196729Y-43636799D02*
X165205937Y-43606788D01*
X165187548Y-43666686D02*
X165196729Y-43636799D01*
X165178261Y-43696929D02*
X165187548Y-43666686D01*
X165169133Y-43726683D02*
X165178261Y-43696929D01*
X165159926Y-43756649D02*
X165169133Y-43726683D01*
X165144924Y-43785729D02*
X165159926Y-43756649D01*
X165129975Y-43814689D02*
X165144924Y-43785729D01*
X165114841Y-43843993D02*
X165129975Y-43814689D01*
X165099971Y-43872824D02*
X165114841Y-43843993D01*
X165084996Y-43901860D02*
X165099971Y-43872824D01*
X165064808Y-43930423D02*
X165084996Y-43901860D01*
X165044700Y-43958867D02*
X165064808Y-43930423D01*
X165024353Y-43987650D02*
X165044700Y-43958867D01*
X165004351Y-44015967D02*
X165024353Y-43987650D01*
X164984189Y-44044487D02*
X165004351Y-44015967D01*
X164959663Y-44072434D02*
X164984189Y-44044487D01*
X164935242Y-44100264D02*
X164959663Y-44072434D01*
X164910794Y-44128126D02*
X164935242Y-44100264D01*
X164886241Y-44156114D02*
X164910794Y-44128126D01*
X164861740Y-44184014D02*
X164886241Y-44156114D01*
X164802638Y-44239287D02*
X164861740Y-44184014D01*
X164743784Y-44294328D02*
X164802638Y-44239287D01*
X164684861Y-44349432D02*
X164743784Y-44294328D01*
X164625671Y-44404786D02*
X164684861Y-44349432D01*
X164566669Y-44459966D02*
X164625671Y-44404786D01*
X164499079Y-44515342D02*
X164566669Y-44459966D01*
X164431771Y-44570487D02*
X164499079Y-44515342D01*
X164364387Y-44625694D02*
X164431771Y-44570487D01*
X164296699Y-44681151D02*
X164364387Y-44625694D01*
X164229222Y-44736435D02*
X164296699Y-44681151D01*
X164158941Y-44793157D02*
X164229222Y-44736435D01*
X164088953Y-44849641D02*
X164158941Y-44793157D01*
X164018886Y-44906190D02*
X164088953Y-44849641D01*
X163948502Y-44962995D02*
X164018886Y-44906190D01*
X163878340Y-45019622D02*
X163948502Y-44962995D01*
X163825653Y-45060404D02*
X163878340Y-45019622D01*
X163773189Y-45101014D02*
X163825653Y-45060404D01*
X163720666Y-45141672D02*
X163773189Y-45101014D01*
X163667903Y-45182513D02*
X163720666Y-45141672D01*
X163615307Y-45223227D02*
X163667903Y-45182513D01*
X163567176Y-45269495D02*
X163615307Y-45223227D01*
X163519247Y-45315568D02*
X163567176Y-45269495D01*
X163471262Y-45361695D02*
X163519247Y-45315568D01*
X163423060Y-45408030D02*
X163471262Y-45361695D01*
X163375009Y-45454220D02*
X163423060Y-45408030D01*
X163345614Y-45477612D02*
X163375009Y-45454220D01*
X163316341Y-45500906D02*
X163345614Y-45477612D01*
X163287033Y-45524226D02*
X163316341Y-45500906D01*
X163257595Y-45547653D02*
X163287033Y-45524226D01*
X163228248Y-45571005D02*
X163257595Y-45547653D01*
X163213802Y-45587425D02*
X163228248Y-45571005D01*
X163199435Y-45603763D02*
X163213802Y-45587425D01*
X163185227Y-45619929D02*
X163199435Y-45603763D01*
X163170965Y-45636129D02*
X163185227Y-45619929D01*
X163156440Y-45652652D02*
X163170965Y-45636129D01*
X163141332Y-45675626D02*
X163156440Y-45652652D01*
X163126277Y-45698505D02*
X163141332Y-45675626D01*
X163111064Y-45721656D02*
X163126277Y-45698505D01*
X163096088Y-45744434D02*
X163111064Y-45721656D01*
X163081007Y-45767373D02*
X163096088Y-45744434D01*
X163064762Y-45799248D02*
X163081007Y-45767373D01*
X163048596Y-45830989D02*
X163064762Y-45799248D01*
X163032218Y-45863109D02*
X163048596Y-45830989D01*
X163016105Y-45894710D02*
X163032218Y-45863109D01*
X162999886Y-45926536D02*
X163016105Y-45894710D01*
X162981762Y-45970010D02*
X162999886Y-45926536D01*
X162963717Y-46013300D02*
X162981762Y-45970010D01*
X162945646Y-46056641D02*
X162963717Y-46013300D01*
X162927496Y-46100178D02*
X162945646Y-46056641D01*
X162909425Y-46143578D02*
X162927496Y-46100178D01*
X162877336Y-46213135D02*
X162909425Y-46143578D01*
X162845385Y-46282400D02*
X162877336Y-46213135D01*
X162813394Y-46351744D02*
X162845385Y-46282400D01*
X162781261Y-46421404D02*
X162813394Y-46351744D01*
X162749228Y-46490843D02*
X162781261Y-46421404D01*
X162712585Y-46546737D02*
X162749228Y-46490843D01*
X162676097Y-46602397D02*
X162712585Y-46546737D01*
X162639568Y-46658120D02*
X162676097Y-46602397D01*
X162602873Y-46714096D02*
X162639568Y-46658120D01*
X162566292Y-46769896D02*
X162602873Y-46714096D01*
X162525821Y-46815543D02*
X162566292Y-46769896D01*
X162485520Y-46860998D02*
X162525821Y-46815543D01*
X162445171Y-46906505D02*
X162485520Y-46860998D01*
X162404640Y-46952219D02*
X162445171Y-46906505D01*
X162364238Y-46997789D02*
X162404640Y-46952219D01*
X162320558Y-47036294D02*
X162364238Y-46997789D01*
X162277060Y-47074637D02*
X162320558Y-47036294D01*
X162233515Y-47113024D02*
X162277060Y-47074637D01*
X162189769Y-47151585D02*
X162233515Y-47113024D01*
X162146163Y-47190025D02*
X162189769Y-47151585D01*
X162052011Y-47258518D02*
X162146163Y-47190025D01*
X161957806Y-47327050D02*
X162052011Y-47258518D01*
X161863789Y-47395445D02*
X161957806Y-47327050D01*
X161769941Y-47463717D02*
X161863789Y-47395445D01*
X161675908Y-47532123D02*
X161769941Y-47463717D01*
X161626847Y-47568558D02*
X161675908Y-47532123D01*
X161577989Y-47604840D02*
X161626847Y-47568558D01*
X161529078Y-47641163D02*
X161577989Y-47604840D01*
X161479942Y-47677651D02*
X161529078Y-47641163D01*
X161430962Y-47714024D02*
X161479942Y-47677651D01*
X161381485Y-47756152D02*
X161430962Y-47714024D01*
X161332217Y-47798103D02*
X161381485Y-47756152D01*
X161282891Y-47840101D02*
X161332217Y-47798103D01*
X161233340Y-47882291D02*
X161282891Y-47840101D01*
X161183947Y-47924347D02*
X161233340Y-47882291D01*
X161159950Y-47943908D02*
X161183947Y-47924347D01*
X161136031Y-47963387D02*
X161159950Y-47943908D01*
X161111848Y-47983096D02*
X161136031Y-47963387D01*
X161088036Y-48002487D02*
X161111848Y-47983096D01*
X161064065Y-48022016D02*
X161088036Y-48002487D01*
X161035709Y-48040539D02*
X161064065Y-48022016D01*
X161007470Y-48058986D02*
X161035709Y-48040539D01*
X160978895Y-48077652D02*
X161007470Y-48058986D01*
X160950783Y-48096017D02*
X160978895Y-48077652D01*
X160922470Y-48114514D02*
X160950783Y-48096017D01*
X160856123Y-48149086D02*
X160922470Y-48114514D01*
X160790052Y-48183512D02*
X160856123Y-48149086D01*
X160723906Y-48217978D02*
X160790052Y-48183512D01*
X160657461Y-48252600D02*
X160723906Y-48217978D01*
X160591225Y-48287113D02*
X160657461Y-48252600D01*
X160516803Y-48319097D02*
X160591225Y-48287113D01*
X160442693Y-48350947D02*
X160516803Y-48319097D01*
X160368499Y-48382833D02*
X160442693Y-48350947D01*
X160293968Y-48414864D02*
X160368499Y-48382833D01*
X160219671Y-48446793D02*
X160293968Y-48414864D01*
X160143386Y-48477535D02*
X160219671Y-48446793D01*
X160067422Y-48508148D02*
X160143386Y-48477535D01*
X159991370Y-48538796D02*
X160067422Y-48508148D01*
X159914971Y-48569583D02*
X159991370Y-48538796D01*
X159838816Y-48600272D02*
X159914971Y-48569583D01*
X159766569Y-48630704D02*
X159838816Y-48600272D01*
X159694624Y-48661007D02*
X159766569Y-48630704D01*
X159622596Y-48691345D02*
X159694624Y-48661007D01*
X159550240Y-48721821D02*
X159622596Y-48691345D01*
X159478115Y-48752201D02*
X159550240Y-48721821D01*
X159416009Y-48783564D02*
X159478115Y-48752201D01*
X159354166Y-48814795D02*
X159416009Y-48783564D01*
X159292251Y-48846062D02*
X159354166Y-48814795D01*
X159230055Y-48877471D02*
X159292251Y-48846062D01*
X159168055Y-48908781D02*
X159230055Y-48877471D01*
X159142708Y-48925029D02*
X159168055Y-48908781D01*
X159117467Y-48941208D02*
X159142708Y-48925029D01*
X159091908Y-48957581D02*
X159117467Y-48941208D01*
X159066773Y-48973688D02*
X159091908Y-48957581D01*
X159041452Y-48989913D02*
X159066773Y-48973688D01*
X159020682Y-49007039D02*
X159041452Y-48989913D01*
X159000018Y-49024065D02*
X159020682Y-49007039D01*
X158979592Y-49040890D02*
X159000018Y-49024065D01*
X158959167Y-49057717D02*
X158979592Y-49040890D01*
X158938608Y-49074664D02*
X158959167Y-49057717D01*
X158923474Y-49092521D02*
X158938608Y-49074664D01*
X158908420Y-49110272D02*
X158923474Y-49092521D01*
X158893550Y-49127816D02*
X158908420Y-49110272D01*
X158878680Y-49145361D02*
X158893550Y-49127816D01*
X158863705Y-49163030D02*
X158878680Y-49145361D01*
X158854974Y-49181736D02*
X158863705Y-49163030D01*
X158846295Y-49200349D02*
X158854974Y-49181736D01*
X158837696Y-49218767D02*
X158846295Y-49200349D01*
X158829097Y-49237224D02*
X158837696Y-49218767D01*
X158820313Y-49256046D02*
X158829097Y-49237224D01*
X158807693Y-49328502D02*
X158820313Y-49256046D01*
X158795125Y-49400653D02*
X158807693Y-49328502D01*
X158782531Y-49472887D02*
X158795125Y-49400653D01*
X158769884Y-49545448D02*
X158782531Y-49472887D01*
X158757263Y-49617781D02*
X158769884Y-49545448D01*
X158750437Y-49692307D02*
X158757263Y-49617781D01*
X158743637Y-49766519D02*
X158750437Y-49692307D01*
X158736837Y-49840817D02*
X158743637Y-49766519D01*
X158729985Y-49915452D02*
X158736837Y-49840817D01*
X158723158Y-49989852D02*
X158729985Y-49915452D01*
X158720354Y-50066137D02*
X158723158Y-49989852D01*
X158717576Y-50142102D02*
X158720354Y-50066137D01*
X158714797Y-50218153D02*
X158717576Y-50142102D01*
X158711993Y-50294551D02*
X158714797Y-50218153D01*
X158709215Y-50370707D02*
X158711993Y-50294551D01*
X158709003Y-50448027D02*
X158709215Y-50370707D01*
X158708791Y-50525023D02*
X158709003Y-50448027D01*
X158708580Y-50602107D02*
X158708791Y-50525023D01*
X158708368Y-50679540D02*
X158708580Y-50602107D01*
X158708156Y-50756730D02*
X158708368Y-50679540D01*
X158708686Y-50912997D02*
X158708156Y-50756730D01*
X158709215Y-51069386D02*
X158708686Y-50912997D01*
X158709744Y-51225506D02*
X158709215Y-51069386D01*
X158710273Y-51381838D02*
X158709744Y-51225506D01*
X158710802Y-51538078D02*
X158710273Y-51381838D01*
X158708421Y-51616226D02*
X158710802Y-51538078D01*
X158706040Y-51694046D02*
X158708421Y-51616226D01*
X158703658Y-51771955D02*
X158706040Y-51694046D01*
X158701277Y-51850218D02*
X158703658Y-51771955D01*
X158698896Y-51928235D02*
X158701277Y-51850218D01*
X158692361Y-52005658D02*
X158698896Y-51928235D01*
X158685878Y-52082757D02*
X158692361Y-52005658D01*
X158679370Y-52159944D02*
X158685878Y-52082757D01*
X158672835Y-52237481D02*
X158679370Y-52159944D01*
X158666326Y-52314774D02*
X158672835Y-52237481D01*
X158660955Y-52592065D02*
X158666326Y-52314774D01*
X158655584Y-52869574D02*
X158660955Y-52592065D01*
X158650213Y-53146604D02*
X158655584Y-52869574D01*
X158644842Y-53424011D02*
X158650213Y-53146604D01*
X158639471Y-53701253D02*
X158644842Y-53424011D01*
X158642460Y-53824964D02*
X158639471Y-53701253D01*
X158645450Y-53948772D02*
X158642460Y-53824964D01*
X158648440Y-54072367D02*
X158645450Y-53948772D01*
X158651430Y-54196130D02*
X158648440Y-54072367D01*
X158654420Y-54319820D02*
X158651430Y-54196130D01*
X158661140Y-54406249D02*
X158654420Y-54319820D01*
X158667834Y-54492315D02*
X158661140Y-54406249D01*
X158674554Y-54578479D02*
X158667834Y-54492315D01*
X158681301Y-54665035D02*
X158674554Y-54578479D01*
X158688022Y-54751318D02*
X158681301Y-54665035D01*
X158693816Y-54916473D02*
X158688022Y-54751318D01*
X158699610Y-55081758D02*
X158693816Y-54916473D01*
X158705405Y-55246757D02*
X158699610Y-55081758D01*
X158711199Y-55411981D02*
X158705405Y-55246757D01*
X158716993Y-55577108D02*
X158711199Y-55411981D01*
X158715935Y-55717045D02*
X158716993Y-55577108D01*
X158714877Y-55857092D02*
X158715935Y-55717045D01*
X158713818Y-55996898D02*
X158714877Y-55857092D01*
X158712760Y-56136894D02*
X158713818Y-55996898D01*
X158711702Y-56276806D02*
X158712760Y-56136894D01*
X158712231Y-56402275D02*
X158711702Y-56276806D01*
X158712760Y-56527841D02*
X158712231Y-56402275D01*
X158713289Y-56653191D02*
X158712760Y-56527841D01*
X158713818Y-56778712D02*
X158713289Y-56653191D01*
X158714348Y-56904158D02*
X158713818Y-56778712D01*
X158719004Y-56955808D02*
X158714348Y-56904158D01*
X158723635Y-57007242D02*
X158719004Y-56955808D01*
X158728265Y-57058735D02*
X158723635Y-57007242D01*
X158732921Y-57110461D02*
X158728265Y-57058735D01*
X158737578Y-57162024D02*
X158732921Y-57110461D01*
X158747421Y-57203220D02*
X158737578Y-57162024D01*
X158757210Y-57244243D02*
X158747421Y-57203220D01*
X158767000Y-57285313D02*
X158757210Y-57244243D01*
X158776842Y-57326569D02*
X158767000Y-57285313D01*
X158786658Y-57367696D02*
X158776842Y-57326569D01*
X158793828Y-57383701D02*
X158786658Y-57367696D01*
X158800972Y-57399626D02*
X158793828Y-57383701D01*
X158808037Y-57415382D02*
X158800972Y-57399626D01*
X158815101Y-57431172D02*
X158808037Y-57415382D01*
X158822324Y-57447277D02*
X158815101Y-57431172D01*
X158831479Y-57459747D02*
X158822324Y-57447277D01*
X158840580Y-57472156D02*
X158831479Y-57459747D01*
X158849576Y-57484435D02*
X158840580Y-57472156D01*
X158858598Y-57496741D02*
X158849576Y-57484435D01*
X158867806Y-57509290D02*
X158858598Y-57496741D01*
X158878707Y-57517839D02*
X158867806Y-57509290D01*
X158890005Y-57526705D02*
X158878707Y-57517839D01*
X158900958Y-57535299D02*
X158890005Y-57526705D01*
X158911938Y-57543914D02*
X158900958Y-57535299D01*
X158923130Y-57552698D02*
X158911938Y-57543914D01*
X158936148Y-57557278D02*
X158923130Y-57552698D01*
X158949668Y-57562027D02*
X158936148Y-57557278D01*
X158962765Y-57566631D02*
X158949668Y-57562027D01*
X158975888Y-57571245D02*
X158962765Y-57566631D01*
X158989276Y-57575952D02*
X158975888Y-57571245D01*
X159285726Y-57630078D02*
X158989276Y-57575952D01*
X159582443Y-57684251D02*
X159285726Y-57630078D01*
X159879083Y-57738412D02*
X159582443Y-57684251D01*
X160175824Y-57792590D02*
X159879083Y-57738412D01*
X160472390Y-57846737D02*
X160175824Y-57792590D01*
X160633513Y-57879396D02*
X160472390Y-57846737D01*
X160794764Y-57912080D02*
X160633513Y-57879396D01*
X160955736Y-57944708D02*
X160794764Y-57912080D01*
X161116928Y-57977381D02*
X160955736Y-57944708D01*
X161278025Y-58010034D02*
X161116928Y-57977381D01*
X161444525Y-58047034D02*
X161278025Y-58010034D01*
X161611154Y-58084062D02*
X161444525Y-58047034D01*
X161777495Y-58121027D02*
X161611154Y-58084062D01*
X161944063Y-58158043D02*
X161777495Y-58121027D01*
X162110534Y-58195036D02*
X161944063Y-58158043D01*
X162279926Y-58236996D02*
X162110534Y-58195036D01*
X162449452Y-58278990D02*
X162279926Y-58236996D01*
X162618685Y-58320911D02*
X162449452Y-58278990D01*
X162788148Y-58362889D02*
X162618685Y-58320911D01*
X162957510Y-58404842D02*
X162788148Y-58362889D01*
X163127420Y-58452280D02*
X162957510Y-58404842D01*
X163297463Y-58499756D02*
X163127420Y-58452280D01*
X163467211Y-58547149D02*
X163297463Y-58499756D01*
X163637193Y-58594607D02*
X163467211Y-58547149D01*
X163807071Y-58642037D02*
X163637193Y-58594607D01*
X163975122Y-58695470D02*
X163807071Y-58642037D01*
X164143301Y-58748944D02*
X163975122Y-58695470D01*
X164311190Y-58802326D02*
X164143301Y-58748944D01*
X164479312Y-58855780D02*
X164311190Y-58802326D01*
X164647330Y-58909205D02*
X164479312Y-58855780D01*
X164810935Y-58969252D02*
X164647330Y-58909205D01*
X164974667Y-59029344D02*
X164810935Y-58969252D01*
X165138119Y-59089336D02*
X164974667Y-59029344D01*
X165301793Y-59149407D02*
X165138119Y-59089336D01*
X165465369Y-59209443D02*
X165301793Y-59149407D01*
X165622153Y-59276518D02*
X165465369Y-59209443D01*
X165779059Y-59343645D02*
X165622153Y-59276518D01*
X165935695Y-59410656D02*
X165779059Y-59343645D01*
X166092545Y-59477760D02*
X165935695Y-59410656D01*
X166249300Y-59544824D02*
X166092545Y-59477760D01*
X166324550Y-59581260D02*
X166249300Y-59544824D01*
X166399483Y-59617539D02*
X166324550Y-59581260D01*
X166474503Y-59653864D02*
X166399483Y-59617539D01*
X166549864Y-59690353D02*
X166474503Y-59653864D01*
X166624987Y-59726725D02*
X166549864Y-59690353D01*
X166697546Y-59765126D02*
X166624987Y-59726725D01*
X166769801Y-59803367D02*
X166697546Y-59765126D01*
X166842136Y-59841649D02*
X166769801Y-59803367D01*
X166914801Y-59880109D02*
X166842136Y-59841649D01*
X166987239Y-59918445D02*
X166914801Y-59880109D01*
X167056898Y-59958915D02*
X166987239Y-59918445D01*
X167126267Y-59999217D02*
X167056898Y-59958915D01*
X167195714Y-60039566D02*
X167126267Y-59999217D01*
X167265477Y-60080097D02*
X167195714Y-60039566D01*
X167335020Y-60120499D02*
X167265477Y-60080097D01*
X167401576Y-60163041D02*
X167335020Y-60120499D01*
X167467852Y-60205404D02*
X167401576Y-60163041D01*
X167534204Y-60247814D02*
X167467852Y-60205404D01*
X167600858Y-60290417D02*
X167534204Y-60247814D01*
X167667300Y-60332888D02*
X167600858Y-60290417D01*
X167730234Y-60377708D02*
X167667300Y-60332888D01*
X167792900Y-60422338D02*
X167730234Y-60377708D01*
X167855641Y-60467021D02*
X167792900Y-60422338D01*
X167918667Y-60511905D02*
X167855641Y-60467021D01*
X167981493Y-60556649D02*
X167918667Y-60511905D01*
X168040595Y-60603641D02*
X167981493Y-60556649D01*
X168099452Y-60650435D02*
X168040595Y-60603641D01*
X168158374Y-60697285D02*
X168099452Y-60650435D01*
X168217562Y-60744347D02*
X168158374Y-60697285D01*
X168276566Y-60791260D02*
X168217562Y-60744347D01*
X168331528Y-60840528D02*
X168276566Y-60791260D01*
X168386260Y-60889592D02*
X168331528Y-60840528D01*
X168441055Y-60938710D02*
X168386260Y-60889592D01*
X168496099Y-60988052D02*
X168441055Y-60938710D01*
X168550968Y-61037238D02*
X168496099Y-60988052D01*
X168601583Y-61088993D02*
X168550968Y-61037238D01*
X168651986Y-61140528D02*
X168601583Y-61088993D01*
X168702445Y-61192125D02*
X168651986Y-61140528D01*
X168753134Y-61243954D02*
X168702445Y-61192125D01*
X168803664Y-61295622D02*
X168753134Y-61243954D01*
X168849413Y-61349756D02*
X168803664Y-61295622D01*
X168894972Y-61403665D02*
X168849413Y-61349756D01*
X168940583Y-61457632D02*
X168894972Y-61403665D01*
X168986401Y-61511845D02*
X168940583Y-61457632D01*
X169032074Y-61565889D02*
X168986401Y-61511845D01*
X169072856Y-61622610D02*
X169032074Y-61565889D01*
X169113467Y-61679096D02*
X169072856Y-61622610D01*
X169154126Y-61735643D02*
X169113467Y-61679096D01*
X169194967Y-61792449D02*
X169154126Y-61735643D01*
X169235681Y-61849075D02*
X169194967Y-61792449D01*
X169271080Y-61908384D02*
X169235681Y-61849075D01*
X169306330Y-61967447D02*
X169271080Y-61908384D01*
X169341623Y-62026573D02*
X169306330Y-61967447D01*
X169377072Y-62085972D02*
X169341623Y-62026573D01*
X169412412Y-62145180D02*
X169377072Y-62085972D01*
X169442223Y-62207077D02*
X169412412Y-62145180D01*
X169471906Y-62268717D02*
X169442223Y-62207077D01*
X169501627Y-62330423D02*
X169471906Y-62268717D01*
X169531480Y-62392412D02*
X169501627Y-62330423D01*
X169561240Y-62454206D02*
X169531480Y-62392412D01*
X169585053Y-62518899D02*
X169561240Y-62454206D01*
X169608759Y-62583320D02*
X169585053Y-62518899D01*
X169632493Y-62647815D02*
X169608759Y-62583320D01*
X169656332Y-62712601D02*
X169632493Y-62647815D01*
X169680091Y-62777185D02*
X169656332Y-62712601D01*
X169697686Y-62844569D02*
X169680091Y-62777185D01*
X169715201Y-62911668D02*
X169697686Y-62844569D01*
X169732743Y-62978846D02*
X169715201Y-62911668D01*
X169750364Y-63046328D02*
X169732743Y-62978846D01*
X169767933Y-63113598D02*
X169750364Y-63046328D01*
X169772907Y-63206128D02*
X169767933Y-63113598D01*
X169777855Y-63298229D02*
X169772907Y-63206128D01*
X169782802Y-63390386D02*
X169777855Y-63298229D01*
X169787750Y-63482379D02*
X169782802Y-63390386D01*
X169792698Y-63574552D02*
X169787750Y-63482379D01*
X169792909Y-63664087D02*
X169792698Y-63574552D01*
X169793121Y-63753244D02*
X169792909Y-63664087D01*
X169793333Y-63842504D02*
X169793121Y-63753244D01*
X169793544Y-63932171D02*
X169793333Y-63842504D01*
X169793756Y-64021553D02*
X169793544Y-63932171D01*
X169792698Y-64109328D02*
X169793756Y-64021553D01*
X169791639Y-64196733D02*
X169792698Y-64109328D01*
X169790581Y-64284239D02*
X169791639Y-64196733D01*
X169789523Y-64372141D02*
X169790581Y-64284239D01*
X169788464Y-64459769D02*
X169789523Y-64372141D01*
X169789523Y-64546716D02*
X169788464Y-64459769D01*
X169790581Y-64633298D02*
X169789523Y-64546716D01*
X169791639Y-64719978D02*
X169790581Y-64633298D01*
X169792698Y-64807053D02*
X169791639Y-64719978D01*
X169793756Y-64893852D02*
X169792698Y-64807053D01*
X169800185Y-64981315D02*
X169793756Y-64893852D01*
X169806562Y-65068414D02*
X169800185Y-64981315D01*
X169812965Y-65155610D02*
X169806562Y-65068414D01*
X169819394Y-65243203D02*
X169812965Y-65155610D01*
X169825797Y-65330518D02*
X169819394Y-65243203D01*
X169841222Y-65419328D02*
X169825797Y-65330518D01*
X169856568Y-65507765D02*
X169841222Y-65419328D01*
X169871940Y-65596302D02*
X169856568Y-65507765D01*
X169887392Y-65685242D02*
X169871940Y-65596302D01*
X169902791Y-65773901D02*
X169887392Y-65685242D01*
X169914909Y-65819134D02*
X169902791Y-65773901D01*
X169926974Y-65864177D02*
X169914909Y-65819134D01*
X169939039Y-65909270D02*
X169926974Y-65864177D01*
X169951157Y-65954569D02*
X169939039Y-65909270D01*
X169963248Y-65999726D02*
X169951157Y-65954569D01*
X169978885Y-66045787D02*
X169963248Y-65999726D01*
X169994443Y-66091655D02*
X169978885Y-66045787D01*
X170010027Y-66137574D02*
X169994443Y-66091655D01*
X170025690Y-66183704D02*
X170010027Y-66137574D01*
X170041300Y-66229686D02*
X170025690Y-66183704D01*
X170060959Y-66276575D02*
X170041300Y-66229686D01*
X170080538Y-66323266D02*
X170060959Y-66276575D01*
X170100144Y-66370013D02*
X170080538Y-66323266D01*
X170119829Y-66416971D02*
X170100144Y-66370013D01*
X170139461Y-66463781D02*
X170119829Y-66416971D01*
X170163485Y-66511705D02*
X170139461Y-66463781D01*
X170187403Y-66559428D02*
X170163485Y-66511705D01*
X170211348Y-66607206D02*
X170187403Y-66559428D01*
X170235399Y-66655199D02*
X170211348Y-66607206D01*
X170259370Y-66703044D02*
X170235399Y-66655199D01*
X170263100Y-66776431D02*
X170259370Y-66703044D01*
X170266805Y-66849509D02*
X170263100Y-66776431D01*
X170270509Y-66922672D02*
X170266805Y-66849509D01*
X170274239Y-66996165D02*
X170270509Y-66922672D01*
X170277970Y-67069428D02*
X170274239Y-66996165D01*
X170275324Y-67124493D02*
X170277970Y-67069428D01*
X170272678Y-67179328D02*
X170275324Y-67124493D01*
X170270033Y-67234227D02*
X170272678Y-67179328D01*
X170267387Y-67289374D02*
X170270033Y-67234227D01*
X170264741Y-67344346D02*
X170267387Y-67289374D01*
X170257703Y-67387820D02*
X170264741Y-67344346D01*
X170250691Y-67431111D02*
X170257703Y-67387820D01*
X170243680Y-67474452D02*
X170250691Y-67431111D01*
X170236642Y-67517990D02*
X170243680Y-67474452D01*
X170229604Y-67561389D02*
X170236642Y-67517990D01*
X170219762Y-67599997D02*
X170229604Y-67561389D01*
X170209972Y-67638444D02*
X170219762Y-67599997D01*
X170200183Y-67676933D02*
X170209972Y-67638444D01*
X170190340Y-67715599D02*
X170200183Y-67676933D01*
X170180524Y-67754141D02*
X170190340Y-67715599D01*
X170169650Y-67794717D02*
X170180524Y-67754141D01*
X170158828Y-67835122D02*
X170169650Y-67794717D01*
X170147980Y-67875571D02*
X170158828Y-67835122D01*
X170137106Y-67916206D02*
X170147980Y-67875571D01*
X170126258Y-67956714D02*
X170137106Y-67916206D01*
X170116124Y-68005879D02*
X170126258Y-67956714D01*
X170106017Y-68054840D02*
X170116124Y-68005879D01*
X170095910Y-68103854D02*
X170106017Y-68054840D01*
X170085750Y-68153093D02*
X170095910Y-68103854D01*
X170075617Y-68202176D02*
X170085750Y-68153093D01*
X170067759Y-68266763D02*
X170075617Y-68202176D01*
X170059927Y-68331083D02*
X170067759Y-68266763D01*
X170052095Y-68395472D02*
X170059927Y-68331083D01*
X170044211Y-68460158D02*
X170052095Y-68395472D01*
X170036353Y-68524636D02*
X170044211Y-68460158D01*
X170032622Y-68611272D02*
X170036353Y-68524636D01*
X170028918Y-68697544D02*
X170032622Y-68611272D01*
X170025214Y-68783918D02*
X170028918Y-68697544D01*
X170021483Y-68870680D02*
X170025214Y-68783918D01*
X170017752Y-68957169D02*
X170021483Y-68870680D01*
X170025716Y-69304750D02*
X170017752Y-68957169D01*
X170033680Y-69652640D02*
X170025716Y-69304750D01*
X170041644Y-70000443D02*
X170033680Y-69652640D01*
X170049608Y-70348364D02*
X170041644Y-70000443D01*
X170057572Y-70696080D02*
X170049608Y-70348364D01*
X170072759Y-71015048D02*
X170057572Y-70696080D01*
X170087946Y-71334300D02*
X170072759Y-71015048D01*
X170103133Y-71653475D02*
X170087946Y-71334300D01*
X170118320Y-71972755D02*
X170103133Y-71653475D01*
X170133508Y-72291848D02*
X170118320Y-71972755D01*
X170158299Y-72598421D02*
X170133508Y-72291848D01*
X170183117Y-72905269D02*
X170158299Y-72598421D01*
X170207935Y-73212037D02*
X170183117Y-72905269D01*
X170232753Y-73518914D02*
X170207935Y-73212037D01*
X170257544Y-73825606D02*
X170232753Y-73518914D01*
X170294419Y-74136208D02*
X170257544Y-73825606D01*
X170331329Y-74447086D02*
X170294419Y-74136208D01*
X170368227Y-74757886D02*
X170331329Y-74447086D01*
X170405139Y-75068796D02*
X170368227Y-74757886D01*
X170442030Y-75379517D02*
X170405139Y-75068796D01*
X170450603Y-75542500D02*
X170442030Y-75379517D01*
X170459202Y-75705613D02*
X170450603Y-75542500D01*
X170467774Y-75868443D02*
X170459202Y-75705613D01*
X170476347Y-76031495D02*
X170467774Y-75868443D01*
X170484919Y-76194452D02*
X170476347Y-76031495D01*
X170489258Y-76344725D02*
X170484919Y-76194452D01*
X170493598Y-76495117D02*
X170489258Y-76344725D01*
X170497937Y-76645247D02*
X170493598Y-76495117D01*
X170502276Y-76795583D02*
X170497937Y-76645247D01*
X170506615Y-76945829D02*
X170502276Y-76795583D01*
X170513441Y-77198832D02*
X170506615Y-76945829D01*
X170520268Y-77452035D02*
X170513441Y-77198832D01*
X170527067Y-77704800D02*
X170520268Y-77452035D01*
X170533894Y-77957908D02*
X170527067Y-77704800D01*
X170540720Y-78210868D02*
X170533894Y-77957908D01*
X170548287Y-78309309D02*
X170540720Y-78210868D01*
X170555828Y-78407297D02*
X170548287Y-78309309D01*
X170563368Y-78505344D02*
X170555828Y-78407297D01*
X170570882Y-78603213D02*
X170563368Y-78505344D01*
X170578423Y-78701276D02*
X170570882Y-78603213D01*
X170584429Y-78742265D02*
X170578423Y-78701276D01*
X170590409Y-78783083D02*
X170584429Y-78742265D01*
X170596388Y-78823945D02*
X170590409Y-78783083D01*
X170602394Y-78864995D02*
X170596388Y-78823945D01*
X170608374Y-78905915D02*
X170602394Y-78864995D01*
X170616232Y-78941211D02*
X170608374Y-78905915D01*
X170624064Y-78976361D02*
X170616232Y-78941211D01*
X170631895Y-79011548D02*
X170624064Y-78976361D01*
X170639780Y-79046896D02*
X170631895Y-79011548D01*
X170647638Y-79082133D02*
X170639780Y-79046896D01*
X170657666Y-79111213D02*
X170647638Y-79082133D01*
X170667667Y-79140172D02*
X170657666Y-79111213D01*
X170677774Y-79169475D02*
X170667667Y-79140172D01*
X170687722Y-79198306D02*
X170677774Y-79169475D01*
X170697750Y-79227342D02*
X170687722Y-79198306D01*
X170710476Y-79250413D02*
X170697750Y-79227342D01*
X170723150Y-79273353D02*
X170710476Y-79250413D01*
X170735665Y-79296028D02*
X170723150Y-79273353D01*
X170748180Y-79318702D02*
X170735665Y-79296028D01*
X170760800Y-79341536D02*
X170748180Y-79318702D01*
X170776384Y-79357649D02*
X170760800Y-79341536D01*
X170791889Y-79373683D02*
X170776384Y-79357649D01*
X170807235Y-79389531D02*
X170791889Y-79373683D01*
X170822607Y-79405433D02*
X170807235Y-79389531D01*
X170838297Y-79421652D02*
X170822607Y-79405433D01*
X170857003Y-79430912D02*
X170838297Y-79421652D01*
X170875603Y-79440120D02*
X170857003Y-79430912D01*
X170894018Y-79449221D02*
X170875603Y-79440120D01*
X170912486Y-79458349D02*
X170894018Y-79449221D01*
X170931324Y-79467663D02*
X170912486Y-79458349D01*
X171377652Y-79623635D02*
X170931324Y-79467663D01*
X171824378Y-79779747D02*
X171377652Y-79623635D01*
X172270994Y-79935819D02*
X171824378Y-79779747D01*
X172717759Y-80091945D02*
X172270994Y-79935819D01*
X173164262Y-80247977D02*
X172717759Y-80091945D01*
X173409824Y-80336549D02*
X173164262Y-80247977D01*
X173655577Y-80425190D02*
X173409824Y-80336549D01*
X173900910Y-80513677D02*
X173655577Y-80425190D01*
X174146573Y-80602286D02*
X173900910Y-80513677D01*
X174392093Y-80690842D02*
X174146573Y-80602286D01*
X174643547Y-80789130D02*
X174392093Y-80690842D01*
X174895198Y-80887494D02*
X174643547Y-80789130D01*
X175146414Y-80985688D02*
X174895198Y-80887494D01*
X175397972Y-81084018D02*
X175146414Y-80985688D01*
X175649382Y-81182287D02*
X175397972Y-81084018D01*
X175775160Y-81235720D02*
X175649382Y-81182287D01*
X175901038Y-81289195D02*
X175775160Y-81235720D01*
X176026696Y-81342574D02*
X175901038Y-81289195D01*
X176152527Y-81396031D02*
X176026696Y-81342574D01*
X176278283Y-81449453D02*
X176152527Y-81396031D01*
X176403132Y-81506089D02*
X176278283Y-81449453D01*
X176528079Y-81562769D02*
X176403132Y-81506089D01*
X176652809Y-81619352D02*
X176528079Y-81562769D01*
X176777708Y-81676013D02*
X176652809Y-81619352D01*
X176902536Y-81732639D02*
X176777708Y-81676013D01*
X177025522Y-81792789D02*
X176902536Y-81732639D01*
X177148606Y-81852987D02*
X177025522Y-81792789D01*
X177271479Y-81913079D02*
X177148606Y-81852987D01*
X177394518Y-81973256D02*
X177271479Y-81913079D01*
X177517483Y-82033396D02*
X177394518Y-81973256D01*
X177637681Y-82097163D02*
X177517483Y-82033396D01*
X177757974Y-82160981D02*
X177637681Y-82097163D01*
X177878057Y-82224690D02*
X177757974Y-82160981D01*
X177998305Y-82288484D02*
X177878057Y-82224690D01*
X178118482Y-82352240D02*
X177998305Y-82288484D01*
X178235166Y-82420040D02*
X178118482Y-82352240D01*
X178351939Y-82487889D02*
X178235166Y-82420040D01*
X178468515Y-82555625D02*
X178351939Y-82487889D01*
X178585246Y-82623451D02*
X178468515Y-82555625D01*
X178701909Y-82691238D02*
X178585246Y-82623451D01*
X178814148Y-82763273D02*
X178701909Y-82691238D01*
X178926474Y-82835367D02*
X178814148Y-82763273D01*
X179038610Y-82907333D02*
X178926474Y-82835367D01*
X179150894Y-82979401D02*
X179038610Y-82907333D01*
X179263114Y-83051423D02*
X179150894Y-82979401D01*
X179370186Y-83127903D02*
X179263114Y-83051423D01*
X179477342Y-83204442D02*
X179370186Y-83127903D01*
X179584313Y-83280851D02*
X179477342Y-83204442D01*
X179691430Y-83357361D02*
X179584313Y-83280851D01*
X179798483Y-83433828D02*
X179691430Y-83357361D01*
X179899456Y-83515063D02*
X179798483Y-83433828D01*
X180000510Y-83596359D02*
X179899456Y-83515063D01*
X180101388Y-83677517D02*
X180000510Y-83596359D01*
X180202403Y-83758786D02*
X180101388Y-83677517D01*
X180303360Y-83840005D02*
X180202403Y-83758786D01*
X180320082Y-83857336D02*
X180303360Y-83840005D01*
X180336698Y-83874560D02*
X180320082Y-83857336D01*
X180353102Y-83891599D02*
X180336698Y-83874560D01*
X180369506Y-83908638D02*
X180353102Y-83891599D01*
X180386043Y-83925783D02*
X180369506Y-83908638D01*
X180399510Y-83945839D02*
X180386043Y-83925783D01*
X180412898Y-83965762D02*
X180399510Y-83945839D01*
X180426127Y-83985447D02*
X180412898Y-83965762D01*
X180439356Y-84005158D02*
X180426127Y-83985447D01*
X180452691Y-84025002D02*
X180439356Y-84005158D01*
X180472773Y-84071892D02*
X180452691Y-84025002D01*
X180492776Y-84118583D02*
X180472773Y-84071892D01*
X180512805Y-84165329D02*
X180492776Y-84118583D01*
X180532913Y-84212285D02*
X180512805Y-84165329D01*
X180552968Y-84259095D02*
X180532913Y-84212285D01*
X180567864Y-84313541D02*
X180552968Y-84259095D01*
X180582708Y-84367757D02*
X180567864Y-84313541D01*
X180597577Y-84422036D02*
X180582708Y-84367757D01*
X180612500Y-84476561D02*
X180597577Y-84422036D01*
X180627369Y-84530915D02*
X180612500Y-84476561D01*
X180641551Y-84590536D02*
X180627369Y-84530915D01*
X180655680Y-84649906D02*
X180641551Y-84590536D01*
X180669808Y-84709344D02*
X180655680Y-84649906D01*
X180684017Y-84769050D02*
X180669808Y-84709344D01*
X180698172Y-84828571D02*
X180684017Y-84769050D01*
X180716375Y-84891296D02*
X180698172Y-84828571D01*
X180734525Y-84953758D02*
X180716375Y-84891296D01*
X180752676Y-85016293D02*
X180734525Y-84953758D01*
X180770932Y-85079110D02*
X180752676Y-85016293D01*
X180789109Y-85141729D02*
X180770932Y-85079110D01*
X180815813Y-85205179D02*
X180789109Y-85141729D01*
X180842407Y-85268364D02*
X180815813Y-85205179D01*
X180869029Y-85331620D02*
X180842407Y-85268364D01*
X180895773Y-85395163D02*
X180869029Y-85331620D01*
X180922433Y-85458507D02*
X180895773Y-85395163D01*
X180940451Y-85489759D02*
X180922433Y-85458507D01*
X180958389Y-85520882D02*
X180940451Y-85489759D01*
X180976540Y-85552378D02*
X180958389Y-85520882D01*
X180994399Y-85583361D02*
X180976540Y-85552378D01*
X181012391Y-85614569D02*
X180994399Y-85583361D01*
X181034325Y-85645207D02*
X181012391Y-85614569D01*
X181056179Y-85675716D02*
X181034325Y-85645207D01*
X181078060Y-85706260D02*
X181056179Y-85675716D01*
X181100021Y-85736944D02*
X181078060Y-85706260D01*
X181121928Y-85767529D02*
X181100021Y-85736944D01*
X181148228Y-85797237D02*
X181121928Y-85767529D01*
X181174422Y-85826817D02*
X181148228Y-85797237D01*
X181200642Y-85856435D02*
X181174422Y-85826817D01*
X181226968Y-85886184D02*
X181200642Y-85856435D01*
X181253215Y-85915842D02*
X181226968Y-85886184D01*
X181284578Y-85944306D02*
X181253215Y-85915842D01*
X181315810Y-85972650D02*
X181284578Y-85944306D01*
X181347076Y-86001030D02*
X181315810Y-85972650D01*
X181378484Y-86029536D02*
X181347076Y-86001030D01*
X181409795Y-86057952D02*
X181378484Y-86029536D01*
X181539605Y-86173395D02*
X181409795Y-86057952D01*
X181669515Y-86288928D02*
X181539605Y-86173395D01*
X181799204Y-86404262D02*
X181669515Y-86288928D01*
X181929066Y-86519756D02*
X181799204Y-86404262D01*
X182058852Y-86635178D02*
X181929066Y-86519756D01*
X182172951Y-86744109D02*
X182058852Y-86635178D01*
X182287140Y-86853128D02*
X182172951Y-86744109D01*
X182401133Y-86961956D02*
X182287140Y-86853128D01*
X182515280Y-87070936D02*
X182401133Y-86961956D01*
X182629360Y-87179849D02*
X182515280Y-87070936D01*
X182728992Y-87283200D02*
X182629360Y-87179849D01*
X182828700Y-87386631D02*
X182728992Y-87283200D01*
X182928236Y-87489885D02*
X182828700Y-87386631D01*
X183027907Y-87593279D02*
X182928236Y-87489885D01*
X183127520Y-87696612D02*
X183027907Y-87593279D01*
X183213507Y-87795518D02*
X183127520Y-87696612D01*
X183299563Y-87894504D02*
X183213507Y-87795518D01*
X183385471Y-87993318D02*
X183299563Y-87894504D01*
X183471495Y-88092264D02*
X183385471Y-87993318D01*
X183557468Y-88191155D02*
X183471495Y-88092264D01*
X183630848Y-88286651D02*
X183557468Y-88191155D01*
X183704286Y-88382224D02*
X183630848Y-88286651D01*
X183777594Y-88477630D02*
X183704286Y-88382224D01*
X183851005Y-88573166D02*
X183777594Y-88477630D01*
X183924371Y-88668646D02*
X183851005Y-88573166D01*
X183986506Y-88762004D02*
X183924371Y-88668646D01*
X184048355Y-88854934D02*
X183986506Y-88762004D01*
X184110241Y-88947916D02*
X184048355Y-88854934D01*
X184172016Y-89040735D02*
X184110241Y-88947916D01*
X184233913Y-89133733D02*
X184172016Y-89040735D01*
X184285467Y-89225848D02*
X184233913Y-89133733D01*
X184336785Y-89317537D02*
X184285467Y-89225848D01*
X184388133Y-89409281D02*
X184336785Y-89317537D01*
X184439388Y-89500861D02*
X184388133Y-89409281D01*
X184490744Y-89592621D02*
X184439388Y-89500861D01*
X184532754Y-89684321D02*
X184490744Y-89592621D01*
X184574574Y-89775596D02*
X184532754Y-89684321D01*
X184616415Y-89866928D02*
X184574574Y-89775596D01*
X184658185Y-89958093D02*
X184616415Y-89866928D01*
X184700034Y-90049440D02*
X184658185Y-89958093D01*
X184733538Y-90141864D02*
X184700034Y-90049440D01*
X184766892Y-90233863D02*
X184733538Y-90141864D01*
X184800261Y-90325919D02*
X184766892Y-90233863D01*
X184833572Y-90417806D02*
X184800261Y-90325919D01*
X184866949Y-90509876D02*
X184833572Y-90417806D01*
X184892984Y-90604065D02*
X184866949Y-90509876D01*
X184918887Y-90697820D02*
X184892984Y-90604065D01*
X184944816Y-90791631D02*
X184918887Y-90697820D01*
X184970692Y-90885272D02*
X184944816Y-90791631D01*
X184996622Y-90979099D02*
X184970692Y-90885272D01*
X185016227Y-91076087D02*
X184996622Y-90979099D01*
X185035753Y-91172631D02*
X185016227Y-91076087D01*
X185055280Y-91269230D02*
X185035753Y-91172631D01*
X185074780Y-91365658D02*
X185055280Y-91269230D01*
X185094306Y-91462273D02*
X185074780Y-91365658D01*
X185108514Y-91563100D02*
X185094306Y-91462273D01*
X185122669Y-91663462D02*
X185108514Y-91563100D01*
X185136824Y-91763887D02*
X185122669Y-91663462D01*
X185150953Y-91864130D02*
X185136824Y-91763887D01*
X185165108Y-91964568D02*
X185150953Y-91864130D01*
X185174977Y-92070375D02*
X185165108Y-91964568D01*
X185184793Y-92175693D02*
X185174977Y-92070375D01*
X185194609Y-92281076D02*
X185184793Y-92175693D01*
X185204399Y-92386269D02*
X185194609Y-92281076D01*
X185214215Y-92491669D02*
X185204399Y-92386269D01*
X185220644Y-92603283D02*
X185214215Y-92491669D01*
X185227047Y-92714384D02*
X185220644Y-92603283D01*
X185233450Y-92825554D02*
X185227047Y-92714384D01*
X185239853Y-92936521D02*
X185233450Y-92825554D01*
X185246256Y-93047706D02*
X185239853Y-92936521D01*
X185253082Y-93292131D02*
X185246256Y-93047706D01*
X185259908Y-93536749D02*
X185253082Y-93292131D01*
X185266735Y-93780944D02*
X185259908Y-93536749D01*
X185273561Y-94025472D02*
X185266735Y-93780944D01*
X185280387Y-94269854D02*
X185273561Y-94025472D01*
X185337818Y-94598120D02*
X185280387Y-94269854D01*
X185395301Y-94926677D02*
X185337818Y-94598120D01*
X185452769Y-95255152D02*
X185395301Y-94926677D01*
X185510255Y-95583738D02*
X185452769Y-95255152D01*
X185567709Y-95912131D02*
X185510255Y-95583738D01*
X185594374Y-96075632D02*
X185567709Y-95912131D01*
X185621059Y-96239261D02*
X185594374Y-96075632D01*
X185647698Y-96402607D02*
X185621059Y-96239261D01*
X185674373Y-96566178D02*
X185647698Y-96402607D01*
X185701032Y-96729651D02*
X185674373Y-96566178D01*
X185722728Y-96884575D02*
X185701032Y-96729651D01*
X185744451Y-97039618D02*
X185722728Y-96884575D01*
X185766146Y-97194397D02*
X185744451Y-97039618D01*
X185787869Y-97349384D02*
X185766146Y-97194397D01*
X185809564Y-97504282D02*
X185787869Y-97349384D01*
X185823720Y-97644426D02*
X185809564Y-97504282D01*
X185837875Y-97784679D02*
X185823720Y-97644426D01*
X185852030Y-97924692D02*
X185837875Y-97784679D01*
X185866185Y-98064894D02*
X185852030Y-97924692D01*
X185880341Y-98205015D02*
X185866185Y-98064894D01*
X185884389Y-98324411D02*
X185880341Y-98205015D01*
X185888437Y-98443876D02*
X185884389Y-98324411D01*
X185892458Y-98563102D02*
X185888437Y-98443876D01*
X185896480Y-98682114D02*
X185892458Y-98563102D01*
X185900502Y-98801359D02*
X185896480Y-98682114D01*
X185897856Y-98851352D02*
X185900502Y-98801359D01*
X185895210Y-98901139D02*
X185897856Y-98851352D01*
X185892564Y-98950979D02*
X185895210Y-98901139D01*
X185889918Y-99001046D02*
X185892564Y-98950979D01*
X185887273Y-99050957D02*
X185889918Y-99001046D01*
X185881161Y-99093499D02*
X185887273Y-99050957D01*
X185875075Y-99135861D02*
X185881161Y-99093499D01*
X185868990Y-99178274D02*
X185875075Y-99135861D01*
X185862878Y-99220877D02*
X185868990Y-99178274D01*
X185856793Y-99263348D02*
X185862878Y-99220877D01*
X185846871Y-99297604D02*
X185856793Y-99263348D01*
X185836975Y-99331714D02*
X185846871Y-99297604D01*
X185826974Y-99366234D02*
X185836975Y-99331714D01*
X185817132Y-99400193D02*
X185826974Y-99366234D01*
X185807210Y-99434396D02*
X185817132Y-99400193D01*
X185793028Y-99459532D02*
X185807210Y-99434396D01*
X185778899Y-99484588D02*
X185793028Y-99459532D01*
X185764612Y-99509935D02*
X185778899Y-99484588D01*
X185750562Y-99534858D02*
X185764612Y-99509935D01*
X185736407Y-99559967D02*
X185750562Y-99534858D01*
X185689827Y-99622176D02*
X185736407Y-99559967D01*
X185643446Y-99684123D02*
X185689827Y-99622176D01*
X185597009Y-99746141D02*
X185643446Y-99684123D01*
X185550363Y-99808440D02*
X185597009Y-99746141D01*
X185503862Y-99870543D02*
X185550363Y-99808440D01*
X185455007Y-99928093D02*
X185503862Y-99870543D01*
X185406355Y-99985402D02*
X185455007Y-99928093D01*
X185357651Y-100042776D02*
X185406355Y-99985402D01*
X185308724Y-100100411D02*
X185357651Y-100042776D01*
X185259951Y-100157865D02*
X185308724Y-100100411D01*
X185209127Y-100210964D02*
X185259951Y-100157865D01*
X185158520Y-100263841D02*
X185209127Y-100210964D01*
X185107852Y-100316776D02*
X185158520Y-100263841D01*
X185056955Y-100369955D02*
X185107852Y-100316776D01*
X185006218Y-100422964D02*
X185056955Y-100369955D01*
X184953532Y-100472026D02*
X185006218Y-100422964D01*
X184901067Y-100520884D02*
X184953532Y-100472026D01*
X184848545Y-100569795D02*
X184901067Y-100520884D01*
X184795782Y-100618930D02*
X184848545Y-100569795D01*
X184743185Y-100667910D02*
X184795782Y-100618930D01*
X184688739Y-100713040D02*
X184743185Y-100667910D01*
X184634523Y-100757980D02*
X184688739Y-100713040D01*
X184580247Y-100802969D02*
X184634523Y-100757980D01*
X184525722Y-100848165D02*
X184580247Y-100802969D01*
X184471368Y-100893219D02*
X184525722Y-100848165D01*
X184415372Y-100934830D02*
X184471368Y-100893219D01*
X184359608Y-100976263D02*
X184415372Y-100934830D01*
X184303781Y-101017747D02*
X184359608Y-100976263D01*
X184247703Y-101059419D02*
X184303781Y-101017747D01*
X184191799Y-101100959D02*
X184247703Y-101059419D01*
X184134456Y-101139154D02*
X184191799Y-101100959D01*
X184077353Y-101177188D02*
X184134456Y-101139154D01*
X184020185Y-101215264D02*
X184077353Y-101177188D01*
X183962757Y-101253515D02*
X184020185Y-101215264D01*
X183905512Y-101291644D02*
X183962757Y-101253515D01*
X183846822Y-101326733D02*
X183905512Y-101291644D01*
X183788381Y-101361674D02*
X183846822Y-101326733D01*
X183729871Y-101396657D02*
X183788381Y-101361674D01*
X183671094Y-101431797D02*
X183729871Y-101396657D01*
X183612504Y-101466827D02*
X183671094Y-101431797D01*
X183492307Y-101528735D02*
X183612504Y-101466827D01*
X183372016Y-101590689D02*
X183492307Y-101528735D01*
X183251933Y-101652538D02*
X183372016Y-101590689D01*
X183131685Y-101714472D02*
X183251933Y-101652538D01*
X183011508Y-101776369D02*
X183131685Y-101714472D01*
X182888107Y-101829079D02*
X183011508Y-101776369D01*
X182764610Y-101881829D02*
X182888107Y-101829079D01*
X182641325Y-101934489D02*
X182764610Y-101881829D01*
X182517873Y-101987220D02*
X182641325Y-101934489D01*
X182394492Y-102039920D02*
X182517873Y-101987220D01*
X182269231Y-102085497D02*
X182394492Y-102039920D01*
X182143871Y-102131111D02*
X182269231Y-102085497D01*
X182018728Y-102176646D02*
X182143871Y-102131111D01*
X181893414Y-102222245D02*
X182018728Y-102176646D01*
X181768173Y-102267814D02*
X181893414Y-102222245D01*
X181642396Y-102308224D02*
X181768173Y-102267814D01*
X181516517Y-102348665D02*
X181642396Y-102308224D01*
X181390859Y-102389038D02*
X181516517Y-102348665D01*
X181265028Y-102429466D02*
X181390859Y-102389038D01*
X181139272Y-102469868D02*
X181265028Y-102429466D01*
X181024636Y-102502666D02*
X181139272Y-102469868D01*
X180909931Y-102535482D02*
X181024636Y-102502666D01*
X180795459Y-102568235D02*
X180909931Y-102535482D01*
X180681191Y-102600927D02*
X180795459Y-102568235D01*
X180566698Y-102633682D02*
X180681191Y-102600927D01*
X180452165Y-102662445D02*
X180566698Y-102633682D01*
X180337566Y-102691224D02*
X180452165Y-102662445D01*
X180223194Y-102719947D02*
X180337566Y-102691224D01*
X180109029Y-102748617D02*
X180223194Y-102719947D01*
X179994639Y-102777343D02*
X180109029Y-102748617D01*
X179768611Y-102825505D02*
X179994639Y-102777343D01*
X179542403Y-102873704D02*
X179768611Y-102825505D01*
X179316589Y-102921819D02*
X179542403Y-102873704D01*
X179090463Y-102970002D02*
X179316589Y-102921819D01*
X178864474Y-103018154D02*
X179090463Y-102970002D01*
X178439217Y-103096655D02*
X178864474Y-103018154D01*
X178013582Y-103175229D02*
X178439217Y-103096655D01*
X177588053Y-103253784D02*
X178013582Y-103175229D01*
X177162378Y-103332362D02*
X177588053Y-103253784D01*
X176736957Y-103410896D02*
X177162378Y-103332362D01*
X176546687Y-103452443D02*
X176736957Y-103410896D01*
X176356269Y-103494023D02*
X176546687Y-103452443D01*
X176166177Y-103535530D02*
X176356269Y-103494023D01*
X175975828Y-103577094D02*
X176166177Y-103535530D01*
X175785592Y-103618633D02*
X175975828Y-103577094D01*
X175697732Y-103642605D02*
X175785592Y-103618633D01*
X175610277Y-103666444D02*
X175697732Y-103642605D01*
X175522768Y-103690309D02*
X175610277Y-103666444D01*
X175435416Y-103714121D02*
X175522768Y-103690309D01*
X175347895Y-103737987D02*
X175435416Y-103714121D01*
X175266019Y-103764794D02*
X175347895Y-103737987D01*
X175184488Y-103791491D02*
X175266019Y-103764794D01*
X175102864Y-103818219D02*
X175184488Y-103791491D01*
X175020870Y-103845066D02*
X175102864Y-103818219D01*
X174939132Y-103871829D02*
X175020870Y-103845066D01*
X174863779Y-103902365D02*
X174939132Y-103871829D01*
X174788743Y-103932770D02*
X174863779Y-103902365D01*
X174713620Y-103963211D02*
X174788743Y-103932770D01*
X174638155Y-103993791D02*
X174713620Y-103963211D01*
X174562929Y-104024274D02*
X174638155Y-103993791D01*
X174494510Y-104059157D02*
X174562929Y-104024274D01*
X174426377Y-104093891D02*
X174494510Y-104059157D01*
X174358168Y-104128665D02*
X174426377Y-104093891D01*
X174289649Y-104163601D02*
X174358168Y-104128665D01*
X174221346Y-104198423D02*
X174289649Y-104163601D01*
X174160588Y-104238377D02*
X174221346Y-104198423D01*
X174100085Y-104278163D02*
X174160588Y-104238377D01*
X174039512Y-104317996D02*
X174100085Y-104278163D01*
X173978663Y-104358009D02*
X174039512Y-104317996D01*
X173918007Y-104397895D02*
X173978663Y-104358009D01*
X173865320Y-104443644D02*
X173918007Y-104397895D01*
X173812856Y-104489202D02*
X173865320Y-104443644D01*
X173760334Y-104534814D02*
X173812856Y-104489202D01*
X173707571Y-104580632D02*
X173760334Y-104534814D01*
X173654974Y-104626304D02*
X173707571Y-104580632D01*
X173618126Y-104650725D02*
X173654974Y-104626304D01*
X173581430Y-104675041D02*
X173618126Y-104650725D01*
X173544696Y-104699409D02*
X173581430Y-104675041D01*
X173507794Y-104723883D02*
X173544696Y-104699409D01*
X173471007Y-104748277D02*
X173507794Y-104723883D01*
X173438608Y-104776844D02*
X173471007Y-104748277D01*
X173406348Y-104805292D02*
X173438608Y-104776844D01*
X173374047Y-104833775D02*
X173406348Y-104805292D01*
X173341602Y-104862384D02*
X173374047Y-104833775D01*
X173309259Y-104890903D02*
X173341602Y-104862384D01*
X173281105Y-104923302D02*
X173309259Y-104890903D01*
X173253069Y-104955562D02*
X173281105Y-104923302D01*
X173225000Y-104987863D02*
X173253069Y-104955562D01*
X173196806Y-105020309D02*
X173225000Y-104987863D01*
X173168699Y-105052651D02*
X173196806Y-105020309D01*
X173144675Y-105088465D02*
X173168699Y-105052651D01*
X173120757Y-105124128D02*
X173144675Y-105088465D01*
X173096812Y-105159831D02*
X173120757Y-105124128D01*
X173072761Y-105195698D02*
X173096812Y-105159831D01*
X173048790Y-105231451D02*
X173072761Y-105195698D01*
X173029025Y-105270059D02*
X173048790Y-105231451D01*
X173009340Y-105308506D02*
X173029025Y-105270059D01*
X172989629Y-105346995D02*
X173009340Y-105308506D01*
X172969838Y-105385661D02*
X172989629Y-105346995D01*
X172950100Y-105424203D02*
X172969838Y-105385661D01*
X172934252Y-105465399D02*
X172950100Y-105424203D01*
X172918483Y-105506422D02*
X172934252Y-105465399D01*
X172902687Y-105547493D02*
X172918483Y-105506422D01*
X172886838Y-105588750D02*
X172902687Y-105547493D01*
X172871016Y-105629877D02*
X172886838Y-105588750D01*
X172859216Y-105672935D02*
X172871016Y-105629877D01*
X172847468Y-105715813D02*
X172859216Y-105672935D01*
X172835694Y-105758742D02*
X172847468Y-105715813D01*
X172823868Y-105801864D02*
X172835694Y-105758742D01*
X172812094Y-105844851D02*
X172823868Y-105801864D01*
X172804235Y-105889565D02*
X172812094Y-105844851D01*
X172796404Y-105934095D02*
X172804235Y-105889565D01*
X172788572Y-105978672D02*
X172796404Y-105934095D01*
X172780688Y-106023452D02*
X172788572Y-105978672D01*
X172772829Y-106068093D02*
X172780688Y-106023452D01*
X172768781Y-106113842D02*
X172772829Y-106068093D01*
X172764760Y-106159401D02*
X172768781Y-106113842D01*
X172760738Y-106205012D02*
X172764760Y-106159401D01*
X172756690Y-106250830D02*
X172760738Y-106205012D01*
X172752668Y-106296502D02*
X172756690Y-106250830D01*
X172752457Y-106342976D02*
X172752668Y-106296502D01*
X172752245Y-106389257D02*
X172752457Y-106342976D01*
X172752033Y-106435589D02*
X172752245Y-106389257D01*
X172751822Y-106482131D02*
X172752033Y-106435589D01*
X172751610Y-106528529D02*
X172751822Y-106482131D01*
X172755023Y-106575109D02*
X172751610Y-106528529D01*
X172758410Y-106621490D02*
X172755023Y-106575109D01*
X172761823Y-106667927D02*
X172758410Y-106621490D01*
X172765236Y-106714573D02*
X172761823Y-106667927D01*
X172768649Y-106761074D02*
X172765236Y-106714573D01*
X172775793Y-106807548D02*
X172768649Y-106761074D01*
X172782910Y-106853829D02*
X172775793Y-106807548D01*
X172790027Y-106900160D02*
X172782910Y-106853829D01*
X172797171Y-106946703D02*
X172790027Y-106900160D01*
X172804288Y-106993100D02*
X172797171Y-106946703D01*
X172814845Y-107038746D02*
X172804288Y-106993100D01*
X172825349Y-107084201D02*
X172814845Y-107038746D01*
X172835880Y-107129710D02*
X172825349Y-107084201D01*
X172846463Y-107175424D02*
X172835880Y-107129710D01*
X172856993Y-107220994D02*
X172846463Y-107175424D01*
X172871175Y-107265605D02*
X172856993Y-107220994D01*
X172885304Y-107310031D02*
X172871175Y-107265605D01*
X172899433Y-107354505D02*
X172885304Y-107310031D01*
X172913641Y-107399183D02*
X172899433Y-107354505D01*
X172927796Y-107443720D02*
X172913641Y-107399183D01*
X172945285Y-107486675D02*
X172927796Y-107443720D01*
X172962694Y-107529450D02*
X172945285Y-107486675D01*
X172980130Y-107572273D02*
X172962694Y-107529450D01*
X172997646Y-107615292D02*
X172980130Y-107572273D01*
X173015108Y-107658175D02*
X172997646Y-107615292D01*
X173036010Y-107699164D02*
X173015108Y-107658175D01*
X173056833Y-107739982D02*
X173036010Y-107699164D01*
X173077682Y-107780844D02*
X173056833Y-107739982D01*
X173098611Y-107821894D02*
X173077682Y-107780844D01*
X173119487Y-107862815D02*
X173098611Y-107821894D01*
X173128271Y-107887050D02*
X173119487Y-107862815D01*
X173137002Y-107911127D02*
X173128271Y-107887050D01*
X173145627Y-107934940D02*
X173137002Y-107911127D01*
X173154253Y-107958752D02*
X173145627Y-107934940D01*
X173162931Y-107982724D02*
X173154253Y-107958752D01*
X173162717Y-108007462D02*
X173162931Y-107982724D01*
X173162505Y-108032069D02*
X173162717Y-108007462D01*
X173162293Y-108056384D02*
X173162505Y-108032069D01*
X173162084Y-108080699D02*
X173162293Y-108056384D01*
X173161873Y-108105199D02*
X173162084Y-108080699D01*
X173154941Y-108131499D02*
X173161873Y-108105199D01*
X173148035Y-108157666D02*
X173154941Y-108131499D01*
X173141050Y-108184156D02*
X173148035Y-108157666D01*
X173134171Y-108210218D02*
X173141050Y-108184156D01*
X173127239Y-108236464D02*
X173134171Y-108210218D01*
X173115650Y-108265854D02*
X173127239Y-108236464D01*
X173104114Y-108295123D02*
X173115650Y-108265854D01*
X173092420Y-108324740D02*
X173104114Y-108295123D01*
X173080937Y-108353879D02*
X173092420Y-108324740D01*
X173069374Y-108383226D02*
X173080937Y-108353879D01*
X173040702Y-108456717D02*
X173069374Y-108383226D01*
X173012150Y-108529898D02*
X173040702Y-108456717D01*
X172983567Y-108603164D02*
X173012150Y-108529898D01*
X172954852Y-108676763D02*
X172983567Y-108603164D01*
X172926230Y-108750129D02*
X172954852Y-108676763D01*
X172913291Y-108796810D02*
X172926230Y-108750129D01*
X172900406Y-108843297D02*
X172913291Y-108796810D01*
X172887521Y-108889834D02*
X172900406Y-108843297D01*
X172874556Y-108936584D02*
X172887521Y-108889834D01*
X172861645Y-108983187D02*
X172874556Y-108936584D01*
X172852437Y-109038252D02*
X172861645Y-108983187D01*
X172843256Y-109093090D02*
X172852437Y-109038252D01*
X172834075Y-109147988D02*
X172843256Y-109093090D01*
X172824841Y-109203135D02*
X172834075Y-109147988D01*
X172815634Y-109258108D02*
X172824841Y-109203135D01*
X172830106Y-109548319D02*
X172815634Y-109258108D01*
X172844579Y-109838755D02*
X172830106Y-109548319D01*
X172859025Y-110128690D02*
X172844579Y-109838755D01*
X172873498Y-110419023D02*
X172859025Y-110128690D01*
X172887971Y-110709181D02*
X172873498Y-110419023D01*
X172906359Y-110995463D02*
X172887971Y-110709181D01*
X172924774Y-111281969D02*
X172906359Y-110995463D01*
X172943163Y-111567984D02*
X172924774Y-111281969D01*
X172961578Y-111854387D02*
X172943163Y-111567984D01*
X172979966Y-112140619D02*
X172961578Y-111854387D01*
X173023350Y-112704081D02*
X172979966Y-112140619D01*
X173066771Y-113268046D02*
X173023350Y-112704081D01*
X173110181Y-113831870D02*
X173066771Y-113268046D01*
X173153607Y-114395888D02*
X173110181Y-113831870D01*
X173197007Y-114959569D02*
X173153607Y-114395888D01*
X173240081Y-115516422D02*
X173197007Y-114959569D01*
X173283192Y-116073769D02*
X173240081Y-115516422D01*
X173326293Y-116630976D02*
X173283192Y-116073769D01*
X173369407Y-117188377D02*
X173326293Y-116630976D01*
X173412497Y-117745444D02*
X173369407Y-117188377D01*
X173430488Y-118023251D02*
X173412497Y-117745444D01*
X173448480Y-118301278D02*
X173430488Y-118023251D01*
X173466445Y-118578823D02*
X173448480Y-118301278D01*
X173484437Y-118856747D02*
X173466445Y-118578823D01*
X173502429Y-119134506D02*
X173484437Y-118856747D01*
X173516266Y-119412935D02*
X173502429Y-119134506D01*
X173530130Y-119691581D02*
X173516266Y-119412935D01*
X173543968Y-119969746D02*
X173530130Y-119691581D01*
X173557832Y-120248291D02*
X173543968Y-119969746D01*
X173571670Y-120526670D02*
X173557832Y-120248291D01*
X173587598Y-120680043D02*
X173571670Y-120526670D01*
X173603526Y-120833536D02*
X173587598Y-120680043D01*
X173619427Y-120986764D02*
X173603526Y-120833536D01*
X173635355Y-121140201D02*
X173619427Y-120986764D01*
X173651257Y-121293549D02*
X173635355Y-121140201D01*
X173664909Y-121482165D02*
X173651257Y-121293549D01*
X173678562Y-121670926D02*
X173664909Y-121482165D01*
X173692188Y-121859365D02*
X173678562Y-121670926D01*
X173705840Y-122048061D02*
X173692188Y-121859365D01*
X173719466Y-122236643D02*
X173705840Y-122048061D01*
X173733621Y-122444481D02*
X173719466Y-122236643D01*
X173747803Y-122652483D02*
X173733621Y-122444481D01*
X173761958Y-122860128D02*
X173747803Y-122652483D01*
X173776114Y-123068053D02*
X173761958Y-122860128D01*
X173790269Y-123275857D02*
X173776114Y-123068053D01*
X173807520Y-123487209D02*
X173790269Y-123275857D01*
X173824797Y-123698727D02*
X173807520Y-123487209D01*
X173842048Y-123909883D02*
X173824797Y-123698727D01*
X173859325Y-124121325D02*
X173842048Y-123909883D01*
X173876576Y-124332640D02*
X173859325Y-124121325D01*
X173899833Y-124531591D02*
X173876576Y-124332640D01*
X173923116Y-124730698D02*
X173899833Y-124531591D01*
X173946346Y-124929461D02*
X173923116Y-124730698D01*
X173969603Y-125128493D02*
X173946346Y-124929461D01*
X173992860Y-125327410D02*
X173969603Y-125128493D01*
X174007492Y-125417553D02*
X173992860Y-125327410D01*
X174022044Y-125507282D02*
X174007492Y-125417553D01*
X174036622Y-125597063D02*
X174022044Y-125507282D01*
X174051174Y-125686682D02*
X174036622Y-125597063D01*
X174065753Y-125776479D02*
X174051174Y-125686682D01*
X174082924Y-125857317D02*
X174065753Y-125776479D01*
X174100043Y-125937819D02*
X174082924Y-125857317D01*
X174117161Y-126018412D02*
X174100043Y-125937819D01*
X174134359Y-126099369D02*
X174117161Y-126018412D01*
X174151504Y-126180072D02*
X174134359Y-126099369D01*
X174171586Y-126249835D02*
X174151504Y-126180072D01*
X174191589Y-126319306D02*
X174171586Y-126249835D01*
X174211618Y-126388857D02*
X174191589Y-126319306D01*
X174231726Y-126458723D02*
X174211618Y-126388857D01*
X174251781Y-126528369D02*
X174231726Y-126458723D01*
X174274853Y-126585091D02*
X174251781Y-126528369D01*
X174297845Y-126641577D02*
X174274853Y-126585091D01*
X174320864Y-126698126D02*
X174297845Y-126641577D01*
X174343989Y-126754932D02*
X174320864Y-126698126D01*
X174367034Y-126811558D02*
X174343989Y-126754932D01*
X174393738Y-126853167D02*
X174367034Y-126811558D01*
X174420332Y-126894603D02*
X174393738Y-126853167D01*
X174446957Y-126936084D02*
X174420332Y-126894603D01*
X174473701Y-126977756D02*
X174446957Y-126936084D01*
X174500360Y-127019296D02*
X174473701Y-126977756D01*
X174515230Y-127033954D02*
X174500360Y-127019296D01*
X174530020Y-127048532D02*
X174515230Y-127033954D01*
X174544651Y-127062952D02*
X174530020Y-127048532D01*
X174559309Y-127077398D02*
X174544651Y-127062952D01*
X174574258Y-127092136D02*
X174559309Y-127077398D01*
X174590160Y-127102216D02*
X174574258Y-127092136D01*
X174605982Y-127112244D02*
X174590160Y-127102216D01*
X174621645Y-127122166D02*
X174605982Y-127112244D01*
X174637335Y-127132114D02*
X174621645Y-127122166D01*
X174653342Y-127142248D02*
X174637335Y-127132114D01*
X174743589Y-127156773D02*
X174653342Y-127142248D01*
X174833418Y-127171220D02*
X174743589Y-127156773D01*
X174923305Y-127185692D02*
X174833418Y-127171220D01*
X175013025Y-127200139D02*
X174923305Y-127185692D01*
X175102925Y-127214611D02*
X175013025Y-127200139D01*
X175199395Y-127224983D02*
X175102925Y-127214611D01*
X175295422Y-127235302D02*
X175199395Y-127224983D01*
X175391506Y-127245647D02*
X175295422Y-127235302D01*
X175487417Y-127255966D02*
X175391506Y-127245647D01*
X175583517Y-127266284D02*
X175487417Y-127255966D01*
X175791561Y-127277953D02*
X175583517Y-127266284D01*
X175999772Y-127289647D02*
X175791561Y-127277953D01*
X176207621Y-127301315D02*
X175999772Y-127289647D01*
X176415753Y-127313010D02*
X176207621Y-127301315D01*
X176623763Y-127324678D02*
X176415753Y-127313010D01*
X176847003Y-127330790D02*
X176623763Y-127324678D01*
X177070414Y-127336902D02*
X176847003Y-127330790D01*
X177293442Y-127342987D02*
X177070414Y-127336902D01*
X177516774Y-127349099D02*
X177293442Y-127342987D01*
X177739974Y-127355184D02*
X177516774Y-127349099D01*
X177971998Y-127363043D02*
X177739974Y-127355184D01*
X178204204Y-127370901D02*
X177971998Y-127363043D01*
X178436008Y-127378759D02*
X178204204Y-127370901D01*
X178668127Y-127386617D02*
X178436008Y-127378759D01*
X178900111Y-127394475D02*
X178668127Y-127386617D01*
X179017541Y-127401513D02*
X178900111Y-127394475D01*
X179135040Y-127408551D02*
X179017541Y-127401513D01*
X179252303Y-127415562D02*
X179135040Y-127408551D01*
X179369355Y-127422574D02*
X179252303Y-127415562D01*
X179486637Y-127429612D02*
X179369355Y-127422574D01*
X179603654Y-127439745D02*
X179486637Y-127429612D01*
X179720737Y-127449879D02*
X179603654Y-127439745D01*
X179837588Y-127460012D02*
X179720737Y-127449879D01*
X179954230Y-127470119D02*
X179837588Y-127460012D01*
X180071099Y-127480253D02*
X179954230Y-127470119D01*
X180187081Y-127494752D02*
X180071099Y-127480253D01*
X180303130Y-127509251D02*
X180187081Y-127494752D01*
X180418946Y-127523724D02*
X180303130Y-127509251D01*
X180534553Y-127538170D02*
X180418946Y-127523724D01*
X180650391Y-127552643D02*
X180534553Y-127538170D01*
X180764408Y-127572090D02*
X180650391Y-127552643D01*
X180878488Y-127591563D02*
X180764408Y-127572090D01*
X180992343Y-127610984D02*
X180878488Y-127591563D01*
X181105990Y-127630378D02*
X180992343Y-127610984D01*
X181219864Y-127649798D02*
X181105990Y-127630378D01*
X181331375Y-127675410D02*
X181219864Y-127649798D01*
X181442373Y-127700915D02*
X181331375Y-127675410D01*
X181553437Y-127726421D02*
X181442373Y-127700915D01*
X181664303Y-127751901D02*
X181553437Y-127726421D01*
X181775386Y-127777433D02*
X181664303Y-127751901D01*
X181883370Y-127810109D02*
X181775386Y-127777433D01*
X181990860Y-127842634D02*
X181883370Y-127810109D01*
X182098410Y-127875178D02*
X181990860Y-127842634D01*
X182205770Y-127907664D02*
X182098410Y-127875178D01*
X182313339Y-127940213D02*
X182205770Y-127907664D01*
X182416863Y-127980771D02*
X182313339Y-127940213D01*
X182519910Y-128021143D02*
X182416863Y-127980771D01*
X182623021Y-128061540D02*
X182519910Y-128021143D01*
X182725944Y-128101865D02*
X182623021Y-128061540D01*
X182829070Y-128142267D02*
X182725944Y-128101865D01*
X182927408Y-128191643D02*
X182829070Y-128142267D01*
X183025293Y-128240792D02*
X182927408Y-128191643D01*
X183123237Y-128289971D02*
X183025293Y-128240792D01*
X183221003Y-128339061D02*
X183123237Y-128289971D01*
X183318962Y-128388247D02*
X183221003Y-128339061D01*
X183362021Y-128418783D02*
X183318962Y-128388247D01*
X183404899Y-128449189D02*
X183362021Y-128418783D01*
X183447828Y-128479629D02*
X183404899Y-128449189D01*
X183490949Y-128510210D02*
X183447828Y-128479629D01*
X183533936Y-128540692D02*
X183490949Y-128510210D01*
X183573269Y-128599382D02*
X183533936Y-128540692D01*
X183612438Y-128657823D02*
X183573269Y-128599382D01*
X183651649Y-128716333D02*
X183612438Y-128657823D01*
X183691040Y-128775111D02*
X183651649Y-128716333D01*
X183730307Y-128833700D02*
X183691040Y-128775111D01*
X183760946Y-128898287D02*
X183730307Y-128833700D01*
X183791455Y-128962608D02*
X183760946Y-128898287D01*
X183821999Y-129026997D02*
X183791455Y-128962608D01*
X183852682Y-129091682D02*
X183821999Y-129026997D01*
X183883268Y-129156161D02*
X183852682Y-129091682D01*
X183906552Y-129224683D02*
X183883268Y-129156161D01*
X183929729Y-129292916D02*
X183906552Y-129224683D01*
X183952959Y-129361229D02*
X183929729Y-129292916D01*
X183976269Y-129429851D02*
X183952959Y-129361229D01*
X183999526Y-129498256D02*
X183976269Y-129429851D01*
X184017015Y-129569366D02*
X183999526Y-129498256D01*
X184034425Y-129640179D02*
X184017015Y-129569366D01*
X184051861Y-129711071D02*
X184034425Y-129640179D01*
X184069376Y-129782284D02*
X184051861Y-129711071D01*
X184086839Y-129853274D02*
X184069376Y-129782284D01*
X184099988Y-129925109D02*
X184086839Y-129853274D01*
X184113085Y-129996641D02*
X184099988Y-129925109D01*
X184126182Y-130068256D02*
X184113085Y-129996641D01*
X184139358Y-130140196D02*
X184126182Y-130068256D01*
X184152482Y-130211909D02*
X184139358Y-130140196D01*
X184162933Y-130283019D02*
X184152482Y-130211909D01*
X184173357Y-130353832D02*
X184162933Y-130283019D01*
X184183782Y-130424724D02*
X184173357Y-130353832D01*
X184194259Y-130495937D02*
X184183782Y-130424724D01*
X184204684Y-130566927D02*
X184194259Y-130495937D01*
X184222887Y-130699732D02*
X184204684Y-130566927D01*
X184241091Y-130832643D02*
X184222887Y-130699732D01*
X184259268Y-130965323D02*
X184241091Y-130832643D01*
X184277471Y-131098184D02*
X184259268Y-130965323D01*
X184295648Y-131230968D02*
X184277471Y-131098184D01*
X184293267Y-131673991D02*
X184295648Y-131230968D01*
X184290885Y-132117409D02*
X184293267Y-131673991D01*
X184288504Y-132560716D02*
X184290885Y-132117409D01*
X184286123Y-133004176D02*
X184288504Y-132560716D01*
X184283742Y-133447372D02*
X184286123Y-133004176D01*
X184284800Y-133837817D02*
X184283742Y-133447372D01*
X184285858Y-134228615D02*
X184284800Y-133837817D01*
X184286917Y-134619312D02*
X184285858Y-134228615D01*
X184287975Y-135010141D02*
X184286917Y-134619312D01*
X184289033Y-135400740D02*
X184287975Y-135010141D01*
X184296680Y-136026586D02*
X184289033Y-135400740D01*
X184304326Y-136652174D02*
X184296680Y-136026586D01*
X184311973Y-137278014D02*
X184304326Y-136652174D01*
X184319619Y-137904066D02*
X184311973Y-137278014D01*
X184327265Y-138529748D02*
X184319619Y-137904066D01*
X184336658Y-138951700D02*
X184327265Y-138529748D01*
X184346077Y-139374028D02*
X184336658Y-138951700D01*
X184355497Y-139796250D02*
X184346077Y-139374028D01*
X184364916Y-140218615D02*
X184355497Y-139796250D01*
X184374308Y-140640731D02*
X184364916Y-140218615D01*
X184378145Y-140863761D02*
X184374308Y-140640731D01*
X184381981Y-141086969D02*
X184378145Y-140863761D01*
X184385791Y-141309791D02*
X184381981Y-141086969D01*
X184389628Y-141532914D02*
X184385791Y-141309791D01*
X184393464Y-141755907D02*
X184389628Y-141532914D01*
X184389839Y-141827017D02*
X184393464Y-141755907D01*
X184386241Y-141897830D02*
X184389839Y-141827017D01*
X184382616Y-141968722D02*
X184386241Y-141897830D01*
X184378992Y-142039935D02*
X184382616Y-141968722D01*
X184375367Y-142110925D02*
X184378992Y-142039935D01*
X184368752Y-142176756D02*
X184375367Y-142110925D01*
X184362164Y-142242309D02*
X184368752Y-142176756D01*
X184355549Y-142307939D02*
X184362164Y-142242309D01*
X184348908Y-142373866D02*
X184355549Y-142307939D01*
X184342294Y-142439585D02*
X184348908Y-142373866D01*
X184332451Y-142500344D02*
X184342294Y-142439585D01*
X184322662Y-142560849D02*
X184332451Y-142500344D01*
X184312846Y-142621423D02*
X184322662Y-142560849D01*
X184303003Y-142682272D02*
X184312846Y-142621423D01*
X184293187Y-142742928D02*
X184303003Y-142682272D01*
X184280143Y-142798614D02*
X184293187Y-142742928D01*
X184267152Y-142854068D02*
X184280143Y-142798614D01*
X184254161Y-142909586D02*
X184267152Y-142854068D01*
X184241091Y-142965352D02*
X184254161Y-142909586D01*
X184228073Y-143020946D02*
X184241091Y-142965352D01*
X184211404Y-143072080D02*
X184228073Y-143020946D01*
X184194815Y-143122996D02*
X184211404Y-143072080D01*
X184178199Y-143173973D02*
X184194815Y-143122996D01*
X184161504Y-143225181D02*
X184178199Y-143173973D01*
X184144862Y-143276227D02*
X184161504Y-143225181D01*
X184124462Y-143322807D02*
X184144862Y-143276227D01*
X184104169Y-143369188D02*
X184124462Y-143322807D01*
X184083849Y-143415625D02*
X184104169Y-143369188D01*
X184063423Y-143462271D02*
X184083849Y-143415625D01*
X184043077Y-143508772D02*
X184063423Y-143462271D01*
X184018867Y-143551002D02*
X184043077Y-143508772D01*
X183994737Y-143593058D02*
X184018867Y-143551002D01*
X183970581Y-143635158D02*
X183994737Y-143593058D01*
X183946318Y-143677452D02*
X183970581Y-143635158D01*
X183922135Y-143719610D02*
X183946318Y-143677452D01*
X183893878Y-143757909D02*
X183922135Y-143719610D01*
X183865737Y-143796046D02*
X183893878Y-143757909D01*
X183837567Y-143834228D02*
X183865737Y-143796046D01*
X183809267Y-143872582D02*
X183837567Y-143834228D01*
X183781057Y-143910814D02*
X183809267Y-143872582D01*
X183748556Y-143945075D02*
X183781057Y-143910814D01*
X183716192Y-143979193D02*
X183748556Y-143945075D01*
X183683788Y-144013351D02*
X183716192Y-143979193D01*
X183651239Y-144047662D02*
X183683788Y-144013351D01*
X183618793Y-144081865D02*
X183651239Y-144047662D01*
X183581842Y-144112607D02*
X183618793Y-144081865D01*
X183545043Y-144143219D02*
X183581842Y-144112607D01*
X183508205Y-144173866D02*
X183545043Y-144143219D01*
X183471201Y-144204653D02*
X183508205Y-144173866D01*
X183434310Y-144235342D02*
X183471201Y-144204653D01*
X183392699Y-144262565D02*
X183434310Y-144235342D01*
X183351265Y-144289671D02*
X183392699Y-144262565D01*
X183309781Y-144316812D02*
X183351265Y-144289671D01*
X183268109Y-144344075D02*
X183309781Y-144316812D01*
X183226570Y-144371250D02*
X183268109Y-144344075D01*
X183180302Y-144395168D02*
X183226570Y-144371250D01*
X183134228Y-144418981D02*
X183180302Y-144395168D01*
X183088100Y-144442820D02*
X183134228Y-144418981D01*
X183041766Y-144466765D02*
X183088100Y-144442820D01*
X182995575Y-144490630D02*
X183041766Y-144466765D01*
X182944236Y-144511638D02*
X182995575Y-144490630D01*
X182893110Y-144532567D02*
X182944236Y-144511638D01*
X182841929Y-144553522D02*
X182893110Y-144532567D01*
X182790513Y-144574556D02*
X182841929Y-144553522D01*
X182739260Y-144595537D02*
X182790513Y-144574556D01*
X182682745Y-144613661D02*
X182739260Y-144595537D01*
X182626468Y-144631706D02*
X182682745Y-144613661D01*
X182570125Y-144649751D02*
X182626468Y-144631706D01*
X182513528Y-144667901D02*
X182570125Y-144649751D01*
X182457108Y-144685998D02*
X182513528Y-144667901D01*
X182395418Y-144701529D02*
X182457108Y-144685998D01*
X182333985Y-144716981D02*
X182395418Y-144701529D01*
X182272482Y-144732459D02*
X182333985Y-144716981D01*
X182210702Y-144748017D02*
X182272482Y-144732459D01*
X182149115Y-144763521D02*
X182210702Y-144748017D01*
X182081834Y-144776671D02*
X182149115Y-144763521D01*
X182014836Y-144789768D02*
X182081834Y-144776671D01*
X181947764Y-144802865D02*
X182014836Y-144789768D01*
X181880386Y-144816041D02*
X181947764Y-144802865D01*
X181813218Y-144829164D02*
X181880386Y-144816041D01*
X181661602Y-144848902D02*
X181813218Y-144829164D01*
X181509868Y-144868667D02*
X181661602Y-144848902D01*
X181358394Y-144888378D02*
X181509868Y-144868667D01*
X181206717Y-144908116D02*
X181358394Y-144888378D01*
X181055126Y-144927854D02*
X181206717Y-144908116D01*
X180879430Y-144940554D02*
X181055126Y-144927854D01*
X180703596Y-144953280D02*
X180879430Y-144940554D01*
X180528063Y-144965980D02*
X180703596Y-144953280D01*
X180352293Y-144978707D02*
X180528063Y-144965980D01*
X180176628Y-144991407D02*
X180352293Y-144978707D01*
X179975298Y-144998736D02*
X180176628Y-144991407D01*
X179773813Y-145006091D02*
X179975298Y-144998736D01*
X179572677Y-145013420D02*
X179773813Y-145006091D01*
X179371263Y-145020749D02*
X179572677Y-145013420D01*
X179169970Y-145028078D02*
X179371263Y-145020749D01*
X178941563Y-145031491D02*
X179169970Y-145028078D01*
X178712979Y-145034904D02*
X178941563Y-145031491D01*
X178484789Y-145038318D02*
X178712979Y-145034904D01*
X178256287Y-145041731D02*
X178484789Y-145038318D01*
X178027920Y-145045144D02*
X178256287Y-145041731D01*
X177484704Y-145047525D02*
X178027920Y-145045144D01*
X176941001Y-145049906D02*
X177484704Y-145047525D01*
X176397436Y-145052288D02*
X176941001Y-145049906D01*
X175853685Y-145054669D02*
X176397436Y-145052288D01*
X175310258Y-145057050D02*
X175853685Y-145054669D01*
X174992321Y-145059431D02*
X175310258Y-145057050D01*
X174674104Y-145061813D02*
X174992321Y-145059431D01*
X174355964Y-145064194D02*
X174674104Y-145061813D01*
X174037715Y-145066575D02*
X174355964Y-145064194D01*
X173719657Y-145068956D02*
X174037715Y-145066575D01*
X173368978Y-145074116D02*
X173719657Y-145068956D01*
X173017984Y-145079275D02*
X173368978Y-145074116D01*
X172667081Y-145084434D02*
X173017984Y-145079275D01*
X172316058Y-145089594D02*
X172667081Y-145084434D01*
X171965242Y-145094753D02*
X172316058Y-145089594D01*
X171278828Y-145098378D02*
X171965242Y-145094753D01*
X170592695Y-145102003D02*
X171278828Y-145098378D01*
X169906286Y-145105628D02*
X170592695Y-145102003D01*
X169219645Y-145109252D02*
X169906286Y-145105628D01*
X168533411Y-145112877D02*
X169219645Y-145109252D01*
X167152061Y-145123831D02*
X168533411Y-145112877D01*
X165770375Y-145134785D02*
X167152061Y-145123831D01*
X164388578Y-145145738D02*
X165770375Y-145134785D01*
X163006765Y-145156692D02*
X164388578Y-145145738D01*
X161624788Y-145167646D02*
X163006765Y-145156692D01*
X160383051Y-145176007D02*
X161624788Y-145167646D01*
X159141044Y-145184368D02*
X160383051Y-145176007D01*
X157898987Y-145192728D02*
X159141044Y-145184368D01*
X156656998Y-145201116D02*
X157898987Y-145192728D01*
X155415348Y-145209477D02*
X156656998Y-145201116D01*
X154903946Y-145209688D02*
X155415348Y-145209477D01*
X154392085Y-145209900D02*
X154903946Y-145209688D01*
X153880355Y-145210112D02*
X154392085Y-145209900D01*
X153368449Y-145210323D02*
X153880355Y-145210112D01*
X152856848Y-145210535D02*
X153368449Y-145210323D01*
X152448739Y-145206513D02*
X152856848Y-145210535D01*
X152040265Y-145202492D02*
X152448739Y-145206513D01*
X151631891Y-145198470D02*
X152040265Y-145202492D01*
X151223380Y-145194448D02*
X151631891Y-145198470D01*
X150815112Y-145190427D02*
X151223380Y-145194448D01*
X147835134Y-145138851D02*
X150815112Y-145190427D01*
X144855475Y-145087281D02*
X147835134Y-145138851D01*
X141875705Y-145035711D02*
X144855475Y-145087281D01*
X138895617Y-144984134D02*
X141875705Y-145035711D01*
X135915762Y-144932561D02*
X138895617Y-144984134D01*
X135594522Y-144924915D02*
X135915762Y-144932561D01*
X135272994Y-144917268D02*
X135594522Y-144924915D01*
X134951548Y-144909622D02*
X135272994Y-144917268D01*
X134629991Y-144901975D02*
X134951548Y-144909622D01*
X134308625Y-144894329D02*
X134629991Y-144901975D01*
X134024307Y-144881920D02*
X134308625Y-144894329D01*
X133739765Y-144869511D02*
X134024307Y-144881920D01*
X133455714Y-144857128D02*
X133739765Y-144869511D01*
X133171276Y-144844719D02*
X133455714Y-144857128D01*
X132887007Y-144832310D02*
X133171276Y-144844719D01*
X132758438Y-144822997D02*
X132887007Y-144832310D01*
X132629769Y-144813684D02*
X132758438Y-144822997D01*
X132501321Y-144804397D02*
X132629769Y-144813684D01*
X132372698Y-144795083D02*
X132501321Y-144804397D01*
X132244152Y-144785797D02*
X132372698Y-144795083D01*
X132124368Y-144773811D02*
X132244152Y-144785797D01*
X132004490Y-144761825D02*
X132124368Y-144773811D01*
X131884819Y-144749840D02*
X132004490Y-144761825D01*
X131764985Y-144737854D02*
X131884819Y-144749840D01*
X131645222Y-144725868D02*
X131764985Y-144737854D01*
X131533814Y-144710417D02*
X131645222Y-144725868D01*
X131422920Y-144695018D02*
X131533814Y-144710417D01*
X131311958Y-144679619D02*
X131422920Y-144695018D01*
X131201197Y-144664247D02*
X131311958Y-144679619D01*
X131090217Y-144648848D02*
X131201197Y-144664247D01*
X130987315Y-144629560D02*
X131090217Y-144648848D01*
X130884887Y-144610351D02*
X130987315Y-144629560D01*
X130782398Y-144591143D02*
X130884887Y-144610351D01*
X130680093Y-144571960D02*
X130782398Y-144591143D01*
X130577587Y-144552752D02*
X130680093Y-144571960D01*
X130483087Y-144529204D02*
X130577587Y-144552752D01*
X130389023Y-144505762D02*
X130483087Y-144529204D01*
X130294902Y-144482320D02*
X130389023Y-144505762D01*
X130200951Y-144458904D02*
X130294902Y-144482320D01*
X130106815Y-144435435D02*
X130200951Y-144458904D01*
X130020800Y-144406971D02*
X130106815Y-144435435D01*
X129935146Y-144378627D02*
X130020800Y-144406971D01*
X129849394Y-144350247D02*
X129935146Y-144378627D01*
X129763253Y-144321741D02*
X129849394Y-144350247D01*
X129677383Y-144293325D02*
X129763253Y-144321741D01*
X129599442Y-144259374D02*
X129677383Y-144293325D01*
X129521828Y-144225568D02*
X129599442Y-144259374D01*
X129444125Y-144191720D02*
X129521828Y-144225568D01*
X129366070Y-144157721D02*
X129444125Y-144191720D01*
X129288260Y-144123828D02*
X129366070Y-144157721D01*
X129218289Y-144083976D02*
X129288260Y-144123828D01*
X129148611Y-144044294D02*
X129218289Y-144083976D01*
X129078854Y-144004564D02*
X129148611Y-144044294D01*
X129008781Y-143964654D02*
X129078854Y-144004564D01*
X128938927Y-143924872D02*
X129008781Y-143964654D01*
X128876719Y-143878501D02*
X128938927Y-143924872D01*
X128814772Y-143832323D02*
X128876719Y-143878501D01*
X128752754Y-143786095D02*
X128814772Y-143832323D01*
X128690455Y-143739655D02*
X128752754Y-143786095D01*
X128628352Y-143693361D02*
X128690455Y-143739655D01*
X128573804Y-143639952D02*
X128628352Y-143693361D01*
X128519484Y-143586766D02*
X128573804Y-143639952D01*
X128465102Y-143533518D02*
X128519484Y-143586766D01*
X128410474Y-143480030D02*
X128465102Y-143533518D01*
X128356017Y-143426711D02*
X128410474Y-143480030D01*
X128308921Y-143365746D02*
X128356017Y-143426711D01*
X128262023Y-143305035D02*
X128308921Y-143365746D01*
X128215071Y-143244255D02*
X128262023Y-143305035D01*
X128167906Y-143183199D02*
X128215071Y-143244255D01*
X128120889Y-143122337D02*
X128167906Y-143183199D01*
X128081143Y-143053400D02*
X128120889Y-143122337D01*
X128041562Y-142984754D02*
X128081143Y-143053400D01*
X128001937Y-142916029D02*
X128041562Y-142984754D01*
X127962132Y-142846993D02*
X128001937Y-142916029D01*
X127922452Y-142778173D02*
X127962132Y-142846993D01*
X127902373Y-142733768D02*
X127922452Y-142778173D01*
X127882375Y-142689551D02*
X127902373Y-142733768D01*
X127862357Y-142645280D02*
X127882375Y-142689551D01*
X127842246Y-142600812D02*
X127862357Y-142645280D01*
X127822199Y-142556481D02*
X127842246Y-142600812D01*
X127805223Y-142511351D02*
X127822199Y-142556481D01*
X127788319Y-142466412D02*
X127805223Y-142511351D01*
X127771396Y-142421422D02*
X127788319Y-142466412D01*
X127754397Y-142376226D02*
X127771396Y-142421422D01*
X127737450Y-142331172D02*
X127754397Y-142376226D01*
X127711309Y-142238436D02*
X127737450Y-142331172D01*
X127685290Y-142146125D02*
X127711309Y-142238436D01*
X127659255Y-142053762D02*
X127685290Y-142146125D01*
X127633268Y-141961563D02*
X127659255Y-142053762D01*
X127607227Y-141869183D02*
X127633268Y-141961563D01*
X127590424Y-141774060D02*
X127607227Y-141869183D01*
X127573697Y-141679379D02*
X127590424Y-141774060D01*
X127556959Y-141584637D02*
X127573697Y-141679379D01*
X127540253Y-141490067D02*
X127556959Y-141584637D01*
X127523513Y-141395312D02*
X127540253Y-141490067D01*
X127514176Y-141298012D02*
X127523513Y-141395312D01*
X127504884Y-141201161D02*
X127514176Y-141298012D01*
X127495586Y-141104249D02*
X127504884Y-141201161D01*
X127486305Y-141007515D02*
X127495586Y-141104249D01*
X127477005Y-140910587D02*
X127486305Y-141007515D01*
X127473271Y-140811834D02*
X127477005Y-140910587D01*
X127469554Y-140713536D02*
X127473271Y-140811834D01*
X127465834Y-140615180D02*
X127469554Y-140713536D01*
X127462122Y-140516999D02*
X127465834Y-140615180D01*
X127458402Y-140418626D02*
X127462122Y-140516999D01*
X127458296Y-140318733D02*
X127458402Y-140418626D01*
X127458190Y-140219300D02*
X127458296Y-140318733D01*
X127458084Y-140119806D02*
X127458190Y-140219300D01*
X127457979Y-140020492D02*
X127458084Y-140119806D01*
X127457873Y-139920982D02*
X127457979Y-140020492D01*
X127461490Y-139720584D02*
X127457873Y-139920982D01*
X127465109Y-139520030D02*
X127461490Y-139720584D01*
X127468723Y-139319820D02*
X127465109Y-139520030D01*
X127472343Y-139119340D02*
X127468723Y-139319820D01*
X127475960Y-138918976D02*
X127472343Y-139119340D01*
X127475753Y-138728809D02*
X127475960Y-138918976D01*
X127475547Y-138538495D02*
X127475753Y-138728809D01*
X127475340Y-138348508D02*
X127475547Y-138538495D01*
X127475134Y-138158262D02*
X127475340Y-138348508D01*
X127474928Y-137968130D02*
X127475134Y-138158262D01*
X127472240Y-137747166D02*
X127474928Y-137968130D01*
X127469551Y-137526027D02*
X127472240Y-137747166D01*
X127466866Y-137305272D02*
X127469551Y-137526027D01*
X127464178Y-137084215D02*
X127466866Y-137305272D01*
X127461492Y-136863288D02*
X127464178Y-137084215D01*
X127459005Y-136650179D02*
X127461492Y-136863288D01*
X127456518Y-136436901D02*
X127459005Y-136650179D01*
X127454031Y-136223991D02*
X127456518Y-136436901D01*
X127451544Y-136010793D02*
X127454031Y-136223991D01*
X127449057Y-135797721D02*
X127451544Y-136010793D01*
X127449665Y-135630912D02*
X127449057Y-135797721D01*
X127450274Y-135463973D02*
X127449665Y-135630912D01*
X127450882Y-135297320D02*
X127450274Y-135463973D01*
X127451491Y-135130442D02*
X127450882Y-135297320D01*
X127452099Y-134963662D02*
X127451491Y-135130442D01*
X127456026Y-134698668D02*
X127452099Y-134963662D01*
X127459955Y-134433471D02*
X127456026Y-134698668D01*
X127463879Y-134168726D02*
X127459955Y-134433471D01*
X127467808Y-133903624D02*
X127463879Y-134168726D01*
X127471734Y-133638679D02*
X127467808Y-133903624D01*
X127472343Y-133422779D02*
X127471734Y-133638679D01*
X127472951Y-133206709D02*
X127472343Y-133422779D01*
X127473560Y-132991010D02*
X127472951Y-133206709D01*
X127474168Y-132775020D02*
X127473560Y-132991010D01*
X127474777Y-132559158D02*
X127474168Y-132775020D01*
X127475306Y-132384599D02*
X127474777Y-132559158D01*
X127475835Y-132209902D02*
X127475306Y-132384599D01*
X127476364Y-132035507D02*
X127475835Y-132209902D01*
X127476894Y-131860874D02*
X127476364Y-132035507D01*
X127477423Y-131686345D02*
X127476894Y-131860874D01*
X127481040Y-131544959D02*
X127477423Y-131686345D01*
X127484659Y-131403465D02*
X127481040Y-131544959D01*
X127488273Y-131262212D02*
X127484659Y-131403465D01*
X127491893Y-131120769D02*
X127488273Y-131262212D01*
X127495510Y-130979410D02*
X127491893Y-131120769D01*
X127505649Y-130863221D02*
X127495510Y-130979410D01*
X127515793Y-130746965D02*
X127505649Y-130863221D01*
X127525918Y-130630940D02*
X127515793Y-130746965D01*
X127536025Y-130515127D02*
X127525918Y-130630940D01*
X127546151Y-130399083D02*
X127536025Y-130515127D01*
X127554742Y-130348053D02*
X127546151Y-130399083D01*
X127563296Y-130297240D02*
X127554742Y-130348053D01*
X127571860Y-130246366D02*
X127563296Y-130297240D01*
X127580465Y-130195262D02*
X127571860Y-130246366D01*
X127589043Y-130144319D02*
X127580465Y-130195262D01*
X127600428Y-130096498D02*
X127589043Y-130144319D01*
X127611765Y-130048878D02*
X127600428Y-130096498D01*
X127623116Y-130001206D02*
X127611765Y-130048878D01*
X127634519Y-129953313D02*
X127623116Y-130001206D01*
X127645886Y-129905575D02*
X127634519Y-129953313D01*
X127660480Y-129860135D02*
X127645886Y-129905575D01*
X127675014Y-129814886D02*
X127660480Y-129860135D01*
X127689563Y-129769584D02*
X127675014Y-129814886D01*
X127704179Y-129724078D02*
X127689563Y-129769584D01*
X127718749Y-129678716D02*
X127704179Y-129724078D01*
X127737069Y-129634726D02*
X127718749Y-129678716D01*
X127755312Y-129590919D02*
X127737069Y-129634726D01*
X127773576Y-129547062D02*
X127755312Y-129590919D01*
X127791925Y-129503006D02*
X127773576Y-129547062D01*
X127810216Y-129459090D02*
X127791925Y-129503006D01*
X127832676Y-129415307D02*
X127810216Y-129459090D01*
X127855044Y-129371706D02*
X127832676Y-129415307D01*
X127877436Y-129328055D02*
X127855044Y-129371706D01*
X127899931Y-129284206D02*
X127877436Y-129328055D01*
X127922354Y-129240497D02*
X127899931Y-129284206D01*
X127949162Y-129196195D02*
X127922354Y-129240497D01*
X127975858Y-129152081D02*
X127949162Y-129196195D01*
X128002585Y-129107917D02*
X127975858Y-129152081D01*
X128029433Y-129063549D02*
X128002585Y-129107917D01*
X128056196Y-129019324D02*
X128029433Y-129063549D01*
X128093458Y-128965809D02*
X128056196Y-129019324D01*
X128130565Y-128912522D02*
X128093458Y-128965809D01*
X128167714Y-128859171D02*
X128130565Y-128912522D01*
X128205031Y-128805580D02*
X128167714Y-128859171D01*
X128242231Y-128752155D02*
X128205031Y-128805580D01*
X128281357Y-128703610D02*
X128242231Y-128752155D01*
X128320319Y-128655270D02*
X128281357Y-128703610D01*
X128359325Y-128606873D02*
X128320319Y-128655270D01*
X128398508Y-128558258D02*
X128359325Y-128606873D01*
X128437568Y-128509794D02*
X128398508Y-128558258D01*
X128478454Y-128465908D02*
X128437568Y-128509794D01*
X128519168Y-128422204D02*
X128478454Y-128465908D01*
X128559928Y-128378450D02*
X128519168Y-128422204D01*
X128600873Y-128334497D02*
X128559928Y-128378450D01*
X128641690Y-128290685D02*
X128600873Y-128334497D01*
X128684438Y-128251146D02*
X128641690Y-128290685D01*
X128727008Y-128211770D02*
X128684438Y-128251146D01*
X128769626Y-128172353D02*
X128727008Y-128211770D01*
X128812437Y-128132755D02*
X128769626Y-128172353D01*
X128855113Y-128093282D02*
X128812437Y-128132755D01*
X128899518Y-128057987D02*
X128855113Y-128093282D01*
X128943737Y-128022837D02*
X128899518Y-128057987D01*
X128988006Y-127987650D02*
X128943737Y-128022837D01*
X129032476Y-127952301D02*
X128988006Y-127987650D01*
X129076805Y-127917064D02*
X129032476Y-127952301D01*
X129122866Y-127885700D02*
X129076805Y-127917064D01*
X129168734Y-127854472D02*
X129122866Y-127885700D01*
X129214654Y-127823203D02*
X129168734Y-127854472D01*
X129260782Y-127791797D02*
X129214654Y-127823203D01*
X129306766Y-127760486D02*
X129260782Y-127791797D01*
X129354586Y-127732851D02*
X129306766Y-127760486D01*
X129402206Y-127705329D02*
X129354586Y-127732851D01*
X129449880Y-127677778D02*
X129402206Y-127705329D01*
X129497771Y-127650100D02*
X129449880Y-127677778D01*
X129545511Y-127622509D02*
X129497771Y-127650100D01*
X129594987Y-127598405D02*
X129545511Y-127622509D01*
X129644257Y-127574381D02*
X129594987Y-127598405D01*
X129693582Y-127550330D02*
X129644257Y-127574381D01*
X129743131Y-127526174D02*
X129693582Y-127550330D01*
X129792524Y-127502097D02*
X129743131Y-127526174D01*
X129843657Y-127481407D02*
X129792524Y-127502097D01*
X129894575Y-127460795D02*
X129843657Y-127481407D01*
X129945551Y-127440158D02*
X129894575Y-127460795D01*
X129996759Y-127419415D02*
X129945551Y-127440158D01*
X130047806Y-127398751D02*
X129996759Y-127419415D01*
X130100491Y-127381050D02*
X130047806Y-127398751D01*
X130152955Y-127363429D02*
X130100491Y-127381050D01*
X130205480Y-127345781D02*
X130152955Y-127363429D01*
X130258242Y-127328054D02*
X130205480Y-127345781D01*
X130310839Y-127310380D02*
X130258242Y-127328054D01*
X130434033Y-127287546D02*
X130310839Y-127310380D01*
X130557324Y-127264686D02*
X130434033Y-127287546D01*
X130680403Y-127241853D02*
X130557324Y-127264686D01*
X130803649Y-127218993D02*
X130680403Y-127241853D01*
X130926822Y-127196159D02*
X130803649Y-127218993D01*
X131049086Y-127184385D02*
X130926822Y-127196159D01*
X131171446Y-127172585D02*
X131049086Y-127184385D01*
X131293595Y-127160811D02*
X131171446Y-127172585D01*
X131415911Y-127149037D02*
X131293595Y-127160811D01*
X131538154Y-127137263D02*
X131415911Y-127149037D01*
X131659488Y-127134564D02*
X131538154Y-127137263D01*
X131780917Y-127131865D02*
X131659488Y-127134564D01*
X131902137Y-127129167D02*
X131780917Y-127131865D01*
X132023522Y-127126468D02*
X131902137Y-127129167D01*
X132144835Y-127123769D02*
X132023522Y-127126468D01*
X132265653Y-127128108D02*
X132144835Y-127123769D01*
X132386565Y-127132448D02*
X132265653Y-127128108D01*
X132507268Y-127136787D02*
X132386565Y-127132448D01*
X132628136Y-127141126D02*
X132507268Y-127136787D01*
X132748933Y-127145465D02*
X132628136Y-127141126D01*
X133561148Y-127151365D02*
X132748933Y-127145465D01*
X134372991Y-127157265D02*
X133561148Y-127151365D01*
X135185103Y-127163166D02*
X134372991Y-127157265D01*
X135996849Y-127169066D02*
X135185103Y-127163166D01*
X136808633Y-127174966D02*
X135996849Y-127169066D01*
X136984847Y-127171976D02*
X136808633Y-127174966D01*
X137161199Y-127168987D02*
X136984847Y-127171976D01*
X137337246Y-127165997D02*
X137161199Y-127168987D01*
X137513534Y-127163007D02*
X137337246Y-127165997D01*
X137689716Y-127160017D02*
X137513534Y-127163007D01*
X137758135Y-127154858D02*
X137689716Y-127160017D01*
X137826266Y-127149698D02*
X137758135Y-127154858D01*
X137894476Y-127144539D02*
X137826266Y-127149698D01*
X137962995Y-127139353D02*
X137894476Y-127144539D01*
X138031298Y-127134194D02*
X137962995Y-127139353D01*
X138088123Y-127126336D02*
X138031298Y-127134194D01*
X138144710Y-127118504D02*
X138088123Y-127126336D01*
X138201362Y-127110672D02*
X138144710Y-127118504D01*
X138258271Y-127102788D02*
X138201362Y-127110672D01*
X138315001Y-127094930D02*
X138258271Y-127102788D01*
X138361165Y-127084055D02*
X138315001Y-127094930D01*
X138407136Y-127073234D02*
X138361165Y-127084055D01*
X138453160Y-127062386D02*
X138407136Y-127073234D01*
X138499391Y-127051512D02*
X138453160Y-127062386D01*
X138545478Y-127040664D02*
X138499391Y-127051512D01*
X138582223Y-127026694D02*
X138545478Y-127040664D01*
X138618814Y-127012777D02*
X138582223Y-127026694D01*
X138655447Y-126998833D02*
X138618814Y-127012777D01*
X138692246Y-126984837D02*
X138655447Y-126998833D01*
X138728929Y-126970893D02*
X138692246Y-126984837D01*
X138757285Y-126953510D02*
X138728929Y-126970893D01*
X138785523Y-126936206D02*
X138757285Y-126953510D01*
X138814097Y-126918691D02*
X138785523Y-126936206D01*
X138842209Y-126901466D02*
X138814097Y-126918691D01*
X138870523Y-126884110D02*
X138842209Y-126901466D01*
X138891634Y-126863102D02*
X138870523Y-126884110D01*
X138912658Y-126842173D02*
X138891634Y-126863102D01*
X138933933Y-126821007D02*
X138912658Y-126842173D01*
X138954864Y-126800184D02*
X138933933Y-126821007D01*
X138975943Y-126779202D02*
X138954864Y-126800184D01*
X138990951Y-126754358D02*
X138975943Y-126779202D01*
X139005894Y-126729619D02*
X138990951Y-126754358D01*
X139021015Y-126704590D02*
X139005894Y-126729619D01*
X139035893Y-126679957D02*
X139021015Y-126704590D01*
X139050876Y-126655166D02*
X139035893Y-126679957D01*
X139060914Y-126626395D02*
X139050876Y-126655166D01*
X139070910Y-126597746D02*
X139060914Y-126626395D01*
X139081025Y-126568755D02*
X139070910Y-126597746D01*
X139090979Y-126540231D02*
X139081025Y-126568755D01*
X139101001Y-126511505D02*
X139090979Y-126540231D01*
X139107108Y-126478390D02*
X139101001Y-126511505D01*
X139113188Y-126445409D02*
X139107108Y-126478390D01*
X139119342Y-126412040D02*
X139113188Y-126445409D01*
X139125396Y-126379208D02*
X139119342Y-126412040D01*
X139131492Y-126346140D02*
X139125396Y-126379208D01*
X139134804Y-126308567D02*
X139131492Y-126346140D01*
X139138104Y-126271152D02*
X139134804Y-126308567D01*
X139141406Y-126233695D02*
X139138104Y-126271152D01*
X139144724Y-126196066D02*
X139141406Y-126233695D01*
X139148031Y-126158556D02*
X139144724Y-126196066D01*
X139150722Y-126069021D02*
X139148031Y-126158556D01*
X139153402Y-125979862D02*
X139150722Y-126069021D01*
X139156085Y-125890602D02*
X139153402Y-125979862D01*
X139158781Y-125800937D02*
X139156085Y-125890602D01*
X139161467Y-125711553D02*
X139158781Y-125800937D01*
X139166549Y-125601182D02*
X139161467Y-125711553D01*
X139171608Y-125491322D02*
X139166549Y-125601182D01*
X139176669Y-125381393D02*
X139171608Y-125491322D01*
X139181723Y-125271662D02*
X139176669Y-125381393D01*
X139186787Y-125161717D02*
X139181723Y-125271662D01*
X139198770Y-124829115D02*
X139186787Y-125161717D01*
X139210764Y-124496216D02*
X139198770Y-124829115D01*
X139222755Y-124163399D02*
X139210764Y-124496216D01*
X139234748Y-123830469D02*
X139222755Y-124163399D01*
X139246734Y-123497737D02*
X139234748Y-123830469D01*
X139257481Y-123293722D02*
X139246734Y-123497737D01*
X139268239Y-123089546D02*
X139257481Y-123293722D01*
X139278979Y-122885724D02*
X139268239Y-123089546D01*
X139289731Y-122681624D02*
X139278979Y-122885724D01*
X139300479Y-122477644D02*
X139289731Y-122681624D01*
X139311221Y-122076660D02*
X139300479Y-122477644D01*
X139321973Y-121675321D02*
X139311221Y-122076660D01*
X139332723Y-121274081D02*
X139321973Y-121675321D01*
X139343476Y-120872702D02*
X139332723Y-121274081D01*
X139354223Y-120471565D02*
X139343476Y-120872702D01*
X139361970Y-120152390D02*
X139354223Y-120471565D01*
X139369725Y-119832930D02*
X139361970Y-120152390D01*
X139377478Y-119513551D02*
X139369725Y-119832930D01*
X139385233Y-119194061D02*
X139377478Y-119513551D01*
X139392982Y-118874762D02*
X139385233Y-119194061D01*
X139396081Y-118575833D02*
X139392982Y-118874762D01*
X139399181Y-118276637D02*
X139396081Y-118575833D01*
X139402282Y-117977515D02*
X139399181Y-118276637D01*
X139405383Y-117678293D02*
X139402282Y-117977515D01*
X139408484Y-117379247D02*
X139405383Y-117678293D01*
X139424081Y-117052429D02*
X139408484Y-117379247D01*
X139439692Y-116725319D02*
X139424081Y-117052429D01*
X139455300Y-116398291D02*
X139439692Y-116725319D01*
X139470913Y-116071150D02*
X139455300Y-116398291D01*
X139486515Y-115744204D02*
X139470913Y-116071150D01*
X139490442Y-115575741D02*
X139486515Y-115744204D01*
X139494371Y-115407149D02*
X139490442Y-115575741D01*
X139498294Y-115238845D02*
X139494371Y-115407149D01*
X139502223Y-115070313D02*
X139498294Y-115238845D01*
X139506150Y-114901879D02*
X139502223Y-115070313D01*
X139505832Y-114733210D02*
X139506150Y-114901879D01*
X139505515Y-114564409D02*
X139505832Y-114733210D01*
X139505197Y-114395898D02*
X139505515Y-114564409D01*
X139504880Y-114227160D02*
X139505197Y-114395898D01*
X139504562Y-114058520D02*
X139504880Y-114227160D01*
X139514169Y-113561990D02*
X139504562Y-114058520D01*
X139523784Y-113065020D02*
X139514169Y-113561990D01*
X139533397Y-112568172D02*
X139523784Y-113065020D01*
X139543012Y-112071153D02*
X139533397Y-112568172D01*
X139552621Y-111574432D02*
X139543012Y-112071153D01*
X139559955Y-111217141D02*
X139552621Y-111574432D01*
X139567295Y-110859533D02*
X139559955Y-111217141D01*
X139574635Y-110502015D02*
X139567295Y-110859533D01*
X139581977Y-110144372D02*
X139574635Y-110502015D01*
X139589314Y-109786944D02*
X139581977Y-110144372D01*
X139597788Y-109519368D02*
X139589314Y-109786944D01*
X139606268Y-109251583D02*
X139597788Y-109519368D01*
X139614735Y-108984259D02*
X139606268Y-109251583D01*
X139623212Y-108716569D02*
X139614735Y-108984259D01*
X139631687Y-108449041D02*
X139623212Y-108716569D01*
X139591836Y-108391595D02*
X139631687Y-108449041D01*
X139552153Y-108334389D02*
X139591836Y-108391595D01*
X139512424Y-108277118D02*
X139552153Y-108334389D01*
X139472516Y-108219587D02*
X139512424Y-108277118D01*
X139432732Y-108162238D02*
X139472516Y-108219587D01*
X139410793Y-108137076D02*
X139432732Y-108162238D01*
X139388944Y-108112020D02*
X139410793Y-108137076D01*
X139366835Y-108086673D02*
X139388944Y-108112020D01*
X139345084Y-108061749D02*
X139366835Y-108086673D01*
X139323176Y-108036641D02*
X139345084Y-108061749D01*
X139309706Y-108014389D02*
X139323176Y-108036641D01*
X139296316Y-107992270D02*
X139309706Y-108014389D01*
X139283081Y-107970415D02*
X139296316Y-107992270D01*
X139269847Y-107948561D02*
X139283081Y-107970415D01*
X139256517Y-107926547D02*
X139269847Y-107948561D01*
X139242336Y-107878417D02*
X139256517Y-107926547D01*
X139228215Y-107830488D02*
X139242336Y-107878417D01*
X139214078Y-107782503D02*
X139228215Y-107830488D01*
X139199878Y-107734304D02*
X139214078Y-107782503D01*
X139185720Y-107686253D02*
X139199878Y-107734304D01*
X139187784Y-107658622D02*
X139185720Y-107686253D01*
X139189848Y-107631106D02*
X139187784Y-107658622D01*
X139191938Y-107603261D02*
X139189848Y-107631106D01*
X139194002Y-107575869D02*
X139191938Y-107603261D01*
X139196065Y-107548278D02*
X139194002Y-107575869D01*
X139205254Y-107524889D02*
X139196065Y-107548278D01*
X139214390Y-107501632D02*
X139205254Y-107524889D01*
X139223418Y-107478666D02*
X139214390Y-107501632D01*
X139232446Y-107455674D02*
X139223418Y-107478666D01*
X139241539Y-107432523D02*
X139232446Y-107455674D01*
X139255636Y-107412150D02*
X139241539Y-107432523D01*
X139269651Y-107391909D02*
X139255636Y-107412150D01*
X139283502Y-107371907D02*
X139269651Y-107391909D01*
X139297353Y-107351904D02*
X139283502Y-107371907D01*
X139311302Y-107331743D02*
X139297353Y-107351904D01*
X139328323Y-107312746D02*
X139311302Y-107331743D01*
X139345243Y-107293855D02*
X139328323Y-107312746D01*
X139361967Y-107275175D02*
X139345243Y-107293855D01*
X139378691Y-107256495D02*
X139361967Y-107275175D01*
X139395535Y-107237684D02*
X139378691Y-107256495D01*
X139413079Y-107218581D02*
X139395535Y-107237684D01*
X139430518Y-107199584D02*
X139413079Y-107218581D01*
X139447755Y-107180798D02*
X139430518Y-107199584D01*
X139464993Y-107162013D02*
X139447755Y-107180798D01*
X139482352Y-107143095D02*
X139464993Y-107162013D01*
X139498434Y-107122325D02*
X139482352Y-107143095D01*
X139514420Y-107101661D02*
X139498434Y-107122325D01*
X139530221Y-107081235D02*
X139514420Y-107101661D01*
X139546022Y-107060810D02*
X139530221Y-107081235D01*
X139561934Y-107040251D02*
X139546022Y-107060810D01*
X139574255Y-107016121D02*
X139561934Y-107040251D01*
X139586506Y-106992150D02*
X139574255Y-107016121D01*
X139598613Y-106968444D02*
X139586506Y-106992150D01*
X139610720Y-106944737D02*
X139598613Y-106968444D01*
X139622912Y-106920871D02*
X139610720Y-106944737D01*
X139629122Y-106892101D02*
X139622912Y-106920871D01*
X139635305Y-106863452D02*
X139629122Y-106892101D01*
X139641563Y-106834461D02*
X139635305Y-106863452D01*
X139647720Y-106805936D02*
X139641563Y-106834461D01*
X139653919Y-106777211D02*
X139647720Y-106805936D01*
X139616368Y-106675968D02*
X139653919Y-106777211D01*
X139578990Y-106575193D02*
X139616368Y-106675968D01*
X139541589Y-106474355D02*
X139578990Y-106575193D01*
X139504256Y-106373703D02*
X139541589Y-106474355D01*
X139466850Y-106272849D02*
X139504256Y-106373703D01*
X139439627Y-106190354D02*
X139466850Y-106272849D01*
X139412519Y-106108204D02*
X139439627Y-106190354D01*
X139385380Y-106025961D02*
X139412519Y-106108204D01*
X139358118Y-105943345D02*
X139385380Y-106025961D01*
X139330941Y-105860988D02*
X139358118Y-105943345D01*
X139308584Y-105792775D02*
X139330941Y-105860988D01*
X139286319Y-105724852D02*
X139308584Y-105792775D01*
X139264030Y-105656848D02*
X139286319Y-105724852D01*
X139241639Y-105588536D02*
X139264030Y-105656848D01*
X139219318Y-105520440D02*
X139241639Y-105588536D01*
X139196546Y-105462062D02*
X139219318Y-105520440D01*
X139173868Y-105403928D02*
X139196546Y-105462062D01*
X139151167Y-105345730D02*
X139173868Y-105403928D01*
X139128363Y-105287265D02*
X139151167Y-105345730D01*
X139105630Y-105228985D02*
X139128363Y-105287265D01*
X139077062Y-105175989D02*
X139105630Y-105228985D01*
X139048613Y-105123216D02*
X139077062Y-105175989D01*
X139020133Y-105070381D02*
X139048613Y-105123216D01*
X138991523Y-105017308D02*
X139020133Y-105070381D01*
X138963003Y-104964402D02*
X138991523Y-105017308D01*
X138923360Y-104912337D02*
X138963003Y-104964402D01*
X138883882Y-104860492D02*
X138923360Y-104912337D01*
X138844360Y-104808586D02*
X138883882Y-104860492D01*
X138804659Y-104756448D02*
X138844360Y-104808586D01*
X138765082Y-104704470D02*
X138804659Y-104756448D01*
X138708981Y-104648886D02*
X138765082Y-104704470D01*
X138653115Y-104593536D02*
X138708981Y-104648886D01*
X138597186Y-104538121D02*
X138653115Y-104593536D01*
X138541002Y-104482458D02*
X138597186Y-104538121D01*
X138484996Y-104426967D02*
X138541002Y-104482458D01*
X138406886Y-104363277D02*
X138484996Y-104426967D01*
X138329136Y-104299877D02*
X138406886Y-104363277D01*
X138251339Y-104236441D02*
X138329136Y-104299877D01*
X138173682Y-104173121D02*
X138251339Y-104236441D01*
X138095872Y-104109674D02*
X138173682Y-104173121D01*
X138044222Y-104079347D02*
X138095872Y-104109674D01*
X137992788Y-104049145D02*
X138044222Y-104079347D01*
X137941296Y-104018911D02*
X137992788Y-104049145D01*
X137889570Y-103988539D02*
X137941296Y-104018911D01*
X137838007Y-103958263D02*
X137889570Y-103988539D01*
X137769485Y-103934874D02*
X137838007Y-103958263D01*
X137701250Y-103911564D02*
X137769485Y-103934874D01*
X137632938Y-103888254D02*
X137701250Y-103911564D01*
X137564315Y-103864839D02*
X137632938Y-103888254D01*
X137495909Y-103841476D02*
X137564315Y-103864839D01*
X137426662Y-103822638D02*
X137495909Y-103841476D01*
X137357706Y-103803879D02*
X137426662Y-103822638D01*
X137288671Y-103785093D02*
X137357706Y-103803879D01*
X137219323Y-103766229D02*
X137288671Y-103785093D01*
X137150193Y-103747417D02*
X137219323Y-103766229D01*
X137014493Y-103719926D02*
X137150193Y-103747417D01*
X136878687Y-103692412D02*
X137014493Y-103719926D01*
X136743115Y-103664946D02*
X136878687Y-103692412D01*
X136607358Y-103637445D02*
X136743115Y-103664946D01*
X136471682Y-103609958D02*
X136607358Y-103637445D01*
X136347247Y-103590828D02*
X136471682Y-103609958D01*
X136222715Y-103571699D02*
X136347247Y-103590828D01*
X136098397Y-103552596D02*
X136222715Y-103571699D01*
X135973911Y-103533467D02*
X136098397Y-103552596D01*
X135849498Y-103514364D02*
X135973911Y-103533467D01*
X135745247Y-103497033D02*
X135849498Y-103514364D01*
X135641477Y-103479783D02*
X135745247Y-103497033D01*
X135537644Y-103462532D02*
X135641477Y-103479783D01*
X135433999Y-103445307D02*
X135537644Y-103462532D01*
X135330150Y-103428057D02*
X135433999Y-103445307D01*
X135075492Y-103368525D02*
X135330150Y-103428057D01*
X134820636Y-103308949D02*
X135075492Y-103368525D01*
X134566219Y-103249476D02*
X134820636Y-103308949D01*
X134311455Y-103189921D02*
X134566219Y-103249476D01*
X134056842Y-103130400D02*
X134311455Y-103189921D01*
X133818618Y-103071800D02*
X134056842Y-103130400D01*
X133580207Y-103013156D02*
X133818618Y-103071800D01*
X133342207Y-102954609D02*
X133580207Y-103013156D01*
X133103883Y-102895985D02*
X133342207Y-102954609D01*
X132865701Y-102837396D02*
X133103883Y-102895985D01*
X132609596Y-102763603D02*
X132865701Y-102837396D01*
X132353292Y-102689753D02*
X132609596Y-102763603D01*
X132097429Y-102616029D02*
X132353292Y-102689753D01*
X131841218Y-102542205D02*
X132097429Y-102616029D01*
X131585159Y-102468426D02*
X131841218Y-102542205D01*
X131455143Y-102426672D02*
X131585159Y-102468426D01*
X131325025Y-102384887D02*
X131455143Y-102426672D01*
X131195132Y-102343172D02*
X131325025Y-102384887D01*
X131065062Y-102301400D02*
X131195132Y-102343172D01*
X130935069Y-102259654D02*
X131065062Y-102301400D01*
X130806500Y-102215006D02*
X130935069Y-102259654D01*
X130677831Y-102170323D02*
X130806500Y-102215006D01*
X130549383Y-102125719D02*
X130677831Y-102170323D01*
X130420760Y-102081052D02*
X130549383Y-102125719D01*
X130292214Y-102036412D02*
X130420760Y-102081052D01*
X130166849Y-101989181D02*
X130292214Y-102036412D01*
X130041386Y-101941911D02*
X130166849Y-101989181D01*
X129916139Y-101894725D02*
X130041386Y-101941911D01*
X129790722Y-101847473D02*
X129916139Y-101894725D01*
X129665379Y-101800250D02*
X129790722Y-101847473D01*
X129545285Y-101750537D02*
X129665379Y-101800250D01*
X129425097Y-101700788D02*
X129545285Y-101750537D01*
X129305116Y-101651120D02*
X129425097Y-101700788D01*
X129184972Y-101601389D02*
X129305116Y-101651120D01*
X129064899Y-101551685D02*
X129184972Y-101601389D01*
X128952040Y-101499802D02*
X129064899Y-101551685D01*
X128839092Y-101447881D02*
X128952040Y-101499802D01*
X128726339Y-101396049D02*
X128839092Y-101447881D01*
X128613432Y-101344143D02*
X128726339Y-101396049D01*
X128500592Y-101292271D02*
X128613432Y-101344143D01*
X128396819Y-101238368D02*
X128500592Y-101292271D01*
X128292986Y-101184432D02*
X128396819Y-101238368D01*
X128189360Y-101130603D02*
X128292986Y-101184432D01*
X128085921Y-101076874D02*
X128189360Y-101130603D01*
X127982278Y-101023036D02*
X128085921Y-101076874D01*
X127872312Y-100959269D02*
X127982278Y-101023036D01*
X127762260Y-100895452D02*
X127872312Y-100959269D01*
X127652398Y-100831743D02*
X127762260Y-100895452D01*
X127542387Y-100767949D02*
X127652398Y-100831743D01*
X127432440Y-100704192D02*
X127542387Y-100767949D01*
X127383378Y-100672210D02*
X127432440Y-100704192D01*
X127334521Y-100640359D02*
X127383378Y-100672210D01*
X127285609Y-100608471D02*
X127334521Y-100640359D01*
X127236474Y-100576441D02*
X127285609Y-100608471D01*
X127187494Y-100544511D02*
X127236474Y-100576441D01*
X127141847Y-100510663D02*
X127187494Y-100544511D01*
X127096392Y-100476960D02*
X127141847Y-100510663D01*
X127050885Y-100443215D02*
X127096392Y-100476960D01*
X127005171Y-100409320D02*
X127050885Y-100443215D01*
X126959601Y-100375530D02*
X127005171Y-100409320D01*
X126916852Y-100338372D02*
X126959601Y-100375530D01*
X126874283Y-100301367D02*
X126916852Y-100338372D01*
X126831665Y-100264323D02*
X126874283Y-100301367D01*
X126788854Y-100227109D02*
X126831665Y-100264323D01*
X126746177Y-100190012D02*
X126788854Y-100227109D01*
X126705913Y-100148091D02*
X126746177Y-100190012D01*
X126665818Y-100106345D02*
X126705913Y-100148091D01*
X126625676Y-100064554D02*
X126665818Y-100106345D01*
X126585353Y-100022570D02*
X126625676Y-100064554D01*
X126545156Y-99980721D02*
X126585353Y-100022570D01*
X126506859Y-99932591D02*
X126545156Y-99980721D01*
X126468721Y-99884661D02*
X126506859Y-99932591D01*
X126430541Y-99836677D02*
X126468721Y-99884661D01*
X126392187Y-99788477D02*
X126430541Y-99836677D01*
X126353954Y-99740426D02*
X126392187Y-99788477D01*
X126317312Y-99684740D02*
X126353954Y-99740426D01*
X126280824Y-99629286D02*
X126317312Y-99684740D01*
X126244294Y-99573768D02*
X126280824Y-99629286D01*
X126207599Y-99518002D02*
X126244294Y-99573768D01*
X126171019Y-99462408D02*
X126207599Y-99518002D01*
X126160150Y-99412827D02*
X126171019Y-99462408D01*
X126149326Y-99363456D02*
X126160150Y-99412827D01*
X126138491Y-99314027D02*
X126149326Y-99363456D01*
X126127606Y-99264372D02*
X126138491Y-99314027D01*
X126116755Y-99214877D02*
X126127606Y-99264372D01*
X126113030Y-99163743D02*
X126116755Y-99214877D01*
X126109321Y-99112827D02*
X126113030Y-99163743D01*
X126105606Y-99061850D02*
X126109321Y-99112827D01*
X126101875Y-99010642D02*
X126105606Y-99061850D01*
X126098155Y-98959596D02*
X126101875Y-99010642D01*
X126100846Y-98906187D02*
X126098155Y-98959596D01*
X126103526Y-98853001D02*
X126100846Y-98906187D01*
X126106209Y-98799753D02*
X126103526Y-98853001D01*
X126108905Y-98746265D02*
X126106209Y-98799753D01*
X126111591Y-98692946D02*
X126108905Y-98746265D01*
X126119663Y-98636535D02*
X126111591Y-98692946D01*
X126127704Y-98580358D02*
X126119663Y-98636535D01*
X126135752Y-98524118D02*
X126127704Y-98580358D01*
X126143838Y-98467625D02*
X126135752Y-98524118D01*
X126151897Y-98411308D02*
X126143838Y-98467625D01*
X126180939Y-98286874D02*
X126151897Y-98411308D01*
X126210003Y-98162340D02*
X126180939Y-98286874D01*
X126239018Y-98038023D02*
X126210003Y-98162340D01*
X126268072Y-97913537D02*
X126239018Y-98038023D01*
X126297108Y-97789124D02*
X126268072Y-97913537D01*
X126337002Y-97644329D02*
X126297108Y-97789124D01*
X126376926Y-97499422D02*
X126337002Y-97644329D01*
X126416782Y-97354763D02*
X126376926Y-97499422D01*
X126456693Y-97209907D02*
X126416782Y-97354763D01*
X126496579Y-97065137D02*
X126456693Y-97209907D01*
X126540503Y-96894298D02*
X126496579Y-97065137D01*
X126584462Y-96723325D02*
X126540503Y-96894298D01*
X126628345Y-96552647D02*
X126584462Y-96723325D01*
X126672287Y-96381737D02*
X126628345Y-96552647D01*
X126716204Y-96210927D02*
X126672287Y-96381737D01*
X126714352Y-96005465D02*
X126716204Y-96210927D01*
X126712500Y-95799841D02*
X126714352Y-96005465D01*
X126710648Y-95594575D02*
X126712500Y-95799841D01*
X126708795Y-95389026D02*
X126710648Y-95594575D01*
X126706943Y-95183600D02*
X126708795Y-95389026D01*
X126702086Y-95001186D02*
X126706943Y-95183600D01*
X126697225Y-94818629D02*
X126702086Y-95001186D01*
X126692373Y-94636384D02*
X126697225Y-94818629D01*
X126687512Y-94453893D02*
X126692373Y-94636384D01*
X126682655Y-94271510D02*
X126687512Y-94453893D01*
X126680591Y-94105320D02*
X126682655Y-94271510D01*
X126678527Y-93939003D02*
X126680591Y-94105320D01*
X126676463Y-93772969D02*
X126678527Y-93939003D01*
X126674400Y-93606713D02*
X126676463Y-93772969D01*
X126672336Y-93440552D02*
X126674400Y-93606713D01*
X126674109Y-93361161D02*
X126672336Y-93440552D01*
X126675855Y-93282106D02*
X126674109Y-93361161D01*
X126677601Y-93202959D02*
X126675855Y-93282106D01*
X126679374Y-93123451D02*
X126677601Y-93202959D01*
X126681120Y-93044195D02*
X126679374Y-93123451D01*
X126685777Y-92966254D02*
X126681120Y-93044195D01*
X126690415Y-92888639D02*
X126685777Y-92966254D01*
X126695058Y-92810936D02*
X126690415Y-92888639D01*
X126699723Y-92732881D02*
X126695058Y-92810936D01*
X126704374Y-92655070D02*
X126699723Y-92732881D01*
X126712447Y-92577648D02*
X126704374Y-92655070D01*
X126720487Y-92500548D02*
X126712447Y-92577648D01*
X126728536Y-92423361D02*
X126720487Y-92500548D01*
X126736622Y-92345825D02*
X126728536Y-92423361D01*
X126744681Y-92268532D02*
X126736622Y-92345825D01*
X126757103Y-92190798D02*
X126744681Y-92268532D01*
X126769472Y-92113389D02*
X126757103Y-92190798D01*
X126781855Y-92035892D02*
X126769472Y-92113389D01*
X126794293Y-91958044D02*
X126781855Y-92035892D01*
X126806694Y-91880442D02*
X126794293Y-91958044D01*
X126823979Y-91801466D02*
X126806694Y-91880442D01*
X126841193Y-91722821D02*
X126823979Y-91801466D01*
X126858425Y-91644087D02*
X126841193Y-91722821D01*
X126875737Y-91564995D02*
X126858425Y-91644087D01*
X126892993Y-91486152D02*
X126875737Y-91564995D01*
X126915869Y-91405001D02*
X126892993Y-91486152D01*
X126938650Y-91324192D02*
X126915869Y-91405001D01*
X126961454Y-91243290D02*
X126938650Y-91324192D01*
X126984362Y-91162021D02*
X126961454Y-91243290D01*
X127007198Y-91081008D02*
X126984362Y-91162021D01*
X127036490Y-90996855D02*
X127007198Y-91081008D01*
X127065660Y-90913056D02*
X127036490Y-90996855D01*
X127094863Y-90829162D02*
X127065660Y-90913056D01*
X127124199Y-90744887D02*
X127094863Y-90829162D01*
X127153442Y-90660876D02*
X127124199Y-90744887D01*
X127189956Y-90572704D02*
X127153442Y-90660876D01*
X127226301Y-90484939D02*
X127189956Y-90572704D01*
X127262668Y-90397121D02*
X127226301Y-90484939D01*
X127298970Y-90309462D02*
X127262668Y-90397121D01*
X127335343Y-90221628D02*
X127298970Y-90309462D01*
X127379533Y-90128686D02*
X127335343Y-90221628D01*
X127423519Y-90036169D02*
X127379533Y-90128686D01*
X127467532Y-89943599D02*
X127423519Y-90036169D01*
X127511465Y-89851193D02*
X127467532Y-89943599D01*
X127555485Y-89758608D02*
X127511465Y-89851193D01*
X127608284Y-89660064D02*
X127555485Y-89758608D01*
X127660840Y-89561972D02*
X127608284Y-89660064D01*
X127713428Y-89463819D02*
X127660840Y-89561972D01*
X127765921Y-89365847D02*
X127713428Y-89463819D01*
X127818518Y-89267681D02*
X127765921Y-89365847D01*
X128037086Y-88989308D02*
X127818518Y-89267681D01*
X128255848Y-88710686D02*
X128037086Y-88989308D01*
X128474556Y-88432132D02*
X128255848Y-88710686D01*
X128693338Y-88153484D02*
X128474556Y-88432132D01*
X128911991Y-87875002D02*
X128693338Y-88153484D01*
X129006247Y-87760903D02*
X128911991Y-87875002D01*
X129100577Y-87646714D02*
X129006247Y-87760903D01*
X129194745Y-87532721D02*
X129100577Y-87646714D01*
X129289040Y-87418574D02*
X129194745Y-87532721D01*
X129383280Y-87304494D02*
X129289040Y-87418574D01*
X129473299Y-87203521D02*
X129383280Y-87304494D01*
X129563388Y-87102466D02*
X129473299Y-87203521D01*
X129653322Y-87001588D02*
X129563388Y-87102466D01*
X129743379Y-86900573D02*
X129653322Y-87001588D01*
X129833382Y-86799616D02*
X129743379Y-86900573D01*
X129854808Y-86761008D02*
X129833382Y-86799616D01*
X129876144Y-86722562D02*
X129854808Y-86761008D01*
X129897504Y-86684070D02*
X129876144Y-86722562D01*
X129918961Y-86645406D02*
X129897504Y-86684070D01*
X129940350Y-86606862D02*
X129918961Y-86645406D01*
X129957429Y-86566079D02*
X129940350Y-86606862D01*
X129974436Y-86525468D02*
X129957429Y-86566079D01*
X129991462Y-86484812D02*
X129974436Y-86525468D01*
X130008565Y-86443971D02*
X129991462Y-86484812D01*
X130025615Y-86403257D02*
X130008565Y-86443971D01*
X130039278Y-86360715D02*
X130025615Y-86403257D01*
X130052883Y-86318352D02*
X130039278Y-86360715D01*
X130066503Y-86275940D02*
X130052883Y-86318352D01*
X130080188Y-86233336D02*
X130066503Y-86275940D01*
X130093827Y-86190865D02*
X130080188Y-86233336D01*
X130104696Y-86146876D02*
X130093827Y-86190865D01*
X130115520Y-86103069D02*
X130104696Y-86146876D01*
X130126355Y-86059214D02*
X130115520Y-86103069D01*
X130137240Y-86015158D02*
X130126355Y-86059214D01*
X130148090Y-85971243D02*
X130137240Y-86015158D01*
X130164272Y-85880684D02*
X130148090Y-85971243D01*
X130180380Y-85790543D02*
X130164272Y-85880684D01*
X130196499Y-85700349D02*
X130180380Y-85790543D01*
X130212588Y-85610317D02*
X130196499Y-85700349D01*
X130228709Y-85520107D02*
X130212588Y-85610317D01*
X130242298Y-85429029D02*
X130228709Y-85520107D01*
X130255823Y-85338373D02*
X130242298Y-85429029D01*
X130269357Y-85247660D02*
X130255823Y-85338373D01*
X130282866Y-85157112D02*
X130269357Y-85247660D01*
X130296403Y-85066386D02*
X130282866Y-85157112D01*
X130312963Y-84978095D02*
X130296403Y-85066386D01*
X130329454Y-84890174D02*
X130312963Y-84978095D01*
X130345964Y-84802152D02*
X130329454Y-84890174D01*
X130362551Y-84713731D02*
X130345964Y-84802152D01*
X130379085Y-84625588D02*
X130362551Y-84713731D01*
X130390367Y-84583564D02*
X130379085Y-84625588D01*
X130401601Y-84541715D02*
X130390367Y-84583564D01*
X130412848Y-84499821D02*
X130401601Y-84541715D01*
X130424146Y-84457733D02*
X130412848Y-84499821D01*
X130435409Y-84415781D02*
X130424146Y-84457733D01*
X130449485Y-84375620D02*
X130435409Y-84415781D01*
X130463503Y-84335628D02*
X130449485Y-84375620D01*
X130477536Y-84295589D02*
X130463503Y-84335628D01*
X130491633Y-84255370D02*
X130477536Y-84295589D01*
X130505685Y-84215277D02*
X130491633Y-84255370D01*
X130523386Y-84177394D02*
X130505685Y-84215277D01*
X130541013Y-84139667D02*
X130523386Y-84177394D01*
X130558658Y-84101901D02*
X130541013Y-84139667D01*
X130576382Y-84063959D02*
X130558658Y-84101901D01*
X130594051Y-84026140D02*
X130576382Y-84063959D01*
X130616099Y-83990948D02*
X130594051Y-84026140D01*
X130638054Y-83955904D02*
X130616099Y-83990948D01*
X130660033Y-83920817D02*
X130638054Y-83955904D01*
X130682112Y-83885575D02*
X130660033Y-83920817D01*
X130704123Y-83850441D02*
X130682112Y-83885575D01*
X130731242Y-83818458D02*
X130704123Y-83850441D01*
X130758247Y-83786607D02*
X130731242Y-83818458D01*
X130785283Y-83754722D02*
X130758247Y-83786607D01*
X130812442Y-83722692D02*
X130785283Y-83754722D01*
X130839515Y-83690762D02*
X130812442Y-83722692D01*
X130872327Y-83662298D02*
X130839515Y-83690762D01*
X130905001Y-83633953D02*
X130872327Y-83662298D01*
X130937713Y-83605574D02*
X130905001Y-83633953D01*
X130970573Y-83577068D02*
X130937713Y-83605574D01*
X131003329Y-83548652D02*
X130970573Y-83577068D01*
X131145127Y-83444681D02*
X131003329Y-83548652D01*
X131287036Y-83340628D02*
X131145127Y-83444681D01*
X131428700Y-83236753D02*
X131287036Y-83340628D01*
X131570557Y-83132737D02*
X131428700Y-83236753D01*
X131712330Y-83028785D02*
X131570557Y-83132737D01*
X131815164Y-82957369D02*
X131712330Y-83028785D01*
X131918079Y-82885897D02*
X131815164Y-82957369D01*
X132020817Y-82814549D02*
X131918079Y-82885897D01*
X132123694Y-82743104D02*
X132020817Y-82814549D01*
X132226510Y-82671701D02*
X132123694Y-82743104D01*
X132309911Y-82620872D02*
X132226510Y-82671701D01*
X132392927Y-82570278D02*
X132309911Y-82620872D01*
X132475993Y-82519653D02*
X132392927Y-82570278D01*
X132558909Y-82469120D02*
X132475993Y-82519653D01*
X132641989Y-82418487D02*
X132558909Y-82469120D01*
X132724767Y-82377098D02*
X132641989Y-82418487D01*
X132807163Y-82335900D02*
X132724767Y-82377098D01*
X132889610Y-82294675D02*
X132807163Y-82335900D01*
X132971907Y-82253527D02*
X132889610Y-82294675D01*
X133054367Y-82212297D02*
X132971907Y-82253527D01*
X133293211Y-82111633D02*
X133054367Y-82212297D01*
X133532243Y-82010891D02*
X133293211Y-82111633D01*
X133770862Y-81910323D02*
X133532243Y-82010891D01*
X134009807Y-81809614D02*
X133770862Y-81910323D01*
X134248609Y-81708969D02*
X134009807Y-81809614D01*
X134443116Y-81626496D02*
X134248609Y-81708969D01*
X134637775Y-81543957D02*
X134443116Y-81626496D01*
X134832099Y-81461560D02*
X134637775Y-81543957D01*
X135026687Y-81379052D02*
X134832099Y-81461560D01*
X135221160Y-81296592D02*
X135026687Y-81379052D01*
X135491320Y-81177429D02*
X135221160Y-81296592D01*
X135761691Y-81058171D02*
X135491320Y-81177429D01*
X136031596Y-80939119D02*
X135761691Y-81058171D01*
X136301869Y-80819906D02*
X136031596Y-80939119D01*
X136571982Y-80700761D02*
X136301869Y-80819906D01*
X136626944Y-80679330D02*
X136571982Y-80700761D01*
X136681676Y-80658005D02*
X136626944Y-80679330D01*
X136736471Y-80636653D02*
X136681676Y-80658005D01*
X136791514Y-80615195D02*
X136736471Y-80636653D01*
X136846384Y-80593817D02*
X136791514Y-80615195D01*
X136912835Y-80573232D02*
X136846384Y-80593817D01*
X136979008Y-80552727D02*
X136912835Y-80573232D01*
X137045257Y-80532195D02*
X136979008Y-80552727D01*
X137111806Y-80511558D02*
X137045257Y-80532195D01*
X137178146Y-80491000D02*
X137111806Y-80511558D01*
X137338547Y-80450177D02*
X137178146Y-80491000D01*
X137499074Y-80409320D02*
X137338547Y-80450177D01*
X137659324Y-80368535D02*
X137499074Y-80409320D01*
X137819792Y-80327696D02*
X137659324Y-80368535D01*
X137980164Y-80286879D02*
X137819792Y-80327696D01*
X138165163Y-80243575D02*
X137980164Y-80286879D01*
X138350306Y-80200236D02*
X138165163Y-80243575D01*
X138535131Y-80156974D02*
X138350306Y-80200236D01*
X138720207Y-80113651D02*
X138535131Y-80156974D01*
X138905173Y-80070355D02*
X138720207Y-80113651D01*
X139100609Y-80020954D02*
X138905173Y-80070355D01*
X139296200Y-79971511D02*
X139100609Y-80020954D01*
X139491452Y-79922159D02*
X139296200Y-79971511D01*
X139686971Y-79872735D02*
X139491452Y-79922159D01*
X139882374Y-79823342D02*
X139686971Y-79872735D01*
X139894994Y-79817839D02*
X139882374Y-79823342D01*
X139908083Y-79812150D02*
X139894994Y-79817839D01*
X139920770Y-79806620D02*
X139908083Y-79812150D01*
X139933486Y-79801091D02*
X139920770Y-79806620D01*
X139946453Y-79795455D02*
X139933486Y-79801091D01*
X139957574Y-79784343D02*
X139946453Y-79795455D01*
X139968639Y-79773283D02*
X139957574Y-79784343D01*
X139979587Y-79762329D02*
X139968639Y-79773283D01*
X139990559Y-79751349D02*
X139979587Y-79762329D01*
X140001749Y-79740157D02*
X139990559Y-79751349D01*
X140011311Y-79723727D02*
X140001749Y-79740157D01*
X140020825Y-79707375D02*
X140011311Y-79723727D01*
X140030239Y-79691209D02*
X140020825Y-79707375D01*
X140039674Y-79675017D02*
X140030239Y-79691209D01*
X140049294Y-79658507D02*
X140039674Y-79675017D01*
X140057335Y-79636996D02*
X140049294Y-79658507D01*
X140065328Y-79615618D02*
X140057335Y-79636996D01*
X140073228Y-79594478D02*
X140065328Y-79615618D01*
X140081129Y-79573337D02*
X140073228Y-79594478D01*
X140089085Y-79552038D02*
X140081129Y-79573337D01*
X140100885Y-79495936D02*
X140089085Y-79552038D01*
X140112635Y-79440072D02*
X140100885Y-79495936D01*
X140124399Y-79384142D02*
X140112635Y-79440072D01*
X140136215Y-79327957D02*
X140124399Y-79384142D01*
X140147994Y-79271950D02*
X140136215Y-79327957D01*
X140155344Y-79199494D02*
X140147994Y-79271950D01*
X140162663Y-79127345D02*
X140155344Y-79199494D01*
X140169989Y-79055111D02*
X140162663Y-79127345D01*
X140177350Y-78982549D02*
X140169989Y-79055111D01*
X140184687Y-78910217D02*
X140177350Y-78982549D01*
X140188518Y-78823685D02*
X140184687Y-78910217D01*
X140192331Y-78737516D02*
X140188518Y-78823685D01*
X140196148Y-78651246D02*
X140192331Y-78737516D01*
X140199985Y-78564587D02*
X140196148Y-78651246D01*
X140203808Y-78478201D02*
X140199985Y-78564587D01*
X140205158Y-78379863D02*
X140203808Y-78478201D01*
X140206507Y-78281978D02*
X140205158Y-78379863D01*
X140207856Y-78184034D02*
X140206507Y-78281978D01*
X140209206Y-78086268D02*
X140207856Y-78184034D01*
X140210555Y-77988309D02*
X140209206Y-78086268D01*
X140209629Y-77766516D02*
X140210555Y-77988309D01*
X140208703Y-77544552D02*
X140209629Y-77766516D01*
X140207777Y-77322969D02*
X140208703Y-77544552D01*
X140206851Y-77101084D02*
X140207777Y-77322969D01*
X140205925Y-76879331D02*
X140206851Y-77101084D01*
X140208412Y-76658367D02*
X140205925Y-76879331D01*
X140210899Y-76437229D02*
X140208412Y-76658367D01*
X140213386Y-76216473D02*
X140210899Y-76437229D01*
X140215873Y-75995417D02*
X140213386Y-76216473D01*
X140218360Y-75774490D02*
X140215873Y-75995417D01*
X140216297Y-75662357D02*
X140218360Y-75774490D01*
X140214233Y-75550737D02*
X140216297Y-75662357D01*
X140212169Y-75439053D02*
X140214233Y-75550737D01*
X140210105Y-75327569D02*
X140212169Y-75439053D01*
X140208042Y-75215867D02*
X140210105Y-75327569D01*
X140198395Y-75106636D02*
X140208042Y-75215867D01*
X140188793Y-74997911D02*
X140198395Y-75106636D01*
X140179183Y-74889120D02*
X140188793Y-74997911D01*
X140169592Y-74780524D02*
X140179183Y-74889120D01*
X140159983Y-74671714D02*
X140169592Y-74780524D01*
X140157601Y-74633209D02*
X140159983Y-74671714D01*
X140155220Y-74594866D02*
X140157601Y-74633209D01*
X140152839Y-74556480D02*
X140155220Y-74594866D01*
X140150458Y-74517917D02*
X140152839Y-74556480D01*
X140148076Y-74479479D02*
X140150458Y-74517917D01*
X140149214Y-74430830D02*
X140148076Y-74479479D01*
X140150352Y-74382384D02*
X140149214Y-74430830D01*
X140151489Y-74333886D02*
X140150352Y-74382384D01*
X140152627Y-74285166D02*
X140151489Y-74333886D01*
X140153765Y-74236599D02*
X140152627Y-74285166D01*
X140163285Y-74122066D02*
X140153765Y-74236599D01*
X140172810Y-74007467D02*
X140163285Y-74122066D01*
X140182316Y-73893096D02*
X140172810Y-74007467D01*
X140191804Y-73778931D02*
X140182316Y-73893096D01*
X140201311Y-73664541D02*
X140191804Y-73778931D01*
X140223324Y-73458872D02*
X140201311Y-73664541D01*
X140245356Y-73253042D02*
X140223324Y-73458872D01*
X140267348Y-73047567D02*
X140245356Y-73253042D01*
X140289372Y-72841811D02*
X140267348Y-73047567D01*
X140311382Y-72636179D02*
X140289372Y-72841811D01*
X140311176Y-72101123D02*
X140311382Y-72636179D01*
X140310970Y-71565588D02*
X140311176Y-72101123D01*
X140310763Y-71030190D02*
X140310970Y-71565588D01*
X140310557Y-70494608D02*
X140310763Y-71030190D01*
X140310351Y-69959342D02*
X140310557Y-70494608D01*
X140257361Y-69602983D02*
X140310351Y-69959342D01*
X140204325Y-69246303D02*
X140257361Y-69602983D01*
X140151302Y-68889714D02*
X140204325Y-69246303D01*
X140098260Y-68533005D02*
X140151302Y-68889714D01*
X140045251Y-68176506D02*
X140098260Y-68533005D01*
X140036363Y-68046489D02*
X140045251Y-68176506D01*
X140027468Y-67916373D02*
X140036363Y-68046489D01*
X140018588Y-67786478D02*
X140027468Y-67916373D01*
X140009696Y-67656406D02*
X140018588Y-67786478D01*
X140000808Y-67526414D02*
X140009696Y-67656406D01*
X140000279Y-67429529D02*
X140000808Y-67526414D01*
X139999750Y-67333091D02*
X140000279Y-67429529D01*
X139999221Y-67236595D02*
X139999750Y-67333091D01*
X139998692Y-67140270D02*
X139999221Y-67236595D01*
X139998163Y-67043758D02*
X139998692Y-67140270D01*
X140003338Y-66972546D02*
X139998163Y-67043758D01*
X140008492Y-66901629D02*
X140003338Y-66972546D01*
X140013651Y-66830636D02*
X140008492Y-66901629D01*
X140018835Y-66759318D02*
X140013651Y-66830636D01*
X140024002Y-66688224D02*
X140018835Y-66759318D01*
X140032490Y-66634297D02*
X140024002Y-66688224D01*
X140040943Y-66580595D02*
X140032490Y-66634297D01*
X140049404Y-66526834D02*
X140040943Y-66580595D01*
X140057906Y-66472827D02*
X140049404Y-66526834D01*
X140066380Y-66418990D02*
X140057906Y-66472827D01*
X140083665Y-66330180D02*
X140066380Y-66418990D01*
X140100879Y-66241743D02*
X140083665Y-66330180D01*
X140118111Y-66153205D02*
X140100879Y-66241743D01*
X140135423Y-66064266D02*
X140118111Y-66153205D01*
X140152679Y-65975606D02*
X140135423Y-66064266D01*
X140156510Y-65924473D02*
X140152679Y-65975606D01*
X140160323Y-65873554D02*
X140156510Y-65924473D01*
X140164141Y-65822579D02*
X140160323Y-65873554D01*
X140167978Y-65771369D02*
X140164141Y-65822579D01*
X140171801Y-65720323D02*
X140167978Y-65771369D01*
X140169110Y-65653870D02*
X140171801Y-65720323D01*
X140166430Y-65587698D02*
X140169110Y-65653870D01*
X140163747Y-65521452D02*
X140166430Y-65587698D01*
X140161051Y-65454901D02*
X140163747Y-65521452D01*
X140158365Y-65388562D02*
X140161051Y-65454901D01*
X140159291Y-65104553D02*
X140158365Y-65388562D01*
X140160217Y-64820322D02*
X140159291Y-65104553D01*
X140161143Y-64536580D02*
X140160217Y-64820322D01*
X140162069Y-64252452D02*
X140161143Y-64536580D01*
X140162995Y-63968493D02*
X140162069Y-64252452D01*
X140165901Y-63858225D02*
X140162995Y-63968493D01*
X140168792Y-63748468D02*
X140165901Y-63858225D01*
X140171684Y-63638642D02*
X140168792Y-63748468D01*
X140174571Y-63529015D02*
X140171684Y-63638642D01*
X140177465Y-63419173D02*
X140174571Y-63529015D01*
X140185972Y-63324259D02*
X140177465Y-63419173D01*
X140194438Y-63229782D02*
X140185972Y-63324259D01*
X140202910Y-63135246D02*
X140194438Y-63229782D01*
X140211367Y-63040882D02*
X140202910Y-63135246D01*
X140219841Y-62946334D02*
X140211367Y-63040882D01*
X140236817Y-62862389D02*
X140219841Y-62946334D01*
X140253721Y-62778797D02*
X140236817Y-62862389D01*
X140270644Y-62695106D02*
X140253721Y-62778797D01*
X140287643Y-62611040D02*
X140270644Y-62695106D01*
X140304590Y-62527236D02*
X140287643Y-62611040D01*
X140317322Y-62487903D02*
X140304590Y-62527236D01*
X140330000Y-62448737D02*
X140317322Y-62487903D01*
X140342692Y-62409523D02*
X140330000Y-62448737D01*
X140355443Y-62370135D02*
X140342692Y-62409523D01*
X140368153Y-62330868D02*
X140355443Y-62370135D01*
X140383989Y-62292466D02*
X140368153Y-62330868D01*
X140399758Y-62254226D02*
X140383989Y-62292466D01*
X140415545Y-62215943D02*
X140399758Y-62254226D01*
X140431405Y-62177483D02*
X140415545Y-62215943D01*
X140447213Y-62139148D02*
X140431405Y-62177483D01*
X140466777Y-62101162D02*
X140447213Y-62139148D01*
X140486258Y-62063332D02*
X140466777Y-62101162D01*
X140505760Y-62025462D02*
X140486258Y-62063332D01*
X140525353Y-61987417D02*
X140505760Y-62025462D01*
X140544882Y-61949495D02*
X140525353Y-61987417D01*
X140568377Y-61911403D02*
X140544882Y-61949495D01*
X140591774Y-61873472D02*
X140568377Y-61911403D01*
X140615197Y-61835499D02*
X140591774Y-61873472D01*
X140638727Y-61797351D02*
X140615197Y-61835499D01*
X140662185Y-61759325D02*
X140638727Y-61797351D01*
X140722764Y-61680075D02*
X140662185Y-61759325D01*
X140783064Y-61601189D02*
X140722764Y-61680075D01*
X140843401Y-61522253D02*
X140783064Y-61601189D01*
X140903629Y-61443463D02*
X140843401Y-61522253D01*
X140963975Y-61364517D02*
X140903629Y-61443463D01*
X141014694Y-61314730D02*
X140963975Y-61364517D01*
X141065200Y-61265153D02*
X141014694Y-61314730D01*
X141115764Y-61215517D02*
X141065200Y-61265153D01*
X141166557Y-61165656D02*
X141115764Y-61215517D01*
X141217190Y-61115954D02*
X141166557Y-61165656D01*
X141268840Y-61069271D02*
X141217190Y-61115954D01*
X141320274Y-61022786D02*
X141268840Y-61069271D01*
X141371766Y-60976246D02*
X141320274Y-61022786D01*
X141423492Y-60929497D02*
X141371766Y-60976246D01*
X141475055Y-60882893D02*
X141423492Y-60929497D01*
X141580990Y-60798560D02*
X141475055Y-60882893D01*
X141687008Y-60714158D02*
X141580990Y-60798560D01*
X141792843Y-60629904D02*
X141687008Y-60714158D01*
X141898822Y-60545533D02*
X141792843Y-60629904D01*
X142004738Y-60461213D02*
X141898822Y-60545533D01*
X142113773Y-60387524D02*
X142004738Y-60461213D01*
X142222895Y-60313777D02*
X142113773Y-60387524D01*
X142331827Y-60240157D02*
X142222895Y-60313777D01*
X142440909Y-60166436D02*
X142331827Y-60240157D01*
X142549925Y-60092760D02*
X142440909Y-60166436D01*
X142661648Y-60028061D02*
X142549925Y-60092760D01*
X142773459Y-59963315D02*
X142661648Y-60028061D01*
X142885076Y-59898678D02*
X142773459Y-59963315D01*
X142996846Y-59833953D02*
X142885076Y-59898678D01*
X143108548Y-59769267D02*
X142996846Y-59833953D01*
X143222234Y-59712115D02*
X143108548Y-59769267D01*
X143336008Y-59654917D02*
X143222234Y-59712115D01*
X143449588Y-59597817D02*
X143336008Y-59654917D01*
X143563322Y-59540638D02*
X143449588Y-59597817D01*
X143676987Y-59483496D02*
X143563322Y-59540638D01*
X143792120Y-59432439D02*
X143676987Y-59483496D01*
X143907344Y-59381346D02*
X143792120Y-59432439D01*
X144022369Y-59330337D02*
X143907344Y-59381346D01*
X144137552Y-59279259D02*
X144022369Y-59330337D01*
X144252665Y-59228213D02*
X144137552Y-59279259D01*
X144368727Y-59181704D02*
X144252665Y-59228213D01*
X144484882Y-59135161D02*
X144368727Y-59181704D01*
X144600835Y-59088698D02*
X144484882Y-59135161D01*
X144716945Y-59042171D02*
X144600835Y-59088698D01*
X144832989Y-58995670D02*
X144716945Y-59042171D01*
X144949363Y-58952263D02*
X144832989Y-58995670D01*
X145065827Y-58908821D02*
X144949363Y-58952263D01*
X145182090Y-58865453D02*
X145065827Y-58908821D01*
X145298512Y-58822027D02*
X145182090Y-58865453D01*
X145414865Y-58778627D02*
X145298512Y-58822027D01*
X145519426Y-58743152D02*
X145414865Y-58778627D01*
X145623508Y-58707840D02*
X145519426Y-58743152D01*
X145727651Y-58672506D02*
X145623508Y-58707840D01*
X145831605Y-58637235D02*
X145727651Y-58672506D01*
X145935764Y-58601896D02*
X145831605Y-58637235D01*
X146041674Y-58570569D02*
X145935764Y-58601896D01*
X146147097Y-58539386D02*
X146041674Y-58570569D01*
X146252581Y-58508185D02*
X146147097Y-58539386D01*
X146357878Y-58477040D02*
X146252581Y-58508185D01*
X146463380Y-58445833D02*
X146357878Y-58477040D01*
X146570431Y-58417929D02*
X146463380Y-58445833D01*
X146676989Y-58390154D02*
X146570431Y-58417929D01*
X146783613Y-58362362D02*
X146676989Y-58390154D01*
X146890042Y-58334620D02*
X146783613Y-58362362D01*
X146996682Y-58306824D02*
X146890042Y-58334620D01*
X147104770Y-58282032D02*
X146996682Y-58306824D01*
X147212360Y-58257354D02*
X147104770Y-58282032D01*
X147320016Y-58232661D02*
X147212360Y-58257354D01*
X147427477Y-58208012D02*
X147320016Y-58232661D01*
X147535149Y-58183316D02*
X147427477Y-58208012D01*
X147752703Y-58140632D02*
X147535149Y-58183316D01*
X147970428Y-58097915D02*
X147752703Y-58140632D01*
X148187778Y-58055271D02*
X147970428Y-58097915D01*
X148405422Y-58012569D02*
X148187778Y-58055271D01*
X148622938Y-57969892D02*
X148405422Y-58012569D01*
X148842042Y-57932583D02*
X148622938Y-57969892D01*
X149061319Y-57895244D02*
X148842042Y-57932583D01*
X149280216Y-57857969D02*
X149061319Y-57895244D01*
X149499413Y-57820643D02*
X149280216Y-57857969D01*
X149718480Y-57783340D02*
X149499413Y-57820643D01*
X149784208Y-57769987D02*
X149718480Y-57783340D01*
X149849658Y-57756692D02*
X149784208Y-57769987D01*
X149915185Y-57743380D02*
X149849658Y-57756692D01*
X149981008Y-57730008D02*
X149915185Y-57743380D01*
X150046624Y-57716679D02*
X149981008Y-57730008D01*
X150099723Y-57708191D02*
X150046624Y-57716679D01*
X150152600Y-57699737D02*
X150099723Y-57708191D01*
X150205538Y-57691276D02*
X150152600Y-57699737D01*
X150258717Y-57682775D02*
X150205538Y-57691276D01*
X150311726Y-57674300D02*
X150258717Y-57682775D01*
X150353647Y-57667884D02*
X150311726Y-57674300D01*
X150395390Y-57661495D02*
X150353647Y-57667884D01*
X150437184Y-57655097D02*
X150395390Y-57661495D01*
X150479165Y-57648670D02*
X150437184Y-57655097D01*
X150521014Y-57642265D02*
X150479165Y-57648670D01*
X150553095Y-57634917D02*
X150521014Y-57642265D01*
X150585043Y-57627601D02*
X150553095Y-57634917D01*
X150617373Y-57620196D02*
X150585043Y-57627601D01*
X150649178Y-57612912D02*
X150617373Y-57620196D01*
X150681211Y-57605575D02*
X150649178Y-57612912D01*
X150705024Y-57594610D02*
X150681211Y-57605575D01*
X150728678Y-57583710D02*
X150705024Y-57594610D01*
X150752067Y-57572936D02*
X150728678Y-57583710D01*
X150775456Y-57562162D02*
X150752067Y-57572936D01*
X150799004Y-57551311D02*
X150775456Y-57562162D01*
X150815593Y-57533767D02*
X150799004Y-57551311D01*
X150832103Y-57516326D02*
X150815593Y-57533767D01*
X150848428Y-57499088D02*
X150832103Y-57516326D01*
X150864753Y-57481850D02*
X150848428Y-57499088D01*
X150881184Y-57464491D02*
X150864753Y-57481850D01*
X150891952Y-57437998D02*
X150881184Y-57464491D01*
X150902668Y-57411616D02*
X150891952Y-57437998D01*
X150913516Y-57384919D02*
X150902668Y-57411616D01*
X150924178Y-57358654D02*
X150913516Y-57384919D01*
X150934920Y-57332201D02*
X150924178Y-57358654D01*
X150941244Y-57293593D02*
X150934920Y-57332201D01*
X150947541Y-57255146D02*
X150941244Y-57293593D01*
X150953838Y-57216656D02*
X150947541Y-57255146D01*
X150960162Y-57177991D02*
X150953838Y-57216656D01*
X150966459Y-57139448D02*
X150960162Y-57177991D01*
X150978048Y-56966231D02*
X150966459Y-57139448D01*
X150989636Y-56792879D02*
X150978048Y-56966231D01*
X151001199Y-56619826D02*
X150989636Y-56792879D01*
X151012787Y-56446537D02*
X151001199Y-56619826D01*
X151024350Y-56273351D02*
X151012787Y-56446537D01*
X151029403Y-56066028D02*
X151024350Y-56273351D01*
X151034457Y-55858544D02*
X151029403Y-56066028D01*
X151039510Y-55651417D02*
X151034457Y-55858544D01*
X151044564Y-55444008D02*
X151039510Y-55651417D01*
X151049617Y-55236722D02*
X151044564Y-55444008D01*
X151049723Y-55008832D02*
X151049617Y-55236722D01*
X151049829Y-54780765D02*
X151049723Y-55008832D01*
X151049935Y-54553090D02*
X151049829Y-54780765D01*
X151050041Y-54325106D02*
X151049935Y-54553090D01*
X151050146Y-54097256D02*
X151050041Y-54325106D01*
X151046839Y-53862443D02*
X151050146Y-54097256D01*
X151043532Y-53627445D02*
X151046839Y-53862443D01*
X151040225Y-53392853D02*
X151043532Y-53627445D01*
X151036917Y-53157940D02*
X151040225Y-53392853D01*
X151033610Y-52923168D02*
X151036917Y-53157940D01*
X151022974Y-52486652D02*
X151033610Y-52923168D01*
X151012311Y-52049747D02*
X151022974Y-52486652D01*
X151001675Y-51612952D02*
X151012311Y-52049747D01*
X150991039Y-51176007D02*
X151001675Y-51612952D01*
X150980402Y-50739322D02*
X150991039Y-51176007D01*
X150974714Y-50437397D02*
X150980402Y-50739322D01*
X150969025Y-50135203D02*
X150974714Y-50437397D01*
X150963337Y-49833084D02*
X150969025Y-50135203D01*
X150957648Y-49530862D02*
X150963337Y-49833084D01*
X150951960Y-49228820D02*
X150957648Y-49530862D01*
X150944895Y-49210114D02*
X150951960Y-49228820D01*
X150937857Y-49191500D02*
X150944895Y-49210114D01*
X150930899Y-49173083D02*
X150937857Y-49191500D01*
X150923914Y-49154625D02*
X150930899Y-49173083D01*
X150916796Y-49135803D02*
X150923914Y-49154625D01*
X150900128Y-49114485D02*
X150916796Y-49135803D01*
X150883538Y-49093255D02*
X150900128Y-49114485D01*
X150866737Y-49071771D02*
X150883538Y-49093255D01*
X150850227Y-49050636D02*
X150866737Y-49071771D01*
X150833585Y-49029350D02*
X150850227Y-49050636D01*
X150799634Y-48997366D02*
X150833585Y-49029350D01*
X150765828Y-48965517D02*
X150799634Y-48997366D01*
X150731980Y-48933631D02*
X150765828Y-48965517D01*
X150697981Y-48901600D02*
X150731980Y-48933631D01*
X150664088Y-48869670D02*
X150697981Y-48901600D01*
X150564194Y-48836891D02*
X150664088Y-48869670D01*
X150464761Y-48804263D02*
X150564194Y-48836891D01*
X150365267Y-48771615D02*
X150464761Y-48804263D01*
X150265953Y-48739026D02*
X150365267Y-48771615D01*
X150166443Y-48706373D02*
X150265953Y-48739026D01*
X150032604Y-48663895D02*
X150166443Y-48706373D01*
X149898659Y-48621385D02*
X150032604Y-48663895D01*
X149764946Y-48578948D02*
X149898659Y-48621385D01*
X149631048Y-48536452D02*
X149764946Y-48578948D01*
X149497233Y-48493982D02*
X149631048Y-48536452D01*
X149379930Y-48448818D02*
X149497233Y-48493982D01*
X149262534Y-48403618D02*
X149379930Y-48448818D01*
X149145340Y-48358496D02*
X149262534Y-48403618D01*
X149027986Y-48313313D02*
X149145340Y-48358496D01*
X148910704Y-48268157D02*
X149027986Y-48313313D01*
X148808530Y-48220336D02*
X148910704Y-48268157D01*
X148706825Y-48172736D02*
X148808530Y-48220336D01*
X148605058Y-48125107D02*
X148706825Y-48172736D01*
X148503476Y-48077565D02*
X148605058Y-48125107D01*
X148401694Y-48029928D02*
X148503476Y-48077565D01*
X148314040Y-47979411D02*
X148401694Y-48029928D01*
X148226791Y-47929126D02*
X148314040Y-47979411D01*
X148139486Y-47878811D02*
X148226791Y-47929126D01*
X148052343Y-47828587D02*
X148139486Y-47878811D01*
X147965025Y-47778264D02*
X148052343Y-47828587D01*
X147890754Y-47725257D02*
X147965025Y-47778264D01*
X147816824Y-47672494D02*
X147890754Y-47725257D01*
X147742850Y-47619700D02*
X147816824Y-47672494D01*
X147669010Y-47567000D02*
X147742850Y-47619700D01*
X147595024Y-47514197D02*
X147669010Y-47567000D01*
X147533437Y-47458821D02*
X147595024Y-47514197D01*
X147472109Y-47403677D02*
X147533437Y-47458821D01*
X147410710Y-47348469D02*
X147472109Y-47403677D01*
X147349033Y-47293011D02*
X147410710Y-47348469D01*
X147287549Y-47237728D02*
X147349033Y-47293011D01*
X147237347Y-47179764D02*
X147287549Y-47237728D01*
X147187357Y-47122043D02*
X147237347Y-47179764D01*
X147137308Y-47064256D02*
X147187357Y-47122043D01*
X147087035Y-47006207D02*
X147137308Y-47064256D01*
X147036917Y-46948340D02*
X147087035Y-47006207D01*
X146997172Y-46887995D02*
X147036917Y-46948340D01*
X146957590Y-46827904D02*
X146997172Y-46887995D01*
X146917966Y-46767743D02*
X146957590Y-46827904D01*
X146878159Y-46707310D02*
X146917966Y-46767743D01*
X146838480Y-46647067D02*
X146878159Y-46707310D01*
X146808048Y-46584341D02*
X146838480Y-46647067D01*
X146777745Y-46521879D02*
X146808048Y-46584341D01*
X146747408Y-46459345D02*
X146777745Y-46521879D01*
X146716930Y-46396527D02*
X146747408Y-46459345D01*
X146686551Y-46333908D02*
X146716930Y-46396527D01*
X146664511Y-46268801D02*
X146686551Y-46333908D01*
X146642551Y-46203968D02*
X146664511Y-46268801D01*
X146620564Y-46139061D02*
X146642551Y-46203968D01*
X146598498Y-46073859D02*
X146620564Y-46139061D01*
X146576484Y-46008863D02*
X146598498Y-46073859D01*
X146561800Y-45941480D02*
X146576484Y-46008863D01*
X146547168Y-45874379D02*
X146561800Y-45941480D01*
X146532510Y-45807201D02*
X146547168Y-45874379D01*
X146517800Y-45739719D02*
X146532510Y-45807201D01*
X146503115Y-45672449D02*
X146517800Y-45739719D01*
X146494622Y-45602685D02*
X146503115Y-45672449D01*
X146486182Y-45533214D02*
X146494622Y-45602685D01*
X146477715Y-45463663D02*
X146486182Y-45533214D01*
X146469222Y-45393797D02*
X146477715Y-45463663D01*
X146460755Y-45324150D02*
X146469222Y-45393797D01*
X146457660Y-45252109D02*
X146460755Y-45324150D01*
X146454564Y-45180370D02*
X146457660Y-45252109D01*
X146451469Y-45108549D02*
X146454564Y-45180370D01*
X146448373Y-45036402D02*
X146451469Y-45108549D01*
X146445277Y-44964482D02*
X146448373Y-45036402D01*
X146446600Y-44890164D02*
X146445277Y-44964482D01*
X146447923Y-44816157D02*
X146446600Y-44890164D01*
X146449246Y-44742066D02*
X146447923Y-44816157D01*
X146450569Y-44667639D02*
X146449246Y-44742066D01*
X146451892Y-44593445D02*
X146450569Y-44667639D01*
X146462952Y-44438522D02*
X146451892Y-44593445D01*
X146474011Y-44283477D02*
X146462952Y-44438522D01*
X146485071Y-44128700D02*
X146474011Y-44283477D01*
X146496130Y-43973712D02*
X146485071Y-44128700D01*
X146507190Y-43818816D02*
X146496130Y-43973712D01*
X146513699Y-43743566D02*
X146507190Y-43818816D01*
X146520207Y-43668632D02*
X146513699Y-43743566D01*
X146526716Y-43593612D02*
X146520207Y-43668632D01*
X146533251Y-43518251D02*
X146526716Y-43593612D01*
X146539760Y-43443128D02*
X146533251Y-43518251D01*
X146542962Y-43358873D02*
X146539760Y-43443128D01*
X146546163Y-43274971D02*
X146542962Y-43358873D01*
X146549364Y-43190974D02*
X146546163Y-43274971D01*
X146552592Y-43106595D02*
X146549364Y-43190974D01*
X146555794Y-43022482D02*
X146552592Y-43106595D01*
X146553942Y-42984184D02*
X146555794Y-43022482D01*
X146552090Y-42946047D02*
X146553942Y-42984184D01*
X146550238Y-42907866D02*
X146552090Y-42946047D01*
X146548385Y-42869512D02*
X146550238Y-42907866D01*
X146546533Y-42831279D02*
X146548385Y-42869512D01*
X146541348Y-42799405D02*
X146546533Y-42831279D01*
X146536188Y-42767663D02*
X146541348Y-42799405D01*
X146530976Y-42735543D02*
X146536188Y-42767663D01*
X146525843Y-42703942D02*
X146530976Y-42735543D01*
X146520684Y-42672116D02*
X146525843Y-42703942D01*
X146511291Y-42649351D02*
X146520684Y-42672116D01*
X146501951Y-42626721D02*
X146511291Y-42649351D01*
X146492717Y-42604356D02*
X146501951Y-42626721D01*
X146483483Y-42581991D02*
X146492717Y-42604356D01*
X146474170Y-42559464D02*
X146483483Y-42581991D01*
X146467767Y-42552746D02*
X146474170Y-42559464D01*
X146461126Y-42545780D02*
X146467767Y-42552746D01*
X146454670Y-42539028D02*
X146461126Y-42545780D01*
X146448214Y-42532260D02*
X146454670Y-42539028D01*
X146441626Y-42525357D02*
X146448214Y-42532260D01*
X146433900Y-42521896D02*
X146441626Y-42525357D01*
X146425883Y-42518308D02*
X146433900Y-42521896D01*
X146418105Y-42514829D02*
X146425883Y-42518308D01*
X146410326Y-42511342D02*
X146418105Y-42514829D01*
X146402388Y-42507786D02*
X146410326Y-42511342D01*
X146363055Y-42504576D02*
X146402388Y-42507786D01*
X146323887Y-42501380D02*
X146363055Y-42504576D01*
X146284675Y-42498181D02*
X146323887Y-42501380D01*
X146245284Y-42494967D02*
X146284675Y-42498181D01*
X146206017Y-42491762D02*
X146245284Y-42494967D01*
X146167925Y-42490201D02*
X146206017Y-42491762D01*
X146129995Y-42488667D02*
X146167925Y-42490201D01*
X146092022Y-42487106D02*
X146129995Y-42488667D01*
X146053874Y-42485545D02*
X146092022Y-42487106D01*
X146015848Y-42483984D02*
X146053874Y-42485545D01*
X145974962Y-42478187D02*
X146015848Y-42483984D01*
X145934248Y-42472413D02*
X145974962Y-42478187D01*
X145893486Y-42466635D02*
X145934248Y-42472413D01*
X145852542Y-42460830D02*
X145893486Y-42466635D01*
X145811725Y-42455044D02*
X145852542Y-42460830D01*
X145764007Y-42438896D02*
X145811725Y-42455044D01*
X145716490Y-42422817D02*
X145764007Y-42438896D01*
X145668921Y-42406720D02*
X145716490Y-42422817D01*
X145621132Y-42390549D02*
X145668921Y-42406720D01*
X145573496Y-42374428D02*
X145621132Y-42390549D01*
X145475990Y-42317998D02*
X145573496Y-42374428D01*
X145378930Y-42261828D02*
X145475990Y-42317998D01*
X145281812Y-42205624D02*
X145378930Y-42261828D01*
X145184871Y-42149521D02*
X145281812Y-42205624D01*
X145087737Y-42093308D02*
X145184871Y-42149521D01*
X145007553Y-42035633D02*
X145087737Y-42093308D01*
X144927738Y-41978224D02*
X145007553Y-42035633D01*
X144847874Y-41920780D02*
X144927738Y-41978224D01*
X144768155Y-41863440D02*
X144847874Y-41920780D01*
X144688280Y-41805987D02*
X144768155Y-41863440D01*
X144624624Y-41748023D02*
X144688280Y-41805987D01*
X144561232Y-41690302D02*
X144624624Y-41748023D01*
X144497769Y-41632515D02*
X144561232Y-41690302D01*
X144434021Y-41574466D02*
X144497769Y-41632515D01*
X144370470Y-41516599D02*
X144434021Y-41574466D01*
X144321718Y-41458945D02*
X144370470Y-41516599D01*
X144273170Y-41401533D02*
X144321718Y-41458945D01*
X144224569Y-41344056D02*
X144273170Y-41401533D01*
X144175745Y-41286318D02*
X144224569Y-41344056D01*
X144127075Y-41228761D02*
X144175745Y-41286318D01*
X144092192Y-41172246D02*
X144127075Y-41228761D01*
X144057458Y-41115968D02*
X144092192Y-41172246D01*
X144022681Y-41059626D02*
X144057458Y-41115968D01*
X143987748Y-41003028D02*
X144022681Y-41059626D01*
X143952924Y-40946608D02*
X143987748Y-41003028D01*
X143930778Y-40891749D02*
X143952924Y-40946608D01*
X143908712Y-40837120D02*
X143930778Y-40891749D01*
X143886619Y-40782429D02*
X143908712Y-40837120D01*
X143864447Y-40727489D02*
X143886619Y-40782429D01*
X143842328Y-40672723D02*
X143864447Y-40727489D01*
X143831665Y-40620348D02*
X143842328Y-40672723D01*
X143821055Y-40568193D02*
X143831665Y-40620348D01*
X143810419Y-40515978D02*
X143821055Y-40568193D01*
X143799730Y-40463526D02*
X143810419Y-40515978D01*
X143789094Y-40411240D02*
X143799730Y-40463526D01*
X143788882Y-40362178D02*
X143789094Y-40411240D01*
X143788670Y-40313321D02*
X143788882Y-40362178D01*
X143788459Y-40264408D02*
X143788670Y-40313321D01*
X143788247Y-40215274D02*
X143788459Y-40264408D01*
X143788035Y-40166294D02*
X143788247Y-40215274D01*
X143796925Y-40121268D02*
X143788035Y-40166294D01*
X143805789Y-40076431D02*
X143796925Y-40121268D01*
X143814652Y-40031543D02*
X143805789Y-40076431D01*
X143823569Y-39986451D02*
X143814652Y-40031543D01*
X143832459Y-39941501D02*
X143823569Y-39986451D01*
X143849339Y-39901133D02*
X143832459Y-39941501D01*
X143866140Y-39860935D02*
X143849339Y-39901133D01*
X143882968Y-39820690D02*
X143866140Y-39860935D01*
X143899875Y-39780263D02*
X143882968Y-39820690D01*
X143916729Y-39739963D02*
X143899875Y-39780263D01*
X143940541Y-39705081D02*
X143916729Y-39739963D01*
X143964248Y-39670346D02*
X143940541Y-39705081D01*
X143987981Y-39635570D02*
X143964248Y-39670346D01*
X144011820Y-39600637D02*
X143987981Y-39635570D01*
X144035579Y-39565814D02*
X144011820Y-39600637D01*
X144064975Y-39537246D02*
X144035579Y-39565814D01*
X144094248Y-39508797D02*
X144064975Y-39537246D01*
X144123556Y-39480317D02*
X144094248Y-39508797D01*
X144152994Y-39451707D02*
X144123556Y-39480317D01*
X144182341Y-39423187D02*
X144152994Y-39451707D01*
X144216292Y-39401451D02*
X144182341Y-39423187D01*
X144250101Y-39379806D02*
X144216292Y-39401451D01*
X144283946Y-39358136D02*
X144250101Y-39379806D01*
X144317948Y-39336369D02*
X144283946Y-39358136D01*
X144351841Y-39314670D02*
X144317948Y-39336369D01*
X144389208Y-39300595D02*
X144351841Y-39314670D01*
X144426417Y-39286577D02*
X144389208Y-39300595D01*
X144463667Y-39272543D02*
X144426417Y-39286577D01*
X144501087Y-39258446D02*
X144463667Y-39272543D01*
X144538391Y-39244394D02*
X144501087Y-39258446D01*
X144577827Y-39238804D02*
X144538391Y-39244394D01*
X144617099Y-39233237D02*
X144577827Y-39238804D01*
X144656414Y-39227665D02*
X144617099Y-39233237D01*
X144695908Y-39222066D02*
X144656414Y-39227665D01*
X144735278Y-39216486D02*
X144695908Y-39222066D01*
X144775749Y-39220005D02*
X144735278Y-39216486D01*
X144816053Y-39223511D02*
X144775749Y-39220005D01*
X144856399Y-39227019D02*
X144816053Y-39223511D01*
X144896930Y-39230544D02*
X144856399Y-39227019D01*
X144937335Y-39234057D02*
X144896930Y-39230544D01*
X144995919Y-39248548D02*
X144937335Y-39234057D01*
X145054260Y-39262979D02*
X144995919Y-39248548D01*
X145112664Y-39277425D02*
X145054260Y-39262979D01*
X145171335Y-39291937D02*
X145112664Y-39277425D01*
X145229821Y-39306405D02*
X145171335Y-39291937D01*
X145277436Y-39313443D02*
X145229821Y-39306405D01*
X145324849Y-39320452D02*
X145277436Y-39313443D01*
X145372318Y-39327468D02*
X145324849Y-39320452D01*
X145420001Y-39334517D02*
X145372318Y-39327468D01*
X145467533Y-39341544D02*
X145420001Y-39334517D01*
X145505416Y-39341650D02*
X145467533Y-39341544D01*
X145543143Y-39341756D02*
X145505416Y-39341650D01*
X145580910Y-39341861D02*
X145543143Y-39341756D01*
X145618851Y-39341968D02*
X145580910Y-39341861D01*
X145656671Y-39342073D02*
X145618851Y-39341968D01*
X145685958Y-39335554D02*
X145656671Y-39342073D01*
X145715123Y-39329061D02*
X145685958Y-39335554D01*
X145744634Y-39322492D02*
X145715123Y-39329061D01*
X145773672Y-39316028D02*
X145744634Y-39322492D01*
X145802914Y-39309516D02*
X145773672Y-39316028D01*
X145825165Y-39296880D02*
X145802914Y-39309516D01*
X145847285Y-39284320D02*
X145825165Y-39296880D01*
X145869139Y-39271906D02*
X145847285Y-39284320D01*
X145890994Y-39259492D02*
X145869139Y-39271906D01*
X145913007Y-39246987D02*
X145890994Y-39259492D01*
X145929094Y-39228609D02*
X145913007Y-39246987D01*
X145945075Y-39210340D02*
X145929094Y-39228609D01*
X145960870Y-39192282D02*
X145945075Y-39210340D01*
X145976666Y-39174224D02*
X145960870Y-39192282D01*
X145992567Y-39156037D02*
X145976666Y-39174224D01*
X146003839Y-39132333D02*
X145992567Y-39156037D01*
X146015057Y-39108769D02*
X146003839Y-39132333D01*
X146026143Y-39085480D02*
X146015057Y-39108769D01*
X146037229Y-39062189D02*
X146026143Y-39085480D01*
X146048394Y-39038734D02*
X146037229Y-39062189D01*
X146055961Y-39010378D02*
X146048394Y-39038734D01*
X146063476Y-38982140D02*
X146055961Y-39010378D01*
X146071096Y-38953566D02*
X146063476Y-38982140D01*
X146078583Y-38925454D02*
X146071096Y-38953566D01*
X146086124Y-38897140D02*
X146078583Y-38925454D01*
X146095437Y-38827791D02*
X146086124Y-38897140D01*
X146104724Y-38758731D02*
X146095437Y-38827791D01*
X146114011Y-38689593D02*
X146104724Y-38758731D01*
X146123351Y-38620141D02*
X146114011Y-38689593D01*
X146132664Y-38550908D02*
X146123351Y-38620141D01*
X146142401Y-38467274D02*
X146132664Y-38550908D01*
X146152085Y-38383991D02*
X146142401Y-38467274D01*
X146161795Y-38300613D02*
X146152085Y-38383991D01*
X146171531Y-38216856D02*
X146161795Y-38300613D01*
X146181242Y-38133363D02*
X146171531Y-38216856D01*
X146189311Y-38087199D02*
X146181242Y-38133363D01*
X146197355Y-38041228D02*
X146189311Y-38087199D01*
X146205398Y-37995204D02*
X146197355Y-38041228D01*
X146213494Y-37948972D02*
X146205398Y-37995204D01*
X146221564Y-37902886D02*
X146213494Y-37948972D01*
X146233365Y-37854548D02*
X146221564Y-37902886D01*
X146245112Y-37806413D02*
X146233365Y-37854548D01*
X146256886Y-37758222D02*
X146245112Y-37806413D01*
X146268713Y-37709814D02*
X146256886Y-37758222D01*
X146280487Y-37661557D02*
X146268713Y-37709814D01*
X146297367Y-37611356D02*
X146280487Y-37661557D01*
X146314168Y-37561365D02*
X146297367Y-37611356D01*
X146330996Y-37511318D02*
X146314168Y-37561365D01*
X146347903Y-37461043D02*
X146330996Y-37511318D01*
X146364757Y-37410926D02*
X146347903Y-37461043D01*
X146387934Y-37359380D02*
X146364757Y-37410926D01*
X146411032Y-37308049D02*
X146387934Y-37359380D01*
X146434157Y-37256660D02*
X146411032Y-37308049D01*
X146457387Y-37205037D02*
X146434157Y-37256660D01*
X146480538Y-37153578D02*
X146457387Y-37205037D01*
X146509727Y-37093647D02*
X146480538Y-37153578D01*
X146538794Y-37033967D02*
X146509727Y-37093647D01*
X146567893Y-36974220D02*
X146538794Y-37033967D01*
X146597127Y-36914201D02*
X146567893Y-36974220D01*
X146626266Y-36854371D02*
X146597127Y-36914201D01*
X146660630Y-36791128D02*
X146626266Y-36854371D01*
X146694851Y-36728150D02*
X146660630Y-36791128D01*
X146729109Y-36665100D02*
X146694851Y-36728150D01*
X146763526Y-36601764D02*
X146729109Y-36665100D01*
X146797832Y-36538628D02*
X146763526Y-36601764D01*
X146837993Y-36473004D02*
X146797832Y-36538628D01*
X146877985Y-36407656D02*
X146837993Y-36473004D01*
X146918024Y-36342233D02*
X146877985Y-36407656D01*
X146958244Y-36276513D02*
X146918024Y-36342233D01*
X146998336Y-36211000D02*
X146958244Y-36276513D01*
X147045225Y-36143720D02*
X146998336Y-36211000D01*
X147091916Y-36076722D02*
X147045225Y-36143720D01*
X147138663Y-36009648D02*
X147091916Y-36076722D01*
X147185619Y-35942269D02*
X147138663Y-36009648D01*
X147232429Y-35875103D02*
X147185619Y-35942269D01*
X147286666Y-35806891D02*
X147232429Y-35875103D01*
X147340678Y-35738966D02*
X147286666Y-35806891D01*
X147394750Y-35670963D02*
X147340678Y-35738966D01*
X147449067Y-35602651D02*
X147394750Y-35670963D01*
X147503214Y-35534555D02*
X147449067Y-35602651D01*
X147565661Y-35466403D02*
X147503214Y-35534555D01*
X147627819Y-35398565D02*
X147565661Y-35466403D01*
X147690015Y-35330687D02*
X147627819Y-35398565D01*
X147752099Y-35262930D02*
X147690015Y-35330687D01*
X147814306Y-35195041D02*
X147752099Y-35262930D01*
X147885568Y-35127615D02*
X147814306Y-35195041D01*
X147956506Y-35060500D02*
X147885568Y-35127615D01*
X148027483Y-34993345D02*
X147956506Y-35060500D01*
X148098333Y-34926311D02*
X148027483Y-34993345D01*
X148169323Y-34859144D02*
X148098333Y-34926311D01*
X148250236Y-34793482D02*
X148169323Y-34859144D01*
X148330772Y-34728122D02*
X148250236Y-34793482D01*
X148411359Y-34662723D02*
X148330772Y-34728122D01*
X148491800Y-34597442D02*
X148411359Y-34662723D01*
X148572400Y-34532032D02*
X148491800Y-34597442D01*
X148663787Y-34468963D02*
X148572400Y-34532032D01*
X148754754Y-34406185D02*
X148663787Y-34468963D01*
X148845776Y-34343369D02*
X148754754Y-34406185D01*
X148936634Y-34280666D02*
X148845776Y-34343369D01*
X149027669Y-34217840D02*
X148936634Y-34280666D01*
X149129787Y-34158245D02*
X149027669Y-34217840D01*
X149231964Y-34098616D02*
X149129787Y-34158245D01*
X149333937Y-34039106D02*
X149231964Y-34098616D01*
X149435725Y-33979703D02*
X149333937Y-34039106D01*
X149537714Y-33920183D02*
X149435725Y-33979703D01*
X149651607Y-33864787D02*
X149537714Y-33920183D01*
X149765589Y-33809348D02*
X149651607Y-33864787D01*
X149879376Y-33754004D02*
X149765589Y-33809348D01*
X149993316Y-33698584D02*
X149879376Y-33754004D01*
X150107190Y-33643198D02*
X149993316Y-33698584D01*
X150233589Y-33592866D02*
X150107190Y-33643198D01*
X150360087Y-33542494D02*
X150233589Y-33592866D01*
X150486364Y-33492210D02*
X150360087Y-33542494D01*
X150612817Y-33441857D02*
X150486364Y-33492210D01*
X150739192Y-33391533D02*
X150612817Y-33441857D01*
X150878924Y-33347092D02*
X150739192Y-33391533D01*
X151018762Y-33302617D02*
X150878924Y-33347092D01*
X151158361Y-33258218D02*
X151018762Y-33302617D01*
X151298151Y-33213758D02*
X151158361Y-33258218D01*
X151437856Y-33169325D02*
X151298151Y-33213758D01*
X151591643Y-33131498D02*
X151437856Y-33169325D01*
X151745551Y-33093642D02*
X151591643Y-33131498D01*
X151899192Y-33055851D02*
X151745551Y-33093642D01*
X152053044Y-33018009D02*
X151899192Y-33055851D01*
X152206804Y-32980189D02*
X152053044Y-33018009D01*
X152375370Y-32949907D02*
X152206804Y-32980189D01*
X152544066Y-32919602D02*
X152375370Y-32949907D01*
X152712473Y-32889348D02*
X152544066Y-32919602D01*
X152881108Y-32859054D02*
X152712473Y-32889348D01*
X153049645Y-32828777D02*
X152881108Y-32859054D01*
X153233713Y-32806867D02*
X153049645Y-32828777D01*
X153417927Y-32784939D02*
X153233713Y-32806867D01*
X153601822Y-32763049D02*
X153417927Y-32784939D01*
X153785967Y-32741130D02*
X153601822Y-32763049D01*
X153970003Y-32719223D02*
X153785967Y-32741130D01*
X154074564Y-32711962D02*
X153970003Y-32719223D01*
X154178646Y-32704734D02*
X154074564Y-32711962D01*
X154282789Y-32697502D02*
X154178646Y-32704734D01*
X154386743Y-32690283D02*
X154282789Y-32697502D01*
X154490902Y-32683050D02*
X154386743Y-32690283D01*
X154594841Y-32680872D02*
X154490902Y-32683050D01*
X154698301Y-32678703D02*
X154594841Y-32680872D01*
X154801824Y-32676533D02*
X154698301Y-32678703D01*
X154905160Y-32674366D02*
X154801824Y-32676533D01*
X155008699Y-32672196D02*
X154905160Y-32674366D01*
G04 #@! TD*
M02*
