G04 #@! TF.GenerationSoftware,KiCad,Pcbnew,5.0.0-fee4fd1~66~ubuntu18.04.1*
G04 #@! TF.CreationDate,2018-08-08T07:38:06+02:00*
G04 #@! TF.ProjectId,Saba-TIC18,536162612D54494331382E6B69636164,rev?*
G04 #@! TF.SameCoordinates,Original*
G04 #@! TF.FileFunction,Soldermask,Bot*
G04 #@! TF.FilePolarity,Negative*
%FSLAX46Y46*%
G04 Gerber Fmt 4.6, Leading zero omitted, Abs format (unit mm)*
G04 Created by KiCad (PCBNEW 5.0.0-fee4fd1~66~ubuntu18.04.1) date Wed Aug  8 07:38:06 2018*
%MOMM*%
%LPD*%
G01*
G04 APERTURE LIST*
%ADD10C,0.100000*%
%ADD11O,1.470000X2.200000*%
%ADD12R,1.470000X2.200000*%
%ADD13O,2.000000X2.000000*%
%ADD14C,2.000000*%
%ADD15C,1.800000*%
%ADD16R,1.800000X1.800000*%
%ADD17C,2.400000*%
%ADD18R,2.000000X2.000000*%
%ADD19R,4.940000X3.910000*%
G04 APERTURE END LIST*
D10*
G04 #@! TO.C,svg2mod*
G36*
X135651878Y-58778323D02*
X136342440Y-59107163D01*
X136368217Y-58943452D01*
X136375323Y-58778323D01*
X136368571Y-58613020D01*
X136342440Y-58449483D01*
X136368217Y-58285774D01*
X136375323Y-58120645D01*
X136368571Y-57955342D01*
X136342440Y-57791805D01*
X136753489Y-57791805D01*
X137164538Y-57791805D01*
X137138407Y-57955342D01*
X137131655Y-58120645D01*
X137138761Y-58285774D01*
X137164538Y-58449483D01*
X137138407Y-58613020D01*
X137131655Y-58778323D01*
X137138761Y-58943452D01*
X137164538Y-59107163D01*
X136753489Y-59107163D01*
X136342440Y-59107163D01*
X135651878Y-58778323D01*
X137164538Y-59764840D01*
X137138407Y-59928376D01*
X137131655Y-60093680D01*
X137138761Y-60258809D01*
X137164538Y-60422520D01*
X137138407Y-60586056D01*
X137131655Y-60751357D01*
X137138761Y-60916488D01*
X137164538Y-61080198D01*
X136753489Y-61080198D01*
X136342440Y-61080198D01*
X136368217Y-60916488D01*
X136375323Y-60751357D01*
X136368571Y-60586056D01*
X136342440Y-60422520D01*
X136368217Y-60258809D01*
X136375323Y-60093680D01*
X136368571Y-59928376D01*
X136342440Y-59764840D01*
X136753489Y-59764840D01*
X137164538Y-59764840D01*
X135651878Y-58778323D01*
X135658983Y-58943452D01*
X135684760Y-59107163D01*
X135890286Y-59107163D01*
X136095812Y-59107163D01*
X136069679Y-59270698D01*
X136062927Y-59436000D01*
X136070032Y-59601130D01*
X136095812Y-59764840D01*
X135890286Y-59764840D01*
X135684760Y-59764840D01*
X135658629Y-59928376D01*
X135651878Y-60093680D01*
X135658983Y-60258809D01*
X135684760Y-60422520D01*
X135658629Y-60586056D01*
X135651878Y-60751357D01*
X135658983Y-60916488D01*
X135684760Y-61080198D01*
X135890286Y-61080198D01*
X136095812Y-61080198D01*
X136069679Y-61243734D01*
X136062927Y-61409038D01*
X136070032Y-61574166D01*
X136095812Y-61737875D01*
X136753489Y-61737875D01*
X137411166Y-61737875D01*
X137436946Y-61574166D01*
X137444051Y-61409038D01*
X137437299Y-61243734D01*
X137411166Y-61080198D01*
X137616692Y-61080198D01*
X137822218Y-61080198D01*
X137847995Y-60916488D01*
X137855100Y-60751357D01*
X137848349Y-60586056D01*
X137822218Y-60422520D01*
X137847995Y-60258809D01*
X137855100Y-60093680D01*
X137848349Y-59928376D01*
X137822218Y-59764840D01*
X137616692Y-59764840D01*
X137411166Y-59764840D01*
X137436946Y-59601130D01*
X137444051Y-59436000D01*
X137437299Y-59270698D01*
X137411166Y-59107163D01*
X137616692Y-59107163D01*
X137822218Y-59107163D01*
X137847995Y-58943452D01*
X137855100Y-58778323D01*
X137848349Y-58613020D01*
X137822218Y-58449483D01*
X137847995Y-58285774D01*
X137855100Y-58120645D01*
X137848349Y-57955342D01*
X137822218Y-57791805D01*
X137616692Y-57791805D01*
X137411166Y-57791805D01*
X137436946Y-57628094D01*
X137444051Y-57462965D01*
X137437299Y-57297663D01*
X137411166Y-57134125D01*
X136753489Y-57134125D01*
X136095812Y-57134125D01*
X136069679Y-57297663D01*
X136062927Y-57462965D01*
X136070032Y-57628094D01*
X136095812Y-57791805D01*
X135890286Y-57791805D01*
X135684760Y-57791805D01*
X135658629Y-57955342D01*
X135651878Y-58120645D01*
X135658983Y-58285774D01*
X135684760Y-58449483D01*
X135658629Y-58613020D01*
X135651878Y-58778323D01*
X135651878Y-58778323D01*
G37*
G36*
X139058576Y-61080198D02*
X139032443Y-61243734D01*
X139025691Y-61409038D01*
X139032797Y-61574166D01*
X139058576Y-61737875D01*
X140045093Y-61737875D01*
X141031611Y-61737875D01*
X141057390Y-61574166D01*
X141064496Y-61409038D01*
X141057744Y-61243734D01*
X141031611Y-61080198D01*
X140702772Y-61080198D01*
X140373933Y-61080198D01*
X140399711Y-60916488D01*
X140406816Y-60751357D01*
X140400064Y-60586056D01*
X140373933Y-60422520D01*
X140399711Y-60258809D01*
X140406816Y-60093680D01*
X140400064Y-59928376D01*
X140373933Y-59764840D01*
X140399711Y-59601130D01*
X140406816Y-59436000D01*
X140400064Y-59270698D01*
X140373933Y-59107163D01*
X140399711Y-58943452D01*
X140406816Y-58778323D01*
X140400064Y-58613020D01*
X140373933Y-58449483D01*
X140620562Y-58449483D01*
X140867191Y-58449483D01*
X140892970Y-58285774D01*
X140900076Y-58120645D01*
X140893324Y-57955342D01*
X140867191Y-57791805D01*
X140620562Y-57791805D01*
X140373933Y-57791805D01*
X140399711Y-57628094D01*
X140406816Y-57462965D01*
X140400064Y-57297663D01*
X140373933Y-57134125D01*
X140045093Y-57134125D01*
X139716253Y-57134125D01*
X139690122Y-57297663D01*
X139683371Y-57462965D01*
X139690476Y-57628094D01*
X139716253Y-57791805D01*
X139690122Y-57955342D01*
X139683371Y-58120645D01*
X139690476Y-58285774D01*
X139716253Y-58449483D01*
X139690122Y-58613020D01*
X139683371Y-58778323D01*
X139690476Y-58943452D01*
X139716253Y-59107163D01*
X139690122Y-59270698D01*
X139683371Y-59436000D01*
X139690476Y-59601130D01*
X139716253Y-59764840D01*
X139690122Y-59928376D01*
X139683371Y-60093680D01*
X139690476Y-60258809D01*
X139716253Y-60422520D01*
X139690122Y-60586056D01*
X139683371Y-60751357D01*
X139690476Y-60916488D01*
X139716253Y-61080198D01*
X139387415Y-61080198D01*
X139058576Y-61080198D01*
X139058576Y-61080198D01*
G37*
G36*
X142892764Y-57462965D02*
X143747747Y-57791805D01*
X143721614Y-57955342D01*
X143714862Y-58120645D01*
X143721967Y-58285774D01*
X143747747Y-58449483D01*
X143721614Y-58613020D01*
X143714862Y-58778323D01*
X143721967Y-58943452D01*
X143747747Y-59107163D01*
X143721614Y-59270698D01*
X143714862Y-59436000D01*
X143721967Y-59601130D01*
X143747747Y-59764840D01*
X143721614Y-59928376D01*
X143714862Y-60093680D01*
X143721967Y-60258809D01*
X143747747Y-60422520D01*
X143721614Y-60586056D01*
X143714862Y-60751357D01*
X143721967Y-60916488D01*
X143747747Y-61080198D01*
X143953271Y-61080198D01*
X144158795Y-61080198D01*
X144184573Y-60916488D01*
X144191678Y-60751357D01*
X144184926Y-60586056D01*
X144158795Y-60422520D01*
X144282110Y-60422520D01*
X144405424Y-60422520D01*
X144431203Y-60258809D01*
X144438309Y-60093680D01*
X144431557Y-59928376D01*
X144405424Y-59764840D01*
X144431203Y-59601130D01*
X144438309Y-59436000D01*
X144431557Y-59270698D01*
X144405424Y-59107163D01*
X144431203Y-58943452D01*
X144438309Y-58778323D01*
X144431557Y-58613020D01*
X144405424Y-58449483D01*
X144282110Y-58449483D01*
X144158795Y-58449483D01*
X144184573Y-58285774D01*
X144191678Y-58120645D01*
X144184926Y-57955342D01*
X144158795Y-57791805D01*
X143953271Y-57791805D01*
X143747747Y-57791805D01*
X142892764Y-57462965D01*
X142925647Y-57791805D01*
X142720122Y-57791805D01*
X142514598Y-57791805D01*
X142488467Y-57955342D01*
X142481715Y-58120645D01*
X142488821Y-58285774D01*
X142514598Y-58449483D01*
X142391283Y-58449483D01*
X142267969Y-58449483D01*
X142241836Y-58613020D01*
X142235084Y-58778323D01*
X142242190Y-58943452D01*
X142267969Y-59107163D01*
X142241836Y-59270698D01*
X142235084Y-59436000D01*
X142242190Y-59601130D01*
X142267969Y-59764840D01*
X142241836Y-59928376D01*
X142235084Y-60093680D01*
X142242190Y-60258809D01*
X142267969Y-60422520D01*
X142391283Y-60422520D01*
X142514598Y-60422520D01*
X142488467Y-60586056D01*
X142481715Y-60751357D01*
X142488821Y-60916488D01*
X142514598Y-61080198D01*
X142720122Y-61080198D01*
X142925647Y-61080198D01*
X142951426Y-60916488D01*
X142958532Y-60751357D01*
X142951780Y-60586056D01*
X142925647Y-60422520D01*
X142951426Y-60258809D01*
X142958532Y-60093680D01*
X142951780Y-59928376D01*
X142925647Y-59764840D01*
X142951426Y-59601130D01*
X142958532Y-59436000D01*
X142951780Y-59270698D01*
X142925647Y-59107163D01*
X142951426Y-58943452D01*
X142958532Y-58778323D01*
X142951780Y-58613020D01*
X142925647Y-58449483D01*
X142951426Y-58285774D01*
X142958532Y-58120645D01*
X142951780Y-57955342D01*
X142925647Y-57791805D01*
X142892764Y-57462965D01*
X142899869Y-57628094D01*
X142925647Y-57791805D01*
X143336697Y-57791805D01*
X143336697Y-61080198D01*
X142925647Y-61080198D01*
X142899516Y-61243734D01*
X142892764Y-61409038D01*
X142899869Y-61574166D01*
X142925647Y-61737875D01*
X143336697Y-61737875D01*
X143747747Y-61737875D01*
X143773524Y-61574166D01*
X143780629Y-61409038D01*
X143773878Y-61243734D01*
X143747747Y-61080198D01*
X143336697Y-61080198D01*
X143336697Y-57791805D01*
X143747747Y-57791805D01*
X143773524Y-57628094D01*
X143780629Y-57462965D01*
X143773878Y-57297663D01*
X143747747Y-57134125D01*
X143336697Y-57134125D01*
X142925647Y-57134125D01*
X142899516Y-57297663D01*
X142892764Y-57462965D01*
X142892764Y-57462965D01*
G37*
G36*
X145444480Y-58778323D02*
X145451585Y-58943452D01*
X145477362Y-59107163D01*
X145682888Y-59107163D01*
X145888414Y-59107163D01*
X145862281Y-59270698D01*
X145855528Y-59436000D01*
X145862634Y-59601130D01*
X145888414Y-59764840D01*
X146093938Y-59764840D01*
X146299462Y-59764840D01*
X146273329Y-59928376D01*
X146266577Y-60093680D01*
X146273683Y-60258809D01*
X146299462Y-60422520D01*
X146504987Y-60422520D01*
X146710511Y-60422520D01*
X146684378Y-60586056D01*
X146677626Y-60751357D01*
X146684732Y-60916488D01*
X146710511Y-61080198D01*
X146093937Y-61080198D01*
X145477362Y-61080198D01*
X145451231Y-61243734D01*
X145444480Y-61409038D01*
X145451585Y-61574166D01*
X145477362Y-61737875D01*
X146628300Y-61737875D01*
X147779237Y-61737875D01*
X147805016Y-61574166D01*
X147812122Y-61409038D01*
X147805370Y-61243734D01*
X147779237Y-61080198D01*
X147573713Y-61080198D01*
X147368188Y-61080198D01*
X147393968Y-60916488D01*
X147401073Y-60751357D01*
X147394321Y-60586056D01*
X147368188Y-60422520D01*
X147162664Y-60422520D01*
X146957140Y-60422520D01*
X146982919Y-60258809D01*
X146990025Y-60093680D01*
X146983273Y-59928376D01*
X146957140Y-59764840D01*
X146751615Y-59764840D01*
X146546091Y-59764840D01*
X146571870Y-59601130D01*
X146578976Y-59436000D01*
X146572224Y-59270698D01*
X146546091Y-59107163D01*
X146340567Y-59107163D01*
X146135042Y-59107163D01*
X146160819Y-58943452D01*
X146167925Y-58778323D01*
X146161173Y-58613020D01*
X146135042Y-58449483D01*
X146160819Y-58285774D01*
X146167925Y-58120645D01*
X146161173Y-57955342D01*
X146135042Y-57791805D01*
X146710511Y-57791805D01*
X147285980Y-57791805D01*
X147259847Y-57955342D01*
X147253095Y-58120645D01*
X147260200Y-58285774D01*
X147285980Y-58449483D01*
X147532608Y-58449483D01*
X147779237Y-58449483D01*
X147805016Y-58285774D01*
X147812122Y-58120645D01*
X147805370Y-57955342D01*
X147779237Y-57791805D01*
X147614818Y-57791805D01*
X147450400Y-57791805D01*
X147476177Y-57628094D01*
X147483282Y-57462965D01*
X147476531Y-57297663D01*
X147450400Y-57134125D01*
X146628301Y-57134125D01*
X145806202Y-57134125D01*
X145780071Y-57297663D01*
X145773320Y-57462965D01*
X145780425Y-57628094D01*
X145806202Y-57791805D01*
X145641782Y-57791805D01*
X145477362Y-57791805D01*
X145451231Y-57955342D01*
X145444480Y-58120645D01*
X145451585Y-58285774D01*
X145477362Y-58449483D01*
X145451231Y-58613020D01*
X145444480Y-58778323D01*
X145444480Y-58778323D01*
G37*
G36*
X150555733Y-54726580D02*
X150543909Y-54783309D01*
X150535908Y-54840126D01*
X150530796Y-54897347D01*
X150528034Y-54954846D01*
X150527187Y-55012380D01*
X150528113Y-55070057D01*
X150531071Y-55127752D01*
X150536337Y-55184682D01*
X150544398Y-55241676D01*
X150555754Y-55298183D01*
X150543930Y-55354912D01*
X150535929Y-55411734D01*
X150530817Y-55468956D01*
X150528055Y-55526452D01*
X150527209Y-55583989D01*
X150528135Y-55641665D01*
X150531093Y-55699357D01*
X150536358Y-55756291D01*
X150544420Y-55813284D01*
X150555773Y-55869791D01*
X150612896Y-55869791D01*
X150669640Y-55869791D01*
X150727316Y-55869791D01*
X150784313Y-55869791D01*
X150841548Y-55869791D01*
X150829724Y-55926523D01*
X150821723Y-55983337D01*
X150816611Y-56040559D01*
X150813849Y-56098058D01*
X150813002Y-56155594D01*
X150813928Y-56213268D01*
X150816887Y-56270958D01*
X150822154Y-56327894D01*
X150830214Y-56384888D01*
X150841569Y-56441395D01*
X151184452Y-56441395D01*
X151527553Y-56441395D01*
X151870188Y-56441395D01*
X152213414Y-56441395D01*
X152556372Y-56441395D01*
X152567677Y-56385179D01*
X152575729Y-56328399D01*
X152581070Y-56270802D01*
X152584028Y-56212850D01*
X152584955Y-56155594D01*
X152584108Y-56098336D01*
X152581346Y-56040665D01*
X152576252Y-55983583D01*
X152568217Y-55926500D01*
X152556398Y-55869791D01*
X152613649Y-55869791D01*
X152670393Y-55869791D01*
X152728071Y-55869791D01*
X152785068Y-55869791D01*
X152842305Y-55869791D01*
X152853611Y-55813578D01*
X152861662Y-55756793D01*
X152866999Y-55699196D01*
X152869957Y-55641250D01*
X152870883Y-55583989D01*
X152870036Y-55526733D01*
X152867274Y-55469062D01*
X152862180Y-55411978D01*
X152854145Y-55354894D01*
X152842326Y-55298183D01*
X152728026Y-55298183D01*
X152613365Y-55298183D01*
X152499223Y-55298183D01*
X152385210Y-55298183D01*
X152270718Y-55298183D01*
X152258893Y-55354912D01*
X152250892Y-55411734D01*
X152245778Y-55468956D01*
X152243016Y-55526452D01*
X152242169Y-55583989D01*
X152243095Y-55641665D01*
X152246053Y-55699357D01*
X152251318Y-55756291D01*
X152259380Y-55813284D01*
X152270734Y-55869791D01*
X152042136Y-55869791D01*
X151813402Y-55869791D01*
X151584980Y-55869791D01*
X151356163Y-55869791D01*
X151127525Y-55869791D01*
X151138831Y-55813578D01*
X151146885Y-55756793D01*
X151152227Y-55699196D01*
X151155185Y-55641250D01*
X151156111Y-55583989D01*
X151155264Y-55526733D01*
X151152502Y-55469062D01*
X151147408Y-55411978D01*
X151139373Y-55354894D01*
X151127554Y-55298183D01*
X151138860Y-55241972D01*
X151146914Y-55185190D01*
X151152256Y-55127590D01*
X151155214Y-55069639D01*
X151156140Y-55012380D01*
X151155293Y-54955122D01*
X151152531Y-54897453D01*
X151147443Y-54840369D01*
X151139407Y-54783288D01*
X151127589Y-54726580D01*
X151413335Y-54726580D01*
X151699252Y-54726580D01*
X151984780Y-54726580D01*
X152270801Y-54726580D01*
X152556599Y-54726580D01*
X152567904Y-54670361D01*
X152575958Y-54613582D01*
X152581300Y-54555984D01*
X152584258Y-54498033D01*
X152585184Y-54440777D01*
X152584338Y-54383521D01*
X152581575Y-54325845D01*
X152576482Y-54268766D01*
X152568447Y-54211682D01*
X152556628Y-54154974D01*
X152613818Y-54154974D01*
X152670563Y-54154974D01*
X152728240Y-54154974D01*
X152785238Y-54154974D01*
X152842475Y-54154974D01*
X152853780Y-54098758D01*
X152861832Y-54041978D01*
X152867166Y-53984381D01*
X152870124Y-53926430D01*
X152871050Y-53869174D01*
X152870203Y-53811913D01*
X152867441Y-53754244D01*
X152862348Y-53697163D01*
X152854312Y-53640079D01*
X152842493Y-53583368D01*
X152853799Y-53527152D01*
X152861850Y-53470373D01*
X152867187Y-53412770D01*
X152870145Y-53354821D01*
X152871071Y-53297565D01*
X152870224Y-53240304D01*
X152867462Y-53182633D01*
X152862369Y-53125554D01*
X152854333Y-53068468D01*
X152842514Y-53011762D01*
X152785364Y-53011762D01*
X152728619Y-53011762D01*
X152670942Y-53011762D01*
X152613944Y-53011762D01*
X152556708Y-53011762D01*
X152568014Y-52955546D01*
X152576065Y-52898767D01*
X152581407Y-52841164D01*
X152584365Y-52783218D01*
X152585291Y-52725959D01*
X152584444Y-52668701D01*
X152581682Y-52611030D01*
X152576589Y-52553949D01*
X152568554Y-52496867D01*
X152556735Y-52440159D01*
X152213837Y-52440159D01*
X151870736Y-52440159D01*
X151528101Y-52440159D01*
X151184875Y-52440159D01*
X150841918Y-52440159D01*
X150830093Y-52496889D01*
X150822092Y-52553705D01*
X150816981Y-52610927D01*
X150814218Y-52668426D01*
X150813372Y-52725959D01*
X150814298Y-52783636D01*
X150817256Y-52841326D01*
X150822521Y-52898261D01*
X150830583Y-52955255D01*
X150841939Y-53011762D01*
X150784789Y-53011762D01*
X150728046Y-53011762D01*
X150670369Y-53011762D01*
X150613372Y-53011762D01*
X150556137Y-53011762D01*
X150544313Y-53068492D01*
X150536312Y-53125308D01*
X150531197Y-53182530D01*
X150528435Y-53240029D01*
X150527588Y-53297565D01*
X150528514Y-53355242D01*
X150531473Y-53412937D01*
X150536738Y-53469865D01*
X150544800Y-53526861D01*
X150556153Y-53583368D01*
X150670395Y-53583368D01*
X150785056Y-53583368D01*
X150899199Y-53583368D01*
X151013212Y-53583368D01*
X151127704Y-53583368D01*
X151139010Y-53527152D01*
X151147061Y-53470373D01*
X151152403Y-53412770D01*
X151155361Y-53354821D01*
X151156287Y-53297565D01*
X151155441Y-53240304D01*
X151152678Y-53182633D01*
X151147585Y-53125554D01*
X151139550Y-53068468D01*
X151127731Y-53011762D01*
X151356329Y-53011762D01*
X151585062Y-53011762D01*
X151813485Y-53011762D01*
X152042301Y-53011762D01*
X152270939Y-53011762D01*
X152259115Y-53068492D01*
X152251114Y-53125308D01*
X152246000Y-53182530D01*
X152243237Y-53240029D01*
X152242391Y-53297565D01*
X152243317Y-53355242D01*
X152246275Y-53412937D01*
X152251540Y-53469865D01*
X152259602Y-53526861D01*
X152270958Y-53583368D01*
X152259134Y-53640095D01*
X152251133Y-53696917D01*
X152246018Y-53754138D01*
X152243256Y-53811637D01*
X152242409Y-53869174D01*
X152243335Y-53926848D01*
X152246293Y-53984537D01*
X152251559Y-54041473D01*
X152259620Y-54098467D01*
X152270974Y-54154974D01*
X151985226Y-54154974D01*
X151699308Y-54154974D01*
X151413779Y-54154974D01*
X151127757Y-54154974D01*
X150841959Y-54154974D01*
X150830135Y-54211703D01*
X150822134Y-54268520D01*
X150817019Y-54325744D01*
X150814257Y-54383241D01*
X150813410Y-54440777D01*
X150814336Y-54498453D01*
X150817294Y-54556143D01*
X150822560Y-54613079D01*
X150830622Y-54670073D01*
X150841977Y-54726580D01*
X150784828Y-54726580D01*
X150728084Y-54726580D01*
X150670408Y-54726580D01*
X150613411Y-54726580D01*
X150556175Y-54726580D01*
X150555733Y-54726580D01*
X150555733Y-54726580D01*
G37*
G36*
X147666336Y-55583989D02*
X147667262Y-55641665D01*
X148481111Y-54726580D01*
X148492416Y-54670361D01*
X148500470Y-54613582D01*
X148505812Y-54555984D01*
X148508770Y-54498033D01*
X148509696Y-54440777D01*
X148508849Y-54383521D01*
X148506087Y-54325845D01*
X148500999Y-54268766D01*
X148492964Y-54211682D01*
X148481145Y-54154974D01*
X148510064Y-54154974D01*
X148538421Y-54154974D01*
X148566713Y-54154974D01*
X148595307Y-54154974D01*
X148624045Y-54154974D01*
X148635350Y-54098758D01*
X148643402Y-54041978D01*
X148648744Y-53984381D01*
X148651702Y-53926430D01*
X148652628Y-53869174D01*
X148651781Y-53811913D01*
X148649019Y-53754244D01*
X148643926Y-53697163D01*
X148635890Y-53640079D01*
X148624071Y-53583368D01*
X148709795Y-53583368D01*
X148795791Y-53583368D01*
X148881398Y-53583368D01*
X148966907Y-53583368D01*
X149052777Y-53583368D01*
X149040953Y-53640095D01*
X149032952Y-53696917D01*
X149027837Y-53754138D01*
X149025075Y-53811637D01*
X149024228Y-53869174D01*
X149025154Y-53926848D01*
X149028112Y-53984537D01*
X149033378Y-54041473D01*
X149041440Y-54098467D01*
X149052793Y-54154974D01*
X149081712Y-54154974D01*
X149110069Y-54154974D01*
X149138367Y-54154974D01*
X149166964Y-54154974D01*
X149195702Y-54154974D01*
X149183878Y-54211703D01*
X149175877Y-54268520D01*
X149170763Y-54325744D01*
X149168001Y-54383241D01*
X149167154Y-54440777D01*
X149168080Y-54498453D01*
X149171038Y-54556143D01*
X149176303Y-54613079D01*
X149184365Y-54670073D01*
X149195718Y-54726580D01*
X149052844Y-54726580D01*
X148909519Y-54726580D01*
X148766841Y-54726580D01*
X148624326Y-54726580D01*
X148481211Y-54726580D01*
X148481111Y-54726580D01*
X147667262Y-55641665D01*
X147670220Y-55699357D01*
X147675485Y-55756291D01*
X147683547Y-55813284D01*
X147694900Y-55869791D01*
X147683076Y-55926523D01*
X147675075Y-55983337D01*
X147669963Y-56040559D01*
X147667201Y-56098058D01*
X147666354Y-56155594D01*
X147667281Y-56213268D01*
X147670239Y-56270958D01*
X147675504Y-56327894D01*
X147683566Y-56384888D01*
X147694922Y-56441395D01*
X147809220Y-56441395D01*
X147923880Y-56441395D01*
X148038022Y-56441395D01*
X148152034Y-56441395D01*
X148266525Y-56441395D01*
X148277831Y-56385179D01*
X148285882Y-56328399D01*
X148291224Y-56270802D01*
X148294182Y-56212850D01*
X148295108Y-56155594D01*
X148294262Y-56098336D01*
X148291500Y-56040665D01*
X148286412Y-55983583D01*
X148278376Y-55926500D01*
X148266557Y-55869791D01*
X148277863Y-55813578D01*
X148285914Y-55756793D01*
X148291256Y-55699196D01*
X148294214Y-55641250D01*
X148295140Y-55583989D01*
X148294294Y-55526733D01*
X148291531Y-55469062D01*
X148286443Y-55411978D01*
X148278408Y-55354894D01*
X148266589Y-55298183D01*
X148495187Y-55298183D01*
X148723922Y-55298183D01*
X148952345Y-55298183D01*
X149181163Y-55298183D01*
X149409802Y-55298183D01*
X149397977Y-55354912D01*
X149389976Y-55411734D01*
X149384865Y-55468956D01*
X149382102Y-55526452D01*
X149381256Y-55583989D01*
X149382182Y-55641665D01*
X149385140Y-55699357D01*
X149390405Y-55756291D01*
X149398467Y-55813284D01*
X149409823Y-55869791D01*
X149397999Y-55926523D01*
X149389998Y-55983337D01*
X149384886Y-56040559D01*
X149382124Y-56098058D01*
X149381277Y-56155594D01*
X149382203Y-56213268D01*
X149385161Y-56270958D01*
X149390426Y-56327894D01*
X149398488Y-56384888D01*
X149409841Y-56441395D01*
X149523953Y-56441395D01*
X149638613Y-56441395D01*
X149752755Y-56441395D01*
X149866767Y-56441395D01*
X149981259Y-56441395D01*
X149992564Y-56385179D01*
X150000615Y-56328399D01*
X150005957Y-56270802D01*
X150008915Y-56212850D01*
X150009841Y-56155594D01*
X150008995Y-56098336D01*
X150006233Y-56040665D01*
X150001139Y-55983583D01*
X149993104Y-55926500D01*
X149981285Y-55869791D01*
X149992591Y-55813578D01*
X150000645Y-55756793D01*
X150005986Y-55699196D01*
X150008945Y-55641250D01*
X150009871Y-55583989D01*
X150009024Y-55526733D01*
X150006262Y-55469062D01*
X150001174Y-55411978D01*
X149993138Y-55354894D01*
X149981319Y-55298183D01*
X149938456Y-55298183D01*
X149895897Y-55298183D01*
X149853342Y-55298183D01*
X149810283Y-55298183D01*
X149766969Y-55298183D01*
X149778274Y-55241972D01*
X149786328Y-55185190D01*
X149791670Y-55127590D01*
X149794628Y-55069639D01*
X149795554Y-55012380D01*
X149794708Y-54955122D01*
X149791945Y-54897453D01*
X149786852Y-54840369D01*
X149778817Y-54783288D01*
X149766998Y-54726580D01*
X149778304Y-54670361D01*
X149786355Y-54613582D01*
X149791697Y-54555984D01*
X149794655Y-54498033D01*
X149795581Y-54440777D01*
X149794734Y-54383521D01*
X149791972Y-54325845D01*
X149786879Y-54268766D01*
X149778843Y-54211682D01*
X149767024Y-54154974D01*
X149738105Y-54154974D01*
X149709748Y-54154974D01*
X149681450Y-54154974D01*
X149652853Y-54154974D01*
X149624115Y-54154974D01*
X149635420Y-54098758D01*
X149643474Y-54041978D01*
X149648816Y-53984381D01*
X149651774Y-53926430D01*
X149652700Y-53869174D01*
X149651854Y-53811913D01*
X149649091Y-53754244D01*
X149644003Y-53697163D01*
X149635968Y-53640079D01*
X149624149Y-53583368D01*
X149581285Y-53583368D01*
X149538726Y-53583368D01*
X149496172Y-53583368D01*
X149453113Y-53583368D01*
X149409799Y-53583368D01*
X149421104Y-53527152D01*
X149429158Y-53470373D01*
X149434500Y-53412770D01*
X149437458Y-53354821D01*
X149438384Y-53297565D01*
X149437537Y-53240304D01*
X149434775Y-53182633D01*
X149429682Y-53125554D01*
X149421647Y-53068468D01*
X149409828Y-53011762D01*
X149380908Y-53011762D01*
X149352551Y-53011762D01*
X149324253Y-53011762D01*
X149295656Y-53011762D01*
X149266918Y-53011762D01*
X149278223Y-52955546D01*
X149286277Y-52898767D01*
X149291619Y-52841164D01*
X149294577Y-52783218D01*
X149295503Y-52725959D01*
X149294657Y-52668701D01*
X149291894Y-52611030D01*
X149286801Y-52553949D01*
X149278766Y-52496867D01*
X149266947Y-52440159D01*
X149095498Y-52440159D01*
X148924388Y-52440159D01*
X148752967Y-52440159D01*
X148581651Y-52440159D01*
X148409541Y-52440159D01*
X148397716Y-52496889D01*
X148389715Y-52553705D01*
X148384601Y-52610927D01*
X148381839Y-52668426D01*
X148380992Y-52725959D01*
X148381918Y-52783636D01*
X148384876Y-52841326D01*
X148390141Y-52898261D01*
X148398203Y-52955255D01*
X148409557Y-53011762D01*
X148380637Y-53011762D01*
X148352280Y-53011762D01*
X148323982Y-53011762D01*
X148295385Y-53011762D01*
X148266647Y-53011762D01*
X148254823Y-53068492D01*
X148246822Y-53125308D01*
X148241710Y-53182530D01*
X148238948Y-53240029D01*
X148238101Y-53297565D01*
X148239027Y-53355242D01*
X148241985Y-53412937D01*
X148247250Y-53469865D01*
X148255312Y-53526861D01*
X148266668Y-53583368D01*
X148223804Y-53583368D01*
X148181246Y-53583368D01*
X148138692Y-53583368D01*
X148095632Y-53583368D01*
X148052318Y-53583368D01*
X148040494Y-53640095D01*
X148032493Y-53696917D01*
X148027378Y-53754138D01*
X148024616Y-53811637D01*
X148023769Y-53869174D01*
X148024696Y-53926848D01*
X148027654Y-53984537D01*
X148032919Y-54041473D01*
X148040981Y-54098467D01*
X148052337Y-54154974D01*
X148023417Y-54154974D01*
X147995060Y-54154974D01*
X147966762Y-54154974D01*
X147938165Y-54154974D01*
X147909427Y-54154974D01*
X147897603Y-54211703D01*
X147889602Y-54268520D01*
X147884490Y-54325744D01*
X147881728Y-54383241D01*
X147880881Y-54440777D01*
X147881807Y-54498453D01*
X147884765Y-54556143D01*
X147890030Y-54613079D01*
X147898092Y-54670073D01*
X147909448Y-54726580D01*
X147897624Y-54783309D01*
X147889623Y-54840126D01*
X147884511Y-54897347D01*
X147881749Y-54954846D01*
X147880902Y-55012380D01*
X147881828Y-55070057D01*
X147884786Y-55127752D01*
X147890054Y-55184682D01*
X147898113Y-55241676D01*
X147909469Y-55298183D01*
X147866605Y-55298183D01*
X147824046Y-55298183D01*
X147781492Y-55298183D01*
X147738433Y-55298183D01*
X147695119Y-55298183D01*
X147683294Y-55354912D01*
X147675293Y-55411734D01*
X147670182Y-55468956D01*
X147667419Y-55526452D01*
X147666573Y-55583989D01*
X147666336Y-55583989D01*
X147666336Y-55583989D01*
G37*
G36*
X144805513Y-53869174D02*
X145405874Y-54154974D01*
X145417179Y-54098758D01*
X145425233Y-54041978D01*
X145430575Y-53984381D01*
X145433533Y-53926430D01*
X145434459Y-53869174D01*
X145433612Y-53811913D01*
X145430850Y-53754244D01*
X145425762Y-53697163D01*
X145417727Y-53640079D01*
X145405908Y-53583368D01*
X145417214Y-53527152D01*
X145425265Y-53470373D01*
X145430607Y-53412770D01*
X145433565Y-53354821D01*
X145434491Y-53297565D01*
X145433644Y-53240304D01*
X145430882Y-53182633D01*
X145425789Y-53125554D01*
X145417753Y-53068468D01*
X145405934Y-53011762D01*
X145634533Y-53011762D01*
X145863267Y-53011762D01*
X146091690Y-53011762D01*
X146320508Y-53011762D01*
X146549147Y-53011762D01*
X146537323Y-53068492D01*
X146529322Y-53125308D01*
X146524208Y-53182530D01*
X146521445Y-53240029D01*
X146520599Y-53297565D01*
X146521525Y-53355242D01*
X146524483Y-53412937D01*
X146529748Y-53469865D01*
X146537810Y-53526861D01*
X146549163Y-53583368D01*
X146537339Y-53640095D01*
X146529338Y-53696917D01*
X146524223Y-53754138D01*
X146521461Y-53811637D01*
X146520614Y-53869174D01*
X146521541Y-53926848D01*
X146524499Y-53984537D01*
X146529764Y-54041473D01*
X146537826Y-54098467D01*
X146549182Y-54154974D01*
X146320582Y-54154974D01*
X146091848Y-54154974D01*
X145863425Y-54154974D01*
X145634607Y-54154974D01*
X145405968Y-54154974D01*
X145405874Y-54154974D01*
X144805513Y-53869174D01*
X145863328Y-54726580D01*
X146091751Y-54726580D01*
X146320569Y-54726580D01*
X146549207Y-54726580D01*
X146537383Y-54783309D01*
X146529382Y-54840126D01*
X146524270Y-54897347D01*
X146521508Y-54954846D01*
X146520662Y-55012380D01*
X146521588Y-55070057D01*
X146524546Y-55127752D01*
X146529811Y-55184682D01*
X146537873Y-55241676D01*
X146549229Y-55298183D01*
X146537404Y-55354912D01*
X146529403Y-55411734D01*
X146524292Y-55468956D01*
X146521529Y-55526452D01*
X146520683Y-55583989D01*
X146521609Y-55641665D01*
X146524567Y-55699357D01*
X146529837Y-55756291D01*
X146537899Y-55813284D01*
X146549255Y-55869791D01*
X146320656Y-55869791D01*
X146091922Y-55869791D01*
X145863498Y-55869791D01*
X145634681Y-55869791D01*
X145406042Y-55869791D01*
X145417348Y-55813578D01*
X145425402Y-55756793D01*
X145430744Y-55699196D01*
X145433702Y-55641250D01*
X145434628Y-55583989D01*
X145433781Y-55526733D01*
X145431019Y-55469062D01*
X145425931Y-55411978D01*
X145417896Y-55354894D01*
X145406077Y-55298183D01*
X145405968Y-55298183D01*
X145417274Y-55241972D01*
X145425325Y-55185190D01*
X145430667Y-55127590D01*
X145433625Y-55069639D01*
X145434551Y-55012380D01*
X145433705Y-54955122D01*
X145430942Y-54897453D01*
X145425849Y-54840369D01*
X145417814Y-54783288D01*
X145405995Y-54726580D01*
X145634593Y-54726580D01*
X145863328Y-54726580D01*
X144805513Y-53869174D01*
X144806439Y-53926848D01*
X144809397Y-53984537D01*
X144814668Y-54041473D01*
X144822727Y-54098467D01*
X144834083Y-54154974D01*
X144891232Y-54154974D01*
X144947976Y-54154974D01*
X145005652Y-54154974D01*
X145062649Y-54154974D01*
X145119885Y-54154974D01*
X145108060Y-54211703D01*
X145100059Y-54268520D01*
X145094945Y-54325744D01*
X145092183Y-54383241D01*
X145091336Y-54440777D01*
X145092262Y-54498453D01*
X145095220Y-54556143D01*
X145100491Y-54613079D01*
X145108553Y-54670073D01*
X145119906Y-54726580D01*
X145062756Y-54726580D01*
X145006013Y-54726580D01*
X144948336Y-54726580D01*
X144891339Y-54726580D01*
X144834104Y-54726580D01*
X144822280Y-54783309D01*
X144814279Y-54840126D01*
X144809167Y-54897347D01*
X144806405Y-54954846D01*
X144805558Y-55012380D01*
X144806484Y-55070057D01*
X144809442Y-55127752D01*
X144814707Y-55184682D01*
X144822769Y-55241676D01*
X144834123Y-55298183D01*
X144822298Y-55354912D01*
X144814297Y-55411734D01*
X144809183Y-55468956D01*
X144806421Y-55526452D01*
X144805574Y-55583989D01*
X144806500Y-55641665D01*
X144809458Y-55699357D01*
X144814726Y-55756291D01*
X144822788Y-55813284D01*
X144834144Y-55869791D01*
X144891243Y-55869791D01*
X144947987Y-55869791D01*
X145005663Y-55869791D01*
X145062660Y-55869791D01*
X145119896Y-55869791D01*
X145108071Y-55926523D01*
X145100070Y-55983337D01*
X145094956Y-56040559D01*
X145092194Y-56098058D01*
X145091347Y-56155594D01*
X145092273Y-56213268D01*
X145095231Y-56270958D01*
X145100499Y-56327894D01*
X145108561Y-56384888D01*
X145119914Y-56441395D01*
X145519819Y-56441395D01*
X145920104Y-56441395D01*
X146319844Y-56441395D01*
X146720274Y-56441395D01*
X147120391Y-56441395D01*
X147131697Y-56385179D01*
X147139751Y-56328399D01*
X147145093Y-56270802D01*
X147148051Y-56212850D01*
X147148977Y-56155594D01*
X147148130Y-56098336D01*
X147145368Y-56040665D01*
X147140280Y-55983583D01*
X147132245Y-55926500D01*
X147120426Y-55869791D01*
X147131731Y-55813578D01*
X147139783Y-55756793D01*
X147145125Y-55699196D01*
X147148083Y-55641250D01*
X147149009Y-55583989D01*
X147148162Y-55526733D01*
X147145400Y-55469062D01*
X147140306Y-55411978D01*
X147132271Y-55354894D01*
X147120452Y-55298183D01*
X147131758Y-55241972D01*
X147139809Y-55185190D01*
X147145151Y-55127590D01*
X147148109Y-55069639D01*
X147149035Y-55012380D01*
X147148188Y-54955122D01*
X147145426Y-54897453D01*
X147140333Y-54840369D01*
X147132298Y-54783288D01*
X147120479Y-54726580D01*
X147131784Y-54670361D01*
X147139838Y-54613582D01*
X147145180Y-54555984D01*
X147148138Y-54498033D01*
X147149064Y-54440777D01*
X147148217Y-54383521D01*
X147145455Y-54325845D01*
X147140367Y-54268766D01*
X147132332Y-54211682D01*
X147120513Y-54154974D01*
X147131819Y-54098758D01*
X147139870Y-54041978D01*
X147145212Y-53984381D01*
X147148170Y-53926430D01*
X147149096Y-53869174D01*
X147148249Y-53811913D01*
X147145487Y-53754244D01*
X147140394Y-53697163D01*
X147132358Y-53640079D01*
X147120539Y-53583368D01*
X147131845Y-53527152D01*
X147139899Y-53470373D01*
X147145241Y-53412770D01*
X147148199Y-53354821D01*
X147149125Y-53297565D01*
X147148278Y-53240304D01*
X147145516Y-53182633D01*
X147140428Y-53125554D01*
X147132393Y-53068468D01*
X147120574Y-53011762D01*
X147131879Y-52955546D01*
X147139933Y-52898767D01*
X147145275Y-52841164D01*
X147148233Y-52783218D01*
X147149159Y-52725959D01*
X147148313Y-52668701D01*
X147145550Y-52611030D01*
X147140463Y-52553949D01*
X147132427Y-52496867D01*
X147120608Y-52440159D01*
X146720561Y-52440159D01*
X146320276Y-52440159D01*
X145920537Y-52440159D01*
X145520106Y-52440159D01*
X145119989Y-52440159D01*
X145108165Y-52496889D01*
X145100164Y-52553705D01*
X145095052Y-52610927D01*
X145092290Y-52668426D01*
X145091443Y-52725959D01*
X145092369Y-52783636D01*
X145095327Y-52841326D01*
X145100598Y-52898261D01*
X145108660Y-52955255D01*
X145120013Y-53011762D01*
X145062864Y-53011762D01*
X145006119Y-53011762D01*
X144948443Y-53011762D01*
X144891446Y-53011762D01*
X144834211Y-53011762D01*
X144822387Y-53068492D01*
X144814386Y-53125308D01*
X144809274Y-53182530D01*
X144806512Y-53240029D01*
X144805665Y-53297565D01*
X144806591Y-53355242D01*
X144809549Y-53412937D01*
X144814814Y-53469865D01*
X144822876Y-53526861D01*
X144834232Y-53583368D01*
X144822408Y-53640095D01*
X144814407Y-53696917D01*
X144809295Y-53754138D01*
X144806533Y-53811637D01*
X144805686Y-53869174D01*
X144805513Y-53869174D01*
X144805513Y-53869174D01*
G37*
G36*
X141944696Y-55583989D02*
X141945490Y-55641665D01*
X142759465Y-54726580D01*
X142770762Y-54670361D01*
X142778806Y-54613582D01*
X142784150Y-54555984D01*
X142787114Y-54498033D01*
X142787907Y-54440777D01*
X142787114Y-54383521D01*
X142784362Y-54325845D01*
X142779282Y-54268766D01*
X142771239Y-54211682D01*
X142759412Y-54154974D01*
X142788331Y-54154974D01*
X142816686Y-54154974D01*
X142844986Y-54154974D01*
X142873582Y-54154974D01*
X142902321Y-54154974D01*
X142913619Y-54098758D01*
X142921662Y-54041978D01*
X142927007Y-53984381D01*
X142929970Y-53926430D01*
X142930764Y-53869174D01*
X142929970Y-53811913D01*
X142927218Y-53754244D01*
X142922138Y-53697163D01*
X142914095Y-53640079D01*
X142902268Y-53583368D01*
X142987990Y-53583368D01*
X143073986Y-53583368D01*
X143159592Y-53583368D01*
X143245101Y-53583368D01*
X143330969Y-53583368D01*
X143319145Y-53640095D01*
X143311144Y-53696917D01*
X143306032Y-53754138D01*
X143303270Y-53811637D01*
X143302423Y-53869174D01*
X143303349Y-53926848D01*
X143306308Y-53984537D01*
X143311573Y-54041473D01*
X143319635Y-54098467D01*
X143330990Y-54154974D01*
X143360037Y-54154974D01*
X143388394Y-54154974D01*
X143416692Y-54154974D01*
X143445289Y-54154974D01*
X143474028Y-54154974D01*
X143462203Y-54211703D01*
X143454202Y-54268520D01*
X143449088Y-54325744D01*
X143446326Y-54383241D01*
X143445479Y-54440777D01*
X143446405Y-54498453D01*
X143449363Y-54556143D01*
X143454634Y-54613079D01*
X143462696Y-54670073D01*
X143474051Y-54726580D01*
X143331177Y-54726580D01*
X143187852Y-54726580D01*
X143045174Y-54726580D01*
X142902657Y-54726580D01*
X142759544Y-54726580D01*
X142759465Y-54726580D01*
X141945490Y-55641665D01*
X141948453Y-55699357D01*
X141953718Y-55756291D01*
X141961788Y-55813284D01*
X141973139Y-55869791D01*
X141961312Y-55926523D01*
X141953322Y-55983337D01*
X141948215Y-56040559D01*
X141945463Y-56098058D01*
X141944670Y-56155594D01*
X141945463Y-56213268D01*
X141948427Y-56270958D01*
X141953692Y-56327894D01*
X141961762Y-56384888D01*
X141973112Y-56441395D01*
X142087410Y-56441395D01*
X142202072Y-56441395D01*
X142316213Y-56441395D01*
X142430228Y-56441395D01*
X142544721Y-56441395D01*
X142556019Y-56385179D01*
X142564062Y-56328399D01*
X142569406Y-56270802D01*
X142572370Y-56212850D01*
X142573164Y-56155594D01*
X142572370Y-56098336D01*
X142569618Y-56040665D01*
X142564538Y-55983583D01*
X142556495Y-55926500D01*
X142544668Y-55869791D01*
X142555966Y-55813578D01*
X142564009Y-55756793D01*
X142569354Y-55699196D01*
X142572317Y-55641250D01*
X142573111Y-55583989D01*
X142572317Y-55526733D01*
X142569565Y-55469062D01*
X142564485Y-55411978D01*
X142556442Y-55354894D01*
X142544615Y-55298183D01*
X142773212Y-55298183D01*
X143001947Y-55298183D01*
X143230369Y-55298183D01*
X143459186Y-55298183D01*
X143687823Y-55298183D01*
X143675999Y-55354912D01*
X143667998Y-55411734D01*
X143662886Y-55468956D01*
X143660124Y-55526452D01*
X143659278Y-55583989D01*
X143660204Y-55641665D01*
X143663162Y-55699357D01*
X143668432Y-55756291D01*
X143676491Y-55813284D01*
X143687847Y-55869791D01*
X143676023Y-55926523D01*
X143668022Y-55983337D01*
X143662910Y-56040559D01*
X143660148Y-56098058D01*
X143659301Y-56155594D01*
X143660227Y-56213268D01*
X143663185Y-56270958D01*
X143668451Y-56327894D01*
X143676513Y-56384888D01*
X143687868Y-56441395D01*
X143802414Y-56441395D01*
X143917076Y-56441395D01*
X144031218Y-56441395D01*
X144145231Y-56441395D01*
X144259723Y-56441395D01*
X144271029Y-56385179D01*
X144279083Y-56328399D01*
X144284425Y-56270802D01*
X144287383Y-56212850D01*
X144288309Y-56155594D01*
X144287462Y-56098336D01*
X144284700Y-56040665D01*
X144279612Y-55983583D01*
X144271577Y-55926500D01*
X144259758Y-55869791D01*
X144271064Y-55813578D01*
X144279115Y-55756793D01*
X144284457Y-55699196D01*
X144287415Y-55641250D01*
X144288341Y-55583989D01*
X144287494Y-55526733D01*
X144284732Y-55469062D01*
X144279644Y-55411978D01*
X144271609Y-55354894D01*
X144259790Y-55298183D01*
X144216926Y-55298183D01*
X144174367Y-55298183D01*
X144131808Y-55298183D01*
X144088749Y-55298183D01*
X144045435Y-55298183D01*
X144056740Y-55241972D01*
X144064791Y-55185190D01*
X144070133Y-55127590D01*
X144073091Y-55069639D01*
X144074017Y-55012380D01*
X144073171Y-54955122D01*
X144070409Y-54897453D01*
X144065315Y-54840369D01*
X144057280Y-54783288D01*
X144045461Y-54726580D01*
X144056767Y-54670361D01*
X144064818Y-54613582D01*
X144070160Y-54555984D01*
X144073118Y-54498033D01*
X144074044Y-54440777D01*
X144073197Y-54383521D01*
X144070435Y-54325845D01*
X144065342Y-54268766D01*
X144057306Y-54211682D01*
X144045487Y-54154974D01*
X144016572Y-54154974D01*
X143988214Y-54154974D01*
X143959923Y-54154974D01*
X143931329Y-54154974D01*
X143902591Y-54154974D01*
X143913897Y-54098758D01*
X143921951Y-54041978D01*
X143927293Y-53984381D01*
X143930251Y-53926430D01*
X143931177Y-53869174D01*
X143930330Y-53811913D01*
X143927568Y-53754244D01*
X143922480Y-53697163D01*
X143914444Y-53640079D01*
X143902625Y-53583368D01*
X143859762Y-53583368D01*
X143817203Y-53583368D01*
X143774644Y-53583368D01*
X143731584Y-53583368D01*
X143688270Y-53583368D01*
X143699576Y-53527152D01*
X143707630Y-53470373D01*
X143712972Y-53412770D01*
X143715930Y-53354821D01*
X143716856Y-53297565D01*
X143716009Y-53240304D01*
X143713247Y-53182633D01*
X143708159Y-53125554D01*
X143700124Y-53068468D01*
X143688305Y-53011762D01*
X143659389Y-53011762D01*
X143631032Y-53011762D01*
X143602740Y-53011762D01*
X143574147Y-53011762D01*
X143545408Y-53011762D01*
X143556714Y-52955546D01*
X143564768Y-52898767D01*
X143570110Y-52841164D01*
X143573068Y-52783218D01*
X143573994Y-52725959D01*
X143573147Y-52668701D01*
X143570385Y-52611030D01*
X143565297Y-52553949D01*
X143557261Y-52496867D01*
X143545442Y-52440159D01*
X143373993Y-52440159D01*
X143202882Y-52440159D01*
X143031460Y-52440159D01*
X142860141Y-52440159D01*
X142688030Y-52440159D01*
X142676203Y-52496889D01*
X142668212Y-52553705D01*
X142663106Y-52610927D01*
X142660354Y-52668426D01*
X142659561Y-52725959D01*
X142660354Y-52783636D01*
X142663318Y-52841326D01*
X142668583Y-52898261D01*
X142676653Y-52955255D01*
X142688003Y-53011762D01*
X142659087Y-53011762D01*
X142630729Y-53011762D01*
X142602437Y-53011762D01*
X142573844Y-53011762D01*
X142545107Y-53011762D01*
X142533280Y-53068492D01*
X142525290Y-53125308D01*
X142520183Y-53182530D01*
X142517432Y-53240029D01*
X142516638Y-53297565D01*
X142517432Y-53355242D01*
X142520395Y-53412937D01*
X142525660Y-53469865D01*
X142533730Y-53526861D01*
X142545081Y-53583368D01*
X142502218Y-53583368D01*
X142459660Y-53583368D01*
X142417099Y-53583368D01*
X142374041Y-53583368D01*
X142330726Y-53583368D01*
X142318899Y-53640095D01*
X142310909Y-53696917D01*
X142305802Y-53754138D01*
X142303050Y-53811637D01*
X142302257Y-53869174D01*
X142303050Y-53926848D01*
X142306014Y-53984537D01*
X142311279Y-54041473D01*
X142319349Y-54098467D01*
X142330699Y-54154974D01*
X142301783Y-54154974D01*
X142273425Y-54154974D01*
X142245133Y-54154974D01*
X142216540Y-54154974D01*
X142187803Y-54154974D01*
X142175976Y-54211703D01*
X142167986Y-54268520D01*
X142162879Y-54325744D01*
X142160128Y-54383241D01*
X142159334Y-54440777D01*
X142160128Y-54498453D01*
X142163091Y-54556143D01*
X142168356Y-54613079D01*
X142176426Y-54670073D01*
X142187777Y-54726580D01*
X142175950Y-54783309D01*
X142167959Y-54840126D01*
X142162853Y-54897347D01*
X142160101Y-54954846D01*
X142159308Y-55012380D01*
X142160101Y-55070057D01*
X142163065Y-55127752D01*
X142168330Y-55184682D01*
X142176400Y-55241676D01*
X142187750Y-55298183D01*
X142144885Y-55298183D01*
X142102327Y-55298183D01*
X142059769Y-55298183D01*
X142016708Y-55298183D01*
X141973395Y-55298183D01*
X141961569Y-55354912D01*
X141953578Y-55411734D01*
X141948472Y-55468956D01*
X141945720Y-55526452D01*
X141944926Y-55583989D01*
X141944696Y-55583989D01*
X141944696Y-55583989D01*
G37*
G36*
X139541160Y-54154974D02*
X139529333Y-54211703D01*
X139521343Y-54268520D01*
X139516210Y-54325744D01*
X139513564Y-54383241D01*
X139512506Y-54440777D01*
X139513564Y-54498453D01*
X139516528Y-54556143D01*
X139521793Y-54613079D01*
X139529836Y-54670073D01*
X139541187Y-54726580D01*
X139826934Y-54726580D01*
X140112851Y-54726580D01*
X140398379Y-54726580D01*
X140684401Y-54726580D01*
X140970199Y-54726580D01*
X140981496Y-54670361D01*
X140989540Y-54613582D01*
X140994884Y-54555984D01*
X140997848Y-54498033D01*
X140998641Y-54440777D01*
X140997848Y-54383521D01*
X140995096Y-54325845D01*
X140990016Y-54268766D01*
X140981973Y-54211682D01*
X140970146Y-54154974D01*
X140684396Y-54154974D01*
X140398482Y-54154974D01*
X140112951Y-54154974D01*
X139826929Y-54154974D01*
X139541131Y-54154974D01*
X139541160Y-54154974D01*
X139541160Y-54154974D01*
G37*
G36*
X136223060Y-52725959D02*
X136224119Y-52783636D01*
X136227082Y-52841326D01*
X136232347Y-52898261D01*
X136240391Y-52955255D01*
X136251741Y-53011762D01*
X136423189Y-53011762D01*
X136594300Y-53011762D01*
X136765721Y-53011762D01*
X136937036Y-53011762D01*
X137109147Y-53011762D01*
X137097321Y-53068492D01*
X137089330Y-53125308D01*
X137084197Y-53182530D01*
X137081551Y-53240029D01*
X137080493Y-53297565D01*
X137081551Y-53355242D01*
X137084515Y-53412937D01*
X137089780Y-53469865D01*
X137097823Y-53526861D01*
X137109174Y-53583368D01*
X137097347Y-53640095D01*
X137089357Y-53696917D01*
X137084224Y-53754138D01*
X137081578Y-53811637D01*
X137080519Y-53869174D01*
X137081578Y-53926848D01*
X137084541Y-53984537D01*
X137089806Y-54041473D01*
X137097876Y-54098467D01*
X137109227Y-54154974D01*
X137097400Y-54211703D01*
X137089409Y-54268520D01*
X137084277Y-54325744D01*
X137081631Y-54383241D01*
X137080572Y-54440777D01*
X137081631Y-54498453D01*
X137084594Y-54556143D01*
X137089859Y-54613079D01*
X137097903Y-54670073D01*
X137109253Y-54726580D01*
X137097426Y-54783309D01*
X137089436Y-54840126D01*
X137084303Y-54897347D01*
X137081657Y-54954846D01*
X137080599Y-55012380D01*
X137081657Y-55070057D01*
X137084621Y-55127752D01*
X137089886Y-55184682D01*
X137097929Y-55241676D01*
X137109280Y-55298183D01*
X137097453Y-55354912D01*
X137089462Y-55411734D01*
X137084329Y-55468956D01*
X137081684Y-55526452D01*
X137080625Y-55583989D01*
X137081684Y-55641665D01*
X137084647Y-55699357D01*
X137089912Y-55756291D01*
X137097956Y-55813284D01*
X137109306Y-55869791D01*
X137097479Y-55926523D01*
X137089489Y-55983337D01*
X137084382Y-56040559D01*
X137081737Y-56098058D01*
X137080678Y-56155594D01*
X137081737Y-56213268D01*
X137084700Y-56270958D01*
X137089965Y-56327894D01*
X137098008Y-56384888D01*
X137109359Y-56441395D01*
X137223659Y-56441395D01*
X137338322Y-56441395D01*
X137452463Y-56441395D01*
X137566474Y-56441395D01*
X137680970Y-56441395D01*
X137692268Y-56385179D01*
X137700311Y-56328399D01*
X137705629Y-56270802D01*
X137708593Y-56212850D01*
X137709651Y-56155594D01*
X137708593Y-56098336D01*
X137705947Y-56040665D01*
X137700840Y-55983583D01*
X137692824Y-55926500D01*
X137680997Y-55869791D01*
X137692321Y-55813578D01*
X137700364Y-55756793D01*
X137705682Y-55699196D01*
X137708646Y-55641250D01*
X137709704Y-55583989D01*
X137708646Y-55526733D01*
X137706000Y-55469062D01*
X137700893Y-55411978D01*
X137692876Y-55354894D01*
X137681076Y-55298183D01*
X137692374Y-55241972D01*
X137700417Y-55185190D01*
X137705735Y-55127590D01*
X137708699Y-55069639D01*
X137709757Y-55012380D01*
X137708699Y-54955122D01*
X137706053Y-54897453D01*
X137700946Y-54840369D01*
X137692929Y-54783288D01*
X137681129Y-54726580D01*
X137692427Y-54670361D01*
X137700470Y-54613582D01*
X137705788Y-54555984D01*
X137708751Y-54498033D01*
X137709810Y-54440777D01*
X137708751Y-54383521D01*
X137706106Y-54325845D01*
X137700999Y-54268766D01*
X137692982Y-54211682D01*
X137681182Y-54154974D01*
X137692480Y-54098758D01*
X137700523Y-54041978D01*
X137705841Y-53984381D01*
X137708804Y-53926430D01*
X137709863Y-53869174D01*
X137708804Y-53811913D01*
X137706159Y-53754244D01*
X137701079Y-53697163D01*
X137693062Y-53640079D01*
X137681261Y-53583368D01*
X137692559Y-53527152D01*
X137700602Y-53470373D01*
X137705920Y-53412770D01*
X137708884Y-53354821D01*
X137709942Y-53297565D01*
X137708884Y-53240304D01*
X137706238Y-53182633D01*
X137701131Y-53125554D01*
X137693115Y-53068468D01*
X137681314Y-53011762D01*
X137852761Y-53011762D01*
X138023870Y-53011762D01*
X138195291Y-53011762D01*
X138366609Y-53011762D01*
X138538720Y-53011762D01*
X138550018Y-52955546D01*
X138558061Y-52898767D01*
X138563379Y-52841164D01*
X138566343Y-52783218D01*
X138567401Y-52725959D01*
X138566343Y-52668701D01*
X138563697Y-52611030D01*
X138558590Y-52553949D01*
X138550574Y-52496867D01*
X138538773Y-52440159D01*
X138081578Y-52440159D01*
X137624111Y-52440159D01*
X137167263Y-52440159D01*
X136709629Y-52440159D01*
X136252353Y-52440159D01*
X136240526Y-52496889D01*
X136232535Y-52553705D01*
X136227402Y-52610927D01*
X136224756Y-52668426D01*
X136223698Y-52725959D01*
X136223060Y-52725959D01*
X136223060Y-52725959D01*
G37*
G36*
X134819827Y-53011762D02*
X134831178Y-52955546D01*
X134839221Y-52898767D01*
X134844539Y-52841164D01*
X134847820Y-52783218D01*
X134848878Y-52725959D01*
X134847820Y-52668701D01*
X134845174Y-52611035D01*
X134840094Y-52553949D01*
X134832024Y-52496867D01*
X134820197Y-52440159D01*
X134705903Y-52440159D01*
X134591240Y-52440159D01*
X134477099Y-52440159D01*
X134363090Y-52440159D01*
X134248597Y-52440159D01*
X134236770Y-52496889D01*
X134228753Y-52553705D01*
X134223647Y-52610929D01*
X134221001Y-52668428D01*
X134219942Y-52725959D01*
X134221001Y-52783636D01*
X134223647Y-52841326D01*
X134228938Y-52898261D01*
X134236982Y-52955255D01*
X134248359Y-53011762D01*
X134362659Y-53011762D01*
X134477316Y-53011762D01*
X134591457Y-53011762D01*
X134705474Y-53011762D01*
X134819962Y-53011762D01*
X134819827Y-53011762D01*
X134819827Y-53011762D01*
G37*
G36*
X135248587Y-53583802D02*
X135260414Y-53640449D01*
X135268378Y-53697107D01*
X135273431Y-53754162D01*
X135276077Y-53811542D01*
X135277135Y-53869026D01*
X135276077Y-53926729D01*
X135273431Y-53984490D01*
X135268219Y-54041510D01*
X135260202Y-54098586D01*
X135248851Y-54155135D01*
X135163039Y-54155135D01*
X135076952Y-54155135D01*
X134991253Y-54155135D01*
X134905652Y-54155135D01*
X134819689Y-54155135D01*
X134831622Y-54211783D01*
X134839851Y-54268438D01*
X134845169Y-54325490D01*
X134847815Y-54382873D01*
X134848873Y-54440359D01*
X134847815Y-54498062D01*
X134844534Y-54555818D01*
X134839004Y-54612843D01*
X134830722Y-54669917D01*
X134819240Y-54726463D01*
X134831172Y-54783240D01*
X134839401Y-54840142D01*
X134844719Y-54897456D01*
X134847365Y-54955018D01*
X134848423Y-55012576D01*
X134848159Y-55070885D01*
X134846836Y-55129244D01*
X134844454Y-55187952D01*
X134841174Y-55246761D01*
X134837072Y-55305792D01*
X134837337Y-55321350D01*
X134837602Y-55337225D01*
X134837866Y-55352994D01*
X134838131Y-55368446D01*
X134838395Y-55383950D01*
X134838491Y-55386332D01*
X134838708Y-55388713D01*
X134838972Y-55391094D01*
X134839171Y-55392946D01*
X134839253Y-55395327D01*
X134839115Y-55396650D01*
X134838893Y-55397709D01*
X134838628Y-55399032D01*
X134838507Y-55400090D01*
X134838456Y-55401148D01*
X134838552Y-55429914D01*
X134837493Y-55458809D01*
X134835112Y-55487048D01*
X134831011Y-55515517D01*
X134824396Y-55543261D01*
X134822015Y-55570876D01*
X134820163Y-55599181D01*
X134818311Y-55626663D01*
X134815665Y-55654704D01*
X134810929Y-55681892D01*
X134733996Y-55681892D01*
X134656822Y-55681892D01*
X134579993Y-55681892D01*
X134503256Y-55681892D01*
X134426188Y-55681892D01*
X134428040Y-55700043D01*
X134430421Y-55718458D01*
X134432802Y-55736714D01*
X134434654Y-55755182D01*
X134434919Y-55773438D01*
X134433861Y-55831064D01*
X134431215Y-55888627D01*
X134425976Y-55945391D01*
X134417959Y-56002226D01*
X134406662Y-56058656D01*
X134321908Y-56058656D01*
X134236894Y-56058656D01*
X134152257Y-56058656D01*
X134067720Y-56058656D01*
X133982826Y-56058656D01*
X133984678Y-56078474D01*
X133987323Y-56097762D01*
X133989969Y-56116918D01*
X133991821Y-56136338D01*
X133992086Y-56155494D01*
X133991028Y-56213120D01*
X133988382Y-56270688D01*
X133983143Y-56327449D01*
X133975126Y-56384284D01*
X133963776Y-56440720D01*
X133849354Y-56440720D01*
X133734572Y-56440720D01*
X133620304Y-56440720D01*
X133506173Y-56440720D01*
X133391559Y-56440720D01*
X133380287Y-56384581D01*
X133372270Y-56327955D01*
X133366979Y-56270524D01*
X133364333Y-56212702D01*
X133363275Y-56155494D01*
X133364333Y-56098214D01*
X133366979Y-56040479D01*
X133372032Y-55983311D01*
X133380049Y-55926140D01*
X133391876Y-55869389D01*
X133476630Y-55869389D01*
X133561649Y-55869389D01*
X133646278Y-55869389D01*
X133730818Y-55869389D01*
X133815707Y-55869389D01*
X133813855Y-55849731D01*
X133811209Y-55830363D01*
X133808563Y-55811128D01*
X133806711Y-55791919D01*
X133806446Y-55773451D01*
X133807505Y-55716172D01*
X133810151Y-55658437D01*
X133815204Y-55601269D01*
X133823221Y-55544097D01*
X133835048Y-55487344D01*
X133912161Y-55487344D01*
X133989514Y-55487344D01*
X134066516Y-55487344D01*
X134143438Y-55487344D01*
X134220675Y-55487344D01*
X134218823Y-55468612D01*
X134216442Y-55450091D01*
X134214061Y-55431729D01*
X134212209Y-55413446D01*
X134211944Y-55395825D01*
X134213002Y-55374579D01*
X134214855Y-55353571D01*
X134217500Y-55332510D01*
X134220146Y-55311767D01*
X134222527Y-55290997D01*
X134220675Y-55235188D01*
X134219617Y-55179838D01*
X134219352Y-55124500D01*
X134219141Y-55069355D01*
X134219114Y-55013774D01*
X134220173Y-54956495D01*
X134222818Y-54898757D01*
X134227872Y-54841586D01*
X134235889Y-54784418D01*
X134247716Y-54727662D01*
X134236445Y-54671412D01*
X134228428Y-54614550D01*
X134223136Y-54556855D01*
X134220490Y-54498837D01*
X134219432Y-54441557D01*
X134220490Y-54384344D01*
X134223136Y-54326794D01*
X134228190Y-54269883D01*
X134236180Y-54212963D01*
X134248007Y-54156334D01*
X134236736Y-54100078D01*
X134228719Y-54043217D01*
X134223427Y-53985524D01*
X134220781Y-53927506D01*
X134219723Y-53870224D01*
X134220781Y-53813013D01*
X134223427Y-53755464D01*
X134228481Y-53698552D01*
X134236471Y-53641632D01*
X134248298Y-53585001D01*
X134448357Y-53585001D01*
X134648028Y-53585001D01*
X134848053Y-53585001D01*
X135048483Y-53585001D01*
X135248793Y-53585001D01*
X135248587Y-53583802D01*
X135248587Y-53583802D01*
G37*
G36*
X130529995Y-55298183D02*
X130518168Y-55354912D01*
X130510151Y-55411734D01*
X130505044Y-55468956D01*
X130502399Y-55526452D01*
X130501340Y-55583989D01*
X130502399Y-55641665D01*
X130505679Y-55699357D01*
X130510945Y-55756291D01*
X130518988Y-55813284D01*
X130530365Y-55869791D01*
X130587518Y-55869791D01*
X130644260Y-55869791D01*
X130701939Y-55869791D01*
X130758939Y-55869791D01*
X130816173Y-55869791D01*
X130804346Y-55926523D01*
X130796329Y-55983337D01*
X130791223Y-56040559D01*
X130788577Y-56098058D01*
X130787519Y-56155594D01*
X130788577Y-56213268D01*
X130791858Y-56270958D01*
X130797150Y-56327894D01*
X130805193Y-56384888D01*
X130816570Y-56441395D01*
X131102317Y-56441395D01*
X131388239Y-56441395D01*
X131673762Y-56441395D01*
X131959782Y-56441395D01*
X132245582Y-56441395D01*
X132256933Y-56385179D01*
X132264976Y-56328399D01*
X132270294Y-56270802D01*
X132273575Y-56212850D01*
X132274633Y-56155594D01*
X132273575Y-56098336D01*
X132270929Y-56040665D01*
X132265823Y-55983583D01*
X132257779Y-55926500D01*
X132245952Y-55869791D01*
X132303108Y-55869791D01*
X132359850Y-55869791D01*
X132417524Y-55869791D01*
X132474526Y-55869791D01*
X132531758Y-55869791D01*
X132543109Y-55813578D01*
X132551152Y-55756793D01*
X132556470Y-55699196D01*
X132559751Y-55641250D01*
X132560809Y-55583989D01*
X132559751Y-55526733D01*
X132557105Y-55469062D01*
X132552025Y-55411978D01*
X132543955Y-55354894D01*
X132532128Y-55298183D01*
X132589278Y-55298183D01*
X132646024Y-55298183D01*
X132703700Y-55298183D01*
X132760694Y-55298183D01*
X132817926Y-55298183D01*
X132829277Y-55241972D01*
X132837320Y-55185190D01*
X132842638Y-55127590D01*
X132845919Y-55069639D01*
X132846977Y-55012380D01*
X132845919Y-54955122D01*
X132843273Y-54897453D01*
X132838167Y-54840369D01*
X132830123Y-54783288D01*
X132818296Y-54726580D01*
X132829647Y-54670361D01*
X132837690Y-54613582D01*
X132843009Y-54555984D01*
X132846289Y-54498033D01*
X132847348Y-54440777D01*
X132846289Y-54383521D01*
X132843644Y-54325845D01*
X132838564Y-54268766D01*
X132830520Y-54211682D01*
X132818693Y-54154974D01*
X132830044Y-54098758D01*
X132838087Y-54041978D01*
X132843405Y-53984381D01*
X132846686Y-53926430D01*
X132847745Y-53869174D01*
X132846686Y-53811913D01*
X132844040Y-53754244D01*
X132838960Y-53697163D01*
X132830917Y-53640079D01*
X132819090Y-53583368D01*
X132761940Y-53583368D01*
X132705198Y-53583368D01*
X132647524Y-53583368D01*
X132590522Y-53583368D01*
X132533290Y-53583368D01*
X132544641Y-53527152D01*
X132552684Y-53470373D01*
X132558002Y-53412770D01*
X132561283Y-53354821D01*
X132562341Y-53297565D01*
X132561283Y-53240304D01*
X132558637Y-53182633D01*
X132553531Y-53125554D01*
X132545487Y-53068468D01*
X132533660Y-53011762D01*
X132476513Y-53011762D01*
X132419768Y-53011762D01*
X132362091Y-53011762D01*
X132305095Y-53011762D01*
X132247855Y-53011762D01*
X132259205Y-52955546D01*
X132267249Y-52898767D01*
X132272567Y-52841164D01*
X132275848Y-52783218D01*
X132276906Y-52725959D01*
X132275848Y-52668701D01*
X132273202Y-52611030D01*
X132268095Y-52553949D01*
X132260052Y-52496867D01*
X132248225Y-52440159D01*
X131962478Y-52440159D01*
X131676564Y-52440159D01*
X131391033Y-52440159D01*
X131105014Y-52440159D01*
X130819216Y-52440159D01*
X130807389Y-52496889D01*
X130799372Y-52553705D01*
X130794292Y-52610927D01*
X130791646Y-52668426D01*
X130790588Y-52725959D01*
X130791646Y-52783636D01*
X130794927Y-52841326D01*
X130800219Y-52898261D01*
X130808262Y-52955255D01*
X130819639Y-53011762D01*
X130762489Y-53011762D01*
X130705747Y-53011762D01*
X130648070Y-53011762D01*
X130591071Y-53011762D01*
X130533831Y-53011762D01*
X130522004Y-53068492D01*
X130513987Y-53125308D01*
X130508881Y-53182530D01*
X130506235Y-53240029D01*
X130505177Y-53297565D01*
X130506235Y-53355242D01*
X130509516Y-53412937D01*
X130514808Y-53469865D01*
X130522851Y-53526861D01*
X130534228Y-53583368D01*
X130648531Y-53583368D01*
X130763190Y-53583368D01*
X130877334Y-53583368D01*
X130991343Y-53583368D01*
X131105836Y-53583368D01*
X131117187Y-53527152D01*
X131125230Y-53470373D01*
X131130548Y-53412770D01*
X131133829Y-53354821D01*
X131134888Y-53297565D01*
X131133829Y-53240304D01*
X131131183Y-53182633D01*
X131126077Y-53125554D01*
X131118034Y-53068468D01*
X131106207Y-53011762D01*
X131277659Y-53011762D01*
X131448768Y-53011762D01*
X131620192Y-53011762D01*
X131791504Y-53011762D01*
X131963613Y-53011762D01*
X131951786Y-53068492D01*
X131943796Y-53125308D01*
X131938689Y-53182530D01*
X131936043Y-53240029D01*
X131934985Y-53297565D01*
X131936043Y-53355242D01*
X131939324Y-53412937D01*
X131944589Y-53469865D01*
X131952633Y-53526861D01*
X131964010Y-53583368D01*
X132021162Y-53583368D01*
X132077908Y-53583368D01*
X132135584Y-53583368D01*
X132192578Y-53583368D01*
X132249813Y-53583368D01*
X132237986Y-53640095D01*
X132229969Y-53696917D01*
X132224862Y-53754138D01*
X132222217Y-53811637D01*
X132221158Y-53869174D01*
X132222217Y-53926848D01*
X132225497Y-53984537D01*
X132230763Y-54041473D01*
X132238806Y-54098467D01*
X132250183Y-54154974D01*
X132238356Y-54211703D01*
X132230366Y-54268520D01*
X132225259Y-54325744D01*
X132222614Y-54383241D01*
X132221555Y-54440777D01*
X132222614Y-54498453D01*
X132225894Y-54556143D01*
X132231186Y-54613079D01*
X132239229Y-54670073D01*
X132250606Y-54726580D01*
X132238780Y-54783309D01*
X132230763Y-54840126D01*
X132225656Y-54897347D01*
X132223010Y-54954846D01*
X132221952Y-55012380D01*
X132223010Y-55070057D01*
X132226291Y-55127752D01*
X132231583Y-55184682D01*
X132239626Y-55241676D01*
X132251003Y-55298183D01*
X132193856Y-55298183D01*
X132137111Y-55298183D01*
X132079434Y-55298183D01*
X132022435Y-55298183D01*
X131965200Y-55298183D01*
X131953374Y-55354912D01*
X131945357Y-55411734D01*
X131940250Y-55468956D01*
X131937604Y-55526452D01*
X131936546Y-55583989D01*
X131937604Y-55641665D01*
X131940885Y-55699357D01*
X131946177Y-55756291D01*
X131954220Y-55813284D01*
X131965597Y-55869791D01*
X131794153Y-55869791D01*
X131623036Y-55869791D01*
X131451618Y-55869791D01*
X131280303Y-55869791D01*
X131108191Y-55869791D01*
X131119542Y-55813578D01*
X131127585Y-55756793D01*
X131132903Y-55699196D01*
X131136184Y-55641250D01*
X131137242Y-55583989D01*
X131136184Y-55526733D01*
X131133538Y-55469062D01*
X131128432Y-55411978D01*
X131120388Y-55354894D01*
X131108562Y-55298183D01*
X130994264Y-55298183D01*
X130879604Y-55298183D01*
X130765463Y-55298183D01*
X130651446Y-55298183D01*
X130536956Y-55298183D01*
X130529995Y-55298183D01*
X130529995Y-55298183D01*
G37*
G04 #@! TD*
D11*
G04 #@! TO.C,led*
X162052000Y-74676000D03*
X164592000Y-74676000D03*
X167132000Y-74676000D03*
D12*
X169672000Y-74676000D03*
G04 #@! TD*
G04 #@! TO.C,led*
X121412000Y-74676000D03*
D11*
X118872000Y-74676000D03*
X116332000Y-74676000D03*
X113792000Y-74676000D03*
G04 #@! TD*
D13*
G04 #@! TO.C,10k*
X121666000Y-144653000D03*
D14*
X111506000Y-144653000D03*
G04 #@! TD*
D15*
G04 #@! TO.C,interruptor*
X164338000Y-144526000D03*
X166878000Y-144526000D03*
D16*
X169418000Y-144526000D03*
G04 #@! TD*
D17*
G04 #@! TO.C,Polsador*
X131849000Y-136652000D03*
X131849000Y-141152000D03*
X125349000Y-136652000D03*
X125349000Y-141152000D03*
G04 #@! TD*
D13*
G04 #@! TO.C,Processador*
X158242000Y-136652000D03*
X150622000Y-144272000D03*
X158242000Y-139192000D03*
X150622000Y-141732000D03*
X158242000Y-141732000D03*
X150622000Y-139192000D03*
X158242000Y-144272000D03*
D18*
X150622000Y-136652000D03*
G04 #@! TD*
D19*
G04 #@! TO.C,BT1*
X126925000Y-81280000D03*
X156285000Y-81280000D03*
G04 #@! TD*
M02*
