G04 #@! TF.GenerationSoftware,KiCad,Pcbnew,5.0.0-fee4fd1~66~ubuntu18.04.1*
G04 #@! TF.CreationDate,2018-08-08T07:38:06+02:00*
G04 #@! TF.ProjectId,Saba-TIC18,536162612D54494331382E6B69636164,rev?*
G04 #@! TF.SameCoordinates,Original*
G04 #@! TF.FileFunction,Profile,NP*
%FSLAX46Y46*%
G04 Gerber Fmt 4.6, Leading zero omitted, Abs format (unit mm)*
G04 Created by KiCad (PCBNEW 5.0.0-fee4fd1~66~ubuntu18.04.1) date Wed Aug  8 07:38:06 2018*
%MOMM*%
%LPD*%
G01*
G04 APERTURE LIST*
G04 #@! TA.AperFunction,NonConductor*
%ADD10C,0.089095*%
G04 #@! TD*
G04 #@! TA.AperFunction,NonConductor*
%ADD11C,0.098545*%
G04 #@! TD*
G04 #@! TA.AperFunction,NonConductor*
%ADD12C,0.144710*%
G04 #@! TD*
G04 APERTURE END LIST*
D10*
G04 #@! TO.C,svg2mod*
X141834435Y-63773831D02*
X142769295Y-63783793D01*
X142769295Y-63783793D02*
X143704155Y-63793754D01*
X143704155Y-63793754D02*
X144639015Y-63803716D01*
X144639015Y-63803716D02*
X145573876Y-63813678D01*
X145573876Y-63813678D02*
X145952902Y-63827149D01*
X145952902Y-63827149D02*
X146331928Y-63840620D01*
X146331928Y-63840620D02*
X146710954Y-63854091D01*
X146710954Y-63854091D02*
X147089980Y-63867563D01*
X147089980Y-63867563D02*
X147363982Y-63886767D01*
X147363982Y-63886767D02*
X147637983Y-63905972D01*
X147637983Y-63905972D02*
X147911984Y-63925177D01*
X147911984Y-63925177D02*
X148185985Y-63944382D01*
X148185985Y-63944382D02*
X148520901Y-63992660D01*
X148520901Y-63992660D02*
X148855817Y-64040939D01*
X148855817Y-64040939D02*
X149190735Y-64089216D01*
X149190735Y-64089216D02*
X149525652Y-64137493D01*
X149525652Y-64137493D02*
X149636177Y-64169180D01*
X149636177Y-64169180D02*
X149746701Y-64200866D01*
X149746701Y-64200866D02*
X149857227Y-64232554D01*
X149857227Y-64232554D02*
X149967753Y-64264242D01*
X149967753Y-64264242D02*
X150046438Y-64304941D01*
X150046438Y-64304941D02*
X150125124Y-64345641D01*
X150125124Y-64345641D02*
X150203810Y-64386340D01*
X150203810Y-64386340D02*
X150282496Y-64427040D01*
X150282496Y-64427040D02*
X150334682Y-64479749D01*
X150334682Y-64479749D02*
X150386869Y-64532458D01*
X150386869Y-64532458D02*
X150439055Y-64585168D01*
X150439055Y-64585168D02*
X150491241Y-64637878D01*
X150491241Y-64637878D02*
X150522900Y-64706997D01*
X150522900Y-64706997D02*
X150554559Y-64776115D01*
X150554559Y-64776115D02*
X150586218Y-64845232D01*
X150586218Y-64845232D02*
X150617876Y-64914349D01*
X150617876Y-64914349D02*
X150633923Y-65004623D01*
X150633923Y-65004623D02*
X150649970Y-65094896D01*
X150649970Y-65094896D02*
X150666016Y-65185170D01*
X150666016Y-65185170D02*
X150682062Y-65275445D01*
X150682062Y-65275445D02*
X150686427Y-65390326D01*
X150686427Y-65390326D02*
X150690793Y-65505206D01*
X150690793Y-65505206D02*
X150695158Y-65620088D01*
X150695158Y-65620088D02*
X150699524Y-65734971D01*
X150699524Y-65734971D02*
X150684993Y-65974631D01*
X150684993Y-65974631D02*
X150670462Y-66214292D01*
X150670462Y-66214292D02*
X150655933Y-66453953D01*
X150655933Y-66453953D02*
X150641403Y-66693614D01*
X150641403Y-66693614D02*
X150607356Y-66894236D01*
X150607356Y-66894236D02*
X150573310Y-67094857D01*
X150573310Y-67094857D02*
X150539265Y-67295480D01*
X150539265Y-67295480D02*
X150505219Y-67496103D01*
X150505219Y-67496103D02*
X150471866Y-67620158D01*
X150471866Y-67620158D02*
X150438513Y-67744214D01*
X150438513Y-67744214D02*
X150408980Y-67840867D01*
X150408980Y-67840867D02*
X150379447Y-67937521D01*
X150379447Y-67937521D02*
X150318204Y-68046947D01*
X150318204Y-68046947D02*
X150228084Y-68121735D01*
X150228084Y-68121735D02*
X149994722Y-68180874D01*
X149994722Y-68180874D02*
X148018324Y-68172844D01*
X148018324Y-68172844D02*
X146041926Y-68164814D01*
X146041926Y-68164814D02*
X143903296Y-68164814D01*
X143903296Y-68164814D02*
X141764667Y-68164814D01*
X141764667Y-68164814D02*
X139626037Y-68164814D01*
X139626037Y-68164814D02*
X137487407Y-68164814D01*
X137487407Y-68164814D02*
X135596154Y-68164814D01*
X135596154Y-68164814D02*
X133704900Y-68164814D01*
X133704900Y-68164814D02*
X133628419Y-68164814D01*
X133628419Y-68164814D02*
X133551937Y-68164814D01*
X133551937Y-68164814D02*
X133313290Y-68115856D01*
X133313290Y-68115856D02*
X133235492Y-68047239D01*
X133235492Y-68047239D02*
X133159105Y-67929573D01*
X133159105Y-67929573D02*
X133138113Y-67880020D01*
X133138113Y-67880020D02*
X133117121Y-67830468D01*
X133117121Y-67830468D02*
X133070612Y-67663295D01*
X133070612Y-67663295D02*
X133024104Y-67496122D01*
X133024104Y-67496122D02*
X132990078Y-67288878D01*
X132990078Y-67288878D02*
X132956053Y-67081634D01*
X132956053Y-67081634D02*
X132922027Y-66874389D01*
X132922027Y-66874389D02*
X132888002Y-66667145D01*
X132888002Y-66667145D02*
X132873451Y-66411239D01*
X132873451Y-66411239D02*
X132858900Y-66155333D01*
X132858900Y-66155333D02*
X132844350Y-65899426D01*
X132844350Y-65899426D02*
X132829799Y-65643520D01*
X132829799Y-65643520D02*
X132831426Y-65525083D01*
X132831426Y-65525083D02*
X132833053Y-65406646D01*
X132833053Y-65406646D02*
X132834681Y-65288211D01*
X132834681Y-65288211D02*
X132836308Y-65169776D01*
X132836308Y-65169776D02*
X132845912Y-65080860D01*
X132845912Y-65080860D02*
X132855516Y-64991944D01*
X132855516Y-64991944D02*
X132865121Y-64903029D01*
X132865121Y-64903029D02*
X132874725Y-64814115D01*
X132874725Y-64814115D02*
X132898542Y-64750353D01*
X132898542Y-64750353D02*
X132922358Y-64686591D01*
X132922358Y-64686591D02*
X132946173Y-64622830D01*
X132946173Y-64622830D02*
X132969988Y-64559070D01*
X132969988Y-64559070D02*
X133015161Y-64513665D01*
X133015161Y-64513665D02*
X133060333Y-64468259D01*
X133060333Y-64468259D02*
X133105504Y-64422854D01*
X133105504Y-64422854D02*
X133150675Y-64377449D01*
X133150675Y-64377449D02*
X133226239Y-64343982D01*
X133226239Y-64343982D02*
X133301802Y-64310515D01*
X133301802Y-64310515D02*
X133377366Y-64277048D01*
X133377366Y-64277048D02*
X133452930Y-64243580D01*
X133452930Y-64243580D02*
X133567090Y-64217926D01*
X133567090Y-64217926D02*
X133681249Y-64192272D01*
X133681249Y-64192272D02*
X133795409Y-64166618D01*
X133795409Y-64166618D02*
X133909569Y-64140964D01*
X133909569Y-64140964D02*
X134281310Y-64095958D01*
X134281310Y-64095958D02*
X134653051Y-64050951D01*
X134653051Y-64050951D02*
X135024792Y-64005944D01*
X135024792Y-64005944D02*
X135396532Y-63960937D01*
X135396532Y-63960937D02*
X135679999Y-63941002D01*
X135679999Y-63941002D02*
X135963466Y-63921067D01*
X135963466Y-63921067D02*
X136246932Y-63901132D01*
X136246932Y-63901132D02*
X136530399Y-63881197D01*
X136530399Y-63881197D02*
X136916164Y-63866734D01*
X136916164Y-63866734D02*
X137301929Y-63852272D01*
X137301929Y-63852272D02*
X137687694Y-63837809D01*
X137687694Y-63837809D02*
X138073459Y-63823345D01*
X138073459Y-63823345D02*
X139013691Y-63810976D01*
X139013691Y-63810976D02*
X139953922Y-63798607D01*
X139953922Y-63798607D02*
X140894153Y-63786238D01*
X140894153Y-63786238D02*
X141834384Y-63773868D01*
X141834384Y-63773868D02*
X141834435Y-63773831D01*
X141822970Y-34633510D02*
X141868054Y-34639327D01*
X141868054Y-34639327D02*
X141913138Y-34645144D01*
X141913138Y-34645144D02*
X141958221Y-34650961D01*
X141958221Y-34650961D02*
X142003305Y-34656778D01*
X142003305Y-34656778D02*
X142049947Y-34673699D01*
X142049947Y-34673699D02*
X142096589Y-34690620D01*
X142096589Y-34690620D02*
X142143231Y-34707541D01*
X126929340Y-68075678D02*
X126906106Y-68264985D01*
X126906106Y-68264985D02*
X126838707Y-68374897D01*
X126838707Y-68374897D02*
X126714097Y-68439095D01*
X126714097Y-68439095D02*
X126538587Y-68481073D01*
X126538587Y-68481073D02*
X126266899Y-68502648D01*
X126266899Y-68502648D02*
X125995210Y-68524224D01*
X125995210Y-68524224D02*
X125723521Y-68545799D01*
X125723521Y-68545799D02*
X125451833Y-68567375D01*
X125451833Y-68567375D02*
X124571395Y-68626801D01*
X124571395Y-68626801D02*
X123690958Y-68686228D01*
X123690958Y-68686228D02*
X122810520Y-68745656D01*
X122810520Y-68745656D02*
X121930083Y-68805084D01*
X121930083Y-68805084D02*
X120996290Y-68867613D01*
X120996290Y-68867613D02*
X120062496Y-68930142D01*
X120062496Y-68930142D02*
X119128703Y-68992671D01*
X119128703Y-68992671D02*
X118194910Y-69055200D01*
X118194910Y-69055200D02*
X117689773Y-69097057D01*
X117689773Y-69097057D02*
X117184635Y-69138914D01*
X117184635Y-69138914D02*
X116838712Y-69167579D01*
X116838712Y-69167579D02*
X116492788Y-69196244D01*
X116492788Y-69196244D02*
X116333575Y-69209434D01*
X116333575Y-69209434D02*
X116174361Y-69222623D01*
X116174361Y-69222623D02*
X116067835Y-69237112D01*
X116067835Y-69237112D02*
X115961309Y-69251600D01*
X115961309Y-69251600D02*
X115881671Y-69262435D01*
X115881671Y-69262435D02*
X115802033Y-69273270D01*
X115802033Y-69273270D02*
X115718800Y-69234131D01*
X115718800Y-69234131D02*
X115635567Y-69194993D01*
X115635567Y-69194993D02*
X115576485Y-69141061D01*
X115576485Y-69141061D02*
X115517402Y-69087130D01*
X115517402Y-69087130D02*
X115473736Y-68948582D01*
X115473736Y-68948582D02*
X115430069Y-68810035D01*
X115430069Y-68810035D02*
X115429884Y-68638964D01*
X115429884Y-68638964D02*
X115429699Y-68467894D01*
X115429699Y-68467894D02*
X115429699Y-68039884D01*
X115429699Y-68039884D02*
X115429699Y-67611874D01*
X115429699Y-67611874D02*
X115445073Y-67264479D01*
X115445073Y-67264479D02*
X115460446Y-66917084D01*
X115460446Y-66917084D02*
X115475820Y-66569689D01*
X115475820Y-66569689D02*
X115491193Y-66222293D01*
X115491193Y-66222293D02*
X115510113Y-66113305D01*
X115510113Y-66113305D02*
X115529033Y-66004316D01*
X115529033Y-66004316D02*
X115547953Y-65895327D01*
X115547953Y-65895327D02*
X115566873Y-65786337D01*
X115566873Y-65786337D02*
X115590586Y-65726214D01*
X115590586Y-65726214D02*
X115614299Y-65666092D01*
X115614299Y-65666092D02*
X115638012Y-65605970D01*
X115638012Y-65605970D02*
X115661725Y-65545849D01*
X115661725Y-65545849D02*
X115701881Y-65517502D01*
X115701881Y-65517502D02*
X115742038Y-65489154D01*
X115742038Y-65489154D02*
X115782194Y-65460807D01*
X115782194Y-65460807D02*
X115822350Y-65432459D01*
X115822350Y-65432459D02*
X115903375Y-65399700D01*
X115903375Y-65399700D02*
X115984401Y-65366940D01*
X115984401Y-65366940D02*
X116065427Y-65334181D01*
X116065427Y-65334181D02*
X116146453Y-65301422D01*
X116146453Y-65301422D02*
X116406514Y-65236309D01*
X116406514Y-65236309D02*
X116666576Y-65171196D01*
X116666576Y-65171196D02*
X116926637Y-65106084D01*
X116926637Y-65106084D02*
X117186699Y-65040971D01*
X117186699Y-65040971D02*
X117543471Y-64979362D01*
X117543471Y-64979362D02*
X117900243Y-64917752D01*
X117900243Y-64917752D02*
X118257015Y-64856142D01*
X118257015Y-64856142D02*
X118613788Y-64794533D01*
X118613788Y-64794533D02*
X119028028Y-64741033D01*
X119028028Y-64741033D02*
X119442268Y-64687533D01*
X119442268Y-64687533D02*
X119856508Y-64634034D01*
X119856508Y-64634034D02*
X120270748Y-64580535D01*
X120270748Y-64580535D02*
X120703692Y-64539629D01*
X120703692Y-64539629D02*
X121136636Y-64498723D01*
X121136636Y-64498723D02*
X121569579Y-64457818D01*
X121569579Y-64457818D02*
X122002523Y-64416912D01*
X122002523Y-64416912D02*
X122415264Y-64392835D01*
X122415264Y-64392835D02*
X122828004Y-64368758D01*
X122828004Y-64368758D02*
X123240745Y-64344679D01*
X123240745Y-64344679D02*
X123653486Y-64320601D01*
X123653486Y-64320601D02*
X123653571Y-64320585D01*
X123653571Y-64320585D02*
X123653576Y-64320603D01*
X123653576Y-64320603D02*
X124006784Y-64317481D01*
X124006784Y-64317481D02*
X124359992Y-64314359D01*
X124359992Y-64314359D02*
X124713200Y-64311224D01*
X124713200Y-64311224D02*
X125066409Y-64308089D01*
X125066409Y-64308089D02*
X125320657Y-64330081D01*
X125320657Y-64330081D02*
X125574906Y-64352073D01*
X125574906Y-64352073D02*
X125829154Y-64374065D01*
X125829154Y-64374065D02*
X126083403Y-64396057D01*
X126083403Y-64396057D02*
X126182640Y-64424438D01*
X126182640Y-64424438D02*
X126281876Y-64452818D01*
X126281876Y-64452818D02*
X126399221Y-64513555D01*
X126399221Y-64513555D02*
X126516566Y-64574291D01*
X126516566Y-64574291D02*
X126573001Y-64620864D01*
X126573001Y-64620864D02*
X126629436Y-64667438D01*
X126629436Y-64667438D02*
X126685805Y-64753672D01*
X126685805Y-64753672D02*
X126742174Y-64839906D01*
X126742174Y-64839906D02*
X126750161Y-65019944D01*
X126750161Y-65019944D02*
X126757525Y-65199618D01*
X126757525Y-65199618D02*
X126771734Y-65340827D01*
X126771734Y-65340827D02*
X126785944Y-65482037D01*
X126785944Y-65482037D02*
X126818887Y-65965341D01*
X126818887Y-65965341D02*
X126851830Y-66448644D01*
X126851830Y-66448644D02*
X126870434Y-66800302D01*
X126870434Y-66800302D02*
X126889037Y-67151960D01*
X126889037Y-67151960D02*
X126907641Y-67503619D01*
X126907641Y-67503619D02*
X126926244Y-67855278D01*
X126926244Y-67855278D02*
X126927792Y-67965478D01*
X126927792Y-67965478D02*
X126929340Y-68075678D01*
X142143231Y-34707541D02*
X142189873Y-34724462D01*
X142189873Y-34724462D02*
X142327315Y-34775382D01*
X142327315Y-34775382D02*
X142464757Y-34826303D01*
X142464757Y-34826303D02*
X142602199Y-34877223D01*
X142602199Y-34877223D02*
X142739640Y-34928143D01*
X142739640Y-34928143D02*
X142926984Y-34982643D01*
X142926984Y-34982643D02*
X143114327Y-35037142D01*
X143114327Y-35037142D02*
X143301672Y-35091642D01*
X143301672Y-35091642D02*
X143489017Y-35146142D01*
X143489017Y-35146142D02*
X143651151Y-35195622D01*
X143651151Y-35195622D02*
X143813285Y-35245103D01*
X143813285Y-35245103D02*
X143975421Y-35294583D01*
X143975421Y-35294583D02*
X144137556Y-35344063D01*
X144137556Y-35344063D02*
X144183235Y-35366455D01*
X144183235Y-35366455D02*
X144228914Y-35388846D01*
X144228914Y-35388846D02*
X144274593Y-35411237D01*
X144274593Y-35411237D02*
X144320272Y-35433629D01*
X144320272Y-35433629D02*
X144342547Y-35453095D01*
X144342547Y-35453095D02*
X144364822Y-35472562D01*
X144364822Y-35472562D02*
X144387099Y-35492028D01*
X144387099Y-35492028D02*
X144409376Y-35511494D01*
X144409376Y-35511494D02*
X144412088Y-35526868D01*
X144412088Y-35526868D02*
X144414800Y-35542242D01*
X144414800Y-35542242D02*
X144417511Y-35557615D01*
X144417511Y-35557615D02*
X144420223Y-35572989D01*
X144420223Y-35572989D02*
X144406400Y-35593788D01*
X144406400Y-35593788D02*
X144392577Y-35614588D01*
X144392577Y-35614588D02*
X144378754Y-35635387D01*
X144378754Y-35635387D02*
X144364931Y-35656187D01*
X144364931Y-35656187D02*
X144273851Y-35714969D01*
X144273851Y-35714969D02*
X144182771Y-35773752D01*
X144182771Y-35773752D02*
X144091692Y-35832534D01*
X144091692Y-35832534D02*
X144000613Y-35891317D01*
X144000613Y-35891317D02*
X143927751Y-35933429D01*
X143927751Y-35933429D02*
X143854888Y-35975541D01*
X143854888Y-35975541D02*
X143782027Y-36017653D01*
X143782027Y-36017653D02*
X143709166Y-36059765D01*
X143709166Y-36059765D02*
X143651756Y-36103750D01*
X143651756Y-36103750D02*
X143594345Y-36147735D01*
X143594345Y-36147735D02*
X143536933Y-36191721D01*
X143536933Y-36191721D02*
X143479521Y-36235706D01*
X143479521Y-36235706D02*
X143437314Y-36283184D01*
X143437314Y-36283184D02*
X143395106Y-36330661D01*
X143395106Y-36330661D02*
X143352900Y-36378139D01*
X143352900Y-36378139D02*
X143310693Y-36425617D01*
X143310693Y-36425617D02*
X143283443Y-36478206D01*
X143283443Y-36478206D02*
X143256192Y-36530795D01*
X143256192Y-36530795D02*
X143228942Y-36583384D01*
X143228942Y-36583384D02*
X143201693Y-36635973D01*
X143201693Y-36635973D02*
X143189231Y-36694694D01*
X143189231Y-36694694D02*
X143176769Y-36753415D01*
X143176769Y-36753415D02*
X143164307Y-36812136D01*
X143164307Y-36812136D02*
X143151845Y-36870857D01*
X143151845Y-36870857D02*
X143153618Y-36936629D01*
X143153618Y-36936629D02*
X143155391Y-37002401D01*
X143155391Y-37002401D02*
X143157164Y-37068173D01*
X143157164Y-37068173D02*
X143158936Y-37133945D01*
X143158936Y-37133945D02*
X143201793Y-37292510D01*
X143201793Y-37292510D02*
X143244651Y-37451075D01*
X143244651Y-37451075D02*
X143287509Y-37609640D01*
X143287509Y-37609640D02*
X143330368Y-37768205D01*
X143330368Y-37768205D02*
X143413903Y-38019299D01*
X143413903Y-38019299D02*
X143497439Y-38270393D01*
X143497439Y-38270393D02*
X143580974Y-38521487D01*
X143580974Y-38521487D02*
X143664510Y-38772581D01*
X143664510Y-38772581D02*
X143760033Y-39095611D01*
X143760033Y-39095611D02*
X143855555Y-39418642D01*
X143855555Y-39418642D02*
X143951079Y-39741673D01*
X143951079Y-39741673D02*
X144046603Y-40064703D01*
X144046603Y-40064703D02*
X144158671Y-40405315D01*
X144158671Y-40405315D02*
X144270739Y-40745926D01*
X144270739Y-40745926D02*
X144382807Y-41086537D01*
X144382807Y-41086537D02*
X144494876Y-41427149D01*
X144494876Y-41427149D02*
X144618322Y-41719962D01*
X144618322Y-41719962D02*
X144741769Y-42012775D01*
X144741769Y-42012775D02*
X144865217Y-42305588D01*
X144865217Y-42305588D02*
X144988665Y-42598401D01*
X156632895Y-68381543D02*
X156571150Y-68214464D01*
X156571150Y-68214464D02*
X156562915Y-68005783D01*
X156562915Y-68005783D02*
X156585920Y-67766969D01*
X156585920Y-67766969D02*
X156608924Y-67528155D01*
X156608924Y-67528155D02*
X156641609Y-67041621D01*
X156641609Y-67041621D02*
X156674294Y-66555086D01*
X156674294Y-66555086D02*
X156704654Y-66197227D01*
X156704654Y-66197227D02*
X156735014Y-65839367D01*
X156735014Y-65839367D02*
X156765373Y-65481508D01*
X156765373Y-65481508D02*
X156795733Y-65123648D01*
X156795733Y-65123648D02*
X156810331Y-65009831D01*
X156810331Y-65009831D02*
X156824930Y-64896014D01*
X156824930Y-64896014D02*
X156915961Y-64676093D01*
X156915961Y-64676093D02*
X157056380Y-64548336D01*
X157056380Y-64548336D02*
X157258740Y-64481038D01*
X157258740Y-64481038D02*
X157474379Y-64462735D01*
X157474379Y-64462735D02*
X157643877Y-64455763D01*
X157643877Y-64455763D02*
X157813376Y-64448791D01*
X157813376Y-64448791D02*
X158353912Y-64443235D01*
X158353912Y-64443235D02*
X158894448Y-64437679D01*
X158894448Y-64437679D02*
X159434983Y-64432123D01*
X159434983Y-64432123D02*
X159975519Y-64426566D01*
X159975519Y-64426566D02*
X159975532Y-64426516D01*
X159975532Y-64426516D02*
X159975382Y-64426527D01*
X159975382Y-64426527D02*
X160349038Y-64433710D01*
X160349038Y-64433710D02*
X160722694Y-64440894D01*
X160722694Y-64440894D02*
X161096352Y-64448077D01*
X161096352Y-64448077D02*
X161470010Y-64455260D01*
X161470010Y-64455260D02*
X161822360Y-64474056D01*
X161822360Y-64474056D02*
X162174709Y-64492852D01*
X162174709Y-64492852D02*
X162527059Y-64511648D01*
X162527059Y-64511648D02*
X162879408Y-64530444D01*
X162879408Y-64530444D02*
X163203456Y-64559734D01*
X163203456Y-64559734D02*
X163527503Y-64589023D01*
X163527503Y-64589023D02*
X163851551Y-64618311D01*
X163851551Y-64618311D02*
X164175599Y-64647599D01*
X164175599Y-64647599D02*
X164464353Y-64686256D01*
X164464353Y-64686256D02*
X164753106Y-64724913D01*
X164753106Y-64724913D02*
X165041859Y-64763570D01*
X165041859Y-64763570D02*
X165330612Y-64802227D01*
X165330612Y-64802227D02*
X165577070Y-64849115D01*
X165577070Y-64849115D02*
X165823528Y-64896003D01*
X165823528Y-64896003D02*
X166069986Y-64942891D01*
X166069986Y-64942891D02*
X166316444Y-64989780D01*
X166316444Y-64989780D02*
X166513369Y-65043661D01*
X166513369Y-65043661D02*
X166710295Y-65097542D01*
X166710295Y-65097542D02*
X166907220Y-65151423D01*
X166907220Y-65151423D02*
X167104145Y-65205304D01*
X167104145Y-65205304D02*
X167243976Y-65265031D01*
X167243976Y-65265031D02*
X167383807Y-65324758D01*
X167383807Y-65324758D02*
X167523638Y-65384485D01*
X167523638Y-65384485D02*
X167663469Y-65444212D01*
X167663469Y-65444212D02*
X167709589Y-65475082D01*
X167709589Y-65475082D02*
X167755708Y-65505953D01*
X167755708Y-65505953D02*
X167801829Y-65536823D01*
X167801829Y-65536823D02*
X167847950Y-65567693D01*
X167847950Y-65567693D02*
X167876972Y-65598276D01*
X167876972Y-65598276D02*
X167905994Y-65628859D01*
X167905994Y-65628859D02*
X167935018Y-65659444D01*
X167935018Y-65659444D02*
X167964041Y-65690028D01*
X167964041Y-65690028D02*
X167980578Y-65745193D01*
X167980578Y-65745193D02*
X167997114Y-65800357D01*
X167997114Y-65800357D02*
X168013651Y-65855521D01*
X168013651Y-65855521D02*
X168030187Y-65910686D01*
X168030187Y-65910686D02*
X168041815Y-66012618D01*
X168041815Y-66012618D02*
X168053444Y-66114550D01*
X168053444Y-66114550D02*
X168065072Y-66216482D01*
X168065072Y-66216482D02*
X168076701Y-66318414D01*
X168076701Y-66318414D02*
X168081357Y-66594624D01*
X168081357Y-66594624D02*
X168086014Y-66870835D01*
X168086014Y-66870835D02*
X168090657Y-67147045D01*
X168090657Y-67147045D02*
X168095301Y-67423256D01*
X168095301Y-67423256D02*
X168077602Y-67694815D01*
X168077602Y-67694815D02*
X168059902Y-67966374D01*
X168059902Y-67966374D02*
X168042203Y-68237934D01*
X168042203Y-68237934D02*
X168024504Y-68509494D01*
X168024504Y-68509494D02*
X168008355Y-68605225D01*
X168008355Y-68605225D02*
X167992206Y-68700955D01*
X167992206Y-68700955D02*
X167976057Y-68796685D01*
X167976057Y-68796685D02*
X167959908Y-68892415D01*
X167959908Y-68892415D02*
X167941951Y-68938407D01*
X167941951Y-68938407D02*
X167923994Y-68984398D01*
X167923994Y-68984398D02*
X167906037Y-69030390D01*
X167906037Y-69030390D02*
X167888079Y-69076383D01*
X167888079Y-69076383D02*
X167830809Y-69111050D01*
X167830809Y-69111050D02*
X167773539Y-69145717D01*
X167773539Y-69145717D02*
X167716268Y-69180384D01*
X167716268Y-69180384D02*
X167658998Y-69215051D01*
X167658998Y-69215051D02*
X167596507Y-69226375D01*
X167596507Y-69226375D02*
X167534017Y-69237699D01*
X167534017Y-69237699D02*
X167471527Y-69249023D01*
X167471527Y-69249023D02*
X167409038Y-69260348D01*
X167409038Y-69260348D02*
X166393942Y-69181369D01*
X166393942Y-69181369D02*
X165378845Y-69102391D01*
X165378845Y-69102391D02*
X164363750Y-69023415D01*
X164363750Y-69023415D02*
X163348655Y-68944438D01*
X163348655Y-68944438D02*
X162215173Y-68866964D01*
X162215173Y-68866964D02*
X161081692Y-68789490D01*
X161081692Y-68789490D02*
X159948211Y-68712017D01*
X159948211Y-68712017D02*
X158814731Y-68634545D01*
X158814731Y-68634545D02*
X158246937Y-68601214D01*
X158246937Y-68601214D02*
X157679142Y-68567883D01*
X157679142Y-68567883D02*
X157324694Y-68552415D01*
X157324694Y-68552415D02*
X156970247Y-68536948D01*
X156970247Y-68536948D02*
X156762447Y-68495378D01*
X156762447Y-68495378D02*
X156632895Y-68381543D01*
X144988665Y-42598401D02*
X145140393Y-42859968D01*
X145140393Y-42859968D02*
X145292121Y-43121534D01*
X145292121Y-43121534D02*
X145443850Y-43383101D01*
X145443850Y-43383101D02*
X145595579Y-43644668D01*
X145595579Y-43644668D02*
X145791805Y-43931881D01*
X145791805Y-43931881D02*
X145988031Y-44219093D01*
X145988031Y-44219093D02*
X146184257Y-44506306D01*
X146184257Y-44506306D02*
X146380484Y-44793519D01*
X146380484Y-44793519D02*
X146590350Y-45063949D01*
X146590350Y-45063949D02*
X146800217Y-45334379D01*
X146800217Y-45334379D02*
X147010084Y-45604809D01*
X147010084Y-45604809D02*
X147219952Y-45875239D01*
X147219952Y-45875239D02*
X147412600Y-46086457D01*
X162197313Y-132718351D02*
X162222467Y-132791921D01*
X162222467Y-132791921D02*
X162247620Y-132865491D01*
X162247620Y-132865491D02*
X162250555Y-133030644D01*
X162250555Y-133030644D02*
X162203651Y-133148186D01*
X162203651Y-133148186D02*
X162085532Y-133249478D01*
X162085532Y-133249478D02*
X161956462Y-133291769D01*
X161956462Y-133291769D02*
X161387911Y-133278179D01*
X161387911Y-133278179D02*
X160819360Y-133264589D01*
X160819360Y-133264589D02*
X160069406Y-133260964D01*
X160069406Y-133260964D02*
X159319453Y-133257339D01*
X159319453Y-133257339D02*
X158766515Y-133250103D01*
X158766515Y-133250103D02*
X158213577Y-133242866D01*
X158213577Y-133242866D02*
X157660640Y-133235630D01*
X157660640Y-133235630D02*
X157107703Y-133228394D01*
X157107703Y-133228394D02*
X156929031Y-133222573D01*
X156929031Y-133222573D02*
X156750359Y-133216752D01*
X156750359Y-133216752D02*
X156571688Y-133210944D01*
X156571688Y-133210944D02*
X156393016Y-133205137D01*
X156393016Y-133205137D02*
X156339918Y-133202041D01*
X156339918Y-133202041D02*
X156286820Y-133198945D01*
X156286820Y-133198945D02*
X156233723Y-133195837D01*
X156233723Y-133195837D02*
X156180627Y-133192728D01*
X156180627Y-133192728D02*
X156158406Y-133190016D01*
X156158406Y-133190016D02*
X156136185Y-133187304D01*
X156136185Y-133187304D02*
X156113964Y-133184592D01*
X156113964Y-133184592D02*
X156091743Y-133181880D01*
X156091743Y-133181880D02*
X156005830Y-133161597D01*
X156005830Y-133161597D02*
X155919917Y-133141314D01*
X155919917Y-133141314D02*
X155834006Y-133121031D01*
X155834006Y-133121031D02*
X155748094Y-133100748D01*
X155748094Y-133100748D02*
X155609988Y-133075298D01*
X155609988Y-133075298D02*
X155471882Y-133049847D01*
X155471882Y-133049847D02*
X155333778Y-133024397D01*
X155333778Y-133024397D02*
X155195673Y-132998947D01*
X155195673Y-132998947D02*
X155133044Y-132983624D01*
X155133044Y-132983624D02*
X155070414Y-132968300D01*
X155070414Y-132968300D02*
X155007783Y-132952977D01*
X155007783Y-132952977D02*
X154945152Y-132937653D01*
X154945152Y-132937653D02*
X154896750Y-132915992D01*
X154896750Y-132915992D02*
X154848347Y-132894331D01*
X154848347Y-132894331D02*
X154799944Y-132872670D01*
X154799944Y-132872670D02*
X154751541Y-132851010D01*
X154751541Y-132851010D02*
X154717410Y-132824491D01*
X154717410Y-132824491D02*
X154683278Y-132797972D01*
X154683278Y-132797972D02*
X154649147Y-132771453D01*
X154649147Y-132771453D02*
X154615016Y-132744934D01*
X154615016Y-132744934D02*
X154595203Y-132715032D01*
X154595203Y-132715032D02*
X154575389Y-132685130D01*
X154575389Y-132685130D02*
X154555577Y-132655228D01*
X154555577Y-132655228D02*
X154535765Y-132625326D01*
X154535765Y-132625326D02*
X154529786Y-132592843D01*
X154529786Y-132592843D02*
X154523806Y-132560360D01*
X154523806Y-132560360D02*
X154517827Y-132527879D01*
X154517827Y-132527879D02*
X154511847Y-132495397D01*
X154511847Y-132495397D02*
X154519890Y-132459924D01*
X154519890Y-132459924D02*
X154527934Y-132424452D01*
X154527934Y-132424452D02*
X154535977Y-132388979D01*
X154535977Y-132388979D02*
X154544020Y-132353506D01*
X154544020Y-132353506D02*
X154567350Y-132315215D01*
X154567350Y-132315215D02*
X154590680Y-132276923D01*
X154590680Y-132276923D02*
X154614011Y-132238630D01*
X154614011Y-132238630D02*
X154637341Y-132200336D01*
X154637341Y-132200336D02*
X154677057Y-132160597D01*
X154677057Y-132160597D02*
X154716772Y-132120858D01*
X154716772Y-132120858D02*
X154756487Y-132081119D01*
X154756487Y-132081119D02*
X154796203Y-132041380D01*
X154796203Y-132041380D02*
X154855759Y-131976527D01*
X154855759Y-131976527D02*
X154915315Y-131911673D01*
X154915315Y-131911673D02*
X154974873Y-131846820D01*
X154974873Y-131846820D02*
X155034431Y-131781967D01*
X155034431Y-131781967D02*
X155041455Y-131750112D01*
X155041455Y-131750112D02*
X155048480Y-131718258D01*
X155048480Y-131718258D02*
X155055505Y-131686403D01*
X155055505Y-131686403D02*
X155062530Y-131654549D01*
X155062530Y-131654549D02*
X155050980Y-131624132D01*
X155050980Y-131624132D02*
X155039431Y-131593716D01*
X155039431Y-131593716D02*
X155027882Y-131563301D01*
X155027882Y-131563301D02*
X155016333Y-131532885D01*
X155016333Y-131532885D02*
X154987069Y-131505758D01*
X154987069Y-131505758D02*
X154957805Y-131478630D01*
X154957805Y-131478630D02*
X154928541Y-131451502D01*
X154928541Y-131451502D02*
X154899276Y-131424374D01*
X154899276Y-131424374D02*
X154853043Y-131398047D01*
X154853043Y-131398047D02*
X154806810Y-131371720D01*
X154806810Y-131371720D02*
X154760578Y-131345394D01*
X154760578Y-131345394D02*
X154714346Y-131319068D01*
X154714346Y-131319068D02*
X154566212Y-131260513D01*
X154566212Y-131260513D02*
X154418079Y-131201958D01*
X154418079Y-131201958D02*
X154269946Y-131143404D01*
X154269946Y-131143404D02*
X154121814Y-131084851D01*
X154121814Y-131084851D02*
X153894178Y-131004106D01*
X153894178Y-131004106D02*
X153666543Y-130923362D01*
X153666543Y-130923362D02*
X153546361Y-130880732D01*
X153546361Y-130880732D02*
X153426180Y-130838103D01*
X153426180Y-130838103D02*
X153261727Y-130708789D01*
X153261727Y-130708789D02*
X153217878Y-130504402D01*
X153217878Y-130504402D02*
X153227496Y-130129293D01*
X153227496Y-130129293D02*
X153237114Y-129754184D01*
X153237114Y-129754184D02*
X153250038Y-129250338D01*
X153250038Y-129250338D02*
X153262963Y-128746492D01*
X153262963Y-128746492D02*
X153275888Y-128243163D01*
X153275888Y-128243163D02*
X153288813Y-127739835D01*
X153288813Y-127739835D02*
X153298272Y-127371281D01*
X153298272Y-127371281D02*
X153307731Y-127002727D01*
X153307731Y-127002727D02*
X153403218Y-126770583D01*
X153403218Y-126770583D02*
X153625755Y-126652045D01*
X153625755Y-126652045D02*
X153781301Y-126611479D01*
X153781301Y-126611479D02*
X153936847Y-126570913D01*
X153936847Y-126570913D02*
X154461911Y-126441450D01*
X154461911Y-126441450D02*
X154986975Y-126311987D01*
X154986975Y-126311987D02*
X155512038Y-126182524D01*
X155512038Y-126182524D02*
X156037101Y-126053060D01*
X156037101Y-126053060D02*
X156531742Y-125943262D01*
X156531742Y-125943262D02*
X157026383Y-125833464D01*
X157026383Y-125833464D02*
X157521026Y-125723666D01*
X157521026Y-125723666D02*
X158015668Y-125613868D01*
X158015668Y-125613868D02*
X158388126Y-125542942D01*
X158388126Y-125542942D02*
X158760584Y-125472017D01*
X158760584Y-125472017D02*
X159133042Y-125401090D01*
X159133042Y-125401090D02*
X159505500Y-125330163D01*
X159505500Y-125330163D02*
X159616734Y-125315177D01*
X159616734Y-125315177D02*
X159727967Y-125300191D01*
X159727967Y-125300191D02*
X159897529Y-125296469D01*
X159897529Y-125296469D02*
X160018092Y-125327315D01*
X160018092Y-125327315D02*
X160151975Y-125442954D01*
X160151975Y-125442954D02*
X160207252Y-125544629D01*
X160207252Y-125544629D02*
X160263062Y-125723429D01*
X160263062Y-125723429D02*
X160318872Y-125902229D01*
X160318872Y-125902229D02*
X160374683Y-126081030D01*
X160374683Y-126081030D02*
X160430494Y-126259830D01*
X160430494Y-126259830D02*
X160590820Y-126813543D01*
X160590820Y-126813543D02*
X160751145Y-127367256D01*
X160751145Y-127367256D02*
X160911472Y-127920970D01*
X160911472Y-127920970D02*
X161071799Y-128474683D01*
X161071799Y-128474683D02*
X161241296Y-129092137D01*
X161241296Y-129092137D02*
X161410794Y-129709591D01*
X161410794Y-129709591D02*
X161580291Y-130327047D01*
X161580291Y-130327047D02*
X161749788Y-130944502D01*
X161749788Y-130944502D02*
X161861669Y-131387965D01*
X161861669Y-131387965D02*
X161973549Y-131831428D01*
X161973549Y-131831428D02*
X162085431Y-132274889D01*
X162085431Y-132274889D02*
X162197313Y-132718351D01*
X147412600Y-46086457D02*
X147605248Y-46297675D01*
X147605248Y-46297675D02*
X147797898Y-46508894D01*
X147797898Y-46508894D02*
X147990548Y-46720112D01*
X158110629Y-116427707D02*
X158205713Y-116801068D01*
X158205713Y-116801068D02*
X158300798Y-117174431D01*
X158300798Y-117174431D02*
X158395883Y-117547794D01*
X158395883Y-117547794D02*
X158458152Y-117784473D01*
X158458152Y-117784473D02*
X158520422Y-118021152D01*
X158520422Y-118021152D02*
X158551025Y-118263294D01*
X158551025Y-118263294D02*
X158525706Y-118450276D01*
X158525706Y-118450276D02*
X158405064Y-118609050D01*
X158405064Y-118609050D02*
X158183491Y-118662457D01*
X158183491Y-118662457D02*
X157998619Y-118631193D01*
X157998619Y-118631193D02*
X157813746Y-118599928D01*
X157813746Y-118599928D02*
X157628874Y-118568665D01*
X157628874Y-118568665D02*
X157444002Y-118537402D01*
X157444002Y-118537402D02*
X157086788Y-118463246D01*
X157086788Y-118463246D02*
X156729574Y-118389090D01*
X156729574Y-118389090D02*
X156372361Y-118314933D01*
X156372361Y-118314933D02*
X156015149Y-118240777D01*
X156015149Y-118240777D02*
X155203183Y-118053709D01*
X155203183Y-118053709D02*
X154391218Y-117866641D01*
X154391218Y-117866641D02*
X153579252Y-117679572D01*
X153579252Y-117679572D02*
X152767285Y-117492504D01*
X152767285Y-117492504D02*
X152696358Y-117468603D01*
X152696358Y-117468603D02*
X152625431Y-117444702D01*
X152625431Y-117444702D02*
X152554506Y-117420802D01*
X152554506Y-117420802D02*
X152483580Y-117396902D01*
X152483580Y-117396902D02*
X152463789Y-117379175D01*
X152463789Y-117379175D02*
X152443999Y-117361448D01*
X152443999Y-117361448D02*
X152424209Y-117343722D01*
X152424209Y-117343722D02*
X152404420Y-117325996D01*
X152404420Y-117325996D02*
X152390878Y-117296696D01*
X152390878Y-117296696D02*
X152377337Y-117267396D01*
X152377337Y-117267396D02*
X152363797Y-117238098D01*
X152363797Y-117238098D02*
X152350257Y-117208799D01*
X152350257Y-117208799D02*
X152336572Y-117091044D01*
X152336572Y-117091044D02*
X152322888Y-116973288D01*
X152322888Y-116973288D02*
X152309205Y-116855533D01*
X152309205Y-116855533D02*
X152295522Y-116737777D01*
X152295522Y-116737777D02*
X152293181Y-116511109D01*
X152293181Y-116511109D02*
X152290839Y-116284440D01*
X152290839Y-116284440D02*
X152288498Y-116057773D01*
X152288498Y-116057773D02*
X152286156Y-115831106D01*
X152286156Y-115831106D02*
X152297136Y-115547143D01*
X152297136Y-115547143D02*
X152308117Y-115263180D01*
X152308117Y-115263180D02*
X152319097Y-114979219D01*
X152319097Y-114979219D02*
X152330077Y-114695258D01*
X152330077Y-114695258D02*
X152341838Y-114604437D01*
X152341838Y-114604437D02*
X152353598Y-114513616D01*
X152353598Y-114513616D02*
X152420513Y-114269794D01*
X152420513Y-114269794D02*
X152497456Y-114194888D01*
X152497456Y-114194888D02*
X152633440Y-114144377D01*
X152633440Y-114144377D02*
X152763794Y-114119442D01*
X152763794Y-114119442D02*
X152894147Y-114094508D01*
X152894147Y-114094508D02*
X153024501Y-114069575D01*
X153024501Y-114069575D02*
X153154855Y-114044642D01*
X153154855Y-114044642D02*
X153556251Y-113979400D01*
X153556251Y-113979400D02*
X153957648Y-113914157D01*
X153957648Y-113914157D02*
X154359045Y-113848916D01*
X154359045Y-113848916D02*
X154760442Y-113783675D01*
X154760442Y-113783675D02*
X155307306Y-113702029D01*
X155307306Y-113702029D02*
X155854171Y-113620383D01*
X155854171Y-113620383D02*
X156195338Y-113569446D01*
X156195338Y-113569446D02*
X156536505Y-113518510D01*
X156536505Y-113518510D02*
X156613307Y-113507040D01*
X156613307Y-113507040D02*
X156690109Y-113495571D01*
X156690109Y-113495571D02*
X156758087Y-113485424D01*
X156758087Y-113485424D02*
X156826065Y-113475277D01*
X156826065Y-113475277D02*
X156963696Y-113472068D01*
X156963696Y-113472068D02*
X157097212Y-113505866D01*
X157097212Y-113505866D02*
X157158950Y-113553586D01*
X157158950Y-113553586D02*
X157206461Y-113615456D01*
X157206461Y-113615456D02*
X157242698Y-113730539D01*
X157242698Y-113730539D02*
X157280852Y-113845445D01*
X157280852Y-113845445D02*
X157306048Y-113913432D01*
X157306048Y-113913432D02*
X157331607Y-113981602D01*
X157331607Y-113981602D02*
X157364292Y-114047490D01*
X157364292Y-114047490D02*
X157396977Y-114113378D01*
X157396977Y-114113378D02*
X157443098Y-114240373D01*
X157443098Y-114240373D02*
X157489219Y-114367367D01*
X157489219Y-114367367D02*
X157535340Y-114494362D01*
X157535340Y-114494362D02*
X157581461Y-114621357D01*
X157581461Y-114621357D02*
X157689981Y-114979604D01*
X157689981Y-114979604D02*
X157798501Y-115337851D01*
X157798501Y-115337851D02*
X157907023Y-115696098D01*
X157907023Y-115696098D02*
X158015544Y-116054345D01*
X158015544Y-116054345D02*
X158110629Y-116427707D01*
X147990548Y-46720112D02*
X148096473Y-46814053D01*
X148096473Y-46814053D02*
X148202397Y-46907994D01*
X148202397Y-46907994D02*
X148308323Y-47001935D01*
X148308323Y-47001935D02*
X148414249Y-47095876D01*
X156178383Y-109226638D02*
X156236131Y-109423525D01*
X156236131Y-109423525D02*
X156293879Y-109620412D01*
X156293879Y-109620412D02*
X156351627Y-109817300D01*
X156351627Y-109817300D02*
X156409375Y-110014189D01*
X156409375Y-110014189D02*
X156440380Y-110202290D01*
X156440380Y-110202290D02*
X156471385Y-110390392D01*
X156471385Y-110390392D02*
X156502392Y-110578495D01*
X156502392Y-110578495D02*
X156533399Y-110766597D01*
X156533399Y-110766597D02*
X156533266Y-110830418D01*
X156533266Y-110830418D02*
X156533134Y-110894238D01*
X156533134Y-110894238D02*
X156533002Y-110958058D01*
X156533002Y-110958058D02*
X156532869Y-111021878D01*
X156532869Y-111021878D02*
X156523953Y-111047199D01*
X156523953Y-111047199D02*
X156515036Y-111072519D01*
X156515036Y-111072519D02*
X156506120Y-111097841D01*
X156506120Y-111097841D02*
X156497204Y-111123163D01*
X156497204Y-111123163D02*
X156482475Y-111128852D01*
X156482475Y-111128852D02*
X156467747Y-111134540D01*
X156467747Y-111134540D02*
X156453021Y-111140229D01*
X156453021Y-111140229D02*
X156438294Y-111145917D01*
X156438294Y-111145917D02*
X156406901Y-111154701D01*
X156406901Y-111154701D02*
X156375508Y-111163486D01*
X156375508Y-111163486D02*
X156344114Y-111172270D01*
X156344114Y-111172270D02*
X156312720Y-111181054D01*
X156312720Y-111181054D02*
X156211563Y-111203921D01*
X156211563Y-111203921D02*
X156110406Y-111226787D01*
X156110406Y-111226787D02*
X156009250Y-111249655D01*
X156009250Y-111249655D02*
X155908093Y-111272523D01*
X155908093Y-111272523D02*
X155607723Y-111327170D01*
X155607723Y-111327170D02*
X155307354Y-111381817D01*
X155307354Y-111381817D02*
X155006986Y-111436466D01*
X155006986Y-111436466D02*
X154706617Y-111491114D01*
X154706617Y-111491114D02*
X154391122Y-111537337D01*
X154391122Y-111537337D02*
X154075626Y-111583559D01*
X154075626Y-111583559D02*
X153760130Y-111629783D01*
X153760130Y-111629783D02*
X153444634Y-111676007D01*
X153444634Y-111676007D02*
X153239102Y-111692570D01*
X153239102Y-111692570D02*
X153033570Y-111709133D01*
X153033570Y-111709133D02*
X152828037Y-111725697D01*
X152828037Y-111725697D02*
X152622505Y-111742262D01*
X152622505Y-111742262D02*
X152508946Y-111729985D01*
X152508946Y-111729985D02*
X152395387Y-111717708D01*
X152395387Y-111717708D02*
X152281829Y-111705432D01*
X152281829Y-111705432D02*
X152168271Y-111693155D01*
X152168271Y-111693155D02*
X152140736Y-111678246D01*
X152140736Y-111678246D02*
X152113201Y-111663336D01*
X152113201Y-111663336D02*
X152085667Y-111648428D01*
X152085667Y-111648428D02*
X152058133Y-111633521D01*
X152058133Y-111633521D02*
X152044843Y-111613289D01*
X152044843Y-111613289D02*
X152031553Y-111593058D01*
X152031553Y-111593058D02*
X152018263Y-111572826D01*
X152018263Y-111572826D02*
X152004973Y-111552595D01*
X152004973Y-111552595D02*
X151970607Y-111383354D01*
X151970607Y-111383354D02*
X151936242Y-111214114D01*
X151936242Y-111214114D02*
X151901878Y-111044874D01*
X151901878Y-111044874D02*
X151867514Y-110875635D01*
X151867514Y-110875635D02*
X151834182Y-110617641D01*
X151834182Y-110617641D02*
X151800849Y-110359647D01*
X151800849Y-110359647D02*
X151767519Y-110101652D01*
X151767519Y-110101652D02*
X151734188Y-109843657D01*
X151734188Y-109843657D02*
X151713517Y-109601552D01*
X151713517Y-109601552D02*
X151692847Y-109359448D01*
X151692847Y-109359448D02*
X151672176Y-109117344D01*
X151672176Y-109117344D02*
X151651505Y-108875239D01*
X151651505Y-108875239D02*
X151668075Y-108714487D01*
X151668075Y-108714487D02*
X151759143Y-108518191D01*
X151759143Y-108518191D02*
X151889019Y-108398948D01*
X151889019Y-108398948D02*
X152081736Y-108343213D01*
X152081736Y-108343213D02*
X152200980Y-108336889D01*
X152200980Y-108336889D02*
X152320224Y-108330566D01*
X152320224Y-108330566D02*
X152320245Y-108330579D01*
X152320245Y-108330579D02*
X152320221Y-108330568D01*
X152320221Y-108330568D02*
X152672395Y-108345037D01*
X152672395Y-108345037D02*
X153024569Y-108359506D01*
X153024569Y-108359506D02*
X153376743Y-108373976D01*
X153376743Y-108373976D02*
X153728918Y-108388446D01*
X153728918Y-108388446D02*
X154088199Y-108428366D01*
X154088199Y-108428366D02*
X154447479Y-108468286D01*
X154447479Y-108468286D02*
X154806761Y-108508207D01*
X154806761Y-108508207D02*
X155166042Y-108548127D01*
X155166042Y-108548127D02*
X155294070Y-108573319D01*
X155294070Y-108573319D02*
X155422098Y-108598512D01*
X155422098Y-108598512D02*
X155550126Y-108623704D01*
X155550126Y-108623704D02*
X155678154Y-108648896D01*
X155678154Y-108648896D02*
X155740037Y-108673054D01*
X155740037Y-108673054D02*
X155801921Y-108697212D01*
X155801921Y-108697212D02*
X155863803Y-108721371D01*
X155863803Y-108721371D02*
X155925685Y-108745530D01*
X155925685Y-108745530D02*
X155955944Y-108790414D01*
X155955944Y-108790414D02*
X155986203Y-108835298D01*
X155986203Y-108835298D02*
X156016461Y-108880183D01*
X156016461Y-108880183D02*
X156046719Y-108925068D01*
X156046719Y-108925068D02*
X156079634Y-109000460D01*
X156079634Y-109000460D02*
X156112550Y-109075852D01*
X156112550Y-109075852D02*
X156145466Y-109151245D01*
X156145466Y-109151245D02*
X156178383Y-109226638D01*
X148414249Y-47095876D02*
X148463899Y-47126229D01*
X148463899Y-47126229D02*
X148513550Y-47156582D01*
X148513550Y-47156582D02*
X148563200Y-47186935D01*
X148563200Y-47186935D02*
X148612851Y-47217288D01*
X148612851Y-47217288D02*
X148669407Y-47238851D01*
X155103937Y-104668584D02*
X155119965Y-104729475D01*
X155119965Y-104729475D02*
X155135994Y-104790367D01*
X155135994Y-104790367D02*
X155152022Y-104851258D01*
X155152022Y-104851258D02*
X155168051Y-104912149D01*
X155168051Y-104912149D02*
X155185446Y-104975370D01*
X155185446Y-104975370D02*
X155202841Y-105038591D01*
X155202841Y-105038591D02*
X155209998Y-105107659D01*
X155209998Y-105107659D02*
X155217155Y-105176727D01*
X155217155Y-105176727D02*
X155221534Y-105288117D01*
X155221534Y-105288117D02*
X155225912Y-105399506D01*
X155225912Y-105399506D02*
X155104811Y-105633338D01*
X155104811Y-105633338D02*
X154998116Y-105721761D01*
X154998116Y-105721761D02*
X154879583Y-105762737D01*
X154879583Y-105762737D02*
X154730835Y-105758874D01*
X154730835Y-105758874D02*
X154582086Y-105755011D01*
X154582086Y-105755011D02*
X154277712Y-105748290D01*
X154277712Y-105748290D02*
X153973338Y-105741570D01*
X153973338Y-105741570D02*
X153661325Y-105729690D01*
X153661325Y-105729690D02*
X153349313Y-105717810D01*
X153349313Y-105717810D02*
X153037300Y-105705931D01*
X153037300Y-105705931D02*
X152725288Y-105694051D01*
X152725288Y-105694051D02*
X152624616Y-105682952D01*
X152624616Y-105682952D02*
X152523945Y-105671852D01*
X152523945Y-105671852D02*
X152423274Y-105660753D01*
X152423274Y-105660753D02*
X152322602Y-105649654D01*
X152322602Y-105649654D02*
X152251207Y-105632579D01*
X152251207Y-105632579D02*
X152179812Y-105615504D01*
X152179812Y-105615504D02*
X152108417Y-105598428D01*
X152108417Y-105598428D02*
X152037022Y-105581352D01*
X152037022Y-105581352D02*
X151988932Y-105556822D01*
X151988932Y-105556822D02*
X151940843Y-105532293D01*
X151940843Y-105532293D02*
X151892755Y-105507764D01*
X151892755Y-105507764D02*
X151844667Y-105483236D01*
X151844667Y-105483236D02*
X151812528Y-105448983D01*
X151812528Y-105448983D02*
X151780389Y-105414730D01*
X151780389Y-105414730D02*
X151748250Y-105380477D01*
X151748250Y-105380477D02*
X151716111Y-105346224D01*
X151716111Y-105346224D02*
X151692812Y-105298746D01*
X151692812Y-105298746D02*
X151669513Y-105251268D01*
X151669513Y-105251268D02*
X151646214Y-105203790D01*
X151646214Y-105203790D02*
X151622915Y-105156312D01*
X151622915Y-105156312D02*
X151602935Y-105092685D01*
X151602935Y-105092685D02*
X151582955Y-105029058D01*
X151582955Y-105029058D02*
X151562976Y-104965432D01*
X151562976Y-104965432D02*
X151542997Y-104901806D01*
X151542997Y-104901806D02*
X151507375Y-104704626D01*
X151507375Y-104704626D02*
X151471753Y-104507445D01*
X151471753Y-104507445D02*
X151436132Y-104310264D01*
X151436132Y-104310264D02*
X151400511Y-104113083D01*
X151400511Y-104113083D02*
X151390139Y-103900470D01*
X151390139Y-103900470D02*
X151379768Y-103687856D01*
X151379768Y-103687856D02*
X151369396Y-103475243D01*
X151369396Y-103475243D02*
X151359024Y-103262631D01*
X151359024Y-103262631D02*
X151373623Y-103081763D01*
X151373623Y-103081763D02*
X151388221Y-102900895D01*
X151388221Y-102900895D02*
X151402821Y-102720028D01*
X151402821Y-102720028D02*
X151417421Y-102539162D01*
X151417421Y-102539162D02*
X151433817Y-102475810D01*
X151433817Y-102475810D02*
X151450213Y-102412458D01*
X151450213Y-102412458D02*
X151466609Y-102349106D01*
X151466609Y-102349106D02*
X151483006Y-102285755D01*
X151483006Y-102285755D02*
X151502782Y-102249628D01*
X151502782Y-102249628D02*
X151522558Y-102213502D01*
X151522558Y-102213502D02*
X151542336Y-102177377D01*
X151542336Y-102177377D02*
X151562113Y-102141252D01*
X151562113Y-102141252D02*
X151598505Y-102113627D01*
X151598505Y-102113627D02*
X151634898Y-102086002D01*
X151634898Y-102086002D02*
X151671290Y-102058378D01*
X151671290Y-102058378D02*
X151707682Y-102030755D01*
X151707682Y-102030755D02*
X151749634Y-102013027D01*
X151749634Y-102013027D02*
X151791586Y-101995300D01*
X151791586Y-101995300D02*
X151833540Y-101977575D01*
X151833540Y-101977575D02*
X151875494Y-101959849D01*
X151875494Y-101959849D02*
X151964710Y-101953009D01*
X151964710Y-101953009D02*
X152053926Y-101946170D01*
X152053926Y-101946170D02*
X152143141Y-101939330D01*
X152143141Y-101939330D02*
X152232356Y-101932491D01*
X152232356Y-101932491D02*
X152232385Y-101932509D01*
X152232385Y-101932509D02*
X152273696Y-101942643D01*
X152273696Y-101942643D02*
X152315006Y-101952777D01*
X152315006Y-101952777D02*
X152356317Y-101962910D01*
X152356317Y-101962910D02*
X152397628Y-101973044D01*
X152397628Y-101973044D02*
X152432881Y-101991435D01*
X152432881Y-101991435D02*
X152468134Y-102009826D01*
X152468134Y-102009826D02*
X152503388Y-102028216D01*
X152503388Y-102028216D02*
X152538643Y-102046606D01*
X152538643Y-102046606D02*
X152565425Y-102072760D01*
X152565425Y-102072760D02*
X152592208Y-102098914D01*
X152592208Y-102098914D02*
X152618990Y-102125068D01*
X152618990Y-102125068D02*
X152645772Y-102151222D01*
X152645772Y-102151222D02*
X152661670Y-102184649D01*
X152661670Y-102184649D02*
X152677567Y-102218077D01*
X152677567Y-102218077D02*
X152693464Y-102251506D01*
X152693464Y-102251506D02*
X152709360Y-102284934D01*
X152709360Y-102284934D02*
X152729484Y-102329576D01*
X152729484Y-102329576D02*
X152749608Y-102374218D01*
X152749608Y-102374218D02*
X152769732Y-102418861D01*
X152769732Y-102418861D02*
X152789857Y-102463504D01*
X152789857Y-102463504D02*
X152824039Y-102505820D01*
X152824039Y-102505820D02*
X152858222Y-102548137D01*
X152858222Y-102548137D02*
X152892406Y-102590453D01*
X152892406Y-102590453D02*
X152926591Y-102632769D01*
X152926591Y-102632769D02*
X152970440Y-102668748D01*
X152970440Y-102668748D02*
X153014289Y-102704728D01*
X153014289Y-102704728D02*
X153058139Y-102740707D01*
X153058139Y-102740707D02*
X153101988Y-102776686D01*
X153101988Y-102776686D02*
X153151108Y-102802318D01*
X153151108Y-102802318D02*
X153200228Y-102827949D01*
X153200228Y-102827949D02*
X153249349Y-102853581D01*
X153249349Y-102853581D02*
X153298470Y-102879212D01*
X153298470Y-102879212D02*
X153342701Y-102902620D01*
X153342701Y-102902620D02*
X153386931Y-102926028D01*
X153386931Y-102926028D02*
X153431163Y-102949435D01*
X153431163Y-102949435D02*
X153475395Y-102972843D01*
X153475395Y-102972843D02*
X153515402Y-103005596D01*
X153515402Y-103005596D02*
X153555410Y-103038349D01*
X153555410Y-103038349D02*
X153595419Y-103071101D01*
X153595419Y-103071101D02*
X153635428Y-103103854D01*
X153635428Y-103103854D02*
X153666453Y-103140791D01*
X153666453Y-103140791D02*
X153697478Y-103177729D01*
X153697478Y-103177729D02*
X153728504Y-103214666D01*
X153728504Y-103214666D02*
X153759531Y-103251603D01*
X153759531Y-103251603D02*
X153776816Y-103287566D01*
X153776816Y-103287566D02*
X153794101Y-103323530D01*
X153794101Y-103323530D02*
X153811386Y-103359495D01*
X153811386Y-103359495D02*
X153828672Y-103395459D01*
X153828672Y-103395459D02*
X153844229Y-103434161D01*
X153844229Y-103434161D02*
X153859787Y-103472863D01*
X153859787Y-103472863D02*
X153875344Y-103511565D01*
X153875344Y-103511565D02*
X153890902Y-103550267D01*
X153890902Y-103550267D02*
X153914230Y-103582103D01*
X153914230Y-103582103D02*
X153937558Y-103613939D01*
X153937558Y-103613939D02*
X153960888Y-103645776D01*
X153960888Y-103645776D02*
X153984218Y-103677614D01*
X153984218Y-103677614D02*
X154012978Y-103699861D01*
X154012978Y-103699861D02*
X154041738Y-103722109D01*
X154041738Y-103722109D02*
X154070498Y-103744356D01*
X154070498Y-103744356D02*
X154099258Y-103766604D01*
X154099258Y-103766604D02*
X154131475Y-103775097D01*
X154131475Y-103775097D02*
X154163692Y-103783590D01*
X154163692Y-103783590D02*
X154195911Y-103792096D01*
X154195911Y-103792096D02*
X154228129Y-103800603D01*
X154228129Y-103800603D02*
X154270296Y-103808262D01*
X154270296Y-103808262D02*
X154312462Y-103815922D01*
X154312462Y-103815922D02*
X154354629Y-103823582D01*
X154354629Y-103823582D02*
X154396796Y-103831241D01*
X154396796Y-103831241D02*
X154439143Y-103852937D01*
X154439143Y-103852937D02*
X154481491Y-103874633D01*
X154481491Y-103874633D02*
X154523839Y-103896330D01*
X154523839Y-103896330D02*
X154566187Y-103918027D01*
X154566187Y-103918027D02*
X154644066Y-103995902D01*
X154644066Y-103995902D02*
X154721945Y-104073777D01*
X154721945Y-104073777D02*
X154799823Y-104151653D01*
X154799823Y-104151653D02*
X154877702Y-104229529D01*
X154877702Y-104229529D02*
X154934261Y-104339293D01*
X154934261Y-104339293D02*
X154990819Y-104449057D01*
X154990819Y-104449057D02*
X155047378Y-104558820D01*
X155047378Y-104558820D02*
X155103937Y-104668584D01*
X148669407Y-47238851D02*
X148725963Y-47260413D01*
X148725963Y-47260413D02*
X148782520Y-47281976D01*
X148782520Y-47281976D02*
X148839077Y-47303539D01*
X148839077Y-47303539D02*
X148999325Y-47328010D01*
X148999325Y-47328010D02*
X149159572Y-47352482D01*
X149159572Y-47352482D02*
X149319820Y-47376953D01*
X149319820Y-47376953D02*
X149480067Y-47401424D01*
X149480067Y-47401424D02*
X149750026Y-47415064D01*
X149750026Y-47415064D02*
X150019984Y-47428704D01*
X150019984Y-47428704D02*
X150289942Y-47442344D01*
X150289942Y-47442344D02*
X150559901Y-47455984D01*
X150559901Y-47455984D02*
X151015946Y-47474200D01*
X151015946Y-47474200D02*
X151471991Y-47492416D01*
X151471991Y-47492416D02*
X151928035Y-47510632D01*
X151928035Y-47510632D02*
X152384078Y-47528848D01*
X152384078Y-47528848D02*
X152384078Y-47726252D01*
X152384078Y-47726252D02*
X152384078Y-47923656D01*
X152384078Y-47923656D02*
X152384078Y-48121061D01*
X152384078Y-48121061D02*
X152384078Y-48318465D01*
X152384078Y-48318465D02*
X152369996Y-48490289D01*
X152369996Y-48490289D02*
X152355914Y-48662112D01*
X152355914Y-48662112D02*
X152341832Y-48833936D01*
X152341832Y-48833936D02*
X152327751Y-49005760D01*
X152327751Y-49005760D02*
X152294678Y-49127329D01*
X152294678Y-49127329D02*
X152261605Y-49248897D01*
X152261605Y-49248897D02*
X152228533Y-49370466D01*
X152228533Y-49370466D02*
X152195460Y-49492035D01*
X152195460Y-49492035D02*
X152176363Y-49539382D01*
X152176363Y-49539382D02*
X152157267Y-49586729D01*
X152157267Y-49586729D02*
X152138171Y-49634076D01*
X152138171Y-49634076D02*
X152119074Y-49681424D01*
X152119074Y-49681424D02*
X152112341Y-49728755D01*
X152112341Y-49728755D02*
X152105607Y-49776085D01*
X152105607Y-49776085D02*
X152098873Y-49823416D01*
X152098873Y-49823416D02*
X152092140Y-49870747D01*
X145711959Y-123951176D02*
X145735715Y-124020066D01*
X145735715Y-124020066D02*
X145759470Y-124088955D01*
X145759470Y-124088955D02*
X145812465Y-124286810D01*
X145812465Y-124286810D02*
X145804310Y-124447638D01*
X145804310Y-124447638D02*
X145713342Y-124591197D01*
X145713342Y-124591197D02*
X145537207Y-124668948D01*
X145537207Y-124668948D02*
X144704756Y-124667493D01*
X144704756Y-124667493D02*
X143872306Y-124666038D01*
X143872306Y-124666038D02*
X142876244Y-124666038D01*
X142876244Y-124666038D02*
X141880181Y-124666038D01*
X141880181Y-124666038D02*
X140880371Y-124666038D01*
X140880371Y-124666038D02*
X139880561Y-124666038D01*
X139880561Y-124666038D02*
X139153971Y-124666038D01*
X139153971Y-124666038D02*
X138427382Y-124666038D01*
X138427382Y-124666038D02*
X138296087Y-124663950D01*
X138296087Y-124663950D02*
X138165751Y-124649951D01*
X138165751Y-124649951D02*
X137994765Y-124540425D01*
X137994765Y-124540425D02*
X137885867Y-124368824D01*
X137885867Y-124368824D02*
X137878128Y-124250314D01*
X137878128Y-124250314D02*
X137870389Y-124131804D01*
X137870389Y-124131804D02*
X137882639Y-123977238D01*
X137882639Y-123977238D02*
X137894890Y-123822671D01*
X137894890Y-123822671D02*
X137913514Y-123543117D01*
X137913514Y-123543117D02*
X137932138Y-123263564D01*
X137932138Y-123263564D02*
X137950762Y-122984012D01*
X137950762Y-122984012D02*
X137969386Y-122704459D01*
X137969386Y-122704459D02*
X138009155Y-122342191D01*
X138009155Y-122342191D02*
X138048925Y-121979922D01*
X138048925Y-121979922D02*
X138088696Y-121617654D01*
X138088696Y-121617654D02*
X138128466Y-121255387D01*
X138128466Y-121255387D02*
X138182080Y-120843656D01*
X138182080Y-120843656D02*
X138235694Y-120431924D01*
X138235694Y-120431924D02*
X138266337Y-120188547D01*
X138266337Y-120188547D02*
X138296979Y-119945170D01*
X138296979Y-119945170D02*
X138343452Y-119807564D01*
X138343452Y-119807564D02*
X138433354Y-119708960D01*
X138433354Y-119708960D02*
X138576146Y-119628368D01*
X138576146Y-119628368D02*
X138687473Y-119594343D01*
X138687473Y-119594343D02*
X139347706Y-119567294D01*
X139347706Y-119567294D02*
X140007939Y-119540244D01*
X140007939Y-119540244D02*
X140840447Y-119506138D01*
X140840447Y-119506138D02*
X141672954Y-119472032D01*
X141672954Y-119472032D02*
X142282606Y-119453171D01*
X142282606Y-119453171D02*
X142892257Y-119434310D01*
X142892257Y-119434310D02*
X143501910Y-119415448D01*
X143501910Y-119415448D02*
X144111563Y-119396586D01*
X144111563Y-119396586D02*
X144308580Y-119395170D01*
X144308580Y-119395170D02*
X144505597Y-119393755D01*
X144505597Y-119393755D02*
X144702613Y-119392326D01*
X144702613Y-119392326D02*
X144899630Y-119390897D01*
X144899630Y-119390897D02*
X144899646Y-119390900D01*
X144899646Y-119390900D02*
X144899654Y-119390630D01*
X144899654Y-119390630D02*
X144958177Y-119392046D01*
X144958177Y-119392046D02*
X145016700Y-119393461D01*
X145016700Y-119393461D02*
X145160958Y-119445996D01*
X145160958Y-119445996D02*
X145249941Y-119531115D01*
X145249941Y-119531115D02*
X145339918Y-119792937D01*
X145339918Y-119792937D02*
X145361364Y-119908176D01*
X145361364Y-119908176D02*
X145382809Y-120023415D01*
X145382809Y-120023415D02*
X145416398Y-120431660D01*
X145416398Y-120431660D02*
X145449987Y-120839904D01*
X145449987Y-120839904D02*
X145483577Y-121248147D01*
X145483577Y-121248147D02*
X145517167Y-121656389D01*
X145517167Y-121656389D02*
X145545590Y-122078715D01*
X145545590Y-122078715D02*
X145574013Y-122501040D01*
X145574013Y-122501040D02*
X145602435Y-122923366D01*
X145602435Y-122923366D02*
X145630856Y-123345693D01*
X145630856Y-123345693D02*
X145646747Y-123498526D01*
X145646747Y-123498526D02*
X145662638Y-123651358D01*
X145662638Y-123651358D02*
X145687298Y-123801267D01*
X145687298Y-123801267D02*
X145711959Y-123951176D01*
X145592187Y-127225538D02*
X145641797Y-127514280D01*
X145641797Y-127514280D02*
X145691406Y-127803022D01*
X145691406Y-127803022D02*
X145741016Y-128091765D01*
X145741016Y-128091765D02*
X145790625Y-128380507D01*
X145790625Y-128380507D02*
X145831600Y-128708378D01*
X145831600Y-128708378D02*
X145872574Y-129036248D01*
X145872574Y-129036248D02*
X145913549Y-129364120D01*
X145913549Y-129364120D02*
X145954524Y-129691991D01*
X145954524Y-129691991D02*
X145971685Y-129955040D01*
X145971685Y-129955040D02*
X145988845Y-130218089D01*
X145988845Y-130218089D02*
X146006006Y-130481138D01*
X146006006Y-130481138D02*
X146023167Y-130744186D01*
X146023167Y-130744186D02*
X146024225Y-130804940D01*
X146024225Y-130804940D02*
X146025284Y-130865694D01*
X146025284Y-130865694D02*
X146009497Y-130988681D01*
X146009497Y-130988681D02*
X145936822Y-131109646D01*
X145936822Y-131109646D02*
X145836841Y-131182734D01*
X145836841Y-131182734D02*
X145698886Y-131216510D01*
X145698886Y-131216510D02*
X144796572Y-131215452D01*
X144796572Y-131215452D02*
X143894258Y-131214393D01*
X143894258Y-131214393D02*
X142829595Y-131214393D01*
X142829595Y-131214393D02*
X141764931Y-131214393D01*
X141764931Y-131214393D02*
X140700526Y-131214393D01*
X140700526Y-131214393D02*
X139636120Y-131214393D01*
X139636120Y-131214393D02*
X138748361Y-131214393D01*
X138748361Y-131214393D02*
X137860602Y-131214393D01*
X137860602Y-131214393D02*
X137738353Y-131184953D01*
X137738353Y-131184953D02*
X137616668Y-131093627D01*
X137616668Y-131093627D02*
X137546057Y-130983101D01*
X137546057Y-130983101D02*
X137514032Y-130839479D01*
X137514032Y-130839479D02*
X137517393Y-130652023D01*
X137517393Y-130652023D02*
X137520753Y-130464567D01*
X137520753Y-130464567D02*
X137539290Y-130208453D01*
X137539290Y-130208453D02*
X137557826Y-129952339D01*
X137557826Y-129952339D02*
X137576363Y-129696226D01*
X137576363Y-129696226D02*
X137594900Y-129440113D01*
X137594900Y-129440113D02*
X137634628Y-129101173D01*
X137634628Y-129101173D02*
X137674357Y-128762232D01*
X137674357Y-128762232D02*
X137714085Y-128423292D01*
X137714085Y-128423292D02*
X137753814Y-128084351D01*
X137753814Y-128084351D02*
X137807428Y-127696262D01*
X137807428Y-127696262D02*
X137861041Y-127308172D01*
X137861041Y-127308172D02*
X137874276Y-127087600D01*
X137874276Y-127087600D02*
X137887510Y-126867027D01*
X137887510Y-126867027D02*
X137922498Y-126703127D01*
X137922498Y-126703127D02*
X137996910Y-126589456D01*
X137996910Y-126589456D02*
X138115252Y-126517041D01*
X138115252Y-126517041D02*
X138276064Y-126482204D01*
X138276064Y-126482204D02*
X139029861Y-126494573D01*
X139029861Y-126494573D02*
X139783657Y-126506943D01*
X139783657Y-126506943D02*
X140691349Y-126494415D01*
X140691349Y-126494415D02*
X141599040Y-126481886D01*
X141599040Y-126481886D02*
X141599149Y-126481908D01*
X141599149Y-126481908D02*
X142038964Y-126478825D01*
X142038964Y-126478825D02*
X142478780Y-126475743D01*
X142478780Y-126475743D02*
X142918597Y-126472660D01*
X142918597Y-126472660D02*
X143358414Y-126469578D01*
X143358414Y-126469578D02*
X143648527Y-126475505D01*
X143648527Y-126475505D02*
X143938639Y-126481431D01*
X143938639Y-126481431D02*
X144228754Y-126487358D01*
X144228754Y-126487358D02*
X144518868Y-126493285D01*
X144518868Y-126493285D02*
X144684103Y-126509304D01*
X144684103Y-126509304D02*
X144849338Y-126525323D01*
X144849338Y-126525323D02*
X145014573Y-126541342D01*
X145014573Y-126541342D02*
X145179808Y-126557362D01*
X145179808Y-126557362D02*
X145241820Y-126581133D01*
X145241820Y-126581133D02*
X145303831Y-126604905D01*
X145303831Y-126604905D02*
X145365843Y-126628676D01*
X145365843Y-126628676D02*
X145427855Y-126652447D01*
X145427855Y-126652447D02*
X145445684Y-126698439D01*
X145445684Y-126698439D02*
X145463513Y-126744430D01*
X145463513Y-126744430D02*
X145481342Y-126790422D01*
X145481342Y-126790422D02*
X145499170Y-126836415D01*
X145499170Y-126836415D02*
X145522425Y-126933696D01*
X145522425Y-126933696D02*
X145545679Y-127030976D01*
X145545679Y-127030976D02*
X145568933Y-127128257D01*
X145568933Y-127128257D02*
X145592187Y-127225538D01*
X152092140Y-49870747D02*
X152097815Y-49917635D01*
X152097815Y-49917635D02*
X152103490Y-49964524D01*
X152103490Y-49964524D02*
X152109153Y-50011412D01*
X152109153Y-50011412D02*
X152114815Y-50058300D01*
X152114815Y-50058300D02*
X152132912Y-50104319D01*
X152132912Y-50104319D02*
X152151010Y-50150339D01*
X152151010Y-50150339D02*
X152169108Y-50196358D01*
X152169108Y-50196358D02*
X152187207Y-50242377D01*
X152187207Y-50242377D02*
X152249607Y-50313432D01*
X152249607Y-50313432D02*
X152312006Y-50384488D01*
X152312006Y-50384488D02*
X152374405Y-50455543D01*
X145361018Y-116402640D02*
X145403234Y-116601095D01*
X145403234Y-116601095D02*
X145373930Y-116801322D01*
X145373930Y-116801322D02*
X145265857Y-116944753D01*
X145265857Y-116944753D02*
X145097477Y-117003636D01*
X145097477Y-117003636D02*
X144379189Y-116999551D01*
X144379189Y-116999551D02*
X143660615Y-116995381D01*
X143660615Y-116995381D02*
X142761326Y-116995381D01*
X142761326Y-116995381D02*
X141862036Y-116995381D01*
X141862036Y-116995381D02*
X140960154Y-116995381D01*
X140960154Y-116995381D02*
X140058271Y-116995381D01*
X140058271Y-116995381D02*
X139322736Y-117036453D01*
X139322736Y-117036453D02*
X138587280Y-117058426D01*
X138587280Y-117058426D02*
X138458075Y-117026602D01*
X138458075Y-117026602D02*
X138347368Y-116959473D01*
X138347368Y-116959473D02*
X138265017Y-116855307D01*
X138265017Y-116855307D02*
X138242105Y-116729507D01*
X138242105Y-116729507D02*
X138244169Y-116600702D01*
X138244169Y-116600702D02*
X138246232Y-116471898D01*
X138246232Y-116471898D02*
X138265696Y-116309651D01*
X138265696Y-116309651D02*
X138285161Y-116147405D01*
X138285161Y-116147405D02*
X138300492Y-115987225D01*
X138300492Y-115987225D02*
X138315823Y-115827045D01*
X138315823Y-115827045D02*
X138352557Y-115639184D01*
X138352557Y-115639184D02*
X138389290Y-115451323D01*
X138389290Y-115451323D02*
X138426023Y-115263462D01*
X138426023Y-115263462D02*
X138462757Y-115075601D01*
X138462757Y-115075601D02*
X138512883Y-114876131D01*
X138512883Y-114876131D02*
X138563010Y-114676660D01*
X138563010Y-114676660D02*
X138606743Y-114527083D01*
X138606743Y-114527083D02*
X138709101Y-114387277D01*
X138709101Y-114387277D02*
X139020792Y-114277719D01*
X139020792Y-114277719D02*
X139020805Y-114277705D01*
X139020805Y-114277705D02*
X139618331Y-114277705D01*
X139618331Y-114277705D02*
X140215857Y-114277705D01*
X140215857Y-114277705D02*
X140992165Y-114277705D01*
X140992165Y-114277705D02*
X141768474Y-114277705D01*
X141768474Y-114277705D02*
X142544395Y-114277705D01*
X142544395Y-114277705D02*
X143320316Y-114277705D01*
X143320316Y-114277705D02*
X143913312Y-114277705D01*
X143913312Y-114277705D02*
X144506308Y-114277705D01*
X144506308Y-114277705D02*
X144782862Y-114353246D01*
X144782862Y-114353246D02*
X144880673Y-114465736D01*
X144880673Y-114465736D02*
X144934026Y-114593388D01*
X144934026Y-114593388D02*
X144955285Y-114672353D01*
X144955285Y-114672353D02*
X144976544Y-114751318D01*
X144976544Y-114751318D02*
X145028739Y-114988125D01*
X145028739Y-114988125D02*
X145080933Y-115224932D01*
X145080933Y-115224932D02*
X145156638Y-115575686D01*
X145156638Y-115575686D02*
X145232343Y-115926441D01*
X145232343Y-115926441D02*
X145296681Y-116164540D01*
X145296681Y-116164540D02*
X145361018Y-116402640D01*
X152374405Y-50455543D02*
X152436805Y-50526598D01*
X152436805Y-50526598D02*
X152563670Y-50640803D01*
X152563670Y-50640803D02*
X152690535Y-50755007D01*
X144900535Y-111503798D02*
X144897666Y-111697601D01*
X144897666Y-111697601D02*
X144887385Y-111891246D01*
X144887385Y-111891246D02*
X144802453Y-112024147D01*
X144802453Y-112024147D02*
X144709567Y-112102550D01*
X144709567Y-112102550D02*
X144437347Y-112163044D01*
X144437347Y-112163044D02*
X143863825Y-112146967D01*
X143863825Y-112146967D02*
X143290302Y-112130890D01*
X143290302Y-112130890D02*
X142485184Y-112130890D01*
X142485184Y-112130890D02*
X141680066Y-112130890D01*
X141680066Y-112130890D02*
X140876240Y-112130890D01*
X140876240Y-112130890D02*
X140072413Y-112130890D01*
X140072413Y-112130890D02*
X139430279Y-112151018D01*
X139430279Y-112151018D02*
X138788411Y-112173278D01*
X138788411Y-112173278D02*
X138686828Y-112144651D01*
X138686828Y-112144651D02*
X138594535Y-112094713D01*
X138594535Y-112094713D02*
X138529443Y-112012250D01*
X138529443Y-112012250D02*
X138490805Y-111914230D01*
X138490805Y-111914230D02*
X138474811Y-111759184D01*
X138474811Y-111759184D02*
X138498240Y-111604580D01*
X138498240Y-111604580D02*
X138541571Y-111402931D01*
X138541571Y-111402931D02*
X138569693Y-111198130D01*
X138569693Y-111198130D02*
X138600699Y-111010803D01*
X138600699Y-111010803D02*
X138631704Y-110823475D01*
X138631704Y-110823475D02*
X138662710Y-110636149D01*
X138662710Y-110636149D02*
X138693717Y-110448822D01*
X138693717Y-110448822D02*
X138712191Y-110380738D01*
X138712191Y-110380738D02*
X138730666Y-110312654D01*
X138730666Y-110312654D02*
X138749140Y-110244571D01*
X138749140Y-110244571D02*
X138767615Y-110176487D01*
X138767615Y-110176487D02*
X138783634Y-110140571D01*
X138783634Y-110140571D02*
X138799653Y-110104655D01*
X138799653Y-110104655D02*
X138815674Y-110068740D01*
X138815674Y-110068740D02*
X138831694Y-110032826D01*
X138831694Y-110032826D02*
X138849780Y-110024809D01*
X138849780Y-110024809D02*
X138867866Y-110016792D01*
X138867866Y-110016792D02*
X138885953Y-110008788D01*
X138885953Y-110008788D02*
X138904039Y-110000785D01*
X138904039Y-110000785D02*
X138953391Y-109987992D01*
X138953391Y-109987992D02*
X139002742Y-109975200D01*
X139002742Y-109975200D02*
X139052094Y-109962407D01*
X139052094Y-109962407D02*
X139101445Y-109949614D01*
X139101445Y-109949614D02*
X139267713Y-109921451D01*
X139267713Y-109921451D02*
X139433981Y-109893287D01*
X139433981Y-109893287D02*
X139600251Y-109865124D01*
X139600251Y-109865124D02*
X139766520Y-109836960D01*
X139766520Y-109836960D02*
X140256671Y-109781149D01*
X140256671Y-109781149D02*
X140746823Y-109725338D01*
X140746823Y-109725338D02*
X141236974Y-109669528D01*
X141236974Y-109669528D02*
X141727125Y-109613718D01*
X141727125Y-109613718D02*
X142223219Y-109577802D01*
X142223219Y-109577802D02*
X142719313Y-109541886D01*
X142719313Y-109541886D02*
X143215406Y-109505972D01*
X143215406Y-109505972D02*
X143711500Y-109470057D01*
X143711500Y-109470057D02*
X143884874Y-109466697D01*
X143884874Y-109466697D02*
X144058247Y-109463337D01*
X144058247Y-109463337D02*
X144231622Y-109459976D01*
X144231622Y-109459976D02*
X144404997Y-109456616D01*
X144404997Y-109456616D02*
X144404997Y-109456608D01*
X144404997Y-109456608D02*
X144404957Y-109456595D01*
X144404957Y-109456595D02*
X144459088Y-109459704D01*
X144459088Y-109459704D02*
X144513219Y-109462813D01*
X144513219Y-109462813D02*
X144641912Y-109496876D01*
X144641912Y-109496876D02*
X144724039Y-109554714D01*
X144724039Y-109554714D02*
X144781514Y-109653339D01*
X144781514Y-109653339D02*
X144811135Y-109769018D01*
X144811135Y-109769018D02*
X144826896Y-109845887D01*
X144826896Y-109845887D02*
X144842657Y-109922757D01*
X144842657Y-109922757D02*
X144857126Y-110161243D01*
X144857126Y-110161243D02*
X144871595Y-110399729D01*
X144871595Y-110399729D02*
X144886065Y-110638216D01*
X144886065Y-110638216D02*
X144900535Y-110876704D01*
X144900535Y-110876704D02*
X144900535Y-111190251D01*
X144900535Y-111190251D02*
X144900535Y-111503798D01*
X152690535Y-50755007D02*
X152817401Y-50869212D01*
X152817401Y-50869212D02*
X152944267Y-50983417D01*
X152944267Y-50983417D02*
X153338171Y-51302907D01*
X144474500Y-102120824D02*
X144485467Y-102226811D01*
X144485467Y-102226811D02*
X144496434Y-102332798D01*
X144496434Y-102332798D02*
X144503922Y-102645165D01*
X144503922Y-102645165D02*
X144511409Y-102957532D01*
X144511409Y-102957532D02*
X144518884Y-103269900D01*
X144518884Y-103269900D02*
X144526358Y-103582268D01*
X144526358Y-103582268D02*
X144526358Y-104071902D01*
X144526358Y-104071902D02*
X144526358Y-104561536D01*
X144526358Y-104561536D02*
X144522032Y-104829702D01*
X144522032Y-104829702D02*
X144517707Y-105097868D01*
X144517707Y-105097868D02*
X144507098Y-105262868D01*
X144507098Y-105262868D02*
X144445053Y-105418653D01*
X144445053Y-105418653D02*
X144335013Y-105521367D01*
X144335013Y-105521367D02*
X144160442Y-105570408D01*
X144160442Y-105570408D02*
X144029082Y-105583029D01*
X144029082Y-105583029D02*
X143897722Y-105595650D01*
X143897722Y-105595650D02*
X143755876Y-105608495D01*
X143755876Y-105608495D02*
X143614030Y-105621341D01*
X143614030Y-105621341D02*
X143400120Y-105647744D01*
X143400120Y-105647744D02*
X143186209Y-105674146D01*
X143186209Y-105674146D02*
X142960605Y-105709320D01*
X142960605Y-105709320D02*
X142735000Y-105744494D01*
X142735000Y-105744494D02*
X142514465Y-105782274D01*
X142514465Y-105782274D02*
X142293931Y-105820053D01*
X142293931Y-105820053D02*
X142073397Y-105857832D01*
X142073397Y-105857832D02*
X141852863Y-105895610D01*
X141852863Y-105895610D02*
X141645836Y-105919203D01*
X141645836Y-105919203D02*
X141438809Y-105942796D01*
X141438809Y-105942796D02*
X141231783Y-105966388D01*
X141231783Y-105966388D02*
X141024757Y-105989979D01*
X141024757Y-105989979D02*
X140928946Y-105991170D01*
X140928946Y-105991170D02*
X140833135Y-105992361D01*
X140833135Y-105992361D02*
X140737325Y-105993551D01*
X140737325Y-105993551D02*
X140641516Y-105994742D01*
X140641516Y-105994742D02*
X140552245Y-105986130D01*
X140552245Y-105986130D02*
X140462975Y-105977518D01*
X140462975Y-105977518D02*
X140373706Y-105968905D01*
X140373706Y-105968905D02*
X140284437Y-105960293D01*
X140284437Y-105960293D02*
X140202764Y-105939734D01*
X140202764Y-105939734D02*
X140121091Y-105919174D01*
X140121091Y-105919174D02*
X140039418Y-105898616D01*
X140039418Y-105898616D02*
X139957745Y-105878058D01*
X139957745Y-105878058D02*
X139884723Y-105843456D01*
X139884723Y-105843456D02*
X139811701Y-105808854D01*
X139811701Y-105808854D02*
X139738679Y-105774253D01*
X139738679Y-105774253D02*
X139665658Y-105739652D01*
X139665658Y-105739652D02*
X139602342Y-105688909D01*
X139602342Y-105688909D02*
X139539026Y-105638166D01*
X139539026Y-105638166D02*
X139475710Y-105587422D01*
X139475710Y-105587422D02*
X139412394Y-105536679D01*
X139412394Y-105536679D02*
X139359838Y-105467696D01*
X139359838Y-105467696D02*
X139307283Y-105398712D01*
X139307283Y-105398712D02*
X139254727Y-105329729D01*
X139254727Y-105329729D02*
X139202172Y-105260745D01*
X139202172Y-105260745D02*
X139161433Y-105171422D01*
X139161433Y-105171422D02*
X139120694Y-105082099D01*
X139120694Y-105082099D02*
X139079953Y-104992775D01*
X139079953Y-104992775D02*
X139039212Y-104903452D01*
X139039212Y-104903452D02*
X139011343Y-104791689D01*
X139011343Y-104791689D02*
X138983473Y-104679927D01*
X138983473Y-104679927D02*
X138955603Y-104568165D01*
X138955603Y-104568165D02*
X138927733Y-104456404D01*
X138927733Y-104456404D02*
X138914450Y-104206930D01*
X138914450Y-104206930D02*
X138901166Y-103957456D01*
X138901166Y-103957456D02*
X138887884Y-103707983D01*
X138887884Y-103707983D02*
X138874602Y-103458510D01*
X138874602Y-103458510D02*
X138886984Y-103206334D01*
X138886984Y-103206334D02*
X138899367Y-102954158D01*
X138899367Y-102954158D02*
X138911749Y-102701983D01*
X138911749Y-102701983D02*
X138924132Y-102449807D01*
X138924132Y-102449807D02*
X138944784Y-102298538D01*
X138944784Y-102298538D02*
X138965436Y-102147269D01*
X138965436Y-102147269D02*
X138986088Y-101996000D01*
X138986088Y-101996000D02*
X139006740Y-101844731D01*
X139006740Y-101844731D02*
X139031951Y-101761648D01*
X139031951Y-101761648D02*
X139057162Y-101678565D01*
X139057162Y-101678565D02*
X139082373Y-101595481D01*
X139082373Y-101595481D02*
X139107583Y-101512396D01*
X139107583Y-101512396D02*
X139147890Y-101473509D01*
X139147890Y-101473509D02*
X139188197Y-101434622D01*
X139188197Y-101434622D02*
X139228505Y-101395736D01*
X139228505Y-101395736D02*
X139268813Y-101356850D01*
X139268813Y-101356850D02*
X139342451Y-101334242D01*
X139342451Y-101334242D02*
X139416090Y-101311633D01*
X139416090Y-101311633D02*
X139489729Y-101289024D01*
X139489729Y-101289024D02*
X139563368Y-101266416D01*
X139563368Y-101266416D02*
X139626236Y-101245241D01*
X139626236Y-101245241D02*
X139689103Y-101224066D01*
X139689103Y-101224066D02*
X139751970Y-101202892D01*
X139751970Y-101202892D02*
X139814836Y-101181717D01*
X139814836Y-101181717D02*
X139868766Y-101148562D01*
X139868766Y-101148562D02*
X139922696Y-101115407D01*
X139922696Y-101115407D02*
X139976626Y-101082251D01*
X139976626Y-101082251D02*
X140030556Y-101049095D01*
X140030556Y-101049095D02*
X140073146Y-101005671D01*
X140073146Y-101005671D02*
X140115736Y-100962248D01*
X140115736Y-100962248D02*
X140158326Y-100918823D01*
X140158326Y-100918823D02*
X140200916Y-100875399D01*
X140200916Y-100875399D02*
X140229761Y-100823420D01*
X140229761Y-100823420D02*
X140258606Y-100771441D01*
X140258606Y-100771441D02*
X140287450Y-100719464D01*
X140287450Y-100719464D02*
X140316295Y-100667486D01*
X140316295Y-100667486D02*
X140358023Y-100590876D01*
X140358023Y-100590876D02*
X140399750Y-100514266D01*
X140399750Y-100514266D02*
X140441479Y-100437656D01*
X140441479Y-100437656D02*
X140483208Y-100361046D01*
X140483208Y-100361046D02*
X140504524Y-100338954D01*
X140504524Y-100338954D02*
X140525840Y-100316863D01*
X140525840Y-100316863D02*
X140547157Y-100294772D01*
X140547157Y-100294772D02*
X140568475Y-100272680D01*
X140568475Y-100272680D02*
X140582556Y-100266092D01*
X140582556Y-100266092D02*
X140596637Y-100259504D01*
X140596637Y-100259504D02*
X140610720Y-100252916D01*
X140610720Y-100252916D02*
X140624802Y-100246328D01*
X140624802Y-100246328D02*
X140650508Y-100235784D01*
X140650508Y-100235784D02*
X140676213Y-100225241D01*
X140676213Y-100225241D02*
X140701919Y-100214710D01*
X140701919Y-100214710D02*
X140727624Y-100204180D01*
X140727624Y-100204180D02*
X140747522Y-100178155D01*
X140747522Y-100178155D02*
X140767420Y-100152131D01*
X140767420Y-100152131D02*
X140787320Y-100126106D01*
X140787320Y-100126106D02*
X140807219Y-100100082D01*
X140807219Y-100100082D02*
X140832153Y-100021792D01*
X140832153Y-100021792D02*
X140857088Y-99943502D01*
X140857088Y-99943502D02*
X140882022Y-99865213D01*
X140882022Y-99865213D02*
X140906956Y-99786924D01*
X140906956Y-99786924D02*
X140920724Y-99736964D01*
X140920724Y-99736964D02*
X140934492Y-99687004D01*
X140934492Y-99687004D02*
X140948259Y-99637045D01*
X140948259Y-99637045D02*
X140962027Y-99587087D01*
X140962027Y-99587087D02*
X140992184Y-99557076D01*
X140992184Y-99557076D02*
X141022341Y-99527066D01*
X141022341Y-99527066D02*
X141052498Y-99497056D01*
X141052498Y-99497056D02*
X141082656Y-99467045D01*
X141082656Y-99467045D02*
X141141629Y-99448323D01*
X141141629Y-99448323D02*
X141200602Y-99429601D01*
X141200602Y-99429601D02*
X141259576Y-99410881D01*
X141259576Y-99410881D02*
X141318550Y-99392160D01*
X141318550Y-99392160D02*
X141417705Y-99380783D01*
X141417705Y-99380783D02*
X141516861Y-99369406D01*
X141516861Y-99369406D02*
X141616017Y-99358029D01*
X141616017Y-99358029D02*
X141715174Y-99346652D01*
X141715174Y-99346652D02*
X141715182Y-99346639D01*
X141715182Y-99346639D02*
X141715153Y-99346848D01*
X141715153Y-99346848D02*
X141820580Y-99342985D01*
X141820580Y-99342985D02*
X141926007Y-99339122D01*
X141926007Y-99339122D02*
X142031436Y-99335259D01*
X142031436Y-99335259D02*
X142136864Y-99331396D01*
X142136864Y-99331396D02*
X142196026Y-99341728D01*
X142196026Y-99341728D02*
X142255188Y-99352060D01*
X142255188Y-99352060D02*
X142314351Y-99362392D01*
X142314351Y-99362392D02*
X142373513Y-99372724D01*
X142373513Y-99372724D02*
X142403613Y-99402050D01*
X142403613Y-99402050D02*
X142433713Y-99431377D01*
X142433713Y-99431377D02*
X142463815Y-99460703D01*
X142463815Y-99460703D02*
X142493917Y-99490030D01*
X142493917Y-99490030D02*
X142514845Y-99551136D01*
X142514845Y-99551136D02*
X142535774Y-99612243D01*
X142535774Y-99612243D02*
X142556704Y-99673350D01*
X142556704Y-99673350D02*
X142577633Y-99734457D01*
X142577633Y-99734457D02*
X142612644Y-99821919D01*
X142612644Y-99821919D02*
X142647655Y-99909381D01*
X142647655Y-99909381D02*
X142682666Y-99996844D01*
X142682666Y-99996844D02*
X142717677Y-100084308D01*
X142717677Y-100084308D02*
X142739769Y-100112471D01*
X142739769Y-100112471D02*
X142761860Y-100140635D01*
X142761860Y-100140635D02*
X142783952Y-100168798D01*
X142783952Y-100168798D02*
X142806043Y-100196962D01*
X142806043Y-100196962D02*
X142832526Y-100209358D01*
X142832526Y-100209358D02*
X142859010Y-100221753D01*
X142859010Y-100221753D02*
X142885495Y-100234149D01*
X142885495Y-100234149D02*
X142911979Y-100246545D01*
X142911979Y-100246545D02*
X142925156Y-100253265D01*
X142925156Y-100253265D02*
X142938332Y-100259986D01*
X142938332Y-100259986D02*
X142951508Y-100266706D01*
X142951508Y-100266706D02*
X142964684Y-100273426D01*
X142964684Y-100273426D02*
X142986001Y-100296552D01*
X142986001Y-100296552D02*
X143007317Y-100319678D01*
X143007317Y-100319678D02*
X143028634Y-100342803D01*
X143028634Y-100342803D02*
X143049952Y-100365927D01*
X143049952Y-100365927D02*
X143092454Y-100445767D01*
X143092454Y-100445767D02*
X143134957Y-100525606D01*
X143134957Y-100525606D02*
X143177461Y-100605447D01*
X143177461Y-100605447D02*
X143219965Y-100685287D01*
X143219965Y-100685287D02*
X143245206Y-100733639D01*
X143245206Y-100733639D02*
X143270448Y-100781990D01*
X143270448Y-100781990D02*
X143295690Y-100830341D01*
X143295690Y-100830341D02*
X143320933Y-100878693D01*
X143320933Y-100878693D02*
X143354862Y-100917803D01*
X143354862Y-100917803D02*
X143388790Y-100956914D01*
X143388790Y-100956914D02*
X143422718Y-100996026D01*
X143422718Y-100996026D02*
X143456645Y-101035138D01*
X143456645Y-101035138D02*
X143495939Y-101061838D01*
X143495939Y-101061838D02*
X143535232Y-101088539D01*
X143535232Y-101088539D02*
X143574525Y-101115241D01*
X143574525Y-101115241D02*
X143613818Y-101141942D01*
X143613818Y-101141942D02*
X143655527Y-101151930D01*
X143655527Y-101151930D02*
X143697236Y-101161918D01*
X143697236Y-101161918D02*
X143738945Y-101171906D01*
X143738945Y-101171906D02*
X143780654Y-101181894D01*
X143780654Y-101181894D02*
X143834514Y-101186736D01*
X143834514Y-101186736D02*
X143888374Y-101191578D01*
X143888374Y-101191578D02*
X143942234Y-101196407D01*
X143942234Y-101196407D02*
X143996094Y-101201236D01*
X143996094Y-101201236D02*
X144037318Y-101217588D01*
X144037318Y-101217588D02*
X144078543Y-101233941D01*
X144078543Y-101233941D02*
X144119768Y-101250295D01*
X144119768Y-101250295D02*
X144160993Y-101266648D01*
X144160993Y-101266648D02*
X144192568Y-101298068D01*
X144192568Y-101298068D02*
X144224143Y-101329487D01*
X144224143Y-101329487D02*
X144255719Y-101360906D01*
X144255719Y-101360906D02*
X144287294Y-101392326D01*
X144287294Y-101392326D02*
X144311400Y-101444234D01*
X144311400Y-101444234D02*
X144335507Y-101496143D01*
X144335507Y-101496143D02*
X144359613Y-101548053D01*
X144359613Y-101548053D02*
X144383719Y-101599963D01*
X144383719Y-101599963D02*
X144400930Y-101677185D01*
X144400930Y-101677185D02*
X144418141Y-101754408D01*
X144418141Y-101754408D02*
X144435354Y-101831630D01*
X144435354Y-101831630D02*
X144452566Y-101908853D01*
X144452566Y-101908853D02*
X144463533Y-102014839D01*
X144463533Y-102014839D02*
X144474500Y-102120824D01*
X145571902Y-135818749D02*
X145562086Y-135881926D01*
X145562086Y-135881926D02*
X145552270Y-135945103D01*
X145552270Y-135945103D02*
X145542467Y-136008282D01*
X145542467Y-136008282D02*
X145532664Y-136071460D01*
X145532664Y-136071460D02*
X145491471Y-136208589D01*
X145491471Y-136208589D02*
X145450278Y-136345717D01*
X145450278Y-136345717D02*
X145409085Y-136482845D01*
X145409085Y-136482845D02*
X145367892Y-136619973D01*
X145367892Y-136619973D02*
X145312966Y-136744120D01*
X145312966Y-136744120D02*
X145258040Y-136868266D01*
X145258040Y-136868266D02*
X145203115Y-136992413D01*
X145203115Y-136992413D02*
X145148190Y-137116559D01*
X145148190Y-137116559D02*
X145078843Y-137228416D01*
X145078843Y-137228416D02*
X145009496Y-137340272D01*
X145009496Y-137340272D02*
X144940150Y-137452130D01*
X144940150Y-137452130D02*
X144870804Y-137563988D01*
X144870804Y-137563988D02*
X144786345Y-137664248D01*
X144786345Y-137664248D02*
X144701886Y-137764508D01*
X144701886Y-137764508D02*
X144617427Y-137864768D01*
X144617427Y-137864768D02*
X144532968Y-137965028D01*
X144532968Y-137965028D02*
X144432708Y-138054383D01*
X144432708Y-138054383D02*
X144332448Y-138143738D01*
X144332448Y-138143738D02*
X144232188Y-138233093D01*
X144232188Y-138233093D02*
X144131928Y-138322448D01*
X144131928Y-138322448D02*
X144015177Y-138401590D01*
X144015177Y-138401590D02*
X143898425Y-138480732D01*
X143898425Y-138480732D02*
X143781675Y-138559875D01*
X143781675Y-138559875D02*
X143664925Y-138639017D01*
X143664925Y-138639017D02*
X143530993Y-138708638D01*
X143530993Y-138708638D02*
X143397061Y-138778259D01*
X143397061Y-138778259D02*
X143263130Y-138847881D01*
X143263130Y-138847881D02*
X143129200Y-138917504D01*
X143129200Y-138917504D02*
X142977398Y-138978297D01*
X142977398Y-138978297D02*
X142825596Y-139039090D01*
X142825596Y-139039090D02*
X142673795Y-139099884D01*
X142673795Y-139099884D02*
X142521994Y-139160677D01*
X142521994Y-139160677D02*
X142375879Y-139211062D01*
X142375879Y-139211062D02*
X142229765Y-139261446D01*
X142229765Y-139261446D02*
X142083650Y-139311831D01*
X142083650Y-139311831D02*
X141937535Y-139362216D01*
X141937535Y-139362216D02*
X141891800Y-139377330D01*
X141891800Y-139377330D02*
X141846066Y-139392444D01*
X141846066Y-139392444D02*
X141638553Y-139414605D01*
X141638553Y-139414605D02*
X141438584Y-139347020D01*
X141438584Y-139347020D02*
X141309523Y-139300382D01*
X141309523Y-139300382D02*
X141180461Y-139253744D01*
X141180461Y-139253744D02*
X140979053Y-139162406D01*
X140979053Y-139162406D02*
X140777644Y-139071068D01*
X140777644Y-139071068D02*
X140576235Y-138979730D01*
X140576235Y-138979730D02*
X140374826Y-138888392D01*
X140374826Y-138888392D02*
X140178843Y-138788915D01*
X140178843Y-138788915D02*
X139982859Y-138689438D01*
X139982859Y-138689438D02*
X139786877Y-138589962D01*
X139786877Y-138589962D02*
X139590895Y-138490485D01*
X139590895Y-138490485D02*
X139476303Y-138420077D01*
X139476303Y-138420077D02*
X139361710Y-138349668D01*
X139361710Y-138349668D02*
X139247118Y-138279259D01*
X139247118Y-138279259D02*
X139132526Y-138208849D01*
X139132526Y-138208849D02*
X139084997Y-138158254D01*
X139084997Y-138158254D02*
X139037469Y-138107659D01*
X139037469Y-138107659D02*
X138989942Y-138057064D01*
X138989942Y-138057064D02*
X138942415Y-138006469D01*
X138942415Y-138006469D02*
X138895304Y-137941052D01*
X138895304Y-137941052D02*
X138848194Y-137875636D01*
X138848194Y-137875636D02*
X138801085Y-137810219D01*
X138801085Y-137810219D02*
X138753976Y-137744802D01*
X138753976Y-137744802D02*
X138668649Y-137585249D01*
X138668649Y-137585249D02*
X138583322Y-137425696D01*
X138583322Y-137425696D02*
X138497997Y-137266143D01*
X138497997Y-137266143D02*
X138412671Y-137106590D01*
X138412671Y-137106590D02*
X138351371Y-136934755D01*
X138351371Y-136934755D02*
X138290071Y-136762920D01*
X138290071Y-136762920D02*
X138228771Y-136591085D01*
X138228771Y-136591085D02*
X138167471Y-136419250D01*
X138167471Y-136419250D02*
X138143505Y-136266944D01*
X138143505Y-136266944D02*
X138119539Y-136114638D01*
X138119539Y-136114638D02*
X138095573Y-135962333D01*
X138095573Y-135962333D02*
X138071607Y-135810028D01*
X138071607Y-135810028D02*
X138075973Y-135734455D01*
X138075973Y-135734455D02*
X138080339Y-135658882D01*
X138080339Y-135658882D02*
X138084704Y-135583309D01*
X138084704Y-135583309D02*
X138089070Y-135507737D01*
X138089070Y-135507737D02*
X138106670Y-135462903D01*
X138106670Y-135462903D02*
X138124270Y-135418069D01*
X138124270Y-135418069D02*
X138141870Y-135373237D01*
X138141870Y-135373237D02*
X138159470Y-135328405D01*
X138159470Y-135328405D02*
X138198068Y-135301168D01*
X138198068Y-135301168D02*
X138236665Y-135273932D01*
X138236665Y-135273932D02*
X138275264Y-135246697D01*
X138275264Y-135246697D02*
X138313863Y-135219462D01*
X138313863Y-135219462D02*
X138384431Y-135198896D01*
X138384431Y-135198896D02*
X138454999Y-135178330D01*
X138454999Y-135178330D02*
X138525568Y-135157766D01*
X138525568Y-135157766D02*
X138596136Y-135137201D01*
X138596136Y-135137201D02*
X138812291Y-135099891D01*
X138812291Y-135099891D02*
X139028447Y-135062580D01*
X139028447Y-135062580D02*
X139244603Y-135025271D01*
X139244603Y-135025271D02*
X139460760Y-134987963D01*
X139460760Y-134987963D02*
X139700274Y-134963752D01*
X139700274Y-134963752D02*
X139939788Y-134939541D01*
X139939788Y-134939541D02*
X140179302Y-134915330D01*
X140179302Y-134915330D02*
X140418816Y-134891120D01*
X140418816Y-134891120D02*
X140668821Y-134879677D01*
X140668821Y-134879677D02*
X140918826Y-134868233D01*
X140918826Y-134868233D02*
X141168830Y-134856790D01*
X141168830Y-134856790D02*
X141418835Y-134845347D01*
X141418835Y-134845347D02*
X141666461Y-134846405D01*
X141666461Y-134846405D02*
X141914088Y-134847464D01*
X141914088Y-134847464D02*
X142161714Y-134848522D01*
X142161714Y-134848522D02*
X142409340Y-134849580D01*
X142409340Y-134849580D02*
X142409361Y-134849530D01*
X142409361Y-134849530D02*
X142409374Y-134849310D01*
X142409374Y-134849310D02*
X142641772Y-134862420D01*
X142641772Y-134862420D02*
X142874170Y-134875531D01*
X142874170Y-134875531D02*
X143106570Y-134888641D01*
X143106570Y-134888641D02*
X143338969Y-134901751D01*
X143338969Y-134901751D02*
X143543237Y-134926493D01*
X143543237Y-134926493D02*
X143747504Y-134951236D01*
X143747504Y-134951236D02*
X143951771Y-134975980D01*
X143951771Y-134975980D02*
X144156037Y-135000723D01*
X144156037Y-135000723D02*
X144319233Y-135036679D01*
X144319233Y-135036679D02*
X144482430Y-135072635D01*
X144482430Y-135072635D02*
X144645627Y-135108590D01*
X144645627Y-135108590D02*
X144808825Y-135144546D01*
X144808825Y-135144546D02*
X144916930Y-135190110D01*
X144916930Y-135190110D02*
X145025035Y-135235673D01*
X145025035Y-135235673D02*
X145133139Y-135281237D01*
X145133139Y-135281237D02*
X145241244Y-135326801D01*
X145241244Y-135326801D02*
X145290980Y-135365653D01*
X145290980Y-135365653D02*
X145340717Y-135404504D01*
X145340717Y-135404504D02*
X145390455Y-135443357D01*
X145390455Y-135443357D02*
X145440192Y-135482210D01*
X145440192Y-135482210D02*
X145466161Y-135520356D01*
X145466161Y-135520356D02*
X145492130Y-135558502D01*
X145492130Y-135558502D02*
X145518099Y-135596648D01*
X145518099Y-135596648D02*
X145544068Y-135634795D01*
X145544068Y-135634795D02*
X145551026Y-135680783D01*
X145551026Y-135680783D02*
X145557985Y-135726772D01*
X145557985Y-135726772D02*
X145564943Y-135772760D01*
X145564943Y-135772760D02*
X145571902Y-135818749D01*
X153338171Y-51302907D02*
X153732075Y-51622396D01*
X153732075Y-51622396D02*
X154125979Y-51941886D01*
X154125979Y-51941886D02*
X154519882Y-52261376D01*
X154519882Y-52261376D02*
X155004496Y-52627156D01*
X155004496Y-52627156D02*
X155489109Y-52992936D01*
X128385863Y-132454485D02*
X128475741Y-132513767D01*
X128475741Y-132513767D02*
X128550456Y-132629122D01*
X128550456Y-132629122D02*
X128569028Y-132776162D01*
X128569028Y-132776162D02*
X128527879Y-132903594D01*
X128527879Y-132903594D02*
X128423255Y-133013168D01*
X128423255Y-133013168D02*
X128305203Y-133067989D01*
X128305203Y-133067989D02*
X128177093Y-133093070D01*
X128177093Y-133093070D02*
X128041133Y-133099442D01*
X128041133Y-133099442D02*
X127904621Y-133099870D01*
X127904621Y-133099870D02*
X127758394Y-133113416D01*
X127758394Y-133113416D02*
X127612166Y-133126963D01*
X127612166Y-133126963D02*
X127461554Y-133137586D01*
X127461554Y-133137586D02*
X127310941Y-133148209D01*
X127310941Y-133148209D02*
X127079584Y-133164338D01*
X127079584Y-133164338D02*
X126848226Y-133180467D01*
X126848226Y-133180467D02*
X126616868Y-133196597D01*
X126616868Y-133196597D02*
X126385511Y-133212728D01*
X126385511Y-133212728D02*
X125802213Y-133227584D01*
X125802213Y-133227584D02*
X125218915Y-133242440D01*
X125218915Y-133242440D02*
X124635617Y-133257298D01*
X124635617Y-133257298D02*
X124052320Y-133272156D01*
X124052320Y-133272156D02*
X123337558Y-133272156D01*
X123337558Y-133272156D02*
X122622796Y-133272156D01*
X122622796Y-133272156D02*
X122097506Y-133283228D01*
X122097506Y-133283228D02*
X121571863Y-133278003D01*
X121571863Y-133278003D02*
X121434763Y-133233783D01*
X121434763Y-133233783D02*
X121344062Y-133158470D01*
X121344062Y-133158470D02*
X121280578Y-133035163D01*
X121280578Y-133035163D02*
X121262227Y-132913420D01*
X121262227Y-132913420D02*
X121278304Y-132811425D01*
X121278304Y-132811425D02*
X121294381Y-132709429D01*
X121294381Y-132709429D02*
X121344389Y-132560702D01*
X121344389Y-132560702D02*
X121394396Y-132411974D01*
X121394396Y-132411974D02*
X121440750Y-132254477D01*
X121440750Y-132254477D02*
X121487104Y-132096980D01*
X121487104Y-132096980D02*
X121517729Y-132035656D01*
X121517729Y-132035656D02*
X121548354Y-131974332D01*
X121548354Y-131974332D02*
X121578979Y-131913008D01*
X121578979Y-131913008D02*
X121609604Y-131851684D01*
X121609604Y-131851684D02*
X121645022Y-131801918D01*
X121645022Y-131801918D02*
X121680439Y-131752151D01*
X121680439Y-131752151D02*
X121715857Y-131702384D01*
X121715857Y-131702384D02*
X121751274Y-131652617D01*
X121751274Y-131652617D02*
X121791323Y-131614220D01*
X121791323Y-131614220D02*
X121831371Y-131575822D01*
X121831371Y-131575822D02*
X121871419Y-131537424D01*
X121871419Y-131537424D02*
X121911467Y-131499027D01*
X121911467Y-131499027D02*
X121956270Y-131471756D01*
X121956270Y-131471756D02*
X122001072Y-131444485D01*
X122001072Y-131444485D02*
X122045875Y-131417213D01*
X122045875Y-131417213D02*
X122090678Y-131389942D01*
X122090678Y-131389942D02*
X122140533Y-131373672D01*
X122140533Y-131373672D02*
X122190388Y-131357403D01*
X122190388Y-131357403D02*
X122240243Y-131341134D01*
X122240243Y-131341134D02*
X122290098Y-131324865D01*
X122290098Y-131324865D02*
X122345302Y-131319467D01*
X122345302Y-131319467D02*
X122400507Y-131314070D01*
X122400507Y-131314070D02*
X122455712Y-131308672D01*
X122455712Y-131308672D02*
X122510917Y-131303275D01*
X122510917Y-131303275D02*
X122510906Y-131303275D01*
X122510906Y-131303275D02*
X122510802Y-131303312D01*
X122510802Y-131303312D02*
X122776935Y-131337677D01*
X122776935Y-131337677D02*
X123043069Y-131372043D01*
X123043069Y-131372043D02*
X123309203Y-131406407D01*
X123309203Y-131406407D02*
X123575337Y-131440771D01*
X123575337Y-131440771D02*
X124019237Y-131523841D01*
X124019237Y-131523841D02*
X124463138Y-131606910D01*
X124463138Y-131606910D02*
X124907039Y-131689980D01*
X124907039Y-131689980D02*
X125350940Y-131773050D01*
X125350940Y-131773050D02*
X125905556Y-131896298D01*
X125905556Y-131896298D02*
X126460173Y-132019547D01*
X126460173Y-132019547D02*
X127014790Y-132142795D01*
X127014790Y-132142795D02*
X127569407Y-132266043D01*
X127569407Y-132266043D02*
X127743278Y-132291824D01*
X127743278Y-132291824D02*
X127917150Y-132317605D01*
X127917150Y-132317605D02*
X128102706Y-132361723D01*
X128102706Y-132361723D02*
X128285355Y-132415940D01*
X128285355Y-132415940D02*
X128385863Y-132454485D01*
X155489109Y-52992936D02*
X155973723Y-53358716D01*
X130761015Y-119134287D02*
X130866641Y-119167115D01*
X130866641Y-119167115D02*
X130991179Y-119286277D01*
X130991179Y-119286277D02*
X131041269Y-119450841D01*
X131041269Y-119450841D02*
X131030587Y-119757345D01*
X131030587Y-119757345D02*
X131008997Y-120063383D01*
X131008997Y-120063383D02*
X130976312Y-120529504D01*
X130976312Y-120529504D02*
X130943627Y-120995624D01*
X130943627Y-120995624D02*
X130910941Y-121461746D01*
X130910941Y-121461746D02*
X130878256Y-121927868D01*
X130878256Y-121927868D02*
X130836269Y-122409233D01*
X130836269Y-122409233D02*
X130794283Y-122890599D01*
X130794283Y-122890599D02*
X130752295Y-123371966D01*
X130752295Y-123371966D02*
X130710307Y-123853333D01*
X130710307Y-123853333D02*
X130691574Y-124026578D01*
X130691574Y-124026578D02*
X130672842Y-124199824D01*
X130672842Y-124199824D02*
X130654109Y-124373069D01*
X130654109Y-124373069D02*
X130635377Y-124546314D01*
X130635377Y-124546314D02*
X130621553Y-124634035D01*
X130621553Y-124634035D02*
X130607730Y-124721756D01*
X130607730Y-124721756D02*
X130562197Y-124869389D01*
X130562197Y-124869389D02*
X130476388Y-124995947D01*
X130476388Y-124995947D02*
X130447110Y-125015043D01*
X130447110Y-125015043D02*
X130417831Y-125034139D01*
X130417831Y-125034139D02*
X130296133Y-125078194D01*
X130296133Y-125078194D02*
X130174435Y-125122248D01*
X130174435Y-125122248D02*
X130052736Y-125166301D01*
X130052736Y-125166301D02*
X129931037Y-125210355D01*
X129931037Y-125210355D02*
X129717433Y-125262712D01*
X129717433Y-125262712D02*
X129503828Y-125315069D01*
X129503828Y-125315069D02*
X129290223Y-125367427D01*
X129290223Y-125367427D02*
X129076618Y-125419786D01*
X129076618Y-125419786D02*
X128758474Y-125483829D01*
X128758474Y-125483829D02*
X128440329Y-125547873D01*
X128440329Y-125547873D02*
X128122184Y-125611917D01*
X128122184Y-125611917D02*
X127804038Y-125675960D01*
X127804038Y-125675960D02*
X127248523Y-125774888D01*
X127248523Y-125774888D02*
X126693009Y-125873816D01*
X126693009Y-125873816D02*
X126137494Y-125972745D01*
X126137494Y-125972745D02*
X125581979Y-126071674D01*
X125581979Y-126071674D02*
X125203443Y-126128033D01*
X125203443Y-126128033D02*
X124824906Y-126184392D01*
X124824906Y-126184392D02*
X124446370Y-126240751D01*
X124446370Y-126240751D02*
X124067833Y-126297109D01*
X124067833Y-126297109D02*
X123930671Y-126308460D01*
X123930671Y-126308460D02*
X123793509Y-126319811D01*
X123793509Y-126319811D02*
X123656346Y-126331161D01*
X123656346Y-126331161D02*
X123519184Y-126342512D01*
X123519184Y-126342512D02*
X123446281Y-126338795D01*
X123446281Y-126338795D02*
X123373378Y-126335077D01*
X123373378Y-126335077D02*
X123300475Y-126331347D01*
X123300475Y-126331347D02*
X123227572Y-126327616D01*
X123227572Y-126327616D02*
X123201863Y-126308754D01*
X123201863Y-126308754D02*
X123176155Y-126289892D01*
X123176155Y-126289892D02*
X123150446Y-126271029D01*
X123150446Y-126271029D02*
X123124737Y-126252167D01*
X123124737Y-126252167D02*
X123118665Y-126206434D01*
X123118665Y-126206434D02*
X123112592Y-126160701D01*
X123112592Y-126160701D02*
X123106520Y-126114968D01*
X123106520Y-126114968D02*
X123100448Y-126069234D01*
X123100448Y-126069234D02*
X123120343Y-125952445D01*
X123120343Y-125952445D02*
X123140239Y-125835655D01*
X123140239Y-125835655D02*
X123160134Y-125718867D01*
X123160134Y-125718867D02*
X123180029Y-125602078D01*
X123180029Y-125602078D02*
X123233385Y-125364883D01*
X123233385Y-125364883D02*
X123286741Y-125127688D01*
X123286741Y-125127688D02*
X123340097Y-124890493D01*
X123340097Y-124890493D02*
X123393453Y-124653298D01*
X123393453Y-124653298D02*
X123558300Y-123986413D01*
X123558300Y-123986413D02*
X123723148Y-123319528D01*
X123723148Y-123319528D02*
X123887995Y-122652645D01*
X123887995Y-122652645D02*
X124052842Y-121985761D01*
X124052842Y-121985761D02*
X124225958Y-121333604D01*
X124225958Y-121333604D02*
X124399075Y-120681447D01*
X124399075Y-120681447D02*
X124572191Y-120029292D01*
X124572191Y-120029292D02*
X124745307Y-119377136D01*
X124745307Y-119377136D02*
X124808740Y-119158286D01*
X124808740Y-119158286D02*
X124872173Y-118939436D01*
X124872173Y-118939436D02*
X124935607Y-118720586D01*
X124935607Y-118720586D02*
X124999040Y-118501736D01*
X124999040Y-118501736D02*
X125016222Y-118466208D01*
X125016222Y-118466208D02*
X125033404Y-118430679D01*
X125033404Y-118430679D02*
X125175797Y-118276663D01*
X125175797Y-118276663D02*
X125328789Y-118203498D01*
X125328789Y-118203498D02*
X125501789Y-118188400D01*
X125501789Y-118188400D02*
X125707713Y-118208170D01*
X125707713Y-118208170D02*
X125875791Y-118230391D01*
X125875791Y-118230391D02*
X126043869Y-118252612D01*
X126043869Y-118252612D02*
X126545130Y-118336845D01*
X126545130Y-118336845D02*
X127046390Y-118421078D01*
X127046390Y-118421078D02*
X127547651Y-118505310D01*
X127547651Y-118505310D02*
X128048912Y-118589543D01*
X128048912Y-118589543D02*
X128553533Y-118687599D01*
X128553533Y-118687599D02*
X129058153Y-118785655D01*
X129058153Y-118785655D02*
X129562773Y-118883711D01*
X129562773Y-118883711D02*
X130067393Y-118981767D01*
X130067393Y-118981767D02*
X130239605Y-119021170D01*
X130239605Y-119021170D02*
X130411817Y-119060573D01*
X130411817Y-119060573D02*
X130532140Y-119086091D01*
X130532140Y-119086091D02*
X130652463Y-119111608D01*
X130652463Y-119111608D02*
X130761015Y-119134287D01*
X155973723Y-53358716D02*
X156458336Y-53724497D01*
X131457090Y-112220761D02*
X131424922Y-112361320D01*
X131424922Y-112361320D02*
X131385514Y-112396081D01*
X131385514Y-112396081D02*
X131346106Y-112430842D01*
X131346106Y-112430842D02*
X131306697Y-112465602D01*
X131306697Y-112465602D02*
X131267289Y-112500362D01*
X131267289Y-112500362D02*
X131181381Y-112537689D01*
X131181381Y-112537689D02*
X131095474Y-112575016D01*
X131095474Y-112575016D02*
X131009568Y-112612345D01*
X131009568Y-112612345D02*
X130923661Y-112649674D01*
X130923661Y-112649674D02*
X130789163Y-112686802D01*
X130789163Y-112686802D02*
X130654665Y-112723929D01*
X130654665Y-112723929D02*
X130520165Y-112761057D01*
X130520165Y-112761057D02*
X130385666Y-112798185D01*
X130385666Y-112798185D02*
X130201062Y-112835729D01*
X130201062Y-112835729D02*
X130016458Y-112873273D01*
X130016458Y-112873273D02*
X129831856Y-112910819D01*
X129831856Y-112910819D02*
X129647253Y-112948365D01*
X129647253Y-112948365D02*
X129196611Y-113027818D01*
X129196611Y-113027818D02*
X128745970Y-113107271D01*
X128745970Y-113107271D02*
X128295327Y-113186724D01*
X128295327Y-113186724D02*
X127844684Y-113266177D01*
X127844684Y-113266177D02*
X127602216Y-113299508D01*
X127602216Y-113299508D02*
X127359749Y-113332839D01*
X127359749Y-113332839D02*
X127117282Y-113366170D01*
X127117282Y-113366170D02*
X126874814Y-113399500D01*
X126874814Y-113399500D02*
X126811021Y-113400559D01*
X126811021Y-113400559D02*
X126747229Y-113401617D01*
X126747229Y-113401617D02*
X126683436Y-113402675D01*
X126683436Y-113402675D02*
X126619643Y-113403734D01*
X126619643Y-113403734D02*
X126583829Y-113396273D01*
X126583829Y-113396273D02*
X126548016Y-113388811D01*
X126548016Y-113388811D02*
X126512202Y-113381350D01*
X126512202Y-113381350D02*
X126476389Y-113373889D01*
X126476389Y-113373889D02*
X126458445Y-113359739D01*
X126458445Y-113359739D02*
X126440501Y-113345589D01*
X126440501Y-113345589D02*
X126422558Y-113331440D01*
X126422558Y-113331440D02*
X126404614Y-113317292D01*
X126404614Y-113317292D02*
X126393362Y-113294233D01*
X126393362Y-113294233D02*
X126382109Y-113271175D01*
X126382109Y-113271175D02*
X126370856Y-113248118D01*
X126370856Y-113248118D02*
X126359603Y-113225061D01*
X126359603Y-113225061D02*
X126357798Y-113173384D01*
X126357798Y-113173384D02*
X126355992Y-113121707D01*
X126355992Y-113121707D02*
X126354186Y-113070031D01*
X126354186Y-113070031D02*
X126352380Y-113018355D01*
X126352380Y-113018355D02*
X126365430Y-112920169D01*
X126365430Y-112920169D02*
X126378479Y-112821984D01*
X126378479Y-112821984D02*
X126391528Y-112723798D01*
X126391528Y-112723798D02*
X126404577Y-112625613D01*
X126404577Y-112625613D02*
X126463876Y-112356250D01*
X126463876Y-112356250D02*
X126523174Y-112086887D01*
X126523174Y-112086887D02*
X126582473Y-111817524D01*
X126582473Y-111817524D02*
X126641771Y-111548161D01*
X126641771Y-111548161D02*
X126720965Y-111277118D01*
X126720965Y-111277118D02*
X126800160Y-111006074D01*
X126800160Y-111006074D02*
X126879354Y-110735031D01*
X126879354Y-110735031D02*
X126958549Y-110463988D01*
X126958549Y-110463988D02*
X126996746Y-110363076D01*
X126996746Y-110363076D02*
X127034943Y-110262164D01*
X127034943Y-110262164D02*
X127073140Y-110161253D01*
X127073140Y-110161253D02*
X127111337Y-110060342D01*
X127111337Y-110060342D02*
X127141481Y-110003771D01*
X127141481Y-110003771D02*
X127171626Y-109947199D01*
X127171626Y-109947199D02*
X127201771Y-109890626D01*
X127201771Y-109890626D02*
X127231916Y-109834052D01*
X127231916Y-109834052D02*
X127267030Y-109807079D01*
X127267030Y-109807079D02*
X127302144Y-109780106D01*
X127302144Y-109780106D02*
X127337257Y-109753135D01*
X127337257Y-109753135D02*
X127372371Y-109726163D01*
X127372371Y-109726163D02*
X127429887Y-109702622D01*
X127429887Y-109702622D02*
X127487403Y-109679081D01*
X127487403Y-109679081D02*
X127544920Y-109655539D01*
X127544920Y-109655539D02*
X127602436Y-109631998D01*
X127602436Y-109631998D02*
X127775035Y-109600733D01*
X127775035Y-109600733D02*
X127947635Y-109569469D01*
X127947635Y-109569469D02*
X128120235Y-109538204D01*
X128120235Y-109538204D02*
X128292834Y-109506940D01*
X128292834Y-109506940D02*
X128292821Y-109506953D01*
X128292821Y-109506953D02*
X128292806Y-109506736D01*
X128292806Y-109506736D02*
X128526465Y-109498984D01*
X128526465Y-109498984D02*
X128760123Y-109491232D01*
X128760123Y-109491232D02*
X128993781Y-109483479D01*
X128993781Y-109483479D02*
X129227439Y-109475727D01*
X129227439Y-109475727D02*
X129504472Y-109493421D01*
X129504472Y-109493421D02*
X129781505Y-109511115D01*
X129781505Y-109511115D02*
X130058539Y-109528810D01*
X130058539Y-109528810D02*
X130335572Y-109546506D01*
X130335572Y-109546506D02*
X130673019Y-109582162D01*
X130673019Y-109582162D02*
X131010466Y-109617819D01*
X131010466Y-109617819D02*
X131161907Y-109633821D01*
X131161907Y-109633821D02*
X131313348Y-109649823D01*
X131313348Y-109649823D02*
X131514973Y-109721221D01*
X131514973Y-109721221D02*
X131623999Y-109872006D01*
X131623999Y-109872006D02*
X131658943Y-110046788D01*
X131658943Y-110046788D02*
X131661335Y-110273075D01*
X131661335Y-110273075D02*
X131649323Y-110565047D01*
X131649323Y-110565047D02*
X131637311Y-110857019D01*
X131637311Y-110857019D02*
X131616383Y-111092534D01*
X131616383Y-111092534D02*
X131595454Y-111328049D01*
X131595454Y-111328049D02*
X131574524Y-111563565D01*
X131574524Y-111563565D02*
X131553595Y-111799081D01*
X131553595Y-111799081D02*
X131521426Y-111939641D01*
X131521426Y-111939641D02*
X131489258Y-112080201D01*
X131489258Y-112080201D02*
X131457090Y-112220761D01*
X156458336Y-53724497D02*
X156918109Y-54046530D01*
X156918109Y-54046530D02*
X157377882Y-54368563D01*
X132168984Y-103357211D02*
X132166192Y-103602664D01*
X132166192Y-103602664D02*
X132163401Y-103848117D01*
X132163401Y-103848117D02*
X132160596Y-104093569D01*
X132160596Y-104093569D02*
X132157792Y-104339022D01*
X132157792Y-104339022D02*
X132133201Y-104577389D01*
X132133201Y-104577389D02*
X132108611Y-104815756D01*
X132108611Y-104815756D02*
X132084021Y-105054124D01*
X132084021Y-105054124D02*
X132059430Y-105292493D01*
X132059430Y-105292493D02*
X132043283Y-105404759D01*
X132043283Y-105404759D02*
X132027135Y-105517026D01*
X132027135Y-105517026D02*
X131969852Y-105725711D01*
X131969852Y-105725711D02*
X131885213Y-105858314D01*
X131885213Y-105858314D02*
X131731818Y-105943425D01*
X131731818Y-105943425D02*
X131535770Y-105956536D01*
X131535770Y-105956536D02*
X131290396Y-105956536D01*
X131290396Y-105956536D02*
X131045023Y-105956536D01*
X131045023Y-105956536D02*
X130592854Y-105956536D01*
X130592854Y-105956536D02*
X130140685Y-105956536D01*
X130140685Y-105956536D02*
X129690196Y-105956536D01*
X129690196Y-105956536D02*
X129239707Y-105956536D01*
X129239707Y-105956536D02*
X129099816Y-105968363D01*
X129099816Y-105968363D02*
X128959924Y-105980190D01*
X128959924Y-105980190D02*
X128827442Y-105990103D01*
X128827442Y-105990103D02*
X128694357Y-105997467D01*
X128694357Y-105997467D02*
X128555670Y-105980130D01*
X128555670Y-105980130D02*
X128436572Y-105904745D01*
X128436572Y-105904745D02*
X128347816Y-105787665D01*
X128347816Y-105787665D02*
X128312598Y-105657824D01*
X128312598Y-105657824D02*
X128313976Y-105570567D01*
X128313976Y-105570567D02*
X128315355Y-105483310D01*
X128315355Y-105483310D02*
X128327048Y-105368009D01*
X128327048Y-105368009D02*
X128338741Y-105252707D01*
X128338741Y-105252707D02*
X128344125Y-105182929D01*
X128344125Y-105182929D02*
X128349510Y-105113150D01*
X128349510Y-105113150D02*
X128354894Y-105043373D01*
X128354894Y-105043373D02*
X128360278Y-104973596D01*
X128360278Y-104973596D02*
X128375532Y-104906773D01*
X128375532Y-104906773D02*
X128390785Y-104839949D01*
X128390785Y-104839949D02*
X128406038Y-104773128D01*
X128406038Y-104773128D02*
X128421291Y-104706306D01*
X128421291Y-104706306D02*
X128475971Y-104589692D01*
X128475971Y-104589692D02*
X128530651Y-104473078D01*
X128530651Y-104473078D02*
X128585332Y-104356464D01*
X128585332Y-104356464D02*
X128640012Y-104239851D01*
X128640012Y-104239851D02*
X128676600Y-104194236D01*
X128676600Y-104194236D02*
X128713189Y-104148622D01*
X128713189Y-104148622D02*
X128749777Y-104103008D01*
X128749777Y-104103008D02*
X128786366Y-104057394D01*
X128786366Y-104057394D02*
X128827086Y-104022808D01*
X128827086Y-104022808D02*
X128867807Y-103988221D01*
X128867807Y-103988221D02*
X128908526Y-103953635D01*
X128908526Y-103953635D02*
X128949245Y-103919049D01*
X128949245Y-103919049D02*
X128992651Y-103897109D01*
X128992651Y-103897109D02*
X129036058Y-103875170D01*
X129036058Y-103875170D02*
X129079465Y-103853231D01*
X129079465Y-103853231D02*
X129122873Y-103831292D01*
X129122873Y-103831292D02*
X129167521Y-103823619D01*
X129167521Y-103823619D02*
X129212170Y-103815946D01*
X129212170Y-103815946D02*
X129256818Y-103808273D01*
X129256818Y-103808273D02*
X129301467Y-103800600D01*
X129301467Y-103800600D02*
X129333893Y-103791723D01*
X129333893Y-103791723D02*
X129366319Y-103782846D01*
X129366319Y-103782846D02*
X129398745Y-103773970D01*
X129398745Y-103773970D02*
X129431171Y-103765093D01*
X129431171Y-103765093D02*
X129460109Y-103741925D01*
X129460109Y-103741925D02*
X129489048Y-103718756D01*
X129489048Y-103718756D02*
X129517988Y-103695588D01*
X129517988Y-103695588D02*
X129546928Y-103672420D01*
X129546928Y-103672420D02*
X129570535Y-103639338D01*
X129570535Y-103639338D02*
X129594141Y-103606256D01*
X129594141Y-103606256D02*
X129617748Y-103573175D01*
X129617748Y-103573175D02*
X129641356Y-103540094D01*
X129641356Y-103540094D02*
X129657282Y-103499924D01*
X129657282Y-103499924D02*
X129673209Y-103459753D01*
X129673209Y-103459753D02*
X129689134Y-103419583D01*
X129689134Y-103419583D02*
X129705059Y-103379412D01*
X129705059Y-103379412D02*
X129721093Y-103342941D01*
X129721093Y-103342941D02*
X129737127Y-103306469D01*
X129737127Y-103306469D02*
X129753161Y-103269998D01*
X129753161Y-103269998D02*
X129769194Y-103233526D01*
X129769194Y-103233526D02*
X129795453Y-103199733D01*
X129795453Y-103199733D02*
X129821711Y-103165939D01*
X129821711Y-103165939D02*
X129847970Y-103132145D01*
X129847970Y-103132145D02*
X129874229Y-103098351D01*
X129874229Y-103098351D02*
X129906502Y-103071460D01*
X129906502Y-103071460D02*
X129938776Y-103044569D01*
X129938776Y-103044569D02*
X129971052Y-103017679D01*
X129971052Y-103017679D02*
X130003327Y-102990790D01*
X130003327Y-102990790D02*
X130037409Y-102975033D01*
X130037409Y-102975033D02*
X130071491Y-102959275D01*
X130071491Y-102959275D02*
X130105574Y-102943518D01*
X130105574Y-102943518D02*
X130139656Y-102927761D01*
X130139656Y-102927761D02*
X130182639Y-102908408D01*
X130182639Y-102908408D02*
X130225622Y-102889055D01*
X130225622Y-102889055D02*
X130268605Y-102869703D01*
X130268605Y-102869703D02*
X130311587Y-102850352D01*
X130311587Y-102850352D02*
X130353574Y-102817205D01*
X130353574Y-102817205D02*
X130395561Y-102784058D01*
X130395561Y-102784058D02*
X130437546Y-102750912D01*
X130437546Y-102750912D02*
X130479532Y-102717766D01*
X130479532Y-102717766D02*
X130516563Y-102675117D01*
X130516563Y-102675117D02*
X130553594Y-102632467D01*
X130553594Y-102632467D02*
X130590625Y-102589816D01*
X130590625Y-102589816D02*
X130627656Y-102547166D01*
X130627656Y-102547166D02*
X130655777Y-102499300D01*
X130655777Y-102499300D02*
X130683899Y-102451434D01*
X130683899Y-102451434D02*
X130712018Y-102403568D01*
X130712018Y-102403568D02*
X130740138Y-102355703D01*
X130740138Y-102355703D02*
X130764759Y-102316391D01*
X130764759Y-102316391D02*
X130789380Y-102277079D01*
X130789380Y-102277079D02*
X130814001Y-102237767D01*
X130814001Y-102237767D02*
X130838622Y-102198455D01*
X130838622Y-102198455D02*
X130871450Y-102167696D01*
X130871450Y-102167696D02*
X130904278Y-102136937D01*
X130904278Y-102136937D02*
X130937106Y-102106178D01*
X130937106Y-102106178D02*
X130969934Y-102075419D01*
X130969934Y-102075419D02*
X131008823Y-102053599D01*
X131008823Y-102053599D02*
X131047711Y-102031778D01*
X131047711Y-102031778D02*
X131086598Y-102009958D01*
X131086598Y-102009958D02*
X131125485Y-101988138D01*
X131125485Y-101988138D02*
X131168287Y-101975650D01*
X131168287Y-101975650D02*
X131211089Y-101963161D01*
X131211089Y-101963161D02*
X131253890Y-101950673D01*
X131253890Y-101950673D02*
X131296692Y-101938185D01*
X131296692Y-101938185D02*
X131296684Y-101938179D01*
X131296684Y-101938179D02*
X131341269Y-101935388D01*
X131341269Y-101935388D02*
X131385854Y-101932597D01*
X131385854Y-101932597D02*
X131430438Y-101929805D01*
X131430438Y-101929805D02*
X131475021Y-101927014D01*
X131475021Y-101927014D02*
X131519260Y-101934290D01*
X131519260Y-101934290D02*
X131563498Y-101941566D01*
X131563498Y-101941566D02*
X131607738Y-101948855D01*
X131607738Y-101948855D02*
X131651977Y-101956145D01*
X131651977Y-101956145D02*
X131693727Y-101973874D01*
X131693727Y-101973874D02*
X131735477Y-101991604D01*
X131735477Y-101991604D02*
X131777227Y-102009334D01*
X131777227Y-102009334D02*
X131818977Y-102027064D01*
X131818977Y-102027064D02*
X131856094Y-102055613D01*
X131856094Y-102055613D02*
X131893211Y-102084163D01*
X131893211Y-102084163D02*
X131930328Y-102112714D01*
X131930328Y-102112714D02*
X131967445Y-102141266D01*
X131967445Y-102141266D02*
X131985015Y-102176275D01*
X131985015Y-102176275D02*
X132002584Y-102211285D01*
X132002584Y-102211285D02*
X132020154Y-102246296D01*
X132020154Y-102246296D02*
X132037724Y-102281307D01*
X132037724Y-102281307D02*
X132053097Y-102349003D01*
X132053097Y-102349003D02*
X132068471Y-102416700D01*
X132068471Y-102416700D02*
X132083845Y-102484396D01*
X132083845Y-102484396D02*
X132099218Y-102552092D01*
X132099218Y-102552092D02*
X132116660Y-102753371D01*
X132116660Y-102753371D02*
X132134101Y-102954650D01*
X132134101Y-102954650D02*
X132151542Y-103155931D01*
X132151542Y-103155931D02*
X132168984Y-103357211D01*
X157377882Y-54368563D02*
X157837655Y-54690596D01*
X157837655Y-54690596D02*
X158297428Y-55012629D01*
X158297428Y-55012629D02*
X158716170Y-55265189D01*
X158716170Y-55265189D02*
X159134911Y-55517748D01*
X159134911Y-55517748D02*
X159553654Y-55770307D01*
X159553654Y-55770307D02*
X159972397Y-56022867D01*
X159972397Y-56022867D02*
X160470211Y-56281255D01*
X160470211Y-56281255D02*
X160968024Y-56539644D01*
X160968024Y-56539644D02*
X161465839Y-56798032D01*
X161465839Y-56798032D02*
X161963654Y-57056421D01*
X161963654Y-57056421D02*
X162530194Y-57316590D01*
X162530194Y-57316590D02*
X163096735Y-57576759D01*
X163096735Y-57576759D02*
X163663275Y-57836929D01*
X163663275Y-57836929D02*
X164229815Y-58097098D01*
X164229815Y-58097098D02*
X164854735Y-58354999D01*
X164854735Y-58354999D02*
X165479654Y-58612901D01*
X165479654Y-58612901D02*
X166104575Y-58870802D01*
X166104575Y-58870802D02*
X166729495Y-59128703D01*
X166729495Y-59128703D02*
X167402450Y-59380290D01*
X167402450Y-59380290D02*
X168075404Y-59631877D01*
X168075404Y-59631877D02*
X168748360Y-59883463D01*
X168748360Y-59883463D02*
X169421316Y-60135049D01*
X169421316Y-60135049D02*
X170131958Y-60376271D01*
X170131958Y-60376271D02*
X170842599Y-60617492D01*
X170842599Y-60617492D02*
X171553242Y-60858714D01*
X171553242Y-60858714D02*
X172263885Y-61099936D01*
X172263885Y-61099936D02*
X173001870Y-61326746D01*
X173001870Y-61326746D02*
X173739855Y-61553557D01*
X173739855Y-61553557D02*
X174477841Y-61780367D01*
X174477841Y-61780367D02*
X175215826Y-62007177D01*
X175215826Y-62007177D02*
X175970806Y-62215525D01*
X175970806Y-62215525D02*
X176725787Y-62423874D01*
X176725787Y-62423874D02*
X177480767Y-62632224D01*
X177480767Y-62632224D02*
X178235748Y-62840574D01*
X178235748Y-62840574D02*
X178658720Y-62956846D01*
X178658720Y-62956846D02*
X179081692Y-63073117D01*
X179081692Y-63073117D02*
X179504663Y-63189389D01*
X179504663Y-63189389D02*
X179927634Y-63305662D01*
X179927634Y-63305662D02*
X180064189Y-63347778D01*
X180064189Y-63347778D02*
X180200745Y-63389894D01*
X180200745Y-63389894D02*
X180337299Y-63432011D01*
X180337299Y-63432011D02*
X180473853Y-63474127D01*
X180473853Y-63474127D02*
X180492457Y-63482395D01*
X180492457Y-63482395D02*
X180511061Y-63490664D01*
X180511061Y-63490664D02*
X180529666Y-63498932D01*
X180529666Y-63498932D02*
X180548270Y-63507200D01*
X180548270Y-63507200D02*
X180563126Y-63518048D01*
X180563126Y-63518048D02*
X180577982Y-63528896D01*
X180577982Y-63528896D02*
X180592839Y-63539744D01*
X180592839Y-63539744D02*
X180607695Y-63550592D01*
X180607695Y-63550592D02*
X180612220Y-63564543D01*
X180612220Y-63564543D02*
X180616744Y-63578495D01*
X180616744Y-63578495D02*
X180621268Y-63592448D01*
X180621268Y-63592448D02*
X180625793Y-63606400D01*
X180625793Y-63606400D02*
X180626851Y-63632498D01*
X180626851Y-63632498D02*
X180627909Y-63658595D01*
X180627909Y-63658595D02*
X180628968Y-63684692D01*
X180628968Y-63684692D02*
X180630026Y-63710789D01*
X180630026Y-63710789D02*
X180613490Y-63738695D01*
X180613490Y-63738695D02*
X180596953Y-63766600D01*
X180596953Y-63766600D02*
X180580417Y-63794505D01*
X180580417Y-63794505D02*
X180563880Y-63822409D01*
X180563880Y-63822409D02*
X180453550Y-63977050D01*
X180453550Y-63977050D02*
X180343220Y-64131691D01*
X180343220Y-64131691D02*
X180232892Y-64286333D01*
X180232892Y-64286333D02*
X180122563Y-64440976D01*
X180122563Y-64440976D02*
X179951656Y-64613868D01*
X179951656Y-64613868D02*
X179780748Y-64786759D01*
X179780748Y-64786759D02*
X179609842Y-64959651D01*
X179609842Y-64959651D02*
X179438935Y-65132543D01*
X179438935Y-65132543D02*
X179259089Y-65278108D01*
X179259089Y-65278108D02*
X179079242Y-65423672D01*
X179079242Y-65423672D02*
X178899396Y-65569237D01*
X178899396Y-65569237D02*
X178719549Y-65714801D01*
X178719549Y-65714801D02*
X178624646Y-65772995D01*
X178624646Y-65772995D02*
X178529742Y-65831189D01*
X178529742Y-65831189D02*
X178434840Y-65889384D01*
X178434840Y-65889384D02*
X178339938Y-65947579D01*
X178339938Y-65947579D02*
X178233858Y-66000614D01*
X178233858Y-66000614D02*
X178127777Y-66053648D01*
X178127777Y-66053648D02*
X178021696Y-66106682D01*
X178021696Y-66106682D02*
X177915615Y-66159717D01*
X177915615Y-66159717D02*
X177672850Y-66249362D01*
X177672850Y-66249362D02*
X177430084Y-66339006D01*
X177430084Y-66339006D02*
X177187318Y-66428651D01*
X177187318Y-66428651D02*
X176944552Y-66518296D01*
X176944552Y-66518296D02*
X176665859Y-66584470D01*
X176665859Y-66584470D02*
X176387165Y-66650643D01*
X176387165Y-66650643D02*
X176108473Y-66716815D01*
X176108473Y-66716815D02*
X175829781Y-66782988D01*
X175829781Y-66782988D02*
X175521020Y-66823802D01*
X175521020Y-66823802D02*
X175212259Y-66864617D01*
X175212259Y-66864617D02*
X174903497Y-66905433D01*
X174903497Y-66905433D02*
X174594735Y-66946249D01*
X174594735Y-66946249D02*
X174091278Y-67001672D01*
X174091278Y-67001672D02*
X173587821Y-67057096D01*
X173587821Y-67057096D02*
X173084364Y-67112518D01*
X173084364Y-67112518D02*
X172580906Y-67167941D01*
X172580906Y-67167941D02*
X172405464Y-67188224D01*
X172405464Y-67188224D02*
X172230021Y-67208507D01*
X172230021Y-67208507D02*
X172122276Y-67222589D01*
X172122276Y-67222589D02*
X172014531Y-67236671D01*
X172014531Y-67236671D02*
X171866579Y-67315742D01*
X171866579Y-67315742D02*
X171830173Y-67408023D01*
X171830173Y-67408023D02*
X171825907Y-67480064D01*
X171825907Y-67480064D02*
X171833660Y-67766350D01*
X171833660Y-67766350D02*
X171841412Y-68052636D01*
X171841412Y-68052636D02*
X171841412Y-68417988D01*
X171841412Y-68417988D02*
X171841412Y-68783341D01*
X171841412Y-68783341D02*
X171841412Y-69148693D01*
X171841412Y-69148693D02*
X171841412Y-69514046D01*
X171841412Y-69514046D02*
X171841412Y-69879398D01*
X171841412Y-69879398D02*
X171841412Y-70244751D01*
X171841412Y-70244751D02*
X171851052Y-70531152D01*
X171851052Y-70531152D02*
X171849376Y-70817323D01*
X171849376Y-70817323D02*
X171843553Y-71103843D01*
X171843553Y-71103843D02*
X171839851Y-71390405D01*
X171839851Y-71390405D02*
X171865948Y-74301984D01*
X171865948Y-74301984D02*
X171892045Y-77213564D01*
X171892045Y-77213564D02*
X171918142Y-80125143D01*
X171918142Y-80125143D02*
X171944240Y-83036722D01*
X171944240Y-83036722D02*
X171969302Y-85137498D01*
X171969302Y-85137498D02*
X171994365Y-87238274D01*
X171994365Y-87238274D02*
X172019428Y-89339050D01*
X172019428Y-89339050D02*
X172044490Y-91439825D01*
X172044490Y-91439825D02*
X172057402Y-92113428D01*
X172057402Y-92113428D02*
X172070314Y-92787031D01*
X172070314Y-92787031D02*
X172083238Y-93460633D01*
X172083238Y-93460633D02*
X172096163Y-94134236D01*
X172096163Y-94134236D02*
X172101971Y-94333060D01*
X172101971Y-94333060D02*
X172107779Y-94531884D01*
X172107779Y-94531884D02*
X172113586Y-94730709D01*
X172113586Y-94730709D02*
X172119394Y-94929534D01*
X172119394Y-94929534D02*
X172124553Y-95020614D01*
X172124553Y-95020614D02*
X172129712Y-95111694D01*
X172129712Y-95111694D02*
X172134885Y-95202774D01*
X172134885Y-95202774D02*
X172140058Y-95293855D01*
X172140058Y-95293855D02*
X172164198Y-95376693D01*
X172164198Y-95376693D02*
X172188339Y-95459531D01*
X172188339Y-95459531D02*
X172212478Y-95542370D01*
X172212478Y-95542370D02*
X172236617Y-95625208D01*
X172236617Y-95625208D02*
X172285725Y-95709299D01*
X172285725Y-95709299D02*
X172334833Y-95793390D01*
X172334833Y-95793390D02*
X172383941Y-95877482D01*
X172383941Y-95877482D02*
X172433049Y-95961573D01*
X172433049Y-95961573D02*
X172510162Y-96051567D01*
X172510162Y-96051567D02*
X172587275Y-96141561D01*
X172587275Y-96141561D02*
X172664388Y-96231556D01*
X172664388Y-96231556D02*
X172741501Y-96321552D01*
X172741501Y-96321552D02*
X172849652Y-96422099D01*
X172849652Y-96422099D02*
X172957803Y-96522646D01*
X172957803Y-96522646D02*
X173065954Y-96623194D01*
X173065954Y-96623194D02*
X173174105Y-96723742D01*
X173174105Y-96723742D02*
X173337402Y-96872311D01*
X173337402Y-96872311D02*
X173500699Y-97020880D01*
X173500699Y-97020880D02*
X173663997Y-97169450D01*
X173663997Y-97169450D02*
X173827295Y-97318020D01*
X173827295Y-97318020D02*
X173876517Y-97368921D01*
X173876517Y-97368921D02*
X173925738Y-97419821D01*
X173925738Y-97419821D02*
X173974960Y-97470723D01*
X173974960Y-97470723D02*
X174024182Y-97521625D01*
X174024182Y-97521625D02*
X174052321Y-97586545D01*
X174052321Y-97586545D02*
X174034501Y-97654930D01*
X174034501Y-97654930D02*
X173991481Y-97694333D01*
X173991481Y-97694333D02*
X173948461Y-97733736D01*
X173948461Y-97733736D02*
X173905440Y-97773139D01*
X173905440Y-97773139D02*
X173862418Y-97812542D01*
X173862418Y-97812542D02*
X173719017Y-97923388D01*
X173719017Y-97923388D02*
X173575615Y-98034234D01*
X173575615Y-98034234D02*
X173432213Y-98145080D01*
X173432213Y-98145080D02*
X173288810Y-98255926D01*
X173288810Y-98255926D02*
X173196956Y-98312905D01*
X173196956Y-98312905D02*
X173105102Y-98369884D01*
X173105102Y-98369884D02*
X173013247Y-98426864D01*
X173013247Y-98426864D02*
X172921393Y-98483843D01*
X172921393Y-98483843D02*
X172811811Y-98535379D01*
X172811811Y-98535379D02*
X172702228Y-98586914D01*
X172702228Y-98586914D02*
X172592645Y-98638451D01*
X172592645Y-98638451D02*
X172483061Y-98689988D01*
X172483061Y-98689988D02*
X172355171Y-98736187D01*
X172355171Y-98736187D02*
X172227280Y-98782386D01*
X172227280Y-98782386D02*
X172099390Y-98828586D01*
X172099390Y-98828586D02*
X171971500Y-98874786D01*
X171971500Y-98874786D02*
X171824725Y-98915757D01*
X171824725Y-98915757D02*
X171677950Y-98956728D01*
X171677950Y-98956728D02*
X171531173Y-98997698D01*
X171531173Y-98997698D02*
X171384397Y-99038669D01*
X171384397Y-99038669D02*
X171031878Y-99105349D01*
X171031878Y-99105349D02*
X170679359Y-99172030D01*
X170679359Y-99172030D02*
X170326842Y-99238710D01*
X170326842Y-99238710D02*
X169974324Y-99305390D01*
X169974324Y-99305390D02*
X169539328Y-99352437D01*
X169539328Y-99352437D02*
X169104332Y-99399484D01*
X169104332Y-99399484D02*
X168669336Y-99446531D01*
X168669336Y-99446531D02*
X168234339Y-99493578D01*
X168234339Y-99493578D02*
X168058749Y-99514093D01*
X168058749Y-99514093D02*
X167883158Y-99534609D01*
X167883158Y-99534609D02*
X167707569Y-99555126D01*
X167707569Y-99555126D02*
X167531979Y-99575644D01*
X167531979Y-99575644D02*
X167332143Y-99609674D01*
X167332143Y-99609674D02*
X167132308Y-99643705D01*
X167132308Y-99643705D02*
X166932473Y-99677734D01*
X166932473Y-99677734D02*
X166732639Y-99711764D01*
X166732639Y-99711764D02*
X166532833Y-99754629D01*
X166532833Y-99754629D02*
X166333028Y-99797494D01*
X166333028Y-99797494D02*
X166133224Y-99840360D01*
X166133224Y-99840360D02*
X165933420Y-99883227D01*
X165933420Y-99883227D02*
X165757920Y-99930250D01*
X165757920Y-99930250D02*
X165582421Y-99977273D01*
X165582421Y-99977273D02*
X165406921Y-100024296D01*
X165406921Y-100024296D02*
X165231422Y-100071319D01*
X165231422Y-100071319D02*
X165032550Y-100138842D01*
X165032550Y-100138842D02*
X164833679Y-100206365D01*
X164833679Y-100206365D02*
X164634808Y-100273888D01*
X164634808Y-100273888D02*
X164435936Y-100341411D01*
X164435936Y-100341411D02*
X164282257Y-100412760D01*
X164282257Y-100412760D02*
X164128578Y-100484109D01*
X164128578Y-100484109D02*
X163974898Y-100555456D01*
X163974898Y-100555456D02*
X163821219Y-100626804D01*
X163821219Y-100626804D02*
X163686493Y-100716631D01*
X163686493Y-100716631D02*
X163551768Y-100806459D01*
X163551768Y-100806459D02*
X163417042Y-100896286D01*
X163417042Y-100896286D02*
X163282316Y-100986113D01*
X163282316Y-100986113D02*
X163140302Y-101109073D01*
X163140302Y-101109073D02*
X162998288Y-101232033D01*
X162998288Y-101232033D02*
X162856276Y-101354993D01*
X162856276Y-101354993D02*
X162714263Y-101477953D01*
X162714263Y-101477953D02*
X162574618Y-101612985D01*
X162574618Y-101612985D02*
X162434972Y-101748018D01*
X162434972Y-101748018D02*
X162295327Y-101883052D01*
X162295327Y-101883052D02*
X162155683Y-102018086D01*
X162155683Y-102018086D02*
X162082809Y-102111849D01*
X162082809Y-102111849D02*
X162009935Y-102205612D01*
X162009935Y-102205612D02*
X161937059Y-102299377D01*
X161937059Y-102299377D02*
X161864184Y-102393141D01*
X161864184Y-102393141D02*
X161847732Y-102435070D01*
X161847732Y-102435070D02*
X161831280Y-102476998D01*
X161831280Y-102476998D02*
X161814830Y-102518928D01*
X161814830Y-102518928D02*
X161798379Y-102560858D01*
X161798379Y-102560858D02*
X161792810Y-102604247D01*
X161792810Y-102604247D02*
X161787240Y-102647636D01*
X161787240Y-102647636D02*
X161781684Y-102691026D01*
X161781684Y-102691026D02*
X161776128Y-102734417D01*
X161776128Y-102734417D02*
X161788060Y-102840042D01*
X161788060Y-102840042D02*
X161799993Y-102945668D01*
X161799993Y-102945668D02*
X161811926Y-103051293D01*
X161811926Y-103051293D02*
X161823859Y-103156919D01*
X161823859Y-103156919D02*
X162115760Y-104559252D01*
X162115760Y-104559252D02*
X162407662Y-105961584D01*
X162407662Y-105961584D02*
X162699565Y-107363917D01*
X162699565Y-107363917D02*
X162991467Y-108766250D01*
X162991467Y-108766250D02*
X163528972Y-111255927D01*
X156037888Y-122054025D02*
X156063697Y-122083384D01*
X156063697Y-122083384D02*
X156074320Y-122124435D01*
X156074320Y-122124435D02*
X156084943Y-122165485D01*
X156084943Y-122165485D02*
X156095566Y-122206535D01*
X156095566Y-122206535D02*
X156106189Y-122247585D01*
X156106189Y-122247585D02*
X156101929Y-122387112D01*
X156101929Y-122387112D02*
X156097669Y-122526638D01*
X156097669Y-122526638D02*
X156093410Y-122666165D01*
X156093410Y-122666165D02*
X156089150Y-122805692D01*
X156089150Y-122805692D02*
X156077283Y-122927135D01*
X156077283Y-122927135D02*
X156065417Y-123048579D01*
X156065417Y-123048579D02*
X156053563Y-123170023D01*
X156053563Y-123170023D02*
X156041710Y-123291467D01*
X156041710Y-123291467D02*
X156017782Y-123359675D01*
X156017782Y-123359675D02*
X155993855Y-123427883D01*
X155993855Y-123427883D02*
X155969929Y-123496091D01*
X155969929Y-123496091D02*
X155946002Y-123564300D01*
X155946002Y-123564300D02*
X155894349Y-123604745D01*
X155894349Y-123604745D02*
X155842696Y-123645191D01*
X155842696Y-123645191D02*
X155791043Y-123685635D01*
X155791043Y-123685635D02*
X155739389Y-123726079D01*
X155739389Y-123726079D02*
X155641052Y-123762891D01*
X155641052Y-123762891D02*
X155542714Y-123799702D01*
X155542714Y-123799702D02*
X155444376Y-123836514D01*
X155444376Y-123836514D02*
X155346038Y-123873325D01*
X155346038Y-123873325D02*
X155167724Y-123922800D01*
X155167724Y-123922800D02*
X154989409Y-123972274D01*
X154989409Y-123972274D02*
X154811095Y-124021750D01*
X154811095Y-124021750D02*
X154632780Y-124071225D01*
X154632780Y-124071225D02*
X154454786Y-124108438D01*
X154454786Y-124108438D02*
X154276791Y-124145650D01*
X154276791Y-124145650D02*
X154098797Y-124182862D01*
X154098797Y-124182862D02*
X153920802Y-124220075D01*
X153920802Y-124220075D02*
X153827656Y-124230896D01*
X153827656Y-124230896D02*
X153734509Y-124241718D01*
X153734509Y-124241718D02*
X153641364Y-124252539D01*
X153641364Y-124252539D02*
X153548219Y-124263361D01*
X153548219Y-124263361D02*
X153489694Y-124257699D01*
X153489694Y-124257699D02*
X153431170Y-124252036D01*
X153431170Y-124252036D02*
X153372646Y-124246374D01*
X153372646Y-124246374D02*
X153314123Y-124240712D01*
X153314123Y-124240712D02*
X153275888Y-124215718D01*
X153275888Y-124215718D02*
X153237653Y-124190725D01*
X153237653Y-124190725D02*
X153199418Y-124165732D01*
X153199418Y-124165732D02*
X153161183Y-124140739D01*
X153161183Y-124140739D02*
X153127718Y-124089897D01*
X153127718Y-124089897D02*
X153094252Y-124039055D01*
X153094252Y-124039055D02*
X153060785Y-123988214D01*
X153060785Y-123988214D02*
X153027318Y-123937373D01*
X153027318Y-123937373D02*
X152981325Y-123785444D01*
X152981325Y-123785444D02*
X152935332Y-123633515D01*
X152935332Y-123633515D02*
X152889341Y-123481586D01*
X152889341Y-123481586D02*
X152843350Y-123329657D01*
X152843350Y-123329657D02*
X152809502Y-123106414D01*
X152809502Y-123106414D02*
X152775654Y-122883172D01*
X152775654Y-122883172D02*
X152741806Y-122659930D01*
X152741806Y-122659930D02*
X152707958Y-122436688D01*
X152707958Y-122436688D02*
X152697229Y-122258275D01*
X152697229Y-122258275D02*
X152686500Y-122079863D01*
X152686500Y-122079863D02*
X152675784Y-121901450D01*
X152675784Y-121901450D02*
X152665069Y-121723038D01*
X152665069Y-121723038D02*
X152674752Y-121675109D01*
X152674752Y-121675109D02*
X152684436Y-121627179D01*
X152684436Y-121627179D02*
X152694120Y-121579249D01*
X152694120Y-121579249D02*
X152703804Y-121531318D01*
X152703804Y-121531318D02*
X152727703Y-121506126D01*
X152727703Y-121506126D02*
X152751603Y-121480934D01*
X152751603Y-121480934D02*
X152775504Y-121455741D01*
X152775504Y-121455741D02*
X152799405Y-121430549D01*
X152799405Y-121430549D02*
X152847476Y-121420310D01*
X152847476Y-121420310D02*
X152895547Y-121410070D01*
X152895547Y-121410070D02*
X152943619Y-121399831D01*
X152943619Y-121399831D02*
X152991691Y-121389591D01*
X152991691Y-121389591D02*
X153071389Y-121393640D01*
X153071389Y-121393640D02*
X153151087Y-121397688D01*
X153151087Y-121397688D02*
X153230786Y-121401736D01*
X153230786Y-121401736D02*
X153310485Y-121405784D01*
X153310485Y-121405784D02*
X153310472Y-121405776D01*
X153310472Y-121405776D02*
X153310493Y-121405776D01*
X153310493Y-121405776D02*
X153582311Y-121450476D01*
X153582311Y-121450476D02*
X153854130Y-121495176D01*
X153854130Y-121495176D02*
X154125948Y-121539876D01*
X154125948Y-121539876D02*
X154397767Y-121584576D01*
X154397767Y-121584576D02*
X154661999Y-121634621D01*
X154661999Y-121634621D02*
X154926232Y-121684665D01*
X154926232Y-121684665D02*
X155190463Y-121734710D01*
X155190463Y-121734710D02*
X155454695Y-121784755D01*
X155454695Y-121784755D02*
X155532595Y-121806259D01*
X155532595Y-121806259D02*
X155610495Y-121827763D01*
X155610495Y-121827763D02*
X155688395Y-121849267D01*
X155688395Y-121849267D02*
X155766295Y-121870771D01*
X155766295Y-121870771D02*
X155814836Y-121894565D01*
X155814836Y-121894565D02*
X155863378Y-121918359D01*
X155863378Y-121918359D02*
X155911920Y-121942154D01*
X155911920Y-121942154D02*
X155960462Y-121965949D01*
X155960462Y-121965949D02*
X155986271Y-121995307D01*
X155986271Y-121995307D02*
X156012079Y-122024666D01*
X156012079Y-122024666D02*
X156037888Y-122054025D01*
X163528972Y-111255927D02*
X164066477Y-113745605D01*
X164066477Y-113745605D02*
X164603981Y-116235282D01*
X164603981Y-116235282D02*
X165141485Y-118724960D01*
X165141485Y-118724960D02*
X165668584Y-121125975D01*
X165668584Y-121125975D02*
X166195683Y-123526991D01*
X166195683Y-123526991D02*
X166722783Y-125928008D01*
X166722783Y-125928008D02*
X167249883Y-128329025D01*
X167249883Y-128329025D02*
X167429458Y-129128330D01*
X167429458Y-129128330D02*
X167609034Y-129927635D01*
X167609034Y-129927635D02*
X167788610Y-130726939D01*
X167788610Y-130726939D02*
X167968187Y-131526244D01*
X167968187Y-131526244D02*
X168022964Y-131761243D01*
X168022964Y-131761243D02*
X168077741Y-131996242D01*
X168077741Y-131996242D02*
X168132517Y-132231241D01*
X168132517Y-132231241D02*
X168187294Y-132466240D01*
X168187294Y-132466240D02*
X168204218Y-132534712D01*
X168204218Y-132534712D02*
X168221142Y-132603183D01*
X168221142Y-132603183D02*
X168238066Y-132671655D01*
X168238066Y-132671655D02*
X168254990Y-132740126D01*
X168254990Y-132740126D02*
X168264555Y-132773585D01*
X168264555Y-132773585D02*
X168274120Y-132807045D01*
X168274120Y-132807045D02*
X168283684Y-132840505D01*
X168283684Y-132840505D02*
X168293249Y-132873966D01*
X168293249Y-132873966D02*
X168309520Y-132912986D01*
X168309520Y-132912986D02*
X168325790Y-132952007D01*
X168325790Y-132952007D02*
X168342061Y-132991029D01*
X168342061Y-132991029D02*
X168358331Y-133030051D01*
X168358331Y-133030051D02*
X168380946Y-133061309D01*
X168380946Y-133061309D02*
X168403562Y-133092567D01*
X168403562Y-133092567D02*
X168426178Y-133123826D01*
X168426178Y-133123826D02*
X168448795Y-133155085D01*
X168448795Y-133155085D02*
X168485897Y-133177666D01*
X168485897Y-133177666D02*
X168523000Y-133200247D01*
X168523000Y-133200247D02*
X168560102Y-133222829D01*
X168560102Y-133222829D02*
X168597205Y-133245412D01*
X168597205Y-133245412D02*
X168655317Y-133259780D01*
X168655317Y-133259780D02*
X168713428Y-133274148D01*
X168713428Y-133274148D02*
X168771540Y-133288515D01*
X168771540Y-133288515D02*
X168829652Y-133302882D01*
X168829652Y-133302882D02*
X169042997Y-133315608D01*
X169042997Y-133315608D02*
X169256343Y-133328335D01*
X169256343Y-133328335D02*
X169469690Y-133341061D01*
X169469690Y-133341061D02*
X169683036Y-133353787D01*
X169683036Y-133353787D02*
X170086578Y-133355534D01*
X170086578Y-133355534D02*
X170490119Y-133357280D01*
X170490119Y-133357280D02*
X170893660Y-133359013D01*
X170893660Y-133359013D02*
X171297201Y-133360746D01*
X171297201Y-133360746D02*
X171983464Y-133360746D01*
X171983464Y-133360746D02*
X172669727Y-133360746D01*
X172669727Y-133360746D02*
X173193327Y-133360746D01*
X173193327Y-133360746D02*
X173716927Y-133360746D01*
X173716927Y-133360746D02*
X173879590Y-133360746D01*
X173879590Y-133360746D02*
X174042253Y-133360746D01*
X174042253Y-133360746D02*
X174047651Y-133523064D01*
X174047651Y-133523064D02*
X174053048Y-133685382D01*
X174053048Y-133685382D02*
X174079562Y-134482824D01*
X174079562Y-134482824D02*
X174106076Y-135280266D01*
X174106076Y-135280266D02*
X174137986Y-136240026D01*
X174137986Y-136240026D02*
X174169896Y-137199787D01*
X174169896Y-137199787D02*
X174201219Y-137928669D01*
X174201219Y-137928669D02*
X174232541Y-138657551D01*
X174232541Y-138657551D02*
X174263864Y-139386433D01*
X174263864Y-139386433D02*
X174295187Y-140115315D01*
X174295187Y-140115315D02*
X174336340Y-140587652D01*
X174336340Y-140587652D02*
X174377493Y-141059988D01*
X174377493Y-141059988D02*
X174418647Y-141532325D01*
X174418647Y-141532325D02*
X174459800Y-142004662D01*
X174459800Y-142004662D02*
X174486840Y-142165217D01*
X174486840Y-142165217D02*
X174513881Y-142325771D01*
X174513881Y-142325771D02*
X174540921Y-142486325D01*
X174540921Y-142486325D02*
X174567962Y-142646880D01*
X174567962Y-142646880D02*
X174600958Y-142767980D01*
X174600958Y-142767980D02*
X174633954Y-142889079D01*
X174633954Y-142889079D02*
X174666950Y-143010179D01*
X174666950Y-143010179D02*
X174699946Y-143131279D01*
X174699946Y-143131279D02*
X174740131Y-143220814D01*
X174740131Y-143220814D02*
X174780316Y-143310349D01*
X174780316Y-143310349D02*
X174820502Y-143399885D01*
X174820502Y-143399885D02*
X174860689Y-143489422D01*
X174860689Y-143489422D02*
X174909294Y-143555284D01*
X174909294Y-143555284D02*
X174957899Y-143621147D01*
X174957899Y-143621147D02*
X175006506Y-143687011D01*
X175006506Y-143687011D02*
X175055112Y-143752875D01*
X175055112Y-143752875D02*
X175113149Y-143803870D01*
X175113149Y-143803870D02*
X175171185Y-143854864D01*
X175171185Y-143854864D02*
X175229220Y-143905859D01*
X175229220Y-143905859D02*
X175287255Y-143956853D01*
X175287255Y-143956853D02*
X175361360Y-144003952D01*
X175361360Y-144003952D02*
X175435464Y-144051050D01*
X175435464Y-144051050D02*
X175509569Y-144098150D01*
X175509569Y-144098150D02*
X175583673Y-144145250D01*
X175583673Y-144145250D02*
X175775885Y-144226669D01*
X175775885Y-144226669D02*
X175968097Y-144308087D01*
X175968097Y-144308087D02*
X176160310Y-144389508D01*
X176160310Y-144389508D02*
X176352523Y-144470928D01*
X176352523Y-144470928D02*
X176596403Y-144533483D01*
X176596403Y-144533483D02*
X176840283Y-144596039D01*
X176840283Y-144596039D02*
X177084164Y-144658596D01*
X177084164Y-144658596D02*
X177328045Y-144721152D01*
X177328045Y-144721152D02*
X177615186Y-144762658D01*
X177615186Y-144762658D02*
X177902328Y-144804163D01*
X177902328Y-144804163D02*
X178189468Y-144845668D01*
X178189468Y-144845668D02*
X178476609Y-144887173D01*
X178476609Y-144887173D02*
X178782275Y-144917403D01*
X178782275Y-144917403D02*
X179087942Y-144947633D01*
X179087942Y-144947633D02*
X179393608Y-144977864D01*
X179393608Y-144977864D02*
X179699275Y-145008096D01*
X179699275Y-145008096D02*
X179699275Y-145244903D01*
X179699275Y-145244903D02*
X179699275Y-145481710D01*
X179699275Y-145481710D02*
X179699275Y-145718518D01*
X179699275Y-145718518D02*
X179699275Y-145955325D01*
X179699275Y-145955325D02*
X179690874Y-146150532D01*
X179690874Y-146150532D02*
X179682474Y-146345739D01*
X179682474Y-146345739D02*
X179674073Y-146540947D01*
X179674073Y-146540947D02*
X179665673Y-146736155D01*
X179665673Y-146736155D02*
X179646423Y-146857853D01*
X179646423Y-146857853D02*
X179627173Y-146979551D01*
X179627173Y-146979551D02*
X179607925Y-147101250D01*
X179607925Y-147101250D02*
X179588676Y-147222949D01*
X179588676Y-147222949D02*
X179563614Y-147238710D01*
X179563614Y-147238710D02*
X179538551Y-147254472D01*
X179538551Y-147254472D02*
X179513487Y-147270233D01*
X179513487Y-147270233D02*
X179488423Y-147285994D01*
X179488423Y-147285994D02*
X179392951Y-147302918D01*
X179392951Y-147302918D02*
X179297479Y-147319842D01*
X179297479Y-147319842D02*
X179202006Y-147336766D01*
X179202006Y-147336766D02*
X179106534Y-147353690D01*
X179106534Y-147353690D02*
X178585506Y-147375910D01*
X178585506Y-147375910D02*
X178064478Y-147398130D01*
X178064478Y-147398130D02*
X177543451Y-147420351D01*
X177543451Y-147420351D02*
X177022424Y-147442572D01*
X177022424Y-147442572D02*
X175851692Y-147452388D01*
X175851692Y-147452388D02*
X174680960Y-147462204D01*
X174680960Y-147462204D02*
X173510226Y-147472020D01*
X173510226Y-147472020D02*
X172339493Y-147481836D01*
X172339493Y-147481836D02*
X170263008Y-147484032D01*
X170263008Y-147484032D02*
X168186524Y-147486228D01*
X168186524Y-147486228D02*
X166110038Y-147488424D01*
X166110038Y-147488424D02*
X164033553Y-147490620D01*
X164033553Y-147490620D02*
X160172554Y-147490620D01*
X160172554Y-147490620D02*
X156311556Y-147490620D01*
X156311556Y-147490620D02*
X152450559Y-147490620D01*
X152450559Y-147490620D02*
X148589562Y-147490620D01*
X148589562Y-147490620D02*
X148561139Y-147283267D01*
X148561139Y-147283267D02*
X148532716Y-147075915D01*
X148532716Y-147075915D02*
X148504295Y-146868564D01*
X148504295Y-146868564D02*
X148475873Y-146661212D01*
X148475873Y-146661212D02*
X148455039Y-146366895D01*
X148455039Y-146366895D02*
X148434204Y-146072578D01*
X148434204Y-146072578D02*
X148413371Y-145778261D01*
X148413371Y-145778261D02*
X148392537Y-145483943D01*
X148392537Y-145483943D02*
X148383793Y-145078174D01*
X148383793Y-145078174D02*
X148375048Y-144672405D01*
X148375048Y-144672405D02*
X148366291Y-144266637D01*
X148366291Y-144266637D02*
X148357533Y-143860868D01*
X148357533Y-143860868D02*
X148357533Y-143376271D01*
X148357533Y-143376271D02*
X148357533Y-142891675D01*
X148357533Y-142891675D02*
X148357533Y-142563671D01*
X148357533Y-142563671D02*
X148357533Y-142235667D01*
X148357533Y-142235667D02*
X148336304Y-142093577D01*
X148336304Y-142093577D02*
X148273263Y-141987869D01*
X148273263Y-141987869D02*
X148162001Y-141907668D01*
X148162001Y-141907668D02*
X148036138Y-141878033D01*
X148036138Y-141878033D02*
X146537349Y-141878033D01*
X146537349Y-141878033D02*
X145038560Y-141878033D01*
X145038560Y-141878033D02*
X143401580Y-141878033D01*
X143401580Y-141878033D02*
X141764601Y-141878033D01*
X141764601Y-141878033D02*
X140127621Y-141878033D01*
X140127621Y-141878033D02*
X138490641Y-141878033D01*
X138490641Y-141878033D02*
X136999008Y-141878033D01*
X136999008Y-141878033D02*
X135507374Y-141878033D01*
X135507374Y-141878033D02*
X135391407Y-141901879D01*
X135391407Y-141901879D02*
X135265934Y-141980549D01*
X135265934Y-141980549D02*
X135199715Y-142079909D01*
X135199715Y-142079909D02*
X135171496Y-142224160D01*
X135171496Y-142224160D02*
X135171364Y-142459215D01*
X135171364Y-142459215D02*
X135171232Y-142694269D01*
X135171232Y-142694269D02*
X135170967Y-143080164D01*
X135170967Y-143080164D02*
X135170703Y-143466059D01*
X135170703Y-143466059D02*
X135161707Y-143830849D01*
X135161707Y-143830849D02*
X135152711Y-144195640D01*
X135152711Y-144195640D02*
X135143715Y-144560431D01*
X135143715Y-144560431D02*
X135134719Y-144925223D01*
X135134719Y-144925223D02*
X135113617Y-145260906D01*
X135113617Y-145260906D02*
X135092516Y-145596590D01*
X135092516Y-145596590D02*
X135071414Y-145932272D01*
X135071414Y-145932272D02*
X135050312Y-146267954D01*
X135050312Y-146267954D02*
X135021373Y-146573621D01*
X135021373Y-146573621D02*
X134992434Y-146879287D01*
X134992434Y-146879287D02*
X134963495Y-147184954D01*
X134963495Y-147184954D02*
X134934557Y-147490620D01*
X134934557Y-147490620D02*
X131046008Y-147490620D01*
X131046008Y-147490620D02*
X127157459Y-147490620D01*
X127157459Y-147490620D02*
X123268936Y-147490620D01*
X123268936Y-147490620D02*
X119380413Y-147490620D01*
X119380413Y-147490620D02*
X115492795Y-147490620D01*
X115492795Y-147490620D02*
X111605177Y-147490620D01*
X111605177Y-147490620D02*
X107717559Y-147490620D01*
X107717559Y-147490620D02*
X103829940Y-147490620D01*
X103829940Y-147490620D02*
X103829940Y-147179786D01*
X103829940Y-147179786D02*
X103829940Y-146868952D01*
X103829940Y-146868952D02*
X103829940Y-146558119D01*
X103829940Y-146558119D02*
X103829940Y-146247285D01*
X103829940Y-146247285D02*
X103829940Y-145935418D01*
X103829940Y-145935418D02*
X103829940Y-145623551D01*
X103829940Y-145623551D02*
X103829940Y-145311682D01*
X103829940Y-145311682D02*
X103829940Y-144999814D01*
X103829940Y-144999814D02*
X104135607Y-144969325D01*
X104135607Y-144969325D02*
X104441273Y-144938836D01*
X104441273Y-144938836D02*
X104746940Y-144908348D01*
X104746940Y-144908348D02*
X105052607Y-144877860D01*
X105052607Y-144877860D02*
X105342616Y-144836028D01*
X105342616Y-144836028D02*
X105632625Y-144794196D01*
X105632625Y-144794196D02*
X105922634Y-144752364D01*
X105922634Y-144752364D02*
X106212643Y-144710532D01*
X106212643Y-144710532D02*
X106456826Y-144648150D01*
X106456826Y-144648150D02*
X106701008Y-144585768D01*
X106701008Y-144585768D02*
X106945191Y-144523387D01*
X106945191Y-144523387D02*
X107189374Y-144461006D01*
X107189374Y-144461006D02*
X107380886Y-144379774D01*
X107380886Y-144379774D02*
X107572398Y-144298541D01*
X107572398Y-144298541D02*
X107763910Y-144217309D01*
X107763910Y-144217309D02*
X107955422Y-144136077D01*
X107955422Y-144136077D02*
X108029287Y-144088921D01*
X108029287Y-144088921D02*
X108103152Y-144041766D01*
X108103152Y-144041766D02*
X108177018Y-143994610D01*
X108177018Y-143994610D02*
X108250883Y-143947455D01*
X108250883Y-143947455D02*
X108309014Y-143896223D01*
X108309014Y-143896223D02*
X108367144Y-143844990D01*
X108367144Y-143844990D02*
X108425275Y-143793759D01*
X108425275Y-143793759D02*
X108483406Y-143742527D01*
X108483406Y-143742527D02*
X108530140Y-143678675D01*
X108530140Y-143678675D02*
X108576875Y-143614824D01*
X108576875Y-143614824D02*
X108623609Y-143550970D01*
X108623609Y-143550970D02*
X108670344Y-143487117D01*
X108670344Y-143487117D02*
X108709017Y-143398818D01*
X108709017Y-143398818D02*
X108747690Y-143310518D01*
X108747690Y-143310518D02*
X108786363Y-143222219D01*
X108786363Y-143222219D02*
X108825035Y-143133920D01*
X108825035Y-143133920D02*
X108856919Y-143012595D01*
X108856919Y-143012595D02*
X108888804Y-142891270D01*
X108888804Y-142891270D02*
X108920688Y-142769944D01*
X108920688Y-142769944D02*
X108952572Y-142648618D01*
X108952572Y-142648618D02*
X108978940Y-142485688D01*
X108978940Y-142485688D02*
X109005309Y-142322757D01*
X109005309Y-142322757D02*
X109031678Y-142159827D01*
X109031678Y-142159827D02*
X109058046Y-141996897D01*
X109058046Y-141996897D02*
X109099340Y-141510653D01*
X109099340Y-141510653D02*
X109140633Y-141024410D01*
X109140633Y-141024410D02*
X109181927Y-140538168D01*
X109181927Y-140538168D02*
X109223220Y-140051926D01*
X109223220Y-140051926D02*
X109257116Y-139292250D01*
X109257116Y-139292250D02*
X109291012Y-138532575D01*
X109291012Y-138532575D02*
X109324908Y-137772899D01*
X109324908Y-137772899D02*
X109358803Y-137013224D01*
X109358803Y-137013224D02*
X109391747Y-136100102D01*
X109391747Y-136100102D02*
X109424691Y-135186980D01*
X109424691Y-135186980D02*
X109457635Y-134273856D01*
X109457635Y-134273856D02*
X109490579Y-133360733D01*
X109490579Y-133360733D02*
X110176454Y-133360733D01*
X110176454Y-133360733D02*
X110862330Y-133360733D01*
X110862330Y-133360733D02*
X111548205Y-133360733D01*
X111548205Y-133360733D02*
X112234081Y-133360733D01*
X112234081Y-133360733D02*
X112630338Y-133358788D01*
X112630338Y-133358788D02*
X113026595Y-133356843D01*
X113026595Y-133356843D02*
X113422852Y-133354899D01*
X113422852Y-133354899D02*
X113819109Y-133352954D01*
X113819109Y-133352954D02*
X114032762Y-133340691D01*
X114032762Y-133340691D02*
X114246416Y-133328427D01*
X114246416Y-133328427D02*
X114460070Y-133316164D01*
X114460070Y-133316164D02*
X114673724Y-133303900D01*
X114673724Y-133303900D02*
X114733024Y-133290639D01*
X114733024Y-133290639D02*
X114792324Y-133277378D01*
X114792324Y-133277378D02*
X114851623Y-133264118D01*
X114851623Y-133264118D02*
X114910923Y-133250857D01*
X114910923Y-133250857D02*
X114949292Y-133230269D01*
X114949292Y-133230269D02*
X114987660Y-133209682D01*
X114987660Y-133209682D02*
X115026029Y-133189096D01*
X115026029Y-133189096D02*
X115064397Y-133168510D01*
X115064397Y-133168510D02*
X115087913Y-133139818D01*
X115087913Y-133139818D02*
X115111430Y-133111125D01*
X115111430Y-133111125D02*
X115134946Y-133082433D01*
X115134946Y-133082433D02*
X115158462Y-133053742D01*
X115158462Y-133053742D02*
X115174220Y-133018096D01*
X115174220Y-133018096D02*
X115189978Y-132982450D01*
X115189978Y-132982450D02*
X115205736Y-132946805D01*
X115205736Y-132946805D02*
X115221494Y-132911161D01*
X115221494Y-132911161D02*
X115231570Y-132875504D01*
X115231570Y-132875504D02*
X115241647Y-132839848D01*
X115241647Y-132839848D02*
X115251724Y-132804191D01*
X115251724Y-132804191D02*
X115261800Y-132768534D01*
X115261800Y-132768534D02*
X115279887Y-132694766D01*
X115279887Y-132694766D02*
X115297973Y-132620998D01*
X115297973Y-132620998D02*
X115316059Y-132547229D01*
X115316059Y-132547229D02*
X115334145Y-132473461D01*
X115334145Y-132473461D02*
X115393186Y-132218568D01*
X115393186Y-132218568D02*
X115452226Y-131963675D01*
X115452226Y-131963675D02*
X115511267Y-131708780D01*
X115511267Y-131708780D02*
X115570307Y-131453886D01*
X115570307Y-131453886D02*
X115763965Y-130588951D01*
X115763965Y-130588951D02*
X115957623Y-129724016D01*
X115957623Y-129724016D02*
X116151280Y-128859083D01*
X116151280Y-128859083D02*
X116344938Y-127994150D01*
X116344938Y-127994150D02*
X116906532Y-125429576D01*
X116906532Y-125429576D02*
X117468125Y-122865003D01*
X117468125Y-122865003D02*
X118029718Y-120300432D01*
X118029718Y-120300432D02*
X118591312Y-117735860D01*
X118591312Y-117735860D02*
X119142312Y-115178264D01*
X119142312Y-115178264D02*
X119693312Y-112620668D01*
X119693312Y-112620668D02*
X120244312Y-110063073D01*
X120244312Y-110063073D02*
X120795312Y-107505478D01*
X120795312Y-107505478D02*
X120975662Y-106649199D01*
X120975662Y-106649199D02*
X121156013Y-105792920D01*
X121156013Y-105792920D02*
X121336364Y-104936641D01*
X121336364Y-104936641D02*
X121516714Y-104080362D01*
X121516714Y-104080362D02*
X121567228Y-103831153D01*
X121567228Y-103831153D02*
X121617741Y-103581943D01*
X121617741Y-103581943D02*
X121668255Y-103332733D01*
X121668255Y-103332733D02*
X121718768Y-103083524D01*
X121718768Y-103083524D02*
X121732075Y-103012857D01*
X121732075Y-103012857D02*
X121745382Y-102942191D01*
X121745382Y-102942191D02*
X121758688Y-102871524D01*
X121758688Y-102871524D02*
X121771995Y-102800856D01*
X121771995Y-102800856D02*
X121776645Y-102767911D01*
X121776645Y-102767911D02*
X121781295Y-102734967D01*
X121781295Y-102734967D02*
X121785945Y-102702024D01*
X121785945Y-102702024D02*
X121790595Y-102669080D01*
X121790595Y-102669080D02*
X121784009Y-102636425D01*
X121784009Y-102636425D02*
X121777424Y-102603771D01*
X121777424Y-102603771D02*
X121770838Y-102571117D01*
X121770838Y-102571117D02*
X121764253Y-102538463D01*
X121764253Y-102538463D02*
X121746033Y-102502258D01*
X121746033Y-102502258D02*
X121727814Y-102466052D01*
X121727814Y-102466052D02*
X121709594Y-102429848D01*
X121709594Y-102429848D02*
X121691375Y-102393644D01*
X121691375Y-102393644D02*
X121626650Y-102310316D01*
X121626650Y-102310316D02*
X121561925Y-102226988D01*
X121561925Y-102226988D02*
X121497200Y-102143660D01*
X121497200Y-102143660D02*
X121432475Y-102060332D01*
X121432475Y-102060332D02*
X121337354Y-101966589D01*
X121337354Y-101966589D02*
X121242233Y-101872846D01*
X121242233Y-101872846D02*
X121147112Y-101779103D01*
X121147112Y-101779103D02*
X121051991Y-101685360D01*
X121051991Y-101685360D02*
X120935497Y-101587899D01*
X120935497Y-101587899D02*
X120819003Y-101490438D01*
X120819003Y-101490438D02*
X120702509Y-101392979D01*
X120702509Y-101392979D02*
X120586014Y-101295520D01*
X120586014Y-101295520D02*
X120457422Y-101201392D01*
X120457422Y-101201392D02*
X120328829Y-101107263D01*
X120328829Y-101107263D02*
X120200236Y-101013135D01*
X120200236Y-101013135D02*
X120071643Y-100919007D01*
X120071643Y-100919007D02*
X119940050Y-100835417D01*
X119940050Y-100835417D02*
X119808456Y-100751828D01*
X119808456Y-100751828D02*
X119676862Y-100668238D01*
X119676862Y-100668238D02*
X119545268Y-100584648D01*
X119545268Y-100584648D02*
X119419550Y-100518829D01*
X119419550Y-100518829D02*
X119293832Y-100453010D01*
X119293832Y-100453010D02*
X119168114Y-100387192D01*
X119168114Y-100387192D02*
X119042396Y-100321374D01*
X119042396Y-100321374D02*
X118931432Y-100280561D01*
X118931432Y-100280561D02*
X118820467Y-100239748D01*
X118820467Y-100239748D02*
X118709503Y-100198934D01*
X118709503Y-100198934D02*
X118598539Y-100158121D01*
X118598539Y-100158121D02*
X118266518Y-100062778D01*
X118266518Y-100062778D02*
X117934497Y-99967436D01*
X117934497Y-99967436D02*
X117602476Y-99872093D01*
X117602476Y-99872093D02*
X117270455Y-99776751D01*
X117270455Y-99776751D02*
X117075893Y-99739931D01*
X117075893Y-99739931D02*
X116881332Y-99703112D01*
X116881332Y-99703112D02*
X116686771Y-99666292D01*
X116686771Y-99666292D02*
X116492209Y-99629473D01*
X116492209Y-99629473D02*
X116192874Y-99598080D01*
X116192874Y-99598080D02*
X115893538Y-99566687D01*
X115893538Y-99566687D02*
X115594202Y-99535293D01*
X115594202Y-99535293D02*
X115294867Y-99503899D01*
X115294867Y-99503899D02*
X114975981Y-99471818D01*
X114975981Y-99471818D02*
X114657095Y-99439738D01*
X114657095Y-99439738D02*
X114338209Y-99407657D01*
X114338209Y-99407657D02*
X114019324Y-99375576D01*
X114019324Y-99375576D02*
X113778554Y-99337765D01*
X113778554Y-99337765D02*
X113537783Y-99299953D01*
X113537783Y-99299953D02*
X113297013Y-99262141D01*
X113297013Y-99262141D02*
X113056243Y-99224330D01*
X113056243Y-99224330D02*
X112700709Y-99155341D01*
X112700709Y-99155341D02*
X112345175Y-99086352D01*
X112345175Y-99086352D02*
X111989641Y-99017365D01*
X111989641Y-99017365D02*
X111634108Y-98948377D01*
X111634108Y-98948377D02*
X111554701Y-98925624D01*
X111554701Y-98925624D02*
X111475295Y-98902872D01*
X111475295Y-98902872D02*
X111395888Y-98880119D01*
X111395888Y-98880119D02*
X111316482Y-98857366D01*
X111316482Y-98857366D02*
X111223560Y-98814331D01*
X111223560Y-98814331D02*
X111130638Y-98771297D01*
X111130638Y-98771297D02*
X111037717Y-98728264D01*
X111037717Y-98728264D02*
X110944795Y-98685231D01*
X110944795Y-98685231D02*
X110848153Y-98626902D01*
X110848153Y-98626902D02*
X110751510Y-98568573D01*
X110751510Y-98568573D02*
X110654868Y-98510245D01*
X110654868Y-98510245D02*
X110558226Y-98451916D01*
X110558226Y-98451916D02*
X110467657Y-98383278D01*
X110467657Y-98383278D02*
X110377089Y-98314639D01*
X110377089Y-98314639D02*
X110286520Y-98246002D01*
X110286520Y-98246002D02*
X110195952Y-98177366D01*
X110195952Y-98177366D02*
X110008496Y-98016909D01*
X110008496Y-98016909D02*
X109821040Y-97856452D01*
X109821040Y-97856452D02*
X109678925Y-97734808D01*
X109678925Y-97734808D02*
X109536810Y-97613163D01*
X109536810Y-97613163D02*
X109506474Y-97534968D01*
X109506474Y-97534968D02*
X109535249Y-97455678D01*
X109535249Y-97455678D02*
X109729169Y-97281928D01*
X109729169Y-97281928D02*
X109923089Y-97108179D01*
X109923089Y-97108179D02*
X110161575Y-96894498D01*
X110161575Y-96894498D02*
X110400062Y-96680816D01*
X110400062Y-96680816D02*
X110648109Y-96458736D01*
X110648109Y-96458736D02*
X110896156Y-96236655D01*
X110896156Y-96236655D02*
X111144203Y-96014576D01*
X111144203Y-96014576D02*
X111392250Y-95792496D01*
X111392250Y-95792496D02*
X111395994Y-95784360D01*
X111395994Y-95784360D02*
X111399737Y-95776224D01*
X111399737Y-95776224D02*
X111403481Y-95768088D01*
X111403481Y-95768088D02*
X111407225Y-95759952D01*
X111407225Y-95759952D02*
X111437585Y-93894820D01*
X111437585Y-93894820D02*
X111467944Y-92029687D01*
X111467944Y-92029687D02*
X111498304Y-90164556D01*
X111498304Y-90164556D02*
X111528664Y-88299425D01*
X111528664Y-88299425D02*
X111557031Y-86290292D01*
X111557031Y-86290292D02*
X111585398Y-84281158D01*
X111585398Y-84281158D02*
X111613765Y-82272025D01*
X111613765Y-82272025D02*
X111642133Y-80262892D01*
X111642133Y-80262892D02*
X111648776Y-78959436D01*
X111648776Y-78959436D02*
X111655420Y-77655981D01*
X111655420Y-77655981D02*
X111662064Y-76352526D01*
X111662064Y-76352526D02*
X111668707Y-75049071D01*
X111668707Y-75049071D02*
X111653204Y-74344463D01*
X111653204Y-74344463D02*
X111637701Y-73639855D01*
X111637701Y-73639855D02*
X111622198Y-72935247D01*
X111622198Y-72935247D02*
X111606694Y-72230639D01*
X111606694Y-72230639D02*
X111610750Y-72065840D01*
X111610750Y-72065840D02*
X111614806Y-71901040D01*
X111614806Y-71901040D02*
X111618862Y-71736240D01*
X111618862Y-71736240D02*
X111622919Y-71571441D01*
X111622919Y-71571441D02*
X111626066Y-71233194D01*
X111626066Y-71233194D02*
X111629798Y-70895020D01*
X111629798Y-70895020D02*
X111633577Y-70556835D01*
X111633577Y-70556835D02*
X111635211Y-70218872D01*
X111635211Y-70218872D02*
X111648366Y-69856749D01*
X111648366Y-69856749D02*
X111661521Y-69494626D01*
X111661521Y-69494626D02*
X111674676Y-69132504D01*
X111674676Y-69132504D02*
X111687831Y-68770382D01*
X111687831Y-68770382D02*
X111687831Y-68408260D01*
X111687831Y-68408260D02*
X111687831Y-68046138D01*
X111687831Y-68046138D02*
X111690024Y-67796561D01*
X111690024Y-67796561D02*
X111692216Y-67546985D01*
X111692216Y-67546985D02*
X111675537Y-67417208D01*
X111675537Y-67417208D02*
X111630951Y-67336536D01*
X111630951Y-67336536D02*
X111429400Y-67244355D01*
X111429400Y-67244355D02*
X111362633Y-67232872D01*
X111362633Y-67232872D02*
X111295865Y-67221389D01*
X111295865Y-67221389D02*
X111118744Y-67193096D01*
X111118744Y-67193096D02*
X110941624Y-67164803D01*
X110941624Y-67164803D02*
X110354450Y-67104859D01*
X110354450Y-67104859D02*
X109767277Y-67044915D01*
X109767277Y-67044915D02*
X109180104Y-66984971D01*
X109180104Y-66984971D02*
X108592931Y-66925027D01*
X108592931Y-66925027D02*
X108297858Y-66891307D01*
X108297858Y-66891307D02*
X108002785Y-66857587D01*
X108002785Y-66857587D02*
X107707713Y-66823869D01*
X107707713Y-66823869D02*
X107412640Y-66790150D01*
X107412640Y-66790150D02*
X107317943Y-66770900D01*
X107317943Y-66770900D02*
X107223246Y-66751650D01*
X107223246Y-66751650D02*
X107128549Y-66732401D01*
X107128549Y-66732401D02*
X107033852Y-66713151D01*
X107033852Y-66713151D02*
X107006852Y-66704367D01*
X107006852Y-66704367D02*
X106979851Y-66695583D01*
X106979851Y-66695583D02*
X106952850Y-66686798D01*
X106952850Y-66686798D02*
X106925849Y-66678014D01*
X106925849Y-66678014D02*
X106917581Y-66673887D01*
X106917581Y-66673887D02*
X106909313Y-66669759D01*
X106909313Y-66669759D02*
X106901045Y-66665632D01*
X106901045Y-66665632D02*
X106892776Y-66661504D01*
X106892776Y-66661504D02*
X106871169Y-66641923D01*
X106871169Y-66641923D02*
X106849563Y-66622341D01*
X106849563Y-66622341D02*
X106827956Y-66602760D01*
X106827956Y-66602760D02*
X106806349Y-66583180D01*
X106806349Y-66583180D02*
X106773566Y-66569817D01*
X106773566Y-66569817D02*
X106740783Y-66556454D01*
X106740783Y-66556454D02*
X106708000Y-66543091D01*
X106708000Y-66543091D02*
X106675217Y-66529729D01*
X106675217Y-66529729D02*
X106590597Y-66517584D01*
X106590597Y-66517584D02*
X106505977Y-66505440D01*
X106505977Y-66505440D02*
X106421356Y-66493295D01*
X106421356Y-66493295D02*
X106336736Y-66481151D01*
X106336736Y-66481151D02*
X106277354Y-66471216D01*
X106277354Y-66471216D02*
X106217971Y-66461281D01*
X106217971Y-66461281D02*
X106158589Y-66451346D01*
X106158589Y-66451346D02*
X106099207Y-66441411D01*
X106099207Y-66441411D02*
X106023651Y-66412766D01*
X106023651Y-66412766D02*
X105948095Y-66384120D01*
X105948095Y-66384120D02*
X105872539Y-66355477D01*
X105872539Y-66355477D02*
X105796983Y-66326833D01*
X105796983Y-66326833D02*
X105611398Y-66220327D01*
X105611398Y-66220327D02*
X105425814Y-66113822D01*
X105425814Y-66113822D02*
X105240236Y-66007317D01*
X105240236Y-66007317D02*
X105054658Y-65900811D01*
X105054658Y-65900811D02*
X104844784Y-65741118D01*
X104844784Y-65741118D02*
X104634909Y-65581425D01*
X104634909Y-65581425D02*
X104425035Y-65421733D01*
X104425035Y-65421733D02*
X104215161Y-65262041D01*
X104215161Y-65262041D02*
X103979283Y-65076730D01*
X103979283Y-65076730D02*
X103743405Y-64891418D01*
X103743405Y-64891418D02*
X103507527Y-64706108D01*
X103507527Y-64706108D02*
X103271649Y-64520798D01*
X103271649Y-64520798D02*
X103099666Y-64358946D01*
X103099666Y-64358946D02*
X102954636Y-64172423D01*
X102954636Y-64172423D02*
X102857192Y-63958272D01*
X102857192Y-63958272D02*
X102854843Y-63724465D01*
X102854843Y-63724465D02*
X102914767Y-63603899D01*
X102914767Y-63603899D02*
X103013388Y-63511960D01*
X103013388Y-63511960D02*
X103131056Y-63445314D01*
X103131056Y-63445314D02*
X103256320Y-63392956D01*
X103256320Y-63392956D02*
X104020888Y-63143667D01*
X104020888Y-63143667D02*
X104796479Y-62931700D01*
X104796479Y-62931700D02*
X105576805Y-62738651D01*
X105576805Y-62738651D02*
X106360665Y-62559524D01*
X106360665Y-62559524D02*
X107110246Y-62340021D01*
X107110246Y-62340021D02*
X107859827Y-62120519D01*
X107859827Y-62120519D02*
X108609409Y-61901018D01*
X108609409Y-61901018D02*
X109358990Y-61681517D01*
X109358990Y-61681517D02*
X110074592Y-61453567D01*
X110074592Y-61453567D02*
X110790194Y-61225616D01*
X110790194Y-61225616D02*
X111505796Y-60997667D01*
X111505796Y-60997667D02*
X112221398Y-60769718D01*
X112221398Y-60769718D02*
X112895547Y-60536015D01*
X112895547Y-60536015D02*
X113569696Y-60302313D01*
X113569696Y-60302313D02*
X114243845Y-60068612D01*
X114243845Y-60068612D02*
X114917994Y-59834911D01*
X114917994Y-59834911D02*
X115543217Y-59598152D01*
X115543217Y-59598152D02*
X116168439Y-59361394D01*
X116168439Y-59361394D02*
X116793662Y-59124637D01*
X116793662Y-59124637D02*
X117418884Y-58887880D01*
X117418884Y-58887880D02*
X117987706Y-58650760D01*
X117987706Y-58650760D02*
X118556529Y-58413640D01*
X118556529Y-58413640D02*
X119125351Y-58176522D01*
X119125351Y-58176522D02*
X119694173Y-57939404D01*
X119694173Y-57939404D02*
X120199121Y-57704621D01*
X120199121Y-57704621D02*
X120704069Y-57469837D01*
X120704069Y-57469837D02*
X121209017Y-57235054D01*
X121209017Y-57235054D02*
X121713965Y-57000271D01*
X121713965Y-57000271D02*
X122147566Y-56770518D01*
X122147566Y-56770518D02*
X122581166Y-56540766D01*
X122581166Y-56540766D02*
X123014766Y-56311013D01*
X123014766Y-56311013D02*
X123448367Y-56081260D01*
X123448367Y-56081260D02*
X123895822Y-55802714D01*
X123895822Y-55802714D02*
X124343277Y-55524168D01*
X124343277Y-55524168D02*
X124790732Y-55245622D01*
X124790732Y-55245622D02*
X125238187Y-54967076D01*
X125238187Y-54967076D02*
X125740341Y-54620065D01*
X125740341Y-54620065D02*
X126242494Y-54273055D01*
X126242494Y-54273055D02*
X126744648Y-53926045D01*
X126744648Y-53926045D02*
X127246802Y-53579035D01*
X127246802Y-53579035D02*
X127725222Y-53220016D01*
X127725222Y-53220016D02*
X128203642Y-52860998D01*
X128203642Y-52860998D02*
X128682063Y-52501980D01*
X128682063Y-52501980D02*
X129160483Y-52142961D01*
X129160483Y-52142961D02*
X129536737Y-51828391D01*
X129536737Y-51828391D02*
X129912990Y-51513821D01*
X129912990Y-51513821D02*
X130289243Y-51199250D01*
X130289243Y-51199250D02*
X130665497Y-50884680D01*
X130665497Y-50884680D02*
X130768014Y-50785152D01*
X130768014Y-50785152D02*
X130870530Y-50685624D01*
X130870530Y-50685624D02*
X130973047Y-50586096D01*
X130973047Y-50586096D02*
X131075564Y-50486568D01*
X131075564Y-50486568D02*
X131138154Y-50409750D01*
X131138154Y-50409750D02*
X131200744Y-50332932D01*
X131200744Y-50332932D02*
X131263333Y-50256114D01*
X131263333Y-50256114D02*
X131325923Y-50179295D01*
X131325923Y-50179295D02*
X131352682Y-50116386D01*
X131352682Y-50116386D02*
X131379440Y-50053476D01*
X131379440Y-50053476D02*
X131406200Y-49990567D01*
X131406200Y-49990567D02*
X131432960Y-49927657D01*
X131432960Y-49927657D02*
X131426094Y-49873391D01*
X131426094Y-49873391D02*
X131419229Y-49819124D01*
X131419229Y-49819124D02*
X131412363Y-49764858D01*
X131412363Y-49764858D02*
X131405497Y-49710591D01*
X131405497Y-49710591D02*
X131374878Y-49584371D01*
X131374878Y-49584371D02*
X131344259Y-49458151D01*
X131344259Y-49458151D02*
X131313641Y-49331931D01*
X131313641Y-49331931D02*
X131283024Y-49205711D01*
X131283024Y-49205711D02*
X131258993Y-49009599D01*
X131258993Y-49009599D02*
X131234962Y-48813487D01*
X131234962Y-48813487D02*
X131210933Y-48617375D01*
X131210933Y-48617375D02*
X131186903Y-48421263D01*
X131186903Y-48421263D02*
X131168688Y-48187815D01*
X131168688Y-48187815D02*
X131150473Y-47954367D01*
X131150473Y-47954367D02*
X131132256Y-47720918D01*
X131132256Y-47720918D02*
X131114040Y-47487470D01*
X131114040Y-47487470D02*
X131481976Y-47487470D01*
X131481976Y-47487470D02*
X131849912Y-47487470D01*
X131849912Y-47487470D02*
X132217848Y-47487470D01*
X132217848Y-47487470D02*
X132585784Y-47487470D01*
X132585784Y-47487470D02*
X132879560Y-47473644D01*
X132879560Y-47473644D02*
X133173337Y-47459819D01*
X133173337Y-47459819D02*
X133467109Y-47445993D01*
X133467109Y-47445993D02*
X133760881Y-47432168D01*
X133760881Y-47432168D02*
X133878277Y-47412599D01*
X133878277Y-47412599D02*
X133995672Y-47393031D01*
X133995672Y-47393031D02*
X134113070Y-47373462D01*
X134113070Y-47373462D02*
X134230469Y-47353894D01*
X134230469Y-47353894D02*
X134333479Y-47323855D01*
X134333479Y-47323855D02*
X134436489Y-47293817D01*
X134436489Y-47293817D02*
X134539499Y-47263778D01*
X134539499Y-47263778D02*
X134642510Y-47233739D01*
X134642510Y-47233739D02*
X134734915Y-47191724D01*
X134734915Y-47191724D02*
X134827321Y-47149709D01*
X134827321Y-47149709D02*
X134919725Y-47107694D01*
X134919725Y-47107694D02*
X135012130Y-47065679D01*
X135012130Y-47065679D02*
X135097662Y-47010323D01*
X135097662Y-47010323D02*
X135183194Y-46954967D01*
X135183194Y-46954967D02*
X135268728Y-46899611D01*
X135268728Y-46899611D02*
X135354263Y-46844256D01*
X135354263Y-46844256D02*
X135436802Y-46774250D01*
X135436802Y-46774250D02*
X135519341Y-46704244D01*
X135519341Y-46704244D02*
X135601882Y-46634237D01*
X135601882Y-46634237D02*
X135684423Y-46564231D01*
X135684423Y-46564231D02*
X135767849Y-46478264D01*
X135767849Y-46478264D02*
X135851274Y-46392298D01*
X135851274Y-46392298D02*
X135934703Y-46306331D01*
X135934703Y-46306331D02*
X136018131Y-46220364D01*
X136018131Y-46220364D02*
X136164037Y-46045664D01*
X136164037Y-46045664D02*
X136309943Y-45870964D01*
X136309943Y-45870964D02*
X136455849Y-45696265D01*
X136455849Y-45696265D02*
X136601754Y-45521565D01*
X136601754Y-45521565D02*
X136748158Y-45322956D01*
X136748158Y-45322956D02*
X136894561Y-45124348D01*
X136894561Y-45124348D02*
X137040965Y-44925739D01*
X137040965Y-44925739D02*
X137187370Y-44727130D01*
X137187370Y-44727130D02*
X137328209Y-44515285D01*
X137328209Y-44515285D02*
X137469048Y-44303440D01*
X137469048Y-44303440D02*
X137609888Y-44091594D01*
X137609888Y-44091594D02*
X137750729Y-43879749D01*
X137750729Y-43879749D02*
X137879949Y-43665339D01*
X137879949Y-43665339D02*
X138009168Y-43450929D01*
X138009168Y-43450929D02*
X138138388Y-43236520D01*
X138138388Y-43236520D02*
X138267608Y-43022110D01*
X138267608Y-43022110D02*
X138379139Y-42815802D01*
X138379139Y-42815802D02*
X138490670Y-42609495D01*
X138490670Y-42609495D02*
X138602203Y-42403188D01*
X138602203Y-42403188D02*
X138713735Y-42196880D01*
X138713735Y-42196880D02*
X138801416Y-42009284D01*
X138801416Y-42009284D02*
X138889096Y-41821688D01*
X138889096Y-41821688D02*
X138976777Y-41634091D01*
X138976777Y-41634091D02*
X139064459Y-41446495D01*
X139064459Y-41446495D02*
X139122237Y-41288249D01*
X139122237Y-41288249D02*
X139180016Y-41130002D01*
X139180016Y-41130002D02*
X139237794Y-40971755D01*
X139237794Y-40971755D02*
X139295573Y-40813509D01*
X139295573Y-40813509D02*
X139316988Y-40693607D01*
X139316988Y-40693607D02*
X139338403Y-40573705D01*
X139338403Y-40573705D02*
X139359819Y-40453803D01*
X139359819Y-40453803D02*
X139381234Y-40333901D01*
X139381234Y-40333901D02*
X139415598Y-40171895D01*
X139415598Y-40171895D02*
X139449962Y-40009890D01*
X139449962Y-40009890D02*
X139484328Y-39847884D01*
X139484328Y-39847884D02*
X139518693Y-39685878D01*
X139518693Y-39685878D02*
X139600212Y-39454368D01*
X139600212Y-39454368D02*
X139681732Y-39222858D01*
X139681732Y-39222858D02*
X139763251Y-38991347D01*
X139763251Y-38991347D02*
X139844771Y-38759837D01*
X139844771Y-38759837D02*
X139937809Y-38495563D01*
X139937809Y-38495563D02*
X140030847Y-38231289D01*
X140030847Y-38231289D02*
X140123886Y-37967015D01*
X140123886Y-37967015D02*
X140216926Y-37702741D01*
X140216926Y-37702741D02*
X140237459Y-37599215D01*
X140237459Y-37599215D02*
X140257992Y-37495690D01*
X140257992Y-37495690D02*
X140278525Y-37392164D01*
X140278525Y-37392164D02*
X140299058Y-37288639D01*
X140299058Y-37288639D02*
X140301756Y-37200394D01*
X140301756Y-37200394D02*
X140304455Y-37112149D01*
X140304455Y-37112149D02*
X140307154Y-37023904D01*
X140307154Y-37023904D02*
X140309853Y-36935659D01*
X140309853Y-36935659D02*
X140294053Y-36860273D01*
X140294053Y-36860273D02*
X140278254Y-36784888D01*
X140278254Y-36784888D02*
X140262455Y-36709502D01*
X140262455Y-36709502D02*
X140246657Y-36634117D01*
X140246657Y-36634117D02*
X140212134Y-36569562D01*
X140212134Y-36569562D02*
X140177611Y-36505006D01*
X140177611Y-36505006D02*
X140143088Y-36440451D01*
X140143088Y-36440451D02*
X140108566Y-36375896D01*
X140108566Y-36375896D02*
X140055601Y-36319913D01*
X140055601Y-36319913D02*
X140002637Y-36263930D01*
X140002637Y-36263930D02*
X139949673Y-36207947D01*
X139949673Y-36207947D02*
X139896708Y-36151964D01*
X139896708Y-36151964D02*
X139825586Y-36102295D01*
X139825586Y-36102295D02*
X139754463Y-36052627D01*
X139754463Y-36052627D02*
X139683342Y-36002959D01*
X139683342Y-36002959D02*
X139612221Y-35953290D01*
X139612221Y-35953290D02*
X139524241Y-35898384D01*
X139524241Y-35898384D02*
X139436262Y-35843478D01*
X139436262Y-35843478D02*
X139348283Y-35788571D01*
X139348283Y-35788571D02*
X139260304Y-35733665D01*
X139260304Y-35733665D02*
X139223097Y-35699429D01*
X139223097Y-35699429D02*
X139185890Y-35665193D01*
X139185890Y-35665193D02*
X139148682Y-35630958D01*
X139148682Y-35630958D02*
X139111475Y-35596722D01*
X139111475Y-35596722D02*
X139112798Y-35577473D01*
X139112798Y-35577473D02*
X139114121Y-35558224D01*
X139114121Y-35558224D02*
X139115444Y-35538975D01*
X139115444Y-35538975D02*
X139116767Y-35519725D01*
X139116767Y-35519725D02*
X139152424Y-35487944D01*
X139152424Y-35487944D02*
X139188080Y-35456163D01*
X139188080Y-35456163D02*
X139223737Y-35424382D01*
X139223737Y-35424382D02*
X139259393Y-35392601D01*
X139259393Y-35392601D02*
X139370110Y-35343250D01*
X139370110Y-35343250D02*
X139480826Y-35293900D01*
X139480826Y-35293900D02*
X139591543Y-35244549D01*
X139591543Y-35244549D02*
X139702261Y-35195198D01*
X139702261Y-35195198D02*
X139861553Y-35155665D01*
X139861553Y-35155665D02*
X140020846Y-35116133D01*
X140020846Y-35116133D02*
X140180139Y-35076600D01*
X140180139Y-35076600D02*
X140339433Y-35037067D01*
X140339433Y-35037067D02*
X140503303Y-35000816D01*
X140503303Y-35000816D02*
X140667172Y-34964565D01*
X140667172Y-34964565D02*
X140831043Y-34928313D01*
X140831043Y-34928313D02*
X140994915Y-34892062D01*
X140994915Y-34892062D02*
X141116555Y-34848861D01*
X141116555Y-34848861D02*
X141238196Y-34805660D01*
X141238196Y-34805660D02*
X141359838Y-34762459D01*
X141359838Y-34762459D02*
X141481481Y-34719258D01*
X141481481Y-34719258D02*
X141523410Y-34703049D01*
X141523410Y-34703049D02*
X141565340Y-34686840D01*
X141565340Y-34686840D02*
X141607271Y-34670631D01*
X141607271Y-34670631D02*
X141649203Y-34654422D01*
X141649203Y-34654422D02*
X141692667Y-34649186D01*
X141692667Y-34649186D02*
X141736131Y-34643950D01*
X141736131Y-34643950D02*
X141779597Y-34638712D01*
X141779597Y-34638712D02*
X141823063Y-34633475D01*
X141823063Y-34633475D02*
X141823084Y-34633491D01*
X141823084Y-34633491D02*
X141822970Y-34633510D01*
D11*
X129339797Y-127679795D02*
X128313164Y-127797815D01*
X128313164Y-127797815D02*
X127524881Y-127964053D01*
X127524881Y-127964053D02*
X126943677Y-128158800D01*
X126943677Y-128158800D02*
X126538276Y-128362341D01*
X126538276Y-128362341D02*
X126277405Y-128554963D01*
X126277405Y-128554963D02*
X126129788Y-128716957D01*
X126129788Y-128716957D02*
X126049224Y-128870206D01*
X126049224Y-128870206D02*
X126052867Y-129010112D01*
X126052867Y-129010112D02*
X126117237Y-129329547D01*
X126117237Y-129329547D02*
X126197245Y-129509585D01*
X126197245Y-129509585D02*
X126322493Y-129678098D01*
X126322493Y-129678098D02*
X126503003Y-129816285D01*
X126503003Y-129816285D02*
X126748794Y-129905343D01*
X126748794Y-129905343D02*
X127308694Y-130007645D01*
X127308694Y-130007645D02*
X127632974Y-130005528D01*
X127632974Y-130005528D02*
X127962112Y-129959837D01*
X127962112Y-129959837D02*
X128536586Y-129931114D01*
X128536586Y-129931114D02*
X129196483Y-129858332D01*
X129196483Y-129858332D02*
X129637760Y-129698206D01*
X129637760Y-129698206D02*
X129884719Y-129538086D01*
X129884719Y-129538086D02*
X129961639Y-129465302D01*
X129961639Y-129465302D02*
X130146247Y-129145055D01*
X130146247Y-129145055D02*
X130256768Y-128777501D01*
X130256768Y-128777501D02*
X130272564Y-128300772D01*
X130272564Y-128300772D02*
X130210167Y-128073477D01*
X130210167Y-128073477D02*
X130094029Y-127908956D01*
X130094029Y-127908956D02*
X129943277Y-127797202D01*
X129943277Y-127797202D02*
X129777034Y-127728212D01*
X129777034Y-127728212D02*
X129474618Y-127678478D01*
X129474618Y-127678478D02*
X129339805Y-127679536D01*
X129339805Y-127679536D02*
X129339805Y-127679533D01*
X129339805Y-127679533D02*
X129339797Y-127679795D01*
D12*
X139742261Y-46533485D02*
X139743023Y-46549985D01*
X139743023Y-46549985D02*
X139745055Y-46566387D01*
X139745055Y-46566387D02*
X139748408Y-46582684D01*
X139748408Y-46582684D02*
X139753057Y-46598873D01*
X139753057Y-46598873D02*
X139759001Y-46614947D01*
X139759001Y-46614947D02*
X139766215Y-46630903D01*
X139766215Y-46630903D02*
X139774698Y-46646734D01*
X139774698Y-46646734D02*
X139784427Y-46662436D01*
X139784427Y-46662436D02*
X139795400Y-46678003D01*
X139795400Y-46678003D02*
X139807593Y-46693430D01*
X139807593Y-46693430D02*
X139820979Y-46708712D01*
X139820979Y-46708712D02*
X139835534Y-46723844D01*
X139835534Y-46723844D02*
X139851283Y-46738821D01*
X139851283Y-46738821D02*
X139868174Y-46753638D01*
X139868174Y-46753638D02*
X139886209Y-46768289D01*
X139886209Y-46768289D02*
X139905361Y-46782769D01*
X139905361Y-46782769D02*
X139925606Y-46797072D01*
X139925606Y-46797072D02*
X139946943Y-46811196D01*
X139946943Y-46811196D02*
X139969347Y-46825132D01*
X139969347Y-46825132D02*
X139992817Y-46838877D01*
X139992817Y-46838877D02*
X140017329Y-46852426D01*
X140017329Y-46852426D02*
X140042875Y-46865773D01*
X140042875Y-46865773D02*
X140069432Y-46878913D01*
X140069432Y-46878913D02*
X140096984Y-46891840D01*
X140096984Y-46891840D02*
X140125517Y-46904551D01*
X140125517Y-46904551D02*
X140155013Y-46917040D01*
X140155013Y-46917040D02*
X140185461Y-46929300D01*
X140185461Y-46929300D02*
X140216839Y-46941328D01*
X140216839Y-46941328D02*
X140249137Y-46953118D01*
X140249137Y-46953118D02*
X140282333Y-46964664D01*
X140282333Y-46964664D02*
X140316419Y-46975963D01*
X140316419Y-46975963D02*
X140351373Y-46987009D01*
X140351373Y-46987009D02*
X140387181Y-46997795D01*
X140387181Y-46997795D02*
X140423830Y-47008318D01*
X140423830Y-47008318D02*
X140461301Y-47018573D01*
X140461301Y-47018573D02*
X140499578Y-47028553D01*
X140499578Y-47028553D02*
X140538650Y-47038253D01*
X140538650Y-47038253D02*
X140578494Y-47047670D01*
X140578494Y-47047670D02*
X140619103Y-47056797D01*
X140619103Y-47056797D02*
X140660453Y-47065630D01*
X140660453Y-47065630D02*
X140702533Y-47074162D01*
X140702533Y-47074162D02*
X140745326Y-47082389D01*
X140745326Y-47082389D02*
X140788817Y-47090306D01*
X140788817Y-47090306D02*
X140832990Y-47097909D01*
X140832990Y-47097909D02*
X140877830Y-47105190D01*
X140877830Y-47105190D02*
X140923318Y-47112146D01*
X140923318Y-47112146D02*
X140969444Y-47118774D01*
X140969444Y-47118774D02*
X141016187Y-47125064D01*
X141016187Y-47125064D02*
X141063532Y-47131015D01*
X141063532Y-47131015D02*
X141111467Y-47136614D01*
X141111467Y-47136614D02*
X141159975Y-47141862D01*
X141159975Y-47141862D02*
X141209037Y-47146757D01*
X141209037Y-47146757D02*
X141258640Y-47151286D01*
X141258640Y-47151286D02*
X141308767Y-47155449D01*
X141308767Y-47155449D02*
X141359404Y-47159240D01*
X141359404Y-47159240D02*
X141410536Y-47162658D01*
X141410536Y-47162658D02*
X141462143Y-47165689D01*
X141462143Y-47165689D02*
X141514213Y-47168333D01*
X141514213Y-47168333D02*
X141566729Y-47170584D01*
X141566729Y-47170584D02*
X141619678Y-47172441D01*
X141619678Y-47172441D02*
X141646308Y-47173214D01*
X141646308Y-47173214D02*
X141673040Y-47173905D01*
X141673040Y-47173905D02*
X141699872Y-47174457D01*
X141699872Y-47174457D02*
X141726802Y-47174940D01*
X141726802Y-47174940D02*
X141753828Y-47175286D01*
X141753828Y-47175286D02*
X141780947Y-47175562D01*
X141780947Y-47175562D02*
X141808159Y-47175700D01*
X141808159Y-47175700D02*
X141835460Y-47175753D01*
X141835460Y-47175753D02*
X141862761Y-47175700D01*
X141862761Y-47175700D02*
X141889973Y-47175562D01*
X141889973Y-47175562D02*
X141917094Y-47175286D01*
X141917094Y-47175286D02*
X141944120Y-47174940D01*
X141944120Y-47174940D02*
X141971051Y-47174457D01*
X141971051Y-47174457D02*
X141997882Y-47173905D01*
X141997882Y-47173905D02*
X142024616Y-47173214D01*
X142024616Y-47173214D02*
X142051247Y-47172441D01*
X142051247Y-47172441D02*
X142104198Y-47170584D01*
X142104198Y-47170584D02*
X142156717Y-47168333D01*
X142156717Y-47168333D02*
X142208792Y-47165689D01*
X142208792Y-47165689D02*
X142260404Y-47162658D01*
X142260404Y-47162658D02*
X142311541Y-47159240D01*
X142311541Y-47159240D02*
X142362183Y-47155449D01*
X142362183Y-47155449D02*
X142412317Y-47151286D01*
X142412317Y-47151286D02*
X142461928Y-47146757D01*
X142461928Y-47146757D02*
X142510998Y-47141862D01*
X142510998Y-47141862D02*
X142559511Y-47136614D01*
X142559511Y-47136614D02*
X142607453Y-47131015D01*
X142607453Y-47131015D02*
X142654809Y-47125064D01*
X142654809Y-47125064D02*
X142701562Y-47118774D01*
X142701562Y-47118774D02*
X142747695Y-47112146D01*
X142747695Y-47112146D02*
X142793193Y-47105190D01*
X142793193Y-47105190D02*
X142838041Y-47097909D01*
X142838041Y-47097909D02*
X142882224Y-47090306D01*
X142882224Y-47090306D02*
X142925726Y-47082389D01*
X142925726Y-47082389D02*
X142968529Y-47074162D01*
X142968529Y-47074162D02*
X143010621Y-47065630D01*
X143010621Y-47065630D02*
X143051984Y-47056797D01*
X143051984Y-47056797D02*
X143092601Y-47047670D01*
X143092601Y-47047670D02*
X143132460Y-47038253D01*
X143132460Y-47038253D02*
X143171539Y-47028553D01*
X143171539Y-47028553D02*
X143209829Y-47018573D01*
X143209829Y-47018573D02*
X143247313Y-47008318D01*
X143247313Y-47008318D02*
X143283972Y-46997795D01*
X143283972Y-46997795D02*
X143319793Y-46987009D01*
X143319793Y-46987009D02*
X143354757Y-46975963D01*
X143354757Y-46975963D02*
X143388853Y-46964664D01*
X143388853Y-46964664D02*
X143422065Y-46953118D01*
X143422065Y-46953118D02*
X143454372Y-46941328D01*
X143454372Y-46941328D02*
X143485763Y-46929300D01*
X143485763Y-46929300D02*
X143516219Y-46917040D01*
X143516219Y-46917040D02*
X143545727Y-46904551D01*
X143545727Y-46904551D02*
X143574270Y-46891840D01*
X143574270Y-46891840D02*
X143601836Y-46878913D01*
X143601836Y-46878913D02*
X143628403Y-46865773D01*
X143628403Y-46865773D02*
X143653959Y-46852426D01*
X143653959Y-46852426D02*
X143678496Y-46838877D01*
X143678496Y-46838877D02*
X143701992Y-46825132D01*
X143701992Y-46825132D02*
X143724421Y-46811196D01*
X143724421Y-46811196D02*
X143745783Y-46797072D01*
X143745783Y-46797072D02*
X143766053Y-46782769D01*
X143766053Y-46782769D02*
X143785206Y-46768289D01*
X143785206Y-46768289D02*
X143803241Y-46753638D01*
X143803241Y-46753638D02*
X143820132Y-46738821D01*
X143820132Y-46738821D02*
X143835881Y-46723844D01*
X143835881Y-46723844D02*
X143850461Y-46708712D01*
X143850461Y-46708712D02*
X143863847Y-46693430D01*
X143863847Y-46693430D02*
X143876040Y-46678003D01*
X143876040Y-46678003D02*
X143887013Y-46662436D01*
X143887013Y-46662436D02*
X143896742Y-46646734D01*
X143896742Y-46646734D02*
X143905226Y-46630903D01*
X143905226Y-46630903D02*
X143912465Y-46614947D01*
X143912465Y-46614947D02*
X143918409Y-46598873D01*
X143918409Y-46598873D02*
X143923057Y-46582684D01*
X143923057Y-46582684D02*
X143926410Y-46566387D01*
X143926410Y-46566387D02*
X143928442Y-46549985D01*
X143928442Y-46549985D02*
X143929204Y-46533485D01*
X143929204Y-46533485D02*
X143929204Y-44510870D01*
X143929204Y-44510870D02*
X143928442Y-44494370D01*
X143928442Y-44494370D02*
X143926410Y-44477969D01*
X143926410Y-44477969D02*
X143923057Y-44461671D01*
X143923057Y-44461671D02*
X143918409Y-44445482D01*
X143918409Y-44445482D02*
X143912465Y-44429406D01*
X143912465Y-44429406D02*
X143905226Y-44413450D01*
X143905226Y-44413450D02*
X143896742Y-44397617D01*
X143896742Y-44397617D02*
X143887013Y-44381914D01*
X143887013Y-44381914D02*
X143876040Y-44366346D01*
X143876040Y-44366346D02*
X143863847Y-44350917D01*
X143863847Y-44350917D02*
X143850461Y-44335632D01*
X143850461Y-44335632D02*
X143835881Y-44320498D01*
X143835881Y-44320498D02*
X143820132Y-44305519D01*
X143820132Y-44305519D02*
X143803241Y-44290701D01*
X143803241Y-44290701D02*
X143785206Y-44276048D01*
X143785206Y-44276048D02*
X143766053Y-44261566D01*
X143766053Y-44261566D02*
X143745783Y-44247259D01*
X143745783Y-44247259D02*
X143724421Y-44233134D01*
X143724421Y-44233134D02*
X143701992Y-44219195D01*
X143701992Y-44219195D02*
X143678496Y-44205447D01*
X143678496Y-44205447D02*
X143653959Y-44191896D01*
X143653959Y-44191896D02*
X143628403Y-44178545D01*
X143628403Y-44178545D02*
X143601836Y-44165403D01*
X143601836Y-44165403D02*
X143574270Y-44152472D01*
X143574270Y-44152472D02*
X143545727Y-44139758D01*
X143545727Y-44139758D02*
X143516219Y-44127267D01*
X143516219Y-44127267D02*
X143485763Y-44115004D01*
X143485763Y-44115004D02*
X143454372Y-44102973D01*
X143454372Y-44102973D02*
X143422065Y-44091179D01*
X143422065Y-44091179D02*
X143388853Y-44079629D01*
X143388853Y-44079629D02*
X143354757Y-44068328D01*
X143354757Y-44068328D02*
X143319793Y-44057279D01*
X143319793Y-44057279D02*
X143283972Y-44046489D01*
X143283972Y-44046489D02*
X143247313Y-44035963D01*
X143247313Y-44035963D02*
X143209829Y-44025706D01*
X143209829Y-44025706D02*
X143171539Y-44015723D01*
X143171539Y-44015723D02*
X143132460Y-44006019D01*
X143132460Y-44006019D02*
X143092601Y-43996599D01*
X143092601Y-43996599D02*
X143051984Y-43987469D01*
X143051984Y-43987469D02*
X143010621Y-43978634D01*
X143010621Y-43978634D02*
X142968529Y-43970098D01*
X142968529Y-43970098D02*
X142925726Y-43961868D01*
X142925726Y-43961868D02*
X142882224Y-43953948D01*
X142882224Y-43953948D02*
X142838041Y-43946343D01*
X142838041Y-43946343D02*
X142793193Y-43939059D01*
X142793193Y-43939059D02*
X142747695Y-43932100D01*
X142747695Y-43932100D02*
X142701562Y-43925472D01*
X142701562Y-43925472D02*
X142654809Y-43919182D01*
X142654809Y-43919182D02*
X142607453Y-43913231D01*
X142607453Y-43913231D02*
X142559511Y-43907625D01*
X142559511Y-43907625D02*
X142510998Y-43902370D01*
X142510998Y-43902370D02*
X142461928Y-43897475D01*
X142461928Y-43897475D02*
X142412317Y-43892939D01*
X142412317Y-43892939D02*
X142362183Y-43888776D01*
X142362183Y-43888776D02*
X142311541Y-43884978D01*
X142311541Y-43884978D02*
X142260404Y-43881561D01*
X142260404Y-43881561D02*
X142208792Y-43878530D01*
X142208792Y-43878530D02*
X142156717Y-43875885D01*
X142156717Y-43875885D02*
X142104198Y-43873635D01*
X142104198Y-43873635D02*
X142051247Y-43871777D01*
X142051247Y-43871777D02*
X142024616Y-43871004D01*
X142024616Y-43871004D02*
X141997882Y-43870314D01*
X141997882Y-43870314D02*
X141971051Y-43869761D01*
X141971051Y-43869761D02*
X141944120Y-43869278D01*
X141944120Y-43869278D02*
X141917094Y-43868933D01*
X141917094Y-43868933D02*
X141889973Y-43868657D01*
X141889973Y-43868657D02*
X141862761Y-43868519D01*
X141862761Y-43868519D02*
X141835460Y-43868465D01*
X141835460Y-43868465D02*
X141808159Y-43868519D01*
X141808159Y-43868519D02*
X141780947Y-43868657D01*
X141780947Y-43868657D02*
X141753828Y-43868933D01*
X141753828Y-43868933D02*
X141726802Y-43869278D01*
X141726802Y-43869278D02*
X141699872Y-43869761D01*
X141699872Y-43869761D02*
X141673040Y-43870314D01*
X141673040Y-43870314D02*
X141646308Y-43871004D01*
X141646308Y-43871004D02*
X141619678Y-43871777D01*
X141619678Y-43871777D02*
X141566729Y-43873635D01*
X141566729Y-43873635D02*
X141514213Y-43875885D01*
X141514213Y-43875885D02*
X141462143Y-43878530D01*
X141462143Y-43878530D02*
X141410536Y-43881561D01*
X141410536Y-43881561D02*
X141359404Y-43884978D01*
X141359404Y-43884978D02*
X141308767Y-43888776D01*
X141308767Y-43888776D02*
X141258640Y-43892939D01*
X141258640Y-43892939D02*
X141209037Y-43897475D01*
X141209037Y-43897475D02*
X141159975Y-43902370D01*
X141159975Y-43902370D02*
X141111467Y-43907625D01*
X141111467Y-43907625D02*
X141063532Y-43913231D01*
X141063532Y-43913231D02*
X141016187Y-43919182D01*
X141016187Y-43919182D02*
X140969444Y-43925472D01*
X140969444Y-43925472D02*
X140923318Y-43932100D01*
X140923318Y-43932100D02*
X140877830Y-43939059D01*
X140877830Y-43939059D02*
X140832990Y-43946343D01*
X140832990Y-43946343D02*
X140788817Y-43953948D01*
X140788817Y-43953948D02*
X140745326Y-43961868D01*
X140745326Y-43961868D02*
X140702533Y-43970098D01*
X140702533Y-43970098D02*
X140660453Y-43978634D01*
X140660453Y-43978634D02*
X140619103Y-43987469D01*
X140619103Y-43987469D02*
X140578494Y-43996599D01*
X140578494Y-43996599D02*
X140538650Y-44006019D01*
X140538650Y-44006019D02*
X140499578Y-44015723D01*
X140499578Y-44015723D02*
X140461301Y-44025706D01*
X140461301Y-44025706D02*
X140423830Y-44035963D01*
X140423830Y-44035963D02*
X140387181Y-44046489D01*
X140387181Y-44046489D02*
X140351373Y-44057279D01*
X140351373Y-44057279D02*
X140316419Y-44068328D01*
X140316419Y-44068328D02*
X140282333Y-44079629D01*
X140282333Y-44079629D02*
X140249137Y-44091179D01*
X140249137Y-44091179D02*
X140216839Y-44102973D01*
X140216839Y-44102973D02*
X140185461Y-44115004D01*
X140185461Y-44115004D02*
X140155013Y-44127267D01*
X140155013Y-44127267D02*
X140125517Y-44139758D01*
X140125517Y-44139758D02*
X140096984Y-44152472D01*
X140096984Y-44152472D02*
X140069432Y-44165403D01*
X140069432Y-44165403D02*
X140042875Y-44178545D01*
X140042875Y-44178545D02*
X140017329Y-44191896D01*
X140017329Y-44191896D02*
X139992817Y-44205447D01*
X139992817Y-44205447D02*
X139969347Y-44219195D01*
X139969347Y-44219195D02*
X139946943Y-44233134D01*
X139946943Y-44233134D02*
X139925606Y-44247259D01*
X139925606Y-44247259D02*
X139905361Y-44261566D01*
X139905361Y-44261566D02*
X139886209Y-44276048D01*
X139886209Y-44276048D02*
X139868174Y-44290701D01*
X139868174Y-44290701D02*
X139851283Y-44305519D01*
X139851283Y-44305519D02*
X139835534Y-44320498D01*
X139835534Y-44320498D02*
X139820979Y-44335632D01*
X139820979Y-44335632D02*
X139807593Y-44350917D01*
X139807593Y-44350917D02*
X139795400Y-44366346D01*
X139795400Y-44366346D02*
X139784427Y-44381914D01*
X139784427Y-44381914D02*
X139774698Y-44397617D01*
X139774698Y-44397617D02*
X139766215Y-44413450D01*
X139766215Y-44413450D02*
X139759001Y-44429406D01*
X139759001Y-44429406D02*
X139753057Y-44445482D01*
X139753057Y-44445482D02*
X139748408Y-44461671D01*
X139748408Y-44461671D02*
X139745055Y-44477969D01*
X139745055Y-44477969D02*
X139743023Y-44494370D01*
X139743023Y-44494370D02*
X139742261Y-44510870D01*
X139742261Y-44510870D02*
X139742261Y-46533485D01*
D10*
X163485658Y-136430269D02*
X163578903Y-136494499D01*
X163578903Y-136494499D02*
X163634486Y-136613720D01*
X163634486Y-136613720D02*
X163667559Y-137060721D01*
X163667559Y-137060721D02*
X163602376Y-138601926D01*
X163602376Y-138601926D02*
X163466023Y-140032632D01*
X163466023Y-140032632D02*
X163288771Y-141110602D01*
X163288771Y-141110602D02*
X163247202Y-141305719D01*
X163247202Y-141305719D02*
X163195238Y-141439781D01*
X163195238Y-141439781D02*
X163114106Y-141566905D01*
X163114106Y-141566905D02*
X162769942Y-141687828D01*
X162769942Y-141687828D02*
X162271263Y-141737956D01*
X162271263Y-141737956D02*
X162056117Y-141739014D01*
X162056117Y-141739014D02*
X161707989Y-141397604D01*
X161707989Y-141397604D02*
X161707989Y-139289396D01*
X161707989Y-139289396D02*
X161707989Y-137098249D01*
X161707989Y-137098249D02*
X161971765Y-136747443D01*
X161971765Y-136747443D02*
X162399422Y-136619274D01*
X162399422Y-136619274D02*
X163107037Y-136436267D01*
X163107037Y-136436267D02*
X163333486Y-136410391D01*
X163333486Y-136410391D02*
X163485658Y-136430155D01*
X163485658Y-136430155D02*
X163485658Y-136430160D01*
X163485658Y-136430160D02*
X163485658Y-136430269D01*
X167107245Y-136435839D02*
X167480866Y-136674584D01*
X167480866Y-136674584D02*
X167536161Y-137272997D01*
X167536161Y-137272997D02*
X167624010Y-139149369D01*
X167624010Y-139149369D02*
X167684777Y-141348120D01*
X167684777Y-141348120D02*
X167340610Y-141710969D01*
X167340610Y-141710969D02*
X166596165Y-141710969D01*
X166596165Y-141710969D02*
X165838893Y-141710969D01*
X165838893Y-141710969D02*
X165497007Y-141332589D01*
X165497007Y-141332589D02*
X165497007Y-139248072D01*
X165497007Y-139248072D02*
X165497007Y-137076517D01*
X165497007Y-137076517D02*
X165793652Y-136705254D01*
X165793652Y-136705254D02*
X166408581Y-136557796D01*
X166408581Y-136557796D02*
X167107245Y-136435839D01*
X171619538Y-136345669D02*
X171771983Y-136425251D01*
X171771983Y-136425251D02*
X171878192Y-136626974D01*
X171878192Y-136626974D02*
X171891368Y-137007644D01*
X171891368Y-137007644D02*
X171837107Y-138318675D01*
X171837107Y-138318675D02*
X171724604Y-140035347D01*
X171724604Y-140035347D02*
X171603014Y-140996549D01*
X171603014Y-140996549D02*
X171524880Y-141263678D01*
X171524880Y-141263678D02*
X171430413Y-141426497D01*
X171430413Y-141426497D02*
X171313367Y-141519519D01*
X171313367Y-141519519D02*
X171159631Y-141575841D01*
X171159631Y-141575841D02*
X170674806Y-141687046D01*
X170674806Y-141687046D02*
X170303352Y-141716917D01*
X170303352Y-141716917D02*
X170034982Y-141651152D01*
X170034982Y-141651152D02*
X169846014Y-141470937D01*
X169846014Y-141470937D02*
X169715585Y-141147484D01*
X169715585Y-141147484D02*
X169635279Y-140656129D01*
X169635279Y-140656129D02*
X169583497Y-139096405D01*
X169583497Y-139096405D02*
X169583497Y-137201213D01*
X169583497Y-137201213D02*
X169818757Y-136858106D01*
X169818757Y-136858106D02*
X170428407Y-136650043D01*
X170428407Y-136650043D02*
X171355483Y-136363240D01*
X171355483Y-136363240D02*
X171619551Y-136345672D01*
X171619551Y-136345672D02*
X171619551Y-136345669D01*
X171619551Y-136345669D02*
X171619538Y-136345669D01*
X119797964Y-136429797D02*
X120619616Y-136649422D01*
X120619616Y-136649422D02*
X121027408Y-136771636D01*
X121027408Y-136771636D02*
X121311049Y-137173726D01*
X121311049Y-137173726D02*
X121311049Y-139094751D01*
X121311049Y-139094751D02*
X121255238Y-140851749D01*
X121255238Y-140851749D02*
X121185991Y-141341125D01*
X121185991Y-141341125D02*
X121099692Y-141559200D01*
X121099692Y-141559200D02*
X120970697Y-141643292D01*
X120970697Y-141643292D02*
X120780332Y-141708544D01*
X120780332Y-141708544D02*
X120305942Y-141764871D01*
X120305942Y-141764871D02*
X119853256Y-141718362D01*
X119853256Y-141718362D02*
X119691980Y-141657749D01*
X119691980Y-141657749D02*
X119602624Y-141582970D01*
X119602624Y-141582970D02*
X119580399Y-141504423D01*
X119580399Y-141504423D02*
X119551462Y-141322006D01*
X119551462Y-141322006D02*
X119489965Y-140719973D01*
X119489965Y-140719973D02*
X119384547Y-138892179D01*
X119384547Y-138892179D02*
X119337520Y-137290209D01*
X119337520Y-137290209D02*
X119364613Y-136826928D01*
X119364613Y-136826928D02*
X119441390Y-136555371D01*
X119441390Y-136555371D02*
X119573166Y-136440650D01*
X119573166Y-136440650D02*
X119797958Y-136429802D01*
X119797958Y-136429802D02*
X119797964Y-136429797D01*
X116081349Y-136434913D02*
X116724202Y-136582191D01*
X116724202Y-136582191D02*
X117243037Y-136712908D01*
X117243037Y-136712908D02*
X117522087Y-137110728D01*
X117522087Y-137110728D02*
X117522087Y-139251794D01*
X117522087Y-139251794D02*
X117527935Y-141342148D01*
X117527935Y-141342148D02*
X117180848Y-141711078D01*
X117180848Y-141711078D02*
X116537650Y-141711078D01*
X116537650Y-141711078D02*
X115894613Y-141711078D01*
X115894613Y-141711078D02*
X115553215Y-141350917D01*
X115553215Y-141350917D02*
X115553215Y-139042488D01*
X115553215Y-139042488D02*
X115602824Y-137021421D01*
X115602824Y-137021421D02*
X115635981Y-136746968D01*
X115635981Y-136746968D02*
X116081350Y-136434913D01*
X116081350Y-136434913D02*
X116081349Y-136434913D01*
X111681066Y-136395682D02*
X111952886Y-136405499D01*
X111952886Y-136405499D02*
X112925436Y-136708838D01*
X112925436Y-136708838D02*
X113527206Y-136913962D01*
X113527206Y-136913962D02*
X113781607Y-137287410D01*
X113781607Y-137287410D02*
X113700064Y-139128847D01*
X113700064Y-139128847D02*
X113638604Y-140233403D01*
X113638604Y-140233403D02*
X113560020Y-140923052D01*
X113560020Y-140923052D02*
X113447855Y-141305658D01*
X113447855Y-141305658D02*
X113283552Y-141501313D01*
X113283552Y-141501313D02*
X112947255Y-141658769D01*
X112947255Y-141658769D02*
X112532178Y-141729203D01*
X112532178Y-141729203D02*
X112118597Y-141704227D01*
X112118597Y-141704227D02*
X111788037Y-141584498D01*
X111788037Y-141584498D02*
X111687268Y-141394844D01*
X111687268Y-141394844D02*
X111592700Y-140902367D01*
X111592700Y-140902367D02*
X111453172Y-138910243D01*
X111453172Y-138910243D02*
X111400462Y-137250395D01*
X111400462Y-137250395D02*
X111433147Y-136774910D01*
X111433147Y-136774910D02*
X111523454Y-136503154D01*
X111523454Y-136503154D02*
X111681066Y-136395667D01*
X111681066Y-136395667D02*
X111681066Y-136395669D01*
X111681066Y-136395669D02*
X111681066Y-136395682D01*
G04 #@! TD*
M02*
