G04 #@! TF.GenerationSoftware,KiCad,Pcbnew,5.0.0-fee4fd1~66~ubuntu18.04.1*
G04 #@! TF.CreationDate,2018-08-08T07:38:06+02:00*
G04 #@! TF.ProjectId,Saba-TIC18,536162612D54494331382E6B69636164,rev?*
G04 #@! TF.SameCoordinates,Original*
G04 #@! TF.FileFunction,Soldermask,Top*
G04 #@! TF.FilePolarity,Negative*
%FSLAX46Y46*%
G04 Gerber Fmt 4.6, Leading zero omitted, Abs format (unit mm)*
G04 Created by KiCad (PCBNEW 5.0.0-fee4fd1~66~ubuntu18.04.1) date Wed Aug  8 07:38:06 2018*
%MOMM*%
%LPD*%
G01*
G04 APERTURE LIST*
%ADD10C,0.100000*%
%ADD11O,1.470000X2.200000*%
%ADD12R,1.470000X2.200000*%
%ADD13O,2.000000X2.000000*%
%ADD14C,2.000000*%
%ADD15C,1.800000*%
%ADD16R,1.800000X1.800000*%
%ADD17C,2.400000*%
%ADD18R,2.000000X2.000000*%
G04 APERTURE END LIST*
D10*
G04 #@! TO.C,svg2mod*
G36*
X132070105Y-76480082D02*
X131216176Y-76480082D01*
X130207921Y-72312231D01*
X130207921Y-78972308D01*
X129426010Y-78972308D01*
X129426010Y-71548655D01*
X130856085Y-71548655D01*
X131679150Y-75345323D01*
X132512503Y-71548655D01*
X133901424Y-71548655D01*
X133901424Y-78972308D01*
X133098936Y-78972308D01*
X133098936Y-72312231D01*
X132070105Y-76480082D01*
X132070105Y-76480082D01*
G37*
G36*
X136206649Y-77095185D02*
X138048256Y-76299793D01*
X137204615Y-72248599D01*
X136371262Y-76299793D01*
X138048256Y-76299793D01*
X136206649Y-77095185D01*
X135805405Y-78972308D01*
X134889745Y-78972308D01*
X136628469Y-71548655D01*
X137811625Y-71548655D01*
X139519484Y-78972308D01*
X138603825Y-78972308D01*
X138212869Y-77095185D01*
X136206649Y-77095185D01*
X136206649Y-77095185D01*
G37*
G36*
X141701249Y-76236162D02*
X141701249Y-78972308D01*
X140806166Y-78972308D01*
X140806166Y-71548655D01*
X141701249Y-71548655D01*
X141701249Y-74751431D01*
X143656028Y-71548655D01*
X144633417Y-71548655D01*
X142647774Y-74825668D01*
X144756877Y-78972308D01*
X143728046Y-78972308D01*
X142092205Y-75631664D01*
X141701249Y-76236162D01*
X141701249Y-76236162D01*
G37*
G36*
X150014846Y-71548655D02*
X150014846Y-72322836D01*
X147473634Y-72322836D01*
X147473634Y-74751431D01*
X149757638Y-74751431D01*
X149757638Y-75525612D01*
X147473634Y-75525612D01*
X147473634Y-78198127D01*
X150014846Y-78198127D01*
X150014846Y-78972308D01*
X146578551Y-78972308D01*
X146578551Y-71548655D01*
X150014846Y-71548655D01*
X150014846Y-71548655D01*
G37*
G36*
X152680161Y-75896795D02*
X152680161Y-75101403D01*
X153842740Y-75101403D01*
X154179682Y-75056331D01*
X154408597Y-74921115D01*
X154547490Y-74677195D01*
X154593787Y-74327222D01*
X154593787Y-73107622D01*
X154547490Y-72760301D01*
X154408597Y-72524335D01*
X154179682Y-72389119D01*
X153842740Y-72344046D01*
X152680161Y-72344046D01*
X152680161Y-75101403D01*
X152680161Y-75896795D01*
X152680161Y-78972308D01*
X151785078Y-78972308D01*
X151785078Y-71548655D01*
X153719281Y-71548655D01*
X154129527Y-71573842D01*
X154485760Y-71649404D01*
X154787979Y-71775341D01*
X155036184Y-71951653D01*
X155234234Y-72177014D01*
X155375698Y-72460704D01*
X155460577Y-72802722D01*
X155488870Y-73203069D01*
X155488870Y-74221170D01*
X155430998Y-74764025D01*
X155257383Y-75194199D01*
X155127172Y-75367032D01*
X154968024Y-75511693D01*
X154562922Y-75716506D01*
X155992997Y-78972308D01*
X155015608Y-78972308D01*
X153688416Y-75896795D01*
X152680161Y-75896795D01*
X152680161Y-75896795D01*
G37*
G04 #@! TD*
D11*
G04 #@! TO.C,led*
X162052000Y-74676000D03*
X164592000Y-74676000D03*
X167132000Y-74676000D03*
D12*
X169672000Y-74676000D03*
G04 #@! TD*
G04 #@! TO.C,led*
X121412000Y-74676000D03*
D11*
X118872000Y-74676000D03*
X116332000Y-74676000D03*
X113792000Y-74676000D03*
G04 #@! TD*
D13*
G04 #@! TO.C,10k*
X121666000Y-144653000D03*
D14*
X111506000Y-144653000D03*
G04 #@! TD*
D15*
G04 #@! TO.C,interruptor*
X164338000Y-144526000D03*
X166878000Y-144526000D03*
D16*
X169418000Y-144526000D03*
G04 #@! TD*
D17*
G04 #@! TO.C,Polsador*
X131849000Y-136652000D03*
X131849000Y-141152000D03*
X125349000Y-136652000D03*
X125349000Y-141152000D03*
G04 #@! TD*
D13*
G04 #@! TO.C,Processador*
X158242000Y-136652000D03*
X150622000Y-144272000D03*
X158242000Y-139192000D03*
X150622000Y-141732000D03*
X158242000Y-141732000D03*
X150622000Y-139192000D03*
X158242000Y-144272000D03*
D18*
X150622000Y-136652000D03*
G04 #@! TD*
M02*
