M48
;DRILL file {KiCad 5.0.0-fee4fd1~66~ubuntu18.04.1} date Wed Aug  8 07:38:13 2018
;FORMAT={-:-/ absolute / metric / decimal}
FMAT,2
METRIC,TZ
T1C0.400
T2C0.800
T3C0.900
T4C1.100
%
G90
G05
M71
T1
X116.586Y-144.78
X118.872Y-78.232
X119.126Y-97.536
X141.732Y-97.536
X141.986Y-90.424
X147.574Y-139.7
X150.622Y-133.858
X151.13Y-131.318
X154.178Y-144.526
X156.21Y-97.536
X163.83Y-121.158
X167.132Y-78.232
X174.244Y-145.796
T2
X111.506Y-144.653
X121.666Y-144.653
X150.622Y-136.652
X150.622Y-139.192
X150.622Y-141.732
X150.622Y-144.272
X158.242Y-136.652
X158.242Y-139.192
X158.242Y-141.732
X158.242Y-144.272
T3
X164.338Y-144.526
X166.878Y-144.526
X169.418Y-144.526
X162.052Y-74.676
X164.592Y-74.676
X167.132Y-74.676
X169.672Y-74.676
X113.792Y-74.676
X116.332Y-74.676
X118.872Y-74.676
X121.412Y-74.676
T4
X125.349Y-136.652
X125.349Y-141.152
X131.849Y-136.652
X131.849Y-141.152
T0
M30
