  0
SECTION
  2
HEADER
  9
$ACADVER
  1
AC1014
  9
$HANDSEED
  5
FFFF
  9
$MEASUREMENT
 70
     1
  0
ENDSEC
  0
SECTION
  2
TABLES
  0
TABLE
  2
VPORT
  5
8
330
0
100
AcDbSymbolTable
 70
     4
  0
VPORT
  5
2E
330
8
100
AcDbSymbolTableRecord
100
AcDbViewportTableRecord
  2
*ACTIVE
 70
     0
 10
0.0
 20
0.0
 11
1.0
 21
1.0
 12
210.0
 22
148.5
 13
0.0
 23
0.0
 14
10.0
 24
10.0
 15
10.0
 25
10.0
 16
0.0
 26
0.0
 36
1.0
 17
0.0
 27
0.0
 37
0.0
 40
341.0
 41
1.24
 42
50.0
 43
0.0
 44
0.0
 50
0.0
 51
0.0
 71
     0
 72
   100
 73
     1
 74
     3
 75
     0
 76
     0
 77
     0
 78
     0
  0
ENDTAB
  0
TABLE
  2
LTYPE
  5
5
330
0
100
AcDbSymbolTable
 70
     1
  0
LTYPE
  5
14
330
5
100
AcDbSymbolTableRecord
100
AcDbLinetypeTableRecord
  2
BYBLOCK
 70
     0
  3

 72
    65
 73
     0
 40
0.0
  0
LTYPE
  5
15
330
5
100
AcDbSymbolTableRecord
100
AcDbLinetypeTableRecord
  2
BYLAYER
 70
     0
  3

 72
    65
 73
     0
 40
0.0
  0
LTYPE
  5
16
330
5
100
AcDbSymbolTableRecord
100
AcDbLinetypeTableRecord
  2
CONTINUOUS
 70
     0
  3
Solid line
 72
    65
 73
     0
 40
0.0
  0
ENDTAB
  0
TABLE
  2
LAYER
  5
2
100
AcDbSymbolTable
 70
2
  0
LAYER
  5
50
100
AcDbSymbolTableRecord
100
AcDbLayerTableRecord
  2
0
 70
0
  6
CONTINUOUS
  0
LAYER
  5
51
100
AcDbSymbolTableRecord
100
AcDbLayerTableRecord
  2
Edge.Cuts
 70
0
  6
CONTINUOUS
  0
ENDTAB
  0
TABLE
  2
STYLE
  5
3
330
0
100
AcDbSymbolTable
 70
     1
  0
STYLE
  5
11
330
3
100
AcDbSymbolTableRecord
100
AcDbTextStyleTableRecord
  2
STANDARD
 70
     0
 40
0.0
 41
1.0
 50
0.0
 71
     0
 42
2.5
  3
txt
  4

  0
ENDTAB
  0
TABLE
  2
VIEW
  5
6
330
0
100
AcDbSymbolTable
 70
     0
  0
ENDTAB
  0
TABLE
  2
UCS
  5
7
330
0
100
AcDbSymbolTable
 70
     0
  0
ENDTAB
  0
TABLE
  2
APPID
  5
9
330
0
100
AcDbSymbolTable
 70
     2
  0
APPID
  5
12
330
9
100
AcDbSymbolTableRecord
100
AcDbRegAppTableRecord
  2
ACAD
 70
     0
  0
ENDTAB
  0
TABLE
  2
DIMSTYLE
  5
A
330
0
100
AcDbSymbolTable
 70
     1
  0
DIMSTYLE
105
27
330
A
100
AcDbSymbolTableRecord
100
AcDbDimStyleTableRecord
  2
ISO-25
 70
     0
  3

  4

  5

  6

  7

 40
1.0
 41
2.5
 42
0.625
 43
3.75
 44
1.25
 45
0.0
 46
0.0
 47
0.0
 48
0.0
140
2.5
141
2.5
142
0.0
143
0.03937007874016
144
1.0
145
0.0
146
1.0
147
0.625
 71
     0
 72
     0
 73
     0
 74
     0
 75
     0
 76
     0
 77
     1
 78
     8
170
     0
171
     3
172
     1
173
     0
174
     0
175
     0
176
     0
177
     0
178
     0
270
     2
271
     2
272
     2
273
     2
274
     3
340
11
275
     0
280
     0
281
     0
282
     0
283
     0
284
     8
285
     0
286
     0
287
     3
288
     0
  0
ENDTAB
  0
TABLE
  2
BLOCK_RECORD
  5
1
330
0
100
AcDbSymbolTable
 70
     1
  0
BLOCK_RECORD
  5
1F
330
1
100
AcDbSymbolTableRecord
100
AcDbBlockTableRecord
  2
*MODEL_SPACE
  0
BLOCK_RECORD
  5
1B
330
1
100
AcDbSymbolTableRecord
100
AcDbBlockTableRecord
  2
*PAPER_SPACE
  0
ENDTAB
  0
ENDSEC
  0
SECTION
  2
BLOCKS
  0
BLOCK
  5
20
330
1F
100
AcDbEntity
  8
0
100
AcDbBlockBegin
  2
*MODEL_SPACE
 70
     0
 10
0.0
 20
0.0
 30
0.0
  3
*MODEL_SPACE
  1

  0
ENDBLK
  5
21
330
1F
100
AcDbEntity
  8
0
100
AcDbBlockEnd
  0
BLOCK
  5
1C
330
1B
100
AcDbEntity
 67
     1
  8
0
100
AcDbBlockBegin
  2
*PAPER_SPACE
  1

  0
ENDBLK
  5
1D
330
1B
100
AcDbEntity
 67
     1
  8
0
100
AcDbBlockEnd
  0
ENDSEC
  0
SECTION
  2
ENTITIES
  0
LWPOLYLINE
  5
100
100
AcDbEntity
  8
Edge.Cuts
 62
1
100
AcDbPolyline
 90
3120
 70
1
 10
39.508699
 20
112.577804
 30
0.0
 10
39.405160
 20
112.575634
 30
0.0
 10
39.301824
 20
112.573467
 30
0.0
 10
39.198301
 20
112.571297
 30
0.0
 10
39.094841
 20
112.569128
 30
0.0
 10
38.990902
 20
112.566950
 30
0.0
 10
38.886743
 20
112.559717
 30
0.0
 10
38.782789
 20
112.552498
 30
0.0
 10
38.678646
 20
112.545266
 30
0.0
 10
38.574564
 20
112.538038
 30
0.0
 10
38.470003
 20
112.530777
 30
0.0
 10
38.285967
 20
112.508870
 30
0.0
 10
38.101822
 20
112.486951
 30
0.0
 10
37.917927
 20
112.465061
 30
0.0
 10
37.733713
 20
112.443133
 30
0.0
 10
37.549645
 20
112.421223
 30
0.0
 10
37.381108
 20
112.390946
 30
0.0
 10
37.212473
 20
112.360652
 30
0.0
 10
37.044066
 20
112.330398
 30
0.0
 10
36.875370
 20
112.300093
 30
0.0
 10
36.706804
 20
112.269811
 30
0.0
 10
36.553044
 20
112.231991
 30
0.0
 10
36.399192
 20
112.194149
 30
0.0
 10
36.245551
 20
112.156358
 30
0.0
 10
36.091643
 20
112.118502
 30
0.0
 10
35.937856
 20
112.080675
 30
0.0
 10
35.798151
 20
112.036242
 30
0.0
 10
35.658361
 20
111.991782
 30
0.0
 10
35.518762
 20
111.947383
 30
0.0
 10
35.378924
 20
111.902908
 30
0.0
 10
35.239192
 20
111.858467
 30
0.0
 10
35.112817
 20
111.808143
 30
0.0
 10
34.986364
 20
111.757790
 30
0.0
 10
34.860087
 20
111.707506
 30
0.0
 10
34.733589
 20
111.657134
 30
0.0
 10
34.607190
 20
111.606802
 30
0.0
 10
34.493316
 20
111.551416
 30
0.0
 10
34.379376
 20
111.495996
 30
0.0
 10
34.265589
 20
111.440652
 30
0.0
 10
34.151607
 20
111.385213
 30
0.0
 10
34.037714
 20
111.329817
 30
0.0
 10
33.935725
 20
111.270297
 30
0.0
 10
33.833937
 20
111.210894
 30
0.0
 10
33.731964
 20
111.151384
 30
0.0
 10
33.629787
 20
111.091755
 30
0.0
 10
33.527669
 20
111.032160
 30
0.0
 10
33.436634
 20
110.969334
 30
0.0
 10
33.345776
 20
110.906631
 30
0.0
 10
33.254754
 20
110.843815
 30
0.0
 10
33.163787
 20
110.781037
 30
0.0
 10
33.072400
 20
110.717968
 30
0.0
 10
32.991800
 20
110.652558
 30
0.0
 10
32.911359
 20
110.587277
 30
0.0
 10
32.830772
 20
110.521878
 30
0.0
 10
32.750236
 20
110.456518
 30
0.0
 10
32.669323
 20
110.390856
 30
0.0
 10
32.598333
 20
110.323689
 30
0.0
 10
32.527483
 20
110.256655
 30
0.0
 10
32.456506
 20
110.189500
 30
0.0
 10
32.385568
 20
110.122385
 30
0.0
 10
32.314306
 20
110.054959
 30
0.0
 10
32.252099
 20
109.987070
 30
0.0
 10
32.190015
 20
109.919313
 30
0.0
 10
32.127819
 20
109.851435
 30
0.0
 10
32.065661
 20
109.783597
 30
0.0
 10
32.003214
 20
109.715445
 30
0.0
 10
31.949067
 20
109.647349
 30
0.0
 10
31.894750
 20
109.579037
 30
0.0
 10
31.840678
 20
109.511034
 30
0.0
 10
31.786666
 20
109.443109
 30
0.0
 10
31.732429
 20
109.374897
 30
0.0
 10
31.685619
 20
109.307731
 30
0.0
 10
31.638663
 20
109.240352
 30
0.0
 10
31.591916
 20
109.173278
 30
0.0
 10
31.545225
 20
109.106280
 30
0.0
 10
31.498336
 20
109.039000
 30
0.0
 10
31.458244
 20
108.973487
 30
0.0
 10
31.418024
 20
108.907767
 30
0.0
 10
31.377985
 20
108.842344
 30
0.0
 10
31.337993
 20
108.776996
 30
0.0
 10
31.297832
 20
108.711372
 30
0.0
 10
31.263526
 20
108.648236
 30
0.0
 10
31.229109
 20
108.584900
 30
0.0
 10
31.194851
 20
108.521850
 30
0.0
 10
31.160630
 20
108.458872
 30
0.0
 10
31.126266
 20
108.395629
 30
0.0
 10
31.097127
 20
108.335799
 30
0.0
 10
31.067893
 20
108.275780
 30
0.0
 10
31.038794
 20
108.216033
 30
0.0
 10
31.009727
 20
108.156353
 30
0.0
 10
30.980538
 20
108.096422
 30
0.0
 10
30.957387
 20
108.044963
 30
0.0
 10
30.934157
 20
107.993340
 30
0.0
 10
30.911032
 20
107.941951
 30
0.0
 10
30.887934
 20
107.890620
 30
0.0
 10
30.864757
 20
107.839074
 30
0.0
 10
30.847903
 20
107.788957
 30
0.0
 10
30.830996
 20
107.738682
 30
0.0
 10
30.814168
 20
107.688635
 30
0.0
 10
30.797367
 20
107.638644
 30
0.0
 10
30.780487
 20
107.588443
 30
0.0
 10
30.768713
 20
107.540186
 30
0.0
 10
30.756886
 20
107.491778
 30
0.0
 10
30.745112
 20
107.443587
 30
0.0
 10
30.733365
 20
107.395452
 30
0.0
 10
30.721564
 20
107.347114
 30
0.0
 10
30.713494
 20
107.301028
 30
0.0
 10
30.705398
 20
107.254796
 30
0.0
 10
30.697355
 20
107.208772
 30
0.0
 10
30.689311
 20
107.162801
 30
0.0
 10
30.681242
 20
107.116637
 30
0.0
 10
30.671531
 20
107.033144
 30
0.0
 10
30.661795
 20
106.949387
 30
0.0
 10
30.652085
 20
106.866009
 30
0.0
 10
30.642401
 20
106.782726
 30
0.0
 10
30.632664
 20
106.699092
 30
0.0
 10
30.623351
 20
106.629859
 30
0.0
 10
30.614011
 20
106.560407
 30
0.0
 10
30.604724
 20
106.491269
 30
0.0
 10
30.595437
 20
106.422209
 30
0.0
 10
30.586124
 20
106.352860
 30
0.0
 10
30.578583
 20
106.324546
 30
0.0
 10
30.571096
 20
106.296434
 30
0.0
 10
30.563476
 20
106.267860
 30
0.0
 10
30.555961
 20
106.239622
 30
0.0
 10
30.548394
 20
106.211266
 30
0.0
 10
30.537229
 20
106.187811
 30
0.0
 10
30.526143
 20
106.164520
 30
0.0
 10
30.515057
 20
106.141231
 30
0.0
 10
30.503839
 20
106.117667
 30
0.0
 10
30.492567
 20
106.093963
 30
0.0
 10
30.476666
 20
106.075776
 30
0.0
 10
30.460870
 20
106.057718
 30
0.0
 10
30.445075
 20
106.039660
 30
0.0
 10
30.429094
 20
106.021391
 30
0.0
 10
30.413007
 20
106.003013
 30
0.0
 10
30.390994
 20
105.990508
 30
0.0
 10
30.369139
 20
105.978094
 30
0.0
 10
30.347285
 20
105.965680
 30
0.0
 10
30.325165
 20
105.953120
 30
0.0
 10
30.302914
 20
105.940484
 30
0.0
 10
30.273672
 20
105.933972
 30
0.0
 10
30.244634
 20
105.927508
 30
0.0
 10
30.215123
 20
105.920939
 30
0.0
 10
30.185958
 20
105.914446
 30
0.0
 10
30.156671
 20
105.907927
 30
0.0
 10
30.118851
 20
105.908032
 30
0.0
 10
30.080910
 20
105.908139
 30
0.0
 10
30.043143
 20
105.908244
 30
0.0
 10
30.005416
 20
105.908350
 30
0.0
 10
29.967533
 20
105.908456
 30
0.0
 10
29.920001
 20
105.915483
 30
0.0
 10
29.872318
 20
105.922532
 30
0.0
 10
29.824849
 20
105.929548
 30
0.0
 10
29.777436
 20
105.936557
 30
0.0
 10
29.729821
 20
105.943595
 30
0.0
 10
29.671335
 20
105.958063
 30
0.0
 10
29.612664
 20
105.972575
 30
0.0
 10
29.554260
 20
105.987021
 30
0.0
 10
29.495919
 20
106.001452
 30
0.0
 10
29.437335
 20
106.015943
 30
0.0
 10
29.396930
 20
106.019456
 30
0.0
 10
29.356399
 20
106.022981
 30
0.0
 10
29.316053
 20
106.026489
 30
0.0
 10
29.275749
 20
106.029995
 30
0.0
 10
29.235278
 20
106.033514
 30
0.0
 10
29.195908
 20
106.027934
 30
0.0
 10
29.156414
 20
106.022335
 30
0.0
 10
29.117099
 20
106.016763
 30
0.0
 10
29.077827
 20
106.011196
 30
0.0
 10
29.038391
 20
106.005606
 30
0.0
 10
29.001087
 20
105.991554
 30
0.0
 10
28.963667
 20
105.977457
 30
0.0
 10
28.926417
 20
105.963423
 30
0.0
 10
28.889208
 20
105.949405
 30
0.0
 10
28.851841
 20
105.935330
 30
0.0
 10
28.817948
 20
105.913631
 30
0.0
 10
28.783946
 20
105.891864
 30
0.0
 10
28.750101
 20
105.870194
 30
0.0
 10
28.716292
 20
105.848549
 30
0.0
 10
28.682341
 20
105.826813
 30
0.0
 10
28.652994
 20
105.798293
 30
0.0
 10
28.623556
 20
105.769683
 30
0.0
 10
28.594248
 20
105.741203
 30
0.0
 10
28.564975
 20
105.712754
 30
0.0
 10
28.535579
 20
105.684186
 30
0.0
 10
28.511820
 20
105.649363
 30
0.0
 10
28.487981
 20
105.614430
 30
0.0
 10
28.464248
 20
105.579654
 30
0.0
 10
28.440541
 20
105.544919
 30
0.0
 10
28.416729
 20
105.510037
 30
0.0
 10
28.399875
 20
105.469737
 30
0.0
 10
28.382968
 20
105.429310
 30
0.0
 10
28.366140
 20
105.389065
 30
0.0
 10
28.349339
 20
105.348867
 30
0.0
 10
28.332459
 20
105.308499
 30
0.0
 10
28.323569
 20
105.263549
 30
0.0
 10
28.314652
 20
105.218457
 30
0.0
 10
28.305789
 20
105.173569
 30
0.0
 10
28.296925
 20
105.128732
 30
0.0
 10
28.288035
 20
105.083706
 30
0.0
 10
28.288247
 20
105.034726
 30
0.0
 10
28.288459
 20
104.985592
 30
0.0
 10
28.288670
 20
104.936679
 30
0.0
 10
28.288882
 20
104.887822
 30
0.0
 10
28.289094
 20
104.838760
 30
0.0
 10
28.299730
 20
104.786474
 30
0.0
 10
28.310419
 20
104.734022
 30
0.0
 10
28.321055
 20
104.681807
 30
0.0
 10
28.331665
 20
104.629652
 30
0.0
 10
28.342328
 20
104.577277
 30
0.0
 10
28.364447
 20
104.522511
 30
0.0
 10
28.386619
 20
104.467571
 30
0.0
 10
28.408712
 20
104.412880
 30
0.0
 10
28.430778
 20
104.358251
 30
0.0
 10
28.452924
 20
104.303392
 30
0.0
 10
28.487748
 20
104.246972
 30
0.0
 10
28.522681
 20
104.190374
 30
0.0
 10
28.557458
 20
104.134032
 30
0.0
 10
28.592192
 20
104.077754
 30
0.0
 10
28.627075
 20
104.021239
 30
0.0
 10
28.675745
 20
103.963682
 30
0.0
 10
28.724569
 20
103.905944
 30
0.0
 10
28.773170
 20
103.848467
 30
0.0
 10
28.821718
 20
103.791055
 30
0.0
 10
28.870470
 20
103.733401
 30
0.0
 10
28.934021
 20
103.675534
 30
0.0
 10
28.997769
 20
103.617485
 30
0.0
 10
29.061232
 20
103.559698
 30
0.0
 10
29.124624
 20
103.501977
 30
0.0
 10
29.188280
 20
103.444013
 30
0.0
 10
29.268155
 20
103.386560
 30
0.0
 10
29.347874
 20
103.329220
 30
0.0
 10
29.427738
 20
103.271776
 30
0.0
 10
29.507553
 20
103.214367
 30
0.0
 10
29.587737
 20
103.156692
 30
0.0
 10
29.684871
 20
103.100479
 30
0.0
 10
29.781812
 20
103.044376
 30
0.0
 10
29.878930
 20
102.988172
 30
0.0
 10
29.975990
 20
102.932002
 30
0.0
 10
30.073496
 20
102.875572
 30
0.0
 10
30.121132
 20
102.859451
 30
0.0
 10
30.168921
 20
102.843280
 30
0.0
 10
30.216490
 20
102.827183
 30
0.0
 10
30.264007
 20
102.811104
 30
0.0
 10
30.311725
 20
102.794956
 30
0.0
 10
30.352542
 20
102.789170
 30
0.0
 10
30.393486
 20
102.783365
 30
0.0
 10
30.434248
 20
102.777587
 30
0.0
 10
30.474962
 20
102.771813
 30
0.0
 10
30.515848
 20
102.766016
 30
0.0
 10
30.553874
 20
102.764455
 30
0.0
 10
30.592022
 20
102.762894
 30
0.0
 10
30.629995
 20
102.761333
 30
0.0
 10
30.667925
 20
102.759799
 30
0.0
 10
30.706017
 20
102.758238
 30
0.0
 10
30.745284
 20
102.755033
 30
0.0
 10
30.784675
 20
102.751819
 30
0.0
 10
30.823887
 20
102.748620
 30
0.0
 10
30.863055
 20
102.745424
 30
0.0
 10
30.902388
 20
102.742214
 30
0.0
 10
30.910326
 20
102.738658
 30
0.0
 10
30.918105
 20
102.735171
 30
0.0
 10
30.925883
 20
102.731692
 30
0.0
 10
30.933900
 20
102.728104
 30
0.0
 10
30.941626
 20
102.724643
 30
0.0
 10
30.948214
 20
102.717740
 30
0.0
 10
30.954670
 20
102.710972
 30
0.0
 10
30.961126
 20
102.704220
 30
0.0
 10
30.967767
 20
102.697254
 30
0.0
 10
30.974170
 20
102.690536
 30
0.0
 10
30.983483
 20
102.668009
 30
0.0
 10
30.992717
 20
102.645644
 30
0.0
 10
31.001951
 20
102.623279
 30
0.0
 10
31.011291
 20
102.600649
 30
0.0
 10
31.020684
 20
102.577884
 30
0.0
 10
31.025843
 20
102.546058
 30
0.0
 10
31.030976
 20
102.514457
 30
0.0
 10
31.036188
 20
102.482337
 30
0.0
 10
31.041348
 20
102.450595
 30
0.0
 10
31.046533
 20
102.418721
 30
0.0
 10
31.048385
 20
102.380488
 30
0.0
 10
31.050238
 20
102.342134
 30
0.0
 10
31.052090
 20
102.303953
 30
0.0
 10
31.053942
 20
102.265816
 30
0.0
 10
31.055794
 20
102.227518
 30
0.0
 10
31.052592
 20
102.143405
 30
0.0
 10
31.049364
 20
102.059026
 30
0.0
 10
31.046163
 20
101.975029
 30
0.0
 10
31.042962
 20
101.891127
 30
0.0
 10
31.039760
 20
101.806872
 30
0.0
 10
31.033251
 20
101.731749
 30
0.0
 10
31.026716
 20
101.656388
 30
0.0
 10
31.020207
 20
101.581368
 30
0.0
 10
31.013699
 20
101.506434
 30
0.0
 10
31.007190
 20
101.431184
 30
0.0
 10
30.996130
 20
101.276288
 30
0.0
 10
30.985071
 20
101.121300
 30
0.0
 10
30.974011
 20
100.966523
 30
0.0
 10
30.962952
 20
100.811478
 30
0.0
 10
30.951892
 20
100.656555
 30
0.0
 10
30.950569
 20
100.582361
 30
0.0
 10
30.949246
 20
100.507934
 30
0.0
 10
30.947923
 20
100.433843
 30
0.0
 10
30.946600
 20
100.359836
 30
0.0
 10
30.945277
 20
100.285518
 30
0.0
 10
30.948373
 20
100.213598
 30
0.0
 10
30.951469
 20
100.141451
 30
0.0
 10
30.954564
 20
100.069630
 30
0.0
 10
30.957660
 20
99.997891
 30
0.0
 10
30.960755
 20
99.925850
 30
0.0
 10
30.969222
 20
99.856203
 30
0.0
 10
30.977715
 20
99.786337
 30
0.0
 10
30.986182
 20
99.716786
 30
0.0
 10
30.994622
 20
99.647315
 30
0.0
 10
31.003115
 20
99.577551
 30
0.0
 10
31.017800
 20
99.510281
 30
0.0
 10
31.032510
 20
99.442799
 30
0.0
 10
31.047168
 20
99.375621
 30
0.0
 10
31.061800
 20
99.308520
 30
0.0
 10
31.076484
 20
99.241137
 30
0.0
 10
31.098498
 20
99.176141
 30
0.0
 10
31.120564
 20
99.110939
 30
0.0
 10
31.142551
 20
99.046032
 30
0.0
 10
31.164511
 20
98.981199
 30
0.0
 10
31.186551
 20
98.916092
 30
0.0
 10
31.216930
 20
98.853473
 30
0.0
 10
31.247408
 20
98.790655
 30
0.0
 10
31.277745
 20
98.728121
 30
0.0
 10
31.308048
 20
98.665659
 30
0.0
 10
31.338480
 20
98.602933
 30
0.0
 10
31.378159
 20
98.542690
 30
0.0
 10
31.417966
 20
98.482257
 30
0.0
 10
31.457590
 20
98.422096
 30
0.0
 10
31.497172
 20
98.362005
 30
0.0
 10
31.536917
 20
98.301660
 30
0.0
 10
31.587035
 20
98.243793
 30
0.0
 10
31.637308
 20
98.185744
 30
0.0
 10
31.687357
 20
98.127957
 30
0.0
 10
31.737347
 20
98.070236
 30
0.0
 10
31.787549
 20
98.012272
 30
0.0
 10
31.849033
 20
97.956989
 30
0.0
 10
31.910710
 20
97.901531
 30
0.0
 10
31.972109
 20
97.846323
 30
0.0
 10
32.033437
 20
97.791179
 30
0.0
 10
32.095024
 20
97.735803
 30
0.0
 10
32.169010
 20
97.683000
 30
0.0
 10
32.242850
 20
97.630300
 30
0.0
 10
32.316824
 20
97.577506
 30
0.0
 10
32.390754
 20
97.524743
 30
0.0
 10
32.465025
 20
97.471736
 30
0.0
 10
32.552343
 20
97.421413
 30
0.0
 10
32.639486
 20
97.371189
 30
0.0
 10
32.726791
 20
97.320874
 30
0.0
 10
32.814040
 20
97.270589
 30
0.0
 10
32.901694
 20
97.220072
 30
0.0
 10
33.003476
 20
97.172435
 30
0.0
 10
33.105058
 20
97.124893
 30
0.0
 10
33.206825
 20
97.077264
 30
0.0
 10
33.308530
 20
97.029664
 30
0.0
 10
33.410704
 20
96.981843
 30
0.0
 10
33.527986
 20
96.936687
 30
0.0
 10
33.645340
 20
96.891504
 30
0.0
 10
33.762534
 20
96.846382
 30
0.0
 10
33.879930
 20
96.801182
 30
0.0
 10
33.997233
 20
96.756018
 30
0.0
 10
34.131048
 20
96.713548
 30
0.0
 10
34.264946
 20
96.671052
 30
0.0
 10
34.398659
 20
96.628615
 30
0.0
 10
34.532604
 20
96.586105
 30
0.0
 10
34.666443
 20
96.543627
 30
0.0
 10
34.765953
 20
96.510974
 30
0.0
 10
34.865267
 20
96.478385
 30
0.0
 10
34.964761
 20
96.445737
 30
0.0
 10
35.064194
 20
96.413109
 30
0.0
 10
35.164088
 20
96.380330
 30
0.0
 10
35.197981
 20
96.348400
 30
0.0
 10
35.231980
 20
96.316369
 30
0.0
 10
35.265828
 20
96.284483
 30
0.0
 10
35.299634
 20
96.252634
 30
0.0
 10
35.333585
 20
96.220650
 30
0.0
 10
35.350227
 20
96.199364
 30
0.0
 10
35.366737
 20
96.178229
 30
0.0
 10
35.383538
 20
96.156745
 30
0.0
 10
35.400128
 20
96.135515
 30
0.0
 10
35.416796
 20
96.114197
 30
0.0
 10
35.423914
 20
96.095375
 30
0.0
 10
35.430899
 20
96.076917
 30
0.0
 10
35.437857
 20
96.058500
 30
0.0
 10
35.444895
 20
96.039886
 30
0.0
 10
35.451960
 20
96.021180
 30
0.0
 10
35.457648
 20
95.719138
 30
0.0
 10
35.463337
 20
95.416916
 30
0.0
 10
35.469025
 20
95.114797
 30
0.0
 10
35.474714
 20
94.812603
 30
0.0
 10
35.480402
 20
94.510678
 30
0.0
 10
35.491039
 20
94.073993
 30
0.0
 10
35.501675
 20
93.637048
 30
0.0
 10
35.512311
 20
93.200253
 30
0.0
 10
35.522974
 20
92.763348
 30
0.0
 10
35.533610
 20
92.326832
 30
0.0
 10
35.536917
 20
92.092060
 30
0.0
 10
35.540225
 20
91.857147
 30
0.0
 10
35.543532
 20
91.622555
 30
0.0
 10
35.546839
 20
91.387557
 30
0.0
 10
35.550146
 20
91.152744
 30
0.0
 10
35.550041
 20
90.924894
 30
0.0
 10
35.549935
 20
90.696910
 30
0.0
 10
35.549829
 20
90.469235
 30
0.0
 10
35.549723
 20
90.241168
 30
0.0
 10
35.549617
 20
90.013278
 30
0.0
 10
35.544564
 20
89.805992
 30
0.0
 10
35.539510
 20
89.598583
 30
0.0
 10
35.534457
 20
89.391456
 30
0.0
 10
35.529403
 20
89.183972
 30
0.0
 10
35.524350
 20
88.976649
 30
0.0
 10
35.512787
 20
88.803463
 30
0.0
 10
35.501199
 20
88.630174
 30
0.0
 10
35.489636
 20
88.457121
 30
0.0
 10
35.478048
 20
88.283769
 30
0.0
 10
35.466459
 20
88.110552
 30
0.0
 10
35.460162
 20
88.072009
 30
0.0
 10
35.453838
 20
88.033344
 30
0.0
 10
35.447541
 20
87.994854
 30
0.0
 10
35.441244
 20
87.956407
 30
0.0
 10
35.434920
 20
87.917799
 30
0.0
 10
35.424178
 20
87.891346
 30
0.0
 10
35.413516
 20
87.865081
 30
0.0
 10
35.402668
 20
87.838384
 30
0.0
 10
35.391952
 20
87.812002
 30
0.0
 10
35.381184
 20
87.785509
 30
0.0
 10
35.364753
 20
87.768150
 30
0.0
 10
35.348428
 20
87.750912
 30
0.0
 10
35.332103
 20
87.733674
 30
0.0
 10
35.315593
 20
87.716233
 30
0.0
 10
35.299004
 20
87.698689
 30
0.0
 10
35.275456
 20
87.687838
 30
0.0
 10
35.252067
 20
87.677064
 30
0.0
 10
35.228678
 20
87.666290
 30
0.0
 10
35.205024
 20
87.655390
 30
0.0
 10
35.181211
 20
87.644425
 30
0.0
 10
35.149178
 20
87.637088
 30
0.0
 10
35.117373
 20
87.629804
 30
0.0
 10
35.085043
 20
87.622399
 30
0.0
 10
35.053095
 20
87.615083
 30
0.0
 10
35.021014
 20
87.607735
 30
0.0
 10
34.979165
 20
87.601330
 30
0.0
 10
34.937184
 20
87.594903
 30
0.0
 10
34.895390
 20
87.588505
 30
0.0
 10
34.853647
 20
87.582116
 30
0.0
 10
34.811726
 20
87.575700
 30
0.0
 10
34.758717
 20
87.567225
 30
0.0
 10
34.705538
 20
87.558724
 30
0.0
 10
34.652600
 20
87.550263
 30
0.0
 10
34.599723
 20
87.541809
 30
0.0
 10
34.546624
 20
87.533321
 30
0.0
 10
34.481008
 20
87.519992
 30
0.0
 10
34.415185
 20
87.506620
 30
0.0
 10
34.349658
 20
87.493308
 30
0.0
 10
34.284208
 20
87.480013
 30
0.0
 10
34.218480
 20
87.466660
 30
0.0
 10
33.999413
 20
87.429357
 30
0.0
 10
33.780216
 20
87.392031
 30
0.0
 10
33.561319
 20
87.354756
 30
0.0
 10
33.342042
 20
87.317417
 30
0.0
 10
33.122938
 20
87.280108
 30
0.0
 10
32.905422
 20
87.237431
 30
0.0
 10
32.687778
 20
87.194729
 30
0.0
 10
32.470428
 20
87.152085
 30
0.0
 10
32.252703
 20
87.109368
 30
0.0
 10
32.035149
 20
87.066684
 30
0.0
 10
31.927477
 20
87.041988
 30
0.0
 10
31.820016
 20
87.017339
 30
0.0
 10
31.712360
 20
86.992646
 30
0.0
 10
31.604770
 20
86.967968
 30
0.0
 10
31.496682
 20
86.943176
 30
0.0
 10
31.390042
 20
86.915380
 30
0.0
 10
31.283613
 20
86.887638
 30
0.0
 10
31.176989
 20
86.859846
 30
0.0
 10
31.070431
 20
86.832071
 30
0.0
 10
30.963380
 20
86.804167
 30
0.0
 10
30.857878
 20
86.772960
 30
0.0
 10
30.752581
 20
86.741815
 30
0.0
 10
30.647097
 20
86.710614
 30
0.0
 10
30.541674
 20
86.679431
 30
0.0
 10
30.435764
 20
86.648104
 30
0.0
 10
30.331605
 20
86.612765
 30
0.0
 10
30.227651
 20
86.577494
 30
0.0
 10
30.123508
 20
86.542160
 30
0.0
 10
30.019426
 20
86.506848
 30
0.0
 10
29.914865
 20
86.471373
 30
0.0
 10
29.798512
 20
86.427973
 30
0.0
 10
29.682090
 20
86.384547
 30
0.0
 10
29.565827
 20
86.341179
 30
0.0
 10
29.449363
 20
86.297737
 30
0.0
 10
29.332989
 20
86.254330
 30
0.0
 10
29.216945
 20
86.207829
 30
0.0
 10
29.100835
 20
86.161302
 30
0.0
 10
28.984882
 20
86.114839
 30
0.0
 10
28.868727
 20
86.068296
 30
0.0
 10
28.752665
 20
86.021787
 30
0.0
 10
28.637552
 20
85.970741
 30
0.0
 10
28.522369
 20
85.919663
 30
0.0
 10
28.407344
 20
85.868654
 30
0.0
 10
28.292120
 20
85.817561
 30
0.0
 10
28.176987
 20
85.766504
 30
0.0
 10
28.063322
 20
85.709362
 30
0.0
 10
27.949588
 20
85.652183
 30
0.0
 10
27.836008
 20
85.595083
 30
0.0
 10
27.722234
 20
85.537885
 30
0.0
 10
27.608548
 20
85.480733
 30
0.0
 10
27.496846
 20
85.416047
 30
0.0
 10
27.385076
 20
85.351322
 30
0.0
 10
27.273459
 20
85.286685
 30
0.0
 10
27.161648
 20
85.221939
 30
0.0
 10
27.049925
 20
85.157240
 30
0.0
 10
26.940909
 20
85.083564
 30
0.0
 10
26.831827
 20
85.009843
 30
0.0
 10
26.722895
 20
84.936223
 30
0.0
 10
26.613773
 20
84.862476
 30
0.0
 10
26.504738
 20
84.788787
 30
0.0
 10
26.398822
 20
84.704467
 30
0.0
 10
26.292843
 20
84.620096
 30
0.0
 10
26.187008
 20
84.535842
 30
0.0
 10
26.080990
 20
84.451440
 30
0.0
 10
25.975055
 20
84.367107
 30
0.0
 10
25.923492
 20
84.320503
 30
0.0
 10
25.871766
 20
84.273754
 30
0.0
 10
25.820274
 20
84.227214
 30
0.0
 10
25.768840
 20
84.180729
 30
0.0
 10
25.717190
 20
84.134046
 30
0.0
 10
25.666557
 20
84.084344
 30
0.0
 10
25.615764
 20
84.034483
 30
0.0
 10
25.565200
 20
83.984847
 30
0.0
 10
25.514694
 20
83.935270
 30
0.0
 10
25.463975
 20
83.885483
 30
0.0
 10
25.403629
 20
83.806537
 30
0.0
 10
25.343401
 20
83.727747
 30
0.0
 10
25.283064
 20
83.648811
 30
0.0
 10
25.222764
 20
83.569925
 30
0.0
 10
25.162185
 20
83.490675
 30
0.0
 10
25.138727
 20
83.452649
 30
0.0
 10
25.115197
 20
83.414501
 30
0.0
 10
25.091774
 20
83.376528
 30
0.0
 10
25.068377
 20
83.338597
 30
0.0
 10
25.044882
 20
83.300505
 30
0.0
 10
25.025353
 20
83.262583
 30
0.0
 10
25.005760
 20
83.224538
 30
0.0
 10
24.986258
 20
83.186668
 30
0.0
 10
24.966777
 20
83.148838
 30
0.0
 10
24.947213
 20
83.110852
 30
0.0
 10
24.931405
 20
83.072517
 30
0.0
 10
24.915545
 20
83.034057
 30
0.0
 10
24.899758
 20
82.995774
 30
0.0
 10
24.883989
 20
82.957534
 30
0.0
 10
24.868153
 20
82.919132
 30
0.0
 10
24.855443
 20
82.879865
 30
0.0
 10
24.842692
 20
82.840477
 30
0.0
 10
24.830000
 20
82.801263
 30
0.0
 10
24.817322
 20
82.762097
 30
0.0
 10
24.804590
 20
82.722764
 30
0.0
 10
24.787643
 20
82.638960
 30
0.0
 10
24.770644
 20
82.554894
 30
0.0
 10
24.753721
 20
82.471203
 30
0.0
 10
24.736817
 20
82.387611
 30
0.0
 10
24.719841
 20
82.303666
 30
0.0
 10
24.711367
 20
82.209118
 30
0.0
 10
24.702910
 20
82.114754
 30
0.0
 10
24.694438
 20
82.020218
 30
0.0
 10
24.685972
 20
81.925741
 30
0.0
 10
24.677465
 20
81.830827
 30
0.0
 10
24.674571
 20
81.720985
 30
0.0
 10
24.671684
 20
81.611358
 30
0.0
 10
24.668792
 20
81.501532
 30
0.0
 10
24.665901
 20
81.391775
 30
0.0
 10
24.662995
 20
81.281507
 30
0.0
 10
24.662069
 20
80.997548
 30
0.0
 10
24.661143
 20
80.713420
 30
0.0
 10
24.660217
 20
80.429678
 30
0.0
 10
24.659291
 20
80.145447
 30
0.0
 10
24.658365
 20
79.861438
 30
0.0
 10
24.661051
 20
79.795099
 30
0.0
 10
24.663747
 20
79.728548
 30
0.0
 10
24.666430
 20
79.662302
 30
0.0
 10
24.669110
 20
79.596130
 30
0.0
 10
24.671801
 20
79.529677
 30
0.0
 10
24.667978
 20
79.478631
 30
0.0
 10
24.664141
 20
79.427421
 30
0.0
 10
24.660323
 20
79.376446
 30
0.0
 10
24.656510
 20
79.325527
 30
0.0
 10
24.652679
 20
79.274394
 30
0.0
 10
24.635423
 20
79.185734
 30
0.0
 10
24.618111
 20
79.096795
 30
0.0
 10
24.600879
 20
79.008257
 30
0.0
 10
24.583665
 20
78.919820
 30
0.0
 10
24.566380
 20
78.831010
 30
0.0
 10
24.557906
 20
78.777173
 30
0.0
 10
24.549404
 20
78.723166
 30
0.0
 10
24.540943
 20
78.669405
 30
0.0
 10
24.532490
 20
78.615703
 30
0.0
 10
24.524002
 20
78.561776
 30
0.0
 10
24.518835
 20
78.490682
 30
0.0
 10
24.513651
 20
78.419364
 30
0.0
 10
24.508492
 20
78.348371
 30
0.0
 10
24.503338
 20
78.277454
 30
0.0
 10
24.498163
 20
78.206242
 30
0.0
 10
24.498692
 20
78.109730
 30
0.0
 10
24.499221
 20
78.013405
 30
0.0
 10
24.499750
 20
77.916909
 30
0.0
 10
24.500279
 20
77.820471
 30
0.0
 10
24.500808
 20
77.723586
 30
0.0
 10
24.509696
 20
77.593594
 30
0.0
 10
24.518588
 20
77.463522
 30
0.0
 10
24.527468
 20
77.333627
 30
0.0
 10
24.536363
 20
77.203511
 30
0.0
 10
24.545251
 20
77.073494
 30
0.0
 10
24.598260
 20
76.716995
 30
0.0
 10
24.651302
 20
76.360286
 30
0.0
 10
24.704325
 20
76.003697
 30
0.0
 10
24.757361
 20
75.647017
 30
0.0
 10
24.810351
 20
75.290658
 30
0.0
 10
24.810557
 20
74.755392
 30
0.0
 10
24.810763
 20
74.219810
 30
0.0
 10
24.810970
 20
73.684412
 30
0.0
 10
24.811176
 20
73.148877
 30
0.0
 10
24.811382
 20
72.613821
 30
0.0
 10
24.789372
 20
72.408189
 30
0.0
 10
24.767348
 20
72.202433
 30
0.0
 10
24.745356
 20
71.996958
 30
0.0
 10
24.723324
 20
71.791128
 30
0.0
 10
24.701311
 20
71.585459
 30
0.0
 10
24.691804
 20
71.471069
 30
0.0
 10
24.682316
 20
71.356904
 30
0.0
 10
24.672810
 20
71.242533
 30
0.0
 10
24.663285
 20
71.127934
 30
0.0
 10
24.653765
 20
71.013401
 30
0.0
 10
24.652627
 20
70.964834
 30
0.0
 10
24.651489
 20
70.916114
 30
0.0
 10
24.650352
 20
70.867616
 30
0.0
 10
24.649214
 20
70.819170
 30
0.0
 10
24.648076
 20
70.770521
 30
0.0
 10
24.650458
 20
70.732083
 30
0.0
 10
24.652839
 20
70.693520
 30
0.0
 10
24.655220
 20
70.655134
 30
0.0
 10
24.657601
 20
70.616791
 30
0.0
 10
24.659983
 20
70.578286
 30
0.0
 10
24.669592
 20
70.469476
 30
0.0
 10
24.679183
 20
70.360880
 30
0.0
 10
24.688793
 20
70.252089
 30
0.0
 10
24.698395
 20
70.143364
 30
0.0
 10
24.708042
 20
70.034133
 30
0.0
 10
24.710105
 20
69.922431
 30
0.0
 10
24.712169
 20
69.810947
 30
0.0
 10
24.714233
 20
69.699263
 30
0.0
 10
24.716297
 20
69.587643
 30
0.0
 10
24.718360
 20
69.475510
 30
0.0
 10
24.715873
 20
69.254583
 30
0.0
 10
24.713386
 20
69.033527
 30
0.0
 10
24.710899
 20
68.812771
 30
0.0
 10
24.708412
 20
68.591633
 30
0.0
 10
24.705925
 20
68.370669
 30
0.0
 10
24.706851
 20
68.148916
 30
0.0
 10
24.707777
 20
67.927031
 30
0.0
 10
24.708703
 20
67.705448
 30
0.0
 10
24.709629
 20
67.483484
 30
0.0
 10
24.710555
 20
67.261691
 30
0.0
 10
24.709206
 20
67.163732
 30
0.0
 10
24.707856
 20
67.065966
 30
0.0
 10
24.706507
 20
66.968022
 30
0.0
 10
24.705158
 20
66.870137
 30
0.0
 10
24.703808
 20
66.771800
 30
0.0
 10
24.699985
 20
66.685413
 30
0.0
 10
24.696148
 20
66.598754
 30
0.0
 10
24.692331
 20
66.512484
 30
0.0
 10
24.688518
 20
66.426315
 30
0.0
 10
24.684687
 20
66.339783
 30
0.0
 10
24.677350
 20
66.267451
 30
0.0
 10
24.669989
 20
66.194889
 30
0.0
 10
24.662663
 20
66.122655
 30
0.0
 10
24.655344
 20
66.050506
 30
0.0
 10
24.647994
 20
65.978050
 30
0.0
 10
24.636215
 20
65.922043
 30
0.0
 10
24.624399
 20
65.865858
 30
0.0
 10
24.612635
 20
65.809928
 30
0.0
 10
24.600885
 20
65.754064
 30
0.0
 10
24.589085
 20
65.697962
 30
0.0
 10
24.581129
 20
65.676663
 30
0.0
 10
24.573228
 20
65.655522
 30
0.0
 10
24.565328
 20
65.634382
 30
0.0
 10
24.557335
 20
65.613004
 30
0.0
 10
24.549294
 20
65.591493
 30
0.0
 10
24.539674
 20
65.574983
 30
0.0
 10
24.530239
 20
65.558791
 30
0.0
 10
24.520825
 20
65.542625
 30
0.0
 10
24.511311
 20
65.526273
 30
0.0
 10
24.501749
 20
65.509843
 30
0.0
 10
24.490559
 20
65.498651
 30
0.0
 10
24.479587
 20
65.487671
 30
0.0
 10
24.468639
 20
65.476717
 30
0.0
 10
24.457574
 20
65.465657
 30
0.0
 10
24.446453
 20
65.454545
 30
0.0
 10
24.433486
 20
65.448909
 30
0.0
 10
24.420770
 20
65.443380
 30
0.0
 10
24.408083
 20
65.437850
 30
0.0
 10
24.394994
 20
65.432161
 30
0.0
 10
24.382374
 20
65.426658
 30
0.0
 10
24.186971
 20
65.377265
 30
0.0
 10
23.991452
 20
65.327841
 30
0.0
 10
23.796200
 20
65.278489
 30
0.0
 10
23.600609
 20
65.229046
 30
0.0
 10
23.405173
 20
65.179645
 30
0.0
 10
23.220207
 20
65.136349
 30
0.0
 10
23.035131
 20
65.093026
 30
0.0
 10
22.850306
 20
65.049764
 30
0.0
 10
22.665163
 20
65.006425
 30
0.0
 10
22.480164
 20
64.963121
 30
0.0
 10
22.319792
 20
64.922304
 30
0.0
 10
22.159324
 20
64.881465
 30
0.0
 10
21.999074
 20
64.840680
 30
0.0
 10
21.838547
 20
64.799823
 30
0.0
 10
21.678146
 20
64.759000
 30
0.0
 10
21.611806
 20
64.738442
 30
0.0
 10
21.545257
 20
64.717805
 30
0.0
 10
21.479008
 20
64.697273
 30
0.0
 10
21.412835
 20
64.676768
 30
0.0
 10
21.346384
 20
64.656183
 30
0.0
 10
21.291514
 20
64.634805
 30
0.0
 10
21.236471
 20
64.613347
 30
0.0
 10
21.181676
 20
64.591995
 30
0.0
 10
21.126944
 20
64.570670
 30
0.0
 10
21.071982
 20
64.549239
 30
0.0
 10
20.801869
 20
64.430094
 30
0.0
 10
20.531596
 20
64.310881
 30
0.0
 10
20.261691
 20
64.191829
 30
0.0
 10
19.991320
 20
64.072571
 30
0.0
 10
19.721160
 20
63.953408
 30
0.0
 10
19.526687
 20
63.870948
 30
0.0
 10
19.332099
 20
63.788440
 30
0.0
 10
19.137775
 20
63.706043
 30
0.0
 10
18.943116
 20
63.623504
 30
0.0
 10
18.748609
 20
63.541031
 30
0.0
 10
18.509807
 20
63.440386
 30
0.0
 10
18.270862
 20
63.339677
 30
0.0
 10
18.032243
 20
63.239109
 30
0.0
 10
17.793211
 20
63.138367
 30
0.0
 10
17.554367
 20
63.037703
 30
0.0
 10
17.471907
 20
62.996473
 30
0.0
 10
17.389610
 20
62.955325
 30
0.0
 10
17.307163
 20
62.914100
 30
0.0
 10
17.224767
 20
62.872902
 30
0.0
 10
17.141989
 20
62.831513
 30
0.0
 10
17.058909
 20
62.780880
 30
0.0
 10
16.975993
 20
62.730347
 30
0.0
 10
16.892927
 20
62.679722
 30
0.0
 10
16.809911
 20
62.629128
 30
0.0
 10
16.726510
 20
62.578299
 30
0.0
 10
16.623694
 20
62.506896
 30
0.0
 10
16.520817
 20
62.435451
 30
0.0
 10
16.418079
 20
62.364103
 30
0.0
 10
16.315164
 20
62.292631
 30
0.0
 10
16.212330
 20
62.221215
 30
0.0
 10
16.070557
 20
62.117263
 30
0.0
 10
15.928700
 20
62.013247
 30
0.0
 10
15.787036
 20
61.909372
 30
0.0
 10
15.645127
 20
61.805319
 30
0.0
 10
15.503329
 20
61.701348
 30
0.0
 10
15.470573
 20
61.672932
 30
0.0
 10
15.437713
 20
61.644426
 30
0.0
 10
15.405001
 20
61.616047
 30
0.0
 10
15.372327
 20
61.587702
 30
0.0
 10
15.339515
 20
61.559238
 30
0.0
 10
15.312442
 20
61.527308
 30
0.0
 10
15.285283
 20
61.495278
 30
0.0
 10
15.258247
 20
61.463393
 30
0.0
 10
15.231242
 20
61.431542
 30
0.0
 10
15.204123
 20
61.399559
 30
0.0
 10
15.182112
 20
61.364425
 30
0.0
 10
15.160033
 20
61.329183
 30
0.0
 10
15.138054
 20
61.294096
 30
0.0
 10
15.116099
 20
61.259052
 30
0.0
 10
15.094051
 20
61.223860
 30
0.0
 10
15.076382
 20
61.186041
 30
0.0
 10
15.058658
 20
61.148099
 30
0.0
 10
15.041013
 20
61.110333
 30
0.0
 10
15.023386
 20
61.072606
 30
0.0
 10
15.005685
 20
61.034723
 30
0.0
 10
14.991633
 20
60.994630
 30
0.0
 10
14.977536
 20
60.954411
 30
0.0
 10
14.963503
 20
60.914372
 30
0.0
 10
14.949485
 20
60.874380
 30
0.0
 10
14.935409
 20
60.834219
 30
0.0
 10
14.924146
 20
60.792267
 30
0.0
 10
14.912848
 20
60.750179
 30
0.0
 10
14.901601
 20
60.708285
 30
0.0
 10
14.890367
 20
60.666436
 30
0.0
 10
14.879085
 20
60.624412
 30
0.0
 10
14.862551
 20
60.536269
 30
0.0
 10
14.845964
 20
60.447848
 30
0.0
 10
14.829454
 20
60.359826
 30
0.0
 10
14.812963
 20
60.271905
 30
0.0
 10
14.796403
 20
60.183614
 30
0.0
 10
14.782866
 20
60.092888
 30
0.0
 10
14.769357
 20
60.002340
 30
0.0
 10
14.755823
 20
59.911627
 30
0.0
 10
14.742298
 20
59.820971
 30
0.0
 10
14.728709
 20
59.729893
 30
0.0
 10
14.712588
 20
59.639683
 30
0.0
 10
14.696499
 20
59.549651
 30
0.0
 10
14.680380
 20
59.459457
 30
0.0
 10
14.664272
 20
59.369316
 30
0.0
 10
14.648090
 20
59.278757
 30
0.0
 10
14.637240
 20
59.234842
 30
0.0
 10
14.626355
 20
59.190786
 30
0.0
 10
14.615520
 20
59.146931
 30
0.0
 10
14.604696
 20
59.103124
 30
0.0
 10
14.593827
 20
59.059135
 30
0.0
 10
14.580188
 20
59.016664
 30
0.0
 10
14.566503
 20
58.974060
 30
0.0
 10
14.552883
 20
58.931648
 30
0.0
 10
14.539278
 20
58.889285
 30
0.0
 10
14.525615
 20
58.846743
 30
0.0
 10
14.508565
 20
58.806029
 30
0.0
 10
14.491462
 20
58.765188
 30
0.0
 10
14.474436
 20
58.724532
 30
0.0
 10
14.457429
 20
58.683921
 30
0.0
 10
14.440350
 20
58.643138
 30
0.0
 10
14.418961
 20
58.604594
 30
0.0
 10
14.397504
 20
58.565930
 30
0.0
 10
14.376144
 20
58.527438
 30
0.0
 10
14.354808
 20
58.488992
 30
0.0
 10
14.333382
 20
58.450384
 30
0.0
 10
14.243379
 20
58.349427
 30
0.0
 10
14.153322
 20
58.248412
 30
0.0
 10
14.063388
 20
58.147534
 30
0.0
 10
13.973299
 20
58.046479
 30
0.0
 10
13.883280
 20
57.945506
 30
0.0
 10
13.789040
 20
57.831426
 30
0.0
 10
13.694745
 20
57.717279
 30
0.0
 10
13.600577
 20
57.603286
 30
0.0
 10
13.506247
 20
57.489097
 30
0.0
 10
13.411991
 20
57.374998
 30
0.0
 10
13.193338
 20
57.096516
 30
0.0
 10
12.974556
 20
56.817868
 30
0.0
 10
12.755848
 20
56.539314
 30
0.0
 10
12.537086
 20
56.260692
 30
0.0
 10
12.318518
 20
55.982319
 30
0.0
 10
12.265921
 20
55.884153
 30
0.0
 10
12.213428
 20
55.786181
 30
0.0
 10
12.160840
 20
55.688028
 30
0.0
 10
12.108284
 20
55.589936
 30
0.0
 10
12.055485
 20
55.491392
 30
0.0
 10
12.011465
 20
55.398807
 30
0.0
 10
11.967532
 20
55.306401
 30
0.0
 10
11.923519
 20
55.213831
 30
0.0
 10
11.879533
 20
55.121314
 30
0.0
 10
11.835343
 20
55.028372
 30
0.0
 10
11.798970
 20
54.940538
 30
0.0
 10
11.762668
 20
54.852879
 30
0.0
 10
11.726301
 20
54.765061
 30
0.0
 10
11.689956
 20
54.677296
 30
0.0
 10
11.653442
 20
54.589124
 30
0.0
 10
11.624199
 20
54.505113
 30
0.0
 10
11.594863
 20
54.420838
 30
0.0
 10
11.565660
 20
54.336944
 30
0.0
 10
11.536490
 20
54.253145
 30
0.0
 10
11.507198
 20
54.168992
 30
0.0
 10
11.484362
 20
54.087979
 30
0.0
 10
11.461454
 20
54.006710
 30
0.0
 10
11.438650
 20
53.925808
 30
0.0
 10
11.415869
 20
53.844999
 30
0.0
 10
11.392993
 20
53.763848
 30
0.0
 10
11.375737
 20
53.685005
 30
0.0
 10
11.358425
 20
53.605913
 30
0.0
 10
11.341193
 20
53.527179
 30
0.0
 10
11.323979
 20
53.448534
 30
0.0
 10
11.306694
 20
53.369558
 30
0.0
 10
11.294293
 20
53.291956
 30
0.0
 10
11.281855
 20
53.214108
 30
0.0
 10
11.269472
 20
53.136611
 30
0.0
 10
11.257103
 20
53.059202
 30
0.0
 10
11.244681
 20
52.981468
 30
0.0
 10
11.236622
 20
52.904175
 30
0.0
 10
11.228536
 20
52.826639
 30
0.0
 10
11.220487
 20
52.749452
 30
0.0
 10
11.212447
 20
52.672352
 30
0.0
 10
11.204374
 20
52.594930
 30
0.0
 10
11.199723
 20
52.517119
 30
0.0
 10
11.195058
 20
52.439064
 30
0.0
 10
11.190415
 20
52.361361
 30
0.0
 10
11.185777
 20
52.283746
 30
0.0
 10
11.181120
 20
52.205805
 30
0.0
 10
11.179374
 20
52.126549
 30
0.0
 10
11.177601
 20
52.047041
 30
0.0
 10
11.175855
 20
51.967894
 30
0.0
 10
11.174109
 20
51.888839
 30
0.0
 10
11.172336
 20
51.809448
 30
0.0
 10
11.174400
 20
51.643287
 30
0.0
 10
11.176463
 20
51.477031
 30
0.0
 10
11.178527
 20
51.310997
 30
0.0
 10
11.180591
 20
51.144680
 30
0.0
 10
11.182655
 20
50.978490
 30
0.0
 10
11.187512
 20
50.796107
 30
0.0
 10
11.192373
 20
50.613616
 30
0.0
 10
11.197225
 20
50.431371
 30
0.0
 10
11.202086
 20
50.248814
 30
0.0
 10
11.206943
 20
50.066400
 30
0.0
 10
11.208795
 20
49.860974
 30
0.0
 10
11.210648
 20
49.655425
 30
0.0
 10
11.212500
 20
49.450159
 30
0.0
 10
11.214352
 20
49.244535
 30
0.0
 10
11.216204
 20
49.039073
 30
0.0
 10
11.172287
 20
48.868263
 30
0.0
 10
11.128345
 20
48.697353
 30
0.0
 10
11.084462
 20
48.526675
 30
0.0
 10
11.040503
 20
48.355702
 30
0.0
 10
10.996579
 20
48.184863
 30
0.0
 10
10.956693
 20
48.040093
 30
0.0
 10
10.916782
 20
47.895237
 30
0.0
 10
10.876926
 20
47.750578
 30
0.0
 10
10.837002
 20
47.605671
 30
0.0
 10
10.797108
 20
47.460876
 30
0.0
 10
10.768072
 20
47.336463
 30
0.0
 10
10.739018
 20
47.211977
 30
0.0
 10
10.710003
 20
47.087660
 30
0.0
 10
10.680939
 20
46.963126
 30
0.0
 10
10.651897
 20
46.838692
 30
0.0
 10
10.643838
 20
46.782375
 30
0.0
 10
10.635752
 20
46.725882
 30
0.0
 10
10.627704
 20
46.669642
 30
0.0
 10
10.619663
 20
46.613465
 30
0.0
 10
10.611591
 20
46.557054
 30
0.0
 10
10.608905
 20
46.503735
 30
0.0
 10
10.606209
 20
46.450247
 30
0.0
 10
10.603526
 20
46.396999
 30
0.0
 10
10.600846
 20
46.343813
 30
0.0
 10
10.598155
 20
46.290404
 30
0.0
 10
10.601875
 20
46.239358
 30
0.0
 10
10.605606
 20
46.188150
 30
0.0
 10
10.609321
 20
46.137173
 30
0.0
 10
10.613030
 20
46.086257
 30
0.0
 10
10.616755
 20
46.035123
 30
0.0
 10
10.627606
 20
45.985628
 30
0.0
 10
10.638491
 20
45.935973
 30
0.0
 10
10.649326
 20
45.886544
 30
0.0
 10
10.660150
 20
45.837173
 30
0.0
 10
10.671019
 20
45.787592
 30
0.0
 10
10.707599
 20
45.731998
 30
0.0
 10
10.744294
 20
45.676232
 30
0.0
 10
10.780824
 20
45.620714
 30
0.0
 10
10.817312
 20
45.565260
 30
0.0
 10
10.853954
 20
45.509574
 30
0.0
 10
10.892187
 20
45.461523
 30
0.0
 10
10.930541
 20
45.413323
 30
0.0
 10
10.968721
 20
45.365339
 30
0.0
 10
11.006859
 20
45.317409
 30
0.0
 10
11.045156
 20
45.269279
 30
0.0
 10
11.085353
 20
45.227430
 30
0.0
 10
11.125676
 20
45.185446
 30
0.0
 10
11.165818
 20
45.143655
 30
0.0
 10
11.205913
 20
45.101909
 30
0.0
 10
11.246177
 20
45.059988
 30
0.0
 10
11.288854
 20
45.022891
 30
0.0
 10
11.331665
 20
44.985677
 30
0.0
 10
11.374283
 20
44.948633
 30
0.0
 10
11.416852
 20
44.911628
 30
0.0
 10
11.459601
 20
44.874470
 30
0.0
 10
11.505171
 20
44.840680
 30
0.0
 10
11.550885
 20
44.806785
 30
0.0
 10
11.596392
 20
44.773040
 30
0.0
 10
11.641847
 20
44.739337
 30
0.0
 10
11.687494
 20
44.705489
 30
0.0
 10
11.736474
 20
44.673559
 30
0.0
 10
11.785609
 20
44.641529
 30
0.0
 10
11.834521
 20
44.609641
 30
0.0
 10
11.883378
 20
44.577790
 30
0.0
 10
11.932440
 20
44.545808
 30
0.0
 10
12.042387
 20
44.482051
 30
0.0
 10
12.152398
 20
44.418257
 30
0.0
 10
12.262260
 20
44.354548
 30
0.0
 10
12.372312
 20
44.290731
 30
0.0
 10
12.482278
 20
44.226964
 30
0.0
 10
12.585921
 20
44.173126
 30
0.0
 10
12.689360
 20
44.119397
 30
0.0
 10
12.792986
 20
44.065568
 30
0.0
 10
12.896819
 20
44.011632
 30
0.0
 10
13.000592
 20
43.957729
 30
0.0
 10
13.113432
 20
43.905857
 30
0.0
 10
13.226339
 20
43.853951
 30
0.0
 10
13.339092
 20
43.802119
 30
0.0
 10
13.452040
 20
43.750198
 30
0.0
 10
13.564899
 20
43.698315
 30
0.0
 10
13.684972
 20
43.648611
 30
0.0
 10
13.805116
 20
43.598880
 30
0.0
 10
13.925097
 20
43.549212
 30
0.0
 10
14.045285
 20
43.499463
 30
0.0
 10
14.165379
 20
43.449750
 30
0.0
 10
14.290722
 20
43.402527
 30
0.0
 10
14.416139
 20
43.355275
 30
0.0
 10
14.541386
 20
43.308089
 30
0.0
 10
14.666849
 20
43.260819
 30
0.0
 10
14.792214
 20
43.213588
 30
0.0
 10
14.920760
 20
43.168948
 30
0.0
 10
15.049383
 20
43.124281
 30
0.0
 10
15.177831
 20
43.079677
 30
0.0
 10
15.306500
 20
43.034994
 30
0.0
 10
15.435069
 20
42.990346
 30
0.0
 10
15.565062
 20
42.948600
 30
0.0
 10
15.695132
 20
42.906828
 30
0.0
 10
15.825025
 20
42.865113
 30
0.0
 10
15.955143
 20
42.823328
 30
0.0
 10
16.085159
 20
42.781574
 30
0.0
 10
16.341218
 20
42.707795
 30
0.0
 10
16.597429
 20
42.633971
 30
0.0
 10
16.853292
 20
42.560247
 30
0.0
 10
17.109596
 20
42.486397
 30
0.0
 10
17.365701
 20
42.412604
 30
0.0
 10
17.603883
 20
42.354015
 30
0.0
 10
17.842207
 20
42.295391
 30
0.0
 10
18.080207
 20
42.236844
 30
0.0
 10
18.318618
 20
42.178200
 30
0.0
 10
18.556842
 20
42.119600
 30
0.0
 10
18.811455
 20
42.060079
 30
0.0
 10
19.066219
 20
42.000524
 30
0.0
 10
19.320636
 20
41.941051
 30
0.0
 10
19.575492
 20
41.881475
 30
0.0
 10
19.830150
 20
41.821943
 30
0.0
 10
19.933999
 20
41.804693
 30
0.0
 10
20.037644
 20
41.787468
 30
0.0
 10
20.141477
 20
41.770217
 30
0.0
 10
20.245247
 20
41.752967
 30
0.0
 10
20.349498
 20
41.735636
 30
0.0
 10
20.473911
 20
41.716533
 30
0.0
 10
20.598397
 20
41.697404
 30
0.0
 10
20.722715
 20
41.678301
 30
0.0
 10
20.847247
 20
41.659172
 30
0.0
 10
20.971682
 20
41.640042
 30
0.0
 10
21.107358
 20
41.612555
 30
0.0
 10
21.243115
 20
41.585054
 30
0.0
 10
21.378687
 20
41.557588
 30
0.0
 10
21.514493
 20
41.530074
 30
0.0
 10
21.650193
 20
41.502583
 30
0.0
 10
21.719323
 20
41.483771
 30
0.0
 10
21.788671
 20
41.464907
 30
0.0
 10
21.857706
 20
41.446121
 30
0.0
 10
21.926662
 20
41.427362
 30
0.0
 10
21.995909
 20
41.408524
 30
0.0
 10
22.064315
 20
41.385161
 30
0.0
 10
22.132938
 20
41.361746
 30
0.0
 10
22.201250
 20
41.338436
 30
0.0
 10
22.269485
 20
41.315126
 30
0.0
 10
22.338007
 20
41.291737
 30
0.0
 10
22.389570
 20
41.261461
 30
0.0
 10
22.441296
 20
41.231089
 30
0.0
 10
22.492788
 20
41.200855
 30
0.0
 10
22.544222
 20
41.170653
 30
0.0
 10
22.595872
 20
41.140326
 30
0.0
 10
22.673682
 20
41.076879
 30
0.0
 10
22.751339
 20
41.013559
 30
0.0
 10
22.829136
 20
40.950123
 30
0.0
 10
22.906886
 20
40.886723
 30
0.0
 10
22.984996
 20
40.823033
 30
0.0
 10
23.041002
 20
40.767542
 30
0.0
 10
23.097186
 20
40.711879
 30
0.0
 10
23.153115
 20
40.656464
 30
0.0
 10
23.208981
 20
40.601114
 30
0.0
 10
23.265082
 20
40.545530
 30
0.0
 10
23.304659
 20
40.493552
 30
0.0
 10
23.344360
 20
40.441414
 30
0.0
 10
23.383882
 20
40.389508
 30
0.0
 10
23.423360
 20
40.337663
 30
0.0
 10
23.463003
 20
40.285598
 30
0.0
 10
23.491523
 20
40.232692
 30
0.0
 10
23.520133
 20
40.179619
 30
0.0
 10
23.548613
 20
40.126784
 30
0.0
 10
23.577062
 20
40.074011
 30
0.0
 10
23.605630
 20
40.021015
 30
0.0
 10
23.628363
 20
39.962735
 30
0.0
 10
23.651167
 20
39.904270
 30
0.0
 10
23.673868
 20
39.846072
 30
0.0
 10
23.696546
 20
39.787938
 30
0.0
 10
23.719318
 20
39.729560
 30
0.0
 10
23.741639
 20
39.661464
 30
0.0
 10
23.764030
 20
39.593152
 30
0.0
 10
23.786319
 20
39.525148
 30
0.0
 10
23.808584
 20
39.457225
 30
0.0
 10
23.830941
 20
39.389012
 30
0.0
 10
23.858118
 20
39.306655
 30
0.0
 10
23.885380
 20
39.224039
 30
0.0
 10
23.912519
 20
39.141796
 30
0.0
 10
23.939627
 20
39.059646
 30
0.0
 10
23.966850
 20
38.977151
 30
0.0
 10
24.004256
 20
38.876297
 30
0.0
 10
24.041589
 20
38.775645
 30
0.0
 10
24.078990
 20
38.674807
 30
0.0
 10
24.116368
 20
38.574032
 30
0.0
 10
24.153919
 20
38.472789
 30
0.0
 10
24.147720
 20
38.444064
 30
0.0
 10
24.141563
 20
38.415539
 30
0.0
 10
24.135305
 20
38.386548
 30
0.0
 10
24.129122
 20
38.357899
 30
0.0
 10
24.122912
 20
38.329129
 30
0.0
 10
24.110720
 20
38.305263
 30
0.0
 10
24.098613
 20
38.281556
 30
0.0
 10
24.086506
 20
38.257850
 30
0.0
 10
24.074255
 20
38.233879
 30
0.0
 10
24.061934
 20
38.209749
 30
0.0
 10
24.046022
 20
38.189190
 30
0.0
 10
24.030221
 20
38.168765
 30
0.0
 10
24.014420
 20
38.148339
 30
0.0
 10
23.998434
 20
38.127675
 30
0.0
 10
23.982352
 20
38.106905
 30
0.0
 10
23.964993
 20
38.087987
 30
0.0
 10
23.947755
 20
38.069202
 30
0.0
 10
23.930518
 20
38.050416
 30
0.0
 10
23.913079
 20
38.031419
 30
0.0
 10
23.895535
 20
38.012316
 30
0.0
 10
23.878691
 20
37.993505
 30
0.0
 10
23.861967
 20
37.974825
 30
0.0
 10
23.845243
 20
37.956145
 30
0.0
 10
23.828323
 20
37.937254
 30
0.0
 10
23.811302
 20
37.918257
 30
0.0
 10
23.797353
 20
37.898096
 30
0.0
 10
23.783502
 20
37.878093
 30
0.0
 10
23.769651
 20
37.858091
 30
0.0
 10
23.755636
 20
37.837850
 30
0.0
 10
23.741539
 20
37.817477
 30
0.0
 10
23.732446
 20
37.794326
 30
0.0
 10
23.723418
 20
37.771334
 30
0.0
 10
23.714390
 20
37.748368
 30
0.0
 10
23.705254
 20
37.725111
 30
0.0
 10
23.696065
 20
37.701722
 30
0.0
 10
23.694002
 20
37.674131
 30
0.0
 10
23.691938
 20
37.646739
 30
0.0
 10
23.689848
 20
37.618894
 30
0.0
 10
23.687784
 20
37.591378
 30
0.0
 10
23.685720
 20
37.563747
 30
0.0
 10
23.699878
 20
37.515696
 30
0.0
 10
23.714078
 20
37.467497
 30
0.0
 10
23.728215
 20
37.419512
 30
0.0
 10
23.742336
 20
37.371583
 30
0.0
 10
23.756517
 20
37.323453
 30
0.0
 10
23.769847
 20
37.301439
 30
0.0
 10
23.783081
 20
37.279585
 30
0.0
 10
23.796316
 20
37.257730
 30
0.0
 10
23.809706
 20
37.235611
 30
0.0
 10
23.823176
 20
37.213359
 30
0.0
 10
23.845084
 20
37.188251
 30
0.0
 10
23.866835
 20
37.163327
 30
0.0
 10
23.888944
 20
37.137980
 30
0.0
 10
23.910793
 20
37.112924
 30
0.0
 10
23.932732
 20
37.087762
 30
0.0
 10
23.972516
 20
37.030413
 30
0.0
 10
24.012424
 20
36.972882
 30
0.0
 10
24.052153
 20
36.915611
 30
0.0
 10
24.091836
 20
36.858405
 30
0.0
 10
24.131687
 20
36.800959
 30
0.0
 10
24.123212
 20
36.533431
 30
0.0
 10
24.114735
 20
36.265741
 30
0.0
 10
24.106268
 20
35.998417
 30
0.0
 10
24.097788
 20
35.730632
 30
0.0
 10
24.089314
 20
35.463056
 30
0.0
 10
24.081977
 20
35.105628
 30
0.0
 10
24.074635
 20
34.747985
 30
0.0
 10
24.067295
 20
34.390467
 30
0.0
 10
24.059955
 20
34.032859
 30
0.0
 10
24.052621
 20
33.675568
 30
0.0
 10
24.043012
 20
33.178847
 30
0.0
 10
24.033397
 20
32.681828
 30
0.0
 10
24.023784
 20
32.184980
 30
0.0
 10
24.014169
 20
31.688010
 30
0.0
 10
24.004562
 20
31.191480
 30
0.0
 10
24.004880
 20
31.022840
 30
0.0
 10
24.005197
 20
30.854102
 30
0.0
 10
24.005515
 20
30.685591
 30
0.0
 10
24.005832
 20
30.516790
 30
0.0
 10
24.006150
 20
30.348121
 30
0.0
 10
24.002223
 20
30.179687
 30
0.0
 10
23.998294
 20
30.011155
 30
0.0
 10
23.994371
 20
29.842851
 30
0.0
 10
23.990442
 20
29.674259
 30
0.0
 10
23.986515
 20
29.505796
 30
0.0
 10
23.970913
 20
29.178850
 30
0.0
 10
23.955300
 20
28.851709
 30
0.0
 10
23.939692
 20
28.524681
 30
0.0
 10
23.924081
 20
28.197571
 30
0.0
 10
23.908484
 20
27.870753
 30
0.0
 10
23.905383
 20
27.571707
 30
0.0
 10
23.902282
 20
27.272485
 30
0.0
 10
23.899181
 20
26.973363
 30
0.0
 10
23.896081
 20
26.674167
 30
0.0
 10
23.892982
 20
26.375238
 30
0.0
 10
23.885233
 20
26.055939
 30
0.0
 10
23.877478
 20
25.736449
 30
0.0
 10
23.869725
 20
25.417070
 30
0.0
 10
23.861970
 20
25.097610
 30
0.0
 10
23.854223
 20
24.778435
 30
0.0
 10
23.843476
 20
24.377298
 30
0.0
 10
23.832723
 20
23.975919
 30
0.0
 10
23.821973
 20
23.574679
 30
0.0
 10
23.811221
 20
23.173340
 30
0.0
 10
23.800479
 20
22.772356
 30
0.0
 10
23.789731
 20
22.568376
 30
0.0
 10
23.778979
 20
22.364276
 30
0.0
 10
23.768239
 20
22.160454
 30
0.0
 10
23.757481
 20
21.956278
 30
0.0
 10
23.746734
 20
21.752263
 30
0.0
 10
23.734748
 20
21.419531
 30
0.0
 10
23.722755
 20
21.086601
 30
0.0
 10
23.710764
 20
20.753784
 30
0.0
 10
23.698770
 20
20.420885
 30
0.0
 10
23.686787
 20
20.088283
 30
0.0
 10
23.681723
 20
19.978338
 30
0.0
 10
23.676669
 20
19.868607
 30
0.0
 10
23.671608
 20
19.758678
 30
0.0
 10
23.666549
 20
19.648818
 30
0.0
 10
23.661467
 20
19.538447
 30
0.0
 10
23.658781
 20
19.449063
 30
0.0
 10
23.656085
 20
19.359398
 30
0.0
 10
23.653402
 20
19.270138
 30
0.0
 10
23.650722
 20
19.180979
 30
0.0
 10
23.648031
 20
19.091444
 30
0.0
 10
23.644724
 20
19.053934
 30
0.0
 10
23.641406
 20
19.016305
 30
0.0
 10
23.638104
 20
18.978848
 30
0.0
 10
23.634804
 20
18.941433
 30
0.0
 10
23.631492
 20
18.903860
 30
0.0
 10
23.625396
 20
18.870792
 30
0.0
 10
23.619342
 20
18.837960
 30
0.0
 10
23.613188
 20
18.804591
 30
0.0
 10
23.607108
 20
18.771610
 30
0.0
 10
23.601001
 20
18.738495
 30
0.0
 10
23.590979
 20
18.709769
 30
0.0
 10
23.581025
 20
18.681245
 30
0.0
 10
23.570910
 20
18.652254
 30
0.0
 10
23.560914
 20
18.623605
 30
0.0
 10
23.550876
 20
18.594834
 30
0.0
 10
23.535893
 20
18.570043
 30
0.0
 10
23.521015
 20
18.545410
 30
0.0
 10
23.505894
 20
18.520381
 30
0.0
 10
23.490951
 20
18.495642
 30
0.0
 10
23.475943
 20
18.470798
 30
0.0
 10
23.454864
 20
18.449816
 30
0.0
 10
23.433933
 20
18.428993
 30
0.0
 10
23.412658
 20
18.407827
 30
0.0
 10
23.391634
 20
18.386898
 30
0.0
 10
23.370523
 20
18.365890
 30
0.0
 10
23.342209
 20
18.348534
 30
0.0
 10
23.314097
 20
18.331309
 30
0.0
 10
23.285523
 20
18.313794
 30
0.0
 10
23.257285
 20
18.296490
 30
0.0
 10
23.228929
 20
18.279107
 30
0.0
 10
23.192246
 20
18.265163
 30
0.0
 10
23.155447
 20
18.251167
 30
0.0
 10
23.118814
 20
18.237223
 30
0.0
 10
23.082223
 20
18.223306
 30
0.0
 10
23.045478
 20
18.209336
 30
0.0
 10
22.999391
 20
18.198488
 30
0.0
 10
22.953160
 20
18.187614
 30
0.0
 10
22.907136
 20
18.176766
 30
0.0
 10
22.861165
 20
18.165945
 30
0.0
 10
22.815001
 20
18.155070
 30
0.0
 10
22.758271
 20
18.147212
 30
0.0
 10
22.701362
 20
18.139328
 30
0.0
 10
22.644710
 20
18.131496
 30
0.0
 10
22.588123
 20
18.123664
 30
0.0
 10
22.531298
 20
18.115806
 30
0.0
 10
22.462995
 20
18.110647
 30
0.0
 10
22.394476
 20
18.105461
 30
0.0
 10
22.326266
 20
18.100302
 30
0.0
 10
22.258135
 20
18.095142
 30
0.0
 10
22.189716
 20
18.089983
 30
0.0
 10
22.013534
 20
18.086993
 30
0.0
 10
21.837246
 20
18.084003
 30
0.0
 10
21.661199
 20
18.081013
 30
0.0
 10
21.484847
 20
18.078024
 30
0.0
 10
21.308633
 20
18.075034
 30
0.0
 10
20.496849
 20
18.080934
 30
0.0
 10
19.685103
 20
18.086834
 30
0.0
 10
18.872991
 20
18.092735
 30
0.0
 10
18.061148
 20
18.098635
 30
0.0
 10
17.248933
 20
18.104535
 30
0.0
 10
17.128136
 20
18.108874
 30
0.0
 10
17.007268
 20
18.113213
 30
0.0
 10
16.886565
 20
18.117552
 30
0.0
 10
16.765653
 20
18.121892
 30
0.0
 10
16.644835
 20
18.126231
 30
0.0
 10
16.523522
 20
18.123532
 30
0.0
 10
16.402137
 20
18.120833
 30
0.0
 10
16.280917
 20
18.118135
 30
0.0
 10
16.159488
 20
18.115436
 30
0.0
 10
16.038154
 20
18.112737
 30
0.0
 10
15.915911
 20
18.100963
 30
0.0
 10
15.793595
 20
18.089189
 30
0.0
 10
15.671446
 20
18.077415
 30
0.0
 10
15.549086
 20
18.065615
 30
0.0
 10
15.426822
 20
18.053841
 30
0.0
 10
15.303649
 20
18.031007
 30
0.0
 10
15.180403
 20
18.008147
 30
0.0
 10
15.057324
 20
17.985314
 30
0.0
 10
14.934033
 20
17.962454
 30
0.0
 10
14.810839
 20
17.939620
 30
0.0
 10
14.758242
 20
17.921946
 30
0.0
 10
14.705480
 20
17.904219
 30
0.0
 10
14.652955
 20
17.886571
 30
0.0
 10
14.600491
 20
17.868950
 30
0.0
 10
14.547806
 20
17.851249
 30
0.0
 10
14.496759
 20
17.830585
 30
0.0
 10
14.445551
 20
17.809842
 30
0.0
 10
14.394575
 20
17.789205
 30
0.0
 10
14.343657
 20
17.768593
 30
0.0
 10
14.292524
 20
17.747903
 30
0.0
 10
14.243131
 20
17.723826
 30
0.0
 10
14.193582
 20
17.699670
 30
0.0
 10
14.144257
 20
17.675619
 30
0.0
 10
14.094987
 20
17.651595
 30
0.0
 10
14.045511
 20
17.627491
 30
0.0
 10
13.997771
 20
17.599900
 30
0.0
 10
13.949880
 20
17.572222
 30
0.0
 10
13.902206
 20
17.544671
 30
0.0
 10
13.854586
 20
17.517149
 30
0.0
 10
13.806766
 20
17.489514
 30
0.0
 10
13.760782
 20
17.458203
 30
0.0
 10
13.714654
 20
17.426797
 30
0.0
 10
13.668734
 20
17.395528
 30
0.0
 10
13.622866
 20
17.364300
 30
0.0
 10
13.576805
 20
17.332936
 30
0.0
 10
13.532476
 20
17.297699
 30
0.0
 10
13.488006
 20
17.262350
 30
0.0
 10
13.443737
 20
17.227163
 30
0.0
 10
13.399518
 20
17.192013
 30
0.0
 10
13.355113
 20
17.156718
 30
0.0
 10
13.312437
 20
17.117245
 30
0.0
 10
13.269626
 20
17.077647
 30
0.0
 10
13.227008
 20
17.038230
 30
0.0
 10
13.184438
 20
16.998854
 30
0.0
 10
13.141690
 20
16.959315
 30
0.0
 10
13.100873
 20
16.915503
 30
0.0
 10
13.059928
 20
16.871550
 30
0.0
 10
13.019168
 20
16.827796
 30
0.0
 10
12.978454
 20
16.784092
 30
0.0
 10
12.937568
 20
16.740206
 30
0.0
 10
12.898508
 20
16.691742
 30
0.0
 10
12.859325
 20
16.643127
 30
0.0
 10
12.820319
 20
16.594730
 30
0.0
 10
12.781357
 20
16.546390
 30
0.0
 10
12.742231
 20
16.497845
 30
0.0
 10
12.705031
 20
16.444420
 30
0.0
 10
12.667714
 20
16.390829
 30
0.0
 10
12.630565
 20
16.337478
 30
0.0
 10
12.593458
 20
16.284191
 30
0.0
 10
12.556196
 20
16.230676
 30
0.0
 10
12.529433
 20
16.186451
 30
0.0
 10
12.502585
 20
16.142083
 30
0.0
 10
12.475858
 20
16.097919
 30
0.0
 10
12.449162
 20
16.053805
 30
0.0
 10
12.422354
 20
16.009503
 30
0.0
 10
12.399931
 20
15.965794
 30
0.0
 10
12.377436
 20
15.921945
 30
0.0
 10
12.355044
 20
15.878294
 30
0.0
 10
12.332676
 20
15.834693
 30
0.0
 10
12.310216
 20
15.790910
 30
0.0
 10
12.291925
 20
15.746994
 30
0.0
 10
12.273576
 20
15.702938
 30
0.0
 10
12.255312
 20
15.659081
 30
0.0
 10
12.237069
 20
15.615274
 30
0.0
 10
12.218749
 20
15.571284
 30
0.0
 10
12.204179
 20
15.525922
 30
0.0
 10
12.189563
 20
15.480416
 30
0.0
 10
12.175014
 20
15.435114
 30
0.0
 10
12.160480
 20
15.389865
 30
0.0
 10
12.145886
 20
15.344425
 30
0.0
 10
12.134519
 20
15.296687
 30
0.0
 10
12.123116
 20
15.248794
 30
0.0
 10
12.111765
 20
15.201122
 30
0.0
 10
12.100428
 20
15.153502
 30
0.0
 10
12.089043
 20
15.105681
 30
0.0
 10
12.080465
 20
15.054738
 30
0.0
 10
12.071860
 20
15.003634
 30
0.0
 10
12.063296
 20
14.952760
 30
0.0
 10
12.054742
 20
14.901947
 30
0.0
 10
12.046151
 20
14.850917
 30
0.0
 10
12.036025
 20
14.734873
 30
0.0
 10
12.025918
 20
14.619060
 30
0.0
 10
12.015793
 20
14.503035
 30
0.0
 10
12.005649
 20
14.386779
 30
0.0
 10
11.995510
 20
14.270590
 30
0.0
 10
11.991893
 20
14.129231
 30
0.0
 10
11.988273
 20
13.987788
 30
0.0
 10
11.984659
 20
13.846535
 30
0.0
 10
11.981040
 20
13.705041
 30
0.0
 10
11.977423
 20
13.563655
 30
0.0
 10
11.976894
 20
13.389126
 30
0.0
 10
11.976364
 20
13.214493
 30
0.0
 10
11.975835
 20
13.040098
 30
0.0
 10
11.975306
 20
12.865401
 30
0.0
 10
11.974777
 20
12.690842
 30
0.0
 10
11.974168
 20
12.474980
 30
0.0
 10
11.973560
 20
12.258990
 30
0.0
 10
11.972951
 20
12.043291
 30
0.0
 10
11.972343
 20
11.827221
 30
0.0
 10
11.971734
 20
11.611321
 30
0.0
 10
11.967808
 20
11.346376
 30
0.0
 10
11.963879
 20
11.081274
 30
0.0
 10
11.959955
 20
10.816529
 30
0.0
 10
11.956026
 20
10.551332
 30
0.0
 10
11.952099
 20
10.286338
 30
0.0
 10
11.951491
 20
10.119558
 30
0.0
 10
11.950882
 20
9.952680
 30
0.0
 10
11.950274
 20
9.786027
 30
0.0
 10
11.949665
 20
9.619088
 30
0.0
 10
11.949057
 20
9.452279
 30
0.0
 10
11.951544
 20
9.239207
 30
0.0
 10
11.954031
 20
9.026009
 30
0.0
 10
11.956518
 20
8.813099
 30
0.0
 10
11.959005
 20
8.599821
 30
0.0
 10
11.961492
 20
8.386712
 30
0.0
 10
11.964178
 20
8.165785
 30
0.0
 10
11.966866
 20
7.944728
 30
0.0
 10
11.969551
 20
7.723973
 30
0.0
 10
11.972240
 20
7.502834
 30
0.0
 10
11.974928
 20
7.281870
 30
0.0
 10
11.975134
 20
7.091738
 30
0.0
 10
11.975340
 20
6.901492
 30
0.0
 10
11.975547
 20
6.711505
 30
0.0
 10
11.975753
 20
6.521191
 30
0.0
 10
11.975960
 20
6.331024
 30
0.0
 10
11.972343
 20
6.130660
 30
0.0
 10
11.968723
 20
5.930180
 30
0.0
 10
11.965109
 20
5.729970
 30
0.0
 10
11.961490
 20
5.529416
 30
0.0
 10
11.957873
 20
5.329018
 30
0.0
 10
11.957979
 20
5.229508
 30
0.0
 10
11.958084
 20
5.130194
 30
0.0
 10
11.958190
 20
5.030700
 30
0.0
 10
11.958296
 20
4.931267
 30
0.0
 10
11.958402
 20
4.831374
 30
0.0
 10
11.962122
 20
4.733001
 30
0.0
 10
11.965834
 20
4.634820
 30
0.0
 10
11.969554
 20
4.536464
 30
0.0
 10
11.973271
 20
4.438166
 30
0.0
 10
11.977005
 20
4.339413
 30
0.0
 10
11.986305
 20
4.242485
 30
0.0
 10
11.995586
 20
4.145751
 30
0.0
 10
12.004884
 20
4.048839
 30
0.0
 10
12.014176
 20
3.951988
 30
0.0
 10
12.023513
 20
3.854688
 30
0.0
 10
12.040253
 20
3.759933
 30
0.0
 10
12.056959
 20
3.665363
 30
0.0
 10
12.073697
 20
3.570621
 30
0.0
 10
12.090424
 20
3.475940
 30
0.0
 10
12.107227
 20
3.380817
 30
0.0
 10
12.133268
 20
3.288437
 30
0.0
 10
12.159255
 20
3.196238
 30
0.0
 10
12.185290
 20
3.103875
 30
0.0
 10
12.211309
 20
3.011564
 30
0.0
 10
12.237450
 20
2.918828
 30
0.0
 10
12.254397
 20
2.873774
 30
0.0
 10
12.271396
 20
2.828578
 30
0.0
 10
12.288319
 20
2.783588
 30
0.0
 10
12.305223
 20
2.738649
 30
0.0
 10
12.322199
 20
2.693519
 30
0.0
 10
12.342246
 20
2.649188
 30
0.0
 10
12.362357
 20
2.604720
 30
0.0
 10
12.382375
 20
2.560449
 30
0.0
 10
12.402373
 20
2.516232
 30
0.0
 10
12.422452
 20
2.471827
 30
0.0
 10
12.462132
 20
2.403007
 30
0.0
 10
12.501937
 20
2.333971
 30
0.0
 10
12.541562
 20
2.265246
 30
0.0
 10
12.581143
 20
2.196600
 30
0.0
 10
12.620889
 20
2.127663
 30
0.0
 10
12.667906
 20
2.066801
 30
0.0
 10
12.715071
 20
2.005745
 30
0.0
 10
12.762023
 20
1.944965
 30
0.0
 10
12.808921
 20
1.884254
 30
0.0
 10
12.856017
 20
1.823289
 30
0.0
 10
12.910474
 20
1.769970
 30
0.0
 10
12.965102
 20
1.716482
 30
0.0
 10
13.019484
 20
1.663234
 30
0.0
 10
13.073804
 20
1.610048
 30
0.0
 10
13.128352
 20
1.556639
 30
0.0
 10
13.190455
 20
1.510345
 30
0.0
 10
13.252754
 20
1.463905
 30
0.0
 10
13.314772
 20
1.417677
 30
0.0
 10
13.376719
 20
1.371499
 30
0.0
 10
13.438927
 20
1.325128
 30
0.0
 10
13.508781
 20
1.285346
 30
0.0
 10
13.578854
 20
1.245436
 30
0.0
 10
13.648611
 20
1.205706
 30
0.0
 10
13.718289
 20
1.166024
 30
0.0
 10
13.788260
 20
1.126172
 30
0.0
 10
13.866070
 20
1.092279
 30
0.0
 10
13.944125
 20
1.058280
 30
0.0
 10
14.021828
 20
1.024432
 30
0.0
 10
14.099442
 20
0.990626
 30
0.0
 10
14.177383
 20
0.956675
 30
0.0
 10
14.263253
 20
0.928259
 30
0.0
 10
14.349394
 20
0.899753
 30
0.0
 10
14.435146
 20
0.871373
 30
0.0
 10
14.520800
 20
0.843029
 30
0.0
 10
14.606815
 20
0.814565
 30
0.0
 10
14.700951
 20
0.791096
 30
0.0
 10
14.794902
 20
0.767680
 30
0.0
 10
14.889023
 20
0.744238
 30
0.0
 10
14.983087
 20
0.720796
 30
0.0
 10
15.077587
 20
0.697248
 30
0.0
 10
15.180093
 20
0.678040
 30
0.0
 10
15.282398
 20
0.658857
 30
0.0
 10
15.384887
 20
0.639649
 30
0.0
 10
15.487315
 20
0.620440
 30
0.0
 10
15.590217
 20
0.601152
 30
0.0
 10
15.701197
 20
0.585753
 30
0.0
 10
15.811958
 20
0.570381
 30
0.0
 10
15.922920
 20
0.554982
 30
0.0
 10
16.033814
 20
0.539583
 30
0.0
 10
16.145222
 20
0.524132
 30
0.0
 10
16.264985
 20
0.512146
 30
0.0
 10
16.384819
 20
0.500160
 30
0.0
 10
16.504490
 20
0.488175
 30
0.0
 10
16.624368
 20
0.476189
 30
0.0
 10
16.744152
 20
0.464203
 30
0.0
 10
16.872698
 20
0.454917
 30
0.0
 10
17.001321
 20
0.445603
 30
0.0
 10
17.129769
 20
0.436316
 30
0.0
 10
17.258438
 20
0.427003
 30
0.0
 10
17.387007
 20
0.417690
 30
0.0
 10
17.671276
 20
0.405281
 30
0.0
 10
17.955714
 20
0.392872
 30
0.0
 10
18.239765
 20
0.380489
 30
0.0
 10
18.524307
 20
0.368080
 30
0.0
 10
18.808625
 20
0.355671
 30
0.0
 10
19.129991
 20
0.348025
 30
0.0
 10
19.451548
 20
0.340378
 30
0.0
 10
19.772994
 20
0.332732
 30
0.0
 10
20.094522
 20
0.325085
 30
0.0
 10
20.415762
 20
0.317439
 30
0.0
 10
23.395617
 20
0.265866
 30
0.0
 10
26.375705
 20
0.214289
 30
0.0
 10
29.355475
 20
0.162719
 30
0.0
 10
32.335134
 20
0.111149
 30
0.0
 10
35.315112
 20
0.059573
 30
0.0
 10
35.723380
 20
0.055552
 30
0.0
 10
36.131891
 20
0.051530
 30
0.0
 10
36.540265
 20
0.047508
 30
0.0
 10
36.948739
 20
0.043487
 30
0.0
 10
37.356848
 20
0.039465
 30
0.0
 10
37.868449
 20
0.039677
 30
0.0
 10
38.380355
 20
0.039888
 30
0.0
 10
38.892085
 20
0.040100
 30
0.0
 10
39.403946
 20
0.040312
 30
0.0
 10
39.915348
 20
0.040523
 30
0.0
 10
41.156998
 20
0.048884
 30
0.0
 10
42.398987
 20
0.057272
 30
0.0
 10
43.641044
 20
0.065632
 30
0.0
 10
44.883051
 20
0.073993
 30
0.0
 10
46.124788
 20
0.082354
 30
0.0
 10
47.506765
 20
0.093308
 30
0.0
 10
48.888578
 20
0.104262
 30
0.0
 10
50.270375
 20
0.115215
 30
0.0
 10
51.652061
 20
0.126169
 30
0.0
 10
53.033411
 20
0.137123
 30
0.0
 10
53.719645
 20
0.140748
 30
0.0
 10
54.406286
 20
0.144372
 30
0.0
 10
55.092695
 20
0.147997
 30
0.0
 10
55.778828
 20
0.151622
 30
0.0
 10
56.465242
 20
0.155247
 30
0.0
 10
56.816058
 20
0.160406
 30
0.0
 10
57.167081
 20
0.165566
 30
0.0
 10
57.517984
 20
0.170725
 30
0.0
 10
57.868978
 20
0.175884
 30
0.0
 10
58.219657
 20
0.181044
 30
0.0
 10
58.537715
 20
0.183425
 30
0.0
 10
58.855964
 20
0.185806
 30
0.0
 10
59.174104
 20
0.188187
 30
0.0
 10
59.492321
 20
0.190569
 30
0.0
 10
59.810258
 20
0.192950
 30
0.0
 10
60.353685
 20
0.195331
 30
0.0
 10
60.897436
 20
0.197712
 30
0.0
 10
61.441001
 20
0.200094
 30
0.0
 10
61.984704
 20
0.202475
 30
0.0
 10
62.527920
 20
0.204856
 30
0.0
 10
62.756287
 20
0.208269
 30
0.0
 10
62.984789
 20
0.211682
 30
0.0
 10
63.212979
 20
0.215096
 30
0.0
 10
63.441563
 20
0.218509
 30
0.0
 10
63.669970
 20
0.221922
 30
0.0
 10
63.871263
 20
0.229251
 30
0.0
 10
64.072677
 20
0.236580
 30
0.0
 10
64.273813
 20
0.243909
 30
0.0
 10
64.475298
 20
0.251264
 30
0.0
 10
64.676628
 20
0.258593
 30
0.0
 10
64.852293
 20
0.271293
 30
0.0
 10
65.028063
 20
0.284020
 30
0.0
 10
65.203596
 20
0.296720
 30
0.0
 10
65.379430
 20
0.309446
 30
0.0
 10
65.555126
 20
0.322146
 30
0.0
 10
65.706717
 20
0.341884
 30
0.0
 10
65.858394
 20
0.361622
 30
0.0
 10
66.009868
 20
0.381333
 30
0.0
 10
66.161602
 20
0.401098
 30
0.0
 10
66.313218
 20
0.420836
 30
0.0
 10
66.380386
 20
0.433959
 30
0.0
 10
66.447764
 20
0.447135
 30
0.0
 10
66.514836
 20
0.460232
 30
0.0
 10
66.581834
 20
0.473329
 30
0.0
 10
66.649115
 20
0.486479
 30
0.0
 10
66.710702
 20
0.501983
 30
0.0
 10
66.772482
 20
0.517541
 30
0.0
 10
66.833985
 20
0.533019
 30
0.0
 10
66.895418
 20
0.548471
 30
0.0
 10
66.957108
 20
0.564002
 30
0.0
 10
67.013528
 20
0.582099
 30
0.0
 10
67.070125
 20
0.600249
 30
0.0
 10
67.126468
 20
0.618294
 30
0.0
 10
67.182745
 20
0.636339
 30
0.0
 10
67.239260
 20
0.654463
 30
0.0
 10
67.290513
 20
0.675444
 30
0.0
 10
67.341929
 20
0.696478
 30
0.0
 10
67.393110
 20
0.717433
 30
0.0
 10
67.444236
 20
0.738362
 30
0.0
 10
67.495575
 20
0.759370
 30
0.0
 10
67.541766
 20
0.783235
 30
0.0
 10
67.588100
 20
0.807180
 30
0.0
 10
67.634228
 20
0.831019
 30
0.0
 10
67.680302
 20
0.854832
 30
0.0
 10
67.726570
 20
0.878750
 30
0.0
 10
67.768109
 20
0.905925
 30
0.0
 10
67.809781
 20
0.933188
 30
0.0
 10
67.851265
 20
0.960329
 30
0.0
 10
67.892699
 20
0.987435
 30
0.0
 10
67.934310
 20
1.014658
 30
0.0
 10
67.971201
 20
1.045347
 30
0.0
 10
68.008205
 20
1.076134
 30
0.0
 10
68.045043
 20
1.106781
 30
0.0
 10
68.081842
 20
1.137393
 30
0.0
 10
68.118793
 20
1.168135
 30
0.0
 10
68.151239
 20
1.202338
 30
0.0
 10
68.183788
 20
1.236649
 30
0.0
 10
68.216192
 20
1.270807
 30
0.0
 10
68.248556
 20
1.304925
 30
0.0
 10
68.281057
 20
1.339186
 30
0.0
 10
68.309267
 20
1.377418
 30
0.0
 10
68.337567
 20
1.415772
 30
0.0
 10
68.365737
 20
1.453954
 30
0.0
 10
68.393878
 20
1.492091
 30
0.0
 10
68.422135
 20
1.530390
 30
0.0
 10
68.446318
 20
1.572548
 30
0.0
 10
68.470581
 20
1.614842
 30
0.0
 10
68.494737
 20
1.656942
 30
0.0
 10
68.518867
 20
1.698998
 30
0.0
 10
68.543077
 20
1.741228
 30
0.0
 10
68.563423
 20
1.787729
 30
0.0
 10
68.583849
 20
1.834375
 30
0.0
 10
68.604169
 20
1.880812
 30
0.0
 10
68.624462
 20
1.927193
 30
0.0
 10
68.644862
 20
1.973773
 30
0.0
 10
68.661504
 20
2.024819
 30
0.0
 10
68.678199
 20
2.076027
 30
0.0
 10
68.694815
 20
2.127004
 30
0.0
 10
68.711404
 20
2.177920
 30
0.0
 10
68.728073
 20
2.229054
 30
0.0
 10
68.741091
 20
2.284648
 30
0.0
 10
68.754161
 20
2.340414
 30
0.0
 10
68.767152
 20
2.395932
 30
0.0
 10
68.780143
 20
2.451386
 30
0.0
 10
68.793187
 20
2.507072
 30
0.0
 10
68.803003
 20
2.567728
 30
0.0
 10
68.812846
 20
2.628577
 30
0.0
 10
68.822662
 20
2.689151
 30
0.0
 10
68.832451
 20
2.749656
 30
0.0
 10
68.842294
 20
2.810415
 30
0.0
 10
68.848908
 20
2.876134
 30
0.0
 10
68.855549
 20
2.942061
 30
0.0
 10
68.862164
 20
3.007691
 30
0.0
 10
68.868752
 20
3.073244
 30
0.0
 10
68.875367
 20
3.139075
 30
0.0
 10
68.878992
 20
3.210065
 30
0.0
 10
68.882616
 20
3.281278
 30
0.0
 10
68.886241
 20
3.352170
 30
0.0
 10
68.889839
 20
3.422983
 30
0.0
 10
68.893464
 20
3.494093
 30
0.0
 10
68.889628
 20
3.717086
 30
0.0
 10
68.885791
 20
3.940209
 30
0.0
 10
68.881981
 20
4.163031
 30
0.0
 10
68.878145
 20
4.386239
 30
0.0
 10
68.874308
 20
4.609269
 30
0.0
 10
68.864916
 20
5.031385
 30
0.0
 10
68.855497
 20
5.453750
 30
0.0
 10
68.846077
 20
5.875972
 30
0.0
 10
68.836658
 20
6.298300
 30
0.0
 10
68.827265
 20
6.720252
 30
0.0
 10
68.819619
 20
7.345934
 30
0.0
 10
68.811973
 20
7.971986
 30
0.0
 10
68.804326
 20
8.597826
 30
0.0
 10
68.796680
 20
9.223414
 30
0.0
 10
68.789033
 20
9.849260
 30
0.0
 10
68.787975
 20
10.239859
 30
0.0
 10
68.786917
 20
10.630688
 30
0.0
 10
68.785858
 20
11.021385
 30
0.0
 10
68.784800
 20
11.412183
 30
0.0
 10
68.783742
 20
11.802628
 30
0.0
 10
68.786123
 20
12.245824
 30
0.0
 10
68.788504
 20
12.689284
 30
0.0
 10
68.790885
 20
13.132591
 30
0.0
 10
68.793267
 20
13.576009
 30
0.0
 10
68.795648
 20
14.019032
 30
0.0
 10
68.777471
 20
14.151816
 30
0.0
 10
68.759268
 20
14.284677
 30
0.0
 10
68.741091
 20
14.417357
 30
0.0
 10
68.722887
 20
14.550268
 30
0.0
 10
68.704684
 20
14.683073
 30
0.0
 10
68.694259
 20
14.754063
 30
0.0
 10
68.683782
 20
14.825276
 30
0.0
 10
68.673357
 20
14.896168
 30
0.0
 10
68.662933
 20
14.966981
 30
0.0
 10
68.652482
 20
15.038091
 30
0.0
 10
68.639358
 20
15.109804
 30
0.0
 10
68.626182
 20
15.181744
 30
0.0
 10
68.613085
 20
15.253359
 30
0.0
 10
68.599988
 20
15.324891
 30
0.0
 10
68.586839
 20
15.396726
 30
0.0
 10
68.569376
 20
15.467716
 30
0.0
 10
68.551861
 20
15.538929
 30
0.0
 10
68.534425
 20
15.609821
 30
0.0
 10
68.517015
 20
15.680634
 30
0.0
 10
68.499526
 20
15.751744
 30
0.0
 10
68.476269
 20
15.820149
 30
0.0
 10
68.452959
 20
15.888771
 30
0.0
 10
68.429729
 20
15.957084
 30
0.0
 10
68.406552
 20
16.025317
 30
0.0
 10
68.383268
 20
16.093839
 30
0.0
 10
68.352682
 20
16.158318
 30
0.0
 10
68.321999
 20
16.223003
 30
0.0
 10
68.291455
 20
16.287392
 30
0.0
 10
68.260946
 20
16.351713
 30
0.0
 10
68.230307
 20
16.416300
 30
0.0
 10
68.191040
 20
16.474889
 30
0.0
 10
68.151649
 20
16.533667
 30
0.0
 10
68.112438
 20
16.592177
 30
0.0
 10
68.073269
 20
16.650618
 30
0.0
 10
68.033936
 20
16.709308
 30
0.0
 10
67.990949
 20
16.739790
 30
0.0
 10
67.947828
 20
16.770371
 30
0.0
 10
67.904899
 20
16.800811
 30
0.0
 10
67.862021
 20
16.831217
 30
0.0
 10
67.818962
 20
16.861753
 30
0.0
 10
67.721003
 20
16.910939
 30
0.0
 10
67.623237
 20
16.960029
 30
0.0
 10
67.525293
 20
17.009208
 30
0.0
 10
67.427408
 20
17.058357
 30
0.0
 10
67.329070
 20
17.107733
 30
0.0
 10
67.225944
 20
17.148135
 30
0.0
 10
67.123021
 20
17.188460
 30
0.0
 10
67.019910
 20
17.228857
 30
0.0
 10
66.916863
 20
17.269229
 30
0.0
 10
66.813339
 20
17.309787
 30
0.0
 10
66.705770
 20
17.342336
 30
0.0
 10
66.598410
 20
17.374822
 30
0.0
 10
66.490860
 20
17.407366
 30
0.0
 10
66.383370
 20
17.439891
 30
0.0
 10
66.275386
 20
17.472567
 30
0.0
 10
66.164303
 20
17.498099
 30
0.0
 10
66.053437
 20
17.523579
 30
0.0
 10
65.942373
 20
17.549085
 30
0.0
 10
65.831375
 20
17.574590
 30
0.0
 10
65.719864
 20
17.600202
 30
0.0
 10
65.605990
 20
17.619622
 30
0.0
 10
65.492343
 20
17.639016
 30
0.0
 10
65.378488
 20
17.658437
 30
0.0
 10
65.264408
 20
17.677910
 30
0.0
 10
65.150391
 20
17.697357
 30
0.0
 10
65.034553
 20
17.711830
 30
0.0
 10
64.918946
 20
17.726276
 30
0.0
 10
64.803130
 20
17.740749
 30
0.0
 10
64.687081
 20
17.755248
 30
0.0
 10
64.571099
 20
17.769747
 30
0.0
 10
64.454230
 20
17.779881
 30
0.0
 10
64.337588
 20
17.789988
 30
0.0
 10
64.220737
 20
17.800121
 30
0.0
 10
64.103654
 20
17.810255
 30
0.0
 10
63.986637
 20
17.820388
 30
0.0
 10
63.869355
 20
17.827426
 30
0.0
 10
63.752303
 20
17.834438
 30
0.0
 10
63.635040
 20
17.841449
 30
0.0
 10
63.517541
 20
17.848487
 30
0.0
 10
63.400111
 20
17.855525
 30
0.0
 10
63.168127
 20
17.863383
 30
0.0
 10
62.936008
 20
17.871241
 30
0.0
 10
62.704204
 20
17.879099
 30
0.0
 10
62.471998
 20
17.886957
 30
0.0
 10
62.239974
 20
17.894816
 30
0.0
 10
62.016774
 20
17.900901
 30
0.0
 10
61.793442
 20
17.907013
 30
0.0
 10
61.570414
 20
17.913098
 30
0.0
 10
61.347003
 20
17.919210
 30
0.0
 10
61.123763
 20
17.925322
 30
0.0
 10
60.915753
 20
17.936990
 30
0.0
 10
60.707621
 20
17.948685
 30
0.0
 10
60.499772
 20
17.960353
 30
0.0
 10
60.291561
 20
17.972047
 30
0.0
 10
60.083517
 20
17.983716
 30
0.0
 10
59.987417
 20
17.994034
 30
0.0
 10
59.891506
 20
18.004353
 30
0.0
 10
59.795422
 20
18.014698
 30
0.0
 10
59.699395
 20
18.025017
 30
0.0
 10
59.602925
 20
18.035389
 30
0.0
 10
59.513025
 20
18.049861
 30
0.0
 10
59.423305
 20
18.064308
 30
0.0
 10
59.333418
 20
18.078780
 30
0.0
 10
59.243589
 20
18.093227
 30
0.0
 10
59.153342
 20
18.107752
 30
0.0
 10
59.137335
 20
18.117886
 30
0.0
 10
59.121645
 20
18.127834
 30
0.0
 10
59.105982
 20
18.137756
 30
0.0
 10
59.090160
 20
18.147784
 30
0.0
 10
59.074258
 20
18.157864
 30
0.0
 10
59.059309
 20
18.172602
 30
0.0
 10
59.044651
 20
18.187048
 30
0.0
 10
59.030020
 20
18.201468
 30
0.0
 10
59.015230
 20
18.216046
 30
0.0
 10
59.000360
 20
18.230704
 30
0.0
 10
58.973701
 20
18.272244
 30
0.0
 10
58.946957
 20
18.313916
 30
0.0
 10
58.920332
 20
18.355397
 30
0.0
 10
58.893738
 20
18.396833
 30
0.0
 10
58.867034
 20
18.438442
 30
0.0
 10
58.843989
 20
18.495068
 30
0.0
 10
58.820864
 20
18.551874
 30
0.0
 10
58.797845
 20
18.608423
 30
0.0
 10
58.774853
 20
18.664909
 30
0.0
 10
58.751781
 20
18.721631
 30
0.0
 10
58.731726
 20
18.791277
 30
0.0
 10
58.711618
 20
18.861143
 30
0.0
 10
58.691589
 20
18.930694
 30
0.0
 10
58.671586
 20
19.000165
 30
0.0
 10
58.651504
 20
19.069928
 30
0.0
 10
58.634359
 20
19.150631
 30
0.0
 10
58.617161
 20
19.231588
 30
0.0
 10
58.600043
 20
19.312181
 30
0.0
 10
58.582924
 20
19.392683
 30
0.0
 10
58.565753
 20
19.473521
 30
0.0
 10
58.551174
 20
19.563318
 30
0.0
 10
58.536622
 20
19.652937
 30
0.0
 10
58.522044
 20
19.742718
 30
0.0
 10
58.507492
 20
19.832447
 30
0.0
 10
58.492860
 20
19.922590
 30
0.0
 10
58.469603
 20
20.121507
 30
0.0
 10
58.446346
 20
20.320539
 30
0.0
 10
58.423116
 20
20.519302
 30
0.0
 10
58.399833
 20
20.718409
 30
0.0
 10
58.376576
 20
20.917360
 30
0.0
 10
58.359325
 20
21.128675
 30
0.0
 10
58.342048
 20
21.340117
 30
0.0
 10
58.324797
 20
21.551273
 30
0.0
 10
58.307520
 20
21.762791
 30
0.0
 10
58.290269
 20
21.974143
 30
0.0
 10
58.276114
 20
22.181947
 30
0.0
 10
58.261958
 20
22.389872
 30
0.0
 10
58.247803
 20
22.597517
 30
0.0
 10
58.233621
 20
22.805519
 30
0.0
 10
58.219466
 20
23.013357
 30
0.0
 10
58.205840
 20
23.201939
 30
0.0
 10
58.192188
 20
23.390635
 30
0.0
 10
58.178562
 20
23.579074
 30
0.0
 10
58.164909
 20
23.767835
 30
0.0
 10
58.151257
 20
23.956451
 30
0.0
 10
58.135355
 20
24.109799
 30
0.0
 10
58.119427
 20
24.263236
 30
0.0
 10
58.103526
 20
24.416464
 30
0.0
 10
58.087598
 20
24.569957
 30
0.0
 10
58.071670
 20
24.723330
 30
0.0
 10
58.057832
 20
25.001709
 30
0.0
 10
58.043968
 20
25.280254
 30
0.0
 10
58.030130
 20
25.558419
 30
0.0
 10
58.016266
 20
25.837065
 30
0.0
 10
58.002429
 20
26.115494
 30
0.0
 10
57.984437
 20
26.393253
 30
0.0
 10
57.966445
 20
26.671177
 30
0.0
 10
57.948480
 20
26.948722
 30
0.0
 10
57.930488
 20
27.226749
 30
0.0
 10
57.912497
 20
27.504556
 30
0.0
 10
57.869407
 20
28.061623
 30
0.0
 10
57.826293
 20
28.619024
 30
0.0
 10
57.783192
 20
29.176231
 30
0.0
 10
57.740081
 20
29.733578
 30
0.0
 10
57.697007
 20
30.290431
 30
0.0
 10
57.653607
 20
30.854112
 30
0.0
 10
57.610181
 20
31.418130
 30
0.0
 10
57.566771
 20
31.981954
 30
0.0
 10
57.523350
 20
32.545919
 30
0.0
 10
57.479966
 20
33.109381
 30
0.0
 10
57.461578
 20
33.395613
 30
0.0
 10
57.443163
 20
33.682016
 30
0.0
 10
57.424774
 20
33.968031
 30
0.0
 10
57.406359
 20
34.254537
 30
0.0
 10
57.387971
 20
34.540819
 30
0.0
 10
57.373498
 20
34.830977
 30
0.0
 10
57.359025
 20
35.121310
 30
0.0
 10
57.344579
 20
35.411245
 30
0.0
 10
57.330106
 20
35.701681
 30
0.0
 10
57.315634
 20
35.991892
 30
0.0
 10
57.324841
 20
36.046865
 30
0.0
 10
57.334075
 20
36.102012
 30
0.0
 10
57.343256
 20
36.156910
 30
0.0
 10
57.352437
 20
36.211748
 30
0.0
 10
57.361645
 20
36.266813
 30
0.0
 10
57.374556
 20
36.313416
 30
0.0
 10
57.387521
 20
36.360166
 30
0.0
 10
57.400406
 20
36.406703
 30
0.0
 10
57.413291
 20
36.453190
 30
0.0
 10
57.426230
 20
36.499871
 30
0.0
 10
57.454852
 20
36.573237
 30
0.0
 10
57.483567
 20
36.646836
 30
0.0
 10
57.512150
 20
36.720102
 30
0.0
 10
57.540702
 20
36.793283
 30
0.0
 10
57.569374
 20
36.866774
 30
0.0
 10
57.580937
 20
36.896121
 30
0.0
 10
57.592420
 20
36.925260
 30
0.0
 10
57.604114
 20
36.954877
 30
0.0
 10
57.615650
 20
36.984146
 30
0.0
 10
57.627239
 20
37.013536
 30
0.0
 10
57.634171
 20
37.039782
 30
0.0
 10
57.641050
 20
37.065844
 30
0.0
 10
57.648035
 20
37.092334
 30
0.0
 10
57.654941
 20
37.118501
 30
0.0
 10
57.661873
 20
37.144801
 30
0.0
 10
57.662084
 20
37.169301
 30
0.0
 10
57.662293
 20
37.193616
 30
0.0
 10
57.662505
 20
37.217931
 30
0.0
 10
57.662717
 20
37.242538
 30
0.0
 10
57.662931
 20
37.267276
 30
0.0
 10
57.654253
 20
37.291248
 30
0.0
 10
57.645627
 20
37.315060
 30
0.0
 10
57.637002
 20
37.338873
 30
0.0
 10
57.628271
 20
37.362950
 30
0.0
 10
57.619487
 20
37.387185
 30
0.0
 10
57.598611
 20
37.428106
 30
0.0
 10
57.577682
 20
37.469156
 30
0.0
 10
57.556833
 20
37.510018
 30
0.0
 10
57.536010
 20
37.550836
 30
0.0
 10
57.515108
 20
37.591825
 30
0.0
 10
57.497646
 20
37.634708
 30
0.0
 10
57.480130
 20
37.677727
 30
0.0
 10
57.462694
 20
37.720550
 30
0.0
 10
57.445285
 20
37.763325
 30
0.0
 10
57.427796
 20
37.806280
 30
0.0
 10
57.413641
 20
37.850817
 30
0.0
 10
57.399433
 20
37.895495
 30
0.0
 10
57.385304
 20
37.939969
 30
0.0
 10
57.371175
 20
37.984395
 30
0.0
 10
57.356993
 20
38.029006
 30
0.0
 10
57.346463
 20
38.074576
 30
0.0
 10
57.335880
 20
38.120290
 30
0.0
 10
57.325349
 20
38.165799
 30
0.0
 10
57.314845
 20
38.211254
 30
0.0
 10
57.304288
 20
38.256900
 30
0.0
 10
57.297171
 20
38.303297
 30
0.0
 10
57.290027
 20
38.349840
 30
0.0
 10
57.282910
 20
38.396171
 30
0.0
 10
57.275793
 20
38.442452
 30
0.0
 10
57.268649
 20
38.488926
 30
0.0
 10
57.265236
 20
38.535427
 30
0.0
 10
57.261823
 20
38.582073
 30
0.0
 10
57.258410
 20
38.628510
 30
0.0
 10
57.255023
 20
38.674891
 30
0.0
 10
57.251610
 20
38.721471
 30
0.0
 10
57.251822
 20
38.767869
 30
0.0
 10
57.252033
 20
38.814411
 30
0.0
 10
57.252245
 20
38.860743
 30
0.0
 10
57.252457
 20
38.907024
 30
0.0
 10
57.252668
 20
38.953498
 30
0.0
 10
57.256690
 20
38.999170
 30
0.0
 10
57.260738
 20
39.044988
 30
0.0
 10
57.264760
 20
39.090599
 30
0.0
 10
57.268781
 20
39.136158
 30
0.0
 10
57.272829
 20
39.181907
 30
0.0
 10
57.280688
 20
39.226548
 30
0.0
 10
57.288572
 20
39.271328
 30
0.0
 10
57.296404
 20
39.315905
 30
0.0
 10
57.304235
 20
39.360435
 30
0.0
 10
57.312094
 20
39.405149
 30
0.0
 10
57.323868
 20
39.448136
 30
0.0
 10
57.335694
 20
39.491258
 30
0.0
 10
57.347468
 20
39.534187
 30
0.0
 10
57.359216
 20
39.577065
 30
0.0
 10
57.371016
 20
39.620123
 30
0.0
 10
57.386838
 20
39.661250
 30
0.0
 10
57.402687
 20
39.702507
 30
0.0
 10
57.418483
 20
39.743578
 30
0.0
 10
57.434252
 20
39.784601
 30
0.0
 10
57.450100
 20
39.825797
 30
0.0
 10
57.469838
 20
39.864339
 30
0.0
 10
57.489629
 20
39.903005
 30
0.0
 10
57.509340
 20
39.941494
 30
0.0
 10
57.529025
 20
39.979941
 30
0.0
 10
57.548790
 20
40.018549
 30
0.0
 10
57.572761
 20
40.054302
 30
0.0
 10
57.596812
 20
40.090169
 30
0.0
 10
57.620757
 20
40.125872
 30
0.0
 10
57.644675
 20
40.161535
 30
0.0
 10
57.668699
 20
40.197349
 30
0.0
 10
57.696806
 20
40.229691
 30
0.0
 10
57.725000
 20
40.262137
 30
0.0
 10
57.753069
 20
40.294438
 30
0.0
 10
57.781105
 20
40.326698
 30
0.0
 10
57.809259
 20
40.359097
 30
0.0
 10
57.841602
 20
40.387616
 30
0.0
 10
57.874047
 20
40.416225
 30
0.0
 10
57.906348
 20
40.444708
 30
0.0
 10
57.938608
 20
40.473156
 30
0.0
 10
57.971007
 20
40.501723
 30
0.0
 10
58.007794
 20
40.526117
 30
0.0
 10
58.044696
 20
40.550591
 30
0.0
 10
58.081430
 20
40.574959
 30
0.0
 10
58.118126
 20
40.599275
 30
0.0
 10
58.154974
 20
40.623696
 30
0.0
 10
58.207571
 20
40.669368
 30
0.0
 10
58.260334
 20
40.715186
 30
0.0
 10
58.312856
 20
40.760798
 30
0.0
 10
58.365320
 20
40.806356
 30
0.0
 10
58.418007
 20
40.852105
 30
0.0
 10
58.478663
 20
40.891991
 30
0.0
 10
58.539512
 20
40.932004
 30
0.0
 10
58.600085
 20
40.971837
 30
0.0
 10
58.660588
 20
41.011623
 30
0.0
 10
58.721346
 20
41.051577
 30
0.0
 10
58.789649
 20
41.086399
 30
0.0
 10
58.858168
 20
41.121335
 30
0.0
 10
58.926377
 20
41.156109
 30
0.0
 10
58.994510
 20
41.190843
 30
0.0
 10
59.062929
 20
41.225726
 30
0.0
 10
59.138155
 20
41.256209
 30
0.0
 10
59.213620
 20
41.286789
 30
0.0
 10
59.288743
 20
41.317230
 30
0.0
 10
59.363779
 20
41.347635
 30
0.0
 10
59.439132
 20
41.378171
 30
0.0
 10
59.520870
 20
41.404934
 30
0.0
 10
59.602864
 20
41.431781
 30
0.0
 10
59.684488
 20
41.458509
 30
0.0
 10
59.766019
 20
41.485206
 30
0.0
 10
59.847895
 20
41.512013
 30
0.0
 10
59.935416
 20
41.535879
 30
0.0
 10
60.022768
 20
41.559691
 30
0.0
 10
60.110277
 20
41.583556
 30
0.0
 10
60.197732
 20
41.607395
 30
0.0
 10
60.285592
 20
41.631367
 30
0.0
 10
60.475828
 20
41.672906
 30
0.0
 10
60.666177
 20
41.714470
 30
0.0
 10
60.856269
 20
41.755977
 30
0.0
 10
61.046687
 20
41.797557
 30
0.0
 10
61.236957
 20
41.839104
 30
0.0
 10
61.662378
 20
41.917638
 30
0.0
 10
62.088053
 20
41.996216
 30
0.0
 10
62.513582
 20
42.074771
 30
0.0
 10
62.939217
 20
42.153345
 30
0.0
 10
63.364474
 20
42.231846
 30
0.0
 10
63.590463
 20
42.279998
 30
0.0
 10
63.816589
 20
42.328181
 30
0.0
 10
64.042403
 20
42.376296
 30
0.0
 10
64.268611
 20
42.424495
 30
0.0
 10
64.494639
 20
42.472657
 30
0.0
 10
64.609029
 20
42.501383
 30
0.0
 10
64.723194
 20
42.530053
 30
0.0
 10
64.837566
 20
42.558776
 30
0.0
 10
64.952165
 20
42.587555
 30
0.0
 10
65.066698
 20
42.616318
 30
0.0
 10
65.181191
 20
42.649073
 30
0.0
 10
65.295459
 20
42.681765
 30
0.0
 10
65.409931
 20
42.714518
 30
0.0
 10
65.524636
 20
42.747334
 30
0.0
 10
65.639272
 20
42.780132
 30
0.0
 10
65.765028
 20
42.820534
 30
0.0
 10
65.890859
 20
42.860962
 30
0.0
 10
66.016517
 20
42.901335
 30
0.0
 10
66.142396
 20
42.941776
 30
0.0
 10
66.268173
 20
42.982186
 30
0.0
 10
66.393414
 20
43.027755
 30
0.0
 10
66.518728
 20
43.073354
 30
0.0
 10
66.643871
 20
43.118889
 30
0.0
 10
66.769231
 20
43.164503
 30
0.0
 10
66.894492
 20
43.210080
 30
0.0
 10
67.017873
 20
43.262780
 30
0.0
 10
67.141325
 20
43.315511
 30
0.0
 10
67.264610
 20
43.368171
 30
0.0
 10
67.388107
 20
43.420921
 30
0.0
 10
67.511508
 20
43.473631
 30
0.0
 10
67.631685
 20
43.535528
 30
0.0
 10
67.751933
 20
43.597462
 30
0.0
 10
67.872016
 20
43.659311
 30
0.0
 10
67.992307
 20
43.721265
 30
0.0
 10
68.112504
 20
43.783173
 30
0.0
 10
68.171094
 20
43.818203
 30
0.0
 10
68.229871
 20
43.853343
 30
0.0
 10
68.288381
 20
43.888326
 30
0.0
 10
68.346822
 20
43.923267
 30
0.0
 10
68.405512
 20
43.958356
 30
0.0
 10
68.462757
 20
43.996485
 30
0.0
 10
68.520185
 20
44.034736
 30
0.0
 10
68.577353
 20
44.072812
 30
0.0
 10
68.634456
 20
44.110846
 30
0.0
 10
68.691799
 20
44.149041
 30
0.0
 10
68.747703
 20
44.190581
 30
0.0
 10
68.803781
 20
44.232253
 30
0.0
 10
68.859608
 20
44.273737
 30
0.0
 10
68.915372
 20
44.315170
 30
0.0
 10
68.971368
 20
44.356781
 30
0.0
 10
69.025722
 20
44.401835
 30
0.0
 10
69.080247
 20
44.447031
 30
0.0
 10
69.134523
 20
44.492020
 30
0.0
 10
69.188739
 20
44.536960
 30
0.0
 10
69.243185
 20
44.582090
 30
0.0
 10
69.295782
 20
44.631070
 30
0.0
 10
69.348545
 20
44.680205
 30
0.0
 10
69.401067
 20
44.729116
 30
0.0
 10
69.453532
 20
44.777974
 30
0.0
 10
69.506218
 20
44.827036
 30
0.0
 10
69.556955
 20
44.880045
 30
0.0
 10
69.607852
 20
44.933224
 30
0.0
 10
69.658520
 20
44.986159
 30
0.0
 10
69.709127
 20
45.039036
 30
0.0
 10
69.759951
 20
45.092135
 30
0.0
 10
69.808724
 20
45.149589
 30
0.0
 10
69.857651
 20
45.207224
 30
0.0
 10
69.906355
 20
45.264598
 30
0.0
 10
69.955007
 20
45.321907
 30
0.0
 10
70.003862
 20
45.379457
 30
0.0
 10
70.050363
 20
45.441560
 30
0.0
 10
70.097009
 20
45.503859
 30
0.0
 10
70.143446
 20
45.565877
 30
0.0
 10
70.189827
 20
45.627824
 30
0.0
 10
70.236407
 20
45.690033
 30
0.0
 10
70.250562
 20
45.715142
 30
0.0
 10
70.264612
 20
45.740065
 30
0.0
 10
70.278899
 20
45.765412
 30
0.0
 10
70.293028
 20
45.790468
 30
0.0
 10
70.307210
 20
45.815604
 30
0.0
 10
70.317132
 20
45.849807
 30
0.0
 10
70.326974
 20
45.883766
 30
0.0
 10
70.336975
 20
45.918286
 30
0.0
 10
70.346871
 20
45.952396
 30
0.0
 10
70.356793
 20
45.986652
 30
0.0
 10
70.362878
 20
46.029123
 30
0.0
 10
70.368990
 20
46.071726
 30
0.0
 10
70.375075
 20
46.114139
 30
0.0
 10
70.381161
 20
46.156501
 30
0.0
 10
70.387273
 20
46.199043
 30
0.0
 10
70.389918
 20
46.248954
 30
0.0
 10
70.392564
 20
46.299021
 30
0.0
 10
70.395210
 20
46.348861
 30
0.0
 10
70.397856
 20
46.398648
 30
0.0
 10
70.400502
 20
46.448641
 30
0.0
 10
70.396480
 20
46.567886
 30
0.0
 10
70.392458
 20
46.686898
 30
0.0
 10
70.388437
 20
46.806124
 30
0.0
 10
70.384389
 20
46.925589
 30
0.0
 10
70.380341
 20
47.044985
 30
0.0
 10
70.366185
 20
47.185106
 30
0.0
 10
70.352030
 20
47.325308
 30
0.0
 10
70.337875
 20
47.465321
 30
0.0
 10
70.323720
 20
47.605574
 30
0.0
 10
70.309564
 20
47.745718
 30
0.0
 10
70.287869
 20
47.900616
 30
0.0
 10
70.266146
 20
48.055603
 30
0.0
 10
70.244451
 20
48.210382
 30
0.0
 10
70.222728
 20
48.365425
 30
0.0
 10
70.201032
 20
48.520349
 30
0.0
 10
70.174373
 20
48.683822
 30
0.0
 10
70.147698
 20
48.847393
 30
0.0
 10
70.121059
 20
49.010739
 30
0.0
 10
70.094374
 20
49.174368
 30
0.0
 10
70.067709
 20
49.337869
 30
0.0
 10
70.010255
 20
49.666262
 30
0.0
 10
69.952769
 20
49.994848
 30
0.0
 10
69.895301
 20
50.323323
 30
0.0
 10
69.837818
 20
50.651880
 30
0.0
 10
69.780387
 20
50.980146
 30
0.0
 10
69.773561
 20
51.224528
 30
0.0
 10
69.766735
 20
51.469056
 30
0.0
 10
69.759908
 20
51.713251
 30
0.0
 10
69.753082
 20
51.957869
 30
0.0
 10
69.746256
 20
52.202294
 30
0.0
 10
69.739853
 20
52.313479
 30
0.0
 10
69.733450
 20
52.424446
 30
0.0
 10
69.727047
 20
52.535616
 30
0.0
 10
69.720644
 20
52.646717
 30
0.0
 10
69.714215
 20
52.758331
 30
0.0
 10
69.704399
 20
52.863731
 30
0.0
 10
69.694609
 20
52.968924
 30
0.0
 10
69.684793
 20
53.074307
 30
0.0
 10
69.674977
 20
53.179625
 30
0.0
 10
69.665108
 20
53.285432
 30
0.0
 10
69.650953
 20
53.385870
 30
0.0
 10
69.636824
 20
53.486113
 30
0.0
 10
69.622669
 20
53.586538
 30
0.0
 10
69.608514
 20
53.686900
 30
0.0
 10
69.594306
 20
53.787727
 30
0.0
 10
69.574780
 20
53.884342
 30
0.0
 10
69.555280
 20
53.980770
 30
0.0
 10
69.535754
 20
54.077369
 30
0.0
 10
69.516227
 20
54.173913
 30
0.0
 10
69.496622
 20
54.270901
 30
0.0
 10
69.470692
 20
54.364728
 30
0.0
 10
69.444816
 20
54.458369
 30
0.0
 10
69.418887
 20
54.552180
 30
0.0
 10
69.392984
 20
54.645935
 30
0.0
 10
69.366949
 20
54.740124
 30
0.0
 10
69.333572
 20
54.832194
 30
0.0
 10
69.300261
 20
54.924081
 30
0.0
 10
69.266892
 20
55.016137
 30
0.0
 10
69.233538
 20
55.108136
 30
0.0
 10
69.200034
 20
55.200560
 30
0.0
 10
69.158185
 20
55.291907
 30
0.0
 10
69.116415
 20
55.383072
 30
0.0
 10
69.074574
 20
55.474404
 30
0.0
 10
69.032754
 20
55.565679
 30
0.0
 10
68.990744
 20
55.657379
 30
0.0
 10
68.939388
 20
55.749139
 30
0.0
 10
68.888133
 20
55.840719
 30
0.0
 10
68.836785
 20
55.932463
 30
0.0
 10
68.785467
 20
56.024152
 30
0.0
 10
68.733913
 20
56.116267
 30
0.0
 10
68.672016
 20
56.209265
 30
0.0
 10
68.610241
 20
56.302084
 30
0.0
 10
68.548355
 20
56.395066
 30
0.0
 10
68.486506
 20
56.487996
 30
0.0
 10
68.424371
 20
56.581354
 30
0.0
 10
68.351005
 20
56.676834
 30
0.0
 10
68.277594
 20
56.772370
 30
0.0
 10
68.204286
 20
56.867776
 30
0.0
 10
68.130848
 20
56.963349
 30
0.0
 10
68.057468
 20
57.058845
 30
0.0
 10
67.971495
 20
57.157736
 30
0.0
 10
67.885471
 20
57.256682
 30
0.0
 10
67.799563
 20
57.355496
 30
0.0
 10
67.713507
 20
57.454482
 30
0.0
 10
67.627520
 20
57.553388
 30
0.0
 10
67.527907
 20
57.656721
 30
0.0
 10
67.428236
 20
57.760115
 30
0.0
 10
67.328700
 20
57.863369
 30
0.0
 10
67.228992
 20
57.966800
 30
0.0
 10
67.129360
 20
58.070151
 30
0.0
 10
67.015280
 20
58.179064
 30
0.0
 10
66.901133
 20
58.288044
 30
0.0
 10
66.787140
 20
58.396872
 30
0.0
 10
66.672951
 20
58.505891
 30
0.0
 10
66.558852
 20
58.614822
 30
0.0
 10
66.429066
 20
58.730244
 30
0.0
 10
66.299204
 20
58.845738
 30
0.0
 10
66.169515
 20
58.961072
 30
0.0
 10
66.039605
 20
59.076605
 30
0.0
 10
65.909795
 20
59.192048
 30
0.0
 10
65.878484
 20
59.220464
 30
0.0
 10
65.847076
 20
59.248970
 30
0.0
 10
65.815810
 20
59.277350
 30
0.0
 10
65.784578
 20
59.305694
 30
0.0
 10
65.753215
 20
59.334158
 30
0.0
 10
65.726968
 20
59.363816
 30
0.0
 10
65.700642
 20
59.393565
 30
0.0
 10
65.674422
 20
59.423183
 30
0.0
 10
65.648228
 20
59.452763
 30
0.0
 10
65.621928
 20
59.482471
 30
0.0
 10
65.600021
 20
59.513056
 30
0.0
 10
65.578060
 20
59.543740
 30
0.0
 10
65.556179
 20
59.574284
 30
0.0
 10
65.534325
 20
59.604793
 30
0.0
 10
65.512391
 20
59.635431
 30
0.0
 10
65.494399
 20
59.666639
 30
0.0
 10
65.476540
 20
59.697622
 30
0.0
 10
65.458389
 20
59.729118
 30
0.0
 10
65.440451
 20
59.760241
 30
0.0
 10
65.422433
 20
59.791493
 30
0.0
 10
65.395773
 20
59.854837
 30
0.0
 10
65.369029
 20
59.918380
 30
0.0
 10
65.342407
 20
59.981636
 30
0.0
 10
65.315813
 20
60.044821
 30
0.0
 10
65.289109
 20
60.108271
 30
0.0
 10
65.270932
 20
60.170890
 30
0.0
 10
65.252676
 20
60.233707
 30
0.0
 10
65.234525
 20
60.296242
 30
0.0
 10
65.216375
 20
60.358704
 30
0.0
 10
65.198172
 20
60.421429
 30
0.0
 10
65.184017
 20
60.480950
 30
0.0
 10
65.169808
 20
60.540656
 30
0.0
 10
65.155680
 20
60.600094
 30
0.0
 10
65.141551
 20
60.659464
 30
0.0
 10
65.127369
 20
60.719085
 30
0.0
 10
65.112500
 20
60.773439
 30
0.0
 10
65.097577
 20
60.827964
 30
0.0
 10
65.082708
 20
60.882243
 30
0.0
 10
65.067864
 20
60.936459
 30
0.0
 10
65.052968
 20
60.990905
 30
0.0
 10
65.032913
 20
61.037715
 30
0.0
 10
65.012805
 20
61.084671
 30
0.0
 10
64.992776
 20
61.131417
 30
0.0
 10
64.972773
 20
61.178108
 30
0.0
 10
64.952691
 20
61.224998
 30
0.0
 10
64.939356
 20
61.244842
 30
0.0
 10
64.926127
 20
61.264553
 30
0.0
 10
64.912898
 20
61.284238
 30
0.0
 10
64.899510
 20
61.304161
 30
0.0
 10
64.886043
 20
61.324217
 30
0.0
 10
64.869506
 20
61.341362
 30
0.0
 10
64.853102
 20
61.358401
 30
0.0
 10
64.836698
 20
61.375440
 30
0.0
 10
64.820082
 20
61.392664
 30
0.0
 10
64.803360
 20
61.409995
 30
0.0
 10
64.702403
 20
61.491214
 30
0.0
 10
64.601388
 20
61.572483
 30
0.0
 10
64.500510
 20
61.653641
 30
0.0
 10
64.399456
 20
61.734937
 30
0.0
 10
64.298483
 20
61.816172
 30
0.0
 10
64.191430
 20
61.892639
 30
0.0
 10
64.084313
 20
61.969149
 30
0.0
 10
63.977342
 20
62.045558
 30
0.0
 10
63.870186
 20
62.122097
 30
0.0
 10
63.763114
 20
62.198577
 30
0.0
 10
63.650894
 20
62.270599
 30
0.0
 10
63.538610
 20
62.342667
 30
0.0
 10
63.426474
 20
62.414633
 30
0.0
 10
63.314148
 20
62.486727
 30
0.0
 10
63.201909
 20
62.558762
 30
0.0
 10
63.085246
 20
62.626549
 30
0.0
 10
62.968515
 20
62.694375
 30
0.0
 10
62.851939
 20
62.762111
 30
0.0
 10
62.735166
 20
62.829960
 30
0.0
 10
62.618482
 20
62.897760
 30
0.0
 10
62.498305
 20
62.961516
 30
0.0
 10
62.378057
 20
63.025310
 30
0.0
 10
62.257974
 20
63.089019
 30
0.0
 10
62.137681
 20
63.152837
 30
0.0
 10
62.017483
 20
63.216604
 30
0.0
 10
61.894518
 20
63.276744
 30
0.0
 10
61.771479
 20
63.336921
 30
0.0
 10
61.648606
 20
63.397013
 30
0.0
 10
61.525522
 20
63.457211
 30
0.0
 10
61.402536
 20
63.517361
 30
0.0
 10
61.277708
 20
63.573987
 30
0.0
 10
61.152809
 20
63.630648
 30
0.0
 10
61.028079
 20
63.687231
 30
0.0
 10
60.903132
 20
63.743911
 30
0.0
 10
60.778283
 20
63.800547
 30
0.0
 10
60.652527
 20
63.853969
 30
0.0
 10
60.526696
 20
63.907426
 30
0.0
 10
60.401038
 20
63.960805
 30
0.0
 10
60.275160
 20
64.014280
 30
0.0
 10
60.149382
 20
64.067713
 30
0.0
 10
59.897972
 20
64.165982
 30
0.0
 10
59.646414
 20
64.264312
 30
0.0
 10
59.395198
 20
64.362506
 30
0.0
 10
59.143547
 20
64.460870
 30
0.0
 10
58.892093
 20
64.559158
 30
0.0
 10
58.646573
 20
64.647714
 30
0.0
 10
58.400910
 20
64.736323
 30
0.0
 10
58.155577
 20
64.824810
 30
0.0
 10
57.909824
 20
64.913451
 30
0.0
 10
57.664262
 20
65.002023
 30
0.0
 10
57.217759
 20
65.158055
 30
0.0
 10
56.770994
 20
65.314181
 30
0.0
 10
56.324378
 20
65.470253
 30
0.0
 10
55.877652
 20
65.626365
 30
0.0
 10
55.431324
 20
65.782337
 30
0.0
 10
55.412486
 20
65.791651
 30
0.0
 10
55.394018
 20
65.800779
 30
0.0
 10
55.375603
 20
65.809880
 30
0.0
 10
55.357003
 20
65.819088
 30
0.0
 10
55.338297
 20
65.828348
 30
0.0
 10
55.322607
 20
65.844567
 30
0.0
 10
55.307235
 20
65.860469
 30
0.0
 10
55.291889
 20
65.876317
 30
0.0
 10
55.276384
 20
65.892351
 30
0.0
 10
55.260800
 20
65.908464
 30
0.0
 10
55.248180
 20
65.931298
 30
0.0
 10
55.235665
 20
65.953972
 30
0.0
 10
55.223150
 20
65.976647
 30
0.0
 10
55.210476
 20
65.999587
 30
0.0
 10
55.197750
 20
66.022658
 30
0.0
 10
55.187722
 20
66.051694
 30
0.0
 10
55.177774
 20
66.080525
 30
0.0
 10
55.167667
 20
66.109828
 30
0.0
 10
55.157666
 20
66.138787
 30
0.0
 10
55.147638
 20
66.167867
 30
0.0
 10
55.139780
 20
66.203104
 30
0.0
 10
55.131895
 20
66.238452
 30
0.0
 10
55.124064
 20
66.273639
 30
0.0
 10
55.116232
 20
66.308789
 30
0.0
 10
55.108374
 20
66.344085
 30
0.0
 10
55.102394
 20
66.385005
 30
0.0
 10
55.096388
 20
66.426055
 30
0.0
 10
55.090409
 20
66.466917
 30
0.0
 10
55.084429
 20
66.507735
 30
0.0
 10
55.078423
 20
66.548724
 30
0.0
 10
55.070882
 20
66.646787
 30
0.0
 10
55.063368
 20
66.744656
 30
0.0
 10
55.055828
 20
66.842703
 30
0.0
 10
55.048287
 20
66.940691
 30
0.0
 10
55.040720
 20
67.039132
 30
0.0
 10
55.033894
 20
67.292092
 30
0.0
 10
55.027067
 20
67.545200
 30
0.0
 10
55.020268
 20
67.797965
 30
0.0
 10
55.013441
 20
68.051168
 30
0.0
 10
55.006615
 20
68.304171
 30
0.0
 10
55.002276
 20
68.454417
 30
0.0
 10
54.997937
 20
68.604753
 30
0.0
 10
54.993598
 20
68.754883
 30
0.0
 10
54.989258
 20
68.905275
 30
0.0
 10
54.984919
 20
69.055548
 30
0.0
 10
54.976347
 20
69.218505
 30
0.0
 10
54.967774
 20
69.381557
 30
0.0
 10
54.959202
 20
69.544387
 30
0.0
 10
54.950603
 20
69.707500
 30
0.0
 10
54.942030
 20
69.870483
 30
0.0
 10
54.905139
 20
70.181204
 30
0.0
 10
54.868227
 20
70.492114
 30
0.0
 10
54.831329
 20
70.802914
 30
0.0
 10
54.794419
 20
71.113792
 30
0.0
 10
54.757544
 20
71.424394
 30
0.0
 10
54.732753
 20
71.731086
 30
0.0
 10
54.707935
 20
72.037963
 30
0.0
 10
54.683117
 20
72.344731
 30
0.0
 10
54.658299
 20
72.651579
 30
0.0
 10
54.633508
 20
72.958152
 30
0.0
 10
54.618320
 20
73.277245
 30
0.0
 10
54.603133
 20
73.596525
 30
0.0
 10
54.587946
 20
73.915700
 30
0.0
 10
54.572759
 20
74.234952
 30
0.0
 10
54.557572
 20
74.553920
 30
0.0
 10
54.549608
 20
74.901636
 30
0.0
 10
54.541644
 20
75.249557
 30
0.0
 10
54.533680
 20
75.597360
 30
0.0
 10
54.525716
 20
75.945250
 30
0.0
 10
54.517752
 20
76.292831
 30
0.0
 10
54.521483
 20
76.379320
 30
0.0
 10
54.525214
 20
76.466082
 30
0.0
 10
54.528918
 20
76.552456
 30
0.0
 10
54.532622
 20
76.638728
 30
0.0
 10
54.536353
 20
76.725364
 30
0.0
 10
54.544211
 20
76.789842
 30
0.0
 10
54.552095
 20
76.854528
 30
0.0
 10
54.559927
 20
76.918917
 30
0.0
 10
54.567759
 20
76.983237
 30
0.0
 10
54.575617
 20
77.047824
 30
0.0
 10
54.585750
 20
77.096907
 30
0.0
 10
54.595910
 20
77.146146
 30
0.0
 10
54.606017
 20
77.195160
 30
0.0
 10
54.616124
 20
77.244121
 30
0.0
 10
54.626258
 20
77.293286
 30
0.0
 10
54.637106
 20
77.333794
 30
0.0
 10
54.647980
 20
77.374429
 30
0.0
 10
54.658828
 20
77.414878
 30
0.0
 10
54.669650
 20
77.455283
 30
0.0
 10
54.680524
 20
77.495859
 30
0.0
 10
54.690340
 20
77.534401
 30
0.0
 10
54.700183
 20
77.573067
 30
0.0
 10
54.709972
 20
77.611556
 30
0.0
 10
54.719762
 20
77.650003
 30
0.0
 10
54.729604
 20
77.688611
 30
0.0
 10
54.736642
 20
77.732010
 30
0.0
 10
54.743680
 20
77.775548
 30
0.0
 10
54.750691
 20
77.818889
 30
0.0
 10
54.757703
 20
77.862180
 30
0.0
 10
54.764741
 20
77.905654
 30
0.0
 10
54.767387
 20
77.960626
 30
0.0
 10
54.770033
 20
78.015773
 30
0.0
 10
54.772678
 20
78.070672
 30
0.0
 10
54.775324
 20
78.125507
 30
0.0
 10
54.777970
 20
78.180572
 30
0.0
 10
54.774239
 20
78.253835
 30
0.0
 10
54.770509
 20
78.327328
 30
0.0
 10
54.766805
 20
78.400491
 30
0.0
 10
54.763100
 20
78.473569
 30
0.0
 10
54.759370
 20
78.546956
 30
0.0
 10
54.735399
 20
78.594801
 30
0.0
 10
54.711348
 20
78.642794
 30
0.0
 10
54.687403
 20
78.690572
 30
0.0
 10
54.663485
 20
78.738295
 30
0.0
 10
54.639461
 20
78.786219
 30
0.0
 10
54.619829
 20
78.833029
 30
0.0
 10
54.600144
 20
78.879987
 30
0.0
 10
54.580538
 20
78.926734
 30
0.0
 10
54.560959
 20
78.973425
 30
0.0
 10
54.541300
 20
79.020314
 30
0.0
 10
54.525690
 20
79.066296
 30
0.0
 10
54.510027
 20
79.112426
 30
0.0
 10
54.494443
 20
79.158345
 30
0.0
 10
54.478885
 20
79.204213
 30
0.0
 10
54.463248
 20
79.250274
 30
0.0
 10
54.451157
 20
79.295431
 30
0.0
 10
54.439039
 20
79.340730
 30
0.0
 10
54.426974
 20
79.385823
 30
0.0
 10
54.414909
 20
79.430866
 30
0.0
 10
54.402791
 20
79.476099
 30
0.0
 10
54.387392
 20
79.564758
 30
0.0
 10
54.371940
 20
79.653698
 30
0.0
 10
54.356568
 20
79.742235
 30
0.0
 10
54.341222
 20
79.830672
 30
0.0
 10
54.325797
 20
79.919482
 30
0.0
 10
54.319394
 20
80.006797
 30
0.0
 10
54.312965
 20
80.094390
 30
0.0
 10
54.306562
 20
80.181586
 30
0.0
 10
54.300185
 20
80.268685
 30
0.0
 10
54.293756
 20
80.356148
 30
0.0
 10
54.292698
 20
80.442947
 30
0.0
 10
54.291639
 20
80.530022
 30
0.0
 10
54.290581
 20
80.616702
 30
0.0
 10
54.289523
 20
80.703284
 30
0.0
 10
54.288464
 20
80.790231
 30
0.0
 10
54.289523
 20
80.877859
 30
0.0
 10
54.290581
 20
80.965761
 30
0.0
 10
54.291639
 20
81.053267
 30
0.0
 10
54.292698
 20
81.140672
 30
0.0
 10
54.293756
 20
81.228447
 30
0.0
 10
54.293544
 20
81.317829
 30
0.0
 10
54.293333
 20
81.407496
 30
0.0
 10
54.293121
 20
81.496756
 30
0.0
 10
54.292909
 20
81.585913
 30
0.0
 10
54.292698
 20
81.675448
 30
0.0
 10
54.287750
 20
81.767621
 30
0.0
 10
54.282802
 20
81.859614
 30
0.0
 10
54.277855
 20
81.951771
 30
0.0
 10
54.272907
 20
82.043872
 30
0.0
 10
54.267933
 20
82.136402
 30
0.0
 10
54.250364
 20
82.203672
 30
0.0
 10
54.232743
 20
82.271154
 30
0.0
 10
54.215201
 20
82.338332
 30
0.0
 10
54.197686
 20
82.405431
 30
0.0
 10
54.180091
 20
82.472815
 30
0.0
 10
54.156332
 20
82.537399
 30
0.0
 10
54.132493
 20
82.602185
 30
0.0
 10
54.108759
 20
82.666680
 30
0.0
 10
54.085053
 20
82.731101
 30
0.0
 10
54.061240
 20
82.795794
 30
0.0
 10
54.031480
 20
82.857588
 30
0.0
 10
54.001627
 20
82.919577
 30
0.0
 10
53.971906
 20
82.981283
 30
0.0
 10
53.942223
 20
83.042923
 30
0.0
 10
53.912412
 20
83.104820
 30
0.0
 10
53.877072
 20
83.164028
 30
0.0
 10
53.841623
 20
83.223427
 30
0.0
 10
53.806330
 20
83.282553
 30
0.0
 10
53.771080
 20
83.341616
 30
0.0
 10
53.735681
 20
83.400925
 30
0.0
 10
53.694967
 20
83.457551
 30
0.0
 10
53.654126
 20
83.514357
 30
0.0
 10
53.613467
 20
83.570904
 30
0.0
 10
53.572856
 20
83.627390
 30
0.0
 10
53.532074
 20
83.684111
 30
0.0
 10
53.486401
 20
83.738155
 30
0.0
 10
53.440583
 20
83.792368
 30
0.0
 10
53.394972
 20
83.846335
 30
0.0
 10
53.349413
 20
83.900244
 30
0.0
 10
53.303664
 20
83.954378
 30
0.0
 10
53.253134
 20
84.006046
 30
0.0
 10
53.202445
 20
84.057875
 30
0.0
 10
53.151986
 20
84.109472
 30
0.0
 10
53.101583
 20
84.161007
 30
0.0
 10
53.050968
 20
84.212762
 30
0.0
 10
52.996099
 20
84.261948
 30
0.0
 10
52.941055
 20
84.311290
 30
0.0
 10
52.886260
 20
84.360408
 30
0.0
 10
52.831528
 20
84.409472
 30
0.0
 10
52.776566
 20
84.458740
 30
0.0
 10
52.717562
 20
84.505653
 30
0.0
 10
52.658374
 20
84.552715
 30
0.0
 10
52.599452
 20
84.599565
 30
0.0
 10
52.540595
 20
84.646359
 30
0.0
 10
52.481493
 20
84.693351
 30
0.0
 10
52.418667
 20
84.738095
 30
0.0
 10
52.355641
 20
84.782979
 30
0.0
 10
52.292900
 20
84.827662
 30
0.0
 10
52.230234
 20
84.872292
 30
0.0
 10
52.167300
 20
84.917112
 30
0.0
 10
52.100858
 20
84.959583
 30
0.0
 10
52.034204
 20
85.002186
 30
0.0
 10
51.967852
 20
85.044596
 30
0.0
 10
51.901576
 20
85.086959
 30
0.0
 10
51.835020
 20
85.129501
 30
0.0
 10
51.765477
 20
85.169903
 30
0.0
 10
51.695714
 20
85.210434
 30
0.0
 10
51.626267
 20
85.250783
 30
0.0
 10
51.556898
 20
85.291085
 30
0.0
 10
51.487239
 20
85.331555
 30
0.0
 10
51.414801
 20
85.369891
 30
0.0
 10
51.342136
 20
85.408351
 30
0.0
 10
51.269801
 20
85.446633
 30
0.0
 10
51.197546
 20
85.484874
 30
0.0
 10
51.124987
 20
85.523275
 30
0.0
 10
51.049864
 20
85.559647
 30
0.0
 10
50.974503
 20
85.596136
 30
0.0
 10
50.899483
 20
85.632461
 30
0.0
 10
50.824550
 20
85.668740
 30
0.0
 10
50.749300
 20
85.705176
 30
0.0
 10
50.592545
 20
85.772240
 30
0.0
 10
50.435695
 20
85.839344
 30
0.0
 10
50.279059
 20
85.906355
 30
0.0
 10
50.122153
 20
85.973482
 30
0.0
 10
49.965369
 20
86.040557
 30
0.0
 10
49.801793
 20
86.100593
 30
0.0
 10
49.638119
 20
86.160664
 30
0.0
 10
49.474667
 20
86.220656
 30
0.0
 10
49.310935
 20
86.280748
 30
0.0
 10
49.147330
 20
86.340795
 30
0.0
 10
48.979312
 20
86.394220
 30
0.0
 10
48.811190
 20
86.447674
 30
0.0
 10
48.643301
 20
86.501056
 30
0.0
 10
48.475122
 20
86.554530
 30
0.0
 10
48.307071
 20
86.607963
 30
0.0
 10
48.137193
 20
86.655393
 30
0.0
 10
47.967211
 20
86.702851
 30
0.0
 10
47.797463
 20
86.750244
 30
0.0
 10
47.627420
 20
86.797720
 30
0.0
 10
47.457510
 20
86.845158
 30
0.0
 10
47.288148
 20
86.887111
 30
0.0
 10
47.118685
 20
86.929089
 30
0.0
 10
46.949452
 20
86.971010
 30
0.0
 10
46.779926
 20
87.013004
 30
0.0
 10
46.610534
 20
87.054964
 30
0.0
 10
46.444063
 20
87.091957
 30
0.0
 10
46.277495
 20
87.128973
 30
0.0
 10
46.111154
 20
87.165938
 30
0.0
 10
45.944525
 20
87.202966
 30
0.0
 10
45.778025
 20
87.239966
 30
0.0
 10
45.616928
 20
87.272619
 30
0.0
 10
45.455736
 20
87.305292
 30
0.0
 10
45.294764
 20
87.337920
 30
0.0
 10
45.133513
 20
87.370604
 30
0.0
 10
44.972390
 20
87.403263
 30
0.0
 10
44.675824
 20
87.457410
 30
0.0
 10
44.379083
 20
87.511588
 30
0.0
 10
44.082443
 20
87.565749
 30
0.0
 10
43.785726
 20
87.619922
 30
0.0
 10
43.489276
 20
87.674048
 30
0.0
 10
43.475888
 20
87.678755
 30
0.0
 10
43.462765
 20
87.683369
 30
0.0
 10
43.449668
 20
87.687973
 30
0.0
 10
43.436148
 20
87.692722
 30
0.0
 10
43.423130
 20
87.697302
 30
0.0
 10
43.411938
 20
87.706086
 30
0.0
 10
43.400958
 20
87.714701
 30
0.0
 10
43.390005
 20
87.723295
 30
0.0
 10
43.378707
 20
87.732161
 30
0.0
 10
43.367806
 20
87.740710
 30
0.0
 10
43.358598
 20
87.753259
 30
0.0
 10
43.349576
 20
87.765565
 30
0.0
 10
43.340580
 20
87.777844
 30
0.0
 10
43.331479
 20
87.790253
 30
0.0
 10
43.322324
 20
87.802723
 30
0.0
 10
43.315101
 20
87.818828
 30
0.0
 10
43.308037
 20
87.834618
 30
0.0
 10
43.300972
 20
87.850374
 30
0.0
 10
43.293828
 20
87.866299
 30
0.0
 10
43.286658
 20
87.882304
 30
0.0
 10
43.276842
 20
87.923431
 30
0.0
 10
43.267000
 20
87.964687
 30
0.0
 10
43.257210
 20
88.005757
 30
0.0
 10
43.247421
 20
88.046780
 30
0.0
 10
43.237578
 20
88.087976
 30
0.0
 10
43.232921
 20
88.139539
 30
0.0
 10
43.228265
 20
88.191265
 30
0.0
 10
43.223635
 20
88.242758
 30
0.0
 10
43.219004
 20
88.294192
 30
0.0
 10
43.214348
 20
88.345842
 30
0.0
 10
43.213818
 20
88.471288
 30
0.0
 10
43.213289
 20
88.596809
 30
0.0
 10
43.212760
 20
88.722159
 30
0.0
 10
43.212231
 20
88.847725
 30
0.0
 10
43.211702
 20
88.973194
 30
0.0
 10
43.212760
 20
89.113106
 30
0.0
 10
43.213818
 20
89.253102
 30
0.0
 10
43.214877
 20
89.392908
 30
0.0
 10
43.215935
 20
89.532955
 30
0.0
 10
43.216993
 20
89.672892
 30
0.0
 10
43.211199
 20
89.838019
 30
0.0
 10
43.205405
 20
90.003243
 30
0.0
 10
43.199610
 20
90.168242
 30
0.0
 10
43.193816
 20
90.333527
 30
0.0
 10
43.188022
 20
90.498682
 30
0.0
 10
43.181301
 20
90.584965
 30
0.0
 10
43.174554
 20
90.671521
 30
0.0
 10
43.167834
 20
90.757685
 30
0.0
 10
43.161140
 20
90.843751
 30
0.0
 10
43.154420
 20
90.930180
 30
0.0
 10
43.151430
 20
91.053870
 30
0.0
 10
43.148440
 20
91.177633
 30
0.0
 10
43.145450
 20
91.301228
 30
0.0
 10
43.142460
 20
91.425036
 30
0.0
 10
43.139471
 20
91.548747
 30
0.0
 10
43.144842
 20
91.825989
 30
0.0
 10
43.150213
 20
92.103396
 30
0.0
 10
43.155584
 20
92.380426
 30
0.0
 10
43.160955
 20
92.657935
 30
0.0
 10
43.166326
 20
92.935226
 30
0.0
 10
43.172835
 20
93.012519
 30
0.0
 10
43.179370
 20
93.090056
 30
0.0
 10
43.185878
 20
93.167243
 30
0.0
 10
43.192361
 20
93.244342
 30
0.0
 10
43.198896
 20
93.321765
 30
0.0
 10
43.201277
 20
93.399782
 30
0.0
 10
43.203658
 20
93.478045
 30
0.0
 10
43.206040
 20
93.555954
 30
0.0
 10
43.208421
 20
93.633774
 30
0.0
 10
43.210802
 20
93.711922
 30
0.0
 10
43.210273
 20
93.868162
 30
0.0
 10
43.209744
 20
94.024494
 30
0.0
 10
43.209215
 20
94.180614
 30
0.0
 10
43.208686
 20
94.337003
 30
0.0
 10
43.208156
 20
94.493270
 30
0.0
 10
43.208368
 20
94.570460
 30
0.0
 10
43.208580
 20
94.647893
 30
0.0
 10
43.208791
 20
94.724977
 30
0.0
 10
43.209003
 20
94.801973
 30
0.0
 10
43.209215
 20
94.879293
 30
0.0
 10
43.211993
 20
94.955449
 30
0.0
 10
43.214797
 20
95.031847
 30
0.0
 10
43.217576
 20
95.107898
 30
0.0
 10
43.220354
 20
95.183863
 30
0.0
 10
43.223158
 20
95.260148
 30
0.0
 10
43.229985
 20
95.334548
 30
0.0
 10
43.236837
 20
95.409183
 30
0.0
 10
43.243637
 20
95.483481
 30
0.0
 10
43.250437
 20
95.557693
 30
0.0
 10
43.257263
 20
95.632219
 30
0.0
 10
43.269884
 20
95.704552
 30
0.0
 10
43.282531
 20
95.777113
 30
0.0
 10
43.295125
 20
95.849347
 30
0.0
 10
43.307693
 20
95.921498
 30
0.0
 10
43.320313
 20
95.993954
 30
0.0
 10
43.329097
 20
96.012776
 30
0.0
 10
43.337696
 20
96.031233
 30
0.0
 10
43.346295
 20
96.049651
 30
0.0
 10
43.354974
 20
96.068264
 30
0.0
 10
43.363705
 20
96.086970
 30
0.0
 10
43.378680
 20
96.104639
 30
0.0
 10
43.393550
 20
96.122184
 30
0.0
 10
43.408420
 20
96.139728
 30
0.0
 10
43.423474
 20
96.157479
 30
0.0
 10
43.438608
 20
96.175336
 30
0.0
 10
43.459167
 20
96.192283
 30
0.0
 10
43.479592
 20
96.209110
 30
0.0
 10
43.500018
 20
96.225935
 30
0.0
 10
43.520682
 20
96.242961
 30
0.0
 10
43.541452
 20
96.260087
 30
0.0
 10
43.566773
 20
96.276312
 30
0.0
 10
43.591908
 20
96.292419
 30
0.0
 10
43.617467
 20
96.308792
 30
0.0
 10
43.642708
 20
96.324971
 30
0.0
 10
43.668055
 20
96.341219
 30
0.0
 10
43.730055
 20
96.372529
 30
0.0
 10
43.792251
 20
96.403938
 30
0.0
 10
43.854166
 20
96.435205
 30
0.0
 10
43.916009
 20
96.466436
 30
0.0
 10
43.978115
 20
96.497799
 30
0.0
 10
44.050240
 20
96.528179
 30
0.0
 10
44.122596
 20
96.558655
 30
0.0
 10
44.194624
 20
96.588993
 30
0.0
 10
44.266569
 20
96.619296
 30
0.0
 10
44.338816
 20
96.649728
 30
0.0
 10
44.414971
 20
96.680417
 30
0.0
 10
44.491370
 20
96.711204
 30
0.0
 10
44.567422
 20
96.741852
 30
0.0
 10
44.643386
 20
96.772465
 30
0.0
 10
44.719671
 20
96.803207
 30
0.0
 10
44.793968
 20
96.835136
 30
0.0
 10
44.868499
 20
96.867167
 30
0.0
 10
44.942693
 20
96.899053
 30
0.0
 10
45.016803
 20
96.930903
 30
0.0
 10
45.091225
 20
96.962887
 30
0.0
 10
45.157461
 20
96.997400
 30
0.0
 10
45.223906
 20
97.032022
 30
0.0
 10
45.290052
 20
97.066488
 30
0.0
 10
45.356123
 20
97.100914
 30
0.0
 10
45.422470
 20
97.135486
 30
0.0
 10
45.450783
 20
97.153983
 30
0.0
 10
45.478895
 20
97.172348
 30
0.0
 10
45.507470
 20
97.191014
 30
0.0
 10
45.535709
 20
97.209461
 30
0.0
 10
45.564065
 20
97.227984
 30
0.0
 10
45.588036
 20
97.247513
 30
0.0
 10
45.611848
 20
97.266904
 30
0.0
 10
45.636031
 20
97.286613
 30
0.0
 10
45.659950
 20
97.306092
 30
0.0
 10
45.683947
 20
97.325653
 30
0.0
 10
45.733340
 20
97.367709
 30
0.0
 10
45.782891
 20
97.409899
 30
0.0
 10
45.832217
 20
97.451897
 30
0.0
 10
45.881485
 20
97.493848
 30
0.0
 10
45.930962
 20
97.535976
 30
0.0
 10
45.979942
 20
97.572349
 30
0.0
 10
46.029078
 20
97.608837
 30
0.0
 10
46.077989
 20
97.645160
 30
0.0
 10
46.126847
 20
97.681442
 30
0.0
 10
46.175908
 20
97.717877
 30
0.0
 10
46.269941
 20
97.786283
 30
0.0
 10
46.363789
 20
97.854555
 30
0.0
 10
46.457806
 20
97.922950
 30
0.0
 10
46.552011
 20
97.991482
 30
0.0
 10
46.646163
 20
98.059975
 30
0.0
 10
46.689769
 20
98.098415
 30
0.0
 10
46.733515
 20
98.136976
 30
0.0
 10
46.777060
 20
98.175363
 30
0.0
 10
46.820558
 20
98.213706
 30
0.0
 10
46.864238
 20
98.252211
 30
0.0
 10
46.904640
 20
98.297781
 30
0.0
 10
46.945171
 20
98.343495
 30
0.0
 10
46.985520
 20
98.389002
 30
0.0
 10
47.025821
 20
98.434457
 30
0.0
 10
47.066292
 20
98.480104
 30
0.0
 10
47.102873
 20
98.535904
 30
0.0
 10
47.139568
 20
98.591880
 30
0.0
 10
47.176097
 20
98.647603
 30
0.0
 10
47.212585
 20
98.703263
 30
0.0
 10
47.249228
 20
98.759157
 30
0.0
 10
47.281261
 20
98.828596
 30
0.0
 10
47.313394
 20
98.898256
 30
0.0
 10
47.345385
 20
98.967600
 30
0.0
 10
47.377336
 20
99.036865
 30
0.0
 10
47.409425
 20
99.106422
 30
0.0
 10
47.427496
 20
99.149822
 30
0.0
 10
47.445646
 20
99.193359
 30
0.0
 10
47.463717
 20
99.236700
 30
0.0
 10
47.481762
 20
99.279990
 30
0.0
 10
47.499886
 20
99.323464
 30
0.0
 10
47.516105
 20
99.355290
 30
0.0
 10
47.532218
 20
99.386891
 30
0.0
 10
47.548596
 20
99.419011
 30
0.0
 10
47.564762
 20
99.450752
 30
0.0
 10
47.581007
 20
99.482627
 30
0.0
 10
47.596088
 20
99.505566
 30
0.0
 10
47.611064
 20
99.528344
 30
0.0
 10
47.626277
 20
99.551495
 30
0.0
 10
47.641332
 20
99.574374
 30
0.0
 10
47.656440
 20
99.597348
 30
0.0
 10
47.670965
 20
99.613871
 30
0.0
 10
47.685227
 20
99.630071
 30
0.0
 10
47.699435
 20
99.646237
 30
0.0
 10
47.713802
 20
99.662575
 30
0.0
 10
47.728248
 20
99.678995
 30
0.0
 10
47.757595
 20
99.702347
 30
0.0
 10
47.787033
 20
99.725774
 30
0.0
 10
47.816341
 20
99.749094
 30
0.0
 10
47.845614
 20
99.772388
 30
0.0
 10
47.875009
 20
99.795780
 30
0.0
 10
47.923060
 20
99.841970
 30
0.0
 10
47.971262
 20
99.888305
 30
0.0
 10
48.019247
 20
99.934432
 30
0.0
 10
48.067176
 20
99.980505
 30
0.0
 10
48.115307
 20
100.026773
 30
0.0
 10
48.167903
 20
100.067487
 30
0.0
 10
48.220666
 20
100.108328
 30
0.0
 10
48.273189
 20
100.148986
 30
0.0
 10
48.325653
 20
100.189596
 30
0.0
 10
48.378340
 20
100.230378
 30
0.0
 10
48.448502
 20
100.287005
 30
0.0
 10
48.518886
 20
100.343810
 30
0.0
 10
48.588953
 20
100.400359
 30
0.0
 10
48.658941
 20
100.456843
 30
0.0
 10
48.729222
 20
100.513565
 30
0.0
 10
48.796699
 20
100.568849
 30
0.0
 10
48.864387
 20
100.624306
 30
0.0
 10
48.931771
 20
100.679513
 30
0.0
 10
48.999079
 20
100.734658
 30
0.0
 10
49.066669
 20
100.790034
 30
0.0
 10
49.125671
 20
100.845214
 30
0.0
 10
49.184861
 20
100.900568
 30
0.0
 10
49.243784
 20
100.955672
 30
0.0
 10
49.302638
 20
101.010713
 30
0.0
 10
49.361740
 20
101.065986
 30
0.0
 10
49.386241
 20
101.093886
 30
0.0
 10
49.410794
 20
101.121874
 30
0.0
 10
49.435242
 20
101.149736
 30
0.0
 10
49.459663
 20
101.177566
 30
0.0
 10
49.484189
 20
101.205513
 30
0.0
 10
49.504351
 20
101.234033
 30
0.0
 10
49.524353
 20
101.262350
 30
0.0
 10
49.544700
 20
101.291133
 30
0.0
 10
49.564808
 20
101.319577
 30
0.0
 10
49.584996
 20
101.348140
 30
0.0
 10
49.599971
 20
101.377176
 30
0.0
 10
49.614841
 20
101.406007
 30
0.0
 10
49.629975
 20
101.435311
 30
0.0
 10
49.644924
 20
101.464271
 30
0.0
 10
49.659926
 20
101.493351
 30
0.0
 10
49.669133
 20
101.523317
 30
0.0
 10
49.678261
 20
101.553071
 30
0.0
 10
49.687548
 20
101.583314
 30
0.0
 10
49.696729
 20
101.613201
 30
0.0
 10
49.705937
 20
101.643212
 30
0.0
 10
49.708635
 20
101.674109
 30
0.0
 10
49.711308
 20
101.704786
 30
0.0
 10
49.714033
 20
101.735967
 30
0.0
 10
49.716705
 20
101.766782
 30
0.0
 10
49.719404
 20
101.797725
 30
0.0
 10
49.714641
 20
101.829758
 30
0.0
 10
49.709932
 20
101.861564
 30
0.0
 10
49.705143
 20
101.893892
 30
0.0
 10
49.700407
 20
101.925840
 30
0.0
 10
49.695644
 20
101.957922
 30
0.0
 10
49.682944
 20
101.991298
 30
0.0
 10
49.670324
 20
102.024438
 30
0.0
 10
49.657492
 20
102.058122
 30
0.0
 10
49.644818
 20
102.091410
 30
0.0
 10
49.632092
 20
102.124836
 30
0.0
 10
49.610607
 20
102.159660
 30
0.0
 10
49.589044
 20
102.194593
 30
0.0
 10
49.567586
 20
102.229368
 30
0.0
 10
49.546155
 20
102.264104
 30
0.0
 10
49.524618
 20
102.298986
 30
0.0
 10
49.462205
 20
102.308699
 30
0.0
 10
49.399594
 20
102.318444
 30
0.0
 10
49.337266
 20
102.328143
 30
0.0
 10
49.275010
 20
102.337832
 30
0.0
 10
49.212491
 20
102.347561
 30
0.0
 10
49.154418
 20
102.359859
 30
0.0
 10
49.096162
 20
102.372194
 30
0.0
 10
49.038168
 20
102.384473
 30
0.0
 10
48.980240
 20
102.396739
 30
0.0
 10
48.922069
 20
102.409056
 30
0.0
 10
48.868541
 20
102.424245
 30
0.0
 10
48.814847
 20
102.439483
 30
0.0
 10
48.761393
 20
102.454651
 30
0.0
 10
48.708002
 20
102.469804
 30
0.0
 10
48.654385
 20
102.485020
 30
0.0
 10
48.605508
 20
102.502895
 30
0.0
 10
48.556478
 20
102.520829
 30
0.0
 10
48.507668
 20
102.538680
 30
0.0
 10
48.458916
 20
102.556513
 30
0.0
 10
48.409957
 20
102.574420
 30
0.0
 10
48.365626
 20
102.594984
 30
0.0
 10
48.321158
 20
102.615610
 30
0.0
 10
48.276888
 20
102.636145
 30
0.0
 10
48.232671
 20
102.656655
 30
0.0
 10
48.188266
 20
102.677253
 30
0.0
 10
48.148689
 20
102.700711
 30
0.0
 10
48.108988
 20
102.724240
 30
0.0
 10
48.069465
 20
102.747664
 30
0.0
 10
48.029987
 20
102.771061
 30
0.0
 10
47.990344
 20
102.794556
 30
0.0
 10
47.955625
 20
102.820700
 30
0.0
 10
47.920796
 20
102.846925
 30
0.0
 10
47.886122
 20
102.873032
 30
0.0
 10
47.851491
 20
102.899109
 30
0.0
 10
47.816711
 20
102.925297
 30
0.0
 10
47.786848
 20
102.954231
 30
0.0
 10
47.756892
 20
102.983255
 30
0.0
 10
47.727068
 20
103.012149
 30
0.0
 10
47.697281
 20
103.041009
 30
0.0
 10
47.667367
 20
103.069991
 30
0.0
 10
47.642470
 20
103.101715
 30
0.0
 10
47.617493
 20
103.133538
 30
0.0
 10
47.592622
 20
103.165217
 30
0.0
 10
47.567778
 20
103.196861
 30
0.0
 10
47.542828
 20
103.228638
 30
0.0
 10
47.522878
 20
103.263254
 30
0.0
 10
47.502876
 20
103.297980
 30
0.0
 10
47.482953
 20
103.332549
 30
0.0
 10
47.463056
 20
103.367079
 30
0.0
 10
47.443080
 20
103.401754
 30
0.0
 10
47.428316
 20
103.439057
 30
0.0
 10
47.413499
 20
103.476478
 30
0.0
 10
47.398736
 20
103.513730
 30
0.0
 10
47.383998
 20
103.550940
 30
0.0
 10
47.369208
 20
103.588306
 30
0.0
 10
47.359604
 20
103.628502
 30
0.0
 10
47.349973
 20
103.668826
 30
0.0
 10
47.340369
 20
103.708967
 30
0.0
 10
47.330791
 20
103.749063
 30
0.0
 10
47.321160
 20
103.789327
 30
0.0
 10
47.316715
 20
103.832417
 30
0.0
 10
47.312243
 20
103.875643
 30
0.0
 10
47.307798
 20
103.918674
 30
0.0
 10
47.303353
 20
103.961655
 30
0.0
 10
47.298908
 20
104.004818
 30
0.0
 10
47.299967
 20
104.050698
 30
0.0
 10
47.301025
 20
104.096723
 30
0.0
 10
47.302083
 20
104.142539
 30
0.0
 10
47.303142
 20
104.188304
 30
0.0
 10
47.304200
 20
104.234261
 30
0.0
 10
47.310603
 20
104.282931
 30
0.0
 10
47.317032
 20
104.331755
 30
0.0
 10
47.323435
 20
104.380358
 30
0.0
 10
47.329838
 20
104.428905
 30
0.0
 10
47.336241
 20
104.477657
 30
0.0
 10
47.348015
 20
104.529324
 30
0.0
 10
47.359842
 20
104.581153
 30
0.0
 10
47.371616
 20
104.632749
 30
0.0
 10
47.383363
 20
104.684286
 30
0.0
 10
47.395164
 20
104.736039
 30
0.0
 10
47.413341
 20
104.813023
 30
0.0
 10
47.431597
 20
104.890249
 30
0.0
 10
47.449747
 20
104.967126
 30
0.0
 10
47.467898
 20
105.043916
 30
0.0
 10
47.486101
 20
105.121029
 30
0.0
 10
47.498298
 20
105.196152
 30
0.0
 10
47.510522
 20
105.271512
 30
0.0
 10
47.522693
 20
105.346532
 30
0.0
 10
47.534864
 20
105.421467
 30
0.0
 10
47.547088
 20
105.496717
 30
0.0
 10
47.553808
 20
105.569876
 30
0.0
 10
47.560555
 20
105.643267
 30
0.0
 10
47.567275
 20
105.716327
 30
0.0
 10
47.573969
 20
105.789303
 30
0.0
 10
47.580690
 20
105.862586
 30
0.0
 10
47.582277
 20
105.933472
 30
0.0
 10
47.583865
 20
106.004582
 30
0.0
 10
47.585452
 20
106.075372
 30
0.0
 10
47.587040
 20
106.146080
 30
0.0
 10
47.588627
 20
106.217086
 30
0.0
 10
47.585637
 20
106.285596
 30
0.0
 10
47.582621
 20
106.354322
 30
0.0
 10
47.579631
 20
106.422738
 30
0.0
 10
47.576642
 20
106.491075
 30
0.0
 10
47.573652
 20
106.559701
 30
0.0
 10
47.566429
 20
106.625834
 30
0.0
 10
47.559179
 20
106.692176
 30
0.0
 10
47.551956
 20
106.758218
 30
0.0
 10
47.544733
 20
106.824185
 30
0.0
 10
47.537483
 20
106.890430
 30
0.0
 10
47.526424
 20
106.953773
 30
0.0
 10
47.515338
 20
107.017316
 30
0.0
 10
47.504304
 20
107.080572
 30
0.0
 10
47.493271
 20
107.143756
 30
0.0
 10
47.482185
 20
107.207206
 30
0.0
 10
47.467924
 20
107.267760
 30
0.0
 10
47.453610
 20
107.328504
 30
0.0
 10
47.439376
 20
107.388974
 30
0.0
 10
47.425141
 20
107.449375
 30
0.0
 10
47.410854
 20
107.510030
 30
0.0
 10
47.393814
 20
107.567690
 30
0.0
 10
47.376696
 20
107.625532
 30
0.0
 10
47.359683
 20
107.683113
 30
0.0
 10
47.342670
 20
107.740628
 30
0.0
 10
47.325605
 20
107.798385
 30
0.0
 10
47.306079
 20
107.852841
 30
0.0
 10
47.286499
 20
107.907470
 30
0.0
 10
47.267000
 20
107.961852
 30
0.0
 10
47.247526
 20
108.016171
 30
0.0
 10
47.227974
 20
108.070720
 30
0.0
 10
47.183748
 20
108.169609
 30
0.0
 10
47.139608
 20
108.268304
 30
0.0
 10
47.095388
 20
108.367178
 30
0.0
 10
47.051198
 20
108.465992
 30
0.0
 10
47.006800
 20
108.565263
 30
0.0
 10
46.958337
 20
108.649789
 30
0.0
 10
46.909968
 20
108.734149
 30
0.0
 10
46.861512
 20
108.818662
 30
0.0
 10
46.813088
 20
108.903124
 30
0.0
 10
46.764437
 20
108.987976
 30
0.0
 10
46.715560
 20
109.056900
 30
0.0
 10
46.666530
 20
109.126040
 30
0.0
 10
46.617720
 20
109.194869
 30
0.0
 10
46.568965
 20
109.263619
 30
0.0
 10
46.520007
 20
109.332658
 30
0.0
 10
46.422563
 20
109.429998
 30
0.0
 10
46.325064
 20
109.527395
 30
0.0
 10
46.227695
 20
109.624660
 30
0.0
 10
46.130159
 20
109.722093
 30
0.0
 10
46.032700
 20
109.819450
 30
0.0
 10
45.934947
 20
109.907696
 30
0.0
 10
45.837136
 20
109.995995
 30
0.0
 10
45.739457
 20
110.084174
 30
0.0
 10
45.641611
 20
110.172505
 30
0.0
 10
45.543840
 20
110.260767
 30
0.0
 10
45.445563
 20
110.340316
 30
0.0
 10
45.347231
 20
110.419912
 30
0.0
 10
45.249028
 20
110.499400
 30
0.0
 10
45.150658
 20
110.579025
 30
0.0
 10
45.052366
 20
110.658588
 30
0.0
 10
44.953787
 20
110.729785
 30
0.0
 10
44.855148
 20
110.801023
 30
0.0
 10
44.756644
 20
110.872165
 30
0.0
 10
44.657970
 20
110.943430
 30
0.0
 10
44.559373
 20
111.014639
 30
0.0
 10
44.460379
 20
111.077672
 30
0.0
 10
44.361581
 20
111.140581
 30
0.0
 10
44.262603
 20
111.203604
 30
0.0
 10
44.164128
 20
111.266705
 30
0.0
 10
44.065010
 20
111.329818
 30
0.0
 10
43.965603
 20
111.384998
 30
0.0
 10
43.866392
 20
111.440069
 30
0.0
 10
43.767004
 20
111.495240
 30
0.0
 10
43.667674
 20
111.550377
 30
0.0
 10
43.567884
 20
111.605770
 30
0.0
 10
43.467961
 20
111.653406
 30
0.0
 10
43.368235
 20
111.700949
 30
0.0
 10
43.268325
 20
111.748578
 30
0.0
 10
43.168479
 20
111.796178
 30
0.0
 10
43.068171
 20
111.843998
 30
0.0
 10
42.967939
 20
111.884401
 30
0.0
 10
42.867902
 20
111.924725
 30
0.0
 10
42.767686
 20
111.965122
 30
0.0
 10
42.667531
 20
112.005494
 30
0.0
 10
42.566910
 20
112.046053
 30
0.0
 10
42.466162
 20
112.079430
 30
0.0
 10
42.365609
 20
112.112740
 30
0.0
 10
42.264877
 20
112.146112
 30
0.0
 10
42.164203
 20
112.179463
 30
0.0
 10
42.063066
 20
112.212968
 30
0.0
 10
41.961800
 20
112.239731
 30
0.0
 10
41.860731
 20
112.266442
 30
0.0
 10
41.759481
 20
112.293201
 30
0.0
 10
41.658293
 20
112.319943
 30
0.0
 10
41.556635
 20
112.346810
 30
0.0
 10
41.455059
 20
112.367166
 30
0.0
 10
41.353684
 20
112.387483
 30
0.0
 10
41.252124
 20
112.407836
 30
0.0
 10
41.150624
 20
112.428177
 30
0.0
 10
41.048656
 20
112.448612
 30
0.0
 10
40.946461
 20
112.462975
 30
0.0
 10
40.844464
 20
112.477311
 30
0.0
 10
40.742285
 20
112.491672
 30
0.0
 10
40.640166
 20
112.506024
 30
0.0
 10
40.537577
 20
112.520443
 30
0.0
 10
40.434966
 20
112.528916
 30
0.0
 10
40.332559
 20
112.537373
 30
0.0
 10
40.229967
 20
112.545845
 30
0.0
 10
40.127435
 20
112.554311
 30
0.0
 10
40.024430
 20
112.562818
 30
0.0
 10
39.921304
 20
112.565814
 30
0.0
 10
39.818381
 20
112.568805
 30
0.0
 10
39.715270
 20
112.571801
 30
0.0
 10
39.612223
 20
112.574796
 30
0.0
  0
LWPOLYLINE
  5
101
100
AcDbEntity
  8
Edge.Cuts
 62
1
100
AcDbPolyline
 90
311
 70
0
 10
39.294241
 20
108.984742
 30
0.0
 10
39.430020
 20
108.983286
 30
0.0
 10
39.565881
 20
108.981831
 30
0.0
 10
39.701557
 20
108.980376
 30
0.0
 10
39.837468
 20
108.978921
 30
0.0
 10
39.973271
 20
108.977466
 30
0.0
 10
40.094273
 20
108.972505
 30
0.0
 10
40.215349
 20
108.967541
 30
0.0
 10
40.336258
 20
108.962585
 30
0.0
 10
40.457379
 20
108.957622
 30
0.0
 10
40.578402
 20
108.952661
 30
0.0
 10
40.685455
 20
108.944498
 30
0.0
 10
40.792296
 20
108.936352
 30
0.0
 10
40.899331
 20
108.928190
 30
0.0
 10
41.006302
 20
108.920032
 30
0.0
 10
41.113768
 20
108.911838
 30
0.0
 10
41.208007
 20
108.900988
 30
0.0
 10
41.302064
 20
108.890158
 30
0.0
 10
41.396287
 20
108.879310
 30
0.0
 10
41.490455
 20
108.868468
 30
0.0
 10
41.585059
 20
108.857575
 30
0.0
 10
41.667210
 20
108.844452
 30
0.0
 10
41.749617
 20
108.831286
 30
0.0
 10
41.831654
 20
108.818181
 30
0.0
 10
41.913598
 20
108.805092
 30
0.0
 10
41.995886
 20
108.791948
 30
0.0
 10
42.066876
 20
108.776758
 30
0.0
 10
42.138089
 20
108.761521
 30
0.0
 10
42.208981
 20
108.746352
 30
0.0
 10
42.279794
 20
108.731199
 30
0.0
 10
42.350904
 20
108.715983
 30
0.0
 10
42.411869
 20
108.699346
 30
0.0
 10
42.473030
 20
108.682656
 30
0.0
 10
42.533911
 20
108.666043
 30
0.0
 10
42.594725
 20
108.649448
 30
0.0
 10
42.655794
 20
108.632782
 30
0.0
 10
42.707565
 20
108.615113
 30
0.0
 10
42.759497
 20
108.597386
 30
0.0
 10
42.811197
 20
108.579741
 30
0.0
 10
42.862835
 20
108.562115
 30
0.0
 10
42.914694
 20
108.544414
 30
0.0
 10
42.958197
 20
108.526020
 30
0.0
 10
43.001837
 20
108.507568
 30
0.0
 10
43.045279
 20
108.489201
 30
0.0
 10
43.088673
 20
108.470855
 30
0.0
 10
43.132250
 20
108.452432
 30
0.0
 10
43.168416
 20
108.433728
 30
0.0
 10
43.204698
 20
108.414967
 30
0.0
 10
43.240814
 20
108.396290
 30
0.0
 10
43.276890
 20
108.377634
 30
0.0
 10
43.313117
 20
108.358899
 30
0.0
 10
43.342877
 20
108.340402
 30
0.0
 10
43.372426
 20
108.322037
 30
0.0
 10
43.402458
 20
108.303371
 30
0.0
 10
43.432139
 20
108.284924
 30
0.0
 10
43.461945
 20
108.266400
 30
0.0
 10
43.506172
 20
108.231371
 30
0.0
 10
43.550538
 20
108.196230
 30
0.0
 10
43.594705
 20
108.161248
 30
0.0
 10
43.638819
 20
108.126307
 30
0.0
 10
43.683121
 20
108.091217
 30
0.0
 10
43.713087
 20
108.061768
 30
0.0
 10
43.743149
 20
108.032225
 30
0.0
 10
43.773074
 20
108.002815
 30
0.0
 10
43.802966
 20
107.973439
 30
0.0
 10
43.832983
 20
107.943940
 30
0.0
 10
43.842297
 20
107.928670
 30
0.0
 10
43.851425
 20
107.913700
 30
0.0
 10
43.860526
 20
107.898762
 30
0.0
 10
43.869734
 20
107.883665
 30
0.0
 10
43.878994
 20
107.868491
 30
0.0
 10
43.884207
 20
107.851238
 30
0.0
 10
43.889339
 20
107.834317
 30
0.0
 10
43.894446
 20
107.817434
 30
0.0
 10
43.899605
 20
107.800371
 30
0.0
 10
43.904791
 20
107.783224
 30
0.0
 10
43.906379
 20
107.763877
 30
0.0
 10
43.907966
 20
107.744907
 30
0.0
 10
43.909554
 20
107.725978
 30
0.0
 10
43.911141
 20
107.706849
 30
0.0
 10
43.912729
 20
107.687624
 30
0.0
 10
43.910612
 20
107.666397
 30
0.0
 10
43.908760
 20
107.645580
 30
0.0
 10
43.906908
 20
107.624810
 30
0.0
 10
43.905056
 20
107.603818
 30
0.0
 10
43.903204
 20
107.582722
 30
0.0
 10
43.890186
 20
107.536119
 30
0.0
 10
43.877116
 20
107.489369
 30
0.0
 10
43.864125
 20
107.442830
 30
0.0
 10
43.851134
 20
107.396344
 30
0.0
 10
43.838090
 20
107.349662
 30
0.0
 10
43.814833
 20
107.297478
 30
0.0
 10
43.791497
 20
107.245131
 30
0.0
 10
43.768293
 20
107.193019
 30
0.0
 10
43.745089
 20
107.140967
 30
0.0
 10
43.721805
 20
107.088696
 30
0.0
 10
43.690598
 20
107.032172
 30
0.0
 10
43.659295
 20
106.975471
 30
0.0
 10
43.628130
 20
106.919025
 30
0.0
 10
43.597001
 20
106.862644
 30
0.0
 10
43.565743
 20
106.806026
 30
0.0
 10
43.528956
 20
106.746403
 30
0.0
 10
43.492054
 20
106.686591
 30
0.0
 10
43.455320
 20
106.627050
 30
0.0
 10
43.418625
 20
106.567577
 30
0.0
 10
43.381776
 20
106.507853
 30
0.0
 10
43.300660
 20
106.383853
 30
0.0
 10
43.219494
 20
106.259780
 30
0.0
 10
43.138439
 20
106.135875
 30
0.0
 10
43.057246
 20
106.011757
 30
0.0
 10
42.976114
 20
105.887736
 30
0.0
 10
42.821632
 20
105.647280
 30
0.0
 10
42.667057
 20
105.406681
 30
0.0
 10
42.512694
 20
105.166409
 30
0.0
 10
42.358061
 20
104.925723
 30
0.0
 10
42.203552
 20
104.685225
 30
0.0
 10
42.149924
 20
104.603282
 30
0.0
 10
42.096398
 20
104.521500
 30
0.0
 10
42.042778
 20
104.439570
 30
0.0
 10
41.989189
 20
104.357690
 30
0.0
 10
41.935352
 20
104.275431
 30
0.0
 10
41.906420
 20
104.237508
 30
0.0
 10
41.877395
 20
104.199465
 30
0.0
 10
41.848502
 20
104.161594
 30
0.0
 10
41.819642
 20
104.123766
 30
0.0
 10
41.790659
 20
104.085778
 30
0.0
 10
41.775075
 20
104.075843
 30
0.0
 10
41.759809
 20
104.066101
 30
0.0
 10
41.744569
 20
104.056380
 30
0.0
 10
41.729170
 20
104.046556
 30
0.0
 10
41.713692
 20
104.036685
 30
0.0
 10
41.692975
 20
104.029470
 30
0.0
 10
41.672681
 20
104.022395
 30
0.0
 10
41.652414
 20
104.015336
 30
0.0
 10
41.631936
 20
104.008200
 30
0.0
 10
41.611351
 20
104.001030
 30
0.0
 10
41.556894
 20
103.994002
 30
0.0
 10
41.502266
 20
103.986954
 30
0.0
 10
41.447884
 20
103.979937
 30
0.0
 10
41.393565
 20
103.972928
 30
0.0
 10
41.339015
 20
103.965890
 30
0.0
 10
41.269679
 20
103.966208
 30
0.0
 10
41.200125
 20
103.966525
 30
0.0
 10
41.130884
 20
103.966843
 30
0.0
 10
41.061722
 20
103.967160
 30
0.0
 10
40.992268
 20
103.967478
 30
0.0
 10
40.911978
 20
103.972439
 30
0.0
 10
40.831436
 20
103.977416
 30
0.0
 10
40.751257
 20
103.982369
 30
0.0
 10
40.671167
 20
103.987316
 30
0.0
 10
40.590742
 20
103.992285
 30
0.0
 10
40.412595
 20
104.005924
 30
0.0
 10
40.234343
 20
104.019572
 30
0.0
 10
40.056334
 20
104.033200
 30
0.0
 10
39.878018
 20
104.046853
 30
0.0
 10
39.699840
 20
104.060495
 30
0.0
 10
39.609836
 20
104.063905
 30
0.0
 10
39.519550
 20
104.067326
 30
0.0
 10
39.429671
 20
104.070731
 30
0.0
 10
39.339893
 20
104.074134
 30
0.0
 10
39.249738
 20
104.077550
 30
0.0
 10
39.164074
 20
104.075380
 30
0.0
 10
39.078143
 20
104.073211
 30
0.0
 10
38.992595
 20
104.071041
 30
0.0
 10
38.907148
 20
104.068871
 30
0.0
 10
38.821341
 20
104.066702
 30
0.0
 10
38.735677
 20
104.064109
 30
0.0
 10
38.649745
 20
104.061516
 30
0.0
 10
38.564198
 20
104.058923
 30
0.0
 10
38.478751
 20
104.056357
 30
0.0
 10
38.392944
 20
104.053764
 30
0.0
 10
38.311621
 20
104.047668
 30
0.0
 10
38.230040
 20
104.041551
 30
0.0
 10
38.148828
 20
104.035462
 30
0.0
 10
38.067710
 20
104.029382
 30
0.0
 10
37.986250
 20
104.023276
 30
0.0
 10
37.837760
 20
104.009327
 30
0.0
 10
37.689184
 20
103.995368
 30
0.0
 10
37.540808
 20
103.981429
 30
0.0
 10
37.392176
 20
103.967467
 30
0.0
 10
37.243660
 20
103.953516
 30
0.0
 10
37.176905
 20
103.949796
 30
0.0
 10
37.109942
 20
103.946065
 30
0.0
 10
37.043280
 20
103.942350
 30
0.0
 10
36.976695
 20
103.938641
 30
0.0
 10
36.909830
 20
103.934916
 30
0.0
 10
36.848552
 20
103.936265
 30
0.0
 10
36.787084
 20
103.937614
 30
0.0
 10
36.725891
 20
103.938964
 30
0.0
 10
36.664770
 20
103.940313
 30
0.0
 10
36.603389
 20
103.941662
 30
0.0
 10
36.547589
 20
103.950134
 30
0.0
 10
36.491613
 20
103.958635
 30
0.0
 10
36.435889
 20
103.967097
 30
0.0
 10
36.380229
 20
103.975550
 30
0.0
 10
36.324336
 20
103.984038
 30
0.0
 10
36.298592
 20
103.991685
 30
0.0
 10
36.273033
 20
103.999275
 30
0.0
 10
36.247474
 20
104.006866
 30
0.0
 10
36.221625
 20
104.014547
 30
0.0
 10
36.195616
 20
104.022276
 30
0.0
 10
36.171327
 20
104.032401
 30
0.0
 10
36.147224
 20
104.042455
 30
0.0
 10
36.123120
 20
104.052510
 30
0.0
 10
36.098726
 20
104.062683
 30
0.0
 10
36.074199
 20
104.072917
 30
0.0
 10
36.027182
 20
104.110117
 30
0.0
 10
35.980018
 20
104.147434
 30
0.0
 10
35.933065
 20
104.184583
 30
0.0
 10
35.886165
 20
104.221689
 30
0.0
 10
35.839069
 20
104.258952
 30
0.0
 10
35.784406
 20
104.312272
 30
0.0
 10
35.729571
 20
104.365760
 30
0.0
 10
35.674982
 20
104.419007
 30
0.0
 10
35.620457
 20
104.472192
 30
0.0
 10
35.565701
 20
104.525602
 30
0.0
 10
35.504839
 20
104.591529
 30
0.0
 10
35.443784
 20
104.657664
 30
0.0
 10
35.383004
 20
104.723500
 30
0.0
 10
35.322293
 20
104.789260
 30
0.0
 10
35.261327
 20
104.855298
 30
0.0
 10
35.195917
 20
104.930421
 30
0.0
 10
35.130636
 20
105.005396
 30
0.0
 10
35.065237
 20
105.080507
 30
0.0
 10
34.999877
 20
105.155573
 30
0.0
 10
34.934215
 20
105.230986
 30
0.0
 10
34.795438
 20
105.394665
 30
0.0
 10
34.656580
 20
105.558442
 30
0.0
 10
34.517912
 20
105.721996
 30
0.0
 10
34.379003
 20
105.885832
 30
0.0
 10
34.240202
 20
106.049540
 30
0.0
 10
34.100910
 20
106.208260
 30
0.0
 10
33.961533
 20
106.367074
 30
0.0
 10
33.822346
 20
106.525671
 30
0.0
 10
33.682921
 20
106.684543
 30
0.0
 10
33.543602
 20
106.843290
 30
0.0
 10
33.527806
 20
106.877700
 30
0.0
 10
33.511958
 20
106.912219
 30
0.0
 10
33.496162
 20
106.946581
 30
0.0
 10
33.480393
 20
106.980905
 30
0.0
 10
33.464571
 20
107.015373
 30
0.0
 10
33.456925
 20
107.042136
 30
0.0
 10
33.449331
 20
107.068709
 30
0.0
 10
33.441605
 20
107.095720
 30
0.0
 10
33.433985
 20
107.122412
 30
0.0
 10
33.426339
 20
107.149215
 30
0.0
 10
33.420862
 20
107.179078
 30
0.0
 10
33.415411
 20
107.208729
 30
0.0
 10
33.409882
 20
107.238868
 30
0.0
 10
33.404431
 20
107.268652
 30
0.0
 10
33.398954
 20
107.298560
 30
0.0
 10
33.397102
 20
107.328836
 30
0.0
 10
33.395250
 20
107.358898
 30
0.0
 10
33.393398
 20
107.389454
 30
0.0
 10
33.391546
 20
107.419650
 30
0.0
 10
33.389694
 20
107.449972
 30
0.0
 10
33.392895
 20
107.478285
 30
0.0
 10
33.396070
 20
107.506397
 30
0.0
 10
33.399298
 20
107.534972
 30
0.0
 10
33.402500
 20
107.563209
 30
0.0
 10
33.405701
 20
107.591565
 30
0.0
 10
33.415411
 20
107.615229
 30
0.0
 10
33.425069
 20
107.638724
 30
0.0
 10
33.434726
 20
107.662219
 30
0.0
 10
33.444489
 20
107.685992
 30
0.0
 10
33.454305
 20
107.709905
 30
0.0
 10
33.462137
 20
107.719422
 30
0.0
 10
33.469836
 20
107.728754
 30
0.0
 10
33.477509
 20
107.738065
 30
0.0
 10
33.485420
 20
107.747669
 30
0.0
 10
33.493040
 20
107.756930
 30
0.0
 10
33.503068
 20
107.764251
 30
0.0
 10
33.512910
 20
107.771429
 30
0.0
 10
33.522726
 20
107.778591
 30
0.0
 10
33.532860
 20
107.785981
 30
0.0
 10
33.542623
 20
107.793106
 30
0.0
 10
33.697518
 20
107.853866
 30
0.0
 10
33.852506
 20
107.914662
 30
0.0
 10
34.007284
 20
107.975375
 30
0.0
 10
34.162328
 20
108.036193
 30
0.0
 10
34.317252
 20
108.096964
 30
0.0
 10
34.457163
 20
108.148630
 30
0.0
 10
34.597160
 20
108.200327
 30
0.0
 10
34.736965
 20
108.251954
 30
0.0
 10
34.877012
 20
108.303670
 30
0.0
 10
35.016950
 20
108.355346
 30
0.0
 10
35.151075
 20
108.399572
 30
0.0
 10
35.285283
 20
108.443825
 30
0.0
 10
35.419307
 20
108.488018
 30
0.0
 10
35.553562
 20
108.532287
 30
0.0
 10
35.687711
 20
108.576521
 30
0.0
 10
35.865442
 20
108.608038
 30
0.0
 10
36.043282
 20
108.639573
 30
0.0
 10
36.220878
 20
108.671065
 30
0.0
 10
36.398782
 20
108.702612
 30
0.0
 10
36.576545
 20
108.734134
 30
0.0
 10
36.719970
 20
108.753975
 30
0.0
 10
36.863483
 20
108.773827
 30
0.0
 10
37.006799
 20
108.793652
 30
0.0
 10
37.150362
 20
108.813512
 30
0.0
 10
37.293814
 20
108.833355
 30
0.0
 10
37.542432
 20
108.861049
 30
0.0
 10
37.791202
 20
108.888758
 30
0.0
 10
38.039630
 20
108.916430
 30
0.0
 10
38.288486
 20
108.944150
 30
0.0
 10
38.537149
 20
108.971848
 30
0.0
 10
38.688642
 20
108.974441
 30
0.0
 10
38.840224
 20
108.977034
 30
0.0
 10
38.991603
 20
108.979601
 30
0.0
 10
39.143241
 20
108.982194
 30
0.0
 10
39.294760
 20
108.984787
 30
0.0
  0
LWPOLYLINE
  5
102
100
AcDbEntity
  8
Edge.Cuts
 62
1
100
AcDbPolyline
 90
69
 70
1
 10
28.816916
 20
74.896852
 30
0.0
 10
28.800142
 20
75.193632
 30
0.0
 10
28.786410
 20
75.623845
 30
0.0
 10
28.777123
 20
76.129837
 30
0.0
 10
28.773710
 20
76.653952
 30
0.0
 10
28.773710
 20
77.800694
 30
0.0
 10
28.805743
 20
77.888760
 30
0.0
 10
28.827862
 20
77.934620
 30
0.0
 10
28.855138
 20
77.980592
 30
0.0
 10
28.888409
 20
78.025844
 30
0.0
 10
28.928504
 20
78.069547
 30
0.0
 10
28.976253
 20
78.110875
 30
0.0
 10
29.032485
 20
78.148994
 30
0.0
 10
29.195455
 20
78.246398
 30
0.0
 10
29.374520
 20
78.343574
 30
0.0
 10
29.568711
 20
78.440755
 30
0.0
 10
29.777052
 20
78.538175
 30
0.0
 10
29.998577
 20
78.636060
 30
0.0
 10
30.232315
 20
78.734652
 30
0.0
 10
30.732547
 20
78.934862
 30
0.0
 10
30.885175
 20
79.008659
 30
0.0
 10
30.959044
 20
79.044346
 30
0.0
 10
31.034307
 20
79.075496
 30
0.0
 10
31.113240
 20
79.099308
 30
0.0
 10
31.198111
 20
79.112987
 30
0.0
 10
31.291191
 20
79.113781
 30
0.0
 10
31.394752
 20
79.098806
 30
0.0
 10
31.427139
 20
79.056163
 30
0.0
 10
31.454428
 20
79.012813
 30
0.0
 10
31.476971
 20
78.968924
 30
0.0
 10
31.495148
 20
78.924665
 30
0.0
 10
31.519780
 20
78.835707
 30
0.0
 10
31.531210
 20
78.747283
 30
0.0
 10
31.532269
 20
78.660738
 30
0.0
 10
31.525919
 20
78.577412
 30
0.0
 10
31.502397
 20
78.425801
 30
0.0
 10
31.492475
 20
78.113034
 30
0.0
 10
31.472605
 20
77.673463
 30
0.0
 10
31.463636
 20
77.418011
 30
0.0
 10
31.457815
 20
77.145122
 30
0.0
 10
31.457021
 20
76.859547
 30
0.0
 10
31.463160
 20
76.566042
 30
0.0
 10
31.509411
 20
75.227713
 30
0.0
 10
31.486340
 20
75.166203
 30
0.0
 10
31.449774
 20
75.109582
 30
0.0
 10
31.426994
 20
75.084817
 30
0.0
 10
31.401514
 20
75.063360
 30
0.0
 10
31.373577
 20
75.045871
 30
0.0
 10
31.343399
 20
75.033038
 30
0.0
 10
31.223360
 20
74.994846
 30
0.0
 10
30.997025
 20
74.916537
 30
0.0
 10
30.694085
 20
74.811992
 30
0.0
 10
30.344226
 20
74.695083
 30
0.0
 10
29.977135
 20
74.579683
 30
0.0
 10
29.622501
 20
74.479665
 30
0.0
 10
29.459134
 20
74.439760
 30
0.0
 10
29.310012
 20
74.408902
 30
0.0
 10
29.178848
 20
74.388820
 30
0.0
 10
29.069352
 20
74.381253
 30
0.0
 10
29.001492
 20
74.385486
 30
0.0
 10
28.973491
 20
74.391757
 30
0.0
 10
28.949017
 20
74.401282
 30
0.0
 10
28.927771
 20
74.414405
 30
0.0
 10
28.909436
 20
74.431471
 30
0.0
 10
28.893693
 20
74.452823
 30
0.0
 10
28.880226
 20
74.478831
 30
0.0
 10
28.858874
 20
74.546239
 30
0.0
 10
28.842866
 20
74.636499
 30
0.0
 10
28.816884
 20
74.896855
 30
0.0
  0
LWPOLYLINE
  5
103
100
AcDbEntity
  8
Edge.Cuts
 62
1
100
AcDbPolyline
 90
94
 70
1
 10
36.570647
 20
78.041946
 30
0.0
 10
36.573028
 20
78.179098
 30
0.0
 10
36.571176
 20
78.327386
 30
0.0
 10
36.558952
 20
78.647085
 30
0.0
 10
36.541675
 20
78.980489
 30
0.0
 10
36.526938
 20
79.307041
 30
0.0
 10
36.522334
 20
79.606184
 30
0.0
 10
36.526197
 20
79.739055
 30
0.0
 10
36.535431
 20
79.857366
 30
0.0
 10
36.550988
 20
79.958548
 30
0.0
 10
36.573822
 20
80.040032
 30
0.0
 10
36.588268
 20
80.072583
 30
0.0
 10
36.604884
 20
80.099245
 30
0.0
 10
36.623802
 20
80.119698
 30
0.0
 10
36.645127
 20
80.133615
 30
0.0
 10
36.679618
 20
80.168712
 30
0.0
 10
36.714797
 20
80.195445
 30
0.0
 10
36.750855
 20
80.214681
 30
0.0
 10
36.787986
 20
80.227328
 30
0.0
 10
36.826380
 20
80.234233
 30
0.0
 10
36.866226
 20
80.236350
 30
0.0
 10
36.951052
 20
80.229471
 30
0.0
 10
37.022693
 20
80.236191
 30
0.0
 10
37.132267
 20
80.241298
 30
0.0
 10
37.447042
 20
80.250188
 30
0.0
 10
37.859020
 20
80.263205
 30
0.0
 10
38.331846
 20
80.287388
 30
0.0
 10
38.606560
 20
80.302496
 30
0.0
 10
38.903706
 20
80.313661
 30
0.0
 10
39.543698
 20
80.324906
 30
0.0
 10
40.208655
 20
80.322525
 30
0.0
 10
40.855397
 20
80.307946
 30
0.0
 10
41.440750
 20
80.282546
 30
0.0
 10
41.696915
 20
80.266221
 30
0.0
 10
41.921543
 20
80.247727
 30
0.0
 10
42.109236
 20
80.227248
 30
0.0
 10
42.254598
 20
80.204917
 30
0.0
 10
42.352232
 20
80.180946
 30
0.0
 10
42.381466
 20
80.168405
 30
0.0
 10
42.396732
 20
80.155520
 30
0.0
 10
42.415041
 20
80.137713
 30
0.0
 10
42.432239
 20
80.106693
 30
0.0
 10
42.448352
 20
80.063159
 30
0.0
 10
42.463434
 20
80.007819
 30
0.0
 10
42.490665
 20
79.864528
 30
0.0
 10
42.514213
 20
79.682450
 30
0.0
 10
42.534400
 20
79.467219
 30
0.0
 10
42.551545
 20
79.224469
 30
0.0
 10
42.577845
 20
78.678936
 30
0.0
 10
42.595545
 20
78.090905
 30
0.0
 10
42.607108
 20
77.505435
 30
0.0
 10
42.621554
 20
76.522412
 30
0.0
 10
42.626819
 20
76.454520
 30
0.0
 10
42.633804
 20
76.297233
 30
0.0
 10
42.633831
 20
76.206809
 30
0.0
 10
42.629359
 20
76.120132
 30
0.0
 10
42.618723
 20
76.045892
 30
0.0
 10
42.610574
 20
76.016158
 30
0.0
 10
42.600282
 20
75.992796
 30
0.0
 10
42.589936
 20
75.975280
 30
0.0
 10
42.569219
 20
75.959829
 30
0.0
 10
42.538631
 20
75.946335
 30
0.0
 10
42.498676
 20
75.934693
 30
0.0
 10
42.392703
 20
75.916543
 30
0.0
 10
42.255357
 20
75.904637
 30
0.0
 10
42.090699
 20
75.898154
 30
0.0
 10
41.902790
 20
75.896302
 30
0.0
 10
41.473461
 20
75.903446
 30
0.0
 10
40.999851
 20
75.919718
 30
0.0
 10
40.514444
 20
75.938794
 30
0.0
 10
40.049725
 20
75.954378
 30
0.0
 10
39.638176
 20
75.960146
 30
0.0
 10
39.229458
 20
75.953505
 30
0.0
 10
38.771340
 20
75.939138
 30
0.0
 10
37.825460
 20
75.905777
 30
0.0
 10
37.396983
 20
75.896040
 30
0.0
 10
37.037666
 20
75.897099
 30
0.0
 10
36.893206
 20
75.903131
 30
0.0
 10
36.777149
 20
75.913609
 30
0.0
 10
36.693205
 20
75.929113
 30
0.0
 10
36.664434
 20
75.938929
 30
0.0
 10
36.645066
 20
75.950227
 30
0.0
 10
36.629112
 20
75.959752
 30
0.0
 10
36.614851
 20
75.976447
 30
0.0
 10
36.602177
 20
75.999969
 30
0.0
 10
36.591038
 20
76.029962
 30
0.0
 10
36.572994
 20
76.107919
 30
0.0
 10
36.560082
 20
76.207450
 30
0.0
 10
36.551642
 20
76.325692
 30
0.0
 10
36.547038
 20
76.459780
 30
0.0
 10
36.546779
 20
76.764030
 30
0.0
 10
36.564030
 20
77.436632
 30
0.0
 10
36.571253
 20
77.759149
 30
0.0
 10
36.570724
 20
78.041922
 30
0.0
  0
LWPOLYLINE
  5
104
100
AcDbEntity
  8
Edge.Cuts
 62
1
100
AcDbPolyline
 90
74
 70
0
 10
50.006519
 20
74.721272
 30
0.0
 10
49.738647
 20
74.802430
 30
0.0
 10
49.452416
 20
74.879866
 30
0.0
 10
49.161041
 20
74.951473
 30
0.0
 10
48.877730
 20
75.015139
 30
0.0
 10
48.615697
 20
75.068760
 30
0.0
 10
48.388158
 20
75.110225
 30
0.0
 10
48.208324
 20
75.137424
 30
0.0
 10
48.089407
 20
75.148246
 30
0.0
 10
48.047724
 20
75.149833
 30
0.0
 10
48.003335
 20
75.154781
 30
0.0
 10
47.957139
 20
75.166846
 30
0.0
 10
47.910030
 20
75.189653
 30
0.0
 10
47.898176
 20
75.217474
 30
0.0
 10
47.888096
 20
75.269975
 30
0.0
 10
47.872618
 20
75.438848
 30
0.0
 10
47.862325
 20
75.675963
 30
0.0
 10
47.855949
 20
75.960998
 30
0.0
 10
47.849731
 20
76.593569
 30
0.0
 10
47.843699
 20
77.174028
 30
0.0
 10
47.825204
 20
77.931035
 30
0.0
 10
47.812107
 20
78.533986
 30
0.0
 10
47.812901
 20
78.769542
 30
0.0
 10
47.821527
 20
78.956812
 30
0.0
 10
47.829438
 20
79.031318
 30
0.0
 10
47.840100
 20
79.092530
 30
0.0
 10
47.853779
 20
79.140041
 30
0.0
 10
47.870766
 20
79.173442
 30
0.0
 10
47.890001
 20
79.188841
 30
0.0
 10
47.916353
 20
79.199292
 30
0.0
 10
47.949381
 20
79.205033
 30
0.0
 10
47.988682
 20
79.206356
 30
0.0
 10
48.084443
 20
79.196567
 30
0.0
 10
48.200296
 20
79.171934
 30
0.0
 10
48.332919
 20
79.134440
 30
0.0
 10
48.478974
 20
79.086066
 30
0.0
 10
48.635136
 20
79.028794
 30
0.0
 10
48.798072
 20
78.964604
 30
0.0
 10
49.130942
 20
78.823406
 30
0.0
 10
49.450942
 20
78.678332
 30
0.0
 10
49.731427
 20
78.545242
 30
0.0
 10
49.945750
 20
78.439998
 30
0.0
 10
50.107953
 20
78.368783
 30
0.0
 10
50.283390
 20
78.295028
 30
0.0
 10
50.362680
 20
78.256669
 30
0.0
 10
50.429212
 20
78.217039
 30
0.0
 10
50.477626
 20
78.175931
 30
0.0
 10
50.493368
 20
78.154764
 30
0.0
 10
50.502576
 20
78.133148
 30
0.0
 10
50.525145
 20
78.004555
 30
0.0
 10
50.533850
 20
77.888485
 30
0.0
 10
50.535437
 20
77.665992
 30
0.0
 10
50.554461
 20
77.005224
 30
0.0
 10
50.572373
 20
76.543653
 30
0.0
 10
50.597429
 20
76.063866
 30
0.0
 10
50.646639
 20
75.258577
 30
0.0
 10
50.660635
 20
74.994809
 30
0.0
 10
50.667329
 20
74.805925
 30
0.0
 10
50.666536
 20
74.678653
 30
0.0
 10
50.658201
 20
74.599720
 30
0.0
 10
50.651137
 20
74.574240
 30
0.0
 10
50.642115
 20
74.555852
 30
0.0
 10
50.631134
 20
74.542914
 30
0.0
 10
50.618143
 20
74.533759
 30
0.0
 10
50.599040
 20
74.520186
 30
0.0
 10
50.577265
 20
74.512248
 30
0.0
 10
50.552844
 20
74.509470
 30
0.0
 10
50.525804
 20
74.511322
 30
0.0
 10
50.463963
 20
74.527171
 30
0.0
 10
50.391943
 20
74.555870
 30
0.0
 10
50.218215
 20
74.636245
 30
0.0
 10
50.116917
 20
74.680140
 30
0.0
 10
50.006278
 20
74.721311
 30
0.0
 10
50.006278
 20
74.721311
 30
0.0
  0
ENDSEC
  0
SECTION
  2
OBJECTS
  0
DICTIONARY
  5
C
330
0
100
AcDbDictionary
  3
ACAD_GROUP
350
D
  3
ACAD_MLINESTYLE
350
17
  0
DICTIONARY
  5
D
330
C
100
AcDbDictionary
  0
DICTIONARY
  5
1A
330
C
100
AcDbDictionary
  0
DICTIONARY
  5
17
330
C
100
AcDbDictionary
  3
STANDARD
350
18
  0
DICTIONARY
  5
19
330
C
100
AcDbDictionary
  0
ENDSEC
  0
EOF
