<?xml version="1.0" encoding="UTF-8" standalone="no"?>
<!-- Created with Inkscape (http://www.inkscape.org/) -->

<svg
   xmlns:dc="http://purl.org/dc/elements/1.1/"
   xmlns:cc="http://creativecommons.org/ns#"
   xmlns:rdf="http://www.w3.org/1999/02/22-rdf-syntax-ns#"
   xmlns:svg="http://www.w3.org/2000/svg"
   xmlns="http://www.w3.org/2000/svg"
   xmlns:sodipodi="http://sodipodi.sourceforge.net/DTD/sodipodi-0.dtd"
   xmlns:inkscape="http://www.inkscape.org/namespaces/inkscape"
   width="210mm"
   height="297mm"
   viewBox="0 0 210 297"
   version="1.1"
   id="svg936"
   inkscape:version="0.92.3 (2405546, 2018-03-11)"
   sodipodi:docname="rote exterior.svg">
  <defs
     id="defs930" />
  <sodipodi:namedview
     id="base"
     pagecolor="#ffffff"
     bordercolor="#666666"
     borderopacity="1.0"
     inkscape:pageopacity="0.0"
     inkscape:pageshadow="2"
     inkscape:zoom="1.2304687"
     inkscape:cx="213.21557"
     inkscape:cy="400.5274"
     inkscape:document-units="mm"
     inkscape:current-layer="layer1"
     showgrid="false"
     inkscape:window-width="1863"
     inkscape:window-height="1025"
     inkscape:window-x="57"
     inkscape:window-y="27"
     inkscape:window-maximized="1" />
  <metadata
     id="metadata933">
    <rdf:RDF>
      <cc:Work
         rdf:about="">
        <dc:format>image/svg+xml</dc:format>
        <dc:type
           rdf:resource="http://purl.org/dc/dcmitype/StillImage" />
        <dc:title></dc:title>
      </cc:Work>
    </rdf:RDF>
  </metadata>
  <g
     inkscape:label="Capa 1"
     inkscape:groupmode="layer"
     id="layer1">
    <path
       style="display:inline;opacity:1;fill:none;fill-opacity:1;stroke:#fd0000;stroke-width:0.099;stroke-linecap:round;stroke-linejoin:round;stroke-miterlimit:4;stroke-dasharray:none;stroke-dashoffset:0;stroke-opacity:1;paint-order:fill markers stroke"
       d="m 103.94172,111.71454 -0.10354,0.002 -0.10334,0.002 -0.10352,0.002 -0.10346,0.002 -0.10394,0.002 -0.10416,0.007 -0.10395,0.007 -0.10414,0.007 -0.10409,0.007 -0.10456,0.007 -0.18403,0.0219 -0.18415,0.0219 -0.18389,0.0219 -0.18422,0.0219 -0.18406,0.0219 -0.16854,0.0303 -0.16864,0.0303 -0.1684,0.0303 -0.1687,0.0303 -0.16857,0.0303 -0.15376,0.0378 -0.15385,0.0378 -0.15364,0.0378 -0.15391,0.0378 -0.15378,0.0378 -0.13971,0.0444 -0.13979,0.0445 -0.139598,0.0444 -0.139838,0.0445 -0.139731,0.0444 -0.126376,0.0503 -0.126452,0.0504 -0.126278,0.0503 -0.126497,0.0504 -0.1264,0.0503 -0.113874,0.0554 -0.11394,0.0554 -0.113787,0.0553 -0.113982,0.0554 -0.113893,0.0554 -0.101989,0.0595 -0.101787,0.0594 -0.101974,0.0595 -0.102176,0.0596 -0.102119,0.0596 -0.09103,0.0628 -0.09086,0.0627 -0.09102,0.0628 -0.09097,0.0628 -0.09139,0.0631 -0.0806,0.0654 -0.08044,0.0653 -0.08059,0.0654 -0.08054,0.0654 -0.08091,0.0657 -0.07099,0.0672 -0.07085,0.067 -0.07098,0.0672 -0.07094,0.0671 -0.07126,0.0674 -0.06221,0.0679 -0.06208,0.0678 -0.06219,0.0679 -0.06216,0.0678 -0.06245,0.0681 -0.05415,0.0681 -0.05432,0.0683 -0.05407,0.068 -0.05401,0.0679 -0.05424,0.0682 -0.04681,0.0672 -0.04696,0.0674 -0.04675,0.0671 -0.04669,0.067 -0.04689,0.0673 -0.04009,0.0655 -0.04022,0.0657 -0.04004,0.0654 -0.03999,0.0653 -0.04016,0.0656 -0.03431,0.0631 -0.03442,0.0633 -0.03426,0.0631 -0.03422,0.063 -0.03436,0.0632 -0.02914,0.0598 -0.02923,0.06 -0.0291,0.0597 -0.02907,0.0597 -0.02919,0.0599 -0.02315,0.0515 -0.02323,0.0516 -0.02312,0.0514 -0.0231,0.0513 -0.02318,0.0515 -0.01685,0.0501 -0.01691,0.0503 -0.01683,0.0501 -0.0168,0.05 -0.01688,0.0502 -0.01177,0.0483 -0.01183,0.0484 -0.01177,0.0482 -0.01175,0.0481 -0.0118,0.0483 -0.0081,0.0461 -0.0081,0.0462 -0.008,0.046 -0.008,0.046 -0.0081,0.0462 -0.0097,0.0835 -0.0097,0.0838 -0.0097,0.0834 -0.0097,0.0833 -0.0097,0.0836 -0.0093,0.0692 -0.0093,0.0694 -0.0093,0.0691 -0.0093,0.0691 -0.0093,0.0694 -0.0075,0.0283 -0.0075,0.0281 -0.0076,0.0286 -0.0075,0.0282 -0.0076,0.0284 -0.01117,0.0234 -0.01109,0.0233 -0.01109,0.0233 -0.01122,0.0236 -0.01127,0.0237 -0.0159,0.0182 -0.0158,0.0181 -0.0158,0.0181 -0.01598,0.0183 -0.01609,0.0184 -0.02201,0.0125 -0.02185,0.0124 -0.02185,0.0124 -0.02212,0.0126 -0.02225,0.0126 -0.02924,0.007 -0.02904,0.006 -0.02951,0.007 -0.02916,0.006 -0.02929,0.007 -0.03782,-1.1e-4 -0.03794,-10e-5 -0.03777,-1.1e-4 -0.03773,-1e-4 -0.03788,-1.1e-4 -0.04753,-0.007 -0.04768,-0.007 -0.04747,-0.007 -0.04741,-0.007 -0.04762,-0.007 -0.05849,-0.0145 -0.05867,-0.0145 -0.0584,-0.0144 -0.05834,-0.0144 -0.05858,-0.0145 -0.0404,-0.004 -0.04053,-0.004 -0.04035,-0.004 -0.0403,-0.004 -0.04047,-0.004 -0.03937,0.006 -0.03949,0.006 -0.03932,0.006 -0.03927,0.006 -0.03944,0.006 -0.0373,0.014 -0.03742,0.0141 -0.03725,0.014 -0.03721,0.014 -0.03737,0.0141 -0.03389,0.0217 -0.034,0.0218 -0.03385,0.0217 -0.03381,0.0216 -0.03395,0.0217 -0.02935,0.0285 -0.02944,0.0286 -0.02931,0.0285 -0.02927,0.0285 -0.0294,0.0286 -0.02376,0.0348 -0.02384,0.0349 -0.02373,0.0348 -0.02371,0.0347 -0.02381,0.0349 -0.01685,0.0403 -0.01691,0.0404 -0.01683,0.0403 -0.0168,0.0402 -0.01688,0.0404 -0.0089,0.045 -0.0089,0.0451 -0.0089,0.0449 -0.0089,0.0448 -0.0089,0.045 2.12e-4,0.049 2.12e-4,0.0491 2.11e-4,0.0489 2.12e-4,0.0489 2.12e-4,0.0491 0.01064,0.0523 0.01069,0.0525 0.01064,0.0522 0.01061,0.0522 0.01066,0.0524 0.02212,0.0548 0.02217,0.0549 0.02209,0.0547 0.02207,0.0546 0.02215,0.0549 0.03482,0.0564 0.03493,0.0566 0.03478,0.0563 0.03473,0.0563 0.03488,0.0565 0.04867,0.0576 0.04882,0.0577 0.0486,0.0575 0.04855,0.0574 0.04875,0.0577 0.06355,0.0579 0.06375,0.058 0.06346,0.0578 0.06339,0.0577 0.06366,0.058 0.07988,0.0575 0.07972,0.0573 0.07986,0.0574 0.07981,0.0574 0.08018,0.0577 0.09713,0.0562 0.09694,0.0561 0.09712,0.0562 0.09706,0.0562 0.09751,0.0564 0.04763,0.0161 0.04779,0.0162 0.04757,0.0161 0.04752,0.0161 0.04772,0.0162 0.04082,0.006 0.04094,0.006 0.04076,0.006 0.04071,0.006 0.04089,0.006 0.03803,0.002 0.03815,0.002 0.03797,0.002 0.03793,0.002 0.03809,0.002 0.03927,0.003 0.03939,0.003 0.03921,0.003 0.03917,0.003 0.03933,0.003 0.0079,0.004 0.0078,0.003 0.0078,0.003 0.008,0.004 0.0077,0.003 0.0066,0.007 0.0065,0.007 0.0065,0.007 0.0066,0.007 0.0064,0.007 0.0093,0.0225 0.0092,0.0224 0.0092,0.0224 0.0093,0.0226 0.0094,0.0228 0.0052,0.0318 0.0051,0.0316 0.0052,0.0321 0.0052,0.0317 0.0052,0.0319 0.0019,0.0382 0.0019,0.0384 0.0019,0.0382 0.0019,0.0381 0.0019,0.0383 -0.0032,0.0841 -0.0032,0.0844 -0.0032,0.084 -0.0032,0.0839 -0.0032,0.0842 -0.0065,0.0751 -0.0065,0.0754 -0.0065,0.075 -0.0065,0.0749 -0.0065,0.0752 -0.01106,0.1549 -0.01106,0.15498 -0.01106,0.15478 -0.01106,0.15505 -0.01106,0.15492 -0.0013,0.0742 -0.0013,0.0744 -0.0013,0.0741 -0.0013,0.074 -0.0013,0.0743 0.0031,0.0719 0.0031,0.0721 0.0031,0.0718 0.0031,0.0717 0.0031,0.072 0.0085,0.0696 0.0085,0.0699 0.0085,0.0696 0.0084,0.0695 0.0085,0.0698 0.01469,0.0673 0.01471,0.0675 0.01466,0.0672 0.01463,0.0671 0.01468,0.0674 0.02201,0.065 0.02207,0.0652 0.02199,0.0649 0.02196,0.0648 0.02204,0.0651 0.03038,0.0626 0.03048,0.0628 0.03034,0.0625 0.0303,0.0625 0.03043,0.0627 0.03968,0.0602 0.03981,0.0604 0.03962,0.0602 0.03958,0.0601 0.03975,0.0603 0.05012,0.0579 0.05027,0.0581 0.05005,0.0578 0.04999,0.0577 0.0502,0.058 0.06148,0.0553 0.06168,0.0555 0.0614,0.0552 0.06133,0.0551 0.06159,0.0554 0.07399,0.0528 0.07384,0.0527 0.07398,0.0528 0.07393,0.0528 0.07427,0.053 0.08732,0.0503 0.08714,0.0502 0.0873,0.0503 0.08725,0.0503 0.08765,0.0505 0.101783,0.0476 0.101581,0.0475 0.101767,0.0476 0.101706,0.0476 0.102174,0.0478 0.117282,0.0452 0.117353,0.0452 0.117194,0.0451 0.117396,0.0452 0.117303,0.0452 0.133816,0.0425 0.133897,0.0425 0.133713,0.0424 0.133945,0.0425 0.13384,0.0425 0.09951,0.0327 0.09931,0.0326 0.09949,0.0327 0.09943,0.0326 0.09989,0.0328 0.03389,0.0319 0.034,0.032 0.03385,0.0319 0.03381,0.0318 0.03395,0.032 0.01664,0.0213 0.01651,0.0211 0.0168,0.0215 0.01659,0.0212 0.01667,0.0213 0.0071,0.0188 0.007,0.0185 0.007,0.0184 0.007,0.0186 0.0071,0.0187 0.0057,0.30204 0.0057,0.30222 0.0057,0.30212 0.0057,0.3022 0.0057,0.30192 0.01064,0.43669 0.01064,0.43694 0.01064,0.4368 0.01066,0.4369 0.01064,0.43652 0.0033,0.23477 0.0033,0.23491 0.0033,0.23459 0.0033,0.235 0.0033,0.23482 -1.06e-4,0.22785 -1.06e-4,0.22798 -1.06e-4,0.22767 -1.06e-4,0.22807 -1.05e-4,0.22789 -0.0051,0.20729 -0.0051,0.20741 -0.0051,0.20712 -0.0051,0.20749 -0.0051,0.20732 -0.01156,0.17319 -0.01159,0.17329 -0.01156,0.17305 -0.01159,0.17335 -0.01159,0.17322 -0.0063,0.0385 -0.0063,0.0387 -0.0063,0.0385 -0.0063,0.0385 -0.0063,0.0386 -0.01074,0.0265 -0.01066,0.0263 -0.01085,0.0267 -0.01072,0.0264 -0.01077,0.0265 -0.01643,0.0174 -0.01633,0.0172 -0.01632,0.0172 -0.01651,0.0174 -0.01659,0.0175 -0.02355,0.0109 -0.02339,0.0108 -0.02339,0.0108 -0.02365,0.0109 -0.02381,0.011 -0.03203,0.007 -0.03181,0.007 -0.03233,0.007 -0.03195,0.007 -0.03208,0.007 -0.04185,0.006 -0.04198,0.006 -0.04179,0.006 -0.04174,0.006 -0.04192,0.006 -0.05301,0.008 -0.05318,0.008 -0.05294,0.009 -0.05288,0.008 -0.0531,0.008 -0.06562,0.0133 -0.06582,0.0134 -0.06553,0.0133 -0.06545,0.0133 -0.06573,0.0134 -0.219067,0.0373 -0.219196,0.0373 -0.218898,0.0373 -0.219276,0.0373 -0.219104,0.0373 -0.217517,0.0427 -0.217644,0.0427 -0.21735,0.0426 -0.217725,0.0427 -0.217554,0.0427 -0.107672,0.0247 -0.107461,0.0246 -0.107656,0.0247 -0.10759,0.0247 -0.108088,0.0248 -0.10664,0.0278 -0.106429,0.0277 -0.106624,0.0278 -0.106558,0.0278 -0.107051,0.0279 -0.105502,0.0312 -0.105297,0.0311 -0.105484,0.0312 -0.105423,0.0312 -0.10591,0.0313 -0.104158,0.0353 -0.103955,0.0353 -0.104143,0.0353 -0.104082,0.0353 -0.10456,0.0355 -0.116353,0.0434 -0.116422,0.0434 -0.116264,0.0434 -0.116464,0.0434 -0.116374,0.0434 -0.116044,0.0465 -0.11611,0.0465 -0.115953,0.0465 -0.116155,0.0465 -0.116062,0.0465 -0.115112,0.0511 -0.115184,0.0511 -0.115025,0.051 -0.115223,0.0511 -0.115134,0.0511 -0.113665,0.0571 -0.113734,0.0572 -0.11358,0.0571 -0.113774,0.0572 -0.113686,0.0571 -0.111701,0.0647 -0.111771,0.0647 -0.111617,0.0646 -0.11181,0.0648 -0.111723,0.0647 -0.109017,0.0737 -0.109082,0.0737 -0.108932,0.0736 -0.109122,0.0738 -0.109035,0.0737 -0.105916,0.0843 -0.105979,0.0844 -0.105835,0.0842 -0.106018,0.0844 -0.105935,0.0843 -0.05156,0.0466 -0.05173,0.0468 -0.05149,0.0465 -0.05143,0.0465 -0.05165,0.0467 -0.05063,0.0497 -0.05079,0.0499 -0.05056,0.0496 -0.05051,0.0496 -0.05072,0.0498 -0.06035,0.0789 -0.06023,0.0788 -0.06034,0.0789 -0.0603,0.0789 -0.06058,0.0793 -0.02346,0.038 -0.02353,0.0382 -0.02342,0.038 -0.0234,0.0379 -0.0235,0.0381 -0.01953,0.0379 -0.01959,0.038 -0.0195,0.0379 -0.01948,0.0378 -0.01956,0.038 -0.01581,0.0383 -0.01586,0.0385 -0.01579,0.0383 -0.01577,0.0382 -0.01584,0.0384 -0.01271,0.0393 -0.01275,0.0394 -0.01269,0.0392 -0.01268,0.0392 -0.01273,0.0393 -0.01695,0.0838 -0.017,0.0841 -0.01692,0.0837 -0.0169,0.0836 -0.01698,0.0839 -0.0085,0.0945 -0.0085,0.0944 -0.0085,0.0945 -0.0085,0.0945 -0.0085,0.0949 -0.0029,0.10984 -0.0029,0.10963 -0.0029,0.10982 -0.0029,0.10976 -0.0029,0.11027 -9.27e-4,0.28396 -9.26e-4,0.28412 -9.26e-4,0.28375 -9.26e-4,0.28423 -9.26e-4,0.28401 0.0027,0.0663 0.0027,0.0666 0.0027,0.0662 0.0027,0.0662 0.0027,0.0665 -0.0038,0.0511 -0.0038,0.0512 -0.0038,0.051 -0.0038,0.0509 -0.0038,0.0511 -0.01726,0.0887 -0.01731,0.0889 -0.01723,0.0885 -0.01721,0.0884 -0.01729,0.0888 -0.0085,0.0538 -0.0085,0.054 -0.0085,0.0538 -0.0085,0.0537 -0.0085,0.0539 -0.0052,0.0711 -0.0052,0.0713 -0.0052,0.071 -0.0052,0.0709 -0.0052,0.0712 5.29e-4,0.0965 5.29e-4,0.0963 5.29e-4,0.0965 5.29e-4,0.0964 5.3e-4,0.0969 0.0089,0.12999 0.0089,0.13007 0.0089,0.1299 0.0089,0.13011 0.0089,0.13002 0.05301,0.3565 0.05304,0.35671 0.05302,0.35659 0.05304,0.35668 0.05299,0.35636 2.06e-4,0.53526 2.06e-4,0.53558 2.07e-4,0.5354 2.06e-4,0.53554 2.07e-4,0.53505 -0.02201,0.20563 -0.02202,0.20576 -0.02199,0.20548 -0.02203,0.20583 -0.02201,0.20566 -0.0095,0.11439 -0.0095,0.11417 -0.0095,0.11437 -0.0095,0.1146 -0.0095,0.11453 -0.0011,0.0486 -0.0011,0.0487 -0.0011,0.0485 -0.0011,0.0485 -0.0011,0.0487 0.0024,0.0384 0.0024,0.0386 0.0024,0.0384 0.0024,0.0383 0.0024,0.0385 0.0096,0.10881 0.0096,0.1086 0.0096,0.10879 0.0096,0.10872 0.0096,0.10923 0.0021,0.11171 0.0021,0.11148 0.0021,0.11168 0.0021,0.11162 0.0021,0.11214 -0.0025,0.22092 -0.0025,0.22106 -0.0025,0.22076 -0.0025,0.22114 -0.0025,0.22096 9.26e-4,0.22175 9.26e-4,0.22189 9.26e-4,0.22158 9.26e-4,0.22196 9.26e-4,0.2218 -0.0013,0.098 -0.0014,0.0978 -0.0013,0.0979 -0.0013,0.0979 -0.0014,0.0983 -0.0038,0.0864 -0.0038,0.0867 -0.0038,0.0863 -0.0038,0.0862 -0.0038,0.0865 -0.0073,0.0723 -0.0074,0.0726 -0.0073,0.0722 -0.0073,0.0721 -0.0074,0.0725 -0.01178,0.056 -0.01182,0.0562 -0.01176,0.0559 -0.01175,0.0559 -0.0118,0.0561 -0.008,0.0213 -0.0079,0.0211 -0.0079,0.0211 -0.008,0.0214 -0.008,0.0215 -0.0096,0.0165 -0.0094,0.0162 -0.0094,0.0162 -0.0095,0.0164 -0.0096,0.0164 -0.01119,0.0112 -0.01097,0.011 -0.01095,0.0109 -0.01107,0.0111 -0.01112,0.0111 -0.01297,0.006 -0.01272,0.006 -0.01269,0.005 -0.01309,0.006 -0.01262,0.005 -0.195403,0.0494 -0.195519,0.0494 -0.195252,0.0494 -0.19559,0.0494 -0.195437,0.0494 -0.184966,0.0433 -0.185076,0.0433 -0.184824,0.0433 -0.185144,0.0433 -0.184998,0.0433 -0.160373,0.0408 -0.160468,0.0408 -0.16025,0.0408 -0.160527,0.0409 -0.160401,0.0408 -0.06634,0.0206 -0.06655,0.0206 -0.06625,0.0205 -0.06617,0.0205 -0.06645,0.0206 -0.05487,0.0214 -0.05504,0.0215 -0.0548,0.0214 -0.05473,0.0213 -0.05496,0.0214 -0.270113,0.11914 -0.270273,0.11921 -0.269905,0.11906 -0.270372,0.11925 -0.27016,0.11917 -0.194472,0.0825 -0.194589,0.0825 -0.194323,0.0824 -0.194659,0.0825 -0.194507,0.0825 -0.238803,0.10064 -0.238944,0.10071 -0.23862,0.10057 -0.239031,0.10074 -0.238845,0.10067 -0.08246,0.0412 -0.0823,0.0412 -0.08245,0.0412 -0.0824,0.0412 -0.08278,0.0414 -0.08308,0.0506 -0.08292,0.0505 -0.08307,0.0506 -0.08302,0.0506 -0.0834,0.0508 -0.102816,0.0714 -0.102877,0.0714 -0.102738,0.0713 -0.102915,0.0715 -0.102834,0.0714 -0.141773,0.10395 -0.141857,0.10401 -0.141664,0.10388 -0.141909,0.10405 -0.141798,0.10397 -0.03276,0.0284 -0.03286,0.0285 -0.03271,0.0284 -0.03267,0.0283 -0.03281,0.0285 -0.02707,0.0319 -0.02716,0.032 -0.02704,0.0319 -0.02701,0.0318 -0.02712,0.032 -0.02201,0.0351 -0.02208,0.0352 -0.02198,0.0351 -0.02196,0.035 -0.02205,0.0352 -0.01767,0.0378 -0.01772,0.0379 -0.01765,0.0378 -0.01763,0.0377 -0.0177,0.0379 -0.01405,0.0401 -0.0141,0.0402 -0.01403,0.04 -0.01402,0.04 -0.01408,0.0402 -0.01126,0.042 -0.0113,0.0421 -0.01125,0.0419 -0.01123,0.0419 -0.01128,0.042 -0.01653,0.0881 -0.01659,0.0884 -0.01651,0.088 -0.01649,0.0879 -0.01656,0.0883 -0.01354,0.0907 -0.01351,0.0906 -0.01353,0.0907 -0.01353,0.0907 -0.01359,0.0911 -0.01612,0.0902 -0.01609,0.09 -0.01612,0.0902 -0.01611,0.0901 -0.01618,0.0906 -0.01085,0.0439 -0.01089,0.0441 -0.01084,0.0439 -0.01082,0.0438 -0.01087,0.044 -0.01364,0.0425 -0.01368,0.0426 -0.01362,0.0424 -0.0136,0.0424 -0.01366,0.0425 -0.01705,0.0407 -0.0171,0.0408 -0.01703,0.0407 -0.01701,0.0406 -0.01708,0.0408 -0.02139,0.0385 -0.02146,0.0387 -0.02136,0.0385 -0.02134,0.0385 -0.02143,0.0386 -0.09,0.10096 -0.09006,0.10101 -0.08993,0.10088 -0.09009,0.10106 -0.09002,0.10097 -0.09424,0.11408 -0.0943,0.11415 -0.09417,0.11399 -0.09433,0.11419 -0.09426,0.1141 -0.218652,0.27848 -0.218783,0.27865 -0.218708,0.27855 -0.218762,0.27862 -0.218568,0.27838 -0.0526,0.0982 -0.05249,0.098 -0.05259,0.0982 -0.05256,0.0981 -0.0528,0.0985 -0.04402,0.0926 -0.04393,0.0924 -0.04401,0.0926 -0.04399,0.0925 -0.04419,0.0929 -0.03637,0.0878 -0.0363,0.0877 -0.03637,0.0878 -0.03634,0.0878 -0.03651,0.0882 -0.02924,0.084 -0.02934,0.0843 -0.0292,0.0839 -0.02917,0.0838 -0.02929,0.0841 -0.02284,0.081 -0.02291,0.0813 -0.0228,0.0809 -0.02278,0.0808 -0.02288,0.0812 -0.01726,0.0788 -0.01731,0.0791 -0.01723,0.0787 -0.01721,0.0786 -0.01729,0.079 -0.0124,0.0776 -0.01244,0.0778 -0.01238,0.0775 -0.01237,0.0774 -0.01242,0.0777 -0.0081,0.0773 -0.0081,0.0775 -0.008,0.0772 -0.008,0.0771 -0.0081,0.0774 -0.0047,0.0778 -0.0047,0.0781 -0.0046,0.0777 -0.0046,0.0776 -0.0047,0.0779 -0.0017,0.0793 -0.0018,0.0795 -0.0017,0.0792 -0.0017,0.0791 -0.0018,0.0794 0.0021,0.16616 0.0021,0.16625 0.0021,0.16604 0.0021,0.16631 0.0021,0.16619 0.0049,0.18239 0.0049,0.18249 0.0049,0.18224 0.0049,0.18256 0.0049,0.18241 0.0019,0.20543 0.0019,0.20555 0.0019,0.20527 0.0019,0.20562 0.0019,0.20546 -0.04392,0.17081 -0.04394,0.17091 -0.04388,0.17068 -0.04396,0.17097 -0.04392,0.17084 -0.03989,0.14477 -0.03991,0.14486 -0.03986,0.14466 -0.03992,0.1449 -0.03989,0.1448 -0.02904,0.12441 -0.02905,0.12449 -0.02901,0.12431 -0.02906,0.12454 -0.02904,0.12443 -0.0081,0.0563 -0.0081,0.0565 -0.008,0.0562 -0.008,0.0562 -0.0081,0.0564 -0.0027,0.0533 -0.0027,0.0535 -0.0027,0.0533 -0.0027,0.0532 -0.0027,0.0534 0.0037,0.0511 0.0037,0.0512 0.0037,0.051 0.0037,0.0509 0.0037,0.0511 0.01085,0.0495 0.01088,0.0497 0.01084,0.0494 0.01082,0.0494 0.01087,0.0496 0.03658,0.0556 0.0367,0.0558 0.03653,0.0555 0.03649,0.0555 0.03664,0.0557 0.03823,0.048 0.03835,0.0482 0.03818,0.048 0.03814,0.0479 0.0383,0.0481 0.0402,0.0419 0.04032,0.042 0.04014,0.0418 0.0401,0.0418 0.04026,0.0419 0.04268,0.0371 0.04281,0.0372 0.04262,0.037 0.04257,0.037 0.04275,0.0372 0.04557,0.0338 0.04571,0.0339 0.04551,0.0337 0.04546,0.0337 0.04565,0.0339 0.04898,0.0319 0.04913,0.032 0.04891,0.0319 0.04886,0.0319 0.04906,0.032 0.109946,0.0638 0.110012,0.0638 0.109862,0.0637 0.110052,0.0638 0.109965,0.0638 0.103643,0.0538 0.103439,0.0537 0.103626,0.0538 0.103833,0.0539 0.103774,0.0539 0.112839,0.0519 0.112907,0.0519 0.112753,0.0518 0.112948,0.0519 0.11286,0.0519 0.120073,0.0497 0.120144,0.0497 0.11998,0.0497 0.120189,0.0497 0.120094,0.0497 0.125343,0.0472 0.125417,0.0473 0.125247,0.0472 0.125463,0.0473 0.125365,0.0472 0.128546,0.0446 0.128623,0.0447 0.128448,0.0446 0.128669,0.0447 0.128569,0.0446 0.129993,0.0418 0.13007,0.0418 0.129893,0.0417 0.130118,0.0418 0.130015,0.0418 0.256059,0.0738 0.256212,0.0738 0.255863,0.0737 0.256304,0.0738 0.256104,0.0738 0.238183,0.0586 0.238324,0.0586 0.238,0.0585 0.238411,0.0586 0.238224,0.0586 0.254613,0.0595 0.254763,0.0596 0.254418,0.0595 0.254856,0.0596 0.254657,0.0595 0.10385,0.0172 0.103645,0.0172 0.103833,0.0172 0.10377,0.0172 0.10425,0.0173 0.124413,0.0191 0.124488,0.0191 0.124317,0.0191 0.124532,0.0191 0.124435,0.0191 0.135676,0.0275 0.135757,0.0275 0.135572,0.0275 0.135807,0.0275 0.1357,0.0275 0.06913,0.0188 0.06935,0.0189 0.06903,0.0188 0.06896,0.0188 0.06925,0.0188 0.06841,0.0234 0.06862,0.0234 0.06831,0.0233 0.06823,0.0233 0.06852,0.0234 0.05156,0.0303 0.05173,0.0304 0.05149,0.0302 0.05143,0.0302 0.05165,0.0303 0.07781,0.0635 0.07766,0.0633 0.0778,0.0634 0.07775,0.0634 0.07811,0.0637 0.05601,0.0555 0.05618,0.0557 0.05593,0.0554 0.05587,0.0553 0.0561,0.0556 0.03958,0.052 0.0397,0.0521 0.03952,0.0519 0.03948,0.0519 0.03964,0.0521 0.02852,0.0529 0.02861,0.0531 0.02848,0.0528 0.02845,0.0528 0.02857,0.053 0.02273,0.0583 0.0228,0.0585 0.0227,0.0582 0.02268,0.0581 0.02277,0.0584 0.02232,0.0681 0.02239,0.0683 0.02229,0.068 0.02226,0.0679 0.02236,0.0682 0.02718,0.0824 0.02726,0.0826 0.02714,0.0822 0.02711,0.0821 0.02722,0.0825 0.03741,0.10086 0.03733,0.10065 0.0374,0.10084 0.03738,0.10077 0.03755,0.10124 -0.0062,0.0287 -0.0062,0.0285 -0.0063,0.029 -0.0062,0.0286 -0.0062,0.0288 -0.01219,0.0239 -0.01211,0.0237 -0.01211,0.0237 -0.01225,0.024 -0.01232,0.0241 -0.01591,0.0206 -0.0158,0.0204 -0.0158,0.0204 -0.01599,0.0207 -0.01608,0.0208 -0.01736,0.0189 -0.01724,0.0188 -0.01724,0.0188 -0.01744,0.019 -0.01754,0.0191 -0.01684,0.0188 -0.01672,0.0187 -0.01672,0.0187 -0.01692,0.0189 -0.01702,0.019 -0.01395,0.0202 -0.01385,0.02 -0.01385,0.02 -0.01401,0.0202 -0.0141,0.0204 -0.0091,0.0231 -0.009,0.023 -0.009,0.023 -0.0091,0.0233 -0.0092,0.0234 -0.0021,0.0276 -0.0021,0.0274 -0.0021,0.0278 -0.0021,0.0275 -0.0021,0.0276 0.01416,0.048 0.0142,0.0482 0.01414,0.048 0.01412,0.0479 0.01418,0.0481 0.01333,0.022 0.01323,0.0219 0.01323,0.0219 0.01339,0.0221 0.01347,0.0222 0.02191,0.0251 0.02175,0.0249 0.02211,0.0254 0.02185,0.0251 0.02194,0.0252 0.03978,0.0574 0.03991,0.0575 0.03973,0.0573 0.03968,0.0572 0.03985,0.0574 -0.0085,0.26753 -0.0085,0.26769 -0.0085,0.26733 -0.0085,0.26778 -0.0085,0.26758 -0.0073,0.35743 -0.0073,0.35764 -0.0073,0.35752 -0.0073,0.3576 -0.0073,0.3573 -0.0096,0.49672 -0.0096,0.49702 -0.0096,0.49684 -0.0096,0.49697 -0.0096,0.49653 3.18e-4,0.16864 3.17e-4,0.16874 3.18e-4,0.16851 3.17e-4,0.1688 3.18e-4,0.16867 -0.0039,0.16844 -0.0039,0.16853 -0.0039,0.1683 -0.0039,0.1686 -0.0039,0.16846 -0.0156,0.32694 -0.01561,0.32714 -0.01561,0.32703 -0.01561,0.32711 -0.0156,0.32682 -0.0031,0.29905 -0.0031,0.29922 -0.0031,0.29912 -0.0031,0.2992 -0.0031,0.29893 -0.0077,0.31929 -0.0078,0.31949 -0.0078,0.31938 -0.0078,0.31946 -0.0077,0.31918 -0.01075,0.40114 -0.01075,0.40137 -0.01075,0.40124 -0.01075,0.40134 -0.01074,0.40099 -0.01075,0.20398 -0.01075,0.2041 -0.01074,0.20382 -0.01076,0.20418 -0.01075,0.20401 -0.01199,0.33273 -0.01199,0.33293 -0.01199,0.33282 -0.01199,0.3329 -0.01198,0.3326 -0.0051,0.10995 -0.0051,0.10973 -0.0051,0.10993 -0.0051,0.10986 -0.0051,0.11037 -0.0027,0.0894 -0.0027,0.0897 -0.0027,0.0893 -0.0027,0.0892 -0.0027,0.0895 -0.0033,0.0375 -0.0033,0.0376 -0.0033,0.0375 -0.0033,0.0374 -0.0033,0.0376 -0.0061,0.0331 -0.0061,0.0328 -0.0062,0.0334 -0.0061,0.033 -0.0061,0.0331 -0.01002,0.0287 -0.01,0.0285 -0.01012,0.029 -0.01,0.0286 -0.01004,0.0288 -0.01498,0.0248 -0.01488,0.0246 -0.01512,0.025 -0.01494,0.0247 -0.01501,0.0248 -0.02108,0.021 -0.02093,0.0208 -0.02127,0.0212 -0.02102,0.0209 -0.02111,0.021 -0.02831,0.0174 -0.02811,0.0172 -0.02857,0.0175 -0.02824,0.0173 -0.02835,0.0174 -0.03668,0.0139 -0.0368,0.014 -0.03663,0.0139 -0.03659,0.0139 -0.03675,0.014 -0.04609,0.0109 -0.04623,0.0109 -0.04602,0.0108 -0.04597,0.0108 -0.04617,0.0109 -0.05673,0.008 -0.05691,0.008 -0.05665,0.008 -0.05659,0.008 -0.05682,0.008 -0.0683,0.005 -0.06852,0.005 -0.06821,0.005 -0.06813,0.005 -0.06842,0.005 -0.176183,0.003 -0.176288,0.003 -0.176047,0.003 -0.176352,0.003 -0.176214,0.003 -0.811784,-0.006 -0.811746,-0.006 -0.812112,-0.006 -0.811843,-0.006 -0.812216,-0.006 -0.120796,-0.004 -0.120868,-0.004 -0.120704,-0.004 -0.120912,-0.004 -0.120817,-0.004 -0.121313,0.003 -0.121385,0.003 -0.12122,0.003 -0.121429,0.003 -0.121334,0.003 -0.122243,0.0118 -0.122316,0.0118 -0.122149,0.0118 -0.12236,0.0118 -0.122265,0.0118 -0.123172,0.0228 -0.123247,0.0229 -0.123078,0.0228 -0.123291,0.0229 -0.123195,0.0228 -0.0526,0.0177 -0.05276,0.0177 -0.05252,0.0177 -0.05246,0.0176 -0.05268,0.0177 -0.05105,0.0207 -0.05121,0.0207 -0.05098,0.0206 -0.05092,0.0206 -0.05113,0.0207 -0.04939,0.0241 -0.04955,0.0242 -0.04932,0.0241 -0.04927,0.024 -0.04948,0.0241 -0.04774,0.0276 -0.04789,0.0277 -0.04767,0.0275 -0.04762,0.0275 -0.04782,0.0276 -0.04598,0.0313 -0.04613,0.0314 -0.04592,0.0313 -0.04587,0.0312 -0.04606,0.0314 -0.04433,0.0352 -0.04447,0.0353 -0.04427,0.0352 -0.04422,0.0352 -0.0444,0.0353 -0.04268,0.0395 -0.04281,0.0396 -0.04262,0.0394 -0.04257,0.0394 -0.04275,0.0395 -0.04082,0.0438 -0.04095,0.0439 -0.04076,0.0437 -0.04071,0.0437 -0.04089,0.0439 -0.03906,0.0485 -0.03918,0.0486 -0.03901,0.0484 -0.03896,0.0483 -0.03913,0.0485 -0.0372,0.0534 -0.03732,0.0536 -0.03715,0.0533 -0.03711,0.0533 -0.03726,0.0535 -0.02676,0.0442 -0.02685,0.0444 -0.02673,0.0442 -0.0267,0.0441 -0.02681,0.0443 -0.02242,0.0437 -0.0225,0.0438 -0.02239,0.0436 -0.02237,0.0436 -0.02246,0.0438 -0.01829,0.0439 -0.01835,0.0441 -0.01826,0.0439 -0.01824,0.0438 -0.01832,0.044 -0.01457,0.0454 -0.01462,0.0455 -0.01455,0.0453 -0.01453,0.0453 -0.01459,0.0454 -0.01137,0.0477 -0.0114,0.0479 -0.01135,0.0477 -0.01134,0.0476 -0.01139,0.0478 -0.0086,0.0509 -0.0086,0.0511 -0.0086,0.0509 -0.0085,0.0508 -0.0086,0.051 -0.01013,0.11604 -0.01011,0.11581 -0.01013,0.11603 -0.01014,0.11625 -0.01014,0.11619 -0.0036,0.14136 -0.0036,0.14145 -0.0036,0.14125 -0.0036,0.14149 -0.0036,0.14139 -5.29e-4,0.17453 -5.29e-4,0.17463 -5.29e-4,0.1744 -5.29e-4,0.17469 -5.29e-4,0.17456 -6.09e-4,0.21587 -6.08e-4,0.21599 -6.09e-4,0.2157 -6.09e-4,0.21607 -6.08e-4,0.2159 -0.0039,0.26494 -0.0039,0.26511 -0.0039,0.26474 -0.0039,0.2652 -0.0039,0.26499 -6.09e-4,0.16678 -6.08e-4,0.16688 -6.09e-4,0.16665 -6.08e-4,0.16694 -6.09e-4,0.16681 0.0025,0.21307 0.0025,0.2132 0.0025,0.21291 0.0025,0.21328 0.0025,0.21311 0.0027,0.22093 0.0027,0.22105 0.0027,0.22076 0.0027,0.22114 0.0027,0.22096 2.07e-4,0.19013 2.06e-4,0.19025 2.06e-4,0.18999 2.07e-4,0.19031 2.06e-4,0.19017 -0.0036,0.20036 -0.0036,0.20048 -0.0036,0.20021 -0.0036,0.20055 -0.0036,0.2004 1.06e-4,0.0995 1.05e-4,0.0993 1.06e-4,0.0995 1.06e-4,0.0994 1.06e-4,0.0999 0.0037,0.0984 0.0037,0.0982 0.0037,0.0984 0.0037,0.0983 0.0037,0.0988 0.0093,0.0969 0.0093,0.0967 0.0093,0.0969 0.0093,0.0969 0.0093,0.0973 0.01674,0.0948 0.01671,0.0946 0.01674,0.0947 0.01673,0.0947 0.0168,0.0951 0.02604,0.0924 0.02599,0.0922 0.02604,0.0924 0.02602,0.0923 0.02614,0.0927 0.01695,0.0451 0.017,0.0452 0.01692,0.045 0.0169,0.0449 0.01698,0.0451 0.02005,0.0443 0.02011,0.0445 0.02002,0.0443 0.02,0.0442 0.02008,0.0444 0.03968,0.0688 0.03981,0.069 0.03963,0.0687 0.03958,0.0686 0.03975,0.0689 0.04702,0.0609 0.04716,0.0611 0.04695,0.0608 0.0469,0.0607 0.0471,0.061 0.05446,0.0533 0.05463,0.0535 0.05438,0.0533 0.05432,0.0532 0.05455,0.0534 0.0621,0.0463 0.0623,0.0464 0.06202,0.0462 0.06195,0.0462 0.06221,0.0464 0.06985,0.0398 0.07007,0.0399 0.06976,0.0397 0.06968,0.0397 0.06997,0.0399 0.07781,0.0339 0.07805,0.034 0.0777,0.0339 0.07761,0.0338 0.07794,0.034 0.08587,0.0284 0.08614,0.0285 0.08575,0.0284 0.08565,0.0283 0.08601,0.0285 0.09414,0.0235 0.09395,0.0234 0.09412,0.0234 0.09406,0.0234 0.0945,0.0236 0.102506,0.0192 0.102305,0.0192 0.10249,0.0192 0.102427,0.0192 0.102902,0.0193 0.11098,0.0154 0.110761,0.0154 0.110962,0.0154 0.110894,0.0154 0.111408,0.0155 0.119763,0.012 0.119834,0.012 0.119671,0.012 0.119878,0.012 0.119784,0.012 0.128546,0.009 0.128623,0.009 0.128448,0.009 0.128669,0.009 0.128569,0.009 0.284269,0.0124 0.284438,0.0124 0.284051,0.0124 0.284542,0.0124 0.284319,0.0124 0.321365,0.008 0.321557,0.008 0.321447,0.008 0.321527,0.008 0.321241,0.008 2.979855,0.0516 2.980088,0.0516 2.979771,0.0516 2.979658,0.0516 2.979978,0.0516 0.408263,0.004 0.40852,0.004 0.40837,0.004 0.40847,0.004 0.40811,0.004 0.51161,-2.2e-4 0.5119,-2.1e-4 0.51173,-2.1e-4 0.51186,-2.1e-4 0.5114,-2.1e-4 1.24165,-0.008 1.24199,-0.008 1.24206,-0.008 1.24201,-0.008 1.24173,-0.008 1.38198,-0.011 1.38181,-0.0109 1.3818,-0.011 1.38169,-0.011 1.38135,-0.0109 0.68623,-0.004 0.68664,-0.004 0.68641,-0.004 0.68613,-0.004 0.68642,-0.004 0.35081,-0.005 0.35103,-0.005 0.3509,-0.005 0.35099,-0.005 0.35068,-0.005 0.31806,-0.002 0.31825,-0.002 0.31814,-0.002 0.31822,-0.002 0.31793,-0.002 0.54343,-0.002 0.54375,-0.002 0.54357,-0.002 0.5437,-0.002 0.54322,-0.002 0.22836,-0.003 0.22851,-0.003 0.22819,-0.003 0.22858,-0.003 0.22841,-0.003 0.20129,-0.007 0.20141,-0.007 0.20114,-0.007 0.20148,-0.007 0.20133,-0.007 0.17567,-0.0127 0.17577,-0.0127 0.17553,-0.0127 0.17584,-0.0127 0.17569,-0.0127 0.15159,-0.0197 0.15168,-0.0197 0.15147,-0.0197 0.15174,-0.0198 0.15161,-0.0197 0.0672,-0.0131 0.0674,-0.0132 0.0671,-0.0131 0.067,-0.0131 0.0673,-0.0131 0.0616,-0.0155 0.0618,-0.0156 0.0615,-0.0155 0.0614,-0.0154 0.0617,-0.0155 0.0564,-0.0181 0.0566,-0.0182 0.0563,-0.018 0.0563,-0.0181 0.0565,-0.0181 0.0513,-0.021 0.0514,-0.021 0.0512,-0.021 0.0511,-0.0209 0.0513,-0.021 0.0462,-0.0239 0.0463,-0.0239 0.0461,-0.0238 0.0461,-0.0238 0.0463,-0.0239 0.0415,-0.0272 0.0417,-0.0273 0.0415,-0.0271 0.0414,-0.0271 0.0416,-0.0272 0.0369,-0.0307 0.037,-0.0308 0.0368,-0.0306 0.0368,-0.0306 0.037,-0.0307 0.0324,-0.0342 0.0326,-0.0343 0.0324,-0.0342 0.0324,-0.0341 0.0325,-0.0343 0.0282,-0.0382 0.0283,-0.0383 0.0282,-0.0382 0.0281,-0.0381 0.0283,-0.0383 0.0242,-0.0422 0.0243,-0.0423 0.0242,-0.0421 0.0241,-0.0421 0.0242,-0.0422 0.0204,-0.0465 0.0204,-0.0466 0.0203,-0.0464 0.0203,-0.0464 0.0204,-0.0466 0.0166,-0.0511 0.0167,-0.0512 0.0166,-0.051 0.0166,-0.0509 0.0167,-0.0511 0.013,-0.0556 0.0131,-0.0558 0.013,-0.0555 0.013,-0.0555 0.013,-0.0557 0.01,-0.0607 0.01,-0.0609 0.01,-0.0606 0.01,-0.0605 0.01,-0.0607 0.007,-0.0657 0.007,-0.0659 0.007,-0.0656 0.007,-0.0656 0.007,-0.0658 0.004,-0.071 0.004,-0.0712 0.004,-0.0709 0.004,-0.0708 0.004,-0.0711 -0.004,-0.223 -0.004,-0.22312 -0.004,-0.22282 -0.004,-0.22321 -0.004,-0.22303 -0.009,-0.42211 -0.009,-0.42237 -0.009,-0.42222 -0.009,-0.42233 -0.009,-0.42195 -0.008,-0.62568 -0.008,-0.62606 -0.008,-0.62584 -0.008,-0.62558 -0.008,-0.62585 -0.001,-0.3906 -0.001,-0.39083 -0.001,-0.39069 -0.001,-0.3908 -0.001,-0.39045 0.002,-0.44319 0.002,-0.44347 0.002,-0.44331 0.002,-0.44342 0.002,-0.44302 -0.0182,-0.13278 -0.0182,-0.13286 -0.0182,-0.13268 -0.0182,-0.13292 -0.0182,-0.1328 -0.0104,-0.071 -0.0105,-0.0712 -0.0104,-0.0709 -0.0104,-0.0708 -0.0104,-0.0711 -0.0131,-0.0717 -0.0132,-0.0719 -0.0131,-0.0716 -0.0131,-0.0715 -0.0131,-0.0718 -0.0175,-0.071 -0.0175,-0.0712 -0.0174,-0.0709 -0.0174,-0.0708 -0.0175,-0.0711 -0.0233,-0.0684 -0.0233,-0.0686 -0.0232,-0.0683 -0.0232,-0.0682 -0.0233,-0.0685 -0.0306,-0.0645 -0.0307,-0.0647 -0.0305,-0.0644 -0.0305,-0.0643 -0.0306,-0.0646 -0.0393,-0.0586 -0.0394,-0.0588 -0.0392,-0.0585 -0.0392,-0.0584 -0.0393,-0.0587 -0.043,-0.0305 -0.0431,-0.0306 -0.0429,-0.0304 -0.0429,-0.0304 -0.0431,-0.0305 -0.098,-0.0492 -0.0978,-0.0491 -0.0979,-0.0492 -0.0979,-0.0491 -0.0983,-0.0494 -0.10312,-0.0404 -0.10293,-0.0403 -0.10311,-0.0404 -0.10304,-0.0404 -0.10353,-0.0406 -0.10757,-0.0326 -0.10736,-0.0325 -0.10755,-0.0325 -0.10749,-0.0325 -0.10798,-0.0327 -0.11108,-0.0255 -0.11087,-0.0255 -0.11106,-0.0255 -0.111,-0.0255 -0.11151,-0.0256 -0.11388,-0.0194 -0.11364,-0.0194 -0.11386,-0.0194 -0.11408,-0.0195 -0.11402,-0.0195 -0.11583,-0.0145 -0.11561,-0.0145 -0.11582,-0.0145 -0.11604,-0.0145 -0.11599,-0.0145 -0.11687,-0.0101 -0.11664,-0.0101 -0.11685,-0.0101 -0.11708,-0.0101 -0.11702,-0.0101 -0.11728,-0.007 -0.11705,-0.007 -0.11727,-0.007 -0.1175,-0.007 -0.11743,-0.007 -0.23198,-0.008 -0.23212,-0.008 -0.2318,-0.008 -0.23221,-0.008 -0.23202,-0.008 -0.2232,-0.006 -0.22333,-0.006 -0.22303,-0.006 -0.22341,-0.006 -0.22324,-0.006 -0.20801,-0.0117 -0.20813,-0.0117 -0.20785,-0.0117 -0.20821,-0.0117 -0.20805,-0.0117 -0.0961,-0.0103 -0.0959,-0.0103 -0.0961,-0.0103 -0.096,-0.0103 -0.0965,-0.0104 -0.0899,-0.0145 -0.0897,-0.0145 -0.0899,-0.0145 -0.0898,-0.0145 -0.0902,-0.0145 -0.016,-0.0101 -0.0157,-0.01 -0.0157,-0.01 -0.0158,-0.01 -0.0159,-0.0101 -0.0149,-0.0147 -0.0147,-0.0145 -0.0146,-0.0144 -0.0148,-0.0146 -0.0149,-0.0147 -0.0267,-0.0415 -0.0267,-0.0417 -0.0266,-0.0415 -0.0266,-0.0414 -0.0267,-0.0416 -0.023,-0.0566 -0.0231,-0.0568 -0.023,-0.0566 -0.023,-0.0565 -0.0231,-0.0567 -0.0201,-0.0696 -0.0201,-0.0699 -0.02,-0.0696 -0.02,-0.0695 -0.0201,-0.0698 -0.0171,-0.0807 -0.0172,-0.081 -0.0171,-0.0806 -0.0171,-0.0805 -0.0172,-0.0808 -0.0146,-0.0898 -0.0145,-0.0896 -0.0146,-0.0898 -0.0145,-0.0897 -0.0146,-0.0901 -0.0233,-0.19892 -0.0233,-0.19903 -0.0232,-0.19876 -0.0233,-0.19911 -0.0233,-0.19895 -0.0173,-0.21132 -0.0173,-0.21144 -0.0172,-0.21115 -0.0173,-0.21152 -0.0173,-0.21135 -0.0142,-0.20781 -0.0142,-0.20792 -0.0142,-0.20765 -0.0142,-0.208 -0.0142,-0.20784 -0.0136,-0.18858 -0.0136,-0.18869 -0.0136,-0.18844 -0.0136,-0.18877 -0.0136,-0.18861 -0.0159,-0.15335 -0.0159,-0.15344 -0.0159,-0.15322 -0.0159,-0.1535 -0.0159,-0.15337 -0.0138,-0.27838 -0.0139,-0.27854 -0.0138,-0.27817 -0.0139,-0.27865 -0.0138,-0.27842 -0.018,-0.27776 -0.018,-0.27793 -0.018,-0.27754 -0.018,-0.27803 -0.018,-0.27781 -0.0431,-0.55706 -0.0431,-0.5574 -0.0431,-0.55721 -0.0431,-0.55735 -0.0431,-0.55685 -0.0434,-0.56368 -0.0434,-0.56402 -0.0434,-0.56382 -0.0434,-0.56397 -0.0434,-0.56346 -0.0184,-0.28623 -0.0184,-0.28641 -0.0184,-0.28601 -0.0184,-0.28651 -0.0184,-0.28628 -0.0145,-0.29016 -0.0145,-0.29033 -0.0144,-0.28994 -0.0145,-0.29043 -0.0145,-0.29021 0.009,-0.055 0.009,-0.0551 0.009,-0.0549 0.009,-0.0548 0.009,-0.0551 0.0129,-0.0466 0.013,-0.0467 0.0129,-0.0465 0.0129,-0.0465 0.0129,-0.0467 0.0286,-0.0734 0.0287,-0.0736 0.0286,-0.0733 0.0286,-0.0732 0.0287,-0.0735 0.0116,-0.0293 0.0115,-0.0291 0.0117,-0.0296 0.0115,-0.0293 0.0116,-0.0294 0.007,-0.0263 0.007,-0.0261 0.007,-0.0265 0.007,-0.0262 0.007,-0.0263 2.1e-4,-0.0245 2.1e-4,-0.0243 2.1e-4,-0.0243 2.1e-4,-0.0246 2.2e-4,-0.0247 -0.009,-0.024 -0.009,-0.0238 -0.009,-0.0238 -0.009,-0.0241 -0.009,-0.0242 -0.0209,-0.0409 -0.0209,-0.0411 -0.0208,-0.0409 -0.0208,-0.0408 -0.0209,-0.041 -0.0175,-0.0429 -0.0175,-0.043 -0.0174,-0.0428 -0.0174,-0.0428 -0.0175,-0.043 -0.0142,-0.0445 -0.0142,-0.0447 -0.0141,-0.0445 -0.0141,-0.0444 -0.0142,-0.0446 -0.0105,-0.0456 -0.0106,-0.0457 -0.0105,-0.0455 -0.0105,-0.0454 -0.0106,-0.0456 -0.007,-0.0464 -0.007,-0.0465 -0.007,-0.0463 -0.007,-0.0463 -0.007,-0.0465 -0.003,-0.0465 -0.003,-0.0466 -0.003,-0.0464 -0.003,-0.0464 -0.003,-0.0466 2.1e-4,-0.0464 2.1e-4,-0.0465 2.1e-4,-0.0463 2.2e-4,-0.0463 2.1e-4,-0.0465 0.004,-0.0457 0.004,-0.0458 0.004,-0.0456 0.004,-0.0456 0.004,-0.0457 0.008,-0.0446 0.008,-0.0448 0.008,-0.0446 0.008,-0.0445 0.008,-0.0447 0.0118,-0.043 0.0118,-0.0431 0.0118,-0.0429 0.0118,-0.0429 0.0118,-0.0431 0.0158,-0.0411 0.0159,-0.0413 0.0158,-0.0411 0.0158,-0.041 0.0159,-0.0412 0.0197,-0.0385 0.0198,-0.0387 0.0197,-0.0385 0.0197,-0.0384 0.0198,-0.0386 0.024,-0.0358 0.0241,-0.0359 0.0239,-0.0357 0.0239,-0.0357 0.024,-0.0358 0.0281,-0.0323 0.0282,-0.0325 0.0281,-0.0323 0.028,-0.0323 0.0281,-0.0324 0.0323,-0.0285 0.0324,-0.0286 0.0323,-0.0285 0.0323,-0.0284 0.0324,-0.0286 0.0368,-0.0244 0.0369,-0.0245 0.0367,-0.0244 0.0367,-0.0243 0.0369,-0.0244 0.0526,-0.0457 0.0528,-0.0458 0.0525,-0.0456 0.0525,-0.0456 0.0527,-0.0457 0.0607,-0.0399 0.0609,-0.04 0.0606,-0.0398 0.0605,-0.0398 0.0608,-0.0399 0.0683,-0.0348 0.0685,-0.0349 0.0682,-0.0348 0.0681,-0.0347 0.0684,-0.0349 0.0752,-0.0305 0.0755,-0.0306 0.0751,-0.0304 0.075,-0.0304 0.0754,-0.0305 0.0817,-0.0268 0.082,-0.0268 0.0816,-0.0267 0.0815,-0.0267 0.0819,-0.0268 0.0875,-0.0239 0.0874,-0.0238 0.0875,-0.0239 0.0875,-0.0238 0.0879,-0.024 0.19023,-0.0415 0.19035,-0.0416 0.19009,-0.0415 0.19042,-0.0416 0.19027,-0.0416 0.42542,-0.0785 0.42568,-0.0786 0.42553,-0.0786 0.42563,-0.0786 0.42526,-0.0785 0.22599,-0.0481 0.22612,-0.0482 0.22582,-0.0481 0.22621,-0.0482 0.22602,-0.0482 0.11439,-0.0287 0.11417,-0.0287 0.11437,-0.0287 0.1146,-0.0288 0.11453,-0.0288 0.1145,-0.0328 0.11426,-0.0327 0.11448,-0.0327 0.1147,-0.0328 0.11464,-0.0328 0.12575,-0.0404 0.12583,-0.0404 0.12566,-0.0404 0.12588,-0.0404 0.12578,-0.0404 0.12524,-0.0456 0.12531,-0.0456 0.12515,-0.0455 0.12536,-0.0456 0.12526,-0.0456 0.12338,-0.0527 0.12345,-0.0527 0.12328,-0.0527 0.1235,-0.0528 0.1234,-0.0527 0.12018,-0.0619 0.12025,-0.0619 0.12008,-0.0618 0.12029,-0.0619 0.1202,-0.0619 0.0586,-0.035 0.0588,-0.0351 0.0585,-0.035 0.0584,-0.0349 0.0587,-0.0351 0.0572,-0.0381 0.0574,-0.0383 0.0572,-0.0381 0.0571,-0.038 0.0573,-0.0382 0.0559,-0.0415 0.0561,-0.0417 0.0558,-0.0415 0.0558,-0.0414 0.056,-0.0416 0.0543,-0.0451 0.0545,-0.0452 0.0543,-0.045 0.0542,-0.0449 0.0545,-0.0451 0.0526,-0.049 0.0528,-0.0491 0.0525,-0.0489 0.0525,-0.0489 0.0527,-0.0491 0.0507,-0.053 0.0509,-0.0532 0.0507,-0.0529 0.0506,-0.0529 0.0508,-0.0531 0.0488,-0.0575 0.0489,-0.0576 0.0487,-0.0574 0.0487,-0.0573 0.0489,-0.0576 0.0465,-0.0621 0.0466,-0.0623 0.0464,-0.062 0.0464,-0.0619 0.0466,-0.0622 0.0142,-0.0251 0.014,-0.0249 0.0143,-0.0254 0.0141,-0.0251 0.0142,-0.0251 0.01,-0.0342 0.01,-0.034 0.01,-0.0345 0.01,-0.0341 0.01,-0.0343 0.006,-0.0425 0.006,-0.0426 0.006,-0.0424 0.006,-0.0424 0.006,-0.0425 0.003,-0.0499 0.003,-0.0501 0.003,-0.0498 0.003,-0.0498 0.003,-0.05 -0.004,-0.11925 -0.004,-0.11901 -0.004,-0.11923 -0.004,-0.11946 -0.004,-0.1194 -0.0142,-0.14012 -0.0142,-0.1402 -0.0142,-0.14001 -0.0142,-0.14026 -0.0142,-0.14014 -0.0217,-0.1549 -0.0217,-0.15498 -0.0217,-0.15478 -0.0217,-0.15505 -0.0217,-0.15492 -0.0267,-0.16347 -0.0267,-0.16357 -0.0266,-0.16335 -0.0267,-0.16363 -0.0267,-0.1635 -0.0575,-0.32839 -0.0575,-0.32859 -0.0575,-0.32847 -0.0575,-0.32856 -0.0574,-0.32827 -0.007,-0.24438 -0.007,-0.24453 -0.007,-0.24419 -0.007,-0.24462 -0.007,-0.24443 -0.006,-0.11118 -0.006,-0.11097 -0.006,-0.11117 -0.006,-0.1111 -0.006,-0.11161 -0.01,-0.1054 -0.01,-0.1052 -0.01,-0.10538 -0.01,-0.10532 -0.01,-0.1058 -0.0142,-0.10044 -0.0141,-0.10024 -0.0142,-0.10043 -0.0142,-0.10036 -0.0142,-0.10083 -0.0195,-0.0966 -0.0195,-0.0964 -0.0195,-0.0966 -0.0195,-0.0965 -0.0196,-0.097 -0.0259,-0.0938 -0.0259,-0.0936 -0.0259,-0.0938 -0.0259,-0.0938 -0.026,-0.0942 -0.0334,-0.0921 -0.0333,-0.0919 -0.0334,-0.0921 -0.0334,-0.092 -0.0335,-0.0924 -0.0418,-0.0914 -0.0418,-0.0912 -0.0418,-0.0913 -0.0418,-0.0913 -0.042,-0.0917 -0.0514,-0.0918 -0.0513,-0.0916 -0.0514,-0.0917 -0.0513,-0.0917 -0.0515,-0.0921 -0.0619,-0.093 -0.0618,-0.0928 -0.0619,-0.093 -0.0618,-0.0929 -0.0621,-0.0934 -0.0734,-0.0955 -0.0734,-0.0955 -0.0733,-0.0954 -0.0734,-0.0956 -0.0734,-0.0955 -0.086,-0.0989 -0.086,-0.099 -0.0859,-0.0988 -0.0861,-0.099 -0.086,-0.0989 -0.0996,-0.10333 -0.0997,-0.1034 -0.0995,-0.10325 -0.0997,-0.10343 -0.0996,-0.10335 -0.11408,-0.10892 -0.11415,-0.10897 -0.11399,-0.10883 -0.11419,-0.10902 -0.1141,-0.10893 -0.12978,-0.11543 -0.12987,-0.11549 -0.12969,-0.11533 -0.12991,-0.11554 -0.12981,-0.11544 -0.0313,-0.0284 -0.0314,-0.0285 -0.0313,-0.0284 -0.0312,-0.0284 -0.0314,-0.0285 -0.0262,-0.0297 -0.0263,-0.0297 -0.0262,-0.0296 -0.0262,-0.0296 -0.0263,-0.0297 -0.0219,-0.0306 -0.022,-0.0307 -0.0219,-0.0305 -0.0219,-0.0305 -0.0219,-0.0306 -0.018,-0.0312 -0.0179,-0.031 -0.0181,-0.0315 -0.0179,-0.0311 -0.018,-0.0312 -0.0267,-0.0633 -0.0267,-0.0635 -0.0266,-0.0633 -0.0266,-0.0632 -0.0267,-0.0635 -0.0182,-0.0626 -0.0183,-0.0628 -0.0181,-0.0625 -0.0181,-0.0625 -0.0182,-0.0627 -0.0142,-0.0595 -0.0142,-0.0597 -0.0141,-0.0594 -0.0141,-0.0594 -0.0142,-0.0596 -0.0149,-0.0543 -0.0149,-0.0545 -0.0149,-0.0543 -0.0148,-0.0542 -0.0149,-0.0544 -0.0201,-0.0468 -0.0201,-0.047 -0.02,-0.0468 -0.02,-0.0467 -0.0201,-0.0469 -0.0133,-0.0198 -0.0132,-0.0197 -0.0132,-0.0197 -0.0134,-0.0199 -0.0135,-0.0201 -0.0165,-0.0171 -0.0164,-0.017 -0.0164,-0.017 -0.0166,-0.0172 -0.0167,-0.0173 -0.10095,-0.0812 -0.10102,-0.0813 -0.10088,-0.0812 -0.10105,-0.0813 -0.10097,-0.0812 -0.10706,-0.0765 -0.10711,-0.0765 -0.10698,-0.0764 -0.10715,-0.0765 -0.10707,-0.0765 -0.11222,-0.072 -0.11229,-0.0721 -0.11213,-0.072 -0.11233,-0.0721 -0.11224,-0.072 -0.11666,-0.0678 -0.11673,-0.0678 -0.11658,-0.0677 -0.11677,-0.0678 -0.11669,-0.0678 -0.12017,-0.0638 -0.12025,-0.0638 -0.12008,-0.0637 -0.1203,-0.0638 -0.12019,-0.0638 -0.12297,-0.0601 -0.12304,-0.0602 -0.12287,-0.0601 -0.12308,-0.0602 -0.12299,-0.0601 -0.12483,-0.0566 -0.1249,-0.0567 -0.12473,-0.0566 -0.12494,-0.0567 -0.12485,-0.0566 -0.12576,-0.0534 -0.12583,-0.0535 -0.12566,-0.0534 -0.12588,-0.0535 -0.12578,-0.0534 -0.2514,-0.0983 -0.25156,-0.0983 -0.25122,-0.0982 -0.25165,-0.0984 -0.25145,-0.0983 -0.24552,-0.0886 -0.24567,-0.0886 -0.24533,-0.0885 -0.24575,-0.0886 -0.24557,-0.0886 -0.4465,-0.15603 -0.44676,-0.15613 -0.44662,-0.15607 -0.44672,-0.15611 -0.44633,-0.15597 -0.0188,-0.009 -0.0185,-0.009 -0.0184,-0.009 -0.0186,-0.009 -0.0187,-0.009 -0.0157,-0.0162 -0.0154,-0.0159 -0.0153,-0.0159 -0.0155,-0.016 -0.0156,-0.0161 -0.0126,-0.0228 -0.0125,-0.0227 -0.0125,-0.0227 -0.0127,-0.0229 -0.0127,-0.0231 -0.01,-0.029 -0.01,-0.0288 -0.0101,-0.0293 -0.01,-0.029 -0.01,-0.0291 -0.008,-0.0352 -0.008,-0.0353 -0.008,-0.0352 -0.008,-0.0352 -0.008,-0.0353 -0.006,-0.0409 -0.006,-0.041 -0.006,-0.0409 -0.006,-0.0408 -0.006,-0.041 -0.008,-0.0981 -0.007,-0.0979 -0.007,-0.0981 -0.008,-0.098 -0.008,-0.0984 -0.007,-0.25296 -0.007,-0.25311 -0.007,-0.25277 -0.007,-0.2532 -0.007,-0.253 -0.004,-0.15025 -0.004,-0.15034 -0.004,-0.15013 -0.004,-0.15039 -0.004,-0.15027 -0.009,-0.16296 -0.009,-0.16305 -0.009,-0.16283 -0.009,-0.16311 -0.009,-0.16298 -0.0369,-0.31073 -0.0369,-0.31091 -0.0369,-0.3108 -0.0369,-0.31087 -0.0369,-0.31061 -0.0248,-0.30669 -0.0248,-0.30687 -0.0248,-0.30677 -0.0248,-0.30685 -0.0248,-0.30657 -0.0152,-0.3191 -0.0152,-0.31928 -0.0152,-0.31917 -0.0152,-0.31925 -0.0152,-0.31897 -0.008,-0.34772 -0.008,-0.34792 -0.008,-0.3478 -0.008,-0.34789 -0.008,-0.34758 0.004,-0.0865 0.004,-0.0868 0.004,-0.0864 0.004,-0.0863 0.004,-0.0866 0.008,-0.0645 0.008,-0.0647 0.008,-0.0644 0.008,-0.0643 0.008,-0.0646 0.0101,-0.0491 0.0102,-0.0492 0.0101,-0.049 0.0101,-0.049 0.0101,-0.0492 0.0109,-0.0405 0.0109,-0.0406 0.0108,-0.0404 0.0108,-0.0404 0.0109,-0.0406 0.01,-0.0385 0.01,-0.0387 0.01,-0.0385 0.01,-0.0384 0.01,-0.0386 0.007,-0.0434 0.007,-0.0435 0.007,-0.0433 0.007,-0.0433 0.007,-0.0435 0.003,-0.055 0.003,-0.0551 0.003,-0.0549 0.003,-0.0548 0.003,-0.0551 -0.004,-0.0733 -0.004,-0.0735 -0.004,-0.0732 -0.004,-0.0731 -0.004,-0.0734 -0.024,-0.0478 -0.0241,-0.048 -0.0239,-0.0478 -0.0239,-0.0477 -0.024,-0.0479 -0.0196,-0.0468 -0.0197,-0.047 -0.0196,-0.0468 -0.0196,-0.0467 -0.0197,-0.0469 -0.0156,-0.046 -0.0157,-0.0461 -0.0156,-0.0459 -0.0156,-0.0459 -0.0156,-0.0461 -0.0121,-0.0452 -0.0121,-0.0453 -0.0121,-0.0451 -0.0121,-0.045 -0.0121,-0.0452 -0.0154,-0.0887 -0.0155,-0.0889 -0.0154,-0.0885 -0.0153,-0.0884 -0.0154,-0.0888 -0.006,-0.0873 -0.006,-0.0876 -0.006,-0.0872 -0.006,-0.0871 -0.006,-0.0875 -0.001,-0.0868 -0.001,-0.0871 -0.001,-0.0867 -0.001,-0.0866 -0.001,-0.087 0.001,-0.0876 0.001,-0.0879 0.001,-0.0875 0.001,-0.0874 0.001,-0.0878 -2.1e-4,-0.0894 -2.2e-4,-0.0897 -2.1e-4,-0.0893 -2.1e-4,-0.0892 -2.1e-4,-0.0895 -0.005,-0.0922 -0.005,-0.092 -0.005,-0.0922 -0.005,-0.0921 -0.005,-0.0925 -0.0176,-0.0673 -0.0176,-0.0675 -0.0175,-0.0672 -0.0175,-0.0671 -0.0176,-0.0674 -0.0238,-0.0646 -0.0238,-0.0648 -0.0237,-0.0645 -0.0237,-0.0644 -0.0238,-0.0647 -0.0298,-0.0618 -0.0298,-0.062 -0.0297,-0.0617 -0.0297,-0.0616 -0.0298,-0.0619 -0.0353,-0.0592 -0.0355,-0.0594 -0.0353,-0.0591 -0.0353,-0.0591 -0.0354,-0.0593 -0.0407,-0.0566 -0.0408,-0.0568 -0.0407,-0.0565 -0.0406,-0.0565 -0.0408,-0.0567 -0.0457,-0.054 -0.0458,-0.0542 -0.0456,-0.054 -0.0456,-0.0539 -0.0457,-0.0541 -0.0505,-0.0517 -0.0507,-0.0518 -0.0505,-0.0516 -0.0504,-0.0515 -0.0506,-0.0517 -0.0549,-0.0492 -0.055,-0.0493 -0.0548,-0.0491 -0.0547,-0.0491 -0.055,-0.0493 -0.059,-0.0469 -0.0592,-0.0471 -0.0589,-0.0469 -0.0589,-0.0468 -0.0591,-0.047 -0.0628,-0.0447 -0.063,-0.0449 -0.0627,-0.0447 -0.0627,-0.0446 -0.0629,-0.0448 -0.0664,-0.0425 -0.0666,-0.0426 -0.0663,-0.0424 -0.0663,-0.0424 -0.0666,-0.0425 -0.0695,-0.0404 -0.0698,-0.0405 -0.0695,-0.0404 -0.0694,-0.0403 -0.0697,-0.0405 -0.0724,-0.0383 -0.0727,-0.0385 -0.0723,-0.0383 -0.0723,-0.0382 -0.0726,-0.0384 -0.0751,-0.0364 -0.0754,-0.0365 -0.075,-0.0363 -0.0749,-0.0363 -0.0752,-0.0364 -0.15676,-0.0671 -0.15685,-0.0671 -0.15663,-0.067 -0.15691,-0.0671 -0.15678,-0.0671 -0.16358,-0.06 -0.16367,-0.0601 -0.16345,-0.06 -0.16374,-0.0601 -0.1636,-0.0601 -0.16802,-0.0534 -0.16812,-0.0534 -0.16789,-0.0534 -0.16818,-0.0535 -0.16805,-0.0534 -0.16988,-0.0474 -0.16998,-0.0475 -0.16975,-0.0474 -0.17004,-0.0475 -0.16991,-0.0474 -0.16936,-0.0419 -0.16947,-0.042 -0.16923,-0.0419 -0.16953,-0.042 -0.16939,-0.042 -0.16647,-0.037 -0.16657,-0.037 -0.16634,-0.037 -0.16663,-0.037 -0.1665,-0.037 -0.16109,-0.0326 -0.1612,-0.0327 -0.16097,-0.0326 -0.16125,-0.0327 -0.16112,-0.0327 -0.29657,-0.0541 -0.29674,-0.0542 -0.29664,-0.0542 -0.29672,-0.0542 -0.29645,-0.0541 -0.0134,-0.005 -0.0131,-0.005 -0.0131,-0.005 -0.0135,-0.005 -0.013,-0.005 -0.0112,-0.009 -0.011,-0.009 -0.0109,-0.009 -0.0113,-0.009 -0.0109,-0.008 -0.009,-0.0126 -0.009,-0.0123 -0.009,-0.0123 -0.009,-0.0124 -0.009,-0.0125 -0.007,-0.0161 -0.007,-0.0158 -0.007,-0.0158 -0.007,-0.0159 -0.007,-0.016 -0.01,-0.0411 -0.01,-0.0413 -0.01,-0.0411 -0.01,-0.041 -0.01,-0.0412 -0.005,-0.0516 -0.005,-0.0517 -0.005,-0.0515 -0.005,-0.0514 -0.005,-0.0516 -5.2e-4,-0.12545 -5.3e-4,-0.12552 -5.3e-4,-0.12535 -5.3e-4,-0.12557 -5.3e-4,-0.12546 0.001,-0.13992 0.001,-0.13999 0.001,-0.13981 0.001,-0.14005 0.001,-0.13993 -0.006,-0.16513 -0.006,-0.16522 -0.006,-0.165 -0.006,-0.16529 -0.006,-0.16515 -0.007,-0.0863 -0.007,-0.0866 -0.007,-0.0862 -0.007,-0.0861 -0.007,-0.0864 -0.003,-0.12369 -0.003,-0.12377 -0.003,-0.12359 -0.003,-0.12381 -0.003,-0.12371 0.005,-0.27724 0.005,-0.27741 0.005,-0.27703 0.005,-0.27751 0.005,-0.27729 0.007,-0.0773 0.007,-0.0775 0.006,-0.0772 0.007,-0.0771 0.007,-0.0774 0.002,-0.078 0.002,-0.0783 0.002,-0.0779 0.002,-0.0778 0.002,-0.0781 -5.3e-4,-0.15624 -5.3e-4,-0.15633 -5.3e-4,-0.15612 -5.3e-4,-0.15639 -5.3e-4,-0.15627 2.1e-4,-0.0772 2.2e-4,-0.0774 2.1e-4,-0.0771 2.1e-4,-0.077 2.1e-4,-0.0773 0.003,-0.0762 0.003,-0.0764 0.003,-0.0761 0.003,-0.076 0.003,-0.0763 0.007,-0.0744 0.007,-0.0746 0.007,-0.0743 0.007,-0.0742 0.007,-0.0745 0.0126,-0.0723 0.0127,-0.0726 0.0126,-0.0722 0.0126,-0.0721 0.0126,-0.0725 0.009,-0.0188 0.009,-0.0185 0.009,-0.0184 0.009,-0.0186 0.009,-0.0187 0.015,-0.0177 0.0149,-0.0175 0.0149,-0.0175 0.0151,-0.0178 0.0151,-0.0179 0.0206,-0.0169 0.0204,-0.0168 0.0204,-0.0168 0.0207,-0.017 0.0208,-0.0171 0.0253,-0.0162 0.0251,-0.0161 0.0256,-0.0164 0.0252,-0.0162 0.0254,-0.0162 0.062,-0.0313 0.0622,-0.0314 0.0619,-0.0313 0.0618,-0.0312 0.0621,-0.0314 0.0721,-0.0304 0.0724,-0.0305 0.072,-0.0303 0.0719,-0.0303 0.0722,-0.0304 0.0761,-0.0307 0.0764,-0.0308 0.076,-0.0306 0.076,-0.0306 0.0763,-0.0307 0.0743,-0.0319 0.0745,-0.032 0.0742,-0.0319 0.0741,-0.0319 0.0744,-0.032 0.0662,-0.0345 0.0665,-0.0346 0.0662,-0.0345 0.0661,-0.0344 0.0663,-0.0346 0.0283,-0.0185 0.0281,-0.0184 0.0286,-0.0187 0.0282,-0.0185 0.0284,-0.0185 0.024,-0.0195 0.0238,-0.0194 0.0242,-0.0197 0.0239,-0.0195 0.024,-0.0196 0.0494,-0.0421 0.0495,-0.0422 0.0493,-0.042 0.0493,-0.0419 0.0495,-0.0421 0.049,-0.0364 0.0491,-0.0365 0.0489,-0.0363 0.0489,-0.0363 0.0491,-0.0364 0.094,-0.0684 0.0939,-0.0683 0.094,-0.0684 0.0942,-0.0685 0.0941,-0.0685 0.0436,-0.0384 0.0438,-0.0386 0.0435,-0.0384 0.0435,-0.0383 0.0437,-0.0385 0.0404,-0.0456 0.0405,-0.0457 0.0404,-0.0455 0.0403,-0.0455 0.0405,-0.0457 0.0366,-0.0558 0.0367,-0.056 0.0365,-0.0557 0.0365,-0.0557 0.0366,-0.0559 0.032,-0.0694 0.0321,-0.0697 0.032,-0.0694 0.032,-0.0693 0.0321,-0.0696 0.0181,-0.0434 0.0182,-0.0435 0.0181,-0.0433 0.018,-0.0433 0.0181,-0.0435 0.0162,-0.0318 0.0161,-0.0316 0.0164,-0.0321 0.0162,-0.0317 0.0162,-0.0319 0.0151,-0.0229 0.015,-0.0228 0.0152,-0.0232 0.0151,-0.0229 0.0151,-0.023 0.0145,-0.0165 0.0143,-0.0162 0.0142,-0.0162 0.0144,-0.0163 0.0144,-0.0164 0.0293,-0.0234 0.0294,-0.0234 0.0293,-0.0233 0.0293,-0.0233 0.0294,-0.0234 0.048,-0.0462 0.0482,-0.0463 0.048,-0.0461 0.0479,-0.0461 0.0481,-0.0463 0.0526,-0.0407 0.0528,-0.0408 0.0525,-0.0407 0.0525,-0.0406 0.0527,-0.0408 0.0702,-0.0566 0.0704,-0.0568 0.0701,-0.0566 0.07,-0.0565 0.0703,-0.0567 0.0675,-0.0553 0.0677,-0.0555 0.0674,-0.0552 0.0673,-0.0551 0.0676,-0.0554 0.059,-0.0552 0.0592,-0.0553 0.0589,-0.0551 0.0588,-0.055 0.0591,-0.0553 0.0245,-0.0279 0.0246,-0.028 0.0245,-0.0279 0.0244,-0.0278 0.0245,-0.028 0.0202,-0.0285 0.02,-0.0283 0.0204,-0.0288 0.0201,-0.0284 0.0202,-0.0286 0.015,-0.029 0.0149,-0.0288 0.0151,-0.0293 0.0149,-0.029 0.015,-0.0291 0.009,-0.03 0.009,-0.0297 0.009,-0.0302 0.009,-0.0299 0.009,-0.03 0.003,-0.0309 0.003,-0.0307 0.003,-0.0312 0.003,-0.0308 0.003,-0.0309 -0.005,-0.032 -0.005,-0.0318 -0.005,-0.0323 -0.005,-0.0319 -0.005,-0.0321 -0.0127,-0.0334 -0.0126,-0.0331 -0.0128,-0.0337 -0.0127,-0.0333 -0.0127,-0.0334 -0.0215,-0.0348 -0.0216,-0.0349 -0.0215,-0.0348 -0.0214,-0.0347 -0.0215,-0.0349 -0.0624,-0.01 -0.0626,-0.01 -0.0623,-0.01 -0.0623,-0.01 -0.0625,-0.01 -0.0581,-0.0123 -0.0583,-0.0123 -0.058,-0.0123 -0.0579,-0.0123 -0.0582,-0.0123 -0.0535,-0.0152 -0.0537,-0.0152 -0.0534,-0.0152 -0.0534,-0.0152 -0.0536,-0.0152 -0.0489,-0.0179 -0.049,-0.0179 -0.0488,-0.0178 -0.0487,-0.0178 -0.049,-0.0179 -0.0443,-0.0206 -0.0445,-0.0206 -0.0443,-0.0205 -0.0442,-0.0205 -0.0444,-0.0206 -0.0396,-0.0235 -0.0397,-0.0235 -0.0395,-0.0234 -0.0395,-0.0234 -0.0396,-0.0235 -0.0347,-0.0261 -0.0348,-0.0262 -0.0347,-0.0261 -0.0346,-0.0261 -0.0348,-0.0262 -0.0299,-0.0289 -0.03,-0.029 -0.0298,-0.0289 -0.0298,-0.0289 -0.0299,-0.029 -0.0249,-0.0317 -0.025,-0.0318 -0.0249,-0.0317 -0.0248,-0.0316 -0.0249,-0.0318 -0.02,-0.0346 -0.02,-0.0347 -0.0199,-0.0346 -0.0199,-0.0345 -0.02,-0.0347 -0.0148,-0.0373 -0.0148,-0.0374 -0.0148,-0.0373 -0.0147,-0.0372 -0.0148,-0.0374 -0.01,-0.0402 -0.01,-0.0403 -0.01,-0.0401 -0.01,-0.0401 -0.01,-0.0403 -0.004,-0.0431 -0.004,-0.0432 -0.004,-0.043 -0.004,-0.043 -0.004,-0.0432 0.001,-0.0459 0.001,-0.046 0.001,-0.0458 0.001,-0.0458 0.001,-0.046 0.006,-0.0487 0.006,-0.0488 0.006,-0.0486 0.006,-0.0486 0.006,-0.0487 0.0118,-0.0517 0.0118,-0.0518 0.0118,-0.0516 0.0117,-0.0515 0.0118,-0.0517 0.0182,-0.077 0.0183,-0.0772 0.0182,-0.0769 0.0181,-0.0768 0.0182,-0.0771 0.0122,-0.0751 0.0122,-0.0754 0.0122,-0.075 0.0122,-0.0749 0.0122,-0.0752 0.007,-0.0732 0.007,-0.0734 0.007,-0.0731 0.007,-0.073 0.007,-0.0733 0.002,-0.0709 0.002,-0.0711 0.002,-0.0708 0.002,-0.0707 0.002,-0.071 -0.003,-0.0685 -0.003,-0.0687 -0.003,-0.0684 -0.003,-0.0683 -0.003,-0.0686 -0.007,-0.0661 -0.007,-0.0663 -0.007,-0.066 -0.007,-0.066 -0.007,-0.0662 -0.0111,-0.0633 -0.0111,-0.0635 -0.011,-0.0633 -0.011,-0.0632 -0.0111,-0.0635 -0.0143,-0.0606 -0.0143,-0.0607 -0.0142,-0.0605 -0.0142,-0.0604 -0.0143,-0.0606 -0.017,-0.0577 -0.0171,-0.0578 -0.017,-0.0576 -0.017,-0.0575 -0.0171,-0.0578 -0.0195,-0.0545 -0.0196,-0.0546 -0.0195,-0.0544 -0.0195,-0.0543 -0.0195,-0.0546 -0.0442,-0.0989 -0.0441,-0.0987 -0.0442,-0.0989 -0.0442,-0.0988 -0.0444,-0.0993 -0.0485,-0.0845 -0.0484,-0.0844 -0.0485,-0.0845 -0.0484,-0.0845 -0.0486,-0.0849 -0.0489,-0.0689 -0.049,-0.0691 -0.0488,-0.0688 -0.0487,-0.0687 -0.049,-0.069 -0.0974,-0.0973 -0.0975,-0.0974 -0.0974,-0.0973 -0.0975,-0.0974 -0.0975,-0.0974 -0.0978,-0.0882 -0.0978,-0.0883 -0.0977,-0.0882 -0.0979,-0.0883 -0.0978,-0.0883 -0.0983,-0.0795 -0.0983,-0.0796 -0.0982,-0.0795 -0.0984,-0.0796 -0.0983,-0.0796 -0.0986,-0.0712 -0.0986,-0.0712 -0.0985,-0.0711 -0.0987,-0.0713 -0.0986,-0.0712 -0.099,-0.063 -0.0988,-0.0629 -0.099,-0.063 -0.0985,-0.0631 -0.0991,-0.0631 -0.0994,-0.0552 -0.0992,-0.0551 -0.0994,-0.0552 -0.0993,-0.0551 -0.0998,-0.0554 -0.0999,-0.0476 -0.0997,-0.0476 -0.0999,-0.0476 -0.0998,-0.0476 -0.10031,-0.0478 -0.10023,-0.0404 -0.10004,-0.0403 -0.10021,-0.0404 -0.10016,-0.0404 -0.10062,-0.0406 -0.10075,-0.0334 -0.10055,-0.0333 -0.10073,-0.0334 -0.10068,-0.0333 -0.1025,-0.0429 -0.10127,-0.0268 -0.10107,-0.0267 -0.10125,-0.0267 -0.10119,-0.0268 -0.10165,-0.0269 -0.10158,-0.0204 -0.10138,-0.0203 -0.10156,-0.0203 -0.1015,-0.0203 -0.10196,-0.0204 -0.1022,-0.0144 -0.102,-0.0143 -0.10217,-0.0144 -0.10212,-0.0143 -0.10259,-0.0144 -0.10261,-0.008 -0.10241,-0.008 -0.10259,-0.008 -0.10253,-0.008 -0.10301,-0.008 -0.10313,-0.003 -0.10292,-0.003 -0.10311,-0.003 -0.10305,-0.003 -0.10352,-0.003 m -0.21446,3.59306 0.13578,0.001 0.13586,0.001 0.13568,0.001 0.13591,0.001 0.1358,0.001 0.121,0.005 0.12108,0.005 0.12091,0.005 0.12112,0.005 0.12102,0.005 0.10706,0.008 0.10684,0.008 0.10703,0.008 0.10697,0.008 0.10747,0.008 0.0942,0.0109 0.0941,0.0108 0.0942,0.0109 0.0942,0.0109 0.0946,0.0109 0.0821,0.0131 0.0824,0.0132 0.082,0.0131 0.0819,0.0131 0.0823,0.0132 0.071,0.0152 0.0712,0.0152 0.0709,0.0152 0.0708,0.0152 0.0711,0.0152 0.061,0.0166 0.0612,0.0167 0.0609,0.0166 0.0608,0.0166 0.0611,0.0167 0.0518,0.0177 0.0519,0.0177 0.0517,0.0176 0.0516,0.0176 0.0519,0.0177 0.0435,0.0184 0.0436,0.0185 0.0434,0.0184 0.0434,0.0183 0.0436,0.0184 0.0362,0.0187 0.0363,0.0188 0.0361,0.0187 0.0361,0.0187 0.0362,0.0187 0.0298,0.0185 0.0296,0.0184 0.03,0.0187 0.0297,0.0185 0.0298,0.0185 0.0442,0.035 0.0444,0.0352 0.0442,0.035 0.0441,0.0349 0.0443,0.0351 0.03,0.0294 0.0301,0.0295 0.0299,0.0294 0.0299,0.0294 0.03,0.0295 0.009,0.0153 0.009,0.015 0.009,0.0149 0.009,0.0151 0.009,0.0152 0.005,0.0173 0.005,0.0169 0.005,0.0169 0.005,0.0171 0.005,0.0172 0.002,0.0194 0.002,0.019 0.002,0.0189 0.002,0.0191 0.002,0.0192 -0.002,0.0212 -0.002,0.0208 -0.002,0.0208 -0.002,0.021 -0.002,0.0211 -0.013,0.0466 -0.0131,0.0468 -0.013,0.0465 -0.013,0.0465 -0.013,0.0467 -0.0233,0.0522 -0.0233,0.0523 -0.0232,0.0521 -0.0232,0.052 -0.0233,0.0523 -0.0312,0.0565 -0.0313,0.0567 -0.0312,0.0564 -0.0311,0.0564 -0.0313,0.0566 -0.0368,0.0596 -0.0369,0.0598 -0.0367,0.0595 -0.0367,0.0595 -0.0369,0.0597 -0.0811,0.124 -0.0812,0.12407 -0.0811,0.12391 -0.0812,0.12412 -0.0811,0.12402 -0.15448,0.24045 -0.15458,0.2406 -0.15436,0.24027 -0.15463,0.24069 -0.15451,0.2405 -0.0536,0.0819 -0.0535,0.0818 -0.0536,0.0819 -0.0536,0.0819 -0.0538,0.0823 -0.0289,0.0379 -0.029,0.038 -0.0289,0.0379 -0.0289,0.0378 -0.029,0.038 -0.0156,0.01 -0.0153,0.01 -0.0152,0.01 -0.0154,0.01 -0.0155,0.01 -0.0207,0.007 -0.0203,0.007 -0.0203,0.007 -0.0205,0.007 -0.0206,0.007 -0.0545,0.007 -0.0546,0.007 -0.0544,0.007 -0.0543,0.007 -0.0546,0.007 -0.0693,-3.1e-4 -0.0695,-3.2e-4 -0.0692,-3.2e-4 -0.0692,-3.2e-4 -0.0695,-3.1e-4 -0.0803,-0.005 -0.0805,-0.005 -0.0802,-0.005 -0.0801,-0.005 -0.0804,-0.005 -0.17815,-0.0136 -0.17825,-0.0136 -0.17801,-0.0136 -0.17832,-0.0136 -0.17818,-0.0136 -0.09,-0.003 -0.0903,-0.003 -0.0899,-0.003 -0.0898,-0.003 -0.0902,-0.003 -0.0857,0.002 -0.0859,0.002 -0.0855,0.002 -0.0854,0.002 -0.0858,0.002 -0.0857,0.003 -0.0859,0.003 -0.0855,0.003 -0.0855,0.003 -0.0858,0.003 -0.0813,0.006 -0.0816,0.006 -0.0812,0.006 -0.0811,0.006 -0.0815,0.006 -0.14849,0.014 -0.14857,0.014 -0.14838,0.0139 -0.14863,0.014 -0.14852,0.0139 -0.0668,0.004 -0.067,0.004 -0.0667,0.004 -0.0666,0.004 -0.0669,0.004 -0.0613,-0.001 -0.0615,-0.001 -0.0612,-0.001 -0.0611,-0.001 -0.0614,-0.001 -0.0558,-0.008 -0.056,-0.009 -0.0557,-0.008 -0.0557,-0.008 -0.0559,-0.008 -0.0257,-0.008 -0.0256,-0.008 -0.0256,-0.008 -0.0259,-0.008 -0.026,-0.008 -0.0243,-0.0101 -0.0241,-0.01 -0.0241,-0.0101 -0.0244,-0.0102 -0.0245,-0.0102 -0.047,-0.0372 -0.0472,-0.0373 -0.047,-0.0371 -0.0469,-0.0371 -0.0471,-0.0373 -0.0547,-0.0533 -0.0548,-0.0535 -0.0546,-0.0532 -0.0545,-0.0532 -0.05476,-0.0534 -0.06086,-0.0659 -0.06105,-0.0661 -0.06078,-0.0658 -0.06071,-0.0658 -0.06096,-0.066 -0.06541,-0.0751 -0.06528,-0.075 -0.0654,-0.0751 -0.06536,-0.0751 -0.06553,-0.0755 -0.138776,-0.16368 -0.138859,-0.16378 -0.138668,-0.16355 -0.138909,-0.16384 -0.1388,-0.1637 -0.139293,-0.15872 -0.139377,-0.15882 -0.139187,-0.1586 -0.139425,-0.15887 -0.139319,-0.15874 -0.0158,-0.0344 -0.01585,-0.0345 -0.0158,-0.0344 -0.01577,-0.0343 -0.01582,-0.0345 -0.0076,-0.0268 -0.0076,-0.0266 -0.0077,-0.027 -0.0076,-0.0267 -0.0076,-0.0268 -0.0055,-0.0299 -0.0054,-0.0297 -0.0055,-0.0301 -0.0055,-0.0298 -0.0055,-0.0299 -0.0019,-0.0303 -0.0019,-0.0301 -0.0019,-0.0306 -0.0019,-0.0302 -0.0019,-0.0303 0.0032,-0.0283 0.0032,-0.0281 0.0032,-0.0286 0.0032,-0.0282 0.0032,-0.0284 0.0097,-0.0237 0.0097,-0.0235 0.0097,-0.0235 0.0098,-0.0238 0.0098,-0.0239 0.0078,-0.01 0.0077,-0.009 0.0077,-0.009 0.0079,-0.01 0.0076,-0.009 0.01003,-0.007 0.0098,-0.007 0.0098,-0.007 0.01013,-0.007 0.0098,-0.007 0.154895,-0.0608 0.154988,-0.0608 0.154779,-0.0607 0.155043,-0.0608 0.154924,-0.0608 0.139912,-0.0517 0.139996,-0.0517 0.139806,-0.0516 0.140046,-0.0517 0.139938,-0.0517 0.134126,-0.0442 0.134207,-0.0443 0.134025,-0.0442 0.134254,-0.0443 0.134149,-0.0442 0.17773,-0.0315 0.17784,-0.0315 0.1776,-0.0315 0.1779,-0.0315 0.17776,-0.0315 0.14343,-0.0198 0.14351,-0.0199 0.14332,-0.0198 0.14356,-0.0199 0.14345,-0.0198 0.24862,-0.0277 0.24877,-0.0277 0.24843,-0.0277 0.24886,-0.0277 0.24866,-0.0277 0.15149,-0.003 0.15158,-0.003 0.15138,-0.003 0.15164,-0.003 0.15152,-0.003"
       id="path842"
       inkscape:connector-curvature="0" />
  </g>
</svg>
