G04 #@! TF.GenerationSoftware,KiCad,Pcbnew,no-vcs-found-1773985~61~ubuntu16.04.1*
G04 #@! TF.CreationDate,2018-02-01T00:18:09+01:00*
G04 #@! TF.ProjectId,ripolab_protroboard_v2,7269706F6C61625F70726F74726F626F,rev?*
G04 #@! TF.SameCoordinates,Original*
G04 #@! TF.FileFunction,Legend,Top*
G04 #@! TF.FilePolarity,Positive*
%FSLAX46Y46*%
G04 Gerber Fmt 4.6, Leading zero omitted, Abs format (unit mm)*
G04 Created by KiCad (PCBNEW no-vcs-found-1773985~61~ubuntu16.04.1) date Thu Feb  1 00:18:09 2018*
%MOMM*%
%LPD*%
G01*
G04 APERTURE LIST*
%ADD10C,0.600000*%
%ADD11C,0.200000*%
%ADD12C,0.300000*%
%ADD13C,0.010000*%
%ADD14C,0.007056*%
%ADD15C,0.014111*%
%ADD16C,0.020000*%
G04 APERTURE END LIST*
D10*
X140000000Y-75000000D02*
X140000000Y-122500000D01*
D11*
X147500000Y-75000000D02*
X147500000Y-122500000D01*
D12*
X142029231Y-67607242D02*
X143172088Y-67607242D01*
X142600660Y-68178671D02*
X142600660Y-67035814D01*
X144529231Y-67607242D02*
X145672088Y-67607242D01*
X142029231Y-129007242D02*
X143172088Y-129007242D01*
X142600660Y-129578671D02*
X142600660Y-128435814D01*
X144529231Y-129007242D02*
X145672088Y-129007242D01*
D13*
G36*
X121723847Y-118473970D02*
X121798203Y-118549145D01*
X121851203Y-118604360D01*
X121885986Y-118643456D01*
X121905691Y-118670266D01*
X121913455Y-118688628D01*
X121912419Y-118702377D01*
X121905721Y-118715349D01*
X121904752Y-118716928D01*
X121886543Y-118744667D01*
X121850033Y-118798819D01*
X121799130Y-118873638D01*
X121737742Y-118963384D01*
X121669774Y-119062313D01*
X121667384Y-119065785D01*
X121601112Y-119163071D01*
X121543366Y-119249834D01*
X121497544Y-119320803D01*
X121467043Y-119370711D01*
X121455259Y-119394285D01*
X121455227Y-119394880D01*
X121463961Y-119420880D01*
X121485381Y-119471073D01*
X121514861Y-119534620D01*
X121515028Y-119534970D01*
X121551594Y-119615580D01*
X121592613Y-119712706D01*
X121629515Y-119806021D01*
X121631202Y-119810496D01*
X121689118Y-119964673D01*
X122084300Y-120039139D01*
X122205223Y-120062290D01*
X122314181Y-120083840D01*
X122404910Y-120102495D01*
X122471143Y-120116959D01*
X122506614Y-120125938D01*
X122509707Y-120127065D01*
X122521484Y-120147591D01*
X122530547Y-120198860D01*
X122537076Y-120283047D01*
X122541252Y-120402322D01*
X122543038Y-120526562D01*
X122543449Y-120647640D01*
X122542760Y-120757063D01*
X122541097Y-120848157D01*
X122538587Y-120914248D01*
X122535358Y-120948665D01*
X122534969Y-120950213D01*
X122523775Y-120964855D01*
X122496187Y-120979455D01*
X122447749Y-120995259D01*
X122374007Y-121013511D01*
X122270510Y-121035454D01*
X122135409Y-121061838D01*
X122016099Y-121084663D01*
X121909235Y-121105278D01*
X121821007Y-121122474D01*
X121757611Y-121135044D01*
X121725238Y-121141778D01*
X121723104Y-121142299D01*
X121705934Y-121162598D01*
X121681386Y-121210876D01*
X121653978Y-121277888D01*
X121645958Y-121300021D01*
X121609587Y-121397982D01*
X121566230Y-121507046D01*
X121526977Y-121599675D01*
X121497266Y-121667848D01*
X121475347Y-121720316D01*
X121464735Y-121748582D01*
X121464333Y-121751177D01*
X121478087Y-121769892D01*
X121509556Y-121814958D01*
X121554621Y-121880318D01*
X121609162Y-121959916D01*
X121669058Y-122047697D01*
X121730189Y-122137606D01*
X121788433Y-122223586D01*
X121839672Y-122299581D01*
X121879785Y-122359537D01*
X121904651Y-122397395D01*
X121910507Y-122406925D01*
X121913919Y-122419404D01*
X121909679Y-122435640D01*
X121894599Y-122459360D01*
X121865494Y-122494288D01*
X121819179Y-122544152D01*
X121752465Y-122612676D01*
X121662168Y-122703586D01*
X121625046Y-122740740D01*
X121323010Y-123042776D01*
X121236161Y-122984560D01*
X121188044Y-122951969D01*
X121116494Y-122903082D01*
X121030202Y-122843855D01*
X120937858Y-122780245D01*
X120912358Y-122762638D01*
X120826413Y-122704673D01*
X120749970Y-122655746D01*
X120689569Y-122619844D01*
X120651742Y-122600955D01*
X120644196Y-122599053D01*
X120612611Y-122607438D01*
X120557254Y-122629533D01*
X120488975Y-122660926D01*
X120474581Y-122668002D01*
X120383850Y-122710387D01*
X120278747Y-122755480D01*
X120181946Y-122793555D01*
X120181488Y-122793723D01*
X120026800Y-122850615D01*
X119875324Y-123645378D01*
X119462012Y-123645722D01*
X119338004Y-123644827D01*
X119226780Y-123642129D01*
X119134437Y-123637930D01*
X119067070Y-123632533D01*
X119030776Y-123626240D01*
X119026770Y-123624137D01*
X119016331Y-123598707D01*
X119000573Y-123541275D01*
X118981023Y-123458308D01*
X118959207Y-123356276D01*
X118937174Y-123244409D01*
X118915040Y-123130643D01*
X118894323Y-123030191D01*
X118876418Y-122949355D01*
X118862719Y-122894433D01*
X118854671Y-122871775D01*
X118829759Y-122859226D01*
X118777951Y-122839997D01*
X118709959Y-122818030D01*
X118702633Y-122815820D01*
X118611682Y-122785626D01*
X118555249Y-122758988D01*
X118529257Y-122733313D01*
X118529635Y-122706008D01*
X118529750Y-122705735D01*
X118539412Y-122682613D01*
X118562274Y-122627650D01*
X118596567Y-122545102D01*
X118640527Y-122439225D01*
X118692383Y-122314277D01*
X118750372Y-122174513D01*
X118806503Y-122039184D01*
X118868629Y-121890022D01*
X118926537Y-121752200D01*
X118978425Y-121629915D01*
X119022489Y-121527366D01*
X119056928Y-121448749D01*
X119079941Y-121398263D01*
X119089422Y-121380315D01*
X119115771Y-121375199D01*
X119168615Y-121377893D01*
X119233289Y-121387278D01*
X119426170Y-121405304D01*
X119608811Y-121387518D01*
X119778110Y-121335043D01*
X119930970Y-121249001D01*
X120064291Y-121130517D01*
X120117011Y-121067013D01*
X120208199Y-120917066D01*
X120264069Y-120759995D01*
X120286712Y-120599993D01*
X120278216Y-120441243D01*
X120240668Y-120287936D01*
X120176158Y-120144261D01*
X120086773Y-120014406D01*
X119974602Y-119902558D01*
X119841732Y-119812908D01*
X119690252Y-119749643D01*
X119522251Y-119716951D01*
X119442105Y-119713331D01*
X119263527Y-119731255D01*
X119100229Y-119782692D01*
X118954971Y-119864141D01*
X118830509Y-119972099D01*
X118729601Y-120103063D01*
X118655004Y-120253534D01*
X118609476Y-120420006D01*
X118595774Y-120598980D01*
X118612722Y-120766711D01*
X118622367Y-120833993D01*
X118624736Y-120885966D01*
X118619661Y-120910602D01*
X118598341Y-120921679D01*
X118545076Y-120945814D01*
X118464065Y-120981204D01*
X118359507Y-121026047D01*
X118235598Y-121078540D01*
X118096538Y-121136885D01*
X117960683Y-121193411D01*
X117811188Y-121255384D01*
X117672674Y-121312832D01*
X117549397Y-121363984D01*
X117445612Y-121407075D01*
X117365574Y-121440339D01*
X117313540Y-121462007D01*
X117294155Y-121470140D01*
X117266886Y-121470828D01*
X117241220Y-121445081D01*
X117214582Y-121388852D01*
X117184401Y-121298103D01*
X117184180Y-121297367D01*
X117162155Y-121228338D01*
X117142472Y-121174417D01*
X117129072Y-121146312D01*
X117128224Y-121145328D01*
X117105144Y-121137164D01*
X117049915Y-121123413D01*
X116968839Y-121105471D01*
X116868214Y-121084731D01*
X116755591Y-121062826D01*
X116641183Y-121040270D01*
X116539521Y-121018490D01*
X116457074Y-120999011D01*
X116400313Y-120983360D01*
X116375863Y-120973230D01*
X116369353Y-120947898D01*
X116363644Y-120889588D01*
X116359038Y-120804394D01*
X116355838Y-120698410D01*
X116354346Y-120577731D01*
X116354277Y-120537846D01*
X116354622Y-120124392D01*
X116742581Y-120050875D01*
X116861218Y-120027798D01*
X116966746Y-120006140D01*
X117053128Y-119987230D01*
X117114327Y-119972403D01*
X117144307Y-119962987D01*
X117146010Y-119961887D01*
X117159156Y-119937899D01*
X117181924Y-119885972D01*
X117210578Y-119814885D01*
X117229074Y-119766606D01*
X117265152Y-119674841D01*
X117303509Y-119584041D01*
X117337744Y-119509147D01*
X117348844Y-119487001D01*
X117377544Y-119426923D01*
X117396505Y-119377288D01*
X117401043Y-119355900D01*
X117390387Y-119329377D01*
X117361059Y-119277556D01*
X117317051Y-119206979D01*
X117262353Y-119124183D01*
X117237362Y-119087642D01*
X117173591Y-118995158D01*
X117112552Y-118906318D01*
X117060203Y-118829811D01*
X117022498Y-118774329D01*
X117015440Y-118763839D01*
X116957224Y-118676990D01*
X117259260Y-118374954D01*
X117358739Y-118275800D01*
X117434550Y-118201327D01*
X117490418Y-118148347D01*
X117530068Y-118113676D01*
X117557226Y-118094128D01*
X117575619Y-118086516D01*
X117588971Y-118087653D01*
X117593075Y-118089493D01*
X117615020Y-118103406D01*
X117662641Y-118135001D01*
X117729884Y-118180159D01*
X117810692Y-118234759D01*
X117899009Y-118294682D01*
X117988781Y-118355805D01*
X118073950Y-118414011D01*
X118148460Y-118465176D01*
X118206257Y-118505183D01*
X118241284Y-118529909D01*
X118248822Y-118535666D01*
X118266761Y-118529772D01*
X118311837Y-118511359D01*
X118375550Y-118483940D01*
X118400325Y-118473023D01*
X118497220Y-118432024D01*
X118606306Y-118388761D01*
X118699978Y-118354041D01*
X118770754Y-118326644D01*
X118825519Y-118300737D01*
X118855037Y-118280853D01*
X118857580Y-118276774D01*
X118863029Y-118250964D01*
X118874546Y-118192958D01*
X118890923Y-118108950D01*
X118910954Y-118005138D01*
X118933432Y-117887720D01*
X118937853Y-117864527D01*
X118964578Y-117727641D01*
X118986383Y-117624860D01*
X119004522Y-117551700D01*
X119020247Y-117503679D01*
X119034812Y-117476315D01*
X119049471Y-117465126D01*
X119049598Y-117465088D01*
X119080233Y-117461771D01*
X119143263Y-117459161D01*
X119232012Y-117457387D01*
X119339802Y-117456577D01*
X119459958Y-117456860D01*
X119473438Y-117456962D01*
X119622820Y-117459360D01*
X119735349Y-117463964D01*
X119813197Y-117470955D01*
X119858536Y-117480512D01*
X119872935Y-117490292D01*
X119880506Y-117518010D01*
X119893853Y-117577894D01*
X119911681Y-117663678D01*
X119932695Y-117769095D01*
X119955600Y-117887881D01*
X119960861Y-117915699D01*
X120035327Y-118310882D01*
X120189504Y-118368798D01*
X120282045Y-118405240D01*
X120379479Y-118446256D01*
X120461482Y-118483275D01*
X120465029Y-118484971D01*
X120528618Y-118514481D01*
X120578910Y-118535956D01*
X120605066Y-118544768D01*
X120605120Y-118544773D01*
X120626342Y-118534646D01*
X120674322Y-118505527D01*
X120743789Y-118460815D01*
X120829474Y-118403905D01*
X120926107Y-118338194D01*
X120934215Y-118332616D01*
X121033356Y-118264492D01*
X121123511Y-118202814D01*
X121198935Y-118151489D01*
X121253887Y-118114424D01*
X121282623Y-118095525D01*
X121283072Y-118095248D01*
X121296198Y-118088109D01*
X121309668Y-118086280D01*
X121327320Y-118092899D01*
X121352989Y-118111106D01*
X121390513Y-118144038D01*
X121443727Y-118194834D01*
X121516467Y-118266633D01*
X121612570Y-118362575D01*
X121624998Y-118375002D01*
X121723847Y-118473970D01*
X121723847Y-118473970D01*
G37*
X121723847Y-118473970D02*
X121798203Y-118549145D01*
X121851203Y-118604360D01*
X121885986Y-118643456D01*
X121905691Y-118670266D01*
X121913455Y-118688628D01*
X121912419Y-118702377D01*
X121905721Y-118715349D01*
X121904752Y-118716928D01*
X121886543Y-118744667D01*
X121850033Y-118798819D01*
X121799130Y-118873638D01*
X121737742Y-118963384D01*
X121669774Y-119062313D01*
X121667384Y-119065785D01*
X121601112Y-119163071D01*
X121543366Y-119249834D01*
X121497544Y-119320803D01*
X121467043Y-119370711D01*
X121455259Y-119394285D01*
X121455227Y-119394880D01*
X121463961Y-119420880D01*
X121485381Y-119471073D01*
X121514861Y-119534620D01*
X121515028Y-119534970D01*
X121551594Y-119615580D01*
X121592613Y-119712706D01*
X121629515Y-119806021D01*
X121631202Y-119810496D01*
X121689118Y-119964673D01*
X122084300Y-120039139D01*
X122205223Y-120062290D01*
X122314181Y-120083840D01*
X122404910Y-120102495D01*
X122471143Y-120116959D01*
X122506614Y-120125938D01*
X122509707Y-120127065D01*
X122521484Y-120147591D01*
X122530547Y-120198860D01*
X122537076Y-120283047D01*
X122541252Y-120402322D01*
X122543038Y-120526562D01*
X122543449Y-120647640D01*
X122542760Y-120757063D01*
X122541097Y-120848157D01*
X122538587Y-120914248D01*
X122535358Y-120948665D01*
X122534969Y-120950213D01*
X122523775Y-120964855D01*
X122496187Y-120979455D01*
X122447749Y-120995259D01*
X122374007Y-121013511D01*
X122270510Y-121035454D01*
X122135409Y-121061838D01*
X122016099Y-121084663D01*
X121909235Y-121105278D01*
X121821007Y-121122474D01*
X121757611Y-121135044D01*
X121725238Y-121141778D01*
X121723104Y-121142299D01*
X121705934Y-121162598D01*
X121681386Y-121210876D01*
X121653978Y-121277888D01*
X121645958Y-121300021D01*
X121609587Y-121397982D01*
X121566230Y-121507046D01*
X121526977Y-121599675D01*
X121497266Y-121667848D01*
X121475347Y-121720316D01*
X121464735Y-121748582D01*
X121464333Y-121751177D01*
X121478087Y-121769892D01*
X121509556Y-121814958D01*
X121554621Y-121880318D01*
X121609162Y-121959916D01*
X121669058Y-122047697D01*
X121730189Y-122137606D01*
X121788433Y-122223586D01*
X121839672Y-122299581D01*
X121879785Y-122359537D01*
X121904651Y-122397395D01*
X121910507Y-122406925D01*
X121913919Y-122419404D01*
X121909679Y-122435640D01*
X121894599Y-122459360D01*
X121865494Y-122494288D01*
X121819179Y-122544152D01*
X121752465Y-122612676D01*
X121662168Y-122703586D01*
X121625046Y-122740740D01*
X121323010Y-123042776D01*
X121236161Y-122984560D01*
X121188044Y-122951969D01*
X121116494Y-122903082D01*
X121030202Y-122843855D01*
X120937858Y-122780245D01*
X120912358Y-122762638D01*
X120826413Y-122704673D01*
X120749970Y-122655746D01*
X120689569Y-122619844D01*
X120651742Y-122600955D01*
X120644196Y-122599053D01*
X120612611Y-122607438D01*
X120557254Y-122629533D01*
X120488975Y-122660926D01*
X120474581Y-122668002D01*
X120383850Y-122710387D01*
X120278747Y-122755480D01*
X120181946Y-122793555D01*
X120181488Y-122793723D01*
X120026800Y-122850615D01*
X119875324Y-123645378D01*
X119462012Y-123645722D01*
X119338004Y-123644827D01*
X119226780Y-123642129D01*
X119134437Y-123637930D01*
X119067070Y-123632533D01*
X119030776Y-123626240D01*
X119026770Y-123624137D01*
X119016331Y-123598707D01*
X119000573Y-123541275D01*
X118981023Y-123458308D01*
X118959207Y-123356276D01*
X118937174Y-123244409D01*
X118915040Y-123130643D01*
X118894323Y-123030191D01*
X118876418Y-122949355D01*
X118862719Y-122894433D01*
X118854671Y-122871775D01*
X118829759Y-122859226D01*
X118777951Y-122839997D01*
X118709959Y-122818030D01*
X118702633Y-122815820D01*
X118611682Y-122785626D01*
X118555249Y-122758988D01*
X118529257Y-122733313D01*
X118529635Y-122706008D01*
X118529750Y-122705735D01*
X118539412Y-122682613D01*
X118562274Y-122627650D01*
X118596567Y-122545102D01*
X118640527Y-122439225D01*
X118692383Y-122314277D01*
X118750372Y-122174513D01*
X118806503Y-122039184D01*
X118868629Y-121890022D01*
X118926537Y-121752200D01*
X118978425Y-121629915D01*
X119022489Y-121527366D01*
X119056928Y-121448749D01*
X119079941Y-121398263D01*
X119089422Y-121380315D01*
X119115771Y-121375199D01*
X119168615Y-121377893D01*
X119233289Y-121387278D01*
X119426170Y-121405304D01*
X119608811Y-121387518D01*
X119778110Y-121335043D01*
X119930970Y-121249001D01*
X120064291Y-121130517D01*
X120117011Y-121067013D01*
X120208199Y-120917066D01*
X120264069Y-120759995D01*
X120286712Y-120599993D01*
X120278216Y-120441243D01*
X120240668Y-120287936D01*
X120176158Y-120144261D01*
X120086773Y-120014406D01*
X119974602Y-119902558D01*
X119841732Y-119812908D01*
X119690252Y-119749643D01*
X119522251Y-119716951D01*
X119442105Y-119713331D01*
X119263527Y-119731255D01*
X119100229Y-119782692D01*
X118954971Y-119864141D01*
X118830509Y-119972099D01*
X118729601Y-120103063D01*
X118655004Y-120253534D01*
X118609476Y-120420006D01*
X118595774Y-120598980D01*
X118612722Y-120766711D01*
X118622367Y-120833993D01*
X118624736Y-120885966D01*
X118619661Y-120910602D01*
X118598341Y-120921679D01*
X118545076Y-120945814D01*
X118464065Y-120981204D01*
X118359507Y-121026047D01*
X118235598Y-121078540D01*
X118096538Y-121136885D01*
X117960683Y-121193411D01*
X117811188Y-121255384D01*
X117672674Y-121312832D01*
X117549397Y-121363984D01*
X117445612Y-121407075D01*
X117365574Y-121440339D01*
X117313540Y-121462007D01*
X117294155Y-121470140D01*
X117266886Y-121470828D01*
X117241220Y-121445081D01*
X117214582Y-121388852D01*
X117184401Y-121298103D01*
X117184180Y-121297367D01*
X117162155Y-121228338D01*
X117142472Y-121174417D01*
X117129072Y-121146312D01*
X117128224Y-121145328D01*
X117105144Y-121137164D01*
X117049915Y-121123413D01*
X116968839Y-121105471D01*
X116868214Y-121084731D01*
X116755591Y-121062826D01*
X116641183Y-121040270D01*
X116539521Y-121018490D01*
X116457074Y-120999011D01*
X116400313Y-120983360D01*
X116375863Y-120973230D01*
X116369353Y-120947898D01*
X116363644Y-120889588D01*
X116359038Y-120804394D01*
X116355838Y-120698410D01*
X116354346Y-120577731D01*
X116354277Y-120537846D01*
X116354622Y-120124392D01*
X116742581Y-120050875D01*
X116861218Y-120027798D01*
X116966746Y-120006140D01*
X117053128Y-119987230D01*
X117114327Y-119972403D01*
X117144307Y-119962987D01*
X117146010Y-119961887D01*
X117159156Y-119937899D01*
X117181924Y-119885972D01*
X117210578Y-119814885D01*
X117229074Y-119766606D01*
X117265152Y-119674841D01*
X117303509Y-119584041D01*
X117337744Y-119509147D01*
X117348844Y-119487001D01*
X117377544Y-119426923D01*
X117396505Y-119377288D01*
X117401043Y-119355900D01*
X117390387Y-119329377D01*
X117361059Y-119277556D01*
X117317051Y-119206979D01*
X117262353Y-119124183D01*
X117237362Y-119087642D01*
X117173591Y-118995158D01*
X117112552Y-118906318D01*
X117060203Y-118829811D01*
X117022498Y-118774329D01*
X117015440Y-118763839D01*
X116957224Y-118676990D01*
X117259260Y-118374954D01*
X117358739Y-118275800D01*
X117434550Y-118201327D01*
X117490418Y-118148347D01*
X117530068Y-118113676D01*
X117557226Y-118094128D01*
X117575619Y-118086516D01*
X117588971Y-118087653D01*
X117593075Y-118089493D01*
X117615020Y-118103406D01*
X117662641Y-118135001D01*
X117729884Y-118180159D01*
X117810692Y-118234759D01*
X117899009Y-118294682D01*
X117988781Y-118355805D01*
X118073950Y-118414011D01*
X118148460Y-118465176D01*
X118206257Y-118505183D01*
X118241284Y-118529909D01*
X118248822Y-118535666D01*
X118266761Y-118529772D01*
X118311837Y-118511359D01*
X118375550Y-118483940D01*
X118400325Y-118473023D01*
X118497220Y-118432024D01*
X118606306Y-118388761D01*
X118699978Y-118354041D01*
X118770754Y-118326644D01*
X118825519Y-118300737D01*
X118855037Y-118280853D01*
X118857580Y-118276774D01*
X118863029Y-118250964D01*
X118874546Y-118192958D01*
X118890923Y-118108950D01*
X118910954Y-118005138D01*
X118933432Y-117887720D01*
X118937853Y-117864527D01*
X118964578Y-117727641D01*
X118986383Y-117624860D01*
X119004522Y-117551700D01*
X119020247Y-117503679D01*
X119034812Y-117476315D01*
X119049471Y-117465126D01*
X119049598Y-117465088D01*
X119080233Y-117461771D01*
X119143263Y-117459161D01*
X119232012Y-117457387D01*
X119339802Y-117456577D01*
X119459958Y-117456860D01*
X119473438Y-117456962D01*
X119622820Y-117459360D01*
X119735349Y-117463964D01*
X119813197Y-117470955D01*
X119858536Y-117480512D01*
X119872935Y-117490292D01*
X119880506Y-117518010D01*
X119893853Y-117577894D01*
X119911681Y-117663678D01*
X119932695Y-117769095D01*
X119955600Y-117887881D01*
X119960861Y-117915699D01*
X120035327Y-118310882D01*
X120189504Y-118368798D01*
X120282045Y-118405240D01*
X120379479Y-118446256D01*
X120461482Y-118483275D01*
X120465029Y-118484971D01*
X120528618Y-118514481D01*
X120578910Y-118535956D01*
X120605066Y-118544768D01*
X120605120Y-118544773D01*
X120626342Y-118534646D01*
X120674322Y-118505527D01*
X120743789Y-118460815D01*
X120829474Y-118403905D01*
X120926107Y-118338194D01*
X120934215Y-118332616D01*
X121033356Y-118264492D01*
X121123511Y-118202814D01*
X121198935Y-118151489D01*
X121253887Y-118114424D01*
X121282623Y-118095525D01*
X121283072Y-118095248D01*
X121296198Y-118088109D01*
X121309668Y-118086280D01*
X121327320Y-118092899D01*
X121352989Y-118111106D01*
X121390513Y-118144038D01*
X121443727Y-118194834D01*
X121516467Y-118266633D01*
X121612570Y-118362575D01*
X121624998Y-118375002D01*
X121723847Y-118473970D01*
G36*
X120129522Y-125874131D02*
X120148459Y-125964518D01*
X120142843Y-126022865D01*
X120105696Y-126101787D01*
X120061432Y-126149368D01*
X119996271Y-126207014D01*
X119792675Y-126127385D01*
X119692153Y-126090197D01*
X119621688Y-126070681D01*
X119576230Y-126069352D01*
X119550726Y-126086725D01*
X119540126Y-126123316D01*
X119538815Y-126153285D01*
X119555430Y-126220062D01*
X119599022Y-126267170D01*
X119660219Y-126289273D01*
X119729647Y-126281039D01*
X119748832Y-126272799D01*
X119817869Y-126256186D01*
X119866278Y-126268091D01*
X119923257Y-126293843D01*
X119864063Y-126353037D01*
X119820125Y-126389661D01*
X119771831Y-126409305D01*
X119702805Y-126418282D01*
X119693274Y-126418888D01*
X119625178Y-126420189D01*
X119577848Y-126410103D01*
X119533366Y-126382753D01*
X119500785Y-126355784D01*
X119446829Y-126303225D01*
X119417773Y-126256456D01*
X119407272Y-126219655D01*
X119399015Y-126153566D01*
X119404558Y-126096562D01*
X119427604Y-126040947D01*
X119471861Y-125979026D01*
X119541034Y-125903104D01*
X119577586Y-125866013D01*
X119622645Y-125822786D01*
X119706062Y-125906203D01*
X119683349Y-125930851D01*
X119681881Y-125937141D01*
X119703063Y-125947785D01*
X119751251Y-125968086D01*
X119816843Y-125994031D01*
X119830674Y-125999340D01*
X119917929Y-126027770D01*
X119975648Y-126033787D01*
X120006864Y-126016578D01*
X120014612Y-125975326D01*
X120011602Y-125950666D01*
X119983330Y-125879094D01*
X119933027Y-125835946D01*
X119867484Y-125823253D01*
X119793489Y-125843051D01*
X119747577Y-125871587D01*
X119706062Y-125906203D01*
X119622645Y-125822786D01*
X119665395Y-125781774D01*
X119735619Y-125724705D01*
X119794995Y-125691390D01*
X119850259Y-125678411D01*
X119908146Y-125682353D01*
X119930341Y-125687115D01*
X120014267Y-125725638D01*
X120082726Y-125791241D01*
X120129522Y-125874131D01*
X120129522Y-125874131D01*
G37*
X120129522Y-125874131D02*
X120148459Y-125964518D01*
X120142843Y-126022865D01*
X120105696Y-126101787D01*
X120061432Y-126149368D01*
X119996271Y-126207014D01*
X119792675Y-126127385D01*
X119692153Y-126090197D01*
X119621688Y-126070681D01*
X119576230Y-126069352D01*
X119550726Y-126086725D01*
X119540126Y-126123316D01*
X119538815Y-126153285D01*
X119555430Y-126220062D01*
X119599022Y-126267170D01*
X119660219Y-126289273D01*
X119729647Y-126281039D01*
X119748832Y-126272799D01*
X119817869Y-126256186D01*
X119866278Y-126268091D01*
X119923257Y-126293843D01*
X119864063Y-126353037D01*
X119820125Y-126389661D01*
X119771831Y-126409305D01*
X119702805Y-126418282D01*
X119693274Y-126418888D01*
X119625178Y-126420189D01*
X119577848Y-126410103D01*
X119533366Y-126382753D01*
X119500785Y-126355784D01*
X119446829Y-126303225D01*
X119417773Y-126256456D01*
X119407272Y-126219655D01*
X119399015Y-126153566D01*
X119404558Y-126096562D01*
X119427604Y-126040947D01*
X119471861Y-125979026D01*
X119541034Y-125903104D01*
X119577586Y-125866013D01*
X119622645Y-125822786D01*
X119706062Y-125906203D01*
X119683349Y-125930851D01*
X119681881Y-125937141D01*
X119703063Y-125947785D01*
X119751251Y-125968086D01*
X119816843Y-125994031D01*
X119830674Y-125999340D01*
X119917929Y-126027770D01*
X119975648Y-126033787D01*
X120006864Y-126016578D01*
X120014612Y-125975326D01*
X120011602Y-125950666D01*
X119983330Y-125879094D01*
X119933027Y-125835946D01*
X119867484Y-125823253D01*
X119793489Y-125843051D01*
X119747577Y-125871587D01*
X119706062Y-125906203D01*
X119622645Y-125822786D01*
X119665395Y-125781774D01*
X119735619Y-125724705D01*
X119794995Y-125691390D01*
X119850259Y-125678411D01*
X119908146Y-125682353D01*
X119930341Y-125687115D01*
X120014267Y-125725638D01*
X120082726Y-125791241D01*
X120129522Y-125874131D01*
G36*
X119660455Y-125389428D02*
X119669752Y-125413159D01*
X119677951Y-125483790D01*
X119666520Y-125562632D01*
X119639197Y-125631645D01*
X119618843Y-125658784D01*
X119574315Y-125680563D01*
X119531822Y-125673156D01*
X119494449Y-125657027D01*
X119480243Y-125646735D01*
X119488484Y-125626566D01*
X119507617Y-125583877D01*
X119516418Y-125564743D01*
X119535759Y-125487454D01*
X119517907Y-125421406D01*
X119463376Y-125368358D01*
X119458443Y-125365323D01*
X119416110Y-125350221D01*
X119368454Y-125355653D01*
X119311301Y-125383966D01*
X119240476Y-125437510D01*
X119151807Y-125518634D01*
X119106280Y-125563454D01*
X119034895Y-125634487D01*
X118985202Y-125681881D01*
X118951300Y-125709666D01*
X118927290Y-125721872D01*
X118907271Y-125722531D01*
X118885345Y-125715673D01*
X118884133Y-125715221D01*
X118844699Y-125699223D01*
X118826653Y-125689807D01*
X118837589Y-125674650D01*
X118871843Y-125636785D01*
X118924928Y-125580955D01*
X118992358Y-125511908D01*
X119042133Y-125461811D01*
X119139588Y-125366000D01*
X119216112Y-125295907D01*
X119277109Y-125248373D01*
X119327981Y-125220244D01*
X119374131Y-125208364D01*
X119420963Y-125209576D01*
X119460604Y-125217378D01*
X119538832Y-125253230D01*
X119609995Y-125314836D01*
X119660455Y-125389428D01*
X119660455Y-125389428D01*
G37*
X119660455Y-125389428D02*
X119669752Y-125413159D01*
X119677951Y-125483790D01*
X119666520Y-125562632D01*
X119639197Y-125631645D01*
X119618843Y-125658784D01*
X119574315Y-125680563D01*
X119531822Y-125673156D01*
X119494449Y-125657027D01*
X119480243Y-125646735D01*
X119488484Y-125626566D01*
X119507617Y-125583877D01*
X119516418Y-125564743D01*
X119535759Y-125487454D01*
X119517907Y-125421406D01*
X119463376Y-125368358D01*
X119458443Y-125365323D01*
X119416110Y-125350221D01*
X119368454Y-125355653D01*
X119311301Y-125383966D01*
X119240476Y-125437510D01*
X119151807Y-125518634D01*
X119106280Y-125563454D01*
X119034895Y-125634487D01*
X118985202Y-125681881D01*
X118951300Y-125709666D01*
X118927290Y-125721872D01*
X118907271Y-125722531D01*
X118885345Y-125715673D01*
X118884133Y-125715221D01*
X118844699Y-125699223D01*
X118826653Y-125689807D01*
X118837589Y-125674650D01*
X118871843Y-125636785D01*
X118924928Y-125580955D01*
X118992358Y-125511908D01*
X119042133Y-125461811D01*
X119139588Y-125366000D01*
X119216112Y-125295907D01*
X119277109Y-125248373D01*
X119327981Y-125220244D01*
X119374131Y-125208364D01*
X119420963Y-125209576D01*
X119460604Y-125217378D01*
X119538832Y-125253230D01*
X119609995Y-125314836D01*
X119660455Y-125389428D01*
G36*
X119179467Y-124903838D02*
X119201153Y-124961712D01*
X119210451Y-125014861D01*
X119208813Y-125062255D01*
X119192982Y-125109675D01*
X119159703Y-125162906D01*
X119105720Y-125227729D01*
X119027775Y-125309929D01*
X118975272Y-125362882D01*
X118769567Y-125568587D01*
X118718344Y-125549432D01*
X118678909Y-125533433D01*
X118660863Y-125524017D01*
X118671077Y-125508550D01*
X118703614Y-125471844D01*
X118752893Y-125420014D01*
X118792763Y-125379602D01*
X118849591Y-125320445D01*
X118892458Y-125271300D01*
X118916047Y-125238544D01*
X118918393Y-125228916D01*
X118887804Y-125210554D01*
X118833701Y-125187814D01*
X118767953Y-125164582D01*
X118702432Y-125144749D01*
X118649008Y-125132204D01*
X118619552Y-125130838D01*
X118619339Y-125130928D01*
X118594672Y-125158247D01*
X118581746Y-125194947D01*
X118582461Y-125235971D01*
X118606180Y-125273171D01*
X118632999Y-125298419D01*
X118670447Y-125334711D01*
X118681162Y-125362702D01*
X118669964Y-125397148D01*
X118667126Y-125402917D01*
X118639617Y-125440503D01*
X118606380Y-125446790D01*
X118561838Y-125421086D01*
X118522156Y-125384887D01*
X118466793Y-125303701D01*
X118449891Y-125249917D01*
X118449561Y-125162948D01*
X118479584Y-125086625D01*
X118533693Y-125028362D01*
X118605616Y-124995571D01*
X118667856Y-124992195D01*
X118715609Y-125003212D01*
X118785050Y-125026145D01*
X118862454Y-125056385D01*
X118875029Y-125061754D01*
X118960238Y-125094783D01*
X119017313Y-125105869D01*
X119051132Y-125093970D01*
X119066578Y-125058046D01*
X119069079Y-125020391D01*
X119052255Y-124954126D01*
X119008398Y-124906560D01*
X118947427Y-124883689D01*
X118879262Y-124891511D01*
X118865501Y-124897353D01*
X118806392Y-124910349D01*
X118745967Y-124903454D01*
X118681527Y-124882943D01*
X118743810Y-124820660D01*
X118784365Y-124785106D01*
X118825077Y-124765832D01*
X118880845Y-124757599D01*
X118928310Y-124755766D01*
X118998690Y-124756343D01*
X119045005Y-124765160D01*
X119082133Y-124787246D01*
X119116889Y-124819518D01*
X119179467Y-124903838D01*
X119179467Y-124903838D01*
G37*
X119179467Y-124903838D02*
X119201153Y-124961712D01*
X119210451Y-125014861D01*
X119208813Y-125062255D01*
X119192982Y-125109675D01*
X119159703Y-125162906D01*
X119105720Y-125227729D01*
X119027775Y-125309929D01*
X118975272Y-125362882D01*
X118769567Y-125568587D01*
X118718344Y-125549432D01*
X118678909Y-125533433D01*
X118660863Y-125524017D01*
X118671077Y-125508550D01*
X118703614Y-125471844D01*
X118752893Y-125420014D01*
X118792763Y-125379602D01*
X118849591Y-125320445D01*
X118892458Y-125271300D01*
X118916047Y-125238544D01*
X118918393Y-125228916D01*
X118887804Y-125210554D01*
X118833701Y-125187814D01*
X118767953Y-125164582D01*
X118702432Y-125144749D01*
X118649008Y-125132204D01*
X118619552Y-125130838D01*
X118619339Y-125130928D01*
X118594672Y-125158247D01*
X118581746Y-125194947D01*
X118582461Y-125235971D01*
X118606180Y-125273171D01*
X118632999Y-125298419D01*
X118670447Y-125334711D01*
X118681162Y-125362702D01*
X118669964Y-125397148D01*
X118667126Y-125402917D01*
X118639617Y-125440503D01*
X118606380Y-125446790D01*
X118561838Y-125421086D01*
X118522156Y-125384887D01*
X118466793Y-125303701D01*
X118449891Y-125249917D01*
X118449561Y-125162948D01*
X118479584Y-125086625D01*
X118533693Y-125028362D01*
X118605616Y-124995571D01*
X118667856Y-124992195D01*
X118715609Y-125003212D01*
X118785050Y-125026145D01*
X118862454Y-125056385D01*
X118875029Y-125061754D01*
X118960238Y-125094783D01*
X119017313Y-125105869D01*
X119051132Y-125093970D01*
X119066578Y-125058046D01*
X119069079Y-125020391D01*
X119052255Y-124954126D01*
X119008398Y-124906560D01*
X118947427Y-124883689D01*
X118879262Y-124891511D01*
X118865501Y-124897353D01*
X118806392Y-124910349D01*
X118745967Y-124903454D01*
X118681527Y-124882943D01*
X118743810Y-124820660D01*
X118784365Y-124785106D01*
X118825077Y-124765832D01*
X118880845Y-124757599D01*
X118928310Y-124755766D01*
X118998690Y-124756343D01*
X119045005Y-124765160D01*
X119082133Y-124787246D01*
X119116889Y-124819518D01*
X119179467Y-124903838D01*
G36*
X118829776Y-124558579D02*
X118795535Y-124597037D01*
X118741945Y-124653931D01*
X118673240Y-124724760D01*
X118600405Y-124798276D01*
X118352784Y-125045898D01*
X118265343Y-125045898D01*
X118208274Y-125042710D01*
X118170914Y-125027175D01*
X118135457Y-124990337D01*
X118122866Y-124974231D01*
X118083133Y-124924269D01*
X118048970Y-124884244D01*
X118040199Y-124874931D01*
X118007945Y-124846219D01*
X117959904Y-124807067D01*
X117940899Y-124792264D01*
X117896131Y-124753995D01*
X117875289Y-124719035D01*
X117869414Y-124669577D01*
X117869232Y-124649787D01*
X117869232Y-124562346D01*
X118332408Y-124099170D01*
X118383630Y-124118326D01*
X118425807Y-124136751D01*
X118447692Y-124150321D01*
X118439098Y-124168006D01*
X118406634Y-124208967D01*
X118354076Y-124268862D01*
X118285198Y-124343349D01*
X118225990Y-124405263D01*
X117991448Y-124647366D01*
X118019763Y-124685006D01*
X118053016Y-124711738D01*
X118078267Y-124715879D01*
X118102111Y-124700252D01*
X118147657Y-124661721D01*
X118209299Y-124605334D01*
X118281432Y-124536139D01*
X118318010Y-124499986D01*
X118527560Y-124290859D01*
X118586236Y-124319200D01*
X118627343Y-124339682D01*
X118648904Y-124351625D01*
X118649433Y-124352062D01*
X118638041Y-124366815D01*
X118603638Y-124404911D01*
X118550525Y-124461743D01*
X118482997Y-124532702D01*
X118419411Y-124598683D01*
X118184869Y-124840786D01*
X118267763Y-124923681D01*
X118488992Y-124710061D01*
X118710221Y-124496439D01*
X118771530Y-124515953D01*
X118815717Y-124531440D01*
X118839887Y-124542587D01*
X118840432Y-124543061D01*
X118829776Y-124558579D01*
X118829776Y-124558579D01*
G37*
X118829776Y-124558579D02*
X118795535Y-124597037D01*
X118741945Y-124653931D01*
X118673240Y-124724760D01*
X118600405Y-124798276D01*
X118352784Y-125045898D01*
X118265343Y-125045898D01*
X118208274Y-125042710D01*
X118170914Y-125027175D01*
X118135457Y-124990337D01*
X118122866Y-124974231D01*
X118083133Y-124924269D01*
X118048970Y-124884244D01*
X118040199Y-124874931D01*
X118007945Y-124846219D01*
X117959904Y-124807067D01*
X117940899Y-124792264D01*
X117896131Y-124753995D01*
X117875289Y-124719035D01*
X117869414Y-124669577D01*
X117869232Y-124649787D01*
X117869232Y-124562346D01*
X118332408Y-124099170D01*
X118383630Y-124118326D01*
X118425807Y-124136751D01*
X118447692Y-124150321D01*
X118439098Y-124168006D01*
X118406634Y-124208967D01*
X118354076Y-124268862D01*
X118285198Y-124343349D01*
X118225990Y-124405263D01*
X117991448Y-124647366D01*
X118019763Y-124685006D01*
X118053016Y-124711738D01*
X118078267Y-124715879D01*
X118102111Y-124700252D01*
X118147657Y-124661721D01*
X118209299Y-124605334D01*
X118281432Y-124536139D01*
X118318010Y-124499986D01*
X118527560Y-124290859D01*
X118586236Y-124319200D01*
X118627343Y-124339682D01*
X118648904Y-124351625D01*
X118649433Y-124352062D01*
X118638041Y-124366815D01*
X118603638Y-124404911D01*
X118550525Y-124461743D01*
X118482997Y-124532702D01*
X118419411Y-124598683D01*
X118184869Y-124840786D01*
X118267763Y-124923681D01*
X118488992Y-124710061D01*
X118710221Y-124496439D01*
X118771530Y-124515953D01*
X118815717Y-124531440D01*
X118839887Y-124542587D01*
X118840432Y-124543061D01*
X118829776Y-124558579D01*
G36*
X118166881Y-124098804D02*
X118063446Y-124201888D01*
X117983334Y-124280641D01*
X117922451Y-124338585D01*
X117876707Y-124379236D01*
X117842011Y-124406115D01*
X117814270Y-124422738D01*
X117789394Y-124432628D01*
X117773798Y-124436876D01*
X117673001Y-124443692D01*
X117579695Y-124417839D01*
X117501676Y-124364024D01*
X117446737Y-124286948D01*
X117427320Y-124227752D01*
X117420463Y-124152082D01*
X117434362Y-124081938D01*
X117472425Y-124009939D01*
X117538063Y-123928704D01*
X117590833Y-123873725D01*
X117594854Y-123870001D01*
X117691373Y-123966521D01*
X117630183Y-124028889D01*
X117591987Y-124072487D01*
X117571444Y-124105454D01*
X117563213Y-124135928D01*
X117561903Y-124163814D01*
X117578351Y-124236615D01*
X117623858Y-124286938D01*
X117692668Y-124308697D01*
X117699381Y-124309034D01*
X117731006Y-124307496D01*
X117760168Y-124297200D01*
X117794637Y-124272944D01*
X117842188Y-124229526D01*
X117892802Y-124179566D01*
X117955267Y-124115683D01*
X117994480Y-124070608D01*
X118015811Y-124036546D01*
X118024636Y-124005704D01*
X118026143Y-123986144D01*
X118010775Y-123917646D01*
X117965675Y-123866157D01*
X117899287Y-123840351D01*
X117882858Y-123838987D01*
X117850985Y-123840571D01*
X117821602Y-123851051D01*
X117786832Y-123875670D01*
X117738804Y-123919671D01*
X117691373Y-123966521D01*
X117594854Y-123870001D01*
X117680933Y-123790305D01*
X117757461Y-123736460D01*
X117827800Y-123708783D01*
X117899330Y-123703863D01*
X117944860Y-123710211D01*
X118013175Y-123736194D01*
X118077646Y-123781016D01*
X118125813Y-123834442D01*
X118143629Y-123873475D01*
X118151763Y-123887649D01*
X118170422Y-123883794D01*
X118205754Y-123858794D01*
X118255614Y-123816753D01*
X118311069Y-123769857D01*
X118347805Y-123745010D01*
X118376229Y-123738220D01*
X118406751Y-123745490D01*
X118423772Y-123752214D01*
X118487483Y-123778305D01*
X118166881Y-124098804D01*
X118166881Y-124098804D01*
G37*
X118166881Y-124098804D02*
X118063446Y-124201888D01*
X117983334Y-124280641D01*
X117922451Y-124338585D01*
X117876707Y-124379236D01*
X117842011Y-124406115D01*
X117814270Y-124422738D01*
X117789394Y-124432628D01*
X117773798Y-124436876D01*
X117673001Y-124443692D01*
X117579695Y-124417839D01*
X117501676Y-124364024D01*
X117446737Y-124286948D01*
X117427320Y-124227752D01*
X117420463Y-124152082D01*
X117434362Y-124081938D01*
X117472425Y-124009939D01*
X117538063Y-123928704D01*
X117590833Y-123873725D01*
X117594854Y-123870001D01*
X117691373Y-123966521D01*
X117630183Y-124028889D01*
X117591987Y-124072487D01*
X117571444Y-124105454D01*
X117563213Y-124135928D01*
X117561903Y-124163814D01*
X117578351Y-124236615D01*
X117623858Y-124286938D01*
X117692668Y-124308697D01*
X117699381Y-124309034D01*
X117731006Y-124307496D01*
X117760168Y-124297200D01*
X117794637Y-124272944D01*
X117842188Y-124229526D01*
X117892802Y-124179566D01*
X117955267Y-124115683D01*
X117994480Y-124070608D01*
X118015811Y-124036546D01*
X118024636Y-124005704D01*
X118026143Y-123986144D01*
X118010775Y-123917646D01*
X117965675Y-123866157D01*
X117899287Y-123840351D01*
X117882858Y-123838987D01*
X117850985Y-123840571D01*
X117821602Y-123851051D01*
X117786832Y-123875670D01*
X117738804Y-123919671D01*
X117691373Y-123966521D01*
X117594854Y-123870001D01*
X117680933Y-123790305D01*
X117757461Y-123736460D01*
X117827800Y-123708783D01*
X117899330Y-123703863D01*
X117944860Y-123710211D01*
X118013175Y-123736194D01*
X118077646Y-123781016D01*
X118125813Y-123834442D01*
X118143629Y-123873475D01*
X118151763Y-123887649D01*
X118170422Y-123883794D01*
X118205754Y-123858794D01*
X118255614Y-123816753D01*
X118311069Y-123769857D01*
X118347805Y-123745010D01*
X118376229Y-123738220D01*
X118406751Y-123745490D01*
X118423772Y-123752214D01*
X118487483Y-123778305D01*
X118166881Y-124098804D01*
G36*
X117648501Y-123360345D02*
X117688102Y-123446263D01*
X117697984Y-123538069D01*
X117689035Y-123586789D01*
X117657804Y-123661377D01*
X117619096Y-123699184D01*
X117570613Y-123702161D01*
X117557819Y-123698117D01*
X117507828Y-123675409D01*
X117492759Y-123653350D01*
X117509379Y-123624156D01*
X117521712Y-123611182D01*
X117556751Y-123553119D01*
X117559311Y-123490552D01*
X117533336Y-123433120D01*
X117482771Y-123390471D01*
X117424330Y-123373138D01*
X117399809Y-123372066D01*
X117376515Y-123377219D01*
X117348887Y-123392593D01*
X117311364Y-123422183D01*
X117258385Y-123469984D01*
X117184390Y-123539991D01*
X117161076Y-123562271D01*
X117081202Y-123638378D01*
X117024171Y-123691127D01*
X116984642Y-123724232D01*
X116957279Y-123741408D01*
X116936742Y-123746370D01*
X116917692Y-123742830D01*
X116907035Y-123739025D01*
X116864612Y-123720033D01*
X116842669Y-123705823D01*
X116849609Y-123686936D01*
X116885003Y-123644251D01*
X116949282Y-123577295D01*
X117042878Y-123485598D01*
X117057463Y-123471604D01*
X117144075Y-123389166D01*
X117208261Y-123329915D01*
X117255513Y-123289686D01*
X117291317Y-123264318D01*
X117321162Y-123249649D01*
X117350536Y-123241517D01*
X117364128Y-123239037D01*
X117431539Y-123235338D01*
X117494824Y-123243311D01*
X117501599Y-123245258D01*
X117584546Y-123290086D01*
X117648501Y-123360345D01*
X117648501Y-123360345D01*
G37*
X117648501Y-123360345D02*
X117688102Y-123446263D01*
X117697984Y-123538069D01*
X117689035Y-123586789D01*
X117657804Y-123661377D01*
X117619096Y-123699184D01*
X117570613Y-123702161D01*
X117557819Y-123698117D01*
X117507828Y-123675409D01*
X117492759Y-123653350D01*
X117509379Y-123624156D01*
X117521712Y-123611182D01*
X117556751Y-123553119D01*
X117559311Y-123490552D01*
X117533336Y-123433120D01*
X117482771Y-123390471D01*
X117424330Y-123373138D01*
X117399809Y-123372066D01*
X117376515Y-123377219D01*
X117348887Y-123392593D01*
X117311364Y-123422183D01*
X117258385Y-123469984D01*
X117184390Y-123539991D01*
X117161076Y-123562271D01*
X117081202Y-123638378D01*
X117024171Y-123691127D01*
X116984642Y-123724232D01*
X116957279Y-123741408D01*
X116936742Y-123746370D01*
X116917692Y-123742830D01*
X116907035Y-123739025D01*
X116864612Y-123720033D01*
X116842669Y-123705823D01*
X116849609Y-123686936D01*
X116885003Y-123644251D01*
X116949282Y-123577295D01*
X117042878Y-123485598D01*
X117057463Y-123471604D01*
X117144075Y-123389166D01*
X117208261Y-123329915D01*
X117255513Y-123289686D01*
X117291317Y-123264318D01*
X117321162Y-123249649D01*
X117350536Y-123241517D01*
X117364128Y-123239037D01*
X117431539Y-123235338D01*
X117494824Y-123243311D01*
X117501599Y-123245258D01*
X117584546Y-123290086D01*
X117648501Y-123360345D01*
G36*
X117180754Y-122894908D02*
X117214787Y-122969146D01*
X117215020Y-122970152D01*
X117223859Y-123028274D01*
X117219780Y-123081788D01*
X117199635Y-123136700D01*
X117160284Y-123199014D01*
X117098578Y-123274739D01*
X117011374Y-123369878D01*
X116998732Y-123383215D01*
X116807866Y-123584071D01*
X116744094Y-123563773D01*
X116698989Y-123548047D01*
X116673664Y-123536644D01*
X116672728Y-123535881D01*
X116682392Y-123519860D01*
X116714512Y-123482692D01*
X116763575Y-123430523D01*
X116804222Y-123389199D01*
X116870610Y-123322795D01*
X116909271Y-123278064D01*
X116918577Y-123247597D01*
X116896906Y-123223984D01*
X116842629Y-123199818D01*
X116755737Y-123168276D01*
X116689208Y-123147718D01*
X116646870Y-123145264D01*
X116618552Y-123160415D01*
X116617466Y-123161481D01*
X116590889Y-123209787D01*
X116602828Y-123262181D01*
X116649127Y-123314339D01*
X116685094Y-123349289D01*
X116693578Y-123378199D01*
X116680707Y-123414389D01*
X116656165Y-123452352D01*
X116628763Y-123460413D01*
X116622583Y-123459310D01*
X116578109Y-123435220D01*
X116528658Y-123388655D01*
X116485973Y-123332459D01*
X116463287Y-123285079D01*
X116455975Y-123195520D01*
X116485688Y-123110743D01*
X116524959Y-123060568D01*
X116569459Y-123024389D01*
X116617445Y-123006517D01*
X116676507Y-123007084D01*
X116754232Y-123026224D01*
X116858210Y-123064071D01*
X116864399Y-123066522D01*
X116957786Y-123100890D01*
X117021405Y-123116106D01*
X117060048Y-123111254D01*
X117078509Y-123085416D01*
X117081580Y-123037677D01*
X117080747Y-123025153D01*
X117058680Y-122957749D01*
X117011373Y-122912350D01*
X116948778Y-122894205D01*
X116880850Y-122908564D01*
X116870285Y-122914152D01*
X116806882Y-122929084D01*
X116757263Y-122917198D01*
X116694099Y-122891428D01*
X116742473Y-122843053D01*
X116826313Y-122786266D01*
X116930955Y-122761921D01*
X116973424Y-122761238D01*
X117048607Y-122781039D01*
X117121540Y-122828901D01*
X117180754Y-122894908D01*
X117180754Y-122894908D01*
G37*
X117180754Y-122894908D02*
X117214787Y-122969146D01*
X117215020Y-122970152D01*
X117223859Y-123028274D01*
X117219780Y-123081788D01*
X117199635Y-123136700D01*
X117160284Y-123199014D01*
X117098578Y-123274739D01*
X117011374Y-123369878D01*
X116998732Y-123383215D01*
X116807866Y-123584071D01*
X116744094Y-123563773D01*
X116698989Y-123548047D01*
X116673664Y-123536644D01*
X116672728Y-123535881D01*
X116682392Y-123519860D01*
X116714512Y-123482692D01*
X116763575Y-123430523D01*
X116804222Y-123389199D01*
X116870610Y-123322795D01*
X116909271Y-123278064D01*
X116918577Y-123247597D01*
X116896906Y-123223984D01*
X116842629Y-123199818D01*
X116755737Y-123168276D01*
X116689208Y-123147718D01*
X116646870Y-123145264D01*
X116618552Y-123160415D01*
X116617466Y-123161481D01*
X116590889Y-123209787D01*
X116602828Y-123262181D01*
X116649127Y-123314339D01*
X116685094Y-123349289D01*
X116693578Y-123378199D01*
X116680707Y-123414389D01*
X116656165Y-123452352D01*
X116628763Y-123460413D01*
X116622583Y-123459310D01*
X116578109Y-123435220D01*
X116528658Y-123388655D01*
X116485973Y-123332459D01*
X116463287Y-123285079D01*
X116455975Y-123195520D01*
X116485688Y-123110743D01*
X116524959Y-123060568D01*
X116569459Y-123024389D01*
X116617445Y-123006517D01*
X116676507Y-123007084D01*
X116754232Y-123026224D01*
X116858210Y-123064071D01*
X116864399Y-123066522D01*
X116957786Y-123100890D01*
X117021405Y-123116106D01*
X117060048Y-123111254D01*
X117078509Y-123085416D01*
X117081580Y-123037677D01*
X117080747Y-123025153D01*
X117058680Y-122957749D01*
X117011373Y-122912350D01*
X116948778Y-122894205D01*
X116880850Y-122908564D01*
X116870285Y-122914152D01*
X116806882Y-122929084D01*
X116757263Y-122917198D01*
X116694099Y-122891428D01*
X116742473Y-122843053D01*
X116826313Y-122786266D01*
X116930955Y-122761921D01*
X116973424Y-122761238D01*
X117048607Y-122781039D01*
X117121540Y-122828901D01*
X117180754Y-122894908D01*
G36*
X116643726Y-122168116D02*
X116591306Y-122228635D01*
X116562681Y-122266561D01*
X116554610Y-122287520D01*
X116563854Y-122297136D01*
X116568645Y-122298461D01*
X116621864Y-122326589D01*
X116674040Y-122380230D01*
X116714934Y-122446917D01*
X116731893Y-122497244D01*
X116739736Y-122558393D01*
X116734790Y-122613773D01*
X116713774Y-122669410D01*
X116673409Y-122731330D01*
X116610411Y-122805561D01*
X116521502Y-122898128D01*
X116504128Y-122915566D01*
X116308626Y-123111111D01*
X116249949Y-123082770D01*
X116208729Y-123062186D01*
X116186971Y-123050035D01*
X116186428Y-123049582D01*
X116197785Y-123034884D01*
X116232299Y-122997529D01*
X116285352Y-122942347D01*
X116352326Y-122874175D01*
X116393317Y-122832999D01*
X116474130Y-122751802D01*
X116531197Y-122692756D01*
X116568582Y-122650558D01*
X116590351Y-122619906D01*
X116600564Y-122595497D01*
X116603287Y-122572030D01*
X116603117Y-122559247D01*
X116584045Y-122489347D01*
X116537402Y-122438899D01*
X116471866Y-122416348D01*
X116455961Y-122415962D01*
X116429422Y-122418606D01*
X116403828Y-122427627D01*
X116373513Y-122447363D01*
X116332813Y-122482152D01*
X116276063Y-122536333D01*
X116199312Y-122612531D01*
X116004679Y-122807164D01*
X115946002Y-122778823D01*
X115904782Y-122758239D01*
X115883024Y-122746088D01*
X115882480Y-122745634D01*
X115894427Y-122731135D01*
X115930575Y-122692688D01*
X115987414Y-122633893D01*
X116061432Y-122558355D01*
X116149119Y-122469675D01*
X116246966Y-122371456D01*
X116625020Y-121993402D01*
X116752702Y-122045325D01*
X116643726Y-122168116D01*
X116643726Y-122168116D01*
G37*
X116643726Y-122168116D02*
X116591306Y-122228635D01*
X116562681Y-122266561D01*
X116554610Y-122287520D01*
X116563854Y-122297136D01*
X116568645Y-122298461D01*
X116621864Y-122326589D01*
X116674040Y-122380230D01*
X116714934Y-122446917D01*
X116731893Y-122497244D01*
X116739736Y-122558393D01*
X116734790Y-122613773D01*
X116713774Y-122669410D01*
X116673409Y-122731330D01*
X116610411Y-122805561D01*
X116521502Y-122898128D01*
X116504128Y-122915566D01*
X116308626Y-123111111D01*
X116249949Y-123082770D01*
X116208729Y-123062186D01*
X116186971Y-123050035D01*
X116186428Y-123049582D01*
X116197785Y-123034884D01*
X116232299Y-122997529D01*
X116285352Y-122942347D01*
X116352326Y-122874175D01*
X116393317Y-122832999D01*
X116474130Y-122751802D01*
X116531197Y-122692756D01*
X116568582Y-122650558D01*
X116590351Y-122619906D01*
X116600564Y-122595497D01*
X116603287Y-122572030D01*
X116603117Y-122559247D01*
X116584045Y-122489347D01*
X116537402Y-122438899D01*
X116471866Y-122416348D01*
X116455961Y-122415962D01*
X116429422Y-122418606D01*
X116403828Y-122427627D01*
X116373513Y-122447363D01*
X116332813Y-122482152D01*
X116276063Y-122536333D01*
X116199312Y-122612531D01*
X116004679Y-122807164D01*
X115946002Y-122778823D01*
X115904782Y-122758239D01*
X115883024Y-122746088D01*
X115882480Y-122745634D01*
X115894427Y-122731135D01*
X115930575Y-122692688D01*
X115987414Y-122633893D01*
X116061432Y-122558355D01*
X116149119Y-122469675D01*
X116246966Y-122371456D01*
X116625020Y-121993402D01*
X116752702Y-122045325D01*
X116643726Y-122168116D01*
G36*
X115418157Y-121094752D02*
X115435983Y-121185865D01*
X115425154Y-121280883D01*
X115382954Y-121373375D01*
X115338470Y-121428031D01*
X115317208Y-121448138D01*
X115296533Y-121459139D01*
X115269049Y-121460034D01*
X115227356Y-121449820D01*
X115164054Y-121427496D01*
X115071744Y-121392063D01*
X115071278Y-121391883D01*
X114985559Y-121360018D01*
X114913438Y-121335719D01*
X114862416Y-121321336D01*
X114839994Y-121319225D01*
X114839909Y-121319305D01*
X114828606Y-121352230D01*
X114829512Y-121401886D01*
X114840976Y-121448470D01*
X114852192Y-121466662D01*
X114904372Y-121494715D01*
X114969134Y-121499048D01*
X115019208Y-121482685D01*
X115059913Y-121474411D01*
X115119566Y-121478286D01*
X115180997Y-121491533D01*
X115227041Y-121511373D01*
X115234649Y-121517541D01*
X115230557Y-121537142D01*
X115200744Y-121567890D01*
X115154215Y-121603021D01*
X115099979Y-121635771D01*
X115047045Y-121659374D01*
X115044818Y-121660118D01*
X114939058Y-121677607D01*
X114839940Y-121662322D01*
X114754405Y-121617934D01*
X114689392Y-121548112D01*
X114651838Y-121456527D01*
X114650867Y-121451756D01*
X114646106Y-121354931D01*
X114672767Y-121261473D01*
X114733256Y-121164017D01*
X114752963Y-121139349D01*
X114853297Y-121030228D01*
X114907402Y-120986656D01*
X115039980Y-121119234D01*
X115011238Y-121151421D01*
X115011768Y-121169734D01*
X115041908Y-121186571D01*
X115094657Y-121207873D01*
X115155753Y-121229551D01*
X115157304Y-121230058D01*
X115210835Y-121246686D01*
X115237228Y-121248451D01*
X115246665Y-121232070D01*
X115249008Y-121200490D01*
X115236363Y-121138752D01*
X115198114Y-121096897D01*
X115144323Y-121078834D01*
X115085053Y-121088475D01*
X115039980Y-121119234D01*
X114907402Y-120986656D01*
X114946126Y-120955472D01*
X115035764Y-120912201D01*
X115114594Y-120897919D01*
X115219893Y-120909125D01*
X115307396Y-120949952D01*
X115374389Y-121013971D01*
X115418157Y-121094752D01*
X115418157Y-121094752D01*
G37*
X115418157Y-121094752D02*
X115435983Y-121185865D01*
X115425154Y-121280883D01*
X115382954Y-121373375D01*
X115338470Y-121428031D01*
X115317208Y-121448138D01*
X115296533Y-121459139D01*
X115269049Y-121460034D01*
X115227356Y-121449820D01*
X115164054Y-121427496D01*
X115071744Y-121392063D01*
X115071278Y-121391883D01*
X114985559Y-121360018D01*
X114913438Y-121335719D01*
X114862416Y-121321336D01*
X114839994Y-121319225D01*
X114839909Y-121319305D01*
X114828606Y-121352230D01*
X114829512Y-121401886D01*
X114840976Y-121448470D01*
X114852192Y-121466662D01*
X114904372Y-121494715D01*
X114969134Y-121499048D01*
X115019208Y-121482685D01*
X115059913Y-121474411D01*
X115119566Y-121478286D01*
X115180997Y-121491533D01*
X115227041Y-121511373D01*
X115234649Y-121517541D01*
X115230557Y-121537142D01*
X115200744Y-121567890D01*
X115154215Y-121603021D01*
X115099979Y-121635771D01*
X115047045Y-121659374D01*
X115044818Y-121660118D01*
X114939058Y-121677607D01*
X114839940Y-121662322D01*
X114754405Y-121617934D01*
X114689392Y-121548112D01*
X114651838Y-121456527D01*
X114650867Y-121451756D01*
X114646106Y-121354931D01*
X114672767Y-121261473D01*
X114733256Y-121164017D01*
X114752963Y-121139349D01*
X114853297Y-121030228D01*
X114907402Y-120986656D01*
X115039980Y-121119234D01*
X115011238Y-121151421D01*
X115011768Y-121169734D01*
X115041908Y-121186571D01*
X115094657Y-121207873D01*
X115155753Y-121229551D01*
X115157304Y-121230058D01*
X115210835Y-121246686D01*
X115237228Y-121248451D01*
X115246665Y-121232070D01*
X115249008Y-121200490D01*
X115236363Y-121138752D01*
X115198114Y-121096897D01*
X115144323Y-121078834D01*
X115085053Y-121088475D01*
X115039980Y-121119234D01*
X114907402Y-120986656D01*
X114946126Y-120955472D01*
X115035764Y-120912201D01*
X115114594Y-120897919D01*
X115219893Y-120909125D01*
X115307396Y-120949952D01*
X115374389Y-121013971D01*
X115418157Y-121094752D01*
G36*
X114354047Y-120012979D02*
X114384753Y-120111784D01*
X114377745Y-120214372D01*
X114359492Y-120266578D01*
X114319805Y-120332683D01*
X114259732Y-120406280D01*
X114187430Y-120479865D01*
X114111054Y-120545936D01*
X114038762Y-120596989D01*
X113978710Y-120625520D01*
X113966238Y-120628305D01*
X113851928Y-120627876D01*
X113749683Y-120593839D01*
X113665764Y-120529881D01*
X113606429Y-120439686D01*
X113594873Y-120409629D01*
X113582862Y-120340603D01*
X113585100Y-120267243D01*
X113586533Y-120259088D01*
X113595977Y-120222323D01*
X113611644Y-120188596D01*
X113638822Y-120150749D01*
X113682797Y-120101626D01*
X113748855Y-120034071D01*
X113763820Y-120019080D01*
X113768620Y-120014347D01*
X113906745Y-120152471D01*
X113844498Y-120216326D01*
X113805821Y-120261329D01*
X113785445Y-120295005D01*
X113778103Y-120324875D01*
X113777636Y-120336843D01*
X113787065Y-120393528D01*
X113820238Y-120424545D01*
X113873185Y-120436501D01*
X113914419Y-120433976D01*
X113957820Y-120413502D01*
X114014619Y-120369576D01*
X114020934Y-120364145D01*
X114113303Y-120273972D01*
X114169607Y-120194702D01*
X114189584Y-120126906D01*
X114172972Y-120071156D01*
X114161125Y-120057174D01*
X114121845Y-120028628D01*
X114080054Y-120024024D01*
X114030312Y-120045399D01*
X113967177Y-120094792D01*
X113906745Y-120152471D01*
X113768620Y-120014347D01*
X113835522Y-119948407D01*
X113887422Y-119900827D01*
X113926621Y-119871093D01*
X113960218Y-119853955D01*
X113995314Y-119844164D01*
X114002282Y-119842789D01*
X114105522Y-119833536D01*
X114189380Y-119852093D01*
X114264683Y-119901473D01*
X114286486Y-119922009D01*
X114354047Y-120012979D01*
X114354047Y-120012979D01*
G37*
X114354047Y-120012979D02*
X114384753Y-120111784D01*
X114377745Y-120214372D01*
X114359492Y-120266578D01*
X114319805Y-120332683D01*
X114259732Y-120406280D01*
X114187430Y-120479865D01*
X114111054Y-120545936D01*
X114038762Y-120596989D01*
X113978710Y-120625520D01*
X113966238Y-120628305D01*
X113851928Y-120627876D01*
X113749683Y-120593839D01*
X113665764Y-120529881D01*
X113606429Y-120439686D01*
X113594873Y-120409629D01*
X113582862Y-120340603D01*
X113585100Y-120267243D01*
X113586533Y-120259088D01*
X113595977Y-120222323D01*
X113611644Y-120188596D01*
X113638822Y-120150749D01*
X113682797Y-120101626D01*
X113748855Y-120034071D01*
X113763820Y-120019080D01*
X113768620Y-120014347D01*
X113906745Y-120152471D01*
X113844498Y-120216326D01*
X113805821Y-120261329D01*
X113785445Y-120295005D01*
X113778103Y-120324875D01*
X113777636Y-120336843D01*
X113787065Y-120393528D01*
X113820238Y-120424545D01*
X113873185Y-120436501D01*
X113914419Y-120433976D01*
X113957820Y-120413502D01*
X114014619Y-120369576D01*
X114020934Y-120364145D01*
X114113303Y-120273972D01*
X114169607Y-120194702D01*
X114189584Y-120126906D01*
X114172972Y-120071156D01*
X114161125Y-120057174D01*
X114121845Y-120028628D01*
X114080054Y-120024024D01*
X114030312Y-120045399D01*
X113967177Y-120094792D01*
X113906745Y-120152471D01*
X113768620Y-120014347D01*
X113835522Y-119948407D01*
X113887422Y-119900827D01*
X113926621Y-119871093D01*
X113960218Y-119853955D01*
X113995314Y-119844164D01*
X114002282Y-119842789D01*
X114105522Y-119833536D01*
X114189380Y-119852093D01*
X114264683Y-119901473D01*
X114286486Y-119922009D01*
X114354047Y-120012979D01*
G36*
X115942877Y-121612887D02*
X115961569Y-121682871D01*
X115966938Y-121739152D01*
X115962814Y-121788367D01*
X115945731Y-121836514D01*
X115912226Y-121889590D01*
X115858835Y-121953593D01*
X115782097Y-122034523D01*
X115725671Y-122091436D01*
X115517072Y-122300034D01*
X115346994Y-122235245D01*
X115568561Y-121999861D01*
X115651036Y-121911678D01*
X115709976Y-121846750D01*
X115749039Y-121800266D01*
X115771886Y-121767418D01*
X115782172Y-121743394D01*
X115783558Y-121723387D01*
X115782885Y-121718085D01*
X115755706Y-121654741D01*
X115702800Y-121616145D01*
X115656581Y-121607894D01*
X115632051Y-121610268D01*
X115606730Y-121620251D01*
X115575096Y-121642139D01*
X115531625Y-121680223D01*
X115470793Y-121738798D01*
X115408383Y-121800829D01*
X115330286Y-121878853D01*
X115273695Y-121932769D01*
X115231955Y-121965561D01*
X115198411Y-121980209D01*
X115166402Y-121979694D01*
X115129274Y-121966998D01*
X115083307Y-121946416D01*
X115033149Y-121923892D01*
X115282694Y-121682999D01*
X115372836Y-121596340D01*
X115440202Y-121533052D01*
X115489934Y-121489162D01*
X115527177Y-121460699D01*
X115557076Y-121443697D01*
X115584773Y-121434183D01*
X115612149Y-121428728D01*
X115717470Y-121429171D01*
X115812323Y-121463376D01*
X115889770Y-121526296D01*
X115942877Y-121612887D01*
X115942877Y-121612887D01*
G37*
X115942877Y-121612887D02*
X115961569Y-121682871D01*
X115966938Y-121739152D01*
X115962814Y-121788367D01*
X115945731Y-121836514D01*
X115912226Y-121889590D01*
X115858835Y-121953593D01*
X115782097Y-122034523D01*
X115725671Y-122091436D01*
X115517072Y-122300034D01*
X115346994Y-122235245D01*
X115568561Y-121999861D01*
X115651036Y-121911678D01*
X115709976Y-121846750D01*
X115749039Y-121800266D01*
X115771886Y-121767418D01*
X115782172Y-121743394D01*
X115783558Y-121723387D01*
X115782885Y-121718085D01*
X115755706Y-121654741D01*
X115702800Y-121616145D01*
X115656581Y-121607894D01*
X115632051Y-121610268D01*
X115606730Y-121620251D01*
X115575096Y-121642139D01*
X115531625Y-121680223D01*
X115470793Y-121738798D01*
X115408383Y-121800829D01*
X115330286Y-121878853D01*
X115273695Y-121932769D01*
X115231955Y-121965561D01*
X115198411Y-121980209D01*
X115166402Y-121979694D01*
X115129274Y-121966998D01*
X115083307Y-121946416D01*
X115033149Y-121923892D01*
X115282694Y-121682999D01*
X115372836Y-121596340D01*
X115440202Y-121533052D01*
X115489934Y-121489162D01*
X115527177Y-121460699D01*
X115557076Y-121443697D01*
X115584773Y-121434183D01*
X115612149Y-121428728D01*
X115717470Y-121429171D01*
X115812323Y-121463376D01*
X115889770Y-121526296D01*
X115942877Y-121612887D01*
G36*
X114887736Y-120542778D02*
X114914204Y-120621886D01*
X114912336Y-120716939D01*
X114907216Y-120747722D01*
X114897705Y-120785189D01*
X114881264Y-120819771D01*
X114852403Y-120859009D01*
X114805638Y-120910444D01*
X114741331Y-120975777D01*
X114650185Y-121062291D01*
X114575437Y-121120937D01*
X114510238Y-121155255D01*
X114447741Y-121168790D01*
X114381095Y-121165080D01*
X114376647Y-121164358D01*
X114322919Y-121148748D01*
X114271742Y-121116430D01*
X114216323Y-121065661D01*
X114130011Y-120979349D01*
X114046185Y-121063103D01*
X113998716Y-121108965D01*
X113966449Y-121131443D01*
X113937242Y-121135069D01*
X113898952Y-121124377D01*
X113890252Y-121121315D01*
X113849517Y-121107002D01*
X113819863Y-121094035D01*
X113803297Y-121078910D01*
X113801826Y-121058120D01*
X113817459Y-121028160D01*
X113852205Y-120985523D01*
X113908070Y-120926706D01*
X113987063Y-120848202D01*
X114091193Y-120746504D01*
X114122355Y-120716101D01*
X114229834Y-120611358D01*
X114300471Y-120543171D01*
X114433257Y-120675957D01*
X114375086Y-120735621D01*
X114339854Y-120777486D01*
X114321933Y-120810416D01*
X114315693Y-120843273D01*
X114315195Y-120861842D01*
X114324237Y-120926678D01*
X114354672Y-120961654D01*
X114411455Y-120972363D01*
X114413162Y-120972368D01*
X114444695Y-120968295D01*
X114477246Y-120952450D01*
X114518723Y-120919399D01*
X114577039Y-120863706D01*
X114589692Y-120851101D01*
X114665078Y-120769374D01*
X114709215Y-120704596D01*
X114723774Y-120652667D01*
X114710431Y-120609488D01*
X114695601Y-120591651D01*
X114649782Y-120559941D01*
X114599962Y-120556580D01*
X114541456Y-120583076D01*
X114469573Y-120640934D01*
X114433257Y-120675957D01*
X114300471Y-120543171D01*
X114313411Y-120530681D01*
X114377073Y-120470767D01*
X114424808Y-120428312D01*
X114460604Y-120400012D01*
X114488449Y-120382564D01*
X114512329Y-120372663D01*
X114536234Y-120367005D01*
X114545709Y-120365355D01*
X114650144Y-120364710D01*
X114745546Y-120400534D01*
X114829749Y-120468127D01*
X114887736Y-120542778D01*
X114887736Y-120542778D01*
G37*
X114887736Y-120542778D02*
X114914204Y-120621886D01*
X114912336Y-120716939D01*
X114907216Y-120747722D01*
X114897705Y-120785189D01*
X114881264Y-120819771D01*
X114852403Y-120859009D01*
X114805638Y-120910444D01*
X114741331Y-120975777D01*
X114650185Y-121062291D01*
X114575437Y-121120937D01*
X114510238Y-121155255D01*
X114447741Y-121168790D01*
X114381095Y-121165080D01*
X114376647Y-121164358D01*
X114322919Y-121148748D01*
X114271742Y-121116430D01*
X114216323Y-121065661D01*
X114130011Y-120979349D01*
X114046185Y-121063103D01*
X113998716Y-121108965D01*
X113966449Y-121131443D01*
X113937242Y-121135069D01*
X113898952Y-121124377D01*
X113890252Y-121121315D01*
X113849517Y-121107002D01*
X113819863Y-121094035D01*
X113803297Y-121078910D01*
X113801826Y-121058120D01*
X113817459Y-121028160D01*
X113852205Y-120985523D01*
X113908070Y-120926706D01*
X113987063Y-120848202D01*
X114091193Y-120746504D01*
X114122355Y-120716101D01*
X114229834Y-120611358D01*
X114300471Y-120543171D01*
X114433257Y-120675957D01*
X114375086Y-120735621D01*
X114339854Y-120777486D01*
X114321933Y-120810416D01*
X114315693Y-120843273D01*
X114315195Y-120861842D01*
X114324237Y-120926678D01*
X114354672Y-120961654D01*
X114411455Y-120972363D01*
X114413162Y-120972368D01*
X114444695Y-120968295D01*
X114477246Y-120952450D01*
X114518723Y-120919399D01*
X114577039Y-120863706D01*
X114589692Y-120851101D01*
X114665078Y-120769374D01*
X114709215Y-120704596D01*
X114723774Y-120652667D01*
X114710431Y-120609488D01*
X114695601Y-120591651D01*
X114649782Y-120559941D01*
X114599962Y-120556580D01*
X114541456Y-120583076D01*
X114469573Y-120640934D01*
X114433257Y-120675957D01*
X114300471Y-120543171D01*
X114313411Y-120530681D01*
X114377073Y-120470767D01*
X114424808Y-120428312D01*
X114460604Y-120400012D01*
X114488449Y-120382564D01*
X114512329Y-120372663D01*
X114536234Y-120367005D01*
X114545709Y-120365355D01*
X114650144Y-120364710D01*
X114745546Y-120400534D01*
X114829749Y-120468127D01*
X114887736Y-120542778D01*
G36*
X173775193Y-117905630D02*
X174009559Y-118137815D01*
X174210723Y-118336773D01*
X174381472Y-118505125D01*
X174524594Y-118645493D01*
X174642876Y-118760502D01*
X174739106Y-118852774D01*
X174816074Y-118924930D01*
X174876564Y-118979594D01*
X174923368Y-119019390D01*
X174959271Y-119046938D01*
X174987063Y-119064864D01*
X175009530Y-119075788D01*
X175024536Y-119080956D01*
X175114799Y-119107435D01*
X174539141Y-119683094D01*
X174485259Y-119629212D01*
X174445020Y-119593723D01*
X174423285Y-119583429D01*
X174423194Y-119583514D01*
X174413907Y-119611163D01*
X174400027Y-119671364D01*
X174393706Y-119702976D01*
X174347692Y-119844063D01*
X174267984Y-119990156D01*
X174165336Y-120126390D01*
X174050503Y-120237895D01*
X173965569Y-120294916D01*
X173777924Y-120367574D01*
X173575079Y-120398255D01*
X173371727Y-120385670D01*
X173256342Y-120357065D01*
X173097180Y-120293255D01*
X172948721Y-120206845D01*
X172799034Y-120089885D01*
X172663295Y-119961886D01*
X172654137Y-119951652D01*
X173219917Y-119385871D01*
X173347333Y-119506926D01*
X173451372Y-119591711D01*
X173539593Y-119644254D01*
X173619551Y-119668583D01*
X173698802Y-119668726D01*
X173737413Y-119661707D01*
X173839519Y-119613333D01*
X173926306Y-119522320D01*
X173991084Y-119396097D01*
X173999811Y-119370464D01*
X174032751Y-119266507D01*
X173649338Y-118873418D01*
X173265925Y-118480327D01*
X173187397Y-118496684D01*
X173123560Y-118522694D01*
X173045528Y-118571505D01*
X172999556Y-118607607D01*
X172934875Y-118667911D01*
X172900340Y-118716765D01*
X172884983Y-118772551D01*
X172881325Y-118805745D01*
X172885748Y-118905407D01*
X172918736Y-119007576D01*
X172983913Y-119118464D01*
X173084904Y-119244280D01*
X173219917Y-119385871D01*
X172654137Y-119951652D01*
X172465649Y-119740999D01*
X172315768Y-119523424D01*
X172213947Y-119310405D01*
X172160482Y-119103189D01*
X172155669Y-118903022D01*
X172199801Y-118711149D01*
X172293175Y-118528816D01*
X172316001Y-118496049D01*
X172391854Y-118408514D01*
X172486758Y-118323304D01*
X172590010Y-118247519D01*
X172690913Y-118188261D01*
X172778765Y-118152630D01*
X172841432Y-118147366D01*
X172873486Y-118149913D01*
X172881231Y-118134970D01*
X172862295Y-118099409D01*
X172814304Y-118040106D01*
X172734889Y-117953934D01*
X172621679Y-117837767D01*
X172558301Y-117774097D01*
X172434826Y-117651361D01*
X172340524Y-117559898D01*
X172269230Y-117494485D01*
X172214783Y-117449892D01*
X172171022Y-117420898D01*
X172131782Y-117402276D01*
X172111225Y-117394990D01*
X172010581Y-117362316D01*
X172616113Y-116756783D01*
X173775193Y-117905630D01*
X173775193Y-117905630D01*
G37*
X173775193Y-117905630D02*
X174009559Y-118137815D01*
X174210723Y-118336773D01*
X174381472Y-118505125D01*
X174524594Y-118645493D01*
X174642876Y-118760502D01*
X174739106Y-118852774D01*
X174816074Y-118924930D01*
X174876564Y-118979594D01*
X174923368Y-119019390D01*
X174959271Y-119046938D01*
X174987063Y-119064864D01*
X175009530Y-119075788D01*
X175024536Y-119080956D01*
X175114799Y-119107435D01*
X174539141Y-119683094D01*
X174485259Y-119629212D01*
X174445020Y-119593723D01*
X174423285Y-119583429D01*
X174423194Y-119583514D01*
X174413907Y-119611163D01*
X174400027Y-119671364D01*
X174393706Y-119702976D01*
X174347692Y-119844063D01*
X174267984Y-119990156D01*
X174165336Y-120126390D01*
X174050503Y-120237895D01*
X173965569Y-120294916D01*
X173777924Y-120367574D01*
X173575079Y-120398255D01*
X173371727Y-120385670D01*
X173256342Y-120357065D01*
X173097180Y-120293255D01*
X172948721Y-120206845D01*
X172799034Y-120089885D01*
X172663295Y-119961886D01*
X172654137Y-119951652D01*
X173219917Y-119385871D01*
X173347333Y-119506926D01*
X173451372Y-119591711D01*
X173539593Y-119644254D01*
X173619551Y-119668583D01*
X173698802Y-119668726D01*
X173737413Y-119661707D01*
X173839519Y-119613333D01*
X173926306Y-119522320D01*
X173991084Y-119396097D01*
X173999811Y-119370464D01*
X174032751Y-119266507D01*
X173649338Y-118873418D01*
X173265925Y-118480327D01*
X173187397Y-118496684D01*
X173123560Y-118522694D01*
X173045528Y-118571505D01*
X172999556Y-118607607D01*
X172934875Y-118667911D01*
X172900340Y-118716765D01*
X172884983Y-118772551D01*
X172881325Y-118805745D01*
X172885748Y-118905407D01*
X172918736Y-119007576D01*
X172983913Y-119118464D01*
X173084904Y-119244280D01*
X173219917Y-119385871D01*
X172654137Y-119951652D01*
X172465649Y-119740999D01*
X172315768Y-119523424D01*
X172213947Y-119310405D01*
X172160482Y-119103189D01*
X172155669Y-118903022D01*
X172199801Y-118711149D01*
X172293175Y-118528816D01*
X172316001Y-118496049D01*
X172391854Y-118408514D01*
X172486758Y-118323304D01*
X172590010Y-118247519D01*
X172690913Y-118188261D01*
X172778765Y-118152630D01*
X172841432Y-118147366D01*
X172873486Y-118149913D01*
X172881231Y-118134970D01*
X172862295Y-118099409D01*
X172814304Y-118040106D01*
X172734889Y-117953934D01*
X172621679Y-117837767D01*
X172558301Y-117774097D01*
X172434826Y-117651361D01*
X172340524Y-117559898D01*
X172269230Y-117494485D01*
X172214783Y-117449892D01*
X172171022Y-117420898D01*
X172131782Y-117402276D01*
X172111225Y-117394990D01*
X172010581Y-117362316D01*
X172616113Y-116756783D01*
X173775193Y-117905630D01*
G36*
X171070767Y-119754751D02*
X171223404Y-119658549D01*
X171339064Y-119606007D01*
X171444047Y-119580054D01*
X171554541Y-119573620D01*
X171630885Y-119574815D01*
X171698145Y-119580587D01*
X171761118Y-119594211D01*
X171824602Y-119618967D01*
X171893393Y-119658132D01*
X171972286Y-119714985D01*
X172066079Y-119792804D01*
X172179568Y-119894865D01*
X172317548Y-120024448D01*
X172484818Y-120184829D01*
X172571988Y-120268952D01*
X172739017Y-120429959D01*
X172873891Y-120559002D01*
X172980721Y-120659685D01*
X173063620Y-120735617D01*
X173126699Y-120790401D01*
X173174071Y-120827644D01*
X173209849Y-120850951D01*
X173238145Y-120863930D01*
X173256210Y-120868906D01*
X173336615Y-120885620D01*
X172763326Y-121458909D01*
X172643528Y-121361623D01*
X172621174Y-121479839D01*
X172566454Y-121645957D01*
X172471044Y-121806314D01*
X172344587Y-121948269D01*
X172196722Y-122059186D01*
X172166281Y-122076086D01*
X171976261Y-122149682D01*
X171786448Y-122173287D01*
X171601093Y-122147551D01*
X171424449Y-122073123D01*
X171260766Y-121950650D01*
X171245005Y-121935520D01*
X171224929Y-121914506D01*
X171739883Y-121399552D01*
X171806065Y-121459715D01*
X171834876Y-121474204D01*
X171936187Y-121486860D01*
X172041784Y-121458185D01*
X172138993Y-121394734D01*
X172215145Y-121303063D01*
X172233339Y-121268082D01*
X172265616Y-121177059D01*
X172267765Y-121100519D01*
X172236217Y-121025880D01*
X172167402Y-120940558D01*
X172129301Y-120901278D01*
X171988748Y-120760725D01*
X171871428Y-120878045D01*
X171766272Y-121004448D01*
X171698595Y-121132808D01*
X171674108Y-121243310D01*
X171691174Y-121320632D01*
X171739883Y-121399552D01*
X171224929Y-121914506D01*
X171166012Y-121852830D01*
X171113933Y-121781450D01*
X171075634Y-121701432D01*
X171056709Y-121649511D01*
X171019771Y-121465012D01*
X171032854Y-121273910D01*
X171095705Y-121076878D01*
X171208069Y-120874589D01*
X171369691Y-120667718D01*
X171466080Y-120565596D01*
X171634267Y-120396785D01*
X171551207Y-120333372D01*
X171445706Y-120278689D01*
X171339377Y-120274068D01*
X171233337Y-120318810D01*
X171128701Y-120412217D01*
X171026585Y-120553588D01*
X170939722Y-120717050D01*
X170899283Y-120796053D01*
X170863905Y-120852588D01*
X170841045Y-120874790D01*
X170840584Y-120874800D01*
X170805722Y-120864808D01*
X170737800Y-120839448D01*
X170649804Y-120804171D01*
X170554719Y-120764424D01*
X170465532Y-120725654D01*
X170395226Y-120693309D01*
X170356788Y-120672838D01*
X170354131Y-120670711D01*
X170356326Y-120642091D01*
X170382518Y-120606825D01*
X170414635Y-120565992D01*
X170464278Y-120492854D01*
X170523678Y-120399161D01*
X170564826Y-120331140D01*
X170716844Y-120107262D01*
X170887991Y-119912580D01*
X171070767Y-119754751D01*
X171070767Y-119754751D01*
G37*
X171070767Y-119754751D02*
X171223404Y-119658549D01*
X171339064Y-119606007D01*
X171444047Y-119580054D01*
X171554541Y-119573620D01*
X171630885Y-119574815D01*
X171698145Y-119580587D01*
X171761118Y-119594211D01*
X171824602Y-119618967D01*
X171893393Y-119658132D01*
X171972286Y-119714985D01*
X172066079Y-119792804D01*
X172179568Y-119894865D01*
X172317548Y-120024448D01*
X172484818Y-120184829D01*
X172571988Y-120268952D01*
X172739017Y-120429959D01*
X172873891Y-120559002D01*
X172980721Y-120659685D01*
X173063620Y-120735617D01*
X173126699Y-120790401D01*
X173174071Y-120827644D01*
X173209849Y-120850951D01*
X173238145Y-120863930D01*
X173256210Y-120868906D01*
X173336615Y-120885620D01*
X172763326Y-121458909D01*
X172643528Y-121361623D01*
X172621174Y-121479839D01*
X172566454Y-121645957D01*
X172471044Y-121806314D01*
X172344587Y-121948269D01*
X172196722Y-122059186D01*
X172166281Y-122076086D01*
X171976261Y-122149682D01*
X171786448Y-122173287D01*
X171601093Y-122147551D01*
X171424449Y-122073123D01*
X171260766Y-121950650D01*
X171245005Y-121935520D01*
X171224929Y-121914506D01*
X171739883Y-121399552D01*
X171806065Y-121459715D01*
X171834876Y-121474204D01*
X171936187Y-121486860D01*
X172041784Y-121458185D01*
X172138993Y-121394734D01*
X172215145Y-121303063D01*
X172233339Y-121268082D01*
X172265616Y-121177059D01*
X172267765Y-121100519D01*
X172236217Y-121025880D01*
X172167402Y-120940558D01*
X172129301Y-120901278D01*
X171988748Y-120760725D01*
X171871428Y-120878045D01*
X171766272Y-121004448D01*
X171698595Y-121132808D01*
X171674108Y-121243310D01*
X171691174Y-121320632D01*
X171739883Y-121399552D01*
X171224929Y-121914506D01*
X171166012Y-121852830D01*
X171113933Y-121781450D01*
X171075634Y-121701432D01*
X171056709Y-121649511D01*
X171019771Y-121465012D01*
X171032854Y-121273910D01*
X171095705Y-121076878D01*
X171208069Y-120874589D01*
X171369691Y-120667718D01*
X171466080Y-120565596D01*
X171634267Y-120396785D01*
X171551207Y-120333372D01*
X171445706Y-120278689D01*
X171339377Y-120274068D01*
X171233337Y-120318810D01*
X171128701Y-120412217D01*
X171026585Y-120553588D01*
X170939722Y-120717050D01*
X170899283Y-120796053D01*
X170863905Y-120852588D01*
X170841045Y-120874790D01*
X170840584Y-120874800D01*
X170805722Y-120864808D01*
X170737800Y-120839448D01*
X170649804Y-120804171D01*
X170554719Y-120764424D01*
X170465532Y-120725654D01*
X170395226Y-120693309D01*
X170356788Y-120672838D01*
X170354131Y-120670711D01*
X170356326Y-120642091D01*
X170382518Y-120606825D01*
X170414635Y-120565992D01*
X170464278Y-120492854D01*
X170523678Y-120399161D01*
X170564826Y-120331140D01*
X170716844Y-120107262D01*
X170887991Y-119912580D01*
X171070767Y-119754751D01*
G36*
X168999678Y-120629390D02*
X169035767Y-120607164D01*
X169101990Y-120573023D01*
X169194924Y-120531191D01*
X169302102Y-120486555D01*
X169411061Y-120444007D01*
X169509338Y-120408436D01*
X169584469Y-120384732D01*
X169620974Y-120377568D01*
X169630374Y-120400672D01*
X169646347Y-120462377D01*
X169666549Y-120551270D01*
X169688644Y-120655941D01*
X169710292Y-120764977D01*
X169729155Y-120866967D01*
X169742894Y-120950497D01*
X169749084Y-121002613D01*
X169727180Y-121020931D01*
X169668884Y-121036393D01*
X169613943Y-121043217D01*
X169446221Y-121080710D01*
X169297391Y-121164958D01*
X169184491Y-121276054D01*
X169092509Y-121425479D01*
X169049437Y-121586249D01*
X169054941Y-121757236D01*
X169108687Y-121937309D01*
X169210342Y-122125338D01*
X169359571Y-122320192D01*
X169550945Y-122516028D01*
X169741204Y-122675965D01*
X169918711Y-122789666D01*
X170087716Y-122858764D01*
X170252474Y-122884890D01*
X170417234Y-122869677D01*
X170451166Y-122861661D01*
X170534221Y-122835547D01*
X170599930Y-122800189D01*
X170667521Y-122743628D01*
X170712356Y-122699264D01*
X170814223Y-122575258D01*
X170878406Y-122443246D01*
X170911851Y-122287077D01*
X170917700Y-122221902D01*
X170924591Y-122152077D01*
X170933348Y-122109468D01*
X170937863Y-122103177D01*
X170977093Y-122111067D01*
X171050157Y-122128577D01*
X171146144Y-122152819D01*
X171254148Y-122180901D01*
X171363258Y-122209934D01*
X171462567Y-122237026D01*
X171541164Y-122259290D01*
X171588145Y-122273833D01*
X171596610Y-122277700D01*
X171588223Y-122305001D01*
X171569007Y-122367631D01*
X171543022Y-122452353D01*
X171541494Y-122457338D01*
X171483562Y-122628947D01*
X171421606Y-122769131D01*
X171346029Y-122894288D01*
X171247234Y-123020812D01*
X171146047Y-123132955D01*
X171010575Y-123270165D01*
X170896383Y-123370983D01*
X170821174Y-123424204D01*
X170596963Y-123528423D01*
X170355103Y-123587850D01*
X170101531Y-123602686D01*
X169842185Y-123573132D01*
X169583002Y-123499390D01*
X169329920Y-123381659D01*
X169315163Y-123373261D01*
X169157546Y-123266977D01*
X168992783Y-123128949D01*
X168833553Y-122971872D01*
X168692535Y-122808444D01*
X168582411Y-122651364D01*
X168565744Y-122622782D01*
X168444231Y-122357353D01*
X168371190Y-122082545D01*
X168347330Y-121802610D01*
X168373357Y-121521801D01*
X168378177Y-121496598D01*
X168438328Y-121305522D01*
X168538948Y-121111909D01*
X168671643Y-120927113D01*
X168828017Y-120762489D01*
X168999678Y-120629390D01*
X168999678Y-120629390D01*
G37*
X168999678Y-120629390D02*
X169035767Y-120607164D01*
X169101990Y-120573023D01*
X169194924Y-120531191D01*
X169302102Y-120486555D01*
X169411061Y-120444007D01*
X169509338Y-120408436D01*
X169584469Y-120384732D01*
X169620974Y-120377568D01*
X169630374Y-120400672D01*
X169646347Y-120462377D01*
X169666549Y-120551270D01*
X169688644Y-120655941D01*
X169710292Y-120764977D01*
X169729155Y-120866967D01*
X169742894Y-120950497D01*
X169749084Y-121002613D01*
X169727180Y-121020931D01*
X169668884Y-121036393D01*
X169613943Y-121043217D01*
X169446221Y-121080710D01*
X169297391Y-121164958D01*
X169184491Y-121276054D01*
X169092509Y-121425479D01*
X169049437Y-121586249D01*
X169054941Y-121757236D01*
X169108687Y-121937309D01*
X169210342Y-122125338D01*
X169359571Y-122320192D01*
X169550945Y-122516028D01*
X169741204Y-122675965D01*
X169918711Y-122789666D01*
X170087716Y-122858764D01*
X170252474Y-122884890D01*
X170417234Y-122869677D01*
X170451166Y-122861661D01*
X170534221Y-122835547D01*
X170599930Y-122800189D01*
X170667521Y-122743628D01*
X170712356Y-122699264D01*
X170814223Y-122575258D01*
X170878406Y-122443246D01*
X170911851Y-122287077D01*
X170917700Y-122221902D01*
X170924591Y-122152077D01*
X170933348Y-122109468D01*
X170937863Y-122103177D01*
X170977093Y-122111067D01*
X171050157Y-122128577D01*
X171146144Y-122152819D01*
X171254148Y-122180901D01*
X171363258Y-122209934D01*
X171462567Y-122237026D01*
X171541164Y-122259290D01*
X171588145Y-122273833D01*
X171596610Y-122277700D01*
X171588223Y-122305001D01*
X171569007Y-122367631D01*
X171543022Y-122452353D01*
X171541494Y-122457338D01*
X171483562Y-122628947D01*
X171421606Y-122769131D01*
X171346029Y-122894288D01*
X171247234Y-123020812D01*
X171146047Y-123132955D01*
X171010575Y-123270165D01*
X170896383Y-123370983D01*
X170821174Y-123424204D01*
X170596963Y-123528423D01*
X170355103Y-123587850D01*
X170101531Y-123602686D01*
X169842185Y-123573132D01*
X169583002Y-123499390D01*
X169329920Y-123381659D01*
X169315163Y-123373261D01*
X169157546Y-123266977D01*
X168992783Y-123128949D01*
X168833553Y-122971872D01*
X168692535Y-122808444D01*
X168582411Y-122651364D01*
X168565744Y-122622782D01*
X168444231Y-122357353D01*
X168371190Y-122082545D01*
X168347330Y-121802610D01*
X168373357Y-121521801D01*
X168378177Y-121496598D01*
X168438328Y-121305522D01*
X168538948Y-121111909D01*
X168671643Y-120927113D01*
X168828017Y-120762489D01*
X168999678Y-120629390D01*
G36*
X167120927Y-121711031D02*
X167141482Y-121700767D01*
X167166143Y-121699362D01*
X167197344Y-121708857D01*
X167237524Y-121731294D01*
X167289121Y-121768715D01*
X167354566Y-121823160D01*
X167436301Y-121896674D01*
X167536759Y-121991296D01*
X167658380Y-122109070D01*
X167803597Y-122252036D01*
X167974848Y-122422238D01*
X168174570Y-122621714D01*
X168405199Y-122852511D01*
X168669172Y-123116666D01*
X168710955Y-123158453D01*
X168976336Y-123423945D01*
X169207952Y-123655947D01*
X169408048Y-123856794D01*
X169578877Y-124028823D01*
X169722684Y-124174368D01*
X169841720Y-124295767D01*
X169938233Y-124395355D01*
X170014473Y-124475467D01*
X170072687Y-124538440D01*
X170115126Y-124586608D01*
X170144037Y-124622308D01*
X170161671Y-124647875D01*
X170170275Y-124665645D01*
X170172170Y-124676116D01*
X170169363Y-124688974D01*
X170159473Y-124707662D01*
X170140297Y-124734464D01*
X170109634Y-124771665D01*
X170065281Y-124821549D01*
X170005035Y-124886400D01*
X169926695Y-124968502D01*
X169828055Y-125070138D01*
X169706917Y-125193593D01*
X169561075Y-125341153D01*
X169388329Y-125515099D01*
X169186474Y-125717716D01*
X168953310Y-125951287D01*
X168686632Y-126218099D01*
X168648092Y-126256642D01*
X168376636Y-126527994D01*
X168138726Y-126765537D01*
X167932079Y-126971474D01*
X167754411Y-127148007D01*
X167603436Y-127297339D01*
X167476872Y-127421671D01*
X167372434Y-127523208D01*
X167287838Y-127604150D01*
X167220800Y-127666702D01*
X167169036Y-127713064D01*
X167130262Y-127745440D01*
X167102194Y-127766032D01*
X167082549Y-127777043D01*
X167069040Y-127780674D01*
X167067567Y-127780719D01*
X167054481Y-127777884D01*
X167035529Y-127767880D01*
X167008377Y-127748458D01*
X166970688Y-127717368D01*
X166920128Y-127672363D01*
X166854360Y-127611194D01*
X166771048Y-127531610D01*
X166667857Y-127431365D01*
X166542451Y-127308207D01*
X166392494Y-127159890D01*
X166215650Y-126984163D01*
X166009585Y-126778779D01*
X165771961Y-126541487D01*
X165549904Y-126319503D01*
X165284522Y-126054011D01*
X165052906Y-125822010D01*
X164852810Y-125621162D01*
X164681981Y-125449133D01*
X164538174Y-125303588D01*
X164453448Y-125217181D01*
X164648080Y-125022549D01*
X164673074Y-125032782D01*
X164730006Y-125052509D01*
X164759641Y-125062267D01*
X164783688Y-125070853D01*
X164808357Y-125082452D01*
X164836735Y-125099950D01*
X164871902Y-125126229D01*
X164916945Y-125164173D01*
X164974945Y-125216663D01*
X165048990Y-125286586D01*
X165142160Y-125376822D01*
X165257541Y-125490256D01*
X165398215Y-125629771D01*
X165567268Y-125798251D01*
X165767782Y-125998579D01*
X165864418Y-126095203D01*
X166050441Y-126281734D01*
X166225290Y-126458050D01*
X166385713Y-126620801D01*
X166528460Y-126766642D01*
X166650276Y-126892228D01*
X166747914Y-126994211D01*
X166818118Y-127069245D01*
X166857638Y-127113985D01*
X166865331Y-127125213D01*
X166876179Y-127170602D01*
X166896249Y-127227203D01*
X166924654Y-127297581D01*
X167296674Y-126925011D01*
X167405718Y-126814607D01*
X167498996Y-126717838D01*
X167571787Y-126639805D01*
X167619367Y-126585603D01*
X167637014Y-126560330D01*
X167635555Y-126559189D01*
X167590382Y-126556371D01*
X167523905Y-126540541D01*
X167515488Y-126537905D01*
X167478566Y-126522091D01*
X167435245Y-126494342D01*
X167379844Y-126449743D01*
X167306686Y-126383378D01*
X167210089Y-126290331D01*
X167084378Y-126165687D01*
X167077440Y-126158750D01*
X166952719Y-126032286D01*
X166854497Y-125929025D01*
X166785577Y-125852070D01*
X166748769Y-125804522D01*
X166743864Y-125790082D01*
X166778420Y-125782919D01*
X166838313Y-125789458D01*
X166842400Y-125790329D01*
X166911411Y-125801954D01*
X166962632Y-125804801D01*
X167010419Y-125809527D01*
X167082735Y-125825365D01*
X167109219Y-125832633D01*
X167186468Y-125850274D01*
X167293592Y-125868718D01*
X167409847Y-125884471D01*
X167432064Y-125886960D01*
X167609498Y-125911491D01*
X167770082Y-125944121D01*
X167904880Y-125982397D01*
X168004959Y-126023868D01*
X168053927Y-126057607D01*
X168109277Y-126112957D01*
X168905801Y-125316433D01*
X168887531Y-125315312D01*
X168997607Y-125205236D01*
X169017666Y-125191214D01*
X169067747Y-125146405D01*
X169142175Y-125076168D01*
X169235277Y-124985863D01*
X169341381Y-124880848D01*
X169348553Y-124873682D01*
X169472986Y-124748129D01*
X169563872Y-124653563D01*
X169624609Y-124586108D01*
X169658597Y-124541885D01*
X169669231Y-124517014D01*
X169666781Y-124510553D01*
X169625167Y-124490088D01*
X169582525Y-124480179D01*
X169562799Y-124473455D01*
X169534449Y-124455848D01*
X169494257Y-124424343D01*
X169439008Y-124375928D01*
X169365486Y-124307586D01*
X169270474Y-124216305D01*
X169150757Y-124099071D01*
X169003117Y-123952869D01*
X168824340Y-123774686D01*
X168743443Y-123693835D01*
X167965593Y-122915986D01*
X167354013Y-123527566D01*
X167434404Y-123553154D01*
X167459795Y-123564358D01*
X167492651Y-123585634D01*
X167536520Y-123620275D01*
X167594944Y-123671580D01*
X167671470Y-123742844D01*
X167769642Y-123837364D01*
X167893005Y-123958438D01*
X168045105Y-124109362D01*
X168216864Y-124280808D01*
X168394755Y-124458861D01*
X168540115Y-124604929D01*
X168656438Y-124722850D01*
X168747216Y-124816457D01*
X168815946Y-124889585D01*
X168866118Y-124946067D01*
X168901227Y-124989738D01*
X168924767Y-125024433D01*
X168940231Y-125053986D01*
X168951114Y-125082232D01*
X168953422Y-125089208D01*
X168976421Y-125155921D01*
X168993720Y-125198689D01*
X168997607Y-125205236D01*
X168887531Y-125315312D01*
X168813023Y-125310740D01*
X168747103Y-125306934D01*
X168705272Y-125304958D01*
X168702130Y-125304890D01*
X168616662Y-125301100D01*
X168506567Y-125292095D01*
X168387992Y-125279680D01*
X168277085Y-125265655D01*
X168189993Y-125251824D01*
X168153205Y-125243620D01*
X168079536Y-125226832D01*
X167970091Y-125207180D01*
X167839646Y-125186843D01*
X167702975Y-125168000D01*
X167574851Y-125152829D01*
X167477888Y-125144033D01*
X167380658Y-125132284D01*
X167281469Y-125113238D01*
X167273638Y-125111321D01*
X167043507Y-125061277D01*
X166883543Y-125036572D01*
X166769627Y-125021592D01*
X166765370Y-124902173D01*
X166759072Y-124796608D01*
X166747253Y-124657432D01*
X166731627Y-124501315D01*
X166713905Y-124344930D01*
X166695802Y-124204947D01*
X166688817Y-124157145D01*
X166635690Y-123672980D01*
X166623127Y-123321942D01*
X166621284Y-123038981D01*
X166235690Y-123424575D01*
X166104823Y-123555616D01*
X166006384Y-123655947D01*
X165937048Y-123730948D01*
X165893491Y-123785997D01*
X165872388Y-123826472D01*
X165870414Y-123857755D01*
X165884245Y-123885222D01*
X165910555Y-123914255D01*
X165924452Y-123928132D01*
X165951226Y-123976950D01*
X165971172Y-124052151D01*
X165975131Y-124081060D01*
X165988325Y-124177193D01*
X166008234Y-124285861D01*
X166016950Y-124325814D01*
X166033577Y-124403606D01*
X166043142Y-124460745D01*
X166044129Y-124478240D01*
X166043807Y-124520054D01*
X166048389Y-124594214D01*
X166056426Y-124686713D01*
X166066476Y-124783539D01*
X166077091Y-124870685D01*
X166086828Y-124934138D01*
X166093799Y-124959583D01*
X166102760Y-124992329D01*
X166106796Y-125055812D01*
X166106680Y-125080229D01*
X166104420Y-125185732D01*
X165807566Y-124888876D01*
X165679443Y-124758501D01*
X165582482Y-124653475D01*
X165510047Y-124565205D01*
X165455506Y-124485096D01*
X165412226Y-124404557D01*
X165383532Y-124339594D01*
X165375154Y-124326648D01*
X165361027Y-124324889D01*
X165336355Y-124338322D01*
X165296340Y-124370950D01*
X165236180Y-124426776D01*
X165151080Y-124509804D01*
X165036241Y-124624038D01*
X165004030Y-124656235D01*
X164894791Y-124765963D01*
X164799335Y-124862785D01*
X164722948Y-124941262D01*
X164670916Y-124995955D01*
X164648522Y-125021423D01*
X164648080Y-125022549D01*
X164453448Y-125217181D01*
X164419138Y-125182189D01*
X164322625Y-125082601D01*
X164246385Y-125002489D01*
X164188171Y-124939516D01*
X164145732Y-124891348D01*
X164116820Y-124855649D01*
X164099187Y-124830081D01*
X164090583Y-124812311D01*
X164088688Y-124801840D01*
X164091717Y-124787242D01*
X164102510Y-124766556D01*
X164123617Y-124737099D01*
X164157593Y-124696192D01*
X164206990Y-124641154D01*
X164274361Y-124569306D01*
X164362260Y-124477964D01*
X164473239Y-124364451D01*
X164609851Y-124226084D01*
X164774651Y-124060184D01*
X164970191Y-123864069D01*
X165199023Y-123635059D01*
X166349147Y-122484934D01*
X166417184Y-122552970D01*
X166513347Y-122620738D01*
X166634765Y-122667138D01*
X166759372Y-122685354D01*
X166827611Y-122679698D01*
X166941219Y-122632736D01*
X167041077Y-122547397D01*
X167119148Y-122435783D01*
X167167396Y-122309995D01*
X167177785Y-122182133D01*
X167174586Y-122157223D01*
X167136605Y-122052766D01*
X167070195Y-121955762D01*
X166982212Y-121851867D01*
X167059528Y-121774553D01*
X167082387Y-121749965D01*
X167102041Y-121728110D01*
X167120927Y-121711031D01*
X167120927Y-121711031D01*
G37*
X167120927Y-121711031D02*
X167141482Y-121700767D01*
X167166143Y-121699362D01*
X167197344Y-121708857D01*
X167237524Y-121731294D01*
X167289121Y-121768715D01*
X167354566Y-121823160D01*
X167436301Y-121896674D01*
X167536759Y-121991296D01*
X167658380Y-122109070D01*
X167803597Y-122252036D01*
X167974848Y-122422238D01*
X168174570Y-122621714D01*
X168405199Y-122852511D01*
X168669172Y-123116666D01*
X168710955Y-123158453D01*
X168976336Y-123423945D01*
X169207952Y-123655947D01*
X169408048Y-123856794D01*
X169578877Y-124028823D01*
X169722684Y-124174368D01*
X169841720Y-124295767D01*
X169938233Y-124395355D01*
X170014473Y-124475467D01*
X170072687Y-124538440D01*
X170115126Y-124586608D01*
X170144037Y-124622308D01*
X170161671Y-124647875D01*
X170170275Y-124665645D01*
X170172170Y-124676116D01*
X170169363Y-124688974D01*
X170159473Y-124707662D01*
X170140297Y-124734464D01*
X170109634Y-124771665D01*
X170065281Y-124821549D01*
X170005035Y-124886400D01*
X169926695Y-124968502D01*
X169828055Y-125070138D01*
X169706917Y-125193593D01*
X169561075Y-125341153D01*
X169388329Y-125515099D01*
X169186474Y-125717716D01*
X168953310Y-125951287D01*
X168686632Y-126218099D01*
X168648092Y-126256642D01*
X168376636Y-126527994D01*
X168138726Y-126765537D01*
X167932079Y-126971474D01*
X167754411Y-127148007D01*
X167603436Y-127297339D01*
X167476872Y-127421671D01*
X167372434Y-127523208D01*
X167287838Y-127604150D01*
X167220800Y-127666702D01*
X167169036Y-127713064D01*
X167130262Y-127745440D01*
X167102194Y-127766032D01*
X167082549Y-127777043D01*
X167069040Y-127780674D01*
X167067567Y-127780719D01*
X167054481Y-127777884D01*
X167035529Y-127767880D01*
X167008377Y-127748458D01*
X166970688Y-127717368D01*
X166920128Y-127672363D01*
X166854360Y-127611194D01*
X166771048Y-127531610D01*
X166667857Y-127431365D01*
X166542451Y-127308207D01*
X166392494Y-127159890D01*
X166215650Y-126984163D01*
X166009585Y-126778779D01*
X165771961Y-126541487D01*
X165549904Y-126319503D01*
X165284522Y-126054011D01*
X165052906Y-125822010D01*
X164852810Y-125621162D01*
X164681981Y-125449133D01*
X164538174Y-125303588D01*
X164453448Y-125217181D01*
X164648080Y-125022549D01*
X164673074Y-125032782D01*
X164730006Y-125052509D01*
X164759641Y-125062267D01*
X164783688Y-125070853D01*
X164808357Y-125082452D01*
X164836735Y-125099950D01*
X164871902Y-125126229D01*
X164916945Y-125164173D01*
X164974945Y-125216663D01*
X165048990Y-125286586D01*
X165142160Y-125376822D01*
X165257541Y-125490256D01*
X165398215Y-125629771D01*
X165567268Y-125798251D01*
X165767782Y-125998579D01*
X165864418Y-126095203D01*
X166050441Y-126281734D01*
X166225290Y-126458050D01*
X166385713Y-126620801D01*
X166528460Y-126766642D01*
X166650276Y-126892228D01*
X166747914Y-126994211D01*
X166818118Y-127069245D01*
X166857638Y-127113985D01*
X166865331Y-127125213D01*
X166876179Y-127170602D01*
X166896249Y-127227203D01*
X166924654Y-127297581D01*
X167296674Y-126925011D01*
X167405718Y-126814607D01*
X167498996Y-126717838D01*
X167571787Y-126639805D01*
X167619367Y-126585603D01*
X167637014Y-126560330D01*
X167635555Y-126559189D01*
X167590382Y-126556371D01*
X167523905Y-126540541D01*
X167515488Y-126537905D01*
X167478566Y-126522091D01*
X167435245Y-126494342D01*
X167379844Y-126449743D01*
X167306686Y-126383378D01*
X167210089Y-126290331D01*
X167084378Y-126165687D01*
X167077440Y-126158750D01*
X166952719Y-126032286D01*
X166854497Y-125929025D01*
X166785577Y-125852070D01*
X166748769Y-125804522D01*
X166743864Y-125790082D01*
X166778420Y-125782919D01*
X166838313Y-125789458D01*
X166842400Y-125790329D01*
X166911411Y-125801954D01*
X166962632Y-125804801D01*
X167010419Y-125809527D01*
X167082735Y-125825365D01*
X167109219Y-125832633D01*
X167186468Y-125850274D01*
X167293592Y-125868718D01*
X167409847Y-125884471D01*
X167432064Y-125886960D01*
X167609498Y-125911491D01*
X167770082Y-125944121D01*
X167904880Y-125982397D01*
X168004959Y-126023868D01*
X168053927Y-126057607D01*
X168109277Y-126112957D01*
X168905801Y-125316433D01*
X168887531Y-125315312D01*
X168997607Y-125205236D01*
X169017666Y-125191214D01*
X169067747Y-125146405D01*
X169142175Y-125076168D01*
X169235277Y-124985863D01*
X169341381Y-124880848D01*
X169348553Y-124873682D01*
X169472986Y-124748129D01*
X169563872Y-124653563D01*
X169624609Y-124586108D01*
X169658597Y-124541885D01*
X169669231Y-124517014D01*
X169666781Y-124510553D01*
X169625167Y-124490088D01*
X169582525Y-124480179D01*
X169562799Y-124473455D01*
X169534449Y-124455848D01*
X169494257Y-124424343D01*
X169439008Y-124375928D01*
X169365486Y-124307586D01*
X169270474Y-124216305D01*
X169150757Y-124099071D01*
X169003117Y-123952869D01*
X168824340Y-123774686D01*
X168743443Y-123693835D01*
X167965593Y-122915986D01*
X167354013Y-123527566D01*
X167434404Y-123553154D01*
X167459795Y-123564358D01*
X167492651Y-123585634D01*
X167536520Y-123620275D01*
X167594944Y-123671580D01*
X167671470Y-123742844D01*
X167769642Y-123837364D01*
X167893005Y-123958438D01*
X168045105Y-124109362D01*
X168216864Y-124280808D01*
X168394755Y-124458861D01*
X168540115Y-124604929D01*
X168656438Y-124722850D01*
X168747216Y-124816457D01*
X168815946Y-124889585D01*
X168866118Y-124946067D01*
X168901227Y-124989738D01*
X168924767Y-125024433D01*
X168940231Y-125053986D01*
X168951114Y-125082232D01*
X168953422Y-125089208D01*
X168976421Y-125155921D01*
X168993720Y-125198689D01*
X168997607Y-125205236D01*
X168887531Y-125315312D01*
X168813023Y-125310740D01*
X168747103Y-125306934D01*
X168705272Y-125304958D01*
X168702130Y-125304890D01*
X168616662Y-125301100D01*
X168506567Y-125292095D01*
X168387992Y-125279680D01*
X168277085Y-125265655D01*
X168189993Y-125251824D01*
X168153205Y-125243620D01*
X168079536Y-125226832D01*
X167970091Y-125207180D01*
X167839646Y-125186843D01*
X167702975Y-125168000D01*
X167574851Y-125152829D01*
X167477888Y-125144033D01*
X167380658Y-125132284D01*
X167281469Y-125113238D01*
X167273638Y-125111321D01*
X167043507Y-125061277D01*
X166883543Y-125036572D01*
X166769627Y-125021592D01*
X166765370Y-124902173D01*
X166759072Y-124796608D01*
X166747253Y-124657432D01*
X166731627Y-124501315D01*
X166713905Y-124344930D01*
X166695802Y-124204947D01*
X166688817Y-124157145D01*
X166635690Y-123672980D01*
X166623127Y-123321942D01*
X166621284Y-123038981D01*
X166235690Y-123424575D01*
X166104823Y-123555616D01*
X166006384Y-123655947D01*
X165937048Y-123730948D01*
X165893491Y-123785997D01*
X165872388Y-123826472D01*
X165870414Y-123857755D01*
X165884245Y-123885222D01*
X165910555Y-123914255D01*
X165924452Y-123928132D01*
X165951226Y-123976950D01*
X165971172Y-124052151D01*
X165975131Y-124081060D01*
X165988325Y-124177193D01*
X166008234Y-124285861D01*
X166016950Y-124325814D01*
X166033577Y-124403606D01*
X166043142Y-124460745D01*
X166044129Y-124478240D01*
X166043807Y-124520054D01*
X166048389Y-124594214D01*
X166056426Y-124686713D01*
X166066476Y-124783539D01*
X166077091Y-124870685D01*
X166086828Y-124934138D01*
X166093799Y-124959583D01*
X166102760Y-124992329D01*
X166106796Y-125055812D01*
X166106680Y-125080229D01*
X166104420Y-125185732D01*
X165807566Y-124888876D01*
X165679443Y-124758501D01*
X165582482Y-124653475D01*
X165510047Y-124565205D01*
X165455506Y-124485096D01*
X165412226Y-124404557D01*
X165383532Y-124339594D01*
X165375154Y-124326648D01*
X165361027Y-124324889D01*
X165336355Y-124338322D01*
X165296340Y-124370950D01*
X165236180Y-124426776D01*
X165151080Y-124509804D01*
X165036241Y-124624038D01*
X165004030Y-124656235D01*
X164894791Y-124765963D01*
X164799335Y-124862785D01*
X164722948Y-124941262D01*
X164670916Y-124995955D01*
X164648522Y-125021423D01*
X164648080Y-125022549D01*
X164453448Y-125217181D01*
X164419138Y-125182189D01*
X164322625Y-125082601D01*
X164246385Y-125002489D01*
X164188171Y-124939516D01*
X164145732Y-124891348D01*
X164116820Y-124855649D01*
X164099187Y-124830081D01*
X164090583Y-124812311D01*
X164088688Y-124801840D01*
X164091717Y-124787242D01*
X164102510Y-124766556D01*
X164123617Y-124737099D01*
X164157593Y-124696192D01*
X164206990Y-124641154D01*
X164274361Y-124569306D01*
X164362260Y-124477964D01*
X164473239Y-124364451D01*
X164609851Y-124226084D01*
X164774651Y-124060184D01*
X164970191Y-123864069D01*
X165199023Y-123635059D01*
X166349147Y-122484934D01*
X166417184Y-122552970D01*
X166513347Y-122620738D01*
X166634765Y-122667138D01*
X166759372Y-122685354D01*
X166827611Y-122679698D01*
X166941219Y-122632736D01*
X167041077Y-122547397D01*
X167119148Y-122435783D01*
X167167396Y-122309995D01*
X167177785Y-122182133D01*
X167174586Y-122157223D01*
X167136605Y-122052766D01*
X167070195Y-121955762D01*
X166982212Y-121851867D01*
X167059528Y-121774553D01*
X167082387Y-121749965D01*
X167102041Y-121728110D01*
X167120927Y-121711031D01*
D14*
G36*
X120914613Y-93083437D02*
X120402961Y-91562158D01*
X119716581Y-90193412D01*
X118026181Y-89873166D01*
X116468879Y-89601021D01*
X116469355Y-87921050D01*
X116469831Y-86241078D01*
X117664023Y-86010947D01*
X119402053Y-85609016D01*
X119945890Y-85437216D01*
X120213217Y-84867553D01*
X120773027Y-83554702D01*
X121065512Y-82811514D01*
X120280863Y-81656660D01*
X119343200Y-80198936D01*
X119190185Y-79896065D01*
X119381385Y-79639007D01*
X120457045Y-78483545D01*
X121398194Y-77597176D01*
X122953004Y-78583659D01*
X124599411Y-79518493D01*
X125597705Y-79093972D01*
X127107156Y-77827116D01*
X127430517Y-76455677D01*
X127667474Y-75130235D01*
X129362913Y-75105739D01*
X131088009Y-75185111D01*
X131412880Y-76863143D01*
X131735027Y-78534654D01*
X133057428Y-79063205D01*
X134389171Y-79556919D01*
X135819257Y-78610899D01*
X137270999Y-77630251D01*
X138532275Y-78768746D01*
X139703310Y-79941870D01*
X138689755Y-81393788D01*
X137676203Y-82888557D01*
X138246255Y-84217282D01*
X138955663Y-85547388D01*
X140666511Y-85893368D01*
X142274876Y-86231993D01*
X142251191Y-87934281D01*
X142190632Y-89599691D01*
X141840677Y-89658951D01*
X139394356Y-90200319D01*
X138218418Y-92006703D01*
X137880901Y-93152692D01*
X137492195Y-93257353D01*
X134824661Y-93274695D01*
X131691965Y-93274135D01*
X131323636Y-92390458D01*
X131035342Y-91410345D01*
X131604723Y-90988592D01*
X132849741Y-89340782D01*
X133060513Y-87171308D01*
X132330343Y-85619415D01*
X131007456Y-84580872D01*
X129363734Y-84186960D01*
X127671060Y-84568960D01*
X126321951Y-85751881D01*
X125645442Y-87360852D01*
X125899318Y-89243686D01*
X127185073Y-90999035D01*
X127756914Y-91545369D01*
X127414733Y-92392737D01*
X127072552Y-93240105D01*
X123977050Y-93258331D01*
X120881547Y-93276557D01*
X120914633Y-93083356D01*
X120914613Y-93083437D01*
X120914613Y-93083437D01*
G37*
X120914613Y-93083437D02*
X120402961Y-91562158D01*
X119716581Y-90193412D01*
X118026181Y-89873166D01*
X116468879Y-89601021D01*
X116469355Y-87921050D01*
X116469831Y-86241078D01*
X117664023Y-86010947D01*
X119402053Y-85609016D01*
X119945890Y-85437216D01*
X120213217Y-84867553D01*
X120773027Y-83554702D01*
X121065512Y-82811514D01*
X120280863Y-81656660D01*
X119343200Y-80198936D01*
X119190185Y-79896065D01*
X119381385Y-79639007D01*
X120457045Y-78483545D01*
X121398194Y-77597176D01*
X122953004Y-78583659D01*
X124599411Y-79518493D01*
X125597705Y-79093972D01*
X127107156Y-77827116D01*
X127430517Y-76455677D01*
X127667474Y-75130235D01*
X129362913Y-75105739D01*
X131088009Y-75185111D01*
X131412880Y-76863143D01*
X131735027Y-78534654D01*
X133057428Y-79063205D01*
X134389171Y-79556919D01*
X135819257Y-78610899D01*
X137270999Y-77630251D01*
X138532275Y-78768746D01*
X139703310Y-79941870D01*
X138689755Y-81393788D01*
X137676203Y-82888557D01*
X138246255Y-84217282D01*
X138955663Y-85547388D01*
X140666511Y-85893368D01*
X142274876Y-86231993D01*
X142251191Y-87934281D01*
X142190632Y-89599691D01*
X141840677Y-89658951D01*
X139394356Y-90200319D01*
X138218418Y-92006703D01*
X137880901Y-93152692D01*
X137492195Y-93257353D01*
X134824661Y-93274695D01*
X131691965Y-93274135D01*
X131323636Y-92390458D01*
X131035342Y-91410345D01*
X131604723Y-90988592D01*
X132849741Y-89340782D01*
X133060513Y-87171308D01*
X132330343Y-85619415D01*
X131007456Y-84580872D01*
X129363734Y-84186960D01*
X127671060Y-84568960D01*
X126321951Y-85751881D01*
X125645442Y-87360852D01*
X125899318Y-89243686D01*
X127185073Y-90999035D01*
X127756914Y-91545369D01*
X127414733Y-92392737D01*
X127072552Y-93240105D01*
X123977050Y-93258331D01*
X120881547Y-93276557D01*
X120914633Y-93083356D01*
X120914613Y-93083437D01*
D15*
G36*
X141171760Y-120624814D02*
X138831521Y-120172624D01*
X136302475Y-119381562D01*
X133918693Y-118356122D01*
X132162061Y-117341635D01*
X130399759Y-116083643D01*
X128714553Y-114652439D01*
X127189212Y-113118316D01*
X125906503Y-111551567D01*
X125048938Y-110371920D01*
X125048938Y-108856909D01*
X125048938Y-107341898D01*
X143806556Y-107341898D01*
X162564174Y-107341898D01*
X162564174Y-108968912D01*
X162564174Y-110595928D01*
X161903522Y-111523587D01*
X160703695Y-113014302D01*
X159255012Y-114488534D01*
X157618417Y-115893951D01*
X155854851Y-117178218D01*
X154025258Y-118289001D01*
X152143702Y-119169507D01*
X150081757Y-119867362D01*
X147896508Y-120372194D01*
X145645036Y-120673629D01*
X143384426Y-120761293D01*
X141171760Y-120624814D01*
X141171760Y-120624814D01*
G37*
X141171760Y-120624814D02*
X138831521Y-120172624D01*
X136302475Y-119381562D01*
X133918693Y-118356122D01*
X132162061Y-117341635D01*
X130399759Y-116083643D01*
X128714553Y-114652439D01*
X127189212Y-113118316D01*
X125906503Y-111551567D01*
X125048938Y-110371920D01*
X125048938Y-108856909D01*
X125048938Y-107341898D01*
X143806556Y-107341898D01*
X162564174Y-107341898D01*
X162564174Y-108968912D01*
X162564174Y-110595928D01*
X161903522Y-111523587D01*
X160703695Y-113014302D01*
X159255012Y-114488534D01*
X157618417Y-115893951D01*
X155854851Y-117178218D01*
X154025258Y-118289001D01*
X152143702Y-119169507D01*
X150081757Y-119867362D01*
X147896508Y-120372194D01*
X145645036Y-120673629D01*
X143384426Y-120761293D01*
X141171760Y-120624814D01*
G36*
X149763877Y-91841045D02*
X149093589Y-90392467D01*
X147370733Y-90050207D01*
X145766307Y-89789518D01*
X145766307Y-88148154D01*
X145766307Y-86506790D01*
X146221249Y-86414214D01*
X148496601Y-85882316D01*
X149328642Y-85472486D01*
X149968744Y-84097480D01*
X150406639Y-83011165D01*
X149486295Y-81644336D01*
X148565952Y-80142823D01*
X149650814Y-78904904D01*
X150735676Y-77801676D01*
X152205489Y-78783284D01*
X153819235Y-79765145D01*
X155001447Y-79260653D01*
X156153719Y-78556009D01*
X156561688Y-77607244D01*
X156890652Y-76020875D01*
X156991157Y-75285968D01*
X157867370Y-75285968D01*
X159578602Y-75373245D01*
X160413618Y-75460521D01*
X160664607Y-76948045D01*
X161020035Y-78627509D01*
X162274593Y-79259900D01*
X163688648Y-79765400D01*
X165236913Y-78776487D01*
X166900719Y-78041580D01*
X168024709Y-79244646D01*
X168915777Y-80193706D01*
X167921697Y-81637816D01*
X166927618Y-83081926D01*
X167496428Y-84374692D01*
X168359320Y-85778569D01*
X170092261Y-86150275D01*
X171531121Y-86410868D01*
X171492083Y-88085319D01*
X171453045Y-89759767D01*
X170123214Y-90016718D01*
X168443427Y-90526057D01*
X167603534Y-91989269D01*
X167113596Y-93200090D01*
X164017657Y-93201770D01*
X160921715Y-93203450D01*
X160615764Y-92468543D01*
X160309813Y-91733636D01*
X160702085Y-91424410D01*
X162006739Y-89957424D01*
X162424192Y-88257822D01*
X162226501Y-86826130D01*
X161542611Y-85700257D01*
X160303201Y-84713779D01*
X158644672Y-84456232D01*
X156824903Y-84826183D01*
X155394965Y-86196010D01*
X154939300Y-88094090D01*
X155229633Y-89604472D01*
X156298765Y-91056355D01*
X157001552Y-91799450D01*
X156727915Y-92466449D01*
X156454275Y-93133450D01*
X153385002Y-93170624D01*
X150315729Y-93207800D01*
X149763877Y-91840793D01*
X149763877Y-91841045D01*
X149763877Y-91841045D01*
G37*
X149763877Y-91841045D02*
X149093589Y-90392467D01*
X147370733Y-90050207D01*
X145766307Y-89789518D01*
X145766307Y-88148154D01*
X145766307Y-86506790D01*
X146221249Y-86414214D01*
X148496601Y-85882316D01*
X149328642Y-85472486D01*
X149968744Y-84097480D01*
X150406639Y-83011165D01*
X149486295Y-81644336D01*
X148565952Y-80142823D01*
X149650814Y-78904904D01*
X150735676Y-77801676D01*
X152205489Y-78783284D01*
X153819235Y-79765145D01*
X155001447Y-79260653D01*
X156153719Y-78556009D01*
X156561688Y-77607244D01*
X156890652Y-76020875D01*
X156991157Y-75285968D01*
X157867370Y-75285968D01*
X159578602Y-75373245D01*
X160413618Y-75460521D01*
X160664607Y-76948045D01*
X161020035Y-78627509D01*
X162274593Y-79259900D01*
X163688648Y-79765400D01*
X165236913Y-78776487D01*
X166900719Y-78041580D01*
X168024709Y-79244646D01*
X168915777Y-80193706D01*
X167921697Y-81637816D01*
X166927618Y-83081926D01*
X167496428Y-84374692D01*
X168359320Y-85778569D01*
X170092261Y-86150275D01*
X171531121Y-86410868D01*
X171492083Y-88085319D01*
X171453045Y-89759767D01*
X170123214Y-90016718D01*
X168443427Y-90526057D01*
X167603534Y-91989269D01*
X167113596Y-93200090D01*
X164017657Y-93201770D01*
X160921715Y-93203450D01*
X160615764Y-92468543D01*
X160309813Y-91733636D01*
X160702085Y-91424410D01*
X162006739Y-89957424D01*
X162424192Y-88257822D01*
X162226501Y-86826130D01*
X161542611Y-85700257D01*
X160303201Y-84713779D01*
X158644672Y-84456232D01*
X156824903Y-84826183D01*
X155394965Y-86196010D01*
X154939300Y-88094090D01*
X155229633Y-89604472D01*
X156298765Y-91056355D01*
X157001552Y-91799450D01*
X156727915Y-92466449D01*
X156454275Y-93133450D01*
X153385002Y-93170624D01*
X150315729Y-93207800D01*
X149763877Y-91840793D01*
X149763877Y-91841045D01*
D16*
G36*
X174741940Y-103730879D02*
X174994936Y-103731212D01*
X174908993Y-103790833D01*
X174663362Y-104159894D01*
X174642119Y-104261318D01*
X174718486Y-104351441D01*
X174813833Y-104413044D01*
X174917359Y-104436752D01*
X174985912Y-104392283D01*
X175315282Y-103897405D01*
X175109263Y-103764297D01*
X174994936Y-103731212D01*
X174741940Y-103730879D01*
X174949664Y-103572420D01*
X175210028Y-103649480D01*
X175543743Y-103865093D01*
X174762188Y-105039381D01*
X174617464Y-104945876D01*
X174863096Y-104576814D01*
X174713069Y-104527861D01*
X174651774Y-104488258D01*
X174474562Y-104282603D01*
X174540968Y-104032838D01*
X174741940Y-103730879D01*
X174741940Y-103730879D01*
G37*
G36*
X175926834Y-104051735D02*
X176110031Y-104284000D01*
X176027593Y-104282355D01*
X175985699Y-104343750D01*
X175904033Y-104549224D01*
X176141017Y-104640661D01*
X176235161Y-104640340D01*
X176299315Y-104572452D01*
X176336436Y-104479055D01*
X176341898Y-104399295D01*
X176278763Y-104349082D01*
X176110031Y-104283981D01*
X176110031Y-104284000D01*
X175926834Y-104051735D01*
X175975876Y-104087892D01*
X176008835Y-104148006D01*
X176146756Y-104136588D01*
X176315489Y-104201691D01*
X176503659Y-104338925D01*
X176490164Y-104559930D01*
X176475316Y-104597289D01*
X176083442Y-104780025D01*
X175848354Y-104689321D01*
X175811233Y-104782719D01*
X175811615Y-104886279D01*
X175905163Y-104958997D01*
X176199024Y-105072378D01*
X176143342Y-105212474D01*
X175868440Y-105106408D01*
X175653980Y-104941795D01*
X175664929Y-104683183D01*
X175843110Y-104234874D01*
X175839331Y-104183864D01*
X175770589Y-104142260D01*
X175822559Y-104011504D01*
X175926832Y-104051735D01*
X175926834Y-104051735D01*
X175926834Y-104051735D01*
G37*
G36*
X177197112Y-104436899D02*
X177309414Y-104504446D01*
X177333794Y-104663137D01*
X177155510Y-105701573D01*
X177450618Y-105750758D01*
X177425149Y-105899105D01*
X176959400Y-105821481D01*
X177161455Y-104644586D01*
X177153206Y-104596416D01*
X177101379Y-104573536D01*
X176834376Y-104529036D01*
X176859846Y-104380688D01*
X177197112Y-104436899D01*
X177197112Y-104436899D01*
G37*
G36*
X178552006Y-104940410D02*
X178535750Y-104511409D01*
X178708694Y-104505046D01*
X178761870Y-105908319D01*
X178588925Y-105914683D01*
X178560210Y-105156915D01*
X178254294Y-105525498D01*
X178036587Y-105533506D01*
X178375649Y-105125561D01*
X177970119Y-104532215D01*
X178183757Y-104524360D01*
X178501384Y-105002498D01*
X178552006Y-104940412D01*
X178552006Y-104940410D01*
X178552006Y-104940410D01*
G37*
G36*
X179400074Y-104377233D02*
X179673138Y-104386957D01*
X179814466Y-104606637D01*
X179902719Y-104957104D01*
X179881514Y-105214450D01*
X179645223Y-105350754D01*
X179390300Y-105413071D01*
X179353528Y-105267043D01*
X179628212Y-105199895D01*
X179730541Y-105139743D01*
X179744553Y-105037106D01*
X179636688Y-104608758D01*
X179575607Y-104524478D01*
X179456608Y-104518428D01*
X179181924Y-104585576D01*
X179145151Y-104439548D01*
X179400074Y-104377231D01*
X179400074Y-104377233D01*
X179400074Y-104377233D01*
G37*
G36*
X180200610Y-104129305D02*
X180498047Y-104154700D01*
X180440806Y-104213173D01*
X180458055Y-104285175D01*
X180555568Y-104483830D01*
X180784686Y-104374653D01*
X180848433Y-104306394D01*
X180841478Y-104213890D01*
X180797154Y-104123593D01*
X180741472Y-104065447D01*
X180661182Y-104076966D01*
X180498050Y-104154700D01*
X180498047Y-104154700D01*
X180200610Y-104129305D01*
X180260857Y-104118423D01*
X180328016Y-104135445D01*
X180413232Y-104027988D01*
X180576364Y-103950253D01*
X180806415Y-103907482D01*
X180961816Y-104067411D01*
X180979545Y-104103530D01*
X180849339Y-104510973D01*
X180622053Y-104619277D01*
X180666378Y-104709574D01*
X180743754Y-104779665D01*
X180861469Y-104761455D01*
X181145576Y-104626075D01*
X181212062Y-104761521D01*
X180946284Y-104888167D01*
X180677981Y-104931339D01*
X180492847Y-104747696D01*
X180280093Y-104314267D01*
X180239541Y-104282338D01*
X180161851Y-104303760D01*
X180099798Y-104177343D01*
X180200610Y-104129305D01*
X180200610Y-104129305D01*
G37*
G36*
X181968199Y-103818893D02*
X181568111Y-103307162D01*
X181708440Y-103200656D01*
X182578196Y-104313114D01*
X182437867Y-104419621D01*
X182060144Y-103936496D01*
X181727870Y-104188683D01*
X182105593Y-104671808D01*
X181965263Y-104778314D01*
X181095507Y-103665855D01*
X181235837Y-103559350D01*
X181635924Y-104071080D01*
X181968199Y-103818893D01*
X181968199Y-103818893D01*
G37*
G36*
X181796126Y-94994378D02*
X181543496Y-94980976D01*
X181632493Y-94925876D01*
X181897426Y-94570010D01*
X181924036Y-94469823D01*
X181852570Y-94375880D01*
X181760632Y-94309436D01*
X181658510Y-94280414D01*
X181587685Y-94321280D01*
X181232434Y-94798464D01*
X181431086Y-94942031D01*
X181543496Y-94980976D01*
X181796126Y-94994378D01*
X181580256Y-95141888D01*
X181324351Y-95051483D01*
X181002567Y-94818929D01*
X181845535Y-93686628D01*
X181985084Y-93787481D01*
X181720151Y-94143347D01*
X181867367Y-94199983D01*
X181926470Y-94242697D01*
X182092495Y-94457224D01*
X182012889Y-94703215D01*
X181796126Y-94994378D01*
X181796126Y-94994378D01*
G37*
G36*
X180629966Y-94612707D02*
X180459336Y-94371324D01*
X180541574Y-94377213D01*
X180586667Y-94318060D01*
X180679123Y-94117072D01*
X180447314Y-94013555D01*
X180353283Y-94009007D01*
X180285615Y-94073497D01*
X180243589Y-94164855D01*
X180233904Y-94244225D01*
X180294288Y-94297620D01*
X180459336Y-94371324D01*
X180629966Y-94612707D01*
X180582910Y-94574074D01*
X180553185Y-94512345D01*
X180414847Y-94516643D01*
X180249798Y-94442939D01*
X180069167Y-94296202D01*
X180094368Y-94076193D01*
X180111178Y-94039650D01*
X180512210Y-93877347D01*
X180742165Y-93980035D01*
X180784191Y-93888676D01*
X180789298Y-93785238D01*
X180699735Y-93707801D01*
X180412291Y-93579441D01*
X180475330Y-93442403D01*
X180744229Y-93562482D01*
X180949663Y-93737915D01*
X180925008Y-93995611D01*
X180723286Y-94434130D01*
X180724353Y-94485265D01*
X180790794Y-94530352D01*
X180731958Y-94658254D01*
X180629962Y-94612706D01*
X180629966Y-94612707D01*
X180629966Y-94612707D01*
G37*
G36*
X179381794Y-94162850D02*
X179273199Y-94089655D01*
X179257206Y-93929932D01*
X179489918Y-92902004D01*
X179197796Y-92837804D01*
X179231040Y-92690958D01*
X179692076Y-92792280D01*
X179428336Y-93957264D01*
X179434039Y-94005791D01*
X179484591Y-94031289D01*
X179748892Y-94089374D01*
X179715647Y-94236221D01*
X179381794Y-94162850D01*
X179381794Y-94162850D01*
G37*
G36*
X178613465Y-93707204D02*
X178399724Y-93840569D01*
X178439826Y-93744841D01*
X178446340Y-93303552D01*
X178446341Y-93303552D01*
X178409081Y-93206716D01*
X178295577Y-93170983D01*
X178187677Y-93169437D01*
X178073167Y-93201903D01*
X178033064Y-93297630D01*
X178026550Y-93738919D01*
X178063809Y-93835755D01*
X178177313Y-93871488D01*
X178285213Y-93873034D01*
X178399724Y-93840569D01*
X178613465Y-93707204D01*
X178524347Y-93950694D01*
X178262634Y-94023182D01*
X178195451Y-94022219D01*
X177933953Y-93942233D01*
X177854096Y-93696322D01*
X177859425Y-93335267D01*
X177946507Y-93091748D01*
X178210256Y-93019289D01*
X178277439Y-93020251D01*
X178536902Y-93100208D01*
X178618795Y-93346149D01*
X178613465Y-93707204D01*
X178613465Y-93707204D01*
G37*
G36*
X176739530Y-93171835D02*
X176748804Y-93219106D01*
X176908446Y-93292904D01*
X176817448Y-93347014D01*
X176799762Y-93425981D01*
X176913760Y-94007016D01*
X177155645Y-93960946D01*
X177261022Y-93906141D01*
X177280455Y-93804366D01*
X177195440Y-93371052D01*
X177138909Y-93283744D01*
X177020393Y-93271583D01*
X176908446Y-93292904D01*
X176748804Y-93219106D01*
X176899454Y-93141376D01*
X176971420Y-93127669D01*
X177243982Y-93153399D01*
X177373088Y-93378081D01*
X177442646Y-93732611D01*
X177405831Y-93988894D01*
X177164637Y-94112475D01*
X176942742Y-94154737D01*
X177008436Y-94489571D01*
X176838517Y-94521934D01*
X176579606Y-93202295D01*
X176739530Y-93171835D01*
X176739530Y-93171835D01*
G37*
G36*
X175625936Y-93099334D02*
X176387530Y-94143954D01*
X176446714Y-94282650D01*
X176009391Y-94463805D01*
X175674018Y-93677860D01*
X175398111Y-93792151D01*
X175338927Y-93653455D01*
X175774373Y-93473078D01*
X176109746Y-94259022D01*
X176387530Y-94143954D01*
X175625936Y-93099334D01*
X175696956Y-93265769D01*
X175518648Y-93339631D01*
X175447628Y-93173195D01*
X175625936Y-93099334D01*
X175625936Y-93099334D01*
G37*
G36*
X174604419Y-94599552D02*
X174216661Y-94046678D01*
X174517608Y-94475774D01*
X174706887Y-94346904D01*
X174779337Y-94256123D01*
X174744668Y-94143174D01*
X174611557Y-93953382D01*
X174517744Y-93883139D01*
X174405940Y-93917808D01*
X174216661Y-94046678D01*
X174604419Y-94599552D01*
X174940091Y-95078159D01*
X174794363Y-95177378D01*
X173984120Y-94022119D01*
X174299027Y-93807715D01*
X174557417Y-93724452D01*
X174767702Y-93869017D01*
X174878821Y-94027452D01*
X174891274Y-94362794D01*
X175479454Y-94710936D01*
X175320325Y-94819278D01*
X174768573Y-94487788D01*
X174604419Y-94599552D01*
X174604419Y-94599552D01*
G37*
G36*
X172526573Y-93650540D02*
X172419026Y-93659548D01*
X172314233Y-93690460D01*
X174929615Y-96989556D01*
X175071628Y-96851011D01*
X175262530Y-96975220D01*
X175453433Y-97099428D01*
X175595562Y-97039216D01*
X175686182Y-96994505D01*
X175740344Y-96936089D01*
X175775893Y-96831549D01*
X175810676Y-96648469D01*
X175826623Y-96556373D01*
X176053494Y-96563312D01*
X176280423Y-96570308D01*
X176317498Y-96776003D01*
X176354631Y-96981642D01*
X176508109Y-97040936D01*
X176661588Y-97100173D01*
X176843352Y-96976423D01*
X177025058Y-96852616D01*
X177182145Y-97008765D01*
X177339232Y-97164973D01*
X177212759Y-97343430D01*
X177086229Y-97521944D01*
X177150891Y-97666166D01*
X177220093Y-97817556D01*
X177438350Y-97863432D01*
X177652009Y-97902082D01*
X177644967Y-98123548D01*
X177637925Y-98345071D01*
X177452784Y-98377241D01*
X177314103Y-98408406D01*
X177240580Y-98438141D01*
X177158516Y-98604269D01*
X177103573Y-98741610D01*
X177137563Y-98791958D01*
X176320408Y-98791958D01*
X176217274Y-98548931D01*
X176273614Y-98502654D01*
X176347414Y-98455517D01*
X176427616Y-98349257D01*
X176465333Y-98268910D01*
X176485797Y-98185870D01*
X176489588Y-98102428D01*
X176477284Y-98020875D01*
X176449462Y-97943499D01*
X176406702Y-97872594D01*
X176349581Y-97810447D01*
X176278678Y-97759351D01*
X176165697Y-97714370D01*
X176042663Y-97698799D01*
X175923488Y-97712730D01*
X175822084Y-97756255D01*
X175736124Y-97826543D01*
X175672365Y-97906846D01*
X175631015Y-97994520D01*
X175612278Y-98086921D01*
X175616362Y-98181406D01*
X175643474Y-98275332D01*
X175693820Y-98366054D01*
X175767607Y-98450929D01*
X175879064Y-98556558D01*
X175842105Y-98645442D01*
X175781808Y-98791958D01*
X174965817Y-98791958D01*
X175003067Y-98738169D01*
X174936600Y-98578234D01*
X174870075Y-98418242D01*
X174662236Y-98381657D01*
X174454339Y-98345071D01*
X174454339Y-98126358D01*
X174454339Y-97907645D01*
X174659617Y-97868306D01*
X174810211Y-97834230D01*
X174884044Y-97807521D01*
X174957960Y-97649536D01*
X175012669Y-97513056D01*
X174900107Y-97354383D01*
X174820610Y-97232388D01*
X174787545Y-97161877D01*
X174829280Y-97097303D01*
X174929615Y-96989556D01*
X172314233Y-93690460D01*
X172215852Y-93743747D01*
X172127540Y-93819879D01*
X172048650Y-93925558D01*
X171999327Y-94039081D01*
X171978819Y-94156370D01*
X171986372Y-94273346D01*
X172021232Y-94385929D01*
X172082647Y-94490042D01*
X172169862Y-94581605D01*
X172282125Y-94656539D01*
X172382871Y-94687357D01*
X172510077Y-94696705D01*
X172639536Y-94684823D01*
X172747041Y-94651952D01*
X172841270Y-94605847D01*
X172910996Y-94688423D01*
X173523979Y-95391011D01*
X178478469Y-97378697D01*
X178398971Y-97256703D01*
X178365907Y-97186191D01*
X178407642Y-97121618D01*
X178507977Y-97013870D01*
X178650048Y-96875325D01*
X178840950Y-96999534D01*
X179031794Y-97123743D01*
X179173923Y-97063531D01*
X179264544Y-97018820D01*
X179318706Y-96960403D01*
X179354254Y-96855864D01*
X179389038Y-96672783D01*
X179404985Y-96580688D01*
X179404990Y-96580688D01*
X179404993Y-96580688D01*
X179631922Y-96587626D01*
X179858793Y-96594623D01*
X179895926Y-96800318D01*
X179933000Y-97005957D01*
X180086479Y-97065251D01*
X180240015Y-97124488D01*
X180421722Y-97000738D01*
X180603428Y-96876931D01*
X180760515Y-97033081D01*
X180917660Y-97189288D01*
X180791129Y-97367745D01*
X180664657Y-97546259D01*
X180729261Y-97690481D01*
X180798521Y-97841929D01*
X181016778Y-97887747D01*
X181230380Y-97926397D01*
X181223335Y-98147863D01*
X181216290Y-98369386D01*
X181031207Y-98401556D01*
X180892527Y-98432720D01*
X180819004Y-98462456D01*
X180736939Y-98628584D01*
X180681996Y-98765925D01*
X180699573Y-98791959D01*
X179888472Y-98791959D01*
X179795640Y-98573246D01*
X179851979Y-98526969D01*
X179925779Y-98479832D01*
X180005981Y-98373572D01*
X180043698Y-98293225D01*
X180064163Y-98210185D01*
X180067950Y-98126743D01*
X180055645Y-98045190D01*
X180027824Y-97967815D01*
X179985063Y-97896909D01*
X179927942Y-97834762D01*
X179857039Y-97783666D01*
X179744068Y-97738685D01*
X179621054Y-97723115D01*
X179501899Y-97737046D01*
X179400503Y-97780570D01*
X179314541Y-97850858D01*
X179250776Y-97931161D01*
X179209416Y-98018835D01*
X179190669Y-98111236D01*
X179194742Y-98205721D01*
X179221845Y-98299647D01*
X179272184Y-98390369D01*
X179345968Y-98475244D01*
X179457425Y-98580873D01*
X179420525Y-98669758D01*
X179370180Y-98791959D01*
X178561058Y-98791959D01*
X178581486Y-98762484D01*
X178514961Y-98602550D01*
X178448495Y-98442558D01*
X178240598Y-98405972D01*
X178032759Y-98369386D01*
X178032759Y-98150673D01*
X178032759Y-97931960D01*
X178237979Y-97892621D01*
X178388601Y-97858545D01*
X178462463Y-97831836D01*
X178536322Y-97673851D01*
X178591031Y-97537370D01*
X178478469Y-97378697D01*
X173523979Y-95391011D01*
X174067293Y-96011080D01*
X173872142Y-96208690D01*
X173705789Y-96392851D01*
X173681744Y-96449090D01*
X173677108Y-96512618D01*
X173685566Y-96599041D01*
X173728057Y-96693539D01*
X173830528Y-96839046D01*
X174018927Y-97078495D01*
X174269254Y-97409260D01*
X174149125Y-97679125D01*
X174044209Y-97918393D01*
X173960667Y-98138628D01*
X173886576Y-98352352D01*
X173464205Y-98407231D01*
X173157044Y-98445481D01*
X172972453Y-98479541D01*
X172868373Y-98520297D01*
X172802740Y-98578634D01*
X172739184Y-98653011D01*
X172739184Y-99414492D01*
X172739184Y-100175973D01*
X174124622Y-101956126D01*
X173965790Y-102168125D01*
X173899497Y-102285170D01*
X173930999Y-102337533D01*
X174024469Y-102444801D01*
X174388684Y-102814748D01*
X174791819Y-103197680D01*
X174881313Y-103265929D01*
X174925422Y-103277292D01*
X175372936Y-102947043D01*
X175773307Y-102634514D01*
X176002274Y-102754996D01*
X176205698Y-102852805D01*
X176432736Y-102947337D01*
X176652993Y-103026771D01*
X176836074Y-103079281D01*
X176923057Y-103105688D01*
X176959229Y-103129859D01*
X177021389Y-103654563D01*
X177079197Y-104058642D01*
X177101890Y-104148848D01*
X177124814Y-104187009D01*
X177202073Y-104202196D01*
X177366608Y-104212763D01*
X177839645Y-104220346D01*
X178308202Y-104210356D01*
X178467138Y-104198962D01*
X178536559Y-104183400D01*
X178575181Y-104010466D01*
X178627820Y-103642410D01*
X178707091Y-103121146D01*
X179010730Y-103017754D01*
X179298625Y-102912261D01*
X179587801Y-102783729D01*
X179877880Y-102638762D01*
X180263293Y-102938101D01*
X180706733Y-103267662D01*
X180750118Y-103273696D01*
X180826743Y-103224584D01*
X181255810Y-102816186D01*
X181621129Y-102445153D01*
X181714864Y-102337624D01*
X181746452Y-102285173D01*
X181680151Y-102168128D01*
X181521327Y-101956129D01*
X181199820Y-101551275D01*
X181103030Y-101426091D01*
X181239863Y-101160069D01*
X181376696Y-100865890D01*
X181343985Y-100852740D01*
X181238236Y-100843992D01*
X180761908Y-100837621D01*
X180147122Y-100837621D01*
X180036422Y-100989585D01*
X179907413Y-101150580D01*
X179760784Y-101304669D01*
X179599234Y-101449919D01*
X179425460Y-101584393D01*
X179242156Y-101706158D01*
X179052021Y-101813280D01*
X178857751Y-101903825D01*
X178662042Y-101975857D01*
X178345175Y-102053363D01*
X178006706Y-102094935D01*
X177668054Y-102099116D01*
X177350637Y-102064453D01*
X177091129Y-102004056D01*
X176838893Y-101919354D01*
X176596131Y-101811716D01*
X176365048Y-101682511D01*
X176147845Y-101533110D01*
X175946726Y-101364883D01*
X175763895Y-101179198D01*
X175601553Y-100977426D01*
X175500457Y-100837619D01*
X174884855Y-100837619D01*
X174884855Y-100837617D01*
X174884855Y-100837619D01*
X174407890Y-100843990D01*
X174302005Y-100852738D01*
X174269254Y-100865887D01*
X174406086Y-101160066D01*
X174542919Y-101426088D01*
X174446129Y-101551272D01*
X174124622Y-101956126D01*
X172739184Y-100175973D01*
X172809492Y-100250062D01*
X172866779Y-100302783D01*
X172944542Y-100336248D01*
X173091453Y-100363622D01*
X173356182Y-100398069D01*
X173655501Y-100422638D01*
X174273126Y-100436387D01*
X177780749Y-100445608D01*
X181357363Y-100441444D01*
X181948067Y-100426837D01*
X182259444Y-100398412D01*
X182574414Y-100351767D01*
X182753170Y-100310043D01*
X182802626Y-100284291D01*
X182840141Y-100252825D01*
X182867364Y-100205824D01*
X182885943Y-100133463D01*
X182903757Y-99873371D01*
X182906762Y-99393961D01*
X182906762Y-98653009D01*
X182843263Y-98578633D01*
X182777731Y-98520356D01*
X182673686Y-98479563D01*
X182488859Y-98445267D01*
X182180984Y-98406484D01*
X181758671Y-98351605D01*
X181685278Y-98138627D01*
X181601737Y-97918391D01*
X181496821Y-97679123D01*
X181376692Y-97408398D01*
X181660659Y-97032618D01*
X181865672Y-96762381D01*
X181959817Y-96615148D01*
X181970331Y-96520016D01*
X181947869Y-96428849D01*
X181888137Y-96331826D01*
X181786841Y-96219125D01*
X181627775Y-96059707D01*
X182183545Y-95427481D01*
X182809040Y-94712736D01*
X182878766Y-94630159D01*
X182962170Y-94669154D01*
X183060639Y-94705717D01*
X183159202Y-94724210D01*
X183256157Y-94725092D01*
X183349804Y-94708822D01*
X183438440Y-94675859D01*
X183520365Y-94626662D01*
X183593877Y-94561692D01*
X183657275Y-94481407D01*
X183690044Y-94424942D01*
X183709479Y-94369370D01*
X183721181Y-94205293D01*
X183716498Y-94079859D01*
X183696623Y-93990301D01*
X183652842Y-93913849D01*
X183576437Y-93827734D01*
X183475880Y-93747649D01*
X183362755Y-93697296D01*
X183242550Y-93675765D01*
X183120756Y-93682146D01*
X183002864Y-93715528D01*
X182894364Y-93775000D01*
X182800747Y-93859652D01*
X182727503Y-93968574D01*
X182689664Y-94064166D01*
X182671968Y-94160666D01*
X182674607Y-94255767D01*
X182697764Y-94347164D01*
X182742405Y-94497407D01*
X182698323Y-94554725D01*
X182563623Y-94683553D01*
X182031120Y-95147754D01*
X181315818Y-95755608D01*
X181102451Y-95546357D01*
X180905837Y-95369160D01*
X180844167Y-95337635D01*
X180778673Y-95324835D01*
X180683879Y-95324385D01*
X180612740Y-95341811D01*
X180205210Y-95644535D01*
X179853147Y-95918012D01*
X179609281Y-95801487D01*
X179366375Y-95696269D01*
X179124808Y-95606974D01*
X178954734Y-95544170D01*
X178883736Y-95502606D01*
X178823497Y-95016093D01*
X178761549Y-94608141D01*
X178731979Y-94532515D01*
X178687770Y-94481124D01*
X178611758Y-94406289D01*
X177823006Y-94406289D01*
X177034196Y-94406289D01*
X176956205Y-94483131D01*
X176910774Y-94535210D01*
X176880931Y-94609231D01*
X176820536Y-95005886D01*
X176762335Y-95490449D01*
X176748316Y-95512404D01*
X176705120Y-95538334D01*
X176521204Y-95606974D01*
X176279151Y-95696485D01*
X176035102Y-95802232D01*
X175789664Y-95919503D01*
X175455178Y-95659673D01*
X175190814Y-95456002D01*
X175042903Y-95353837D01*
X174954970Y-95320796D01*
X174870540Y-95324493D01*
X174804176Y-95336847D01*
X174744539Y-95365505D01*
X174567308Y-95522906D01*
X174377570Y-95708760D01*
X173667914Y-95107214D01*
X173131937Y-94641365D01*
X173006849Y-94520408D01*
X172970481Y-94468106D01*
X173022804Y-94322852D01*
X173046062Y-94229237D01*
X173047547Y-94132506D01*
X173027320Y-94033261D01*
X172985439Y-93932105D01*
X172900225Y-93812175D01*
X172790152Y-93724592D01*
X172663006Y-93670374D01*
X172526575Y-93650542D01*
X172526573Y-93650540D01*
X172526573Y-93650540D01*
G37*
M02*
