G04 #@! TF.GenerationSoftware,KiCad,Pcbnew,no-vcs-found-1773985~61~ubuntu16.04.1*
G04 #@! TF.CreationDate,2018-02-01T00:18:09+01:00*
G04 #@! TF.ProjectId,ripolab_protroboard_v2,7269706F6C61625F70726F74726F626F,rev?*
G04 #@! TF.SameCoordinates,Original*
G04 #@! TF.FileFunction,Soldermask,Top*
G04 #@! TF.FilePolarity,Negative*
%FSLAX46Y46*%
G04 Gerber Fmt 4.6, Leading zero omitted, Abs format (unit mm)*
G04 Created by KiCad (PCBNEW no-vcs-found-1773985~61~ubuntu16.04.1) date Thu Feb  1 00:18:09 2018*
%MOMM*%
%LPD*%
G01*
G04 APERTURE LIST*
%ADD10C,0.010000*%
%ADD11O,2.100000X3.800000*%
%ADD12O,2.100000X2.100000*%
G04 APERTURE END LIST*
D10*
G36*
X166546643Y-121837379D02*
X166676778Y-121801197D01*
X166815462Y-121807683D01*
X166907292Y-121837586D01*
X167026864Y-121913869D01*
X167117993Y-122017869D01*
X167170421Y-122137257D01*
X167174933Y-122159284D01*
X167172896Y-122285147D01*
X167131366Y-122411736D01*
X167058482Y-122526855D01*
X166962384Y-122618309D01*
X166851209Y-122673902D01*
X166827611Y-122679698D01*
X166713683Y-122682116D01*
X166588916Y-122653265D01*
X166476032Y-122600014D01*
X166420989Y-122556775D01*
X166357384Y-122465913D01*
X166312166Y-122349254D01*
X166292253Y-122229227D01*
X166297060Y-122155318D01*
X166347830Y-122019102D01*
X166434009Y-121911569D01*
X166546643Y-121837379D01*
X166546643Y-121837379D01*
G37*
X166546643Y-121837379D02*
X166676778Y-121801197D01*
X166815462Y-121807683D01*
X166907292Y-121837586D01*
X167026864Y-121913869D01*
X167117993Y-122017869D01*
X167170421Y-122137257D01*
X167174933Y-122159284D01*
X167172896Y-122285147D01*
X167131366Y-122411736D01*
X167058482Y-122526855D01*
X166962384Y-122618309D01*
X166851209Y-122673902D01*
X166827611Y-122679698D01*
X166713683Y-122682116D01*
X166588916Y-122653265D01*
X166476032Y-122600014D01*
X166420989Y-122556775D01*
X166357384Y-122465913D01*
X166312166Y-122349254D01*
X166292253Y-122229227D01*
X166297060Y-122155318D01*
X166347830Y-122019102D01*
X166434009Y-121911569D01*
X166546643Y-121837379D01*
G36*
X168743443Y-123693835D02*
X168935566Y-123885647D01*
X169095268Y-124044270D01*
X169225762Y-124172723D01*
X169330263Y-124274017D01*
X169411990Y-124351167D01*
X169474158Y-124407187D01*
X169519983Y-124445090D01*
X169552681Y-124467891D01*
X169575469Y-124478604D01*
X169582525Y-124480179D01*
X169627663Y-124488143D01*
X169655137Y-124500467D01*
X169662143Y-124521871D01*
X169645874Y-124557076D01*
X169603522Y-124610800D01*
X169532281Y-124687766D01*
X169429345Y-124792691D01*
X169348553Y-124873682D01*
X169241803Y-124979463D01*
X169147689Y-125070881D01*
X169071882Y-125142577D01*
X169020056Y-125189192D01*
X168997885Y-125205365D01*
X168997607Y-125205236D01*
X168984541Y-125177242D01*
X168963063Y-125118187D01*
X168953422Y-125089208D01*
X168943116Y-125060707D01*
X168929064Y-125031816D01*
X168907771Y-124998698D01*
X168875743Y-124957519D01*
X168829486Y-124904446D01*
X168765507Y-124835643D01*
X168680313Y-124747277D01*
X168570410Y-124635513D01*
X168432303Y-124496516D01*
X168262501Y-124326453D01*
X168216864Y-124280808D01*
X168034618Y-124098921D01*
X167884432Y-123949973D01*
X167762758Y-123830668D01*
X167666053Y-123737708D01*
X167590771Y-123667797D01*
X167533367Y-123617638D01*
X167490297Y-123583935D01*
X167458014Y-123563391D01*
X167434404Y-123553154D01*
X167354013Y-123527566D01*
X167965593Y-122915986D01*
X168743443Y-123693835D01*
X168743443Y-123693835D01*
G37*
X168743443Y-123693835D02*
X168935566Y-123885647D01*
X169095268Y-124044270D01*
X169225762Y-124172723D01*
X169330263Y-124274017D01*
X169411990Y-124351167D01*
X169474158Y-124407187D01*
X169519983Y-124445090D01*
X169552681Y-124467891D01*
X169575469Y-124478604D01*
X169582525Y-124480179D01*
X169627663Y-124488143D01*
X169655137Y-124500467D01*
X169662143Y-124521871D01*
X169645874Y-124557076D01*
X169603522Y-124610800D01*
X169532281Y-124687766D01*
X169429345Y-124792691D01*
X169348553Y-124873682D01*
X169241803Y-124979463D01*
X169147689Y-125070881D01*
X169071882Y-125142577D01*
X169020056Y-125189192D01*
X168997885Y-125205365D01*
X168997607Y-125205236D01*
X168984541Y-125177242D01*
X168963063Y-125118187D01*
X168953422Y-125089208D01*
X168943116Y-125060707D01*
X168929064Y-125031816D01*
X168907771Y-124998698D01*
X168875743Y-124957519D01*
X168829486Y-124904446D01*
X168765507Y-124835643D01*
X168680313Y-124747277D01*
X168570410Y-124635513D01*
X168432303Y-124496516D01*
X168262501Y-124326453D01*
X168216864Y-124280808D01*
X168034618Y-124098921D01*
X167884432Y-123949973D01*
X167762758Y-123830668D01*
X167666053Y-123737708D01*
X167590771Y-123667797D01*
X167533367Y-123617638D01*
X167490297Y-123583935D01*
X167458014Y-123563391D01*
X167434404Y-123553154D01*
X167354013Y-123527566D01*
X167965593Y-122915986D01*
X168743443Y-123693835D01*
G36*
X166235690Y-123424575D02*
X166621284Y-123038981D01*
X166623127Y-123321942D01*
X166646600Y-123811692D01*
X166688817Y-124157145D01*
X166706592Y-124285862D01*
X166724673Y-124437669D01*
X166741345Y-124595896D01*
X166754897Y-124743872D01*
X166763616Y-124864924D01*
X166765370Y-124902173D01*
X166769627Y-125021592D01*
X166883543Y-125036572D01*
X167113134Y-125074619D01*
X167273638Y-125111321D01*
X167370587Y-125130671D01*
X167470008Y-125143435D01*
X167477888Y-125144033D01*
X167585313Y-125153950D01*
X167714771Y-125169528D01*
X167851488Y-125188589D01*
X167980689Y-125208953D01*
X168087600Y-125228442D01*
X168153205Y-125243620D01*
X168215522Y-125256325D01*
X168312392Y-125270423D01*
X168427668Y-125284109D01*
X168545200Y-125295582D01*
X168648842Y-125303040D01*
X168702130Y-125304890D01*
X168737450Y-125306426D01*
X168800806Y-125309997D01*
X168813023Y-125310740D01*
X168905801Y-125316433D01*
X168109277Y-126112957D01*
X168053927Y-126057607D01*
X167987961Y-126015347D01*
X167880144Y-125974323D01*
X167739413Y-125936991D01*
X167574703Y-125905800D01*
X167432064Y-125886960D01*
X167316456Y-125872149D01*
X167205889Y-125853960D01*
X167121104Y-125835883D01*
X167109219Y-125832633D01*
X167033954Y-125813996D01*
X166974955Y-125804901D01*
X166962632Y-125804801D01*
X166910840Y-125801885D01*
X166842400Y-125790329D01*
X166781698Y-125782927D01*
X166744846Y-125789224D01*
X166743864Y-125790082D01*
X166755047Y-125813818D01*
X166800422Y-125869262D01*
X166877184Y-125953312D01*
X166982522Y-126062867D01*
X167077440Y-126158750D01*
X167204709Y-126285052D01*
X167302585Y-126379519D01*
X167376750Y-126447065D01*
X167432882Y-126492607D01*
X167476658Y-126521060D01*
X167513759Y-126537339D01*
X167515488Y-126537905D01*
X167582771Y-126555022D01*
X167632009Y-126559704D01*
X167635555Y-126559189D01*
X167628530Y-126574080D01*
X167590055Y-126619539D01*
X167524852Y-126690470D01*
X167437643Y-126781773D01*
X167333152Y-126888350D01*
X167296674Y-126925011D01*
X166924654Y-127297581D01*
X166896249Y-127227203D01*
X166874739Y-127165851D01*
X166865331Y-127125213D01*
X166847374Y-127101836D01*
X166796631Y-127046002D01*
X166716355Y-126961056D01*
X166609796Y-126850343D01*
X166480206Y-126717213D01*
X166330837Y-126565009D01*
X166164941Y-126397079D01*
X165985769Y-126216769D01*
X165864418Y-126095203D01*
X165649431Y-125880298D01*
X165467231Y-125698481D01*
X165314735Y-125546867D01*
X165188859Y-125422575D01*
X165086518Y-125322720D01*
X165004630Y-125244418D01*
X164940110Y-125184787D01*
X164889875Y-125140943D01*
X164850840Y-125110003D01*
X164819921Y-125089084D01*
X164794036Y-125075301D01*
X164770100Y-125065773D01*
X164759641Y-125062267D01*
X164694173Y-125040294D01*
X164653682Y-125025335D01*
X164648080Y-125022549D01*
X164663576Y-125003911D01*
X164709822Y-124954906D01*
X164781531Y-124880974D01*
X164873420Y-124787553D01*
X164980203Y-124680083D01*
X165004030Y-124656235D01*
X165126647Y-124533991D01*
X165218385Y-124443904D01*
X165284039Y-124381973D01*
X165328410Y-124344191D01*
X165356296Y-124326557D01*
X165372494Y-124325066D01*
X165381805Y-124335714D01*
X165383532Y-124339594D01*
X165422751Y-124425990D01*
X165468319Y-124505592D01*
X165526868Y-124586993D01*
X165605033Y-124678788D01*
X165709448Y-124789570D01*
X165807566Y-124888876D01*
X166104420Y-125185732D01*
X166106680Y-125080229D01*
X166104750Y-125010962D01*
X166097185Y-124965807D01*
X166093799Y-124959583D01*
X166086165Y-124930543D01*
X166076314Y-124864843D01*
X166065692Y-124776495D01*
X166055741Y-124679508D01*
X166047910Y-124587892D01*
X166043644Y-124515656D01*
X166044129Y-124478240D01*
X166040633Y-124443176D01*
X166028097Y-124376370D01*
X166016950Y-124325814D01*
X165996091Y-124222644D01*
X165979365Y-124116899D01*
X165975131Y-124081060D01*
X165959637Y-124002331D01*
X165934395Y-123941174D01*
X165924452Y-123928132D01*
X165893911Y-123896853D01*
X165874462Y-123869386D01*
X165869428Y-123840351D01*
X165882134Y-123804371D01*
X165915905Y-123756065D01*
X165974066Y-123690055D01*
X166059941Y-123600961D01*
X166176854Y-123483405D01*
X166235690Y-123424575D01*
X166235690Y-123424575D01*
G37*
X166235690Y-123424575D02*
X166621284Y-123038981D01*
X166623127Y-123321942D01*
X166646600Y-123811692D01*
X166688817Y-124157145D01*
X166706592Y-124285862D01*
X166724673Y-124437669D01*
X166741345Y-124595896D01*
X166754897Y-124743872D01*
X166763616Y-124864924D01*
X166765370Y-124902173D01*
X166769627Y-125021592D01*
X166883543Y-125036572D01*
X167113134Y-125074619D01*
X167273638Y-125111321D01*
X167370587Y-125130671D01*
X167470008Y-125143435D01*
X167477888Y-125144033D01*
X167585313Y-125153950D01*
X167714771Y-125169528D01*
X167851488Y-125188589D01*
X167980689Y-125208953D01*
X168087600Y-125228442D01*
X168153205Y-125243620D01*
X168215522Y-125256325D01*
X168312392Y-125270423D01*
X168427668Y-125284109D01*
X168545200Y-125295582D01*
X168648842Y-125303040D01*
X168702130Y-125304890D01*
X168737450Y-125306426D01*
X168800806Y-125309997D01*
X168813023Y-125310740D01*
X168905801Y-125316433D01*
X168109277Y-126112957D01*
X168053927Y-126057607D01*
X167987961Y-126015347D01*
X167880144Y-125974323D01*
X167739413Y-125936991D01*
X167574703Y-125905800D01*
X167432064Y-125886960D01*
X167316456Y-125872149D01*
X167205889Y-125853960D01*
X167121104Y-125835883D01*
X167109219Y-125832633D01*
X167033954Y-125813996D01*
X166974955Y-125804901D01*
X166962632Y-125804801D01*
X166910840Y-125801885D01*
X166842400Y-125790329D01*
X166781698Y-125782927D01*
X166744846Y-125789224D01*
X166743864Y-125790082D01*
X166755047Y-125813818D01*
X166800422Y-125869262D01*
X166877184Y-125953312D01*
X166982522Y-126062867D01*
X167077440Y-126158750D01*
X167204709Y-126285052D01*
X167302585Y-126379519D01*
X167376750Y-126447065D01*
X167432882Y-126492607D01*
X167476658Y-126521060D01*
X167513759Y-126537339D01*
X167515488Y-126537905D01*
X167582771Y-126555022D01*
X167632009Y-126559704D01*
X167635555Y-126559189D01*
X167628530Y-126574080D01*
X167590055Y-126619539D01*
X167524852Y-126690470D01*
X167437643Y-126781773D01*
X167333152Y-126888350D01*
X167296674Y-126925011D01*
X166924654Y-127297581D01*
X166896249Y-127227203D01*
X166874739Y-127165851D01*
X166865331Y-127125213D01*
X166847374Y-127101836D01*
X166796631Y-127046002D01*
X166716355Y-126961056D01*
X166609796Y-126850343D01*
X166480206Y-126717213D01*
X166330837Y-126565009D01*
X166164941Y-126397079D01*
X165985769Y-126216769D01*
X165864418Y-126095203D01*
X165649431Y-125880298D01*
X165467231Y-125698481D01*
X165314735Y-125546867D01*
X165188859Y-125422575D01*
X165086518Y-125322720D01*
X165004630Y-125244418D01*
X164940110Y-125184787D01*
X164889875Y-125140943D01*
X164850840Y-125110003D01*
X164819921Y-125089084D01*
X164794036Y-125075301D01*
X164770100Y-125065773D01*
X164759641Y-125062267D01*
X164694173Y-125040294D01*
X164653682Y-125025335D01*
X164648080Y-125022549D01*
X164663576Y-125003911D01*
X164709822Y-124954906D01*
X164781531Y-124880974D01*
X164873420Y-124787553D01*
X164980203Y-124680083D01*
X165004030Y-124656235D01*
X165126647Y-124533991D01*
X165218385Y-124443904D01*
X165284039Y-124381973D01*
X165328410Y-124344191D01*
X165356296Y-124326557D01*
X165372494Y-124325066D01*
X165381805Y-124335714D01*
X165383532Y-124339594D01*
X165422751Y-124425990D01*
X165468319Y-124505592D01*
X165526868Y-124586993D01*
X165605033Y-124678788D01*
X165709448Y-124789570D01*
X165807566Y-124888876D01*
X166104420Y-125185732D01*
X166106680Y-125080229D01*
X166104750Y-125010962D01*
X166097185Y-124965807D01*
X166093799Y-124959583D01*
X166086165Y-124930543D01*
X166076314Y-124864843D01*
X166065692Y-124776495D01*
X166055741Y-124679508D01*
X166047910Y-124587892D01*
X166043644Y-124515656D01*
X166044129Y-124478240D01*
X166040633Y-124443176D01*
X166028097Y-124376370D01*
X166016950Y-124325814D01*
X165996091Y-124222644D01*
X165979365Y-124116899D01*
X165975131Y-124081060D01*
X165959637Y-124002331D01*
X165934395Y-123941174D01*
X165924452Y-123928132D01*
X165893911Y-123896853D01*
X165874462Y-123869386D01*
X165869428Y-123840351D01*
X165882134Y-123804371D01*
X165915905Y-123756065D01*
X165974066Y-123690055D01*
X166059941Y-123600961D01*
X166176854Y-123483405D01*
X166235690Y-123424575D01*
D11*
X142700660Y-125800100D03*
X145200660Y-125800100D03*
X147700660Y-125800100D03*
X140200660Y-125800100D03*
X147700660Y-70800100D03*
X145200660Y-70800100D03*
X142700660Y-70800100D03*
D12*
X117700660Y-93300100D03*
X117700660Y-103300100D03*
X117700660Y-95800100D03*
X117700660Y-100800100D03*
X117700660Y-98300100D03*
X170200660Y-100800100D03*
X170200660Y-93300100D03*
X170200660Y-103300100D03*
X170200660Y-95800100D03*
X170200660Y-98300100D03*
X165200660Y-80800100D03*
X165200660Y-83300100D03*
X132700660Y-120800100D03*
X135200660Y-120800100D03*
X135200660Y-118300100D03*
X162700660Y-118300100D03*
X125200660Y-120800100D03*
X125200660Y-118300100D03*
X127700660Y-118300100D03*
X157700660Y-120800100D03*
X155200660Y-120800100D03*
X155200660Y-118300100D03*
X130200660Y-120800100D03*
X130200660Y-118300100D03*
X162700660Y-120800100D03*
X160200660Y-118300100D03*
X145200660Y-120800100D03*
X157700660Y-118300100D03*
X150200660Y-120800100D03*
X145200660Y-118300100D03*
X142700660Y-118300100D03*
X160200660Y-120800100D03*
X127700660Y-120800100D03*
X137700660Y-120800100D03*
X150200660Y-118300100D03*
X152700660Y-120800100D03*
X142700660Y-120800100D03*
X137700660Y-118300100D03*
X132700660Y-118300100D03*
X152700660Y-118300100D03*
X157700660Y-115800100D03*
X160200660Y-115800100D03*
X160200660Y-113300100D03*
X150200660Y-115800100D03*
X150200660Y-113300100D03*
X152700660Y-113300100D03*
X165200660Y-113300100D03*
X155200660Y-115800100D03*
X155200660Y-113300100D03*
X152700660Y-115800100D03*
X145200660Y-113300100D03*
X162700660Y-115800100D03*
X165200660Y-115800100D03*
X145200660Y-115800100D03*
X162700660Y-113300100D03*
X157700660Y-113300100D03*
X125200660Y-113300100D03*
X130200660Y-115800100D03*
X122700660Y-113300100D03*
X142700660Y-115800100D03*
X122700660Y-115800100D03*
X142700660Y-113300100D03*
X132700660Y-115800100D03*
X135200660Y-115800100D03*
X137700660Y-115800100D03*
X127700660Y-113300100D03*
X130200660Y-113300100D03*
X125200660Y-115800100D03*
X127700660Y-115800100D03*
X132700660Y-113300100D03*
X135200660Y-113300100D03*
X137700660Y-113300100D03*
X155200660Y-100800100D03*
X142700660Y-100800100D03*
X150200660Y-103300100D03*
X132700660Y-100800100D03*
X125200660Y-105800100D03*
X122700660Y-105800100D03*
X132700660Y-105800100D03*
X145200660Y-110800100D03*
X137700660Y-110800100D03*
X135200660Y-100800100D03*
X142700660Y-110800100D03*
X145200660Y-108300100D03*
X122700660Y-108300100D03*
X120200660Y-108300100D03*
X162700660Y-103300100D03*
X150200660Y-100800100D03*
X120200660Y-100800100D03*
X142700660Y-108300100D03*
X152700660Y-100800100D03*
X167700660Y-108300100D03*
X142700660Y-105800100D03*
X137700660Y-100800100D03*
X120200660Y-105800100D03*
X130200660Y-103300100D03*
X127700660Y-103300100D03*
X125200660Y-103300100D03*
X145200660Y-100800100D03*
X167700660Y-103300100D03*
X145200660Y-103300100D03*
X165200660Y-105800100D03*
X165200660Y-103300100D03*
X157700660Y-100800100D03*
X135200660Y-105800100D03*
X132700660Y-103300100D03*
X122700660Y-103300100D03*
X120200660Y-103300100D03*
X122700660Y-110800100D03*
X120200660Y-110800100D03*
X130200660Y-108300100D03*
X155200660Y-108300100D03*
X152700660Y-105800100D03*
X137700660Y-105800100D03*
X137700660Y-103300100D03*
X157700660Y-108300100D03*
X155200660Y-103300100D03*
X135200660Y-110800100D03*
X132700660Y-110800100D03*
X137700660Y-108300100D03*
X135200660Y-108300100D03*
X160200660Y-108300100D03*
X157700660Y-110800100D03*
X155200660Y-105800100D03*
X150200660Y-108300100D03*
X167700660Y-110800100D03*
X142700660Y-103300100D03*
X152700660Y-103300100D03*
X162700660Y-110800100D03*
X167700660Y-100800100D03*
X132700660Y-108300100D03*
X125200660Y-100800100D03*
X165200660Y-100800100D03*
X130200660Y-105800100D03*
X127700660Y-105800100D03*
X160200660Y-110800100D03*
X127700660Y-108300100D03*
X125200660Y-108300100D03*
X145200660Y-105800100D03*
X157700660Y-103300100D03*
X160200660Y-100800100D03*
X150200660Y-105800100D03*
X167700660Y-105800100D03*
X162700660Y-108300100D03*
X160200660Y-105800100D03*
X157700660Y-105800100D03*
X155200660Y-110800100D03*
X122700660Y-100800100D03*
X130200660Y-100800100D03*
X127700660Y-100800100D03*
X162700660Y-105800100D03*
X150200660Y-110800100D03*
X160200660Y-103300100D03*
X162700660Y-100800100D03*
X165200660Y-108300100D03*
X152700660Y-110800100D03*
X165200660Y-110800100D03*
X135200660Y-103300100D03*
X130200660Y-110800100D03*
X127700660Y-110800100D03*
X125200660Y-110800100D03*
X152700660Y-108300100D03*
X125200660Y-93300100D03*
X122700660Y-93300100D03*
X120200660Y-93300100D03*
X130200660Y-90800100D03*
X127700660Y-90800100D03*
X125200660Y-90800100D03*
X145200660Y-88300100D03*
X167700660Y-90800100D03*
X145200660Y-90800100D03*
X165200660Y-93300100D03*
X165200660Y-90800100D03*
X157700660Y-88300100D03*
X135200660Y-98300100D03*
X132700660Y-98300100D03*
X137700660Y-95800100D03*
X135200660Y-95800100D03*
X160200660Y-95800100D03*
X157700660Y-98300100D03*
X155200660Y-93300100D03*
X150200660Y-95800100D03*
X145200660Y-93300100D03*
X157700660Y-90800100D03*
X160200660Y-88300100D03*
X150200660Y-93300100D03*
X167700660Y-93300100D03*
X162700660Y-95800100D03*
X160200660Y-93300100D03*
X157700660Y-93300100D03*
X155200660Y-98300100D03*
X122700660Y-88300100D03*
X150200660Y-88300100D03*
X120200660Y-88300100D03*
X142700660Y-95800100D03*
X152700660Y-88300100D03*
X167700660Y-95800100D03*
X142700660Y-93300100D03*
X137700660Y-88300100D03*
X160200660Y-90800100D03*
X162700660Y-88300100D03*
X165200660Y-95800100D03*
X152700660Y-98300100D03*
X165200660Y-98300100D03*
X135200660Y-90800100D03*
X130200660Y-98300100D03*
X127700660Y-98300100D03*
X125200660Y-98300100D03*
X122700660Y-98300100D03*
X120200660Y-98300100D03*
X130200660Y-95800100D03*
X155200660Y-95800100D03*
X152700660Y-93300100D03*
X137700660Y-93300100D03*
X137700660Y-90800100D03*
X157700660Y-95800100D03*
X155200660Y-90800100D03*
X132700660Y-93300100D03*
X145200660Y-98300100D03*
X137700660Y-98300100D03*
X135200660Y-88300100D03*
X142700660Y-98300100D03*
X145200660Y-95800100D03*
X160200660Y-98300100D03*
X127700660Y-95800100D03*
X125200660Y-95800100D03*
X122700660Y-95800100D03*
X120200660Y-95800100D03*
X130200660Y-93300100D03*
X127700660Y-93300100D03*
X152700660Y-90800100D03*
X162700660Y-98300100D03*
X155200660Y-88300100D03*
X167700660Y-98300100D03*
X142700660Y-90800100D03*
X135200660Y-93300100D03*
X132700660Y-90800100D03*
X162700660Y-93300100D03*
X150200660Y-98300100D03*
X167700660Y-88300100D03*
X132700660Y-95800100D03*
X142700660Y-88300100D03*
X150200660Y-90800100D03*
X122700660Y-90800100D03*
X120200660Y-90800100D03*
X130200660Y-88300100D03*
X127700660Y-88300100D03*
X125200660Y-88300100D03*
X162700660Y-90800100D03*
X152700660Y-95800100D03*
X165200660Y-88300100D03*
X132700660Y-88300100D03*
X157700660Y-75800100D03*
X157700660Y-78300100D03*
X160200660Y-75800100D03*
X162700660Y-83300100D03*
X160200660Y-80800100D03*
X157700660Y-80800100D03*
X162700660Y-80800100D03*
X167700660Y-85800100D03*
X162700660Y-75800100D03*
X160200660Y-78300100D03*
X165200660Y-85800100D03*
X160200660Y-83300100D03*
X157700660Y-85800100D03*
X160200660Y-85800100D03*
X157700660Y-83300100D03*
X162700660Y-85800100D03*
X162700660Y-78300100D03*
X145200660Y-85800100D03*
X150200660Y-83300100D03*
X155200660Y-83300100D03*
X152700660Y-83300100D03*
X155200660Y-80800100D03*
X152700660Y-80800100D03*
X152700660Y-78300100D03*
X150200660Y-75800100D03*
X150200660Y-80800100D03*
X150200660Y-78300100D03*
X145200660Y-80800100D03*
X150200660Y-85800100D03*
X155200660Y-85800100D03*
X152700660Y-85800100D03*
X152700660Y-75800100D03*
X155200660Y-78300100D03*
X145200660Y-78300100D03*
X145200660Y-83300100D03*
X155200660Y-75800100D03*
X145200660Y-75800100D03*
X137700660Y-80800100D03*
X135200660Y-80800100D03*
X132700660Y-80800100D03*
X142700660Y-78300100D03*
X137700660Y-78300100D03*
X135200660Y-75800100D03*
X132700660Y-75800100D03*
X142700660Y-85800100D03*
X137700660Y-85800100D03*
X135200660Y-85800100D03*
X132700660Y-85800100D03*
X142700660Y-83300100D03*
X137700660Y-83300100D03*
X135200660Y-83300100D03*
X132700660Y-83300100D03*
X142700660Y-80800100D03*
X135200660Y-78300100D03*
X132700660Y-78300100D03*
X142700660Y-75800100D03*
X137700660Y-75800100D03*
X130200660Y-85800100D03*
X127700660Y-85800100D03*
X125200660Y-85800100D03*
X122700660Y-85800100D03*
X120200660Y-85800100D03*
X130200660Y-83300100D03*
X127700660Y-83300100D03*
X125200660Y-83300100D03*
X122700660Y-83300100D03*
X130200660Y-80800100D03*
X127700660Y-80800100D03*
X125200660Y-80800100D03*
X122700660Y-80800100D03*
X130200660Y-78300100D03*
X127700660Y-78300100D03*
X125200660Y-78300100D03*
X130200660Y-75800100D03*
X127700660Y-75800100D03*
X125200660Y-75800100D03*
D11*
X140200660Y-70800100D03*
M02*
