M48
METRIC,TZ
T1C1.000
%
G90
G05
T1
X122701Y-83300
X157701Y-105800
X162701Y-110800
X125201Y-118300
X122701Y-100800
X117701Y-93300
X127701Y-115800
X142701Y-83300
X137701Y-88300
X150201Y-75800
X155201Y-100800
X125201Y-115800
X155201Y-105800
X167701Y-98300
X135201Y-108300
X160201Y-103300
X157701Y-103300
X145201Y-103300
X127701Y-118300
X130201Y-108300
X127701Y-110800
X145201Y-98300
X135201Y-93300
X152701Y-103300
X135201Y-110800
X142701Y-108300
X125201Y-88300
X137701Y-83300
X167701Y-93300
X155201Y-95800
X150201Y-115800
X155201Y-75800
X130201Y-120800
X160201Y-115800
X132701Y-118300
X157701Y-118300
X127701Y-103300
X135201Y-100800
X130201Y-105800
X150201Y-103300
X167701Y-105800
X145201Y-115800
X155201Y-115800
X165201Y-85800
X142701Y-75800
X160201Y-100800
X132701Y-88300
X135201Y-105800
X152701Y-90800
X165201Y-110800
X127701Y-90800
X160201Y-83300
X137701Y-113300
X135201Y-88300
X152701Y-88300
X130201Y-113300
X145201Y-90800
X167701Y-108300
X122701Y-115800
X165201Y-108300
X170201Y-103300
X160201Y-118300
X160201Y-93300
X135201Y-75800
X132701Y-115800
X142701Y-88300
X162701Y-78300
X135201Y-120800
X125201Y-83300
X157701Y-110800
X152701Y-100800
X120201Y-88300
X130201Y-98300
X152701Y-75800
X160201Y-80800
X152701Y-95800
X165201Y-80800
X132701Y-98300
X167701Y-85800
X145201Y-80800
X120201Y-110800
X145201Y-100800
X135201Y-80800
X167701Y-88300
X142701Y-118300
X127701Y-120800
X165201Y-95800
X132701Y-103300
X152701Y-78300
X150201Y-83300
X135201Y-118300
X122701Y-105800
X170201Y-95800
X117701Y-103300
X165201Y-98300
X150201Y-88300
X132701Y-120800
X157701Y-98300
X162701Y-113300
X137701Y-93300
X117701Y-95800
X137701Y-95800
X130201Y-88300
X130201Y-115800
X127701Y-85800
X160201Y-95800
X157701Y-100800
X155201Y-120800
X120201Y-98300
X150201Y-108300
X120201Y-95800
X167701Y-100800
X132701Y-85800
X137701Y-118300
X132701Y-113300
X125201Y-98300
X137701Y-110800
X155201Y-88300
X160201Y-90800
X165201Y-115800
X117701Y-100800
X150201Y-110800
X145201Y-105800
X145201Y-108300
X162701Y-85800
X132701Y-93300
X142701Y-90800
X155201Y-103300
X127701Y-88300
X150201Y-93300
X125201Y-110800
X122701Y-113300
X120201Y-85800
X145201Y-83300
X155201Y-118300
X130201Y-103300
X157701Y-75800
X165201Y-100800
X127701Y-75800
X165201Y-113300
X157701Y-83300
X160201Y-78300
X157701Y-115800
X162701Y-108300
X127701Y-93300
X142701Y-85800
X150201Y-78300
X145201Y-118300
X137701Y-98300
X137701Y-78300
X142701Y-95800
X135201Y-98300
X167701Y-90800
X137701Y-115800
X145201Y-85800
X135201Y-113300
X145201Y-78300
X162701Y-120800
X132701Y-83300
X132701Y-75800
X120201Y-93300
X142701Y-113300
X132701Y-95800
X170201Y-100800
X142701Y-80800
X127701Y-83300
X150201Y-120800
X135201Y-90800
X145201Y-113300
X152701Y-85800
X132701Y-78300
X132701Y-108300
X127701Y-78300
X157701Y-95800
X142701Y-103300
X130201Y-85800
X157701Y-80800
X127701Y-108300
X152701Y-120800
X125201Y-103300
X137701Y-80800
X145201Y-93300
X155201Y-93300
X162701Y-88300
X127701Y-95800
X155201Y-113300
X160201Y-85800
X150201Y-98300
X160201Y-120800
X155201Y-90800
X160201Y-113300
X160201Y-88300
X152701Y-83300
X152701Y-80800
X125201Y-105800
X152701Y-98300
X165201Y-83300
X145201Y-95800
X132701Y-110800
X170201Y-98300
X157701Y-78300
X155201Y-98300
X160201Y-105800
X152701Y-105800
X120201Y-90800
X165201Y-88300
X125201Y-113300
X162701Y-83300
X135201Y-95800
X120201Y-103300
X157701Y-120800
X122701Y-98300
X122701Y-95800
X160201Y-108300
X125201Y-85800
X130201Y-100800
X162701Y-103300
X135201Y-85800
X130201Y-110800
X155201Y-85800
X142701Y-120800
X145201Y-110800
X162701Y-98300
X142701Y-93300
X162701Y-115800
X157701Y-108300
X137701Y-120800
X162701Y-105800
X125201Y-108300
X127701Y-105800
X122701Y-108300
X165201Y-90800
X152701Y-113300
X122701Y-85800
X120201Y-105800
X137701Y-100800
X152701Y-108300
X125201Y-93300
X130201Y-75800
X162701Y-75800
X162701Y-80800
X125201Y-100800
X150201Y-80800
X142701Y-78300
X117701Y-98300
X130201Y-78300
X162701Y-100800
X152701Y-118300
X145201Y-88300
X165201Y-105800
X120201Y-100800
X137701Y-85800
X145201Y-75800
X132701Y-105800
X135201Y-115800
X155201Y-83300
X130201Y-118300
X132701Y-90800
X162701Y-90800
X135201Y-83300
X162701Y-95800
X122701Y-93300
X152701Y-93300
X157701Y-88300
X130201Y-83300
X150201Y-95800
X135201Y-103300
X152701Y-115800
X130201Y-90800
X132701Y-100800
X135201Y-78300
X125201Y-78300
X137701Y-90800
X130201Y-95800
X137701Y-75800
X160201Y-110800
X150201Y-118300
X150201Y-105800
X160201Y-98300
X125201Y-90800
X157701Y-85800
X162701Y-93300
X142701Y-100800
X127701Y-113300
X122701Y-88300
X142701Y-98300
X157701Y-90800
X155201Y-80800
X167701Y-110800
X167701Y-103300
X152701Y-110800
X137701Y-105800
X157701Y-93300
X130201Y-93300
X155201Y-108300
X122701Y-90800
X150201Y-90800
X137701Y-108300
X160201Y-75800
X127701Y-80800
X125201Y-75800
X127701Y-98300
X125201Y-95800
X170201Y-93300
X155201Y-78300
X122701Y-110800
X122701Y-80800
X150201Y-85800
X120201Y-108300
X150201Y-100800
X142701Y-115800
X167701Y-95800
X137701Y-103300
X130201Y-80800
X145201Y-120800
X125201Y-120800
X127701Y-100800
X155201Y-110800
X122701Y-103300
X162701Y-118300
X142701Y-110800
X165201Y-93300
X157701Y-113300
X150201Y-113300
X125201Y-80800
X165201Y-103300
X142701Y-105800
X132701Y-80800
T0
M30
