<?xml version="1.0" encoding="UTF-8" standalone="no"?>
<!-- Created with Inkscape (http://www.inkscape.org/) -->

<svg
   xmlns:osb="http://www.openswatchbook.org/uri/2009/osb"
   xmlns:dc="http://purl.org/dc/elements/1.1/"
   xmlns:cc="http://creativecommons.org/ns#"
   xmlns:rdf="http://www.w3.org/1999/02/22-rdf-syntax-ns#"
   xmlns:svg="http://www.w3.org/2000/svg"
   xmlns="http://www.w3.org/2000/svg"
   xmlns:sodipodi="http://sodipodi.sourceforge.net/DTD/sodipodi-0.dtd"
   xmlns:inkscape="http://www.inkscape.org/namespaces/inkscape"
   width="100mm"
   height="100mm"
   viewBox="0 0 354.33071 354.3307"
   id="svg2"
   version="1.1"
   inkscape:version="0.91 r13725"
   sodipodi:docname="logo_pcb_relleno.svg">
  <defs
     id="defs4">
    <linearGradient
       id="linearGradient5612"
       osb:paint="solid">
      <stop
         style="stop-color:#000000;stop-opacity:1;"
         offset="0"
         id="stop5614" />
    </linearGradient>
  </defs>
  <sodipodi:namedview
     id="base"
     pagecolor="#ffffff"
     bordercolor="#666666"
     borderopacity="1.0"
     inkscape:pageopacity="0.0"
     inkscape:pageshadow="2"
     inkscape:zoom="1.2871553"
     inkscape:cx="415.47534"
     inkscape:cy="12.529353"
     inkscape:document-units="mm"
     inkscape:current-layer="layer3"
     showgrid="false"
     units="mm"
     inkscape:window-width="1858"
     inkscape:window-height="1053"
     inkscape:window-x="62"
     inkscape:window-y="27"
     inkscape:window-maximized="1" />
  <metadata
     id="metadata7">
    <rdf:RDF>
      <cc:Work
         rdf:about="">
        <dc:format>image/svg+xml</dc:format>
        <dc:type
           rdf:resource="http://purl.org/dc/dcmitype/StillImage" />
        <dc:title />
      </cc:Work>
    </rdf:RDF>
  </metadata>
  <g
     inkscape:label="Edge.Cuts"
     inkscape:groupmode="layer"
     id="layer1"
     transform="translate(0,-698.03155)"
     style="display:none">
    <path
       inkscape:connector-curvature="0"
       id="path5665"
       d="m 21.460938,717.71903 c -4.335831,-0.073 -8.748793,1.61146 -12.0468755,5.18946 -7.5259422,8.16468 -5.3107105,20.32108 4.6542965,25.62109 1.690782,0.89927 4.272746,1.278 6.908204,1.25196 2.635457,-0.026 5.304157,-0.4649 7.148438,-1.38086 l 2.404296,-1.19336 1.785156,2.14843 c 1.145995,1.37741 9.195901,10.74149 17.937501,20.86719 l 15.595703,18.06445 -5.388672,5.53711 c -2.685667,2.76058 -4.125957,4.27642 -4.93164,5.55079 -0.805684,1.27436 -0.917296,2.31923 -0.916016,3.82227 0.0017,1.94161 0.199129,3.33955 1.560547,5.62694 1.361418,2.28739 3.864954,5.52835 8.546875,11.48242 2.011645,2.55826 3.840728,4.94142 5.164062,6.71681 0.661668,0.88769 1.196239,1.62459 1.5625,2.15039 0.183131,0.2629 0.324507,0.47505 0.414064,0.61913 0.02184,0.0351 0.0297,0.05 0.04492,0.0762 -0.0052,0.0154 -0.0073,0.0211 -0.01367,0.0391 -0.04263,0.12092 -0.109684,0.29686 -0.197266,0.51366 -0.175164,0.43363 -0.432777,1.03646 -0.75,1.75977 -0.634445,1.44662 -1.511625,3.37646 -2.476562,5.4375 -1.943892,4.15205 -4.422657,10.28516 -5.535157,13.70118 -0.548955,1.68562 -1.067244,3.2418 -1.458985,4.38866 -0.195869,0.57344 -0.360534,1.04348 -0.480467,1.37501 -0.04897,0.13535 -0.08473,0.23015 -0.117188,0.31445 -0.0053,8.8e-4 -0.0063,8.8e-4 -0.01172,0.002 -0.163477,0.0306 -0.41193,0.071 -0.728514,0.11914 -0.633172,0.0963 -1.544246,0.22353 -2.66211,0.3711 -2.235731,0.29512 -5.299727,0.67367 -8.648438,1.06445 -7.462382,0.87082 -11.713703,1.43782 -14.453125,2.1582 -2.739422,0.72037 -4.00597,1.65989 -5.220703,3.10352 l -1.976563,2.34961 0,22.79101 0,22.80664 2.191406,2.34375 c 1.238506,1.32582 2.078846,2.12064 4.183594,2.69921 2.104748,0.57859 5.48267,1.01087 12.111328,1.84961 4.794894,0.60672 9.654519,0.93456 26.119142,1.125 l 0,12.67579 0.244141,0 c 0.0091,0.0258 0.0077,0.0524 0.01757,0.082 0.05904,0.17656 0.140169,0.39201 0.24414,0.64843 0.207943,0.51287 0.504572,1.18675 0.869141,1.98242 0.729137,1.59138 1.73257,3.6649 2.835937,5.84181 l 3.861328,7.61914 -2.642578,3.4668 c -1.550019,2.03547 -5.783925,7.44727 -9.398437,12.01172 -1.81519,2.29223 -3.464561,4.54104 -4.667969,6.32617 -0.601705,0.89256 -1.091279,1.6686 -1.4375,2.28515 -0.17311,0.30828 -0.310423,0.57464 -0.410156,0.80664 -0.09973,0.232 -0.17572,0.40616 -0.177734,0.65821 -0.0028,0.33915 0.129453,0.53934 0.300781,0.82812 0.171327,0.28877 0.410771,0.63057 0.724609,1.03711 0.627677,0.81309 1.55008,1.88351 2.761719,3.21485 2.423277,2.66268 6.004729,6.35794 10.669922,11.00195 5.819051,5.79264 9.464153,9.33517 11.816403,11.39257 1.176128,1.0288 2.025406,1.6867 2.69336,2.0801 0.667955,0.3935 1.217955,0.5649 1.722659,0.3731 0.192332,-0.073 0.353395,-0.1774 0.609373,-0.3418 0.255979,-0.1645 0.57759,-0.383 0.960939,-0.6524 0.766688,-0.5388 1.777822,-1.2795 2.9668,-2.1699 2.377937,-1.78092 5.463703,-4.16035 8.687493,-6.71487 l 11.45508,-9.07618 6.4082,3.42188 c 7.12975,3.80802 18.39991,8.26215 24.51563,9.67383 0.96747,0.22332 1.84923,0.50303 2.46484,0.75976 0.30781,0.12837 0.55037,0.25391 0.6875,0.34571 0.0449,0.03 0.0556,0.0422 0.0742,0.0586 0.006,0.0933 0.0102,0.16862 0.0274,0.33987 0.0247,0.246 0.0611,0.5843 0.10741,1.0039 0.0926,0.8391 0.22575,2.0056 0.39063,3.418 0.32976,2.8247 0.78514,6.6282 1.28517,10.7285 0.70883,5.8125 1.22866,9.5928 1.6953,12.0312 0.23331,1.2192 0.45323,2.1019 0.68555,2.752 0.23232,0.65 0.47046,1.0878 0.84179,1.3652 0.28162,0.2104 0.55149,0.252 0.95899,0.332 0.4075,0.08 0.92647,0.1522 1.54882,0.2168 1.24471,0.1293 2.90367,0.2322 4.84375,0.3145 3.88019,0.1646 8.8796,0.2393 13.85938,0.2266 4.97979,-0.013 9.9371,-0.1127 13.73047,-0.2969 1.89669,-0.092 3.50045,-0.2041 4.68165,-0.3399 0.59059,-0.068 1.0746,-0.1408 1.44922,-0.2246 0.18729,-0.042 0.34718,-0.085 0.49022,-0.1406 0.14305,-0.055 0.27587,-0.1018 0.41993,-0.2754 0.19373,-0.2334 0.21605,-0.4009 0.30078,-0.6875 0.0847,-0.2866 0.17529,-0.6539 0.27343,-1.1035 0.19629,-0.8991 0.42125,-2.1194 0.66406,-3.5801 0.48566,-2.9214 1.03849,-6.8031 1.54298,-10.9492 0.50324,-4.1359 1.01639,-7.9453 1.43555,-10.7441 0.20957,-1.3995 0.39563,-2.5468 0.54491,-3.3516 0.0746,-0.4024 0.13942,-0.7196 0.19141,-0.93166 0.0185,-0.0753 0.0335,-0.11746 0.0469,-0.1621 0.0312,-0.0182 0.004,-0.002 0.0723,-0.0312 0.13158,-0.0575 0.32257,-0.13383 0.56055,-0.22462 0.47594,-0.18157 1.14335,-0.42027 1.94531,-0.69727 1.60392,-0.55397 3.75371,-1.26186 6.0586,-1.98828 4.66315,-1.46965 12.25488,-4.5945 16.95898,-6.98046 l 8.19922,-4.16016 11.02539,8.6914 c 3.10309,2.44625 6.11366,4.77039 8.46875,6.54685 1.17754,0.8883 2.1903,1.6391 2.9707,2.2012 0.7804,0.5621 1.29422,0.9196 1.60937,1.086 0.44189,0.2332 1.00285,0.4087 1.64454,0.2167 0.64168,-0.1919 1.34788,-0.6597 2.41992,-1.5546 2.14407,-1.79 5.74789,-5.35124 12.58398,-12.1563 4.67986,-4.65863 8.2728,-8.36399 10.70313,-11.03321 1.21516,-1.33461 2.13819,-2.40804 2.76757,-3.22264 0.3147,-0.40732 0.55676,-0.74799 0.72852,-1.03712 0.17176,-0.28913 0.30357,-0.49032 0.30078,-0.83008 -0.002,-0.25217 -0.078,-0.42617 -0.17773,-0.65821 -0.0997,-0.23203 -0.23704,-0.49835 -0.41015,-0.80664 -0.34622,-0.61655 -0.83578,-1.39259 -1.43751,-2.28515 -1.20345,-1.78512 -2.85277,-4.03394 -4.66797,-6.32617 -3.61456,-4.56452 -7.85048,-9.9764 -9.40039,-12.01171 l -2.64062,-3.46681 3.85937,-7.61914 c 1.10336,-2.1769 2.1068,-4.25043 2.83594,-5.8418 0.36457,-0.79567 0.66121,-1.46956 0.86914,-1.98242 0.10398,-0.25642 0.1851,-0.47187 0.24414,-0.64844 0.059,-0.17655 0.10742,-0.26799 0.10742,-0.48828 0,-0.11732 -0.0758,-0.11471 -0.11328,-0.18944 l 0,-11.93556 c 15.72665,-0.18453 19.76161,-0.55093 25.49805,-1.25976 3.32351,-0.41066 6.61268,-0.9112 9.24219,-1.38868 1.31476,-0.23873 2.46437,-0.47135 3.375,-0.68554 0.91062,-0.21418 1.56264,-0.39548 1.98046,-0.59375 1.10165,-0.52277 2.00931,-0.99175 2.7129,-1.82813 0.70359,-0.83637 1.15275,-1.99101 1.44921,-3.78515 0.59294,-3.5883 0.61719,-9.85773 0.61719,-22.03711 l 0,-22.18164 -1.97461,-2.34961 c -1.21326,-1.44188 -2.4759,-2.38045 -5.21678,-3.10352 -2.74091,-0.72306 -7.00019,-1.29666 -14.48244,-2.18164 -3.35517,-0.39683 -6.42255,-0.77947 -8.6582,-1.07422 -1.11782,-0.14737 -2.02812,-0.27253 -2.66015,-0.36719 -0.31602,-0.0473 -0.56335,-0.0876 -0.72657,-0.11718 -8.7e-4,-1.7e-4 -8.7e-4,1.6e-4 -0.002,0 -0.031,-0.0825 -0.0632,-0.16967 -0.10938,-0.29883 -0.11777,-0.32959 -0.28033,-0.79936 -0.47461,-1.37109 -0.38855,-1.14347 -0.90605,-2.69701 -1.45507,-4.38282 -1.11244,-3.41584 -3.58926,-9.549 -5.5332,-13.70117 -0.9649,-2.06095 -1.84368,-3.99431 -2.47852,-5.4453 -0.31743,-0.72551 -0.57281,-1.32929 -0.74805,-1.76564 -0.0876,-0.21817 -0.1566,-0.39537 -0.19922,-0.51757 -0.007,-0.02 -0.008,-0.028 -0.0137,-0.0449 0.0196,-0.0338 0.0334,-0.06 0.0644,-0.10936 0.10321,-0.1641 0.26423,-0.40126 0.47266,-0.69923 0.41684,-0.59592 1.02409,-1.43246 1.77539,-2.44141 1.50259,-2.01787 3.57896,-4.73131 5.86133,-7.65039 2.28904,-2.9276 4.41759,-5.78751 6.00975,-8.04297 0.7961,-1.12771 1.45915,-2.10429 1.94142,-2.86718 0.24113,-0.38144 0.43581,-0.70827 0.58398,-0.98046 0.14818,-0.27221 0.24928,-0.47065 0.30469,-0.69141 0.51757,-2.06219 0.45523,-3.92404 -0.37305,-5.84961 -0.82827,-1.92558 -2.38448,-3.90848 -4.8125,-6.37891 l -4.33203,-4.40625 15.95703,-18.42187 c 8.94192,-10.32409 17.1554,-19.84748 18.3045,-21.22839 l 1.79102,-2.15625 2.08985,0.99219 c 7.83124,3.71616 16.33804,1.3877 20.96875,-5.75391 1.60759,-2.4793 1.94921,-3.95074 1.94921,-8.46875 -10e-6,-3.00221 -0.12053,-4.89426 -0.74999,-6.56055 -0.62946,-1.66628 -1.74624,-3.03323 -3.62306,-4.99609 -7.44927,-7.79083 -20.71957,-5.5497 -25.64257,4.30469 -1.92007,3.84339 -2.25053,7.98221 -0.89257,11.63672 0.3223,0.8674 0.63003,1.80171 0.86327,2.59765 0.22564,0.76994 0.36958,1.40749 0.40039,1.67774 -0.0314,0.059 -0.0975,0.16197 -0.1953,0.29101 -0.19571,0.2581 -0.51464,0.62323 -0.94533,1.07813 -0.86135,0.9098 -2.17388,2.18421 -3.91795,3.80273 -3.48818,3.23704 -8.70662,7.85616 -15.56446,13.77149 l -20.57423,17.74414 -5.91211,-5.88477 c -2.80982,-2.79681 -4.45702,-4.3721 -5.82031,-5.31836 -1.36329,-0.94625 -2.46572,-1.23317 -3.94921,-1.40039 -1.93341,-0.21792 -3.99589,-0.0572 -5.14648,0.5586 -0.29829,0.15963 -0.77625,0.49402 -1.49806,1.01367 -0.7218,0.51965 -1.65597,1.21133 -2.73828,2.02734 -2.1646,1.63203 -4.92277,3.76119 -7.7578,5.9961 l -10.05469,7.92578 -6.85156,-3.32227 c -3.95416,-1.91796 -10.32587,-4.51579 -14.23438,-5.80078 -1.92273,-0.63214 -3.67275,-1.29527 -4.92969,-1.84766 -0.62848,-0.27619 -1.13583,-0.527 -1.46485,-0.7207 -0.1578,-0.0929 -0.26934,-0.1715 -0.32812,-0.2207 -0.007,-0.0902 -0.0107,-0.16434 -0.0274,-0.32422 -0.0246,-0.23695 -0.0601,-0.55635 -0.10547,-0.95117 -0.0906,-0.78965 -0.22109,-1.87768 -0.38086,-3.1875 -0.31952,-2.61965 -0.75735,-6.12556 -1.23828,-9.88282 -0.85019,-6.64233 -1.29919,-10.06745 -1.82422,-12.16797 -0.52504,-2.10051 -1.19924,-2.91407 -2.28906,-4.0039 l -2.36914,-2.36914 -23.28125,0 -23.2832,0 -2.42774,2.42773 c -1.1221,1.12211 -1.80869,1.9273 -2.33203,3.97461 -0.52335,2.04731 -0.95423,5.36678 -1.77929,11.83789 -0.4644,3.64227 -0.88828,7.08169 -1.19728,9.69141 -0.1545,1.30486 -0.27937,2.40255 -0.36718,3.21484 -0.0878,0.8123 -0.13948,1.28881 -0.14259,1.53711 1.8e-4,-0.0131 -0.0137,0.0887 -0.23436,0.27735 -0.22071,0.18868 -0.60961,0.43108 -1.16016,0.70117 -1.10109,0.54017 -2.85007,1.20281 -5.31641,2.01367 -3.90866,1.28505 -10.30156,3.89195 -14.28124,5.82227 l -6.89844,3.3457 -9.53712,-7.52149 -0.002,0 c -6.65823,-5.24957 -9.9309,-7.84878 -12.117186,-9.12109 -2.186276,-1.27231 -3.376919,-1.15812 -5.351563,-0.93555 -1.51493,0.17076 -2.617179,0.44258 -3.906249,1.29883 -1.289073,0.85625 -2.770146,2.25936 -5.259766,4.73438 l -5.224792,5.19336 -20.408203,-17.56055 c -7.177928,-6.17504 -12.337349,-10.72443 -15.664063,-13.81836 -1.663357,-1.54696 -2.87105,-2.73167 -3.632813,-3.5625 -0.380881,-0.41542 -0.650773,-0.74455 -0.802735,-0.9668 -0.06508,-0.0952 -0.09533,-0.15712 -0.115233,-0.19922 0.20626,-0.63193 0.858412,-2.47591 1.486328,-4.18945 1.3829,-3.77386 0.986449,-7.87024 -1.117188,-12 -2.822866,-5.54173 -8.28687,-8.54083 -13.861328,-8.63477 z m -0.01562,1 c 5.228186,0.0881 10.333766,2.8805 12.986329,8.0879 2.006505,3.93907 2.352468,7.70418 1.070312,11.20312 -0.645925,1.76269 -1.332074,3.68836 -1.539062,4.33203 -0.07677,0.23871 -0.01267,0.40366 0.04492,0.54492 0.05759,0.14127 0.135995,0.27319 0.236329,0.41993 0.200666,0.29347 0.492304,0.64368 0.890625,1.07812 0.79664,0.86887 2.014321,2.06305 3.6875,3.61914 3.346356,3.11219 8.510995,7.66489 15.693359,13.84375 l 21.111328,18.16211 5.876954,-5.8418 c 2.482317,-2.46775 3.949321,-3.84273 5.109372,-4.61328 1.160053,-0.77055 2.007988,-0.97424 3.466796,-1.13867 1.984521,-0.22369 2.687921,-0.38235 4.734379,0.80859 2.046458,1.19095 5.343281,3.7911 12.001951,9.04102 l 10.02929,7.9082 7.46486,-3.61914 c 3.91884,-1.9008 10.32214,-4.51095 14.15625,-5.77148 2.48586,-0.81728 4.25969,-1.48281 5.4453,-2.06445 0.59281,-0.29082 1.03797,-0.55839 1.36719,-0.83985 0.32922,-0.28146 0.58063,-0.60899 0.58594,-1.02539 8.5e-4,-0.0669 0.0495,-0.63488 0.13672,-1.44141 0.0872,-0.80652 0.21098,-1.9023 0.36524,-3.20507 0.3085,-2.60555 0.73321,-6.04396 1.19727,-9.6836 0.82492,-6.47001 1.26491,-9.79624 1.75585,-11.71679 0.49094,-1.92056 0.96203,-2.40539 2.07031,-3.51368 l 2.13477,-2.13476 22.86914,0 22.86719,0 2.07618,2.07617 c 1.07189,1.0719 1.53251,1.55945 2.02733,3.53906 0.49483,1.97961 0.95075,5.41365 1.80079,12.05469 0.48071,3.75557 0.9191,7.25818 1.23828,9.875 0.15959,1.30841 0.28879,2.39422 0.37891,3.17969 0.0451,0.39273 0.0816,0.71083 0.10546,0.9414 0.0239,0.23058 0.0354,0.40494 0.0351,0.39258 0.006,0.35791 0.18628,0.46058 0.32031,0.57617 0.13402,0.1156 0.29177,0.21944 0.48633,0.33399 0.38912,0.22909 0.9204,0.48782 1.57031,0.77344 1.29982,0.57123 3.07086,1.24215 5.01953,1.88281 3.83427,1.26058 10.21633,3.86167 14.10938,5.75 l 7.41797,3.5957 10.54296,-8.3125 c 2.82981,-2.23077 5.58524,-4.35617 7.74219,-5.98242 1.07848,-0.81313 2.0086,-1.50295 2.72071,-2.01563 0.71211,-0.51267 1.23865,-0.86216 1.38671,-0.9414 0.71323,-0.38171 2.78487,-0.64936 4.56055,-0.44922 1.42115,0.16019 2.2487,0.36737 3.49219,1.23047 1.24348,0.86309 2.87986,2.41239 5.68359,5.20312 l 6.57227,6.54102 21.27344,-18.34961 c 6.86278,-5.91959 12.08677,-10.54224 15.59179,-13.79492 1.75251,-1.62634 3.07558,-2.91033 3.96485,-3.84961 0.44463,-0.46964 0.78052,-0.85009 1.01562,-1.16016 0.11755,-0.15503 0.20937,-0.29071 0.28125,-0.42578 0.0718,-0.13507 0.14952,-0.25884 0.12695,-0.50391 -0.0408,-0.44279 -0.21051,-1.10455 -0.45117,-1.92578 -0.24066,-0.82122 -0.55335,-1.77215 -0.88476,-2.66406 -1.25385,-3.37433 -0.96308,-7.21532 0.84961,-10.84375 4.62956,-9.26703 17.05208,-11.35164 24.02539,-4.05859 1.85302,1.93799 2.85488,3.1883 3.41015,4.6582 0.55528,1.4699 0.68555,3.23297 0.68555,6.20703 0,4.47511 -0.23706,5.53221 -1.78906,7.92578 -4.38323,6.75992 -12.263,8.92325 -19.69922,5.39453 l -2.79297,-1.32421 -2.28711,2.74999 c -1.09505,1.31595 -9.35171,10.88966 -18.29297,21.2129 l -16.55859,19.12109 4.97656,5.0625 c 2.38937,2.43111 3.86138,4.33983 4.60742,6.07421 0.74604,1.7344 0.80411,3.30087 0.32422,5.2129 -0.006,0.0227 -0.0812,0.21304 -0.2129,0.45507 -0.13174,0.24204 -0.31903,0.55415 -0.55272,0.92383 -0.46739,0.73935 -1.12236,1.70548 -1.91211,2.82423 -1.57951,2.2375 -3.70263,5.08813 -5.98243,8.00391 -2.28644,2.92427 -4.3655,5.64277 -5.875,7.66991 -0.75474,1.01358 -1.36582,1.85419 -1.79296,2.46485 -0.21359,0.30532 -0.38086,0.55276 -0.50001,0.74219 -0.0595,0.0947 -0.10746,0.17372 -0.14648,0.24804 -0.0195,0.0371 -0.0371,0.0727 -0.0547,0.11718 -0.0176,0.0445 -0.0449,0.0825 -0.0449,0.22462 0,0.13088 0.0203,0.166 0.0371,0.22655 0.0167,0.0606 0.0367,0.12342 0.0625,0.19728 0.0515,0.14772 0.12389,0.33405 0.21485,0.56055 0.18193,0.45299 0.43989,1.06577 0.75976,1.79687 0.63976,1.4622 1.5203,3.40119 2.48829,5.46875 1.92179,4.10484 4.40436,10.2497 5.49024,13.58399 0.55013,1.68925 1.06649,3.24718 1.45702,4.39648 0.19527,0.57464 0.35953,1.04633 0.48047,1.38477 0.0605,0.16921 0.10926,0.3048 0.14844,0.40625 0.0196,0.0507 0.0363,0.0929 0.0527,0.13086 0.0165,0.038 -0.012,0.0292 0.0937,0.1621 3.3e-4,4e-4 0.0454,0.0519 0.0644,0.0683 0.0191,0.0165 0.0366,0.0295 0.0507,0.0391 0.0284,0.0191 0.0474,0.0289 0.0644,0.0371 0.0341,0.0166 0.0551,0.0228 0.0742,0.0293 0.0382,0.0128 0.0679,0.0217 0.0996,0.0293 0.0635,0.0152 0.13531,0.0283 0.22658,0.0449 0.18254,0.0331 0.4364,0.073 0.75781,0.1211 0.64281,0.0963 1.5566,0.22328 2.67773,0.37109 2.24227,0.29561 5.31109,0.67695 8.66993,1.07422 7.4757,0.8842 11.72719,1.46547 14.3457,2.15625 2.61849,0.69078 3.56386,1.42501 4.70508,2.78125 l 1.74023,2.06836 0,21.81836 c 0,12.17765 -0.0411,18.47096 -0.60352,21.875 -0.28125,1.70202 -0.68008,2.65078 -1.22852,3.30273 -0.54843,0.65195 -1.29527,1.05704 -2.37694,1.57032 -0.2399,0.11384 -0.89417,0.31525 -1.7793,0.52343 -0.88514,0.20819 -2.02114,0.43721 -3.32423,0.67383 -2.60616,0.47323 -5.88055,0.97249 -9.18554,1.38086 -5.81003,0.71793 -9.57585,1.0841 -25.88281,1.26562 l -0.49414,0.006 0,13.22658 0.0606,0.041 c -0.003,0.008 -8.6e-4,0.002 -0.003,0.01 -0.048,0.14361 -0.12343,0.34317 -0.22266,0.58788 -0.19844,0.48943 -0.49082,1.15604 -0.85157,1.94337 -0.72145,1.57463 -1.71831,3.63819 -2.81639,5.80467 l -4.14453,8.17775 3.01953,3.9668 c 1.56424,2.05412 5.79478,7.45933 9.41212,12.02733 1.80077,2.27405 3.441,4.50741 4.625,6.26367 0.592,0.87814 1.0703,1.63744 1.39452,2.21484 0.16212,0.28872 0.28563,0.53219 0.36328,0.71291 0.0777,0.18071 0.0961,0.32184 0.0957,0.27147 -8.2e-4,-0.10085 -0.023,0.0797 -0.16015,0.31055 -0.13717,0.23089 -0.3603,0.54939 -0.66016,0.9375 -0.59972,0.77623 -1.5098,1.83667 -2.71484,3.16015 -2.41009,2.647 -5.99854,6.34787 -10.67188,11 -6.83503,6.80402 -10.45424,10.37145 -12.51953,12.09565 -1.03264,0.8621 -1.679,1.248 -2.06445,1.3633 -0.38546,0.1153 -0.52626,0.053 -0.89259,-0.1406 -0.15189,-0.08 -0.71764,-0.4587 -1.48827,-1.0137 -0.77065,-0.555 -1.78135,-1.3021 -2.95508,-2.1875 -2.34746,-1.7707 -5.35519,-4.09292 -8.45314,-6.53512 l -11.52538,-9.08593 -8.76953,4.44922 c -4.63042,2.34858 -12.23519,5.47723 -16.80664,6.91797 -2.31243,0.72878 -4.46979,1.43788 -6.08594,1.99609 -0.80807,0.27911 -1.4794,0.52081 -1.97266,0.70898 -0.24662,0.0941 -0.44909,0.17392 -0.60547,0.2422 -0.15636,0.0683 -0.22306,0.0701 -0.39648,0.2207 -0.21954,0.19065 -0.17207,0.24547 -0.20313,0.33593 -0.031,0.0905 -0.0597,0.19154 -0.0898,0.31446 -0.0603,0.24584 -0.12851,0.5755 -0.20507,0.9882 -0.15313,0.8255 -0.3402,1.9806 -0.55078,3.3867 -0.42117,2.8123 -0.93334,6.6259 -1.4375,10.7696 -0.50295,4.1334 -1.05484,8.0051 -1.53711,10.9062 -0.24114,1.4506 -0.46615,2.6603 -0.65626,3.5313 -0.0951,0.4354 -0.18079,0.7859 -0.2539,1.0332 -0.0731,0.2473 -0.18988,0.4286 -0.11133,0.334 0.0717,-0.086 0.0601,-0.048 -0.01,-0.022 -0.0698,0.027 -0.19247,0.062 -0.34962,0.098 -0.3143,0.07 -0.77307,0.1414 -1.34374,0.2071 -1.14136,0.1312 -2.7329,0.2444 -4.61719,0.3359 -3.76861,0.1831 -8.71547,0.2823 -13.6836,0.295 -4.96812,0.013 -9.95989,-0.061 -13.8164,-0.2246 -1.92825,-0.082 -3.57238,-0.187 -4.78125,-0.3125 -0.60444,-0.063 -1.10115,-0.1309 -1.45899,-0.2012 -0.35785,-0.07 -0.60421,-0.1894 -0.55469,-0.1524 -0.0993,-0.074 -0.29624,-0.3357 -0.49804,-0.9004 -0.20181,-0.5646 -0.41627,-1.4107 -0.64453,-2.6035 -0.45653,-2.3855 -0.97755,-6.1591 -1.68556,-11.9648 -0.49985,-4.0988 -0.95374,-7.9004 -1.28319,-10.7227 -0.16474,-1.4111 -0.29849,-2.5768 -0.39063,-3.4121 -0.0461,-0.4176 -0.0814,-0.7541 -0.10546,-0.9941 -0.0241,-0.24007 -0.0351,-0.43505 -0.0351,-0.38874 0,-0.22903 -0.10673,-0.37742 -0.19921,-0.48242 -0.0925,-0.105 -0.19241,-0.1833 -0.30665,-0.25977 -0.22847,-0.15292 -0.51453,-0.29368 -0.85937,-0.4375 -0.6897,-0.28763 -1.60864,-0.57443 -2.62305,-0.80859 -5.92605,-1.3679 -17.24148,-5.83026 -24.26953,-9.58398 l -6.98633,-3.73047 -11.9707,9.48242 c -3.21741,2.54947 -6.298163,4.92784 -8.666015,6.70125 -1.18393,0.8866 -2.1906,1.6213 -2.943358,2.1504 -0.376384,0.2645 -0.689104,0.4788 -0.925782,0.6308 -0.236686,0.1521 -0.42636,0.249 -0.423832,0.2481 -0.05597,0.021 -0.296113,0.031 -0.859372,-0.3008 -0.563259,-0.3318 -1.386331,-0.9627 -2.541015,-1.9727 -2.309371,-2.01993 -5.9541,-5.55668 -11.769531,-11.34572 -4.658628,-4.63748 -8.235691,-8.32642 -10.638672,-10.9668 -1.20149,-1.32019 -2.111008,-2.37968 -2.708984,-3.1543 -0.298988,-0.38731 -0.519505,-0.70506 -0.65625,-0.93554 -0.136744,-0.23048 -0.159342,-0.41083 -0.160156,-0.31055 -4.02e-4,0.0502 0.01801,-0.0907 0.0957,-0.27148 0.07769,-0.18074 0.201154,-0.42418 0.363281,-0.7129 0.324254,-0.57743 0.802552,-1.3367 1.394531,-2.21484 1.183958,-1.75627 2.824229,-3.98964 4.625001,-6.26367 3.61739,-4.56808 7.846052,-9.97338 9.410155,-12.02734 l 3.021485,-3.9668 -4.146485,-8.17774 c -1.098086,-2.16648 -2.094929,-4.23004 -2.816406,-5.80468 -0.360738,-0.78733 -0.653116,-1.45393 -0.851562,-1.94336 -0.09922,-0.24472 -0.174632,-0.44428 -0.222657,-0.58789 -0.01737,-0.052 -0.01115,-0.0242 -0.01953,-0.0625 l 0.628906,-0.70313 -0.820311,0 0,-12.6582 -0.494141,-0.006 c -17.023101,-0.18896 -21.6735,-0.5181 -26.50042,-1.12888 -6.627642,-0.83861 -10.012365,-1.28339 -11.972655,-1.82225 -1.960291,-0.53887 -2.487383,-1.10188 -3.716798,-2.41797 l -1.921874,-2.05469 0,-22.41211 0,-22.42773 1.742187,-2.06837 c 1.142284,-1.35753 2.092383,-2.09122 4.708985,-2.77929 2.616601,-0.68807 6.860676,-1.26473 14.316405,-2.13476 3.352868,-0.39126 6.418948,-0.77031 8.662111,-1.06641 1.121581,-0.14807 2.036489,-0.27497 2.68164,-0.37305 0.322576,-0.0491 0.576999,-0.0904 0.761719,-0.125 0.09236,-0.0173 0.16703,-0.0325 0.232422,-0.0488 0.0327,-0.008 0.06203,-0.0153 0.101562,-0.0293 0.01977,-0.007 0.04218,-0.0159 0.07617,-0.0332 0.01699,-0.009 0.03563,-0.0184 0.0625,-0.0371 0.01343,-0.009 0.02946,-0.0218 0.04687,-0.0371 0.01742,-0.0153 0.05822,-0.0601 0.05859,-0.0606 0.09949,-0.12173 0.07985,-0.12627 0.09766,-0.16602 0.01781,-0.0398 0.03613,-0.0828 0.05665,-0.13476 0.04101,-0.10383 0.09054,-0.23931 0.152344,-0.41016 0.123608,-0.34169 0.289321,-0.81777 0.486328,-1.39453 0.39401,-1.15352 0.912693,-2.71291 1.462889,-4.40234 1.085826,-3.33411 3.57034,-9.47903 5.492189,-13.58399 0.967933,-2.06745 1.847155,-4.00354 2.486328,-5.46094 0.319586,-0.7287 0.578125,-1.33746 0.759766,-1.78711 0.09082,-0.22482 0.163473,-0.40898 0.214843,-0.55468 0.02568,-0.0729 0.04573,-0.13587 0.0625,-0.19532 0.01676,-0.0594 0.03711,-0.091 0.03711,-0.22656 0,-0.26355 -0.05788,-0.25819 -0.09375,-0.32812 -0.03587,-0.0699 -0.07769,-0.14297 -0.13086,-0.22852 -0.106343,-0.17109 -0.254699,-0.39127 -0.443359,-0.66211 -0.377317,-0.54167 -0.916609,-1.28305 -1.582031,-2.17578 -1.330845,-1.78546 -3.163518,-4.17232 -5.179688,-6.73633 -4.679734,-5.95129 -7.17536,-9.1973 -8.472656,-11.37695 -1.297296,-2.17965 -1.418204,-3.22881 -1.419922,-5.11523 -0.0012,-1.46477 0.05607,-2.17293 0.761719,-3.28908 0.705648,-1.11613 2.11909,-2.62826 4.800781,-5.38475 l 6.02929,-6.19718 L 51.009767,769.5706 C 42.26905,759.44592 34.181749,750.03457 33.083984,748.71513 l -2.292967,-2.75391 -3.111328,1.54492 c -1.60606,0.79766 -4.187791,1.25042 -6.714844,1.27539 -2.527055,0.025 -5.019683,-0.38587 -6.427736,-1.13476 -9.4649182,-5.03403 -11.5169394,-16.32534 -4.388671,-24.05859 3.103223,-3.3666 7.230663,-4.93766 11.29688,-4.86915 z"
       style="color:#000000;font-style:normal;font-variant:normal;font-weight:normal;font-stretch:normal;font-size:medium;line-height:normal;font-family:sans-serif;text-indent:0;text-align:start;text-decoration:none;text-decoration-line:none;text-decoration-style:solid;text-decoration-color:#000000;letter-spacing:normal;word-spacing:normal;text-transform:none;direction:ltr;block-progression:tb;writing-mode:lr-tb;baseline-shift:baseline;text-anchor:start;white-space:normal;clip-rule:nonzero;display:inline;overflow:visible;visibility:visible;opacity:1;isolation:auto;mix-blend-mode:normal;color-interpolation:sRGB;color-interpolation-filters:linearRGB;solid-color:#000000;solid-opacity:1;fill-opacity:1;fill-rule:nonzero;stroke:none;stroke-width:1;stroke-linecap:butt;stroke-linejoin:miter;stroke-miterlimit:4;stroke-dasharray:none;stroke-dashoffset:0;stroke-opacity:1;color-rendering:auto;image-rendering:auto;shape-rendering:auto;text-rendering:auto;enable-background:accumulate"
       sodipodi:nodetypes="csscccccccscssssccccssssccccssscccccsscccccscccssscccsssccccsccccssccccsssccscscccccccccscccccscsccscscccsssscccsscccsccsccsssssssccsssccccssssccccssscsscsccccccssssscccccsccssscsscccscscccsssscccsssscccssccccssscccssccssccsssccssssccssscccsssccsssscccsssscccccsscccsssssccssscccsssssssccccccscccsssccccsccccssccccccccccccsssccscsssssccccccccccssscccssssscscsccssccsccsscscccccsccccccccscccccccscccccccscssssccssscccscccccccsscccccssccsccccccccssssssccsccsssscscccccccsss" />
  </g>
  <g
     inkscape:groupmode="layer"
     id="layer3"
     inkscape:label="SilkS"
     style="display:inline">
    <path
       style="display:inline;opacity:1;fill:#000000;fill-opacity:1;stroke:#000000;stroke-width:0.025;stroke-linecap:round;stroke-linejoin:round;stroke-miterlimit:4;stroke-dasharray:none;stroke-dashoffset:0;stroke-opacity:1"
       d="m 94.333128,171.51495 c 0.165652,-0.96731 -3.61274,-10.08196 -4.279231,-10.32283 -0.261475,-0.0945 -2.978534,-0.60925 -6.037909,-1.14388 l -5.5625,-0.97207 0.0017,-6.00066 0.0017,-6.00066 4.265515,-0.822 c 2.346032,-0.45211 5.139649,-1.09815 6.208037,-1.43565 l 1.942522,-0.61365 0.95486,-2.03477 c 0.525172,-1.11912 1.424982,-3.22933 1.999578,-4.68935 l 1.044719,-2.65458 -2.802672,-4.125 c -1.541469,-2.26875 -3.04862,-4.61182 -3.349223,-5.20682 l -0.54655,-1.08182 0.682945,-0.91818 c 0.953231,-1.28156 6.891176,-7.29318 7.203804,-7.29318 0.141118,0 2.640235,1.58562 5.553597,3.5236 4.37992,2.91354 5.39808,3.49165 5.88077,3.33912 0.32107,-0.10146 1.92567,-0.78381 3.56579,-1.51634 3.44859,-1.54025 4.65304,-2.55112 5.39158,-4.52506 0.4115,-1.09983 2.00139,-8.75217 2.00139,-9.63294 0,-0.18434 1.84425,-0.21098 6.05591,-0.0875 3.33076,0.0977 6.10358,0.22525 6.16184,0.28351 0.0582,0.0583 0.58043,2.75543 1.1604,5.99373 0.57997,3.2383 1.09777,5.925 1.15067,5.97044 0.19314,0.16592 9.24266,3.65141 9.48029,3.65141 0.13474,0 2.43338,-1.52058 5.1081,-3.37907 2.67471,-1.85849 5.00816,-3.43473 5.18545,-3.50276 0.18327,-0.0703 2.1269,1.68409 4.50513,4.06657 l 4.1828,4.19026 -3.6203,5.18608 c -1.99116,2.85235 -3.62029,5.25496 -3.62029,5.33914 0,0.0842 0.91627,2.2199 2.03616,4.74605 1.45648,3.28542 2.17786,4.63797 2.53392,4.75098 0.27378,0.0869 3.0237,0.643 6.11095,1.2358 3.08724,0.5928 5.67244,1.13709 5.74489,1.20953 0.0724,0.0725 0.0344,2.80861 -0.0846,6.08037 l -0.21631,5.94865 -1.25,0.21167 c -3.6151,0.61217 -7.50903,1.4739 -8.73797,1.9337 -1.69951,0.63587 -2.09112,1.23743 -4.20031,6.45219 -1.17782,2.91206 -1.4231,3.74485 -1.20557,4.09334 0.25856,0.41423 -0.32215,0.43741 -10.91653,0.43578 l -11.18962,-0.002 -1.31563,-3.15639 c -1.02126,-2.45019 -1.25166,-3.23346 -1.02975,-3.50085 0.15722,-0.18944 1.07242,-0.86735 2.03376,-1.50645 3.93392,-2.61526 6.1916,-8.5352 5.19991,-13.63489 -1.63442,-8.40491 -11.50416,-13.17061 -19.25049,-9.29528 -3.66972,1.83589 -6.76881,6.10735 -7.23527,9.97231 -0.57376,4.75411 1.15881,8.8482 5.49938,12.99516 l 2.04255,1.95144 -1.22223,3.0267 -1.22223,3.0267 -11.05677,0.0651 -11.056771,0.0651 0.118178,-0.69009 z"
       id="path4158"
       inkscape:connector-curvature="0"
       transform="translate(0,-1.5258789e-5)" />
    <path
       style="display:inline;opacity:1;fill:#000000;fill-opacity:1;stroke:#000000;stroke-width:0.05;stroke-linecap:round;stroke-linejoin:round;stroke-miterlimit:4;stroke-dasharray:none;stroke-dashoffset:0;stroke-opacity:1"
       d="m 166.68927,269.8895 c -7.62411,-0.88555 -18.0497,-4.14658 -25.9071,-8.1035 -10.27635,-5.17509 -21.86891,-15.02037 -28.6186,-24.30507 l -3.06312,-4.21356 0,-5.41144 0,-5.41144 67,0 67,0 0,5.8115 0,5.81151 -2.35977,3.31349 c -6.28107,8.81964 -17.17281,18.17285 -28.14023,24.16526 -12.66114,6.91783 -30.4116,10.14354 -45.91118,8.34325 z"
       id="path5618"
       inkscape:connector-curvature="0"
       transform="translate(0,-1.5258789e-5)" />
    <path
       style="display:inline;opacity:1;fill:#000000;fill-opacity:1;stroke:#000000;stroke-width:0.05;stroke-linecap:round;stroke-linejoin:round;stroke-miterlimit:4;stroke-dasharray:none;stroke-dashoffset:0;stroke-opacity:1"
       d="m 197.3793,167.07727 c -1.08414,-2.68553 -2.16152,-5.0139 -2.39419,-5.17415 -0.23267,-0.16025 -3.0019,-0.71038 -6.15384,-1.22251 l -5.73082,-0.93115 0,-5.86276 0,-5.86276 1.625,-0.33067 c 7.54147,-1.53461 10.43155,-2.41048 11.09924,-3.36374 0.39724,-0.56714 1.42611,-2.77725 2.28637,-4.91136 l 1.56411,-3.88019 -3.28736,-4.88215 c -1.80805,-2.68517 -3.28736,-5.09863 -3.28736,-5.36323 0,-0.2646 1.74375,-2.25437 3.875,-4.4217 l 3.875,-3.9406 5.25,3.50619 c 2.8875,1.92841 5.48135,3.5066 5.76411,3.50709 0.98789,0.002 7.4932,-3.36766 8.3385,-4.31889 0.9355,-1.05274 2.073,-4.96587 2.63224,-9.0552 l 0.35899,-2.625 3.12973,0 c 1.72136,0 4.4719,0.14028 6.11232,0.31174 l 2.98258,0.31174 0.8965,5.31326 c 0.49307,2.92229 1.06437,5.62177 1.26955,5.99885 0.32883,0.60432 8.44353,4.06441 9.53197,4.06441 0.23059,0 2.71919,-1.58953 5.53022,-3.53228 4.88784,-3.37808 5.14728,-3.49267 5.94292,-2.625 0.45758,0.499 2.26422,2.43275 4.01476,4.29721 l 3.18279,3.38993 -3.55074,5.15819 -3.55073,5.15819 2.03172,4.61761 c 1.35307,3.0752 2.38259,4.75017 3.08215,5.01448 0.57773,0.21829 3.36317,0.81575 6.18986,1.32769 l 5.13944,0.93081 -0.13944,5.98094 -0.13944,5.98093 -4.75,0.9178 c -2.6125,0.50479 -5.3125,1.32347 -6,1.8193 -0.77136,0.55632 -1.92009,2.55757 -3,5.22642 l -1.75,4.32491 -11.05833,0.006 -11.05834,0.006 -1.09282,-2.625 -1.09282,-2.625 1.40115,-1.10452 c 4.2253,-3.3308 6.15116,-6.87204 6.15116,-11.31068 0,-4.08704 -0.83337,-6.50474 -3.1489,-9.13532 -3.06205,-3.47868 -5.29299,-4.43637 -10.3511,-4.44351 -3.70729,-0.005 -4.53732,0.1635 -6.5,1.32142 -4.61775,2.72431 -6.75738,6.43246 -6.73515,11.67258 0.0179,4.21929 1.12891,6.64017 4.85585,10.58086 l 2.51027,2.65425 -0.9774,2.38244 -0.97741,2.38245 -10.96308,0.13278 -10.96308,0.13279 -1.97115,-4.88279 z"
       id="path5620"
       inkscape:connector-curvature="0"
       transform="translate(0,-1.5258789e-5)" />
  </g>
</svg>
