<?xml version="1.0" encoding="UTF-8" standalone="no"?>
<!-- Created with Inkscape (http://www.inkscape.org/) -->

<svg
   xmlns:dc="http://purl.org/dc/elements/1.1/"
   xmlns:cc="http://creativecommons.org/ns#"
   xmlns:rdf="http://www.w3.org/1999/02/22-rdf-syntax-ns#"
   xmlns:svg="http://www.w3.org/2000/svg"
   xmlns="http://www.w3.org/2000/svg"
   xmlns:sodipodi="http://sodipodi.sourceforge.net/DTD/sodipodi-0.dtd"
   xmlns:inkscape="http://www.inkscape.org/namespaces/inkscape"
   width="12mm"
   height="14mm"
   viewBox="0 0 42.519685 49.606299"
   id="svg4165"
   version="1.1"
   inkscape:version="0.91 r13725"
   sodipodi:docname="logo_ripolab_12x14mm.svg">
  <defs
     id="defs4167">
    <inkscape:path-effect
       effect="bend_path"
       id="path-effect3387"
       is_visible="true"
       bendpath="m 43.182288,1144.0687 c -15.744617,-88.9135 68.432542,-107.52 101.576232,-69.1427"
       prop_scale="1"
       scale_y_rel="false"
       vertical="false"
       bendpath-nodetypes="cc" />
    <inkscape:path-effect
       effect="bend_path"
       id="path-effect3375"
       is_visible="true"
       bendpath="m 26.8875,1065.2372 144.295,0"
       prop_scale="1"
       scale_y_rel="true"
       vertical="false" />
    <inkscape:path-effect
       effect="bend_path"
       id="path-effect3369"
       is_visible="true"
       bendpath="m 35.3875,1079.2372 c 49.350299,6.7453 100.85559,20.2184 135.795,-14"
       prop_scale="1.05"
       scale_y_rel="false"
       vertical="false"
       bendpath-nodetypes="cc" />
    <inkscape:path-effect
       effect="bend_path"
       id="path-effect3367"
       is_visible="true"
       bendpath="m 26.8875,1065.2372 144.295,0"
       prop_scale="1"
       scale_y_rel="false"
       vertical="false" />
    <circle
       style="fill:#b3b3b3"
       id="path3401-8"
       cx="777.987"
       cy="580.36102"
       r="26.761171"
       transform="matrix(-0.57982757,0.81473921,0.81473921,0.57982757,0,0)" />
  </defs>
  <sodipodi:namedview
     id="base"
     pagecolor="#ffffff"
     bordercolor="#666666"
     borderopacity="1.0"
     inkscape:pageopacity="0.0"
     inkscape:pageshadow="2"
     inkscape:zoom="11.313708"
     inkscape:cx="16.681364"
     inkscape:cy="17.47037"
     inkscape:document-units="mm"
     inkscape:current-layer="layer1"
     showgrid="false"
     inkscape:window-width="1865"
     inkscape:window-height="1056"
     inkscape:window-x="55"
     inkscape:window-y="24"
     inkscape:window-maximized="1"
     inkscape:snap-object-midpoints="true" />
  <metadata
     id="metadata4170">
    <rdf:RDF>
      <cc:Work
         rdf:about="">
        <dc:format>image/svg+xml</dc:format>
        <dc:type
           rdf:resource="http://purl.org/dc/dcmitype/StillImage" />
        <dc:title />
      </cc:Work>
    </rdf:RDF>
  </metadata>
  <g
     inkscape:label="SilkS"
     inkscape:groupmode="layer"
     id="layer1"
     transform="translate(0,-1002.7559)">
    <text
       xml:space="preserve"
       style="font-style:normal;font-variant:normal;font-weight:normal;font-stretch:normal;font-size:10px;line-height:125%;font-family:'Share Tech Mono';-inkscape-font-specification:'Share Tech Mono, Normal';text-align:start;letter-spacing:0px;word-spacing:0px;writing-mode:lr-tb;text-anchor:start;fill:#000000;fill-opacity:1;stroke:none;stroke-width:1px;stroke-linecap:butt;stroke-linejoin:miter;stroke-opacity:1"
       id="text3389"
       sodipodi:linespacing="125%"
       x="-5.505798"
       y="23.09349"><tspan
         id="tspan3391">Hacklab</tspan></text>
    <ellipse
       style="fill:none"
       id="path3399"
       cx="-33.1875"
       cy="998.34692"
       rx="3.3125"
       ry="5.3597374" />
    <text
       xml:space="preserve"
       style="font-style:normal;font-variant:normal;font-weight:normal;font-stretch:normal;font-size:9.5151701px;line-height:125%;font-family:'Share Tech Mono';-inkscape-font-specification:'Share Tech Mono, Normal';text-align:start;letter-spacing:0px;word-spacing:0px;writing-mode:lr-tb;text-anchor:start;fill:#ff0000;fill-opacity:1;stroke:none;stroke-width:1px;stroke-linecap:butt;stroke-linejoin:miter;stroke-opacity:1"
       id="text3440"
       sodipodi:linespacing="125%"
       x="-24.064781"
       y="-299.05997"
       transform="matrix(0.99971936,-0.02368973,0.02368973,0.99971936,0,0)"><tspan
         style="fill:#ff0000"
         id="tspan3442">Hacklab</tspan></text>
    <text
       xml:space="preserve"
       style="font-style:normal;font-variant:normal;font-weight:normal;font-stretch:normal;font-size:8.43273258px;line-height:125%;font-family:'Share Tech Mono';-inkscape-font-specification:'Share Tech Mono, Normal';text-align:start;letter-spacing:0px;word-spacing:0px;writing-mode:lr-tb;text-anchor:start;fill:#ff0000;fill-opacity:1;stroke:none;stroke-width:1px;stroke-linecap:butt;stroke-linejoin:miter;stroke-opacity:1"
       id="text3454"
       sodipodi:linespacing="125%"
       x="6.7574412"
       y="-15.241187"><tspan
         style="fill:#ff0000"
         id="tspan3456">Hacklab</tspan></text>
    <ellipse
       style="opacity:1;fill:none;fill-opacity:1;stroke:none;stroke-width:0.1;stroke-linecap:round;stroke-linejoin:round;stroke-miterlimit:4;stroke-dasharray:none;stroke-dashoffset:0;stroke-opacity:1"
       id="path4148"
       cx="-800.33557"
       cy="-656.38098"
       transform="matrix(-0.6548821,-0.75573106,0.76524527,-0.64373882,0,0)"
       rx="18.869911"
       ry="18.913849" />
    <path
       id="path3415"
       d="m 2.1164991,1007.3917 -0.3841452,0.032 -0.3743074,0.1104 -0.3514054,0.1903 -0.31543781,0.272 -0.28178703,0.3774 -0.17617447,0.4055 -0.073253,0.419 0.0269774,0.4178 0.12451691,0.4021 0.2193653,0.3719 0.31152259,0.3271 0.40098901,0.2676 0.3598535,0.1101 0.4543656,0.033 0.4624131,-0.042 0.3839956,-0.1175 0.3365745,-0.1646 0.2490521,0.2949 2.1895016,2.5096 1.9406563,2.2148 -0.6970564,0.7058 -0.5941946,0.6578 -0.085885,0.2009 -0.016561,0.2269 0.030213,0.3087 0.1517729,0.3376 0.3660146,0.5197 0.672939,0.8553 0.8941362,1.1814 -0.4290856,0.9639 -0.3747484,0.8547 -0.2984004,0.7866 -0.2646437,0.7634 -1.5086601,0.1961 -1.0971445,0.1366 -0.6593352,0.1216 -0.371764,0.1456 -0.2344305,0.2084 -0.2270159,0.2657 0,2.7199 0,2.7199 0.2511308,0.2646 0.204622,0.1883 0.2777621,0.1196 0.5247485,0.098 0.945582,0.123 1.0691308,0.088 2.2060831,0.049 12.528816,0.033 12.775243,-0.015 2.109925,-0.052 1.112201,-0.1016 1.125037,-0.1666 0.638496,-0.149 0.17665,-0.092 0.134002,-0.1124 0.09724,-0.1679 0.06636,-0.2584 0.06363,-0.9291 0.01074,-1.7124 0,-2.6466 -0.226811,-0.2656 -0.234072,-0.2082 -0.371637,-0.1457 -0.660179,-0.1225 -1.099693,-0.1385 -1.508455,-0.196 -0.26215,-0.7608 -0.298399,-0.7866 -0.374749,-0.8547 -0.429084,-0.967 1.014296,-1.3422 0.732283,-0.9653 0.336274,-0.5259 0.03756,-0.3398 -0.08023,-0.3256 -0.213357,-0.3465 -0.361816,-0.4026 -0.568164,-0.5694 1.985145,-2.2583 2.234195,-2.5529 0.249053,-0.295 0.297907,0.1393 0.351722,0.1306 0.352056,0.066 0.346311,0 0.334494,-0.058 0.316598,-0.1178 0.292627,-0.1757 0.262575,-0.2321 0.226453,-0.2867 0.117044,-0.2017 0.06942,-0.1985 0.0418,-0.5861 -0.01673,-0.448 -0.07099,-0.3199 -0.156377,-0.2731 -0.272913,-0.3076 -0.359175,-0.286 -0.404069,-0.1799 -0.42936,-0.077 -0.435033,0.023 -0.421096,0.1192 -0.387549,0.2125 -0.33439,0.3023 -0.261617,0.3891 -0.135159,0.3414 -0.06321,0.3447 0.0094,0.3397 0.08272,0.3265 0.159452,0.5366 -0.157457,0.2048 -0.481132,0.4601 -1.902037,1.6581 -2.554973,2.1712 -0.762124,-0.7474 -0.702282,-0.633 -0.220277,-0.1126 -0.233935,-0.046 -0.338593,0 -0.254101,0.062 -1.45565,1.0813 -1.257527,0.9769 -0.871061,-0.4163 -0.867631,-0.3758 -0.86285,-0.3189 -0.607483,-0.2244 -0.253598,-0.1484 -0.215166,-1.7378 -0.22127,-1.4571 -0.105622,-0.2702 -0.157909,-0.1835 -0.271504,-0.2673 -2.81733,0 -2.817539,0 -0.278572,0.2744 -0.162276,0.1861 -0.106595,0.2643 -0.215722,1.4169 -0.20789,1.7308 -0.05007,0.078 -0.154291,0.093 -0.656927,0.2452 -0.864584,0.3197 -0.871716,0.3777 -0.876674,0.4189 -1.194746,-0.9281 -0.944277,-0.7275 -0.528319,-0.3649 -0.314086,-0.118 -0.301576,0.013 -0.237046,0.044 -0.213015,0.1024 -0.6330461,0.5622 -0.6777225,0.6638 -2.5348065,-2.1486 -1.9144482,-1.664 -0.4468,-0.432 -0.1299019,-0.1868 0.1868935,-0.5189 0.083072,-0.3343 0.00531,-0.3456 -0.07225,-0.3544 -0.1495925,-0.3614 -0.3043751,-0.4283 -0.3931687,-0.3129 -0.4541491,-0.1936 -0.4873149,-0.071 0,0 m 11.787382,10.3793 0.810357,0.025 0.810564,0.025 0.132426,0.7347 0.132635,0.7345 0.548206,0.2118 0.548207,0.2116 0.649242,-0.442 0.649033,-0.4422 0.561096,0.5577 0.561096,0.558 -0.451746,0.6374 -0.451953,0.6376 0.230966,0.5152 0.247182,0.5407 0.779588,0.1639 0.763166,0.138 -0.02515,0.7911 -0.02515,0.7912 -0.661299,0.1149 -0.495352,0.1114 -0.262615,0.1062 -0.293126,0.5934 -0.196248,0.4905 0.121407,0.1799 -2.91878,0 -0.368382,-0.8681 0.201239,-0.1653 0.263604,-0.1684 0.286474,-0.3795 0.134718,-0.287 0.0731,-0.2966 0.01354,-0.2981 -0.04395,-0.2913 -0.09937,-0.2763 -0.152735,-0.2533 -0.204029,-0.222 -0.253257,-0.1825 -0.403553,-0.1607 -0.439463,-0.056 -0.42568,0.05 -0.362204,0.1554 -0.307038,0.2511 -0.227738,0.2868 -0.147701,0.3132 -0.06692,0.33 0.01459,0.3375 0.09684,0.3355 0.17983,0.3241 0.263558,0.3031 0.39811,0.3773 -0.132011,0.3175 -0.215374,0.5234 -2.914623,0 0.13305,-0.1922 -0.237411,-0.5712 -0.237618,-0.5715 -0.7423768,-0.1307 -0.7425839,-0.1307 0,-0.7812 0,-0.7812 0.7332291,-0.1405 0.5379026,-0.1217 0.263723,-0.095 0.26402,-0.5643 0.195415,-0.4875 -0.402059,-0.5668 -0.283955,-0.4357 -0.118105,-0.2519 0.149073,-0.2306 0.358387,-0.3849 0.507253,-0.4949 0.68188,0.4437 0.68188,0.4436 0.507669,-0.215 0.323686,-0.1597 0.193458,-0.2087 0.126977,-0.3734 0.124241,-0.6539 0.05696,-0.329 0,0 m 12.781513,0.087 0.810564,0.025 0.810359,0.025 0.132634,0.7348 0.132425,0.7345 0.548208,0.2118 0.548412,0.2116 0.649036,-0.4421 0.649032,-0.4422 0.561096,0.5578 0.561305,0.5579 -0.451955,0.6374 -0.451745,0.6377 0.230758,0.5151 0.24739,0.541 0.779589,0.1636 0.762959,0.1381 -0.02516,0.791 -0.02516,0.7913 -0.661094,0.1149 -0.495351,0.1113 -0.262615,0.1062 -0.293125,0.5934 -0.196249,0.4906 0.06278,0.093 -2.897159,0 -0.331586,-0.7813 0.201238,-0.1653 0.263604,-0.1683 0.286472,-0.3796 0.13472,-0.287 0.0731,-0.2966 0.01353,-0.298 -0.04395,-0.2913 -0.09937,-0.2764 -0.152735,-0.2533 -0.20403,-0.2219 -0.253257,-0.1825 -0.40352,-0.1607 -0.439391,-0.056 -0.425609,0.05 -0.362172,0.1555 -0.307047,0.2511 -0.227761,0.2868 -0.147734,0.3132 -0.06696,0.33 0.01455,0.3375 0.09681,0.3355 0.179806,0.324 0.263549,0.3032 0.398109,0.3773 -0.131802,0.3175 -0.179825,0.4365 -2.890091,0 0.07297,-0.1053 -0.237618,-0.5713 -0.237411,-0.5715 -0.742584,-0.1306 -0.742377,-0.1307 0,-0.7812 0,-0.7813 0.733022,-0.1405 0.538006,-0.1217 0.263826,-0.095 0.263813,-0.5643 0.195417,-0.4875 -0.40206,-0.5667 -0.283955,-0.4358 -0.118104,-0.2519 0.149072,-0.2306 0.358388,-0.3849 0.50746,-0.4948 0.68188,0.4436 0.681673,0.4437 0.507668,-0.2151 0.323687,-0.1597 0.193458,-0.2086 0.126976,-0.3734 0.124241,-0.654 0.05696,-0.3289 1.6e-5,0 m -16.145388,15.2052 -1.7036636,0.023 -0.3782093,0.031 -0.1169826,0.047 0.4887505,1.0508 0.4887505,0.9502 -0.3457219,0.4471 -1.1483859,1.4461 -0.5673308,0.7572 -0.2367894,0.4181 0.1125202,0.187 0.3338641,0.3832 1.3009346,1.3214 1.4399516,1.3678 0.31966,0.2438 0.157552,0.041 1.598469,-1.1796 1.430077,-1.1163 0.817842,0.4304 0.726609,0.3493 0.810952,0.3377 0.786731,0.2837 0.653945,0.1876 0.310692,0.094 0.129203,0.086 0.222027,1.8742 0.206485,1.4433 0.08105,0.3222 0.08188,0.1363 0.275962,0.054 0.5877,0.038 1.689631,0.027 1.673631,-0.036 0.567701,-0.041 0.247963,-0.056 0.137954,-0.6177 0.188018,-1.3147 0.283147,-1.8619 1.084564,-0.3693 1.028329,-0.3768 1.032903,-0.4591 1.036127,-0.5178 1.376649,1.0692 1.583915,1.1771 0.154966,0.022 0.273696,-0.1754 1.532576,-1.4588 1.304878,-1.3253 0.334809,-0.384 0.112829,-0.1874 -0.236821,-0.4181 -0.567297,-0.7572 -1.148387,-1.4461 -0.345723,-0.4471 0.488751,-0.9502 0.488751,-1.0508 -0.116838,-0.047 -0.377723,-0.031 -1.701387,-0.023 -2.195944,0 -0.395406,0.5428 -0.460807,0.5751 -0.523741,0.5504 -0.577037,0.5188 -0.620703,0.4803 -0.654738,0.4349 -0.67914,0.3827 -0.69391,0.3234 -0.699048,0.2573 -1.131813,0.2768 -1.20897,0.1485 -1.209626,0.015 -1.133777,-0.1238 -0.926931,-0.2157 -0.900958,-0.3026 -0.867116,-0.3844 -0.825403,-0.4615 -0.775822,-0.5337 -0.718373,-0.6009 -0.653053,-0.6632 -0.579864,-0.7207 -0.361106,-0.4994 -2.198856,0 0,0"
       style="opacity:1;fill:#000000"
       inkscape:connector-curvature="0" />
    <path
       inkscape:connector-curvature="0"
       d="m 8.3008855,1009.7189 1.1989841,1.7096 -0.5205264,0.3544 -2.8940935,-4.1265 1.1248114,-0.7658 q 0.5085584,-0.3462 0.9229368,-0.2974 0.4162273,0.039 0.7511159,0.5164 l 0.3969056,0.5659 q 0.4671914,0.6661 0.04448,1.1978 l 2.1009116,1.2435 -0.568389,0.387 -1.9707976,-1.1841 -0.5863383,0.3992 z m 0.025495,-2.308 q -0.157108,-0.224 -0.3350876,-0.2509 -0.1719967,-0.031 -0.3993521,0.1238 l -0.6760836,0.4603 1.0749487,1.5327 0.6760833,-0.4603 q 0.2273556,-0.1548 0.2587826,-0.3242 0.03327,-0.1795 -0.1238334,-0.4035 l -0.4754579,-0.6779 z"
       style="font-style:normal;font-variant:normal;font-weight:normal;font-stretch:normal;font-size:25px;line-height:125%;font-family:'Share Tech Mono';-inkscape-font-specification:'Share Tech Mono, Normal';text-align:start;letter-spacing:0px;word-spacing:0px;writing-mode:lr-tb;text-anchor:start;fill:#000000;fill-opacity:1;stroke:none;stroke-width:1px;stroke-linecap:butt;stroke-linejoin:miter;stroke-opacity:1"
       id="path4158" />
    <path
       inkscape:connector-curvature="0"
       d="m 11.949627,1004.3603 0.253675,0.5945 -0.636894,0.2639 -0.253675,-0.5945 0.636894,-0.2639 z m -0.813764,2.4747 -0.211396,-0.4954 1.555362,-0.6443 1.19791,2.8073 0.992214,-0.411 0.211396,0.4954 -1.562066,0.6471 -1.197911,-2.8073 -0.985509,0.4082 z"
       style="font-style:normal;font-variant:normal;font-weight:normal;font-stretch:normal;font-size:25px;line-height:125%;font-family:'Share Tech Mono';-inkscape-font-specification:'Share Tech Mono, Normal';text-align:start;letter-spacing:0px;word-spacing:0px;writing-mode:lr-tb;text-anchor:start;fill:#000000;fill-opacity:1;stroke:none;stroke-width:1px;stroke-linecap:butt;stroke-linejoin:miter;stroke-opacity:1"
       id="path4160" />
    <path
       inkscape:connector-curvature="0"
       d="m 15.927254,1004.6193 0.03313,0.1689 q 0.188224,-0.211 0.538103,-0.2777 l 0.257053,-0.049 q 0.628353,-0.1197 0.97356,0.092 0.343826,0.2045 0.461151,0.8025 l 0.248454,1.2663 q 0.115945,0.591 -0.1315,0.9155 -0.240304,0.323 -0.861516,0.4414 l -0.792582,0.1509 0.234651,1.196 -0.606932,0.1156 -0.924799,-4.7136 0.57123,-0.1088 z m 0.603348,0.4325 q -0.235632,0.045 -0.325033,0.1932 -0.09078,0.1414 -0.06317,0.2821 l 0.407188,2.0754 0.863985,-0.1646 q 0.264194,-0.05 0.376396,-0.1957 0.112202,-0.1455 0.06941,-0.3636 l -0.303665,-1.5477 q -0.04279,-0.2181 -0.201922,-0.3119 -0.159132,-0.094 -0.423326,-0.043 l -0.399861,0.076 z"
       style="font-style:normal;font-variant:normal;font-weight:normal;font-stretch:normal;font-size:25px;line-height:125%;font-family:'Share Tech Mono';-inkscape-font-specification:'Share Tech Mono, Normal';text-align:start;letter-spacing:0px;word-spacing:0px;writing-mode:lr-tb;text-anchor:start;fill:#000000;fill-opacity:1;stroke:none;stroke-width:1px;stroke-linecap:butt;stroke-linejoin:miter;stroke-opacity:1"
       id="path4162" />
    <path
       inkscape:connector-curvature="0"
       d="m 22.62073,1006.5316 q -0.0089,0.6018 -0.318318,0.8697 -0.302162,0.268 -0.934808,0.2589 l -0.23997,0 q -0.632646,-0.01 -0.934042,-0.2857 -0.294124,-0.2765 -0.285241,-0.8784 l 0.01904,-1.2896 q 0.0089,-0.6019 0.311046,-0.8698 0.309435,-0.2679 0.942081,-0.2589 l 0.239969,0 q 0.632646,0.01 0.926771,0.2856 0.301396,0.2766 0.292512,0.8784 l -0.01904,1.2897 z m -0.596949,-1.4418 q 0.0033,-0.2221 -0.133088,-0.3459 -0.136366,-0.1238 -0.405422,-0.1276 l -0.385405,-0.01 q -0.269057,0 -0.409019,0.116 -0.139962,0.1198 -0.143241,0.3419 l -0.02327,1.5763 q -0.0033,0.2221 0.133088,0.3459 0.136366,0.1237 0.405422,0.1276 l 0.385405,0.01 q 0.269056,0 0.409019,-0.1159 0.139962,-0.1199 0.14324,-0.342 l 0.02327,-1.5762 z"
       style="font-style:normal;font-variant:normal;font-weight:normal;font-stretch:normal;font-size:25px;line-height:125%;font-family:'Share Tech Mono';-inkscape-font-specification:'Share Tech Mono, Normal';text-align:start;letter-spacing:0px;word-spacing:0px;writing-mode:lr-tb;text-anchor:start;fill:#000000;fill-opacity:1;stroke:none;stroke-width:1px;stroke-linecap:butt;stroke-linejoin:miter;stroke-opacity:1"
       id="path4164" />
    <path
       inkscape:connector-curvature="0"
       d="m 25.365109,1008.1591 q -0.241336,-0.053 -0.387889,-0.2614 -0.139454,-0.2069 -0.05712,-0.5706 l 0.831219,-3.6716 -1.043425,-0.2293 0.118746,-0.5245 1.646766,0.3619 -0.942049,4.1612 q -0.02533,0.1119 0.02037,0.1733 0.0457,0.061 0.180567,0.091 l 0.944052,0.2075 -0.118747,0.5245 -1.192485,-0.2621 z"
       style="font-style:normal;font-variant:normal;font-weight:normal;font-stretch:normal;font-size:25px;line-height:125%;font-family:'Share Tech Mono';-inkscape-font-specification:'Share Tech Mono, Normal';text-align:start;letter-spacing:0px;word-spacing:0px;writing-mode:lr-tb;text-anchor:start;fill:#000000;fill-opacity:1;stroke:none;stroke-width:1px;stroke-linecap:butt;stroke-linejoin:miter;stroke-opacity:1"
       id="path4166" />
    <path
       inkscape:connector-curvature="0"
       d="m 29.823434,1009.7659 q -0.08611,-0.038 -0.168077,-0.138 -0.07534,-0.096 -0.106177,-0.2204 -0.242418,0.1277 -0.494127,0.015 l -0.589534,-0.2633 q -0.503421,-0.2248 -0.645193,-0.5241 -0.132148,-0.3029 0.09001,-0.7858 l 0.06004,-0.1306 q 0.46534,-1.0115 1.432439,-0.5797 l 0.821372,0.3668 0.150112,-0.3263 q 0.09307,-0.2023 0.01824,-0.3695 -0.07482,-0.1671 -0.319905,-0.2766 l -1.026717,-0.4585 0.225167,-0.4894 0.960476,0.4289 q 0.576283,0.2573 0.733784,0.6266 0.164121,0.3722 -0.08806,0.9204 l -0.720528,1.5664 q -0.04503,0.098 0.0038,0.1826 0.05847,0.081 0.237318,0.1611 l -0.210154,0.4568 -0.364317,-0.1627 z m -0.609455,-0.8622 q 0.198718,0.089 0.293742,0.021 0.09502,-0.068 0.16107,-0.2113 l 0.330241,-0.7179 -0.827996,-0.3698 q -0.172223,-0.077 -0.335867,-0.016 -0.163645,0.061 -0.241702,0.2303 l -0.150112,0.3264 q -0.07805,0.1697 -0.03459,0.2835 0.04346,0.1138 0.215684,0.1907 l 0.589534,0.2632 z"
       style="font-style:normal;font-variant:normal;font-weight:normal;font-stretch:normal;font-size:25px;line-height:125%;font-family:'Share Tech Mono';-inkscape-font-specification:'Share Tech Mono, Normal';text-align:start;letter-spacing:0px;word-spacing:0px;writing-mode:lr-tb;text-anchor:start;fill:#000000;fill-opacity:1;stroke:none;stroke-width:1px;stroke-linecap:butt;stroke-linejoin:miter;stroke-opacity:1"
       id="path4168" />
    <path
       inkscape:connector-curvature="0"
       d="m 33.988821,1011.1292 q -0.361316,0.4854 -0.771064,0.5269 -0.403883,0.046 -0.914062,-0.3229 l -1.149373,-0.8307 3.01098,-4.0444 0.498453,0.3602 -0.946309,1.2711 q 0.261952,0.012 0.525839,0.2023 l 0.211108,0.1526 q 0.516046,0.373 0.593022,0.7663 0.08128,0.3875 -0.284343,0.8786 l -0.774251,1.04 z m -0.126782,-2.4465 q -0.193517,-0.1399 -0.364768,-0.1037 -0.166952,0.03 -0.252978,0.146 l -1.268913,1.7044 0.70956,0.5128 q 0.216973,0.1569 0.401516,0.1392 0.184542,-0.018 0.317886,-0.1969 l 0.946309,-1.2711 q 0.133341,-0.1791 0.09505,-0.3578 -0.03829,-0.1788 -0.255266,-0.3356 l -0.328392,-0.2373 z"
       style="font-style:normal;font-variant:normal;font-weight:normal;font-stretch:normal;font-size:25px;line-height:125%;font-family:'Share Tech Mono';-inkscape-font-specification:'Share Tech Mono, Normal';text-align:start;letter-spacing:0px;word-spacing:0px;writing-mode:lr-tb;text-anchor:start;fill:#000000;fill-opacity:1;stroke:none;stroke-width:1px;stroke-linecap:butt;stroke-linejoin:miter;stroke-opacity:1"
       id="path4170" />
    <g
       transform="matrix(0.99864505,-0.05203906,0.05203906,0.99864505,-51.449549,57.41841)"
       style="font-style:normal;font-variant:normal;font-weight:normal;font-stretch:normal;font-size:8.43273258px;line-height:125%;font-family:'Share Tech Mono';-inkscape-font-specification:'Share Tech Mono, Normal';text-align:start;letter-spacing:0px;word-spacing:0px;writing-mode:lr-tb;text-anchor:start;fill:#000000;fill-opacity:1;stroke:none;stroke-width:1px;stroke-linecap:butt;stroke-linejoin:miter;stroke-opacity:1"
       id="text3461-3">
      <path
         inkscape:connector-curvature="0"
         d="m 8.7720406,990.63139 -1.3832888,2.33658 -0.6313106,-0.37375 3.0071495,-5.07951 0.6313103,0.37375 -1.3059617,2.20596 1.4948277,0.88496 1.305962,-2.20596 0.63131,0.37375 -3.007149,5.07951 -0.6313106,-0.37375 1.3832886,-2.33657 -1.4948274,-0.88497 z"
         style="fill:#000000"
         id="path3495" />
      <path
         inkscape:connector-curvature="0"
         d="m 13.383314,995.8254 q -0.102427,-0.0391 -0.20445,-0.15019 -0.09414,-0.10811 -0.13874,-0.25147 -0.271376,0.16725 -0.57078,0.0531 l -0.701235,-0.26747 q -0.598808,-0.2284 -0.784417,-0.56996 -0.174724,-0.34643 0.04766,-0.92947 l 0.06011,-0.15759 q 0.465814,-1.22125 1.616155,-0.78248 l 0.977003,0.37265 0.150262,-0.39395 q 0.09316,-0.24425 -0.0054,-0.4353 -0.09861,-0.19104 -0.390138,-0.30223 l -1.221252,-0.46582 0.225394,-0.59093 1.142462,0.43576 q 0.685477,0.26146 0.894319,0.68408 0.21672,0.42563 -0.03572,1.08747 l -0.721261,1.89097 q -0.04508,0.11818 0.01755,0.21427 0.07351,0.0912 0.286246,0.17236 l -0.210368,0.55154 -0.433348,-0.16529 z m -0.767366,-0.96959 q 0.236372,0.0901 0.341478,0.004 0.105106,-0.0863 0.171221,-0.25961 l 0.330578,-0.86669 -0.984881,-0.37566 q -0.204855,-0.0781 -0.389888,0.005 -0.185033,0.0828 -0.26317,0.28771 l -0.150263,0.39395 q -0.07814,0.20486 -0.01965,0.33547 0.05849,0.13061 0.263341,0.20875 l 0.701235,0.26747 z"
         style="fill:#000000"
         id="path3497" />
      <path
         inkscape:connector-curvature="0"
         d="m 16.755689,996.66506 q -0.72825,-0.1426 -1.007592,-0.51523 -0.277722,-0.38091 -0.139983,-1.08434 l 0.29168,-1.4896 q 0.136118,-0.69515 0.536993,-0.94318 0.409152,-0.24642 1.129127,-0.10544 l 1.067549,0.20904 -0.121534,0.62067 -1.150305,-0.22524 q -0.306196,-0.06 -0.49098,0.0499 -0.184783,0.10989 -0.235017,0.36643 l -0.356499,1.82063 q -0.05023,0.25654 0.07945,0.42802 0.129688,0.17147 0.435884,0.23143 l 1.150305,0.22524 -0.121533,0.62067 -1.06755,-0.20904 z"
         style="fill:#000000"
         id="path3499" />
      <path
         inkscape:connector-curvature="0"
         d="m 20.395708,995.30047 -0.0419,1.80412 -0.716589,-0.0166 0.13704,-5.90133 0.716589,0.0167 -0.074,3.18671 1.35843,-1.46989 0.902059,0.021 -1.505467,1.62674 1.525608,2.59123 -0.885198,-0.0205 -1.19151,-2.08581 -0.225065,0.24782 z"
         style="fill:#000000"
         id="path3501" />
      <path
         inkscape:connector-curvature="0"
         d="m 25.902955,996.80338 q -0.283667,0.0417 -0.530013,-0.12667 -0.238003,-0.16958 -0.301757,-0.60343 l -0.643668,-4.38014 -1.22644,0.18023 -0.09195,-0.62574 1.935606,-0.28444 0.72949,4.96416 q 0.01962,0.13349 0.09494,0.18209 0.07533,0.0486 0.233847,0.0253 l 1.109636,-0.16307 0.09195,0.62574 -1.401646,0.20597 z"
         style="fill:#000000"
         id="path3503" />
      <path
         inkscape:connector-curvature="0"
         d="m 31.234992,995.4214 q -0.104235,0.034 -0.253419,0.0116 -0.141165,-0.025 -0.265929,-0.10849 -0.106063,0.30061 -0.41075,0.39986 l -0.71361,0.23245 q -0.609375,0.19849 -0.968361,0.0494 -0.353579,-0.15976 -0.546848,-0.7531 l -0.05223,-0.16036 q -0.404822,-1.24281 0.765819,-1.62412 l 0.994243,-0.32386 -0.130587,-0.4009 q -0.08096,-0.24856 -0.277708,-0.33525 -0.196743,-0.0867 -0.493413,0.01 l -1.242803,0.40482 -0.195882,-0.60135 1.162623,-0.37871 q 0.697574,-0.22722 1.125562,-0.0296 0.436006,0.19499 0.655393,0.86851 l 0.62682,1.92434 q 0.03918,0.12027 0.148269,0.15569 0.1145,0.0248 0.330988,-0.0457 l 0.182823,0.56126 -0.440995,0.14365 z m -1.206161,-0.27228 q 0.240543,-0.0784 0.268123,-0.2115 0.02758,-0.13314 -0.02988,-0.30954 l -0.287293,-0.88199 -1.002261,0.32647 q -0.20847,0.0679 -0.300378,0.24861 -0.09191,0.18071 -0.024,0.38918 l 0.130588,0.4009 q 0.06791,0.20847 0.195463,0.27335 0.127558,0.0649 0.336029,-0.003 l 0.713609,-0.23245 z"
         style="fill:#000000"
         id="path3505" />
      <path
         inkscape:connector-curvature="0"
         d="m 34.97528,992.12507 q 0.33008,0.62674 0.166031,1.07531 -0.156588,0.44463 -0.805714,0.7865 l -1.462399,0.77019 -2.750668,-5.22285 0.634203,-0.33401 0.864496,1.64146 q 0.145246,-0.26711 0.481001,-0.44393 l 0.268604,-0.14147 q 0.656587,-0.3458 1.111819,-0.22338 0.451303,0.11495 0.785313,0.74916 l 0.707314,1.34302 z m -2.652948,-1.12845 q -0.24622,0.12968 -0.294868,0.32685 -0.05258,0.18971 0.02601,0.33894 l 1.15921,2.20106 0.902808,-0.47547 q 0.276065,-0.1454 0.351026,-0.3469 0.07496,-0.2015 -0.04685,-0.4328 l -0.864496,-1.64147 q -0.121815,-0.23129 -0.33038,-0.28347 -0.208565,-0.0522 -0.48463,0.0932 l -0.417829,0.22005 z"
         style="fill:#000000"
         id="path3507" />
    </g>
  </g>
</svg>
