<?xml version="1.0" encoding="UTF-8" standalone="no"?>
<!-- Created with Inkscape (http://www.inkscape.org/) -->

<svg
   xmlns:osb="http://www.openswatchbook.org/uri/2009/osb"
   xmlns:dc="http://purl.org/dc/elements/1.1/"
   xmlns:cc="http://creativecommons.org/ns#"
   xmlns:rdf="http://www.w3.org/1999/02/22-rdf-syntax-ns#"
   xmlns:svg="http://www.w3.org/2000/svg"
   xmlns="http://www.w3.org/2000/svg"
   xmlns:sodipodi="http://sodipodi.sourceforge.net/DTD/sodipodi-0.dtd"
   xmlns:inkscape="http://www.inkscape.org/namespaces/inkscape"
   width="130.09311mm"
   height="62.084049mm"
   viewBox="0 0 460.95985 219.98287"
   id="svg2"
   version="1.1"
   inkscape:version="0.91 r13725"
   sodipodi:docname="ripolab_corte_laser.svg">
  <defs
     id="defs4">
    <linearGradient
       id="linearGradient4534"
       osb:paint="solid">
      <stop
         style="stop-color:#000000;stop-opacity:1;"
         offset="0"
         id="stop4536" />
    </linearGradient>
    <inkscape:path-effect
       effect="spiro"
       id="path-effect4528"
       is_visible="true" />
    <inkscape:path-effect
       effect="curvestitching"
       id="path-effect4440"
       is_visible="true"
       count="17"
       startpoint_edge_variation="0.9;1"
       startpoint_spacing_variation="0;1"
       endpoint_edge_variation="0;1"
       endpoint_spacing_variation="0;1"
       strokepath="m -4.4241616,54.090331 296.0080516,0"
       prop_scale="1"
       scale_y_rel="false" />
    <inkscape:path-effect
       effect="rough_hatches"
       id="path-effect4438"
       is_visible="true"
       direction="143.57986,49.090331 , 74.002013,0"
       dist_rdm="1;1"
       growth="0"
       do_bend="true"
       bender="143.57986,54.090331 , 5,0"
       bottom_edge_variation="6.7911329;1"
       top_edge_variation="6.7911329;1"
       bottom_tgt_variation="0;1"
       top_tgt_variation="0;1"
       scale_bf="1"
       scale_bb="1"
       scale_tf="0.3"
       scale_tb="1"
       top_smth_variation="0;1"
       bottom_smth_variation="0;1"
       fat_output="true"
       stroke_width_top="1"
       stroke_width_bottom="1"
       front_thickness="1"
       back_thickness="0.25" />
    <inkscape:path-effect
       effect="spiro"
       id="path-effect4436"
       is_visible="true" />
    <inkscape:path-effect
       effect="skeletal"
       id="path-effect4434"
       is_visible="true"
       pattern="M -3.5893441,-1.9940801 74.780963,6.3810562"
       copytype="single_stretched"
       prop_scale="1"
       scale_y_rel="false"
       spacing="0"
       normal_offset="0"
       tang_offset="0"
       prop_units="false"
       vertical_pattern="false"
       fuse_tolerance="0"
       pattern-nodetypes="cc" />
    <inkscape:path-effect
       effect="envelope"
       id="path-effect4432"
       is_visible="true"
       yy="true"
       xx="true"
       bendpath1="M -8.4123218,-6.187191 C 100.22743,-45.605694 208.86718,-15.30827 317.50693,31.70033"
       bendpath2="m 291.58389,20.134666 0,67.911329"
       bendpath3="m -4.4241616,88.045995 296.0080516,0"
       bendpath4="m -4.4241616,20.134666 0,67.911329"
       bendpath1-nodetypes="cc" />
    <inkscape:path-effect
       effect="bend_path"
       id="path-effect4430"
       is_visible="true"
       bendpath="M -4.4241616,54.090331 C 128.67735,-13.806349 264.19395,56.957281 390.49026,55.685595"
       prop_scale="1.19"
       scale_y_rel="false"
       vertical="false"
       bendpath-nodetypes="cc" />
    <inkscape:path-effect
       effect="curvestitching"
       id="path-effect4428"
       is_visible="true"
       count="20"
       startpoint_edge_variation="0;1"
       startpoint_spacing_variation="0;1"
       endpoint_edge_variation="0;1"
       endpoint_spacing_variation="0;1"
       strokepath="m -4.4241616,54.090331 296.0080516,0"
       prop_scale="1"
       scale_y_rel="false" />
    <inkscape:path-effect
       effect="skeletal"
       id="path-effect4379"
       is_visible="true"
       pattern="M 0,0 1,0"
       copytype="single_stretched"
       prop_scale="1"
       scale_y_rel="false"
       spacing="0"
       normal_offset="0"
       tang_offset="0"
       prop_units="false"
       vertical_pattern="false"
       fuse_tolerance="0" />
  </defs>
  <sodipodi:namedview
     id="base"
     pagecolor="#ffffff"
     bordercolor="#666666"
     borderopacity="1.0"
     inkscape:pageopacity="0.0"
     inkscape:pageshadow="2"
     inkscape:zoom="1.773015"
     inkscape:cx="168.06851"
     inkscape:cy="84.900655"
     inkscape:document-units="mm"
     inkscape:current-layer="layer5"
     showgrid="false"
     showguides="false"
     fit-margin-top="0"
     fit-margin-left="0"
     fit-margin-right="0"
     fit-margin-bottom="0"
     inkscape:window-width="1865"
     inkscape:window-height="1056"
     inkscape:window-x="55"
     inkscape:window-y="24"
     inkscape:window-maximized="1" />
  <metadata
     id="metadata7">
    <rdf:RDF>
      <cc:Work
         rdf:about="">
        <dc:format>image/svg+xml</dc:format>
        <dc:type
           rdf:resource="http://purl.org/dc/dcmitype/StillImage" />
        <dc:title></dc:title>
      </cc:Work>
    </rdf:RDF>
  </metadata>
  <g
     inkscape:groupmode="layer"
     id="layer3"
     inkscape:label="fondo"
     style="display:inline"
     transform="translate(9.2751364,29.155406)">
    <path
       style="font-style:normal;font-variant:normal;font-weight:normal;font-stretch:normal;font-size:52.3604393px;line-height:125%;font-family:'Share Tech Mono';-inkscape-font-specification:'Share Tech Mono, Normal';text-align:start;letter-spacing:0px;word-spacing:0px;writing-mode:lr-tb;text-anchor:start;display:inline;fill:#000000;fill-opacity:1;stroke:none;stroke-width:1px;stroke-linecap:butt;stroke-linejoin:miter;stroke-opacity:1"
       d="m 24.728053,19.26093 a 6.638289,6.638289 0 0 0 -6.636719,6.636719 l 0,3.822265 a 6.638289,6.638289 0 0 0 4.712891,6.347657 l 0,16.30664 a 6.638289,6.638289 0 0 0 -4.712891,6.351563 l 0,3.824218 a 6.638289,6.638289 0 0 0 6.636719,6.636719 l 13.980469,0 a 6.638289,6.638289 0 0 0 6.636719,-6.636719 l 0,-3.824218 A 6.638289,6.638289 0 0 0 40.63235,52.378117 l 0,-16.30664 a 6.638289,6.638289 0 0 0 4.712891,-6.351563 l 0,-3.822265 A 6.638289,6.638289 0 0 0 38.708522,19.26093 l -13.980469,0 z m 32.728516,0 a 6.638289,6.638289 0 0 0 -6.636719,6.636719 l 0,4.710937 a 6.638289,6.638289 0 0 0 0.05273,0.837891 l 1.046875,8.220703 a 6.638289,6.638289 0 0 0 6.583985,5.798828 l 2.880859,0 a 6.638289,6.638289 0 0 0 6.583984,-5.798828 l 1.046875,-8.220703 a 6.638289,6.638289 0 0 0 0.05273,-0.837891 l 0,-4.710937 A 6.638289,6.638289 0 0 0 62.431169,19.26093 l -4.974609,0 z m 134.058591,0 a 6.638289,6.638289 0 0 0 -6.63672,6.636719 l 0,36.652343 a 6.638289,6.638289 0 0 0 6.63672,6.636719 l 10.26367,0 c 3.99009,0 8.03619,-0.841062 11.17774,-3.732422 3.2499,-2.95891 4.35937,-7.255973 4.35937,-11.283203 l 0,-7.572265 a 6.638289,6.638289 0 0 0 2.05859,0.333984 l 1.06055,0 0,15.617187 a 6.638289,6.638289 0 0 0 6.63672,6.636719 l 12.19922,0 a 6.638289,6.638289 0 0 0 2.32031,-0.425781 l 0,2.689453 a 6.638289,6.638289 0 0 0 6.63672,6.636719 l 10.89063,0 c 3.84691,0 7.64794,-0.655001 10.8164,-3.306641 3.11994,-2.55194 4.56445,-6.716447 4.56445,-10.398437 l 0,-0.628907 c 0,-3.07879 -1.07013,-6.444992 -3.22461,-8.976562 1.65635,-2.60784 2.43946,-5.718423 2.43946,-8.720703 l 0,-9.6875 a 6.638289,6.638289 0 0 0 -6.63672,-6.636719 l -10.99609,0 c -4.00408,0 -8.05147,0.850038 -11.20704,3.705078 a 6.638289,6.638289 0 0 0 -0.0586,0.05273 c -3.22076,2.985091 -4.27148,7.246143 -4.27148,11.257813 l 0,1.308594 c 0,2.1763 0.3532,4.298509 1.13672,6.380859 a 6.638289,6.638289 0 0 0 -2.41016,-0.451172 l -1.11133,0 0,-15.617187 a 6.638289,6.638289 0 0 0 -0.53711,-2.613281 6.638289,6.638289 0 0 0 0.79883,-3.146485 l 0,-4.710937 a 6.638289,6.638289 0 0 0 -6.63672,-6.636719 l -4.97461,0 a 6.638289,6.638289 0 0 0 -6.63672,6.636719 l 0,3.833984 -0.79883,0 a 6.638289,6.638289 0 0 0 -6.10351,4.044922 c -0.10073,-0.0984 -0.16028,-0.218703 -0.26563,-0.314453 -2.9416,-2.7055 -6.667,-3.511547 -10.40234,-3.623047 l 0,-3.941406 a 6.638289,6.638289 0 0 0 -6.63672,-6.636719 l -4.45117,0 z m -166.787107,6.634765 13.978516,0 0,3.822266 -4.710938,0 0,29.007813 4.710938,0 0,3.822265 -13.978516,0 0,-3.822265 4.710938,0 0,-29.007813 -4.710938,0 0,-3.822266 z m 32.728516,0 4.972656,0 0,4.712891 -1.046875,8.220703 -2.878906,0 -1.046875,-8.220703 0,-4.712891 z m 134.058591,0 4.45117,0 0,11.519532 c 1.04721,-0.698139 2.35497,-1.046875 3.92578,-1.046875 l 1.88477,0 c 3.07181,0 5.32467,0.66377 6.75586,1.990234 1.43118,1.291558 2.14648,3.419627 2.14648,6.386719 l 0,9.425781 c 0,2.932185 -0.73312,5.062208 -2.19922,6.388672 -1.43118,1.326464 -3.66622,1.988281 -6.70312,1.988281 l -10.26172,0 0,-36.652344 z m 35.29297,0 4.97461,0 0,4.712891 -4.97461,0 0,-4.712891 z M 76.310084,29.731633 a 6.638289,6.638289 0 0 0 -6.636719,6.636719 l 0,26.18164 a 6.638289,6.638289 0 0 0 6.636719,6.636719 l 4.1875,0 a 6.638289,6.638289 0 0 0 2.800781,-0.626953 6.638289,6.638289 0 0 0 2.802735,0.626953 l 4.189453,0 a 6.638289,6.638289 0 0 0 2.800781,-0.626953 6.638289,6.638289 0 0 0 2.800781,0.626953 l 4.189455,0 a 6.638289,6.638289 0 0 0 6.63672,-6.636719 l 0,-18.798828 c 0,-3.57158 -0.37603,-7.160132 -3.3086,-10.294922 -2.5964,-2.77548 -6.305124,-3.724609 -9.55859,-3.724609 l -0.314453,0 c -1.512904,0 -3.072468,0.376467 -4.558594,0.960938 -1.707858,-0.629351 -3.504624,-0.960938 -5.181641,-0.960938 l -0.314453,0 c -0.46307,0 -0.933855,0.199569 -1.40625,0.261719 a 6.638289,6.638289 0 0 0 -1.839844,-0.261719 l -3.925781,0 z m 59.800776,0 a 6.638289,6.638289 0 0 0 -6.63672,6.636719 l 0,3.927734 a 6.638289,6.638289 0 0 0 1.30078,3.935547 c -2.49985,2.90706 -3.39453,6.625712 -3.39453,10.201172 l 0,1.046875 c 0,3.60138 0.81639,7.549514 3.94532,10.402344 a 6.638289,6.638289 0 0 0 0.15234,0.134765 c 3.01988,2.58847 6.60214,3.169922 10.13086,3.169922 l 4.66016,0 c 0.9927,0 2.01827,-0.23169 3.03125,-0.55664 0.89722,0.31118 1.87407,0.55664 3.04296,0.55664 l 2.88086,0 a 6.638289,6.638289 0 0 0 6.63672,-6.636719 l 0,-3.666015 a 6.638289,6.638289 0 0 0 -2.61914,-5.275391 l 0,-8.861328 c 0,-4.02722 -1.10949,-8.324303 -4.35937,-11.283203 -3.14155,-2.89134 -7.18765,-3.732422 -11.17774,-3.732422 l -7.59375,0 z m -59.802729,6.636719 3.927734,0 0,1.205078 c 0.907581,-0.80286 1.989444,-1.205078 3.246094,-1.205078 l 0.314453,0 c 2.443488,0 4.171292,0.697471 5.183594,2.09375 1.15193,-1.396279 2.669712,-2.09375 4.554688,-2.09375 l 0.314453,0 c 2.129324,0 3.700589,0.540931 4.71289,1.623047 1.012302,1.082115 1.517573,3.002115 1.517573,5.759765 l 0,18.796875 -4.187495,0 0,-18.849609 c 0,-1.431185 -0.158493,-2.425864 -0.472656,-2.984375 -0.279255,-0.558511 -0.941072,-0.837891 -1.988281,-0.837891 l -0.314453,0 c -1.047209,0 -1.780335,0.366563 -2.199219,1.09961 -0.383976,0.698139 -0.593999,1.484748 -0.628906,2.357421 l 0,19.214844 -4.1875,0 0,-18.849609 c 0,-1.466092 -0.176321,-2.460771 -0.525391,-2.984375 -0.349069,-0.558511 -0.977184,-0.837891 -1.884765,-0.837891 l -0.314453,0 c -1.047209,0 -1.778383,0.315034 -2.197266,0.94336 -0.418884,0.593418 -0.646734,1.273062 -0.681641,2.041015 l 0,19.6875 -4.189453,0 0,-26.179687 z m 59.802729,0 7.5918,0 c 3.0369,0 5.27194,0.66377 6.70312,1.990234 1.4661,1.326465 2.19922,3.454534 2.19922,6.386719 l 0,12.568359 c 0,0.523605 0.1922,0.92387 0.57618,1.203125 0.41888,0.244349 1.09852,0.367188 2.04101,0.367188 l 0,3.664062 -2.87891,0 c -0.45379,0 -0.96102,-0.138713 -1.51953,-0.417968 -0.5236,-0.279256 -0.97735,-0.663647 -1.36133,-1.152344 -0.80286,1.047209 -1.86689,1.570312 -3.19335,1.570312 l -4.66016,0 c -2.65293,0 -4.59076,-0.523103 -5.8125,-1.570312 -1.18684,-1.082116 -1.7793,-2.914932 -1.7793,-5.498047 l 0,-1.046875 c 0,-5.410579 2.54812,-8.115234 7.64453,-8.115234 l 6.49219,0 0,-2.619141 c 0,-1.082116 -0.33091,-1.918301 -0.99414,-2.511719 -0.66323,-0.593418 -1.64204,-0.890625 -2.93359,-0.890625 l -8.11524,0 0,-3.927734 z m 83.26367,0 12.14649,0 0,22.253906 7.75,0 0,3.925781 -12.19922,0 0,-22.251953 -7.69727,0 0,-3.927734 z m 36.70704,0 10.99609,0 0,9.6875 c 0,2.618022 -0.7153,4.676735 -2.14648,6.177734 -1.43119,1.466092 -3.33336,2.199219 -5.70704,2.199219 l -4.18945,0 0,2.251953 4.08399,0 c 3.00199,0 5.20137,0.59246 6.59765,1.779297 1.43119,1.15193 2.14649,2.915389 2.14649,5.289062 l 0,0.628907 c 0,2.373673 -0.7153,4.135179 -2.14649,5.287109 -1.39628,1.186837 -3.59566,1.78125 -6.59765,1.78125 l -10.89063,0 0,-3.927734 11.41406,0 c 1.25665,0 2.1998,-0.243725 2.82813,-0.732422 0.62832,-0.488698 0.9414,-1.116813 0.9414,-1.884766 l 0,-1.675781 c 0,-0.80286 -0.31308,-1.430975 -0.9414,-1.884766 -0.62833,-0.488697 -1.57148,-0.734375 -2.82813,-0.734375 l -9.05859,0 0,-7.224609 c -1.15193,-0.628325 -2.00594,-1.53582 -2.56445,-2.722656 -0.55852,-1.186837 -0.8379,-2.722446 -0.83789,-4.607422 l 0,-1.310547 c 0,-2.932185 0.71529,-5.060254 2.14648,-6.386719 1.46609,-1.326464 3.717,-1.990234 6.75391,-1.990234 z m -56.71289,3.927734 c -1.15193,0 -2.0079,0.313081 -2.56641,0.941406 -0.55851,0.593419 -0.83594,1.239361 -0.83594,1.9375 l 0,15.447266 6.33399,0 c 1.29155,0 2.27036,-0.297207 2.93359,-0.890625 0.66323,-0.593418 0.99414,-1.431556 0.99414,-2.513672 l 0,-11.519531 c 0,-1.082116 -0.33091,-1.918301 -0.99414,-2.511719 -0.66323,-0.593418 -1.64204,-0.890625 -2.93359,-0.890625 l -2.93164,0 z m 56.18945,0 c -1.29156,0 -2.26841,0.297207 -2.93164,0.890625 -0.66323,0.593418 -0.9961,1.429603 -0.9961,2.511719 l 0,3.404297 c 0,1.082115 0.33287,1.920253 0.9961,2.513672 0.66323,0.593418 1.64008,0.888672 2.93164,0.888672 l 3.66601,0 c 1.08212,0 1.90243,-0.348736 2.46094,-1.046876 0.55851,-0.698139 0.87159,-1.431265 0.94141,-2.199218 l 0,-6.962891 -7.06836,0 z m -113.94922,9.947266 c -0.90758,0 -1.65854,0.297206 -2.25195,0.890625 -0.59342,0.593418 -0.89063,1.344372 -0.89063,2.251953 l 0,2.617187 c 0,0.907581 0.21002,1.571351 0.62891,1.990235 0.41888,0.418883 1.08265,0.628906 1.99023,0.628906 l 4.66016,0 c 1.04721,0 1.71098,-0.245678 1.99023,-0.734375 0.27926,-0.488697 0.41797,-1.116813 0.41797,-1.884766 l 0,-5.759765 -6.54492,0 z m 128.26953,3.050781 0.13672,0.113281 c -0.0257,-0.0218 -0.0543,-0.03309 -0.0801,-0.05469 -0.0213,-0.0174 -0.0352,-0.04129 -0.0566,-0.05859 z"
       id="path4365"
       inkscape:connector-curvature="0" />
    <path
       style="font-style:normal;font-variant:normal;font-weight:normal;font-stretch:normal;font-size:52.3604393px;line-height:125%;font-family:'Share Tech Mono';-inkscape-font-specification:'Share Tech Mono, Normal';text-align:start;letter-spacing:0px;word-spacing:0px;writing-mode:lr-tb;text-anchor:start;display:inline;fill:#000000;fill-opacity:1;stroke:none;stroke-width:1px;stroke-linecap:butt;stroke-linejoin:miter;stroke-opacity:1"
       d="m 25.714381,70.866399 a 5.6406716,5.6406716 0 0 0 -5.640625,5.640625 l 0,36.652336 a 5.6406716,5.6406716 0 0 0 5.640625,5.64063 l 4.554688,0 a 5.6406716,5.6406716 0 0 0 5.640625,-5.64063 l 0,-0.16601 1.09375,2.45898 a 5.6406716,5.6406716 0 0 0 5.152343,3.34766 l 4.97461,0 a 5.6406716,5.6406716 0 0 0 5.138672,-7.9668 L 46.860865,98.889832 c 0.420648,-0.45963 0.943953,-0.82235 1.279297,-1.34765 0.732966,-1.14814 1.21543,-2.38521 1.542969,-3.65625 a 5.6406716,5.6406716 0 0 0 4.78125,2.66015 l 2.054688,0 0,16.613278 a 5.6406716,5.6406716 0 0 0 5.640625,5.64063 l 12.201171,0 a 5.6406716,5.6406716 0 0 0 3.054688,-0.90625 l 0,4.16602 a 5.6406716,5.6406716 0 0 0 5.640625,5.64062 l 4.449219,0 a 5.6406716,5.6406716 0 0 0 5.640625,-5.64062 l 0,-3.25977 0.171875,0 c 3.845046,0 7.617503,-0.81457 10.503903,-3.4707 1.29578,-1.17856 2.17347,-2.61937 2.8125,-4.16211 0.62372,1.5263 1.47597,2.95786 2.75,4.13867 a 5.6406716,5.6406716 0 0 0 0.0508,0.0449 c 2.90167,2.62537 6.67838,3.44922 10.53711,3.44922 l 1.72852,0 c 3.84504,0 7.6175,-0.81454 10.5039,-3.4707 2.98168,-2.71195 4.03905,-6.6837 4.03907,-10.54688 l 0,-9.425778 c 0,-3.8632 -1.05536,-7.83505 -4.03907,-10.54883 -2.88841,-2.658007 -6.66126,-3.468747 -10.5039,-3.468747 l -1.72852,0 c -3.85632,0 -7.6334,0.820125 -10.53711,3.447267 a 5.6406716,5.6406716 0 0 0 -0.0508,0.0449 c -1.26319,1.17077 -2.10934,2.58927 -2.73242,4.09961 -0.62574,-1.52246 -1.48628,-2.94762 -2.77734,-4.1211 -2.90386,-2.673505 -6.68751,-3.470698 -10.556643,-3.470698 l -1.884766,0 c -0.760428,0 -1.529075,0.205291 -2.298828,0.332031 a 5.6406716,5.6406716 0 0 0 -1.890625,-0.332031 l -4.1875,0 a 5.6406716,5.6406716 0 0 0 -5.640625,5.640628 l 0,17.511718 a 5.6406716,5.6406716 0 0 0 -3.054688,-0.9004 l -2.109374,0 0,-16.611318 a 5.6406716,5.6406716 0 0 0 -0.669922,-2.660159 5.6406716,5.6406716 0 0 0 0.93164,-3.09961 l 0,-4.71289 a 5.6406716,5.6406716 0 0 0 -5.640625,-5.640625 l -4.974609,0 a 5.6406716,5.6406716 0 0 0 -5.640625,5.640625 l 0,4.71289 a 5.6406716,5.6406716 0 0 0 0.0059,0.119141 l -1.798828,0 a 5.6406716,5.6406716 0 0 0 -4.365234,2.074219 c -0.243528,-3.43127 -1.450269,-6.873117 -4.166016,-9.185547 -2.873643,-2.50741 -6.591862,-3.361328 -10.375,-3.361328 l -9.84375,0 z m 112.902339,0 a 5.6406716,5.6406716 0 0 0 -5.64062,5.640625 l 0,3.927734 a 5.6406716,5.6406716 0 0 0 5.64062,5.640624 l 2.05664,0 0,21.847658 c 0,2.71816 0.6999,5.79945 3.04297,8.04882 a 5.6406716,5.6406716 0 0 0 0.0801,0.0762 c 1.80775,1.66865 4.45539,2.75195 6.9668,2.75195 l 8.79687,0 a 5.6406716,5.6406716 0 0 0 5.04297,-3.11719 c 0.0244,0.0227 0.0359,0.0517 0.0606,0.0742 a 5.6406716,5.6406716 0 0 0 0.13086,0.11524 c 2.75454,2.36104 6.08808,2.92773 9.48242,2.92773 l 4.66015,0 c 1.00853,0 2.04522,-0.25693 3.0586,-0.61523 0.89145,0.341 1.86006,0.61523 3.01562,0.61523 l 2.87891,0 a 5.6406716,5.6406716 0 0 0 4.03711,-1.70313 5.6406716,5.6406716 0 0 0 4.03125,1.70313 l 10.26172,0 c 3.84504,0 7.6175,-0.81458 10.5039,-3.4707 1.46267,-1.33035 2.45609,-2.96632 3.09375,-4.74219 0.61922,1.7774 1.58809,3.42125 3.04493,4.77148 a 5.6406716,5.6406716 0 0 0 0.0547,0.0508 c 2.92043,2.63552 6.67072,3.39063 10.53321,3.39063 l 7.80273,0 a 5.6406716,5.6406716 0 0 0 5.64063,-5.64063 l 0,-3.92773 a 5.6406716,5.6406716 0 0 0 -0.70704,-2.73047 5.6406716,5.6406716 0 0 0 2.38282,-4.59961 l 0,-6.806638 c 0,-0.34972 -0.13569,-0.68492 -0.1543,-1.03515 a 5.6406716,5.6406716 0 0 0 2.85547,2.17773 l 0,7.660158 a 5.6406716,5.6406716 0 0 0 -3.82227,5.33398 l 0,3.92773 a 5.6406716,5.6406716 0 0 0 5.64063,5.64063 l 13.98047,0 a 5.6406716,5.6406716 0 0 0 5.64062,-5.64063 l 0,-3.92773 a 5.6406716,5.6406716 0 0 0 -5.64062,-5.64063 l -0.0664,0 0,-6.783198 3.67969,0 a 5.6406716,5.6406716 0 0 0 5.64062,-5.64062 l 0,-4.1875 a 5.6406716,5.6406716 0 0 0 -5.64062,-5.640627 l -5.39453,0 c -0.73139,0 -1.46075,0.233954 -2.19727,0.365234 a 5.6406716,5.6406716 0 0 0 -1.99023,-0.365234 l -8.01172,0 a 5.6406716,5.6406716 0 0 0 -5.64063,5.640627 l 0,2.07812 c -0.54235,-1.375 -1.26808,-2.67909 -2.3164,-3.80078 -2.49177,-2.732658 -6.22901,-3.917967 -9.74414,-3.917967 l -2.46094,0 c -3.81106,0 -7.59228,0.754374 -10.42774,3.589847 -1.3213,1.32131 -2.15537,2.86065 -2.70703,4.5 -0.62448,-1.72167 -1.58012,-3.31438 -3.01562,-4.61914 -2.90386,-2.673524 -6.68751,-3.470707 -10.55664,-3.470707 l -0.17188,0 0,-4.832031 a 5.6406716,5.6406716 0 0 0 -5.64062,-5.640625 l -4.44922,0 a 5.6406716,5.6406716 0 0 0 -5.64063,5.640625 l 0,14.380858 c -0.58154,-2.28323 -1.62263,-4.42409 -3.44336,-6.08008 -2.88654,-2.656287 -6.6593,-3.468747 -10.50195,-3.468747 l -7.59375,0 a 5.6406716,5.6406716 0 0 0 -5.64062,5.640627 l 0,3.92578 a 5.6406716,5.6406716 0 0 0 1.62695,3.95703 c -0.0857,0.085 -0.19214,0.13815 -0.27539,0.22656 -2.2711,2.41173 -3.0871,5.571308 -3.27344,8.755858 a 5.6406716,5.6406716 0 0 0 -1.65625,-0.25391 l -3.15625,0 0,-27.083976 a 5.6406716,5.6406716 0 0 0 -5.64062,-5.640625 l -12.14649,0 z m -112.902339,5.640625 9.84375,0 c 2.967092,0 5.200173,0.66377 6.701172,1.990234 1.535906,1.291558 2.304688,3.350271 2.304688,6.177734 l 0,5.02734 c 0,3.94449 -1.571265,6.40542 -4.712891,7.38282 l 7.279297,16.074208 -4.97461,0 -6.753906,-15.183588 -5.132812,0 0,15.183588 -4.554688,0 0,-36.652336 z m 36.183594,0 4.974609,0 0,4.71289 -4.974609,0 0,-4.71289 z m 76.718745,0 12.14649,0 0,31.154296 c 0,0.55851 0.14066,0.96073 0.41992,1.20508 0.27925,0.24434 0.75083,0.36718 1.41406,0.36718 l 6.96289,0 0,3.92578 -8.79687,0 c -1.18684,0 -2.23305,-0.41809 -3.14063,-1.25586 -0.87267,-0.83776 -1.30859,-2.1653 -1.30859,-3.98046 l 0,-27.488282 -7.69727,0 0,-3.927734 z m 57.3418,0 4.44922,0 0,11.519528 c 1.04721,-0.69814 2.35692,-1.04687 3.92773,-1.04687 l 1.88477,0 c 3.07181,0 5.32272,0.66377 6.7539,1.99023 1.43119,1.29156 2.14844,3.41963 2.14844,6.38672 l 0,9.425778 c 0,2.93219 -0.73313,5.06026 -2.19922,6.38672 -1.43118,1.32646 -3.66622,1.99023 -6.70312,1.99023 l -10.26172,0 0,-36.652336 z m -165.689451,3.927734 0,13.613284 5.917968,0 c 1.326465,0 2.285488,-0.29721 2.878907,-0.89063 0.628325,-0.62832 0.943359,-1.60517 0.943359,-2.93164 l 0,-6.021483 c 0,-1.326464 -0.315034,-2.285488 -0.943359,-2.878906 -0.593419,-0.593418 -1.552442,-0.890625 -2.878907,-0.890625 l -5.917968,0 z m 24.195312,6.544924 12.146484,0 0,22.253898 7.75,0 0,3.92578 -12.201171,0 0,-22.251948 -7.695313,0 0,-3.92773 z m 28.591797,0 4.1875,0 0,1.25586 c 1.082116,-0.83777 2.479012,-1.25586 4.189453,-1.25586 l 1.884766,0 c 3.071812,0 5.322721,0.66377 6.753903,1.99023 1.43119,1.29156 2.14844,3.41963 2.14844,6.38672 l 0,9.425778 c 0,2.93219 -0.73313,5.06026 -2.19922,6.38672 -1.431184,1.32646 -3.666218,1.99023 -6.703123,1.99023 l -5.8125,0 0,8.90235 -4.449219,0 0,-35.082028 z m 36.916012,0 1.72852,0 c 3.0369,0 5.27194,0.66377 6.70312,1.99023 1.46609,1.32647 2.19922,3.45454 2.19922,6.38672 l 0,9.425778 c 0,2.93219 -0.73313,5.06026 -2.19922,6.38672 -1.43118,1.32646 -3.66622,1.99023 -6.70312,1.99023 l -1.72852,0 c -3.0369,0 -5.28781,-0.66377 -6.75391,-1.99023 -1.43118,-1.32646 -2.14648,-3.45453 -2.14648,-6.38672 l 0,-9.425778 c 0,-2.93218 0.7153,-5.06025 2.14648,-6.38672 1.4661,-1.32646 3.71701,-1.99023 6.75391,-1.99023 z m 48.80664,0 7.59375,0 c 3.03691,0 5.26999,0.66377 6.70117,1.99023 1.4661,1.32647 2.19922,3.45454 2.19922,6.38672 l 0,12.566408 c 0,0.5236 0.1922,0.92582 0.57617,1.20507 0.41889,0.24435 1.09853,0.36719 2.04102,0.36719 l 0,3.66406 -2.87891,0 c -0.45379,0 -0.96102,-0.13871 -1.51953,-0.41796 -0.5236,-0.27926 -0.97735,-0.66365 -1.36133,-1.15235 -0.80286,1.04721 -1.86689,1.57031 -3.19336,1.57031 l -4.66015,0 c -2.65293,0 -4.59076,-0.5231 -5.8125,-1.57031 -1.18684,-1.08211 -1.7793,-2.91493 -1.7793,-5.49805 l 0,-1.04687 c 0,-5.410578 2.54812,-8.115228 7.64453,-8.115228 l 6.49219,0 0,-2.61914 c 0,-1.08212 -0.33091,-1.92026 -0.99414,-2.51368 -0.66323,-0.59341 -1.64008,-0.88867 -2.93164,-0.88867 l -8.11719,0 0,-3.92773 z m 64.14844,0 2.46094,0 c 2.47839,0 4.34686,0.69747 5.60351,2.09375 1.29156,1.36137 1.9375,3.36855 1.9375,6.02148 l 0,6.806638 -13.92969,0 0,3.92774 c 0,1.08211 0.33287,1.92025 0.9961,2.51367 0.66323,0.59342 1.64008,0.89062 2.93164,0.89062 l 8.32617,0 0,3.92578 -7.80273,0 c -3.07182,0 -5.32272,-0.64594 -6.75391,-1.9375 -1.43119,-1.32646 -2.14648,-3.47236 -2.14648,-6.43945 l 0,-9.425778 c 0,-3.002 0.64594,-5.1479 1.9375,-6.43945 1.29155,-1.29156 3.43745,-1.9375 6.43945,-1.9375 z m 20.16211,0 8.01172,0 0,1.41406 c 1.15193,-0.94249 2.54687,-1.41406 4.1875,-1.41406 l 5.39453,0 0,4.18945 -5.91797,0 c -1.11702,0 -1.95321,0.36656 -2.51172,1.09961 -0.55851,0.69814 -0.85572,1.41344 -0.89062,2.14648 l 0,14.818358 5.70703,0 0,3.92578 -13.98047,0 0,-3.92578 3.82226,0 0,-18.326168 -3.82226,0 0,-3.92773 z m -162.179686,3.92773 c -1.15193,0 -2.007895,0.31308 -2.566407,0.94141 -0.558511,0.59342 -0.83789,1.23936 -0.83789,1.9375 l 0,15.447258 6.335937,0 c 1.291558,0 2.270362,-0.2972 2.933594,-0.89062 0.663232,-0.59342 0.994141,-1.43156 0.994141,-2.51367 l 0,-11.519528 c 0,-1.08212 -0.330909,-1.92026 -0.994141,-2.51368 -0.663232,-0.59341 -1.642036,-0.88867 -2.933594,-0.88867 l -2.93164,0 z m 28.539056,0 c -1.29155,0 -2.26841,0.29526 -2.93164,0.88867 -0.66323,0.59342 -0.99414,1.43156 -0.99414,2.51368 l 0,11.519528 c 0,1.08211 0.33091,1.92025 0.99414,2.51367 0.66323,0.59342 1.64009,0.89062 2.93164,0.89062 l 2.77539,0 c 1.29156,0 2.26841,-0.2972 2.93164,-0.89062 0.66324,-0.59342 0.9961,-1.43156 0.9961,-2.51367 l 0,-11.519528 c 0,-1.08212 -0.33286,-1.92026 -0.9961,-2.51368 -0.66323,-0.59341 -1.64008,-0.88867 -2.93164,-0.88867 l -2.77539,0 z m 84.36328,0 c -1.15193,0 -2.00789,0.31308 -2.5664,0.94141 -0.55851,0.59342 -0.83789,1.23936 -0.83789,1.9375 l 0,15.447258 6.33594,0 c 1.29155,0 2.2684,-0.2972 2.93164,-0.89062 0.66323,-0.59342 0.99609,-1.43156 0.99609,-2.51367 l 0,-11.519528 c 0,-1.08212 -0.33286,-1.92026 -0.99609,-2.51368 -0.66324,-0.59341 -1.64009,-0.88867 -2.93164,-0.88867 l -2.93165,0 z m 28.5918,0 c -1.25665,0 -2.14632,0.29526 -2.66992,0.88867 -0.4887,0.55851 -0.73438,1.39665 -0.73438,2.51368 l 0,3.66601 9.58204,0 0,-3.92773 c 0,-0.90758 -0.29526,-1.65854 -0.88868,-2.25196 -0.59341,-0.59341 -1.34437,-0.88867 -2.25195,-0.88867 l -3.03711,0 z m -58.12695,9.947268 c -0.90758,0 -1.65854,0.2972 -2.25196,0.89062 -0.59341,0.59342 -0.88867,1.34437 -0.88867,2.25196 l 0,2.61718 c 0,0.90758 0.20807,1.57135 0.62696,1.99024 0.41888,0.41888 1.08265,0.6289 1.99023,0.6289 l 4.66016,0 c 1.04721,0 1.71098,-0.24567 1.99023,-0.73437 0.27926,-0.4887 0.41797,-1.11681 0.41797,-1.88477 l 0,-5.75976 -6.54492,0 z"
       id="path4371"
       inkscape:connector-curvature="0" />
  </g>
  <g
     style="display:inline"
     transform="translate(9.2751364,-846.04141)"
     id="g4442"
     inkscape:groupmode="layer"
     inkscape:label="cara">
    <g
       transform="translate(273.40588,869.24889)"
       id="g4444">
      <circle
         style="opacity:1;fill:none;fill-opacity:1;stroke:none;stroke-width:0.1;stroke-linecap:round;stroke-linejoin:round;stroke-miterlimit:4;stroke-dasharray:none;stroke-dashoffset:0;stroke-opacity:1"
         id="circle4446"
         cx="-117.25811"
         cy="5.794558"
         r="65.422302"
         transform="matrix(-0.64932141,-0.76051411,0.76051411,-0.64932141,0,0)" />
      <g
         style="display:inline"
         id="g4448">
        <path
           inkscape:connector-curvature="0"
           style="opacity:1;fill:#000000"
           d="m 12.768461,15.688175 -1.320529,0.112255 -1.286711,0.385234 -1.2079835,0.664071 -1.084342,0.948767 -0.9686649,1.31698 -0.6056135,1.414743 -0.2518128,1.461673 0.092737,1.457772 0.4280366,1.403037 0.7540853,1.297471 1.0708832,1.141071 1.3784308,0.933841 1.2370248,0.384056 1.561917,0.116496 1.589581,-0.148073 1.320015,-0.409649 1.157001,-0.574569 0.856136,1.029081 7.526583,8.755757 6.671157,7.727394 -2.396186,2.462647 -2.04259,2.295046 -0.295238,0.700859 -0.05693,0.791686 0.10386,1.077019 0.521731,1.177651 1.258204,1.81333 2.31328,2.984055 3.073663,4.12204 -1.475015,3.363094 -1.288227,2.981793 -1.025775,2.744611 -0.909733,2.663458 -5.186137,0.683909 -3.77152,0.476682 -2.266516,0.424458 -1.277968,0.507903 -0.805873,0.727014 -0.780385,0.926889 0,9.489692 0,9.489696 0.863282,0.923314 0.703404,0.657007 0.954829,0.417051 1.803864,0.341142 3.250512,0.429279 3.67522,0.306182 7.583583,0.17134 43.068785,0.11492 43.915894,-0.0519 7.25303,-0.18203 3.82328,-0.354241 3.8674,-0.581294 2.19488,-0.519966 0.60725,-0.320931 0.46064,-0.392125 0.33426,-0.585738 0.22812,-0.90177 0.21873,-3.241315 0.0369,-5.974478 0,-9.233854 -0.77968,-0.926889 -0.80464,-0.72626 -1.27753,-0.50837 -2.26942,-0.427391 -3.78028,-0.483326 -5.18543,-0.683909 -0.90116,-2.654168 -1.02577,-2.744611 -1.28823,-2.981793 -1.47501,-3.373815 3.48672,-4.68303 2.51728,-3.367732 1.15597,-1.83484 0.1291,-1.185553 -0.27581,-1.136133 -0.73343,-1.209115 -1.24377,-1.404497 -1.95311,-1.986698 6.82409,-7.878897 7.68022,-8.907263 0.85614,-1.029081 1.02408,0.485957 1.20907,0.455658 1.21022,0.23046 1.19047,0.01099 1.14985,-0.202765 1.08833,-0.41079 1.00593,-0.613091 0.90262,-0.809668 0.77845,-1.000521 0.40235,-0.703674 0.23864,-0.692558 0.14368,-2.044753 -0.0575,-1.563178 -0.24404,-1.116083 -0.53756,-0.952749 -0.93816,-1.073177 -1.23469,-0.998038 -1.38902,-0.627507 -1.47596,-0.268321 -1.49546,0.07952 -1.44755,0.416008 -1.33223,0.741152 -1.14949,1.054948 -0.89933,1.357397 -0.46462,1.191288 -0.21728,1.202598 0.0324,1.185167 0.28434,1.138995 0.54813,1.872355 -0.54127,0.714307 -1.65393,1.605474 -6.5384,5.784943 -8.78292,7.575174 -2.61986,-2.607718 -2.41415,-2.208264 -0.75722,-0.392863 -0.80417,-0.159524 -1.16394,-0.0056 -0.87349,0.217168 -5.00391,3.772582 -4.32285,3.408113 -2.994338,-1.452147 -2.98255,-1.311244 -2.966114,-1.112812 -2.088271,-0.782672 -0.871763,-0.517973 -0.73965,-6.062998 -0.760632,-5.083963 -0.363083,-0.942466 -0.542825,-0.640439 -0.933318,-0.932605 -9.684791,0 -9.685508,0 -0.957614,0.957617 -0.557837,0.649015 -0.366429,0.922458 -0.74156,4.94318 -0.714637,6.038699 -0.172129,0.273606 -0.530386,0.323142 -2.258237,0.855399 -2.972075,1.115503 -2.996592,1.317843 -3.013635,1.461437 -4.107032,-3.238031 -3.246026,-2.538185 -1.81614,-1.273192 -1.079695,-0.411769 -1.03669,0.04608 -0.814863,0.15396 -0.732256,0.357139 -2.176148,1.961552 -2.329724,2.316146 -8.713595,-7.496565 -6.581065,-5.805483 -1.53591,-1.507382 -0.446548,-0.65179 0.642461,-1.810182 0.285566,-1.166646 0.01824,-1.205481 -0.248366,-1.236805 -0.514236,-1.260619 -1.046313,-1.49458 -1.351548,-1.091479 -1.561173,-0.675669 -1.675183,-0.247149 0,0 m 40.520046,36.212913 2.785664,0.08647 2.786377,0.08718 0.455225,2.563411 0.455942,2.562697 1.884503,0.738936 1.884504,0.738223 2.231818,-1.542194 2.231102,-1.542905 1.928813,1.945961 1.92881,1.94668 -1.552911,2.223956 -1.553624,2.224671 0.793963,1.797318 0.849708,1.886647 2.679894,0.571712 2.623443,0.481668 -0.08647,2.759934 -0.08647,2.760654 -2.273267,0.400911 -1.702814,0.388378 -0.902759,0.37057 -1.007643,2.070308 -0.674619,1.711563 0.417347,0.627452 -10.033533,0 -1.266341,-3.028639 0.691772,-0.576717 0.906162,-0.58743 0.984774,-1.32423 0.463104,-1.001294 0.251275,-1.034853 0.04655,-1.039866 -0.151083,-1.016335 -0.341611,-0.96426 -0.525039,-0.88364 -0.701365,-0.774477 -0.87059,-0.636767 -1.387245,-0.560562 -1.510689,-0.194044 -1.463308,0.173611 -1.245105,0.542405 -1.055466,0.875943 -0.782868,1.000747 -0.507732,1.092606 -0.23006,1.15152 0.05015,1.177489 0.332896,1.170513 0.618179,1.130593 0.906,1.057727 1.368534,1.316367 -0.453796,1.107689 -0.740367,1.825905 -10.019241,0 0.457369,-0.670331 -0.816119,-1.99313 -0.816832,-1.993844 -2.551977,-0.455939 -2.55269,-0.455938 0,-2.725635 0,-2.725634 2.520532,-0.490241 1.849081,-0.424663 0.906568,-0.332858 0.907592,-1.968831 0.671754,-1.700832 -1.382111,-1.977408 -0.976118,-1.520319 -0.405993,-0.878724 0.512449,-0.804723 1.231983,-1.342768 1.743721,-1.726567 2.344017,1.547908 2.344017,1.547909 1.745149,-0.750374 1.112697,-0.557195 0.665028,-0.727996 0.436492,-1.302788 0.427089,-2.28157 0.195813,-1.147711 0,0 m 43.93745,0.303009 2.786378,0.08647 2.78567,0.08719 0.45594,2.563411 0.45522,2.562693 1.88451,0.738936 1.88521,0.738223 2.23111,-1.54219 2.2311,-1.542905 1.92881,1.945961 1.92953,1.946676 -1.55363,2.223958 -1.55291,2.224669 0.79325,1.797318 0.85042,1.887365 2.6799,0.570994 2.62273,0.481668 -0.0865,2.759937 -0.0865,2.760651 -2.27256,0.400912 -1.70281,0.388375 -0.90276,0.370572 -1.00764,2.070312 -0.67462,1.71156 0.21582,0.324446 -9.95921,0 -1.13985,-2.725634 0.69177,-0.576713 0.90616,-0.587434 0.98477,-1.324227 0.46311,-1.001294 0.25128,-1.034852 0.0465,-1.039866 -0.15108,-1.016336 -0.34161,-0.96426 -0.52504,-0.883641 -0.70137,-0.774477 -0.87059,-0.636768 -1.38713,-0.560559 -1.51044,-0.194044 -1.463067,0.173611 -1.244994,0.542402 -1.055497,0.875944 -0.782948,1.000748 -0.507847,1.092607 -0.230191,1.15152 0.05002,1.17749 0.332781,1.170513 0.618098,1.130593 0.905968,1.057726 1.368533,1.316366 -0.453081,1.10769 -0.618162,1.522896 -9.934913,0 0.250836,-0.367326 -0.816832,-1.993126 -0.816119,-1.993844 -2.55269,-0.455939 -2.551977,-0.455942 0,-2.725634 0,-2.725635 2.519818,-0.490241 1.84944,-0.424661 0.906923,-0.332856 0.906878,-1.968831 0.671758,-1.700842 -1.38211,-1.977408 -0.97612,-1.520317 -0.405991,-0.878726 0.512449,-0.804723 1.231986,-1.342767 1.744431,-1.726567 2.344017,1.547907 2.343303,1.547909 1.745149,-0.75037 1.112699,-0.557195 0.665027,-0.727997 0.436491,-1.302788 0.427089,-2.281573 0.195813,-1.147707 5.6e-5,-4e-6 m -55.50103,53.050529 -5.856477,0.0794 -1.300124,0.10902 -0.402137,0.16386 1.680118,3.6661 1.680118,3.31521 -1.188446,1.56006 -3.947666,5.04535 -1.950244,2.64197 -0.813982,1.45863 0.386797,0.65256 1.147684,1.33679 4.472064,4.61034 4.949945,4.77215 1.098857,0.85053 0.541598,0.14161 5.494862,-4.11561 4.916,-3.89479 2.811395,1.50146 2.497777,1.21891 2.787711,1.17808 2.704447,0.98992 2.247987,0.65438 1.06803,0.32909 0.444145,0.30122 0.763236,6.53895 0.709806,5.03569 0.278632,1.12416 0.281475,0.47557 0.948641,0.18926 2.020265,0.13169 5.808236,0.0945 5.753237,-0.12449 1.951516,-0.142 0.852394,-0.19393 0.474227,-2.15514 0.646327,-4.58677 0.97334,-6.49607 3.728272,-1.28849 3.534961,-1.31467 3.550684,-1.60178 3.561768,-1.8066 4.73234,3.73041 5.44483,4.10704 0.53271,0.0752 0.94085,-0.61205 5.26835,-5.08952 4.48562,-4.62386 1.15093,-1.34005 0.38786,-0.65365 -0.81409,-1.45863 -1.95013,-2.64197 -3.94767,-5.04535 -1.18845,-1.56006 1.68012,-3.31521 1.68012,-3.6661 -0.40164,-0.16388 -1.29845,-0.10902 -5.84865,-0.0794 -7.54873,0 -1.35924,1.8938 -1.58406,2.00635 -1.8004,1.92028 -1.983608,1.81012 -2.133715,1.67584 -2.250713,1.51746 -2.334597,1.33497 -2.385371,1.12838 -2.403032,0.89768 -3.890695,0.96589 -4.15593,0.51808 -4.158182,0.0521 -3.897447,-0.43198 -3.186399,-0.75267 -3.097113,-1.05557 -2.980777,-1.34141 -2.837388,-1.61017 -2.66695,-1.86185 -2.469461,-2.09648 -2.244921,-2.31403 -1.993329,-2.51451 -1.241329,-1.7423 -7.558739,0 0,-2e-5"
           id="path4450" />
      </g>
      <g
         style="display:inline"
         id="g4452">
        <g
           transform="translate(1.3150211,0.32875529)"
           style="font-style:normal;font-variant:normal;font-weight:normal;font-stretch:normal;font-size:25px;line-height:125%;font-family:'Share Tech Mono';-inkscape-font-specification:'Share Tech Mono, Normal';text-align:start;letter-spacing:0px;word-spacing:0px;writing-mode:lr-tb;text-anchor:start;fill:#000000;fill-opacity:1;stroke:none;stroke-width:1px;stroke-linecap:butt;stroke-linejoin:miter;stroke-opacity:1"
           id="g4454">
          <path
             inkscape:connector-curvature="0"
             d="m 36.966539,27.186144 4.121591,5.964478 -1.789344,1.236477 -9.948668,-14.397014 3.866627,-2.671928 q 1.748209,-1.208052 3.172667,-1.037633 1.430814,0.13564 2.582017,1.801581 l 1.364388,1.974447 q 1.606,2.32409 0.152902,4.179085 l 7.222037,4.338597 -1.953881,1.350177 -6.774755,-4.13108 -2.015581,1.392813 z m 0.08764,-8.052667 q -0.540071,-0.781552 -1.15189,-0.875371 -0.591252,-0.108031 -1.372804,0.43204 l -2.32409,1.605999 3.69522,5.347462 2.324089,-1.605999 q 0.781552,-0.540071 0.889584,-1.131323 0.114386,-0.626032 -0.425685,-1.407584 l -1.634424,-2.365224 z"
             style="font-style:normal;font-variant:normal;font-weight:normal;font-stretch:normal;font-size:25px;line-height:125%;font-family:'Share Tech Mono';-inkscape-font-specification:'Share Tech Mono, Normal';text-align:start;writing-mode:lr-tb;text-anchor:start"
             id="path4456" />
          <path
             inkscape:connector-curvature="0"
             d="m 49.509354,8.4901994 0.872028,2.0741426 -2.189373,0.920474 -0.872027,-2.0741427 2.189372,-0.9204739 z m -2.797379,8.6339976 -0.72669,-1.728452 5.346679,-2.247894 4.117909,9.794562 3.410812,-1.434001 0.72669,1.728452 -5.369724,2.257583 -4.11791,-9.794562 -3.387766,1.424312 z"
             style="font-style:normal;font-variant:normal;font-weight:normal;font-stretch:normal;font-size:25px;line-height:125%;font-family:'Share Tech Mono';-inkscape-font-specification:'Share Tech Mono, Normal';text-align:start;writing-mode:lr-tb;text-anchor:start"
             id="path4458" />
          <path
             inkscape:connector-curvature="0"
             d="m 63.182755,9.3937264 0.113877,0.5890942 Q 63.943669,9.2466351 65.146403,9.014136 l 0.883641,-0.1708157 q 2.160012,-0.4175495 3.346687,0.320643 1.18193,0.7136468 1.585245,2.8000217 l 0.854078,4.418207 q 0.39857,2.06183 -0.45204,3.193847 -0.826063,1.127273 -2.96153,1.540078 l -2.724561,0.526681 0.80663,4.172751 -2.086375,0.403315 -3.17907,-16.4455472 1.963647,-0.3795904 z m 2.074058,1.5087776 q -0.810005,0.156581 -1.117326,0.67432 -0.312067,0.493193 -0.217169,0.984105 l 1.399739,7.24095 2.970017,-0.574131 q 0.908187,-0.17556 1.29389,-0.682988 0.385704,-0.507428 0.238612,-1.268341 L 68.780703,11.876388 Q 68.633611,11.115475 68.086582,10.788353 67.539553,10.46123 66.631366,10.636791 l -1.374553,0.265713 z"
             style="font-style:normal;font-variant:normal;font-weight:normal;font-stretch:normal;font-size:25px;line-height:125%;font-family:'Share Tech Mono';-inkscape-font-specification:'Share Tech Mono, Normal';text-align:start;writing-mode:lr-tb;text-anchor:start"
             id="path4460" />
          <path
             inkscape:connector-curvature="0"
             d="m 86.192103,16.065571 q -0.03054,2.099778 -1.094244,3.034407 -1.038707,0.934993 -3.213477,0.903363 l -0.824913,-0.012 q -2.17477,-0.03163 -3.210843,-0.996799 -1.011076,-0.964806 -0.980537,-3.064584 l 0.06544,-4.499524 Q 76.964069,9.3306557 78.002775,8.3956625 79.06648,7.4610328 81.24125,7.4926632 l 0.824913,0.011998 q 2.17477,0.03163 3.185846,0.9964363 1.036073,0.9651693 1.005533,3.0649465 l -0.06544,4.499525 z M 84.140042,11.035196 Q 84.151312,10.260278 83.682543,9.8284152 83.213774,9.3965523 82.288872,9.3831003 l -1.32486,-0.019269 q -0.924902,-0.013452 -1.406033,0.4045953 -0.48113,0.4180474 -0.492401,1.1929654 l -0.07999,5.499418 q -0.01127,0.774918 0.457499,1.206781 0.468769,0.431863 1.393671,0.445315 l 1.32486,0.01927 q 0.924902,0.01345 1.406033,-0.404595 0.48113,-0.418048 0.492401,-1.192966 l 0.07998,-5.499418 z"
             style="font-style:normal;font-variant:normal;font-weight:normal;font-stretch:normal;font-size:25px;line-height:125%;font-family:'Share Tech Mono';-inkscape-font-specification:'Share Tech Mono, Normal';text-align:start;writing-mode:lr-tb;text-anchor:start"
             id="path4462" />
          <path
             inkscape:connector-curvature="0"
             d="m 95.62612,21.743898 q -0.829613,-0.18505 -1.333399,-0.912167 -0.479386,-0.721674 -0.196369,-1.990493 L 96.953733,6.0310466 93.366879,5.23098 93.775076,3.4009527 99.435961,4.6636428 96.197596,19.18186 q -0.08708,0.390405 0.07002,0.604749 0.157105,0.214344 0.620712,0.317754 l 3.245252,0.723869 -0.408201,1.830028 -4.099261,-0.914362 z"
             style="font-style:normal;font-variant:normal;font-weight:normal;font-stretch:normal;font-size:25px;line-height:125%;font-family:'Share Tech Mono';-inkscape-font-specification:'Share Tech Mono, Normal';text-align:start;writing-mode:lr-tb;text-anchor:start"
             id="path4464" />
          <path
             inkscape:connector-curvature="0"
             d="m 110.95196,27.350085 q -0.29602,-0.134164 -0.57778,-0.481452 -0.259,-0.336968 -0.36499,-0.769277 -0.83333,0.445746 -1.6986,0.05357 l -2.02657,-0.918507 q -1.73055,-0.784342 -2.2179,-1.828664 -0.45427,-1.056773 0.30943,-2.741783 l 0.20641,-0.455409 q 1.59964,-3.529413 4.92412,-2.02265 l 2.82353,1.279716 0.51602,-1.13852 q 0.31993,-0.705883 0.0627,-1.289065 -0.2572,-0.583183 -1.0997,-0.965034 l -3.52942,-1.599645 0.77403,-1.707781 3.30171,1.496443 q 1.98102,0.897865 2.52244,2.186273 0.56418,1.298728 -0.30272,3.211442 l -2.47687,5.464898 q -0.15481,0.341556 0.0131,0.637243 0.201,0.283236 0.8158,0.561884 l -0.72242,1.593929 -1.25237,-0.567616 z m -2.09505,-3.008138 q 0.68311,0.309609 1.00976,0.07338 0.32664,-0.236223 0.55369,-0.737172 l 1.13523,-2.504745 -2.8463,-1.290037 q -0.59203,-0.268327 -1.15457,-0.05668 -0.56254,0.211652 -0.83087,0.803682 l -0.51602,1.138521 q -0.26832,0.59203 -0.11892,0.989119 0.1494,0.397088 0.74143,0.665416 l 2.02657,0.918506 z"
             style="font-style:normal;font-variant:normal;font-weight:normal;font-stretch:normal;font-size:25px;line-height:125%;font-family:'Share Tech Mono';-inkscape-font-specification:'Share Tech Mono, Normal';text-align:start;writing-mode:lr-tb;text-anchor:start"
             id="path4466" />
          <path
             inkscape:connector-curvature="0"
             d="m 125.2708,32.106525 q -1.24205,1.693309 -2.65059,1.8383 -1.38838,0.159779 -3.14216,-1.126638 l -3.95106,-2.898134 10.35048,-14.110903 1.71347,1.256843 -3.25301,4.434856 q 0.90048,0.04042 1.80761,0.705811 l 0.7257,0.53231 q 1.77395,1.301203 2.03856,2.673466 0.2794,1.352104 -0.97745,3.065571 l -2.66155,3.628518 z m -0.43582,-8.535847 q -0.66523,-0.487951 -1.25392,-0.361681 -0.57391,0.106111 -0.86963,0.509279 l -4.36199,5.946738 2.43917,1.789154 q 0.74586,0.547097 1.38024,0.485345 0.63438,-0.06175 1.09276,-0.686663 l 3.25301,-4.434855 q 0.45837,-0.624912 0.32673,-1.248547 -0.13164,-0.623635 -0.8775,-1.170731 l -1.12887,-0.828039 z"
             style="font-style:normal;font-variant:normal;font-weight:normal;font-stretch:normal;font-size:25px;line-height:125%;font-family:'Share Tech Mono';-inkscape-font-specification:'Share Tech Mono, Normal';text-align:start;writing-mode:lr-tb;text-anchor:start"
             id="path4468" />
          <path
             inkscape:connector-curvature="0"
             d="m 127.38361,142.07899 -4.91253,-6.37727 1.72305,-1.3273 10.67941,13.86363 -1.72305,1.3273 -4.63791,-6.02078 -4.07987,3.1428 4.63792,6.02077 -1.72306,1.3273 -10.67941,-13.86363 1.72306,-1.32729 4.91252,6.37726 4.07987,-3.14279 z"
             style="font-style:normal;font-variant:normal;font-weight:normal;font-stretch:normal;font-size:25px;line-height:125%;font-family:'Share Tech Mono';-inkscape-font-specification:'Share Tech Mono, Normal';text-align:start;writing-mode:lr-tb;text-anchor:start"
             id="path4470" />
          <path
             inkscape:connector-curvature="0"
             d="m 105.68006,145.94739 q 0.29257,-0.1415 0.73975,-0.13561 0.42467,0.0168 0.82462,0.21213 0.1911,-0.92553 1.04633,-1.33915 l 2.00304,-0.96874 q 1.71046,-0.82724 2.82471,-0.53302 1.10264,0.32761 1.90811,1.99306 l 0.21769,0.45012 q 1.68713,3.48844 -1.59876,5.07761 l -2.79075,1.3497 0.54424,1.1253 q 0.33742,0.69769 0.95008,0.87349 0.61265,0.17579 1.44538,-0.22694 l 3.48844,-1.68713 0.81635,1.68795 -3.26338,1.57828 q -1.95803,0.94697 -3.29439,0.53802 -1.35888,-0.39808 -2.27319,-2.28859 l -2.61233,-5.40145 q -0.16327,-0.33759 -0.49792,-0.39791 -0.34626,-0.0269 -0.95393,0.26696 l -0.76193,-1.57542 1.23784,-0.59866 z m 3.65211,0.31648 q -0.67518,0.32654 -0.70284,0.7287 -0.0277,0.40216 0.2118,0.8973 l 1.19732,2.47567 2.81326,-1.36059 q 0.58515,-0.28301 0.78272,-0.85065 0.19756,-0.56764 -0.0854,-1.1528 l -0.54424,-1.1253 q -0.283,-0.58516 -0.68369,-0.72462 -0.40069,-0.13945 -0.98585,0.14355 l -2.00304,0.96874 z"
             style="font-style:normal;font-variant:normal;font-weight:normal;font-stretch:normal;font-size:25px;line-height:125%;font-family:'Share Tech Mono';-inkscape-font-specification:'Share Tech Mono, Normal';text-align:start;writing-mode:lr-tb;text-anchor:start"
             id="path4472" />
          <path
             inkscape:connector-curvature="0"
             d="m 95.850576,149.03711 q 2.13526,-0.52977 3.352844,0.12118 1.2236,0.67522 1.73532,2.73768 l 1.08363,4.36758 q 0.5057,2.0382 -0.26037,3.20708 -0.79034,1.17489 -2.901335,1.69864 l -3.130098,0.77661 -0.451514,-1.81983 3.372742,-0.8368 q 0.89778,-0.22275 1.256459,-0.74963 0.358676,-0.52687 0.172056,-1.27907 l -1.324442,-5.33815 q -0.186625,-0.75219 -0.74999,-1.0503 -0.563366,-0.29811 -1.461146,-0.0754 l -3.372741,0.83681 -0.451513,-1.81983 3.130098,-0.7766 z"
             style="font-style:normal;font-variant:normal;font-weight:normal;font-stretch:normal;font-size:25px;line-height:125%;font-family:'Share Tech Mono';-inkscape-font-specification:'Share Tech Mono, Normal';text-align:start;writing-mode:lr-tb;text-anchor:start"
             id="path4474" />
          <path
             inkscape:connector-curvature="0"
             d="m 85.437471,156.05551 -0.199608,-5.34628 2.12352,-0.0793 0.652924,17.48781 -2.12352,0.0793 -0.352579,-9.44342 -3.756238,4.59334 -2.673137,0.0998 4.163219,-5.08387 -4.97935,-7.39437 2.623172,-0.0979 3.900032,5.95864 0.621565,-0.77373 z"
             style="font-style:normal;font-variant:normal;font-weight:normal;font-stretch:normal;font-size:25px;line-height:125%;font-family:'Share Tech Mono';-inkscape-font-specification:'Share Tech Mono, Normal';text-align:start;writing-mode:lr-tb;text-anchor:start"
             id="path4476" />
          <path
             inkscape:connector-curvature="0"
             d="m 68.801237,149.78067 q 0.838094,0.14177 1.378917,0.84178 0.516173,0.69584 0.299349,1.97763 l -2.189087,12.94115 3.623523,0.61295 -0.312726,1.84873 -5.718759,-0.96736 2.480966,-14.66665 q 0.06672,-0.3944 -0.101296,-0.6003 -0.168011,-0.20591 -0.636357,-0.28513 l -3.278426,-0.55457 0.312726,-1.84874 4.14117,0.70051 z"
             style="font-style:normal;font-variant:normal;font-weight:normal;font-stretch:normal;font-size:25px;line-height:125%;font-family:'Share Tech Mono';-inkscape-font-specification:'Share Tech Mono, Normal';text-align:start;writing-mode:lr-tb;text-anchor:start"
             id="path4478" />
          <path
             inkscape:connector-curvature="0"
             d="m 53.203976,144.9807 q 0.302624,0.11851 0.602156,0.4506 0.276254,0.32296 0.404697,0.74914 0.808889,-0.48869 1.693482,-0.14229 l 2.071808,0.81132 q 1.769185,0.69281 2.310463,1.71023 0.508884,1.03158 -0.165694,2.75421 l -0.182319,0.46557 q -1.412968,3.60821 -4.811664,2.27728 l -2.886565,-1.13037 -0.455796,1.16394 q -0.282593,0.72164 0.0047,1.29058 0.287326,0.56894 1.148639,0.90623 l 3.608206,1.41297 -0.683694,1.7459 -3.375418,-1.32181 q -2.025251,-0.79308 -2.633275,-2.05143 -0.631302,-1.26746 0.134435,-3.22287 l 2.187821,-5.5869 q 0.136739,-0.34918 -0.0464,-0.63569 -0.215533,-0.27234 -0.844059,-0.51847 l 0.638114,-1.62951 1.280331,0.50137 z m 2.249428,2.89452 q -0.698362,-0.27348 -1.012215,-0.0205 -0.313853,0.25298 -0.514403,0.76511 l -1.002752,2.56066 2.909843,1.13949 q 0.605248,0.23702 1.155957,-0.004 0.550709,-0.24077 0.787723,-0.84602 l 0.455796,-1.16393 q 0.237014,-0.60525 0.06706,-0.99399 -0.169954,-0.38873 -0.775202,-0.62575 l -2.071808,-0.81131 z"
             style="font-style:normal;font-variant:normal;font-weight:normal;font-stretch:normal;font-size:25px;line-height:125%;font-family:'Share Tech Mono';-inkscape-font-specification:'Share Tech Mono, Normal';text-align:start;writing-mode:lr-tb;text-anchor:start"
             id="path4480" />
          <path
             inkscape:connector-curvature="0"
             d="m 38.655098,140.98214 q 1.151571,-1.7561 2.550569,-1.97474 1.378093,-0.23235 3.19691,0.96034 l 4.097564,2.687 -9.596425,14.63416 -1.777005,-1.16528 3.016019,-4.5993 q -0.901362,0.007 -1.842129,-0.61007 l -0.752614,-0.49353 q -1.839723,-1.20641 -2.175918,-2.56291 -0.349904,-1.3356 0.815377,-3.11261 l 2.467652,-3.76306 z m 0.882751,8.50125 q 0.689896,0.45241 1.271156,0.29545 0.567551,-0.13606 0.841735,-0.55418 l 4.044208,-6.16725 -2.529619,-1.65881 q -0.77352,-0.50724 -1.403789,-0.41231 -0.630269,0.0949 -1.055253,0.74301 l -3.01602,4.5993 q -0.424984,0.64809 -0.260828,1.26396 0.164157,0.61588 0.937677,1.12312 l 1.170733,0.76771 z"
             style="font-style:normal;font-variant:normal;font-weight:normal;font-stretch:normal;font-size:25px;line-height:125%;font-family:'Share Tech Mono';-inkscape-font-specification:'Share Tech Mono, Normal';text-align:start;writing-mode:lr-tb;text-anchor:start"
             id="path4482" />
        </g>
      </g>
    </g>
  </g>
  <g
     inkscape:groupmode="layer"
     id="layer5"
     inkscape:label="exterior2"
     transform="translate(9.2751364,29.155406)">
    <rect
       style="display:inline;opacity:1;fill:none;fill-opacity:1;stroke:#000000;stroke-width:1.79999995;stroke-linecap:round;stroke-linejoin:round;stroke-miterlimit:4;stroke-dasharray:none;stroke-dashoffset:0;stroke-opacity:1"
       id="rect4530"
       width="437.89999"
       height="189.83641"
       x="1.7770625"
       y="-15.137246"
       ry="14.527559" />
  </g>
</svg>
