G04 #@! TF.GenerationSoftware,KiCad,Pcbnew,5.0.0-rc2-dev-unknown-5e5e80d~64~ubuntu16.04.1*
G04 #@! TF.CreationDate,2018-05-04T15:58:43+02:00*
G04 #@! TF.ProjectId,ripolab_pcb,7269706F6C61625F7063622E6B696361,rev?*
G04 #@! TF.SameCoordinates,Original*
G04 #@! TF.FileFunction,Profile,NP*
%FSLAX46Y46*%
G04 Gerber Fmt 4.6, Leading zero omitted, Abs format (unit mm)*
G04 Created by KiCad (PCBNEW 5.0.0-rc2-dev-unknown-5e5e80d~64~ubuntu16.04.1) date Fri May  4 15:58:43 2018*
%MOMM*%
%LPD*%
G01*
G04 APERTURE LIST*
%ADD10C,0.200000*%
%ADD11C,0.100000*%
G04 APERTURE END LIST*
D10*
X140849299Y-61518477D02*
X140890094Y-61561019D01*
X140890094Y-61561019D02*
X140932009Y-61602665D01*
X151667746Y-57755182D02*
X151603558Y-57744366D01*
X140975023Y-61643395D02*
X141019115Y-61683194D01*
X140565798Y-58920195D02*
X140536035Y-58970014D01*
X152708645Y-58166919D02*
X152657585Y-58134145D01*
X151538841Y-62333606D02*
X151603558Y-62324171D01*
X141853970Y-62178971D02*
X141913158Y-62200253D01*
X141019115Y-58385086D02*
X140975023Y-58424872D01*
X140507602Y-61047556D02*
X140536035Y-61098109D01*
X152856157Y-58271494D02*
X152807952Y-58235611D01*
X142474739Y-57734935D02*
X142410027Y-57744366D01*
X153351091Y-58775248D02*
X153316202Y-58728494D01*
X142738458Y-57711417D02*
X142671840Y-57715131D01*
X141624618Y-57986701D02*
X141569237Y-58013942D01*
X152552761Y-58071831D02*
X152499038Y-58042324D01*
X153164596Y-58549753D02*
X153123789Y-58507223D01*
X153204262Y-61475054D02*
X153242766Y-61430770D01*
X140932009Y-61602665D02*
X140975023Y-61643395D01*
X151208067Y-57709176D02*
X151140622Y-57708425D01*
X153448193Y-58920195D02*
X153417108Y-58871116D01*
X140248370Y-60094572D02*
X140249444Y-60124704D01*
X153164596Y-61518477D02*
X153204262Y-61475054D01*
X153647925Y-60730051D02*
X153666456Y-60674931D01*
X153583540Y-60891740D02*
X153606446Y-60838473D01*
X153038834Y-61643395D02*
X153081861Y-61602665D01*
X152758774Y-61867598D02*
X152807952Y-61832721D01*
X141205840Y-58235611D02*
X141157647Y-58271494D01*
X141205840Y-61832721D02*
X141255006Y-61867598D01*
X141514680Y-62026081D02*
X141569237Y-62054475D01*
X141460969Y-61996562D02*
X141514680Y-62026081D01*
X152949567Y-58346249D02*
X152903370Y-58308380D01*
X152758774Y-58200747D02*
X152708645Y-58166919D01*
X140771154Y-61430770D02*
X140809645Y-61475054D01*
X153736180Y-60390942D02*
X153745390Y-60332589D01*
X152994729Y-58385086D02*
X152949567Y-58346249D01*
X153764674Y-60124704D02*
X153765749Y-60094572D01*
X140268719Y-60332589D02*
X140277926Y-60390942D01*
X151856927Y-57795769D02*
X151794452Y-57780901D01*
X141110448Y-58308380D02*
X141064264Y-58346249D01*
X153627914Y-60784571D02*
X153647925Y-60730051D01*
X152903370Y-61759926D02*
X152949567Y-61722044D01*
X151794452Y-62287618D02*
X151856927Y-62272743D01*
X152040590Y-62220289D02*
X152100486Y-62200253D01*
X152605617Y-58102444D02*
X152552761Y-58071831D01*
X153756149Y-60244168D02*
X153758909Y-60214466D01*
X151794452Y-57780901D02*
X151731384Y-57767366D01*
X151980017Y-62239060D02*
X152040590Y-62220289D01*
X141624618Y-62081727D02*
X141680804Y-62107820D01*
X141973045Y-57848199D02*
X141913158Y-57868226D01*
X142033609Y-57829436D02*
X141973045Y-57848199D01*
X142219151Y-62287618D02*
X142282212Y-62301159D01*
X152903370Y-58308380D02*
X152856157Y-58271494D01*
X153242766Y-58637434D02*
X153204262Y-58593162D01*
X142605666Y-57720300D02*
X142539959Y-57726907D01*
X140809645Y-61475054D02*
X140849299Y-61518477D01*
X140268719Y-59735428D02*
X140261139Y-59794256D01*
X153351091Y-61292920D02*
X153384734Y-61245362D01*
X153606446Y-59229601D02*
X153583540Y-59176343D01*
X140629235Y-61245362D02*
X140662866Y-61292920D01*
X153533501Y-59071803D02*
X153506411Y-59020556D01*
X140347620Y-60674931D02*
X140366144Y-60730051D01*
X152218163Y-57912000D02*
X152159684Y-57889498D01*
X140247723Y-60064338D02*
X140248370Y-60094572D01*
X140248370Y-59973436D02*
X140247723Y-60003670D01*
X140315095Y-60562961D02*
X140330597Y-60619229D01*
X141795500Y-62156460D02*
X141853970Y-62178971D01*
X141737771Y-62132737D02*
X141795500Y-62156460D01*
X140247507Y-60034004D02*
X140247723Y-60064338D01*
X153666456Y-59393119D02*
X153647925Y-59338006D01*
X141680804Y-57960618D02*
X141624618Y-57986701D01*
X140629235Y-58822794D02*
X140596872Y-58871116D01*
X140261139Y-60273758D02*
X140268719Y-60332589D01*
X153763174Y-60154731D02*
X153764674Y-60124704D01*
X141305122Y-58166919D02*
X141255006Y-58200747D01*
X151538841Y-57734935D02*
X151473617Y-57726907D01*
X153280086Y-58682550D02*
X153242766Y-58637434D01*
X153712961Y-59561884D02*
X153698995Y-59505075D01*
X153761252Y-59883357D02*
X153758909Y-59853545D01*
X141305122Y-61901438D02*
X141356169Y-61934224D01*
X152332881Y-57960618D02*
X152275903Y-57935712D01*
X153417108Y-61197029D02*
X153448193Y-61147939D01*
X140771154Y-58637434D02*
X140733846Y-58682550D01*
X141460969Y-58071831D02*
X141408125Y-58102444D01*
X140662866Y-58775248D02*
X140629235Y-58822794D01*
X152159684Y-57889498D02*
X152100486Y-57868226D01*
X140277926Y-59677078D02*
X140268719Y-59735428D01*
X153766396Y-60003670D02*
X153765749Y-59973436D01*
X141408125Y-61965938D02*
X141460969Y-61996562D01*
X152389077Y-57986701D02*
X152332881Y-57960618D01*
X151731384Y-57767366D02*
X151667746Y-57755182D01*
X140596872Y-61197029D02*
X140629235Y-61245362D01*
X153683486Y-59448814D02*
X153666456Y-59393119D01*
X151208067Y-62359379D02*
X151275110Y-62357137D01*
X153280086Y-61385641D02*
X153316202Y-61339685D01*
X152807952Y-58235611D02*
X152758774Y-58200747D01*
X140932009Y-58465590D02*
X140890094Y-58507223D01*
X140454815Y-60944354D02*
X140480522Y-60996299D01*
X141408125Y-58102444D02*
X141356169Y-58134145D01*
X151856927Y-62272743D02*
X151918789Y-62256551D01*
X152040590Y-57848199D02*
X151980017Y-57829436D01*
X153698995Y-59505075D02*
X153683486Y-59448814D01*
X153384734Y-61245362D02*
X153417108Y-61197029D01*
X141157647Y-61796825D02*
X141205840Y-61832721D01*
X153761252Y-60184653D02*
X153763174Y-60154731D01*
X142156683Y-57795769D02*
X142094829Y-57811953D01*
X152275903Y-57935712D02*
X152218163Y-57912000D01*
X152389077Y-62081727D02*
X152444470Y-62054475D01*
X152807952Y-61832721D02*
X152856157Y-61796825D01*
X153477968Y-61098109D02*
X153506411Y-61047556D01*
X141913158Y-57868226D02*
X141853970Y-57889498D01*
X140255207Y-59853545D02*
X140252865Y-59883357D01*
X151731384Y-62301159D02*
X151794452Y-62287618D01*
X140288738Y-60448800D02*
X140301135Y-60506146D01*
X140386146Y-59283495D02*
X140366144Y-59338006D01*
X141356169Y-58134145D02*
X141305122Y-58166919D01*
X140255207Y-60214466D02*
X140257966Y-60244168D01*
X153666456Y-60674931D02*
X153683486Y-60619229D01*
X142033609Y-62239060D02*
X142094829Y-62256551D01*
X141973045Y-62220289D02*
X142033609Y-62239060D01*
X142539959Y-57726907D02*
X142474739Y-57734935D01*
X142094829Y-57811953D02*
X142033609Y-57829436D01*
X140366144Y-60730051D02*
X140386146Y-60784571D01*
X153712961Y-60506146D02*
X153725363Y-60448800D01*
X153606446Y-60838473D02*
X153627914Y-60784571D01*
X141255006Y-58200747D02*
X141205840Y-58235611D01*
X140536035Y-58970014D02*
X140507602Y-59020556D01*
X153533501Y-60996299D02*
X153559218Y-60944354D01*
X153038834Y-58424872D02*
X152994729Y-58385086D01*
X141913158Y-62200253D02*
X141973045Y-62220289D01*
X153506411Y-61047556D02*
X153533501Y-60996299D01*
X140249444Y-59943305D02*
X140248370Y-59973436D01*
X151140622Y-57708425D02*
X142872944Y-57708425D01*
X151341730Y-62353421D02*
X151407906Y-62348249D01*
X153081861Y-61602665D02*
X153123789Y-61561019D01*
X142094829Y-62256551D02*
X142156683Y-62272743D01*
X152949567Y-61722044D02*
X152994729Y-61683194D01*
X140536035Y-61098109D02*
X140565798Y-61147939D01*
X140315095Y-59505075D02*
X140301135Y-59561884D01*
X151603558Y-62324171D02*
X151667746Y-62313350D01*
X153766612Y-60034004D02*
X153766396Y-60003670D01*
X153736180Y-59677078D02*
X153725363Y-59619225D01*
X153081861Y-58465590D02*
X153038834Y-58424872D01*
X153765749Y-60094572D02*
X153766396Y-60064338D01*
X142805500Y-62359379D02*
X142872944Y-62360130D01*
X140480522Y-59071803D02*
X140454815Y-59123738D01*
X140733846Y-61385641D02*
X140771154Y-61430770D01*
X153559218Y-60944354D02*
X153583540Y-60891740D01*
X152552761Y-61996562D02*
X152605617Y-61965938D01*
X140347620Y-59393119D02*
X140330597Y-59448814D01*
X152444470Y-62054475D02*
X152499038Y-62026081D01*
X142282212Y-62301159D02*
X142345844Y-62313350D01*
X153758909Y-59853545D02*
X153756149Y-59823844D01*
X142671840Y-62353421D02*
X142738458Y-62357137D01*
X141110448Y-61759926D02*
X141157647Y-61796825D01*
X151275110Y-57711417D02*
X151208067Y-57709176D01*
X152100486Y-62200253D02*
X152159684Y-62178971D01*
X140733846Y-58682550D02*
X140697743Y-58728494D01*
X152994729Y-61683194D02*
X153038834Y-61643395D01*
X142605666Y-62348249D02*
X142671840Y-62353421D01*
X153766396Y-60064338D02*
X153766612Y-60034004D01*
X151918789Y-57811953D02*
X151856927Y-57795769D01*
X153123789Y-58507223D02*
X153081861Y-58465590D01*
X140288738Y-59619225D02*
X140277926Y-59677078D01*
X151407906Y-62348249D02*
X151473617Y-62341638D01*
X153627914Y-59283495D02*
X153606446Y-59229601D01*
X153384734Y-58822794D02*
X153351091Y-58775248D01*
X141514680Y-58042324D02*
X141460969Y-58071831D01*
X141064264Y-58346249D02*
X141019115Y-58385086D01*
X152657585Y-61934224D02*
X152708645Y-61901438D01*
X152499038Y-58042324D02*
X152444470Y-58013942D01*
X140277926Y-60390942D02*
X140288738Y-60448800D01*
X141569237Y-62054475D02*
X141624618Y-62081727D01*
X152275903Y-62132737D02*
X152332881Y-62107820D01*
X142539959Y-62341638D02*
X142605666Y-62348249D01*
X140257966Y-59823844D02*
X140255207Y-59853545D01*
X142738458Y-62357137D02*
X142805500Y-62359379D01*
X140252865Y-60184653D02*
X140255207Y-60214466D01*
X140480522Y-60996299D02*
X140507602Y-61047556D01*
X153756149Y-59823844D02*
X153752974Y-59794256D01*
X141680804Y-62107820D02*
X141737771Y-62132737D01*
X152657585Y-58134145D02*
X152605617Y-58102444D01*
X140430503Y-59176343D02*
X140407606Y-59229601D01*
X141157647Y-58271494D02*
X141110448Y-58308380D01*
X151473617Y-57726907D02*
X151407906Y-57720300D01*
X152100486Y-57868226D02*
X152040590Y-57848199D01*
X153752974Y-60273758D02*
X153756149Y-60244168D01*
X142872944Y-62360130D02*
X151140622Y-62360130D01*
X140247723Y-60003670D02*
X140247507Y-60034004D01*
X140975023Y-58424872D02*
X140932009Y-58465590D01*
X153448193Y-61147939D02*
X153477968Y-61098109D01*
X151473617Y-62341638D02*
X151538841Y-62333606D01*
X151603558Y-57744366D02*
X151538841Y-57734935D01*
X140301135Y-59561884D02*
X140288738Y-59619225D01*
X153725363Y-60448800D02*
X153736180Y-60390942D01*
X152499038Y-62026081D02*
X152552761Y-61996562D01*
X152708645Y-61901438D02*
X152758774Y-61867598D01*
X140249444Y-60124704D02*
X140250943Y-60154731D01*
X142345844Y-62313350D02*
X142410027Y-62324171D01*
X152159684Y-62178971D02*
X152218163Y-62156460D01*
X153417108Y-58871116D02*
X153384734Y-58822794D01*
X152605617Y-61965938D02*
X152657585Y-61934224D01*
X153204262Y-58593162D02*
X153164596Y-58549753D01*
X153683486Y-60619229D02*
X153698995Y-60562961D01*
X153765749Y-59973436D02*
X153764674Y-59943305D01*
X140330597Y-60619229D02*
X140347620Y-60674931D01*
X151667746Y-62313350D02*
X151731384Y-62301159D01*
X140407606Y-59229601D02*
X140386146Y-59283495D01*
X152856157Y-61796825D02*
X152903370Y-61759926D01*
X152218163Y-62156460D02*
X152275903Y-62132737D01*
X153725363Y-59619225D02*
X153712961Y-59561884D01*
X151275110Y-62357137D02*
X151341730Y-62353421D01*
X141255006Y-61867598D02*
X141305122Y-61901438D01*
X153477968Y-58970014D02*
X153448193Y-58920195D01*
X140261139Y-59794256D02*
X140257966Y-59823844D01*
X142474739Y-62333606D02*
X142539959Y-62341638D01*
X142410027Y-62324171D02*
X142474739Y-62333606D01*
X140250943Y-59913277D02*
X140249444Y-59943305D01*
X140890094Y-58507223D02*
X140849299Y-58549753D01*
X140565798Y-61147939D02*
X140596872Y-61197029D01*
X140430503Y-60891740D02*
X140454815Y-60944354D01*
X142219151Y-57780901D02*
X142156683Y-57795769D01*
X142156683Y-62272743D02*
X142219151Y-62287618D01*
X153764674Y-59943305D02*
X153763174Y-59913277D01*
X140849299Y-58549753D02*
X140809645Y-58593162D01*
X140697743Y-61339685D02*
X140733846Y-61385641D01*
X140250943Y-60154731D02*
X140252865Y-60184653D01*
X141019115Y-61683194D02*
X141064264Y-61722044D01*
X153506411Y-59020556D02*
X153477968Y-58970014D01*
X142345844Y-57755182D02*
X142282212Y-57767366D01*
X140252865Y-59883357D02*
X140250943Y-59913277D01*
X142410027Y-57744366D02*
X142345844Y-57755182D01*
X140507602Y-59020556D02*
X140480522Y-59071803D01*
X141737771Y-57935712D02*
X141680804Y-57960618D01*
X151918789Y-62256551D02*
X151980017Y-62239060D01*
X153763174Y-59913277D02*
X153761252Y-59883357D01*
X142872944Y-57708425D02*
X142872944Y-57708425D01*
X140366144Y-59338006D02*
X140347620Y-59393119D01*
X153752974Y-59794256D02*
X153745390Y-59735428D01*
X141356169Y-61934224D02*
X141408125Y-61965938D01*
X153758909Y-60214466D02*
X153761252Y-60184653D01*
X153745390Y-59735428D02*
X153736180Y-59677078D01*
X140596872Y-58871116D02*
X140565798Y-58920195D01*
X142282212Y-57767366D02*
X142219151Y-57780901D01*
X153583540Y-59176343D02*
X153559218Y-59123738D01*
X153698995Y-60562961D02*
X153712961Y-60506146D01*
X140301135Y-60506146D02*
X140315095Y-60562961D01*
X140697743Y-58728494D02*
X140662866Y-58775248D01*
X151980017Y-57829436D02*
X151918789Y-57811953D01*
X151341730Y-57715131D02*
X151275110Y-57711417D01*
X151407906Y-57720300D02*
X151341730Y-57715131D01*
X153647925Y-59338006D02*
X153627914Y-59283495D01*
X153316202Y-58728494D02*
X153280086Y-58682550D01*
X140330597Y-59448814D02*
X140315095Y-59505075D01*
X141569237Y-58013942D02*
X141514680Y-58042324D01*
X153316202Y-61339685D02*
X153351091Y-61292920D01*
X140454815Y-59123738D02*
X140430503Y-59176343D01*
X142671840Y-57715131D02*
X142605666Y-57720300D01*
X142872944Y-57708425D02*
X142805500Y-57709176D01*
X153242766Y-61430770D02*
X153280086Y-61385641D01*
X140257966Y-60244168D02*
X140261139Y-60273758D01*
X140662866Y-61292920D02*
X140697743Y-61339685D01*
X141064264Y-61722044D02*
X141110448Y-61759926D01*
X140386146Y-60784571D02*
X140407606Y-60838473D01*
X141853970Y-57889498D02*
X141795500Y-57912000D01*
X153123789Y-61561019D02*
X153164596Y-61518477D01*
X153745390Y-60332589D02*
X153752974Y-60273758D01*
X152444470Y-58013942D02*
X152389077Y-57986701D01*
X151140622Y-62360130D02*
X151208067Y-62359379D01*
X152332881Y-62107820D02*
X152389077Y-62081727D01*
X153559218Y-59123738D02*
X153533501Y-59071803D01*
X140809645Y-58593162D02*
X140771154Y-58637434D01*
X140407606Y-60838473D02*
X140430503Y-60891740D01*
X142805500Y-57709176D02*
X142738458Y-57711417D01*
X141795500Y-57912000D02*
X141737771Y-57935712D01*
D11*
X104294867Y-49875501D02*
X104294867Y-49875501D01*
X104850704Y-49920984D02*
X104294867Y-49875501D01*
X105395680Y-50037908D02*
X104850704Y-49920984D01*
X105921936Y-50225228D02*
X105395680Y-50037908D01*
X106421615Y-50481902D02*
X105921936Y-50225228D01*
X106886856Y-50806883D02*
X106421615Y-50481902D01*
X107309803Y-51199128D02*
X106886856Y-50806883D01*
X107682597Y-51657594D02*
X107309803Y-51199128D01*
X107997380Y-52181235D02*
X107682597Y-51657594D01*
X108335296Y-53009596D02*
X107997380Y-52181235D01*
X108498511Y-53822304D02*
X108335296Y-53009596D01*
X108514453Y-54221246D02*
X108498511Y-53822304D01*
X108486539Y-54614428D02*
X108514453Y-54221246D01*
X108414706Y-55001230D02*
X108486539Y-54614428D01*
X108298894Y-55381039D02*
X108414706Y-55001230D01*
X107876663Y-56570562D02*
X108298894Y-55381039D01*
X107936361Y-56716739D02*
X107876663Y-56570562D01*
X108170037Y-56998880D02*
X107936361Y-56716739D01*
X109179169Y-57989441D02*
X108170037Y-56998880D01*
X110943750Y-59579009D02*
X109179169Y-57989441D01*
X113503469Y-61804351D02*
X110943750Y-59579009D01*
X119229493Y-66730011D02*
X113503469Y-61804351D01*
X120760218Y-65208105D02*
X119229493Y-66730011D01*
X121605718Y-64392164D02*
X120760218Y-65208105D01*
X122190311Y-63919336D02*
X121605718Y-64392164D01*
X122671569Y-63684785D02*
X122190311Y-63919336D01*
X123207063Y-63583674D02*
X122671569Y-63684785D01*
X123572605Y-63547489D02*
X123207063Y-63583674D01*
X123888228Y-63553347D02*
X123572605Y-63547489D01*
X124210899Y-63634407D02*
X123888228Y-63553347D01*
X124597585Y-63823824D02*
X124210899Y-63634407D01*
X125105252Y-64154753D02*
X124597585Y-63823824D01*
X125790867Y-64660350D02*
X125105252Y-64154753D01*
X127923812Y-66328174D02*
X125790867Y-64660350D01*
X130623112Y-68455866D02*
X127923812Y-66328174D01*
X132603079Y-67495648D02*
X130623112Y-68455866D01*
X134572081Y-66629630D02*
X132603079Y-67495648D01*
X136524975Y-65896573D02*
X134572081Y-66629630D01*
X137404831Y-65589322D02*
X136524975Y-65896573D01*
X138009006Y-65334515D02*
X137404831Y-65589322D01*
X138357613Y-65122198D02*
X138009006Y-65334515D01*
X138442364Y-65028864D02*
X138357613Y-65122198D01*
X138470764Y-64942419D02*
X138442364Y-65028864D01*
X138940399Y-60974220D02*
X138470764Y-64942419D01*
X139216932Y-58886074D02*
X138940399Y-60974220D01*
X139427729Y-57726059D02*
X139216932Y-58886074D01*
X139538400Y-57377152D02*
X139427729Y-57726059D01*
X139668541Y-57119940D02*
X139538400Y-57377152D01*
X140035113Y-56693483D02*
X139668541Y-57119940D01*
X140664051Y-56063995D02*
X140035113Y-56693483D01*
X147028933Y-56063995D02*
X140664051Y-56063995D01*
X153392714Y-56063995D02*
X147028933Y-56063995D01*
X154006217Y-56676946D02*
X153392714Y-56063995D01*
X154362853Y-57097815D02*
X154006217Y-56676946D01*
X154490956Y-57359147D02*
X154362853Y-57097815D01*
X154601302Y-57717184D02*
X154490956Y-57359147D01*
X154815890Y-58911698D02*
X154601302Y-57717184D01*
X155100929Y-61058005D02*
X154815890Y-58911698D01*
X155587102Y-65042189D02*
X155100929Y-61058005D01*
X155741703Y-65176579D02*
X155587102Y-65042189D01*
X156160030Y-65382412D02*
X155741703Y-65176579D01*
X157532341Y-65896573D02*
X156160030Y-65382412D01*
X159481274Y-66627882D02*
X157532341Y-65896573D01*
X161441009Y-67489585D02*
X159481274Y-66627882D01*
X163408845Y-68443739D02*
X161441009Y-67489585D01*
X166249260Y-66204151D02*
X163408845Y-68443739D01*
X168386833Y-64552280D02*
X166249260Y-66204151D01*
X169537259Y-63725336D02*
X168386833Y-64552280D01*
X169782967Y-63637492D02*
X169537259Y-63725336D01*
X170111282Y-63582679D02*
X169782967Y-63637492D01*
X170876160Y-63586430D02*
X170111282Y-63582679D01*
X171404568Y-63691254D02*
X170876160Y-63586430D01*
X171902086Y-63949406D02*
X171404568Y-63691254D01*
X172539694Y-64479583D02*
X171902086Y-63949406D01*
X173488370Y-65400479D02*
X172539694Y-64479583D01*
X175210366Y-67113656D02*
X173488370Y-65400479D01*
X180981590Y-62136182D02*
X175210366Y-67113656D01*
X183477704Y-59959035D02*
X180981590Y-62136182D01*
X185277921Y-58334764D02*
X183477704Y-59959035D01*
X186364646Y-57279741D02*
X185277921Y-58334764D01*
X186634953Y-56970815D02*
X186364646Y-57279741D01*
X186720291Y-56810340D02*
X186634953Y-56970815D01*
X186601326Y-56305378D02*
X186720291Y-56810340D01*
X186360348Y-55580028D02*
X186601326Y-56305378D01*
X186246127Y-55210788D02*
X186360348Y-55580028D01*
X186173474Y-54831621D02*
X186246127Y-55210788D01*
X186152138Y-54052919D02*
X186173474Y-54831621D01*
X186294852Y-53262764D02*
X186152138Y-54052919D01*
X186600132Y-52479993D02*
X186294852Y-53262764D01*
X186872299Y-52009632D02*
X186600132Y-52479993D01*
X187191108Y-51588017D02*
X186872299Y-52009632D01*
X187551020Y-51216081D02*
X187191108Y-51588017D01*
X187946496Y-50894758D02*
X187551020Y-51216081D01*
X188371996Y-50624980D02*
X187946496Y-50894758D01*
X188821983Y-50407681D02*
X188371996Y-50624980D01*
X189290918Y-50243793D02*
X188821983Y-50407681D01*
X189773261Y-50134251D02*
X189290918Y-50243793D01*
X190263472Y-50079987D02*
X189773261Y-50134251D01*
X190756018Y-50081934D02*
X190263472Y-50079987D01*
X191245357Y-50141025D02*
X190756018Y-50081934D01*
X191725948Y-50258193D02*
X191245357Y-50141025D01*
X192192255Y-50434371D02*
X191725948Y-50258193D01*
X192638739Y-50670493D02*
X192192255Y-50434371D01*
X193059863Y-50967492D02*
X192638739Y-50670493D01*
X193450083Y-51326300D02*
X193059863Y-50967492D01*
X194066493Y-52031487D02*
X193450083Y-51326300D01*
X194271556Y-52342746D02*
X194066493Y-52031487D01*
X194419593Y-52657527D02*
X194271556Y-52342746D01*
X194519406Y-52999141D02*
X194419593Y-52657527D01*
X194579804Y-53390896D02*
X194519406Y-52999141D01*
X194617557Y-54418067D02*
X194579804Y-53390896D01*
X194598310Y-55200068D02*
X194617557Y-54418067D01*
X194523270Y-55761684D02*
X194598310Y-55200068D01*
X194366532Y-56216763D02*
X194523270Y-55761684D01*
X194102180Y-56679152D02*
X194366532Y-56216763D01*
X193590647Y-57336623D02*
X194102180Y-56679152D01*
X192997497Y-57868713D02*
X193590647Y-57336623D01*
X192336462Y-58271651D02*
X192997497Y-57868713D01*
X191621269Y-58541664D02*
X192336462Y-58271651D01*
X190865653Y-58674982D02*
X191621269Y-58541664D01*
X190083341Y-58667833D02*
X190865653Y-58674982D01*
X189288067Y-58516444D02*
X190083341Y-58667833D01*
X188493564Y-58217044D02*
X189288067Y-58516444D01*
X187820531Y-57897339D02*
X188493564Y-58217044D01*
X187258291Y-58573680D02*
X187820531Y-57897339D01*
X182211365Y-64427035D02*
X187258291Y-58573680D01*
X177727229Y-69604049D02*
X182211365Y-64427035D01*
X179010457Y-70909878D02*
X177727229Y-69604049D01*
X179827755Y-71832752D02*
X179010457Y-70909878D01*
X180108487Y-72240997D02*
X179827755Y-71832752D01*
X180309715Y-72627192D02*
X180108487Y-72240997D01*
X180435766Y-73001396D02*
X180309715Y-72627192D01*
X180490966Y-73373673D02*
X180435766Y-73001396D01*
X180479649Y-73754080D02*
X180490966Y-73373673D01*
X180406139Y-74152677D02*
X180479649Y-73754080D01*
X180177748Y-74573521D02*
X180406139Y-74152677D01*
X179646515Y-75358356D02*
X180177748Y-74573521D01*
X177992365Y-77571314D02*
X179646515Y-75358356D01*
X176374394Y-79684108D02*
X177992365Y-77571314D01*
X175701514Y-80648749D02*
X176374394Y-79684108D01*
X175986118Y-81360534D02*
X175701514Y-80648749D01*
X176670552Y-82865735D02*
X175986118Y-81360534D01*
X177517182Y-84824961D02*
X176670552Y-82865735D01*
X178191355Y-86628333D02*
X177517182Y-84824961D01*
X178783361Y-88372376D02*
X178191355Y-86628333D01*
X182190971Y-88822167D02*
X178783361Y-88372376D01*
X184675029Y-89139724D02*
X182190971Y-88822167D01*
X186166269Y-89420473D02*
X184675029Y-89139724D01*
X186646157Y-89575176D02*
X186166269Y-89420473D01*
X187005728Y-89754435D02*
X186646157Y-89575176D01*
X187287617Y-89969500D02*
X187005728Y-89754435D01*
X187534454Y-90231625D02*
X187287617Y-89969500D01*
X188046532Y-90840720D02*
X187534454Y-90231625D01*
X188046532Y-96908497D02*
X188046532Y-90840720D01*
X188022289Y-100834341D02*
X188046532Y-96908497D01*
X187972025Y-102083519D02*
X188022289Y-100834341D01*
X187878607Y-102964134D02*
X187972025Y-102083519D01*
X187728733Y-103556637D02*
X187878607Y-102964134D01*
X187509110Y-103941478D02*
X187728733Y-103556637D01*
X187206433Y-104199110D02*
X187509110Y-103941478D01*
X186807410Y-104409984D02*
X187206433Y-104199110D01*
X186288996Y-104563936D02*
X186807410Y-104409984D01*
X185365111Y-104751710D02*
X186288996Y-104563936D01*
X182823776Y-105133731D02*
X185365111Y-104751710D01*
X181650008Y-105266599D02*
X182823776Y-105133731D01*
X180303108Y-105366884D02*
X181650008Y-105266599D01*
X178389260Y-105438788D02*
X180303108Y-105366884D01*
X175514660Y-105486509D02*
X178389260Y-105438788D01*
X175651617Y-105527739D02*
X175514660Y-105486509D01*
X175701523Y-105575254D02*
X175651617Y-105527739D01*
X175377173Y-106378419D02*
X175701523Y-105575254D01*
X174597438Y-107984616D02*
X175377173Y-106378419D01*
X173493354Y-110163019D02*
X174597438Y-107984616D01*
X174274426Y-111188279D02*
X173493354Y-110163019D01*
X176868447Y-114503289D02*
X174274426Y-111188279D01*
X178149933Y-116239529D02*
X176868447Y-114503289D01*
X178540447Y-116860285D02*
X178149933Y-116239529D01*
X178684702Y-117198178D02*
X178540447Y-116860285D01*
X178621024Y-117355353D02*
X178684702Y-117198178D01*
X178429816Y-117627622D02*
X178621024Y-117355353D01*
X177673483Y-118508017D02*
X178429816Y-117627622D01*
X176433054Y-119820488D02*
X177673483Y-118508017D01*
X174725872Y-121546167D02*
X176433054Y-119820488D01*
X172505630Y-123740501D02*
X174725872Y-121546167D01*
X171264013Y-124890738D02*
X172505630Y-123740501D01*
X170899181Y-125166881D02*
X171264013Y-124890738D01*
X170645796Y-125293074D02*
X170899181Y-125166881D01*
X170459454Y-125306338D02*
X170645796Y-125293074D01*
X170295756Y-125243710D02*
X170459454Y-125306338D01*
X169051534Y-124348944D02*
X170295756Y-125243710D01*
X166717816Y-122544960D02*
X169051534Y-124348944D01*
X163608410Y-120093705D02*
X166717816Y-122544960D01*
X161267953Y-121280472D02*
X163608410Y-120093705D01*
X160176453Y-121798942D02*
X161267953Y-121280472D01*
X158934729Y-122333093D02*
X160176453Y-121798942D01*
X157695587Y-122820076D02*
X158934729Y-122333093D01*
X156611836Y-123197046D02*
X157695587Y-122820076D01*
X154936918Y-123746818D02*
X156611836Y-123197046D01*
X154161685Y-124043712D02*
X154936918Y-123746818D01*
X154069663Y-124416635D02*
X154161685Y-124043712D01*
X153918454Y-125345748D02*
X154069663Y-124416635D01*
X153522274Y-128312324D02*
X153918454Y-125345748D01*
X153097518Y-131326307D02*
X153522274Y-128312324D01*
X152915451Y-132306767D02*
X153097518Y-131326307D01*
X152785851Y-132742442D02*
X152915451Y-132306767D01*
X152610936Y-132810387D02*
X152785851Y-132742442D01*
X152225745Y-132869885D02*
X152610936Y-132810387D01*
X150943409Y-132963222D02*
X152225745Y-132869885D01*
X147162974Y-133045094D02*
X150943409Y-132963222D01*
X143346401Y-132983082D02*
X147162974Y-133045094D01*
X142018890Y-132896564D02*
X143346401Y-132983082D01*
X141604337Y-132839154D02*
X142018890Y-132896564D01*
X141395537Y-132772208D02*
X141604337Y-132839154D01*
X141301168Y-132660595D02*
X141395537Y-132772208D01*
X141210569Y-132459723D02*
X141301168Y-132660595D01*
X141027455Y-131721057D02*
X141210569Y-132459723D01*
X140819745Y-130417938D02*
X141027455Y-131721057D01*
X140560998Y-128412095D02*
X140819745Y-130417938D01*
X140059393Y-124114821D02*
X140560998Y-128412095D01*
X139980972Y-124024953D02*
X140059393Y-124114821D01*
X139767454Y-123916995D02*
X139980972Y-124024953D01*
X139065550Y-123700858D02*
X139767454Y-123916995D01*
X137588439Y-123270827D02*
X139065550Y-123700858D01*
X135811463Y-122620285D02*
X137588439Y-123270827D01*
X133979773Y-121846090D02*
X135811463Y-122620285D01*
X132338521Y-121045101D02*
X133979773Y-121846090D01*
X130490846Y-120058977D02*
X132338521Y-121045101D01*
X127260725Y-122618270D02*
X130490846Y-120058977D01*
X124867543Y-124468463D02*
X127260725Y-122618270D01*
X123649714Y-125322532D02*
X124867543Y-124468463D01*
X123506461Y-125324507D02*
X123649714Y-125322532D01*
X123293868Y-125229430D02*
X123506461Y-125324507D01*
X122571892Y-124670480D02*
X123293868Y-125229430D01*
X121306241Y-123490560D02*
X122571892Y-124670480D01*
X119319367Y-121534559D02*
X121306241Y-123490560D01*
X117617425Y-119814090D02*
X119319367Y-121534559D01*
X116380610Y-118505209D02*
X117617425Y-119814090D01*
X115626360Y-117626902D02*
X116380610Y-118505209D01*
X115435647Y-117355142D02*
X115626360Y-117626902D01*
X115372114Y-117198147D02*
X115435647Y-117355142D01*
X115516408Y-116860254D02*
X115372114Y-117198147D01*
X115906917Y-116239498D02*
X115516408Y-116860254D01*
X117188369Y-114503258D02*
X115906917Y-116239498D01*
X119782939Y-111188248D02*
X117188369Y-114503258D01*
X120563460Y-110162988D02*
X119782939Y-111188248D01*
X119459376Y-107984585D02*
X120563460Y-110162988D01*
X118679917Y-106378388D02*
X119459376Y-107984585D01*
X118355843Y-105575223D02*
X118679917Y-106378388D01*
X118466271Y-105504210D02*
X118355843Y-105575223D01*
X118793508Y-105447893D02*
X118466271Y-105504210D01*
X113512064Y-105335489D02*
X118793508Y-105447893D01*
X112077909Y-105246725D02*
X113512064Y-105335489D01*
X110988299Y-105130943D02*
X112077909Y-105246725D01*
X108852367Y-104848845D02*
X110988299Y-105130943D01*
X107667064Y-104624645D02*
X108852367Y-104848845D01*
X107308174Y-104500574D02*
X107667064Y-104624645D01*
X107039672Y-104350562D02*
X107308174Y-104500574D01*
X106577475Y-103918821D02*
X107039672Y-104350562D01*
X106010274Y-103312484D02*
X106577475Y-103918821D01*
X106010274Y-97076586D02*
X106010274Y-103312484D01*
X106010274Y-90840689D02*
X106010274Y-97076586D01*
X106522904Y-90231594D02*
X106010274Y-90840689D01*
X106770131Y-89969169D02*
X106522904Y-90231594D01*
X107052522Y-89753902D02*
X106770131Y-89969169D01*
X107412489Y-89574640D02*
X107052522Y-89753902D01*
X107892441Y-89420233D02*
X107412489Y-89574640D01*
X109381946Y-89141398D02*
X107892441Y-89420233D01*
X111860322Y-88828201D02*
X109381946Y-89141398D01*
X115267935Y-88378410D02*
X111860322Y-88828201D01*
X115866003Y-86628302D02*
X115267935Y-88378410D01*
X116539899Y-84824930D02*
X115866003Y-86628302D01*
X117386255Y-82865704D02*
X116539899Y-84824930D01*
X118070962Y-81362633D02*
X117386255Y-82865704D01*
X118355843Y-80655884D02*
X118070962Y-81362633D01*
X117762330Y-79802492D02*
X118355843Y-80655884D01*
X116335639Y-77947211D02*
X117762330Y-79802492D01*
X114815580Y-75986342D02*
X116335639Y-77947211D01*
X113988856Y-74794755D02*
X114815580Y-75986342D01*
X113770065Y-74377574D02*
X113988856Y-74794755D01*
X113646092Y-74020879D02*
X113770065Y-74377574D01*
X113590764Y-73680717D02*
X113646092Y-74020879D01*
X113577908Y-73313145D02*
X113590764Y-73680717D01*
X113615332Y-72792854D02*
X113577908Y-73313145D01*
X113685207Y-72567025D02*
X113615332Y-72792854D01*
X113809370Y-72332166D02*
X113685207Y-72567025D01*
X114281108Y-71739649D02*
X113809370Y-72332166D01*
X115151628Y-70823858D02*
X114281108Y-71739649D01*
X116725899Y-69206041D02*
X115151628Y-70823858D01*
X112342635Y-64128245D02*
X116725899Y-69206041D01*
X107396580Y-58374661D02*
X112342635Y-64128245D01*
X106833790Y-57698319D02*
X107396580Y-58374661D01*
X106073664Y-58075902D02*
X106833790Y-57698319D01*
X105674320Y-58231854D02*
X106073664Y-58075902D01*
X105206287Y-58345074D02*
X105674320Y-58231854D01*
X104693976Y-58415319D02*
X105206287Y-58345074D01*
X104161798Y-58442345D02*
X104693976Y-58415319D01*
X103634165Y-58425908D02*
X104161798Y-58442345D01*
X103135488Y-58365765D02*
X103634165Y-58425908D01*
X102690177Y-58261672D02*
X103135488Y-58365765D01*
X102322644Y-58113384D02*
X102690177Y-58261672D01*
X101844870Y-57825679D02*
X102322644Y-58113384D01*
X101416856Y-57499763D02*
X101844870Y-57825679D01*
X101039362Y-57139810D02*
X101416856Y-57499763D01*
X100713150Y-56749994D02*
X101039362Y-57139810D01*
X100438978Y-56334490D02*
X100713150Y-56749994D01*
X100217608Y-55897471D02*
X100438978Y-56334490D01*
X100049799Y-55443113D02*
X100217608Y-55897471D01*
X99936313Y-54975589D02*
X100049799Y-55443113D01*
X99877908Y-54499072D02*
X99936313Y-54975589D01*
X99875346Y-54017739D02*
X99877908Y-54499072D01*
X99929387Y-53535762D02*
X99875346Y-54017739D01*
X100040791Y-53057317D02*
X99929387Y-53535762D01*
X100210318Y-52586577D02*
X100040791Y-53057317D01*
X100438729Y-52127716D02*
X100210318Y-52586577D01*
X100726784Y-51684909D02*
X100438729Y-52127716D01*
X101075243Y-51262330D02*
X100726784Y-51684909D01*
X101419514Y-50926976D02*
X101075243Y-51262330D01*
X101787791Y-50638862D02*
X101419514Y-50926976D01*
X102176384Y-50397511D02*
X101787791Y-50638862D01*
X102581600Y-50202445D02*
X102176384Y-50397511D01*
X102999751Y-50053186D02*
X102581600Y-50202445D01*
X103427143Y-49949256D02*
X102999751Y-50053186D01*
X103860087Y-49890177D02*
X103427143Y-49949256D01*
X104294891Y-49875471D02*
X103860087Y-49890177D01*
M02*
