G04 #@! TF.GenerationSoftware,KiCad,Pcbnew,5.0.0-rc2-dev-unknown-5e5e80d~64~ubuntu16.04.1*
G04 #@! TF.CreationDate,2018-05-04T15:58:43+02:00*
G04 #@! TF.ProjectId,ripolab_pcb,7269706F6C61625F7063622E6B696361,rev?*
G04 #@! TF.SameCoordinates,Original*
G04 #@! TF.FileFunction,Copper,L2,Bot,Signal*
G04 #@! TF.FilePolarity,Positive*
%FSLAX46Y46*%
G04 Gerber Fmt 4.6, Leading zero omitted, Abs format (unit mm)*
G04 Created by KiCad (PCBNEW 5.0.0-rc2-dev-unknown-5e5e80d~64~ubuntu16.04.1) date Fri May  4 15:58:43 2018*
%MOMM*%
%LPD*%
G01*
G04 APERTURE LIST*
%ADD10O,3.500000X1.800000*%
%ADD11R,0.900000X1.200000*%
%ADD12R,1.120000X1.400000*%
%ADD13R,1.700000X1.000000*%
%ADD14O,2.500000X1.100000*%
%ADD15O,1.100000X2.400000*%
%ADD16R,2.500000X1.100000*%
%ADD17R,1.060000X0.650000*%
%ADD18R,0.800000X1.000000*%
%ADD19R,1.500000X0.700000*%
%ADD20R,1.145000X1.500000*%
%ADD21R,0.800000X1.600000*%
%ADD22R,2.100000X3.000000*%
%ADD23C,0.600000*%
%ADD24C,0.250000*%
%ADD25C,0.500000*%
%ADD26C,0.254000*%
G04 APERTURE END LIST*
D10*
X108458000Y-99568000D03*
D11*
X178180000Y-92710000D03*
X174880000Y-92710000D03*
D10*
X108458000Y-102108000D03*
D12*
X146186000Y-66294000D03*
X147946000Y-66294000D03*
D13*
X160630000Y-113162000D03*
X154330000Y-113162000D03*
X160630000Y-116962000D03*
X154330000Y-116962000D03*
X140310000Y-113162000D03*
X134010000Y-113162000D03*
X140310000Y-116962000D03*
X134010000Y-116962000D03*
D14*
X139351000Y-78740000D03*
X139351000Y-80740000D03*
X139351000Y-82740000D03*
X139351000Y-84740000D03*
X139351000Y-86740000D03*
X139351000Y-88740000D03*
X139451000Y-90740000D03*
X139351000Y-92740000D03*
D15*
X142061000Y-94490000D03*
X144061000Y-94490000D03*
X146061000Y-94490000D03*
X148061000Y-94490000D03*
X150061000Y-94490000D03*
X152061000Y-94490000D03*
D14*
X154751000Y-92740000D03*
X154751000Y-90740000D03*
X154751000Y-88740000D03*
X154751000Y-86740000D03*
X154751000Y-84740000D03*
X154751000Y-82740000D03*
X154751000Y-80740000D03*
D16*
X154751000Y-78740000D03*
D10*
X108458000Y-97028000D03*
X108458000Y-94488000D03*
X108458000Y-91948000D03*
D12*
X160410000Y-82804000D03*
X162170000Y-82804000D03*
X150740000Y-113792000D03*
X148980000Y-113792000D03*
X148980000Y-104140000D03*
X150740000Y-104140000D03*
X143900000Y-113792000D03*
X145660000Y-113792000D03*
X143900000Y-104140000D03*
X145660000Y-104140000D03*
X134484000Y-71374000D03*
X132724000Y-71374000D03*
D17*
X160190000Y-103698000D03*
X160190000Y-105598000D03*
X162390000Y-105598000D03*
X162390000Y-104648000D03*
X162390000Y-103698000D03*
D18*
X184370000Y-93030000D03*
X184370000Y-100330000D03*
X186580000Y-100330000D03*
X186580000Y-93030000D03*
D19*
X183720000Y-98930000D03*
X183720000Y-97430000D03*
X183720000Y-94430000D03*
D20*
X164364500Y-97790000D03*
X162279500Y-97790000D03*
X162279500Y-92710000D03*
X164364500Y-92710000D03*
X160247500Y-73660000D03*
X162332500Y-73660000D03*
D21*
X146695000Y-129400000D03*
X147945000Y-129400000D03*
D22*
X144145000Y-126500000D03*
X150495000Y-126500000D03*
D20*
X169952500Y-92710000D03*
X167867500Y-92710000D03*
X169952500Y-106934000D03*
X167867500Y-106934000D03*
D23*
X122936010Y-71120000D03*
X130556004Y-70104000D03*
X133032500Y-72961500D03*
X151574502Y-67945000D03*
X162242500Y-75311000D03*
X162242500Y-81216500D03*
X160654990Y-98171000D03*
X160655000Y-102235000D03*
X147320000Y-120396000D03*
X130048000Y-118872000D03*
X167132000Y-88646000D03*
X178562000Y-89662000D03*
X179832000Y-101092000D03*
X173736000Y-101854000D03*
X168402000Y-118872000D03*
X150876000Y-120650000D03*
X127254000Y-101599998D03*
X121412000Y-101600000D03*
X162306000Y-94234000D03*
X162306000Y-96012000D03*
X162306000Y-84328000D03*
X162306000Y-90932000D03*
X145796000Y-112014000D03*
X145796000Y-106172000D03*
X160655000Y-100076000D03*
X141732000Y-89154000D03*
X142240000Y-104140000D03*
X157924500Y-71882000D03*
X157353000Y-66738500D03*
X146685000Y-127254000D03*
X146304000Y-123761500D03*
X144272000Y-122999500D03*
X144653000Y-109283500D03*
X164846000Y-108013500D03*
X164338000Y-99314000D03*
X164338000Y-104648000D03*
X164338000Y-96139000D03*
X164338000Y-94234000D03*
X135890000Y-101346000D03*
X136652000Y-92964000D03*
X111760000Y-94742000D03*
X123444000Y-111506000D03*
X164084000Y-113538000D03*
X172974000Y-95250000D03*
X152400000Y-101346000D03*
X175514000Y-69342000D03*
X119126000Y-68834000D03*
X125476000Y-93218000D03*
X120142000Y-93218000D03*
X141986000Y-110744000D03*
X128270000Y-110744000D03*
X164084000Y-116078000D03*
X150114000Y-115570000D03*
X152273000Y-129921000D03*
X152590500Y-109855000D03*
X165989000Y-109156500D03*
X166433500Y-97790000D03*
X144018000Y-79502000D03*
X143002000Y-111760000D03*
X127762000Y-96520000D03*
X128524000Y-81534000D03*
X137414000Y-81534000D03*
X142494000Y-91186000D03*
X142748000Y-102362000D03*
X147066000Y-112014000D03*
X146304000Y-86868000D03*
X136652000Y-84074000D03*
X127762000Y-80772000D03*
X127000000Y-91948000D03*
X125730000Y-91694000D03*
X127762000Y-78740000D03*
X166116000Y-90424000D03*
X179578000Y-90678000D03*
X169926000Y-94488000D03*
X169926000Y-104648000D03*
D24*
X130131740Y-70104000D02*
X130556004Y-70104000D01*
X122936010Y-71120000D02*
X123952010Y-70104000D01*
X123952010Y-70104000D02*
X130131740Y-70104000D01*
D25*
X145796000Y-106172000D02*
X146304000Y-106680000D01*
X146304000Y-106680000D02*
X157003000Y-106680000D01*
X159985000Y-103698000D02*
X160190000Y-103698000D01*
X157003000Y-106680000D02*
X159985000Y-103698000D01*
X132649000Y-71374000D02*
X132649000Y-72578000D01*
X132649000Y-72578000D02*
X133032500Y-72961500D01*
X162332500Y-73660000D02*
X162332500Y-71400500D01*
X162332500Y-71400500D02*
X158877000Y-67945000D01*
X158877000Y-67945000D02*
X151998766Y-67945000D01*
X151998766Y-67945000D02*
X151574502Y-67945000D01*
X162242500Y-75311000D02*
X162242500Y-73750000D01*
X162242500Y-73750000D02*
X162332500Y-73660000D01*
X162245000Y-82804000D02*
X162245000Y-81219000D01*
X162245000Y-81219000D02*
X162242500Y-81216500D01*
X162279500Y-97790000D02*
X161035990Y-97790000D01*
X161035990Y-97790000D02*
X160954989Y-97871001D01*
X160954989Y-97871001D02*
X160654990Y-98171000D01*
X160190000Y-103698000D02*
X160190000Y-102700000D01*
X160190000Y-102700000D02*
X160355001Y-102534999D01*
X160355001Y-102534999D02*
X160655000Y-102235000D01*
X135149999Y-120396000D02*
X133625999Y-118872000D01*
X133625999Y-118872000D02*
X130048000Y-118872000D01*
X147320000Y-120396000D02*
X135149999Y-120396000D01*
X178054000Y-89154000D02*
X167640000Y-89154000D01*
X167640000Y-89154000D02*
X167132000Y-88646000D01*
X178562000Y-89662000D02*
X178054000Y-89154000D01*
X173736000Y-101854000D02*
X179070000Y-101854000D01*
X179070000Y-101854000D02*
X179832000Y-101092000D01*
X150876000Y-120650000D02*
X152654000Y-118872000D01*
X152654000Y-118872000D02*
X168402000Y-118872000D01*
X127253998Y-101600000D02*
X127254000Y-101599998D01*
X121412000Y-101600000D02*
X127253998Y-101600000D01*
X162306000Y-94234000D02*
X162306000Y-92736500D01*
X162306000Y-92736500D02*
X162279500Y-92710000D01*
X162279500Y-97790000D02*
X162279500Y-96038500D01*
X162279500Y-96038500D02*
X162306000Y-96012000D01*
X162306000Y-84328000D02*
X162306000Y-82865000D01*
X162306000Y-82865000D02*
X162245000Y-82804000D01*
X162279500Y-92710000D02*
X162279500Y-90958500D01*
X162279500Y-90958500D02*
X162306000Y-90932000D01*
X145796000Y-112014000D02*
X145796000Y-113731000D01*
X145796000Y-113731000D02*
X145735000Y-113792000D01*
X145735000Y-104140000D02*
X145735000Y-106111000D01*
X145735000Y-106111000D02*
X145796000Y-106172000D01*
X145735000Y-113792000D02*
X148905000Y-113792000D01*
X162279500Y-92710000D02*
X154081000Y-92710000D01*
X154081000Y-92710000D02*
X154051000Y-92740000D01*
X160147000Y-99568000D02*
X160655000Y-100076000D01*
X108458000Y-99568000D02*
X160147000Y-99568000D01*
D24*
X140051000Y-88740000D02*
X141318000Y-88740000D01*
X141318000Y-88740000D02*
X141732000Y-89154000D01*
X142240000Y-104140000D02*
X143900000Y-104140000D01*
D25*
X144272000Y-122999500D02*
X145034000Y-123761500D01*
X145034000Y-123761500D02*
X146304000Y-123761500D01*
X157924500Y-71882000D02*
X157924500Y-72409500D01*
X159175000Y-73660000D02*
X160247500Y-73660000D01*
X157924500Y-72409500D02*
X159175000Y-73660000D01*
X148021000Y-66294000D02*
X156882930Y-66294000D01*
X156882930Y-66294000D02*
X156923821Y-66309321D01*
X156923821Y-66309321D02*
X157353000Y-66738500D01*
X164546001Y-108313499D02*
X145623001Y-108313499D01*
X145623001Y-108313499D02*
X144653000Y-109283500D01*
X164846000Y-108013500D02*
X164546001Y-108313499D01*
X164338000Y-99314000D02*
X164338000Y-97816500D01*
X164338000Y-97816500D02*
X164364500Y-97790000D01*
X162390000Y-104648000D02*
X164338000Y-104648000D01*
X164338000Y-96139000D02*
X164338000Y-97763500D01*
X164338000Y-97763500D02*
X164364500Y-97790000D01*
X164364500Y-92710000D02*
X164364500Y-94207500D01*
X164364500Y-94207500D02*
X164338000Y-94234000D01*
X164364500Y-92710000D02*
X167867500Y-92710000D01*
X147945000Y-128514000D02*
X147945000Y-129400000D01*
X146685000Y-127254000D02*
X147945000Y-128514000D01*
X108458000Y-102108000D02*
X110708000Y-102108000D01*
X110708000Y-102108000D02*
X111050001Y-102450001D01*
X135547999Y-102450001D02*
X135890000Y-102108000D01*
X135890000Y-102108000D02*
X135890000Y-101346000D01*
X139827000Y-92964000D02*
X140051000Y-92740000D01*
X136652000Y-92964000D02*
X139827000Y-92964000D01*
X111050001Y-102450001D02*
X113284000Y-102450001D01*
X113284000Y-102450001D02*
X135547999Y-102450001D01*
D24*
X120142000Y-93218000D02*
X125476000Y-93218000D01*
X128270000Y-110744000D02*
X128778000Y-110236000D01*
X128778000Y-110236000D02*
X141478000Y-110236000D01*
X141478000Y-110236000D02*
X141986000Y-110744000D01*
X150114000Y-115570000D02*
X163576000Y-115570000D01*
X163576000Y-115570000D02*
X164084000Y-116078000D01*
D25*
X146685000Y-129390000D02*
X146695000Y-129400000D01*
X165481000Y-109664500D02*
X152781000Y-109664500D01*
X152781000Y-109664500D02*
X152590500Y-109855000D01*
X165689001Y-109456499D02*
X165481000Y-109664500D01*
X165989000Y-109156500D02*
X165689001Y-109456499D01*
X183720000Y-97430000D02*
X166793500Y-97430000D01*
X166793500Y-97430000D02*
X166433500Y-97790000D01*
X151973001Y-130220999D02*
X152273000Y-129921000D01*
X151443999Y-130750001D02*
X151973001Y-130220999D01*
X146745001Y-130750001D02*
X151443999Y-130750001D01*
X146695000Y-130700000D02*
X146745001Y-130750001D01*
X146695000Y-129400000D02*
X146695000Y-130700000D01*
X178180000Y-92710000D02*
X181600000Y-92710000D01*
X181600000Y-92710000D02*
X183320000Y-94430000D01*
X183320000Y-94430000D02*
X183720000Y-94430000D01*
D24*
X134010000Y-113162000D02*
X140310000Y-113162000D01*
X140310000Y-113162000D02*
X143195000Y-113162000D01*
X143195000Y-113162000D02*
X143825000Y-113792000D01*
X144780000Y-78740000D02*
X144018000Y-79502000D01*
X154051000Y-78740000D02*
X144780000Y-78740000D01*
X143002000Y-111760000D02*
X141600000Y-113162000D01*
X141600000Y-113162000D02*
X140310000Y-113162000D01*
X108458000Y-97028000D02*
X127254000Y-97028000D01*
X127254000Y-97028000D02*
X127762000Y-96520000D01*
X128524000Y-81534000D02*
X137414000Y-81534000D01*
X154051000Y-82740000D02*
X154115000Y-82804000D01*
X154115000Y-82804000D02*
X160335000Y-82804000D01*
X148336000Y-102870000D02*
X148660000Y-102870000D01*
X148660000Y-102870000D02*
X148980000Y-103190000D01*
X148980000Y-103190000D02*
X148980000Y-104140000D01*
X147828000Y-102362000D02*
X148336000Y-102870000D01*
X142748000Y-102362000D02*
X147828000Y-102362000D01*
X142048000Y-90740000D02*
X142494000Y-91186000D01*
X140051000Y-90740000D02*
X142048000Y-90740000D01*
X154330000Y-113162000D02*
X160630000Y-113162000D01*
X150815000Y-113792000D02*
X153700000Y-113792000D01*
X153700000Y-113792000D02*
X154330000Y-113162000D01*
X146304000Y-86868000D02*
X140179000Y-86868000D01*
X140179000Y-86868000D02*
X140051000Y-86740000D01*
X150740000Y-113652000D02*
X149102000Y-112014000D01*
X150740000Y-113792000D02*
X150740000Y-113652000D01*
X149102000Y-112014000D02*
X147066000Y-112014000D01*
X140051000Y-84740000D02*
X137318000Y-84740000D01*
X137318000Y-84740000D02*
X136652000Y-84074000D01*
X111397990Y-92398010D02*
X126549990Y-92398010D01*
X127762000Y-80772000D02*
X140019000Y-80772000D01*
X140019000Y-80772000D02*
X140051000Y-80740000D01*
X126549990Y-92398010D02*
X127000000Y-91948000D01*
X109308000Y-94488000D02*
X111397990Y-92398010D01*
X108458000Y-94488000D02*
X109308000Y-94488000D01*
X127762000Y-78740000D02*
X140051000Y-78740000D01*
X125476000Y-91948000D02*
X125730000Y-91694000D01*
X108458000Y-91948000D02*
X125476000Y-91948000D01*
X134559000Y-71374000D02*
X134559000Y-69657000D01*
X137160000Y-67056000D02*
X145349000Y-67056000D01*
X134559000Y-69657000D02*
X137160000Y-67056000D01*
X145349000Y-67056000D02*
X146111000Y-66294000D01*
D25*
X162390000Y-105598000D02*
X162390000Y-106423000D01*
X162901000Y-106934000D02*
X166795000Y-106934000D01*
X162390000Y-106423000D02*
X162901000Y-106934000D01*
X166795000Y-106934000D02*
X167867500Y-106934000D01*
D24*
X179578000Y-90678000D02*
X166370000Y-90678000D01*
X166370000Y-90678000D02*
X166116000Y-90424000D01*
D25*
X169926000Y-94488000D02*
X169926000Y-92736500D01*
X169926000Y-92736500D02*
X169952500Y-92710000D01*
X169952500Y-106934000D02*
X169952500Y-104674500D01*
X169952500Y-104674500D02*
X169926000Y-104648000D01*
X162390000Y-103698000D02*
X167966500Y-103698000D01*
X167966500Y-103698000D02*
X169952500Y-105684000D01*
X169952500Y-105684000D02*
X169952500Y-106934000D01*
X174880000Y-92710000D02*
X169952500Y-92710000D01*
D26*
G36*
X104750508Y-50600075D02*
X105208181Y-50698268D01*
X105649397Y-50855319D01*
X106067375Y-51070025D01*
X106455779Y-51341335D01*
X106808707Y-51668644D01*
X107120513Y-52052106D01*
X107383076Y-52488881D01*
X107676499Y-53208173D01*
X107816226Y-53903925D01*
X107828483Y-54210640D01*
X107805997Y-54527363D01*
X107748255Y-54838284D01*
X107648182Y-55166476D01*
X107260259Y-56259346D01*
X107232746Y-56300081D01*
X107215088Y-56386603D01*
X107208558Y-56404999D01*
X107201624Y-56452575D01*
X107178253Y-56567087D01*
X107182065Y-56586764D01*
X107179175Y-56606593D01*
X107207856Y-56719879D01*
X107217003Y-56767093D01*
X107224385Y-56785168D01*
X107246056Y-56870768D01*
X107266420Y-56898081D01*
X107268934Y-56922479D01*
X107316156Y-57009879D01*
X107327713Y-57038178D01*
X107348153Y-57069101D01*
X107365775Y-57101716D01*
X107385275Y-57125260D01*
X107440053Y-57208131D01*
X107471504Y-57229373D01*
X107622076Y-57411174D01*
X107642045Y-57440467D01*
X107664996Y-57462996D01*
X107685514Y-57487769D01*
X107713023Y-57510139D01*
X108661733Y-58441391D01*
X108670575Y-58453237D01*
X108709782Y-58488556D01*
X108747463Y-58525543D01*
X108759837Y-58533646D01*
X110439687Y-60046888D01*
X110443414Y-60051702D01*
X110489730Y-60091967D01*
X110535402Y-60133110D01*
X110540642Y-60136229D01*
X113004499Y-62278233D01*
X113005613Y-62279656D01*
X113055340Y-62322432D01*
X113104956Y-62365567D01*
X113106528Y-62366466D01*
X118711127Y-67187673D01*
X118734212Y-67222439D01*
X118813567Y-67275794D01*
X118833922Y-67293304D01*
X118869436Y-67313358D01*
X118960357Y-67374490D01*
X118987344Y-67379939D01*
X119011318Y-67393477D01*
X119120072Y-67406740D01*
X119227476Y-67428427D01*
X119254497Y-67423133D01*
X119281824Y-67426466D01*
X119387373Y-67397101D01*
X119494901Y-67376035D01*
X119517839Y-67360804D01*
X119544362Y-67353425D01*
X119630639Y-67285904D01*
X119664619Y-67263341D01*
X119683662Y-67244408D01*
X119758965Y-67185475D01*
X119779484Y-67149138D01*
X121239598Y-65697437D01*
X122059816Y-64905895D01*
X122560479Y-64500950D01*
X122889017Y-64340831D01*
X123304544Y-64262371D01*
X123600079Y-64233117D01*
X123797251Y-64236776D01*
X123974198Y-64281228D01*
X124258622Y-64420552D01*
X124714623Y-64717802D01*
X125376557Y-65205938D01*
X127500927Y-66867057D01*
X130130003Y-68939396D01*
X130159157Y-68977914D01*
X130236056Y-69022991D01*
X130252046Y-69035595D01*
X130294150Y-69057045D01*
X130394253Y-69115724D01*
X130414952Y-69118588D01*
X130433572Y-69128074D01*
X130549257Y-69137172D01*
X130664190Y-69153075D01*
X130684408Y-69147800D01*
X130705244Y-69149439D01*
X130815604Y-69113573D01*
X130861317Y-69101647D01*
X130879635Y-69092764D01*
X130964411Y-69065212D01*
X131001143Y-69033836D01*
X132890545Y-68117540D01*
X134830548Y-67264278D01*
X136505731Y-66635466D01*
X134074528Y-69066671D01*
X134011072Y-69109071D01*
X133968672Y-69172527D01*
X133968671Y-69172528D01*
X133843097Y-69360463D01*
X133784112Y-69657000D01*
X133799001Y-69731851D01*
X133799001Y-70051424D01*
X133676235Y-70075843D01*
X133604000Y-70124109D01*
X133531765Y-70075843D01*
X133284000Y-70026560D01*
X132164000Y-70026560D01*
X131916235Y-70075843D01*
X131706191Y-70216191D01*
X131565843Y-70426235D01*
X131516560Y-70674000D01*
X131516560Y-72074000D01*
X131565843Y-72321765D01*
X131706191Y-72531809D01*
X131750025Y-72561098D01*
X131746663Y-72578000D01*
X131815348Y-72923309D01*
X131961576Y-73142154D01*
X131961578Y-73142156D01*
X132010952Y-73216049D01*
X132084845Y-73265423D01*
X132189844Y-73370422D01*
X132239845Y-73491135D01*
X132502865Y-73754155D01*
X132846517Y-73896500D01*
X133218483Y-73896500D01*
X133562135Y-73754155D01*
X133825155Y-73491135D01*
X133967500Y-73147483D01*
X133967500Y-72775517D01*
X133945101Y-72721440D01*
X135044000Y-72721440D01*
X135291765Y-72672157D01*
X135501809Y-72531809D01*
X135642157Y-72321765D01*
X135691440Y-72074000D01*
X135691440Y-70674000D01*
X135642157Y-70426235D01*
X135501809Y-70216191D01*
X135319000Y-70094041D01*
X135319000Y-69971801D01*
X137474803Y-67816000D01*
X145274153Y-67816000D01*
X145349000Y-67830888D01*
X145423847Y-67816000D01*
X145423852Y-67816000D01*
X145645537Y-67771904D01*
X145840790Y-67641440D01*
X146746000Y-67641440D01*
X146993765Y-67592157D01*
X147061492Y-67546903D01*
X147259691Y-67629000D01*
X147660250Y-67629000D01*
X147819000Y-67470250D01*
X147819000Y-66421000D01*
X148073000Y-66421000D01*
X148073000Y-67470250D01*
X148231750Y-67629000D01*
X148632309Y-67629000D01*
X148865698Y-67532327D01*
X149044327Y-67353699D01*
X149141000Y-67120310D01*
X149141000Y-66579750D01*
X148982250Y-66421000D01*
X148073000Y-66421000D01*
X147819000Y-66421000D01*
X147799000Y-66421000D01*
X147799000Y-66167000D01*
X147819000Y-66167000D01*
X147819000Y-65117750D01*
X148073000Y-65117750D01*
X148073000Y-66167000D01*
X148982250Y-66167000D01*
X149141000Y-66008250D01*
X149141000Y-65467690D01*
X149044327Y-65234301D01*
X148865698Y-65055673D01*
X148632309Y-64959000D01*
X148231750Y-64959000D01*
X148073000Y-65117750D01*
X147819000Y-65117750D01*
X147660250Y-64959000D01*
X147259691Y-64959000D01*
X147061492Y-65041097D01*
X146993765Y-64995843D01*
X146746000Y-64946560D01*
X145626000Y-64946560D01*
X145378235Y-64995843D01*
X145168191Y-65136191D01*
X145027843Y-65346235D01*
X144978560Y-65594000D01*
X144978560Y-66296000D01*
X137458913Y-66296000D01*
X137587531Y-66251086D01*
X137608860Y-66246701D01*
X137651091Y-66228890D01*
X137694353Y-66213783D01*
X137713112Y-66202734D01*
X138259932Y-65972116D01*
X138307701Y-65954641D01*
X138321965Y-65945954D01*
X138337355Y-65939463D01*
X138379470Y-65910930D01*
X138624749Y-65761545D01*
X138655639Y-65753838D01*
X138740307Y-65691165D01*
X138771542Y-65672142D01*
X138794416Y-65651113D01*
X138819386Y-65632630D01*
X138843970Y-65605557D01*
X138921520Y-65534262D01*
X138929241Y-65517634D01*
X138971962Y-65484181D01*
X139034355Y-65373619D01*
X139099737Y-65264765D01*
X139111177Y-65188132D01*
X139121785Y-65155484D01*
X139142599Y-65092129D01*
X139142736Y-65091000D01*
X139143087Y-65089921D01*
X139150904Y-65023874D01*
X139167205Y-64889895D01*
X139166893Y-64888774D01*
X139620097Y-61059415D01*
X139642863Y-60887502D01*
X139645285Y-60892327D01*
X139647680Y-60899454D01*
X139649796Y-60906380D01*
X139651184Y-60915245D01*
X139659098Y-60936817D01*
X139665869Y-60958972D01*
X139670150Y-60966942D01*
X139672645Y-60973743D01*
X139674874Y-60980374D01*
X139676501Y-60989188D01*
X139685064Y-61010697D01*
X139692495Y-61032808D01*
X139696986Y-61040642D01*
X139699569Y-61047130D01*
X139701902Y-61053489D01*
X139703762Y-61062230D01*
X139712957Y-61083622D01*
X139721051Y-61105683D01*
X139725749Y-61113381D01*
X139728411Y-61119574D01*
X139730839Y-61125672D01*
X139732927Y-61134335D01*
X139742762Y-61155618D01*
X139751512Y-61177597D01*
X139756404Y-61185142D01*
X139759154Y-61191092D01*
X139761652Y-61196905D01*
X139763963Y-61205481D01*
X139774431Y-61226632D01*
X139783833Y-61248506D01*
X139788910Y-61255890D01*
X139791711Y-61261551D01*
X139794304Y-61267161D01*
X139796830Y-61275636D01*
X139807916Y-61296620D01*
X139817968Y-61318373D01*
X139823223Y-61325592D01*
X139826098Y-61331034D01*
X139828754Y-61336402D01*
X139831492Y-61344775D01*
X139843200Y-61365592D01*
X139853885Y-61387182D01*
X139859304Y-61394223D01*
X139862246Y-61399455D01*
X139864967Y-61404605D01*
X139867906Y-61412859D01*
X139880219Y-61433474D01*
X139891540Y-61454902D01*
X139897117Y-61461765D01*
X139900111Y-61466778D01*
X139902907Y-61471749D01*
X139906046Y-61479890D01*
X139918964Y-61500298D01*
X139930897Y-61521514D01*
X139936620Y-61528190D01*
X139939670Y-61533009D01*
X139942540Y-61537814D01*
X139945864Y-61545816D01*
X139959349Y-61565956D01*
X139971908Y-61586982D01*
X139977778Y-61593479D01*
X139980887Y-61598121D01*
X139983823Y-61602759D01*
X139987330Y-61610631D01*
X140001400Y-61630528D01*
X140014554Y-61651308D01*
X140020549Y-61657607D01*
X140023714Y-61662082D01*
X140026719Y-61666570D01*
X140030402Y-61674304D01*
X140045034Y-61693923D01*
X140058777Y-61714448D01*
X140064896Y-61720555D01*
X140068120Y-61724878D01*
X140071197Y-61729229D01*
X140075048Y-61736819D01*
X140090230Y-61756144D01*
X140104551Y-61776396D01*
X140110784Y-61782307D01*
X140114076Y-61786498D01*
X140117221Y-61790715D01*
X140121236Y-61798162D01*
X140136963Y-61817186D01*
X140151832Y-61837123D01*
X140158164Y-61842831D01*
X140161538Y-61846912D01*
X140164759Y-61851013D01*
X140168927Y-61858306D01*
X140185166Y-61876989D01*
X140200589Y-61896621D01*
X140207021Y-61902133D01*
X140210449Y-61906077D01*
X140213776Y-61910101D01*
X140218088Y-61917235D01*
X140234821Y-61935559D01*
X140250790Y-61954875D01*
X140257317Y-61960192D01*
X140260810Y-61964017D01*
X140264238Y-61967961D01*
X140268696Y-61974946D01*
X140285929Y-61992917D01*
X140302394Y-62011860D01*
X140308998Y-62016974D01*
X140312604Y-62020734D01*
X140316106Y-62024569D01*
X140320696Y-62031391D01*
X140338393Y-62048975D01*
X140355370Y-62067565D01*
X140362053Y-62072483D01*
X140365745Y-62076151D01*
X140369359Y-62079919D01*
X140374086Y-62086593D01*
X140392266Y-62103808D01*
X140409695Y-62121983D01*
X140416437Y-62126695D01*
X140420241Y-62130297D01*
X140423961Y-62133993D01*
X140428805Y-62140497D01*
X140447395Y-62157277D01*
X140465312Y-62175079D01*
X140472127Y-62179601D01*
X140476030Y-62183124D01*
X140479878Y-62186768D01*
X140484841Y-62193111D01*
X140503864Y-62209480D01*
X140522225Y-62226866D01*
X140529093Y-62231189D01*
X140533093Y-62234631D01*
X140537088Y-62238237D01*
X140542165Y-62244420D01*
X140561588Y-62260352D01*
X140580368Y-62277303D01*
X140587287Y-62281431D01*
X140591436Y-62284834D01*
X140595549Y-62288374D01*
X140600732Y-62294392D01*
X140620538Y-62309876D01*
X140639731Y-62326391D01*
X140646696Y-62330326D01*
X140650982Y-62333676D01*
X140655250Y-62337177D01*
X140660543Y-62343041D01*
X140680735Y-62358081D01*
X140700287Y-62374118D01*
X140707286Y-62377856D01*
X140711722Y-62381161D01*
X140716159Y-62384630D01*
X140721542Y-62390322D01*
X140742042Y-62404865D01*
X140761990Y-62420459D01*
X140769036Y-62424013D01*
X140773630Y-62427272D01*
X140778225Y-62430695D01*
X140783704Y-62436227D01*
X140804558Y-62450308D01*
X140824844Y-62465418D01*
X140831913Y-62468779D01*
X140836673Y-62471994D01*
X140841450Y-62475382D01*
X140847015Y-62480749D01*
X140868166Y-62494333D01*
X140888790Y-62508964D01*
X140895889Y-62512140D01*
X140900794Y-62515290D01*
X140905789Y-62518663D01*
X140911441Y-62523869D01*
X140932878Y-62536954D01*
X140953804Y-62551084D01*
X140960927Y-62554075D01*
X140966048Y-62557201D01*
X140971228Y-62560528D01*
X140976962Y-62565573D01*
X140998668Y-62578152D01*
X141019877Y-62591774D01*
X141027018Y-62594581D01*
X141032344Y-62597668D01*
X141037719Y-62600949D01*
X141043524Y-62605827D01*
X141065477Y-62617892D01*
X141086971Y-62631012D01*
X141094127Y-62633638D01*
X141099660Y-62636679D01*
X141105257Y-62639922D01*
X141111145Y-62644647D01*
X141133365Y-62656211D01*
X141155067Y-62668788D01*
X141162222Y-62671230D01*
X141167978Y-62674225D01*
X141173819Y-62677436D01*
X141179769Y-62681993D01*
X141202156Y-62693009D01*
X141224112Y-62705076D01*
X141231287Y-62707344D01*
X141237275Y-62710291D01*
X141243366Y-62713461D01*
X141249383Y-62717858D01*
X141271971Y-62728348D01*
X141294127Y-62739879D01*
X141301302Y-62741970D01*
X141307527Y-62744861D01*
X141313869Y-62747981D01*
X141319941Y-62752213D01*
X141342684Y-62762161D01*
X141365051Y-62773167D01*
X141372231Y-62775084D01*
X141378703Y-62777915D01*
X141385313Y-62780985D01*
X141391446Y-62785058D01*
X141414357Y-62794473D01*
X141436876Y-62804931D01*
X141444047Y-62806674D01*
X141450768Y-62809436D01*
X141457678Y-62812458D01*
X141463866Y-62816371D01*
X141486890Y-62825235D01*
X141509551Y-62835147D01*
X141516720Y-62836720D01*
X141523729Y-62839418D01*
X141530926Y-62842376D01*
X141537159Y-62846125D01*
X141560280Y-62854438D01*
X141583085Y-62863810D01*
X141590248Y-62865214D01*
X141597554Y-62867841D01*
X141605027Y-62870718D01*
X141611312Y-62874310D01*
X141634553Y-62882086D01*
X141657445Y-62890899D01*
X141664585Y-62892133D01*
X141672192Y-62894678D01*
X141679975Y-62897477D01*
X141686310Y-62900912D01*
X141709634Y-62908141D01*
X141732584Y-62916393D01*
X141739702Y-62917460D01*
X141747650Y-62919923D01*
X141755731Y-62922627D01*
X141762091Y-62925895D01*
X141785426Y-62932562D01*
X141808495Y-62940280D01*
X141815605Y-62941184D01*
X141823817Y-62943530D01*
X141832272Y-62946151D01*
X141838667Y-62949259D01*
X141862047Y-62955379D01*
X141885160Y-62962543D01*
X141892240Y-62963283D01*
X141900763Y-62965515D01*
X141909575Y-62968032D01*
X141916005Y-62970982D01*
X141939391Y-62976551D01*
X141962517Y-62983158D01*
X141969571Y-62983737D01*
X141978457Y-62985853D01*
X141987611Y-62988250D01*
X141994069Y-62991040D01*
X142017443Y-62996059D01*
X142040577Y-63002115D01*
X142047601Y-63002535D01*
X142056863Y-63004523D01*
X142066344Y-63006781D01*
X142072817Y-63009409D01*
X142096163Y-63013882D01*
X142119312Y-63019394D01*
X142126301Y-63019656D01*
X142135895Y-63021494D01*
X142145763Y-63023613D01*
X142152270Y-63026087D01*
X142175622Y-63030024D01*
X142198679Y-63034975D01*
X142205611Y-63035080D01*
X142215618Y-63036767D01*
X142225849Y-63038727D01*
X142232355Y-63041037D01*
X142255577Y-63044423D01*
X142278639Y-63048841D01*
X142285547Y-63048792D01*
X142295868Y-63050297D01*
X142306544Y-63052097D01*
X142313056Y-63054247D01*
X142336205Y-63057098D01*
X142359214Y-63060977D01*
X142366072Y-63060776D01*
X142376806Y-63062098D01*
X142387834Y-63063706D01*
X142394356Y-63065699D01*
X142417427Y-63068020D01*
X142440327Y-63071359D01*
X142447124Y-63071008D01*
X142458254Y-63072128D01*
X142469710Y-63073539D01*
X142476227Y-63075373D01*
X142499158Y-63077165D01*
X142521966Y-63079974D01*
X142528712Y-63079475D01*
X142540212Y-63080374D01*
X142552124Y-63081572D01*
X142558630Y-63083248D01*
X142581403Y-63084518D01*
X142604111Y-63086803D01*
X142610802Y-63086158D01*
X142622735Y-63086824D01*
X142635047Y-63087786D01*
X142641545Y-63089306D01*
X142664178Y-63090063D01*
X142686736Y-63091826D01*
X142693357Y-63091039D01*
X142705696Y-63091451D01*
X142718454Y-63092163D01*
X142724933Y-63093527D01*
X142747390Y-63093777D01*
X142769798Y-63095027D01*
X142776350Y-63094100D01*
X142789140Y-63094242D01*
X142797496Y-63094521D01*
X142800556Y-63095130D01*
X142815694Y-63095130D01*
X142853281Y-63096387D01*
X142860928Y-63095130D01*
X142868891Y-63095130D01*
X142937143Y-63095890D01*
X142941199Y-63095130D01*
X151072367Y-63095130D01*
X151076423Y-63095890D01*
X151144675Y-63095130D01*
X151152639Y-63095130D01*
X151160286Y-63096387D01*
X151197873Y-63095130D01*
X151213010Y-63095130D01*
X151216069Y-63094521D01*
X151224427Y-63094242D01*
X151237217Y-63094100D01*
X151243769Y-63095027D01*
X151266178Y-63093777D01*
X151288634Y-63093527D01*
X151295113Y-63092163D01*
X151307873Y-63091451D01*
X151320211Y-63091039D01*
X151326832Y-63091826D01*
X151349394Y-63090063D01*
X151372022Y-63089306D01*
X151378518Y-63087787D01*
X151390846Y-63086823D01*
X151402766Y-63086158D01*
X151409456Y-63086803D01*
X151432164Y-63084518D01*
X151454940Y-63083248D01*
X151461445Y-63081573D01*
X151473336Y-63080376D01*
X151484863Y-63079475D01*
X151491604Y-63079974D01*
X151514396Y-63077167D01*
X151537343Y-63075374D01*
X151543864Y-63073539D01*
X151555305Y-63072130D01*
X151566445Y-63071009D01*
X151573243Y-63071360D01*
X151596147Y-63068021D01*
X151619216Y-63065700D01*
X151625737Y-63063707D01*
X151636786Y-63062096D01*
X151647508Y-63060776D01*
X151654361Y-63060977D01*
X151677359Y-63057100D01*
X151700519Y-63054248D01*
X151707033Y-63052097D01*
X151717674Y-63050304D01*
X151728028Y-63048794D01*
X151734938Y-63048843D01*
X151758012Y-63044423D01*
X151781222Y-63041039D01*
X151787723Y-63038731D01*
X151798012Y-63036760D01*
X151807966Y-63035082D01*
X151814900Y-63034977D01*
X151837969Y-63030024D01*
X151861311Y-63026089D01*
X151867814Y-63023616D01*
X151877669Y-63021500D01*
X151887284Y-63019658D01*
X151894273Y-63019397D01*
X151917430Y-63013883D01*
X151940766Y-63009413D01*
X151947234Y-63006787D01*
X151956755Y-63004520D01*
X151965986Y-63002538D01*
X151973010Y-63002119D01*
X151996150Y-62996062D01*
X152019518Y-62991045D01*
X152025972Y-62988256D01*
X152035112Y-62985864D01*
X152044025Y-62983742D01*
X152051076Y-62983163D01*
X152074195Y-62976559D01*
X152097587Y-62970989D01*
X152104018Y-62968039D01*
X152112830Y-62965521D01*
X152121361Y-62963288D01*
X152128435Y-62962549D01*
X152151534Y-62955391D01*
X152174930Y-62949267D01*
X152181327Y-62946158D01*
X152189775Y-62943540D01*
X152197994Y-62941193D01*
X152205108Y-62940288D01*
X152228202Y-62932563D01*
X152251511Y-62925904D01*
X152257861Y-62922641D01*
X152265992Y-62919921D01*
X152273903Y-62917470D01*
X152281022Y-62916403D01*
X152303981Y-62908149D01*
X152327296Y-62900924D01*
X152333627Y-62897491D01*
X152341406Y-62894694D01*
X152349036Y-62892142D01*
X152356172Y-62890909D01*
X152379057Y-62882100D01*
X152402302Y-62874324D01*
X152408586Y-62870733D01*
X152416065Y-62867854D01*
X152423376Y-62865226D01*
X152430530Y-62863824D01*
X152453320Y-62854461D01*
X152476459Y-62846142D01*
X152482694Y-62842392D01*
X152489868Y-62839445D01*
X152496910Y-62836734D01*
X152504073Y-62835163D01*
X152526723Y-62825258D01*
X152549763Y-62816389D01*
X152555952Y-62812476D01*
X152562832Y-62809467D01*
X152569597Y-62806688D01*
X152576761Y-62804947D01*
X152599257Y-62794502D01*
X152622184Y-62785082D01*
X152628321Y-62781007D01*
X152634937Y-62777935D01*
X152641409Y-62775105D01*
X152648585Y-62773189D01*
X152670950Y-62762186D01*
X152693698Y-62752238D01*
X152699768Y-62748008D01*
X152706115Y-62744886D01*
X152712349Y-62741991D01*
X152719524Y-62739901D01*
X152741686Y-62728369D01*
X152764268Y-62717884D01*
X152770281Y-62713490D01*
X152776377Y-62710318D01*
X152782372Y-62707369D01*
X152789542Y-62705103D01*
X152811490Y-62693043D01*
X152833884Y-62682026D01*
X152839834Y-62677470D01*
X152845683Y-62674255D01*
X152851438Y-62671261D01*
X152858596Y-62668819D01*
X152880317Y-62656234D01*
X152902522Y-62644680D01*
X152908404Y-62639961D01*
X152914026Y-62636704D01*
X152919542Y-62633673D01*
X152926703Y-62631046D01*
X152948216Y-62617918D01*
X152970149Y-62605866D01*
X152975948Y-62600993D01*
X152981350Y-62597697D01*
X152986665Y-62594617D01*
X152993801Y-62591813D01*
X153015006Y-62578197D01*
X153036722Y-62565615D01*
X153042456Y-62560571D01*
X153047637Y-62557244D01*
X153052767Y-62554114D01*
X153059884Y-62551126D01*
X153080808Y-62537001D01*
X153102253Y-62523914D01*
X153107903Y-62518711D01*
X153112878Y-62515352D01*
X153117817Y-62512180D01*
X153124916Y-62509006D01*
X153145540Y-62494380D01*
X153166685Y-62480802D01*
X153172249Y-62475437D01*
X153177050Y-62472033D01*
X153181800Y-62468826D01*
X153188873Y-62465464D01*
X153209169Y-62450350D01*
X153230008Y-62436283D01*
X153235484Y-62430755D01*
X153240103Y-62427315D01*
X153244684Y-62424066D01*
X153251725Y-62420516D01*
X153271671Y-62404927D01*
X153292186Y-62390378D01*
X153297569Y-62384687D01*
X153302010Y-62381216D01*
X153306444Y-62377914D01*
X153313446Y-62374175D01*
X153333019Y-62358125D01*
X153353196Y-62343100D01*
X153358482Y-62337245D01*
X153362762Y-62333736D01*
X153367048Y-62330386D01*
X153374014Y-62326452D01*
X153393210Y-62309939D01*
X153413009Y-62294465D01*
X153418191Y-62288449D01*
X153422321Y-62284896D01*
X153426473Y-62281492D01*
X153433389Y-62277367D01*
X153452167Y-62260422D01*
X153471594Y-62244492D01*
X153476671Y-62238311D01*
X153480668Y-62234704D01*
X153484678Y-62231254D01*
X153491544Y-62226934D01*
X153509907Y-62209552D01*
X153528930Y-62193187D01*
X153533891Y-62186847D01*
X153537745Y-62183199D01*
X153541653Y-62179673D01*
X153548469Y-62175152D01*
X153566395Y-62157347D01*
X153584979Y-62140577D01*
X153589821Y-62134079D01*
X153593563Y-62130362D01*
X153597362Y-62126765D01*
X153604106Y-62122053D01*
X153621538Y-62103880D01*
X153639711Y-62086677D01*
X153644437Y-62080007D01*
X153648045Y-62076245D01*
X153651763Y-62072553D01*
X153658443Y-62067639D01*
X153675410Y-62049065D01*
X153693114Y-62031480D01*
X153697707Y-62024656D01*
X153701222Y-62020807D01*
X153704823Y-62017054D01*
X153711424Y-62011944D01*
X153727891Y-61993005D01*
X153745132Y-61975031D01*
X153749590Y-61968048D01*
X153753023Y-61964100D01*
X153756517Y-61960275D01*
X153763047Y-61954957D01*
X153779027Y-61935633D01*
X153795752Y-61917324D01*
X153800061Y-61910197D01*
X153803387Y-61906175D01*
X153806822Y-61902225D01*
X153813254Y-61896715D01*
X153828680Y-61877086D01*
X153844921Y-61858407D01*
X153849089Y-61851116D01*
X153852338Y-61846981D01*
X153855690Y-61842928D01*
X153862031Y-61837214D01*
X153876924Y-61817251D01*
X153892630Y-61798259D01*
X153896639Y-61790825D01*
X153899802Y-61786586D01*
X153903095Y-61782396D01*
X153909325Y-61776489D01*
X153923642Y-61756250D01*
X153938827Y-61736928D01*
X153942679Y-61729339D01*
X153945763Y-61724979D01*
X153948996Y-61720646D01*
X153955118Y-61714538D01*
X153968867Y-61694011D01*
X153983492Y-61674408D01*
X153987174Y-61666680D01*
X153990185Y-61662185D01*
X153993361Y-61657694D01*
X153999353Y-61651401D01*
X154012495Y-61630646D01*
X154026578Y-61610739D01*
X154030090Y-61602861D01*
X154033018Y-61598237D01*
X154036140Y-61593576D01*
X154042005Y-61587087D01*
X154054561Y-61566075D01*
X154068061Y-61545919D01*
X154071387Y-61537914D01*
X154074258Y-61533109D01*
X154077312Y-61528288D01*
X154083042Y-61521605D01*
X154094989Y-61500370D01*
X154107891Y-61479996D01*
X154111027Y-61471867D01*
X154113834Y-61466878D01*
X154116833Y-61461858D01*
X154122411Y-61454996D01*
X154133727Y-61433586D01*
X154146041Y-61412977D01*
X154148983Y-61404719D01*
X154151718Y-61399544D01*
X154154656Y-61394322D01*
X154160078Y-61387279D01*
X154170771Y-61365681D01*
X154182476Y-61344877D01*
X154185213Y-61336510D01*
X154187883Y-61331116D01*
X154190751Y-61325690D01*
X154196007Y-61318472D01*
X154206063Y-61296719D01*
X154217150Y-61275741D01*
X154219677Y-61267269D01*
X154222263Y-61261675D01*
X154225083Y-61255979D01*
X154230159Y-61248598D01*
X154239558Y-61226740D01*
X154250030Y-61205589D01*
X154252343Y-61197010D01*
X154254843Y-61191196D01*
X154257604Y-61185224D01*
X154262496Y-61177681D01*
X154271242Y-61155721D01*
X154281078Y-61134444D01*
X154283168Y-61125777D01*
X154285596Y-61119681D01*
X154288267Y-61113470D01*
X154292962Y-61105780D01*
X154301051Y-61083742D01*
X154310258Y-61062331D01*
X154312121Y-61053582D01*
X154314454Y-61047226D01*
X154317042Y-61040727D01*
X154321539Y-61032885D01*
X154328978Y-61010759D01*
X154337533Y-60989278D01*
X154339160Y-60980472D01*
X154341394Y-60973826D01*
X154343892Y-60967019D01*
X154348174Y-60959051D01*
X154354941Y-60936916D01*
X154362857Y-60915350D01*
X154364247Y-60906480D01*
X154366370Y-60899534D01*
X154368767Y-60892406D01*
X154372828Y-60884317D01*
X154378934Y-60862163D01*
X154382499Y-60851560D01*
X154421414Y-61144584D01*
X154896807Y-65040429D01*
X154890385Y-65090914D01*
X154913161Y-65174453D01*
X154915318Y-65192126D01*
X154930875Y-65239423D01*
X154962067Y-65353828D01*
X154973261Y-65368285D01*
X154978973Y-65385651D01*
X155056308Y-65475540D01*
X155086792Y-65514910D01*
X155100227Y-65526589D01*
X155156700Y-65592229D01*
X155202130Y-65615170D01*
X155206032Y-65618562D01*
X155217015Y-65637546D01*
X155308316Y-65707474D01*
X155343223Y-65737818D01*
X155361785Y-65748427D01*
X155378752Y-65761422D01*
X155420239Y-65781835D01*
X155520098Y-65838908D01*
X155541856Y-65841676D01*
X155827611Y-65982278D01*
X155856524Y-66000198D01*
X155887988Y-66011987D01*
X155918141Y-66026823D01*
X155951009Y-66035598D01*
X157292242Y-66538116D01*
X158683059Y-67060000D01*
X151881196Y-67060000D01*
X151760485Y-67010000D01*
X151388519Y-67010000D01*
X151044867Y-67152345D01*
X150781847Y-67415365D01*
X150639502Y-67759017D01*
X150639502Y-68130983D01*
X150781847Y-68474635D01*
X151044867Y-68737655D01*
X151388519Y-68880000D01*
X151760485Y-68880000D01*
X151881196Y-68830000D01*
X158510422Y-68830000D01*
X161447501Y-71767080D01*
X161447501Y-72355097D01*
X161302191Y-72452191D01*
X161285378Y-72477353D01*
X161179698Y-72371673D01*
X160946309Y-72275000D01*
X160533250Y-72275000D01*
X160374500Y-72433750D01*
X160374500Y-73533000D01*
X160394500Y-73533000D01*
X160394500Y-73787000D01*
X160374500Y-73787000D01*
X160374500Y-74886250D01*
X160533250Y-75045000D01*
X160946309Y-75045000D01*
X161179698Y-74948327D01*
X161285378Y-74842647D01*
X161302191Y-74867809D01*
X161357500Y-74904766D01*
X161357500Y-75004306D01*
X161307500Y-75125017D01*
X161307500Y-75496983D01*
X161449845Y-75840635D01*
X161712865Y-76103655D01*
X162056517Y-76246000D01*
X162428483Y-76246000D01*
X162772135Y-76103655D01*
X163035155Y-75840635D01*
X163177500Y-75496983D01*
X163177500Y-75125017D01*
X163130897Y-75012507D01*
X163152765Y-75008157D01*
X163362809Y-74867809D01*
X163503157Y-74657765D01*
X163552440Y-74410000D01*
X163552440Y-72910000D01*
X163503157Y-72662235D01*
X163362809Y-72452191D01*
X163217500Y-72355098D01*
X163217500Y-71487661D01*
X163234837Y-71400500D01*
X163217500Y-71313339D01*
X163217500Y-71313335D01*
X163166152Y-71055190D01*
X163148445Y-71028690D01*
X163019924Y-70836345D01*
X163019923Y-70836344D01*
X162970549Y-70762451D01*
X162896656Y-70713077D01*
X159621344Y-67437766D01*
X161153617Y-68111512D01*
X163030879Y-69021749D01*
X163067634Y-69053135D01*
X163152390Y-69080666D01*
X163170687Y-69089538D01*
X163216426Y-69101467D01*
X163326813Y-69137324D01*
X163347624Y-69135684D01*
X163367818Y-69140951D01*
X163482781Y-69125035D01*
X163598480Y-69115919D01*
X163617074Y-69106443D01*
X163637754Y-69103580D01*
X163737882Y-69044876D01*
X163779993Y-69023415D01*
X163795960Y-69010825D01*
X163872839Y-68965752D01*
X163902006Y-68927211D01*
X166670875Y-66744037D01*
X168796314Y-65101544D01*
X169858724Y-64337869D01*
X169956036Y-64303078D01*
X170166404Y-64267957D01*
X170807208Y-64271099D01*
X171175629Y-64344186D01*
X171520976Y-64523379D01*
X172081485Y-64989449D01*
X173008236Y-65889062D01*
X174660637Y-67533001D01*
X174681480Y-67569801D01*
X174756424Y-67628297D01*
X174775068Y-67646846D01*
X174809499Y-67669725D01*
X174896298Y-67737474D01*
X174922286Y-67744668D01*
X174944749Y-67759594D01*
X175052807Y-67780800D01*
X175158931Y-67810178D01*
X175185696Y-67806879D01*
X175212158Y-67812072D01*
X175320098Y-67790313D01*
X175429393Y-67776842D01*
X175452859Y-67763551D01*
X175479295Y-67758222D01*
X175570697Y-67696809D01*
X175606660Y-67676440D01*
X175626572Y-67659267D01*
X175705488Y-67606243D01*
X175728895Y-67571017D01*
X181379346Y-62697707D01*
X181381010Y-62696752D01*
X181430296Y-62653764D01*
X181480057Y-62610847D01*
X181481243Y-62609327D01*
X183881511Y-60515781D01*
X183886492Y-60512810D01*
X183932228Y-60471544D01*
X183978805Y-60430919D01*
X183982360Y-60426312D01*
X185696080Y-58880086D01*
X185706663Y-58873239D01*
X185746066Y-58834985D01*
X185786885Y-58798156D01*
X185794424Y-58788038D01*
X186813516Y-57798676D01*
X186835739Y-57781584D01*
X186861794Y-57751806D01*
X186890195Y-57724234D01*
X186906121Y-57701147D01*
X187068629Y-57515421D01*
X187079171Y-57509757D01*
X187158064Y-57413208D01*
X187194894Y-57371116D01*
X187200707Y-57361022D01*
X187208078Y-57352001D01*
X187234343Y-57302611D01*
X187293277Y-57200269D01*
X187314236Y-57177788D01*
X187346196Y-57092275D01*
X187356766Y-57072399D01*
X187369770Y-57029201D01*
X187409640Y-56922524D01*
X187408831Y-56899441D01*
X187415490Y-56877321D01*
X187404086Y-56764003D01*
X187402507Y-56718923D01*
X187397345Y-56697010D01*
X187388204Y-56606181D01*
X187366372Y-56565544D01*
X187276480Y-56183985D01*
X187272659Y-56153433D01*
X187261048Y-56118483D01*
X187252602Y-56082634D01*
X187239830Y-56054617D01*
X187012666Y-55370848D01*
X186911745Y-55044605D01*
X186856694Y-54757299D01*
X186838821Y-54104964D01*
X186957149Y-53449825D01*
X187219274Y-52777707D01*
X187444095Y-52389171D01*
X187712354Y-52034406D01*
X188014781Y-51721876D01*
X188347247Y-51451749D01*
X188705435Y-51224648D01*
X189084766Y-51041469D01*
X189480373Y-50903209D01*
X189887155Y-50810827D01*
X190299926Y-50765136D01*
X190713462Y-50766771D01*
X191122743Y-50816195D01*
X191523016Y-50913782D01*
X191909982Y-51059983D01*
X192279767Y-51255544D01*
X192628848Y-51501734D01*
X192958929Y-51805245D01*
X193520102Y-52447239D01*
X193672554Y-52678642D01*
X193777034Y-52900805D01*
X193849268Y-53148029D01*
X193896731Y-53455880D01*
X193932248Y-54422220D01*
X193914431Y-55146124D01*
X193853355Y-55603228D01*
X193739862Y-55932749D01*
X193531661Y-56296921D01*
X193087634Y-56867629D01*
X192587074Y-57316661D01*
X192034610Y-57653420D01*
X191439210Y-57878206D01*
X190808789Y-57989435D01*
X190151060Y-57983424D01*
X189474270Y-57854590D01*
X188761753Y-57586085D01*
X188131034Y-57286479D01*
X188027485Y-57230288D01*
X187940647Y-57221181D01*
X187855972Y-57199820D01*
X187806345Y-57207096D01*
X187756461Y-57201865D01*
X187672741Y-57226686D01*
X187586346Y-57239353D01*
X187543281Y-57265067D01*
X187495192Y-57279324D01*
X187427341Y-57334295D01*
X187352371Y-57379059D01*
X187282031Y-57473569D01*
X186735519Y-58130992D01*
X181693202Y-63979004D01*
X177271890Y-69083486D01*
X177237702Y-69105901D01*
X177183412Y-69185636D01*
X177165285Y-69206564D01*
X177145525Y-69241280D01*
X177084332Y-69331154D01*
X177078551Y-69358948D01*
X177064509Y-69383618D01*
X177050979Y-69491502D01*
X177028837Y-69597953D01*
X177034132Y-69625841D01*
X177030599Y-69654009D01*
X177059386Y-69758861D01*
X177079666Y-69865679D01*
X177095231Y-69889420D01*
X177102747Y-69916795D01*
X177169462Y-70002643D01*
X177191367Y-70036053D01*
X177210776Y-70055804D01*
X177269966Y-70131968D01*
X177305494Y-70152190D01*
X178509429Y-71377330D01*
X179287117Y-72255478D01*
X179520346Y-72594643D01*
X179677585Y-72896415D01*
X179767126Y-73162235D01*
X179804463Y-73414038D01*
X179796510Y-73681359D01*
X179752220Y-73921512D01*
X179591689Y-74217314D01*
X179088250Y-74961088D01*
X177446085Y-77158012D01*
X175862237Y-79226248D01*
X175851168Y-79236882D01*
X175821272Y-79279741D01*
X175789529Y-79321192D01*
X175782759Y-79334953D01*
X175216077Y-80147351D01*
X175213783Y-80148843D01*
X175138254Y-80258919D01*
X175101098Y-80312185D01*
X175100029Y-80314627D01*
X175059603Y-80373543D01*
X175045904Y-80438234D01*
X175019382Y-80498804D01*
X175017951Y-80570240D01*
X175003149Y-80640141D01*
X175015248Y-80705146D01*
X175013924Y-80771258D01*
X175039940Y-80837805D01*
X175040428Y-80840426D01*
X175064541Y-80900732D01*
X175113147Y-81025062D01*
X175115043Y-81027035D01*
X175330976Y-81567079D01*
X175334632Y-81582664D01*
X175355977Y-81629605D01*
X175375124Y-81677492D01*
X175383854Y-81690912D01*
X176044345Y-83143459D01*
X176881571Y-85080927D01*
X177546073Y-86858432D01*
X178021212Y-88258185D01*
X177966839Y-88269000D01*
X168006578Y-88269000D01*
X167974656Y-88237078D01*
X167924655Y-88116365D01*
X167661635Y-87853345D01*
X167317983Y-87711000D01*
X166946017Y-87711000D01*
X166602365Y-87853345D01*
X166339345Y-88116365D01*
X166197000Y-88460017D01*
X166197000Y-88831983D01*
X166339345Y-89175635D01*
X166602365Y-89438655D01*
X166723078Y-89488656D01*
X166952575Y-89718153D01*
X167001951Y-89792049D01*
X167190449Y-89918000D01*
X166918445Y-89918000D01*
X166908655Y-89894365D01*
X166645635Y-89631345D01*
X166301983Y-89489000D01*
X165930017Y-89489000D01*
X165586365Y-89631345D01*
X165323345Y-89894365D01*
X165181000Y-90238017D01*
X165181000Y-90609983D01*
X165323345Y-90953635D01*
X165586365Y-91216655D01*
X165930017Y-91359000D01*
X166021226Y-91359000D01*
X166073463Y-91393904D01*
X166295148Y-91438000D01*
X166295152Y-91438000D01*
X166369999Y-91452888D01*
X166444846Y-91438000D01*
X166918975Y-91438000D01*
X166756673Y-91600301D01*
X166660000Y-91833690D01*
X166660000Y-92424250D01*
X166818750Y-92583000D01*
X167740500Y-92583000D01*
X167740500Y-92563000D01*
X167994500Y-92563000D01*
X167994500Y-92583000D01*
X168014500Y-92583000D01*
X168014500Y-92837000D01*
X167994500Y-92837000D01*
X167994500Y-93936250D01*
X168153250Y-94095000D01*
X168566309Y-94095000D01*
X168799698Y-93998327D01*
X168905378Y-93892647D01*
X168922191Y-93917809D01*
X169041000Y-93997195D01*
X169041000Y-94181306D01*
X168991000Y-94302017D01*
X168991000Y-94673983D01*
X169133345Y-95017635D01*
X169396365Y-95280655D01*
X169740017Y-95423000D01*
X170111983Y-95423000D01*
X170455635Y-95280655D01*
X170718655Y-95017635D01*
X170861000Y-94673983D01*
X170861000Y-94302017D01*
X170811000Y-94181306D01*
X170811000Y-94032609D01*
X170982809Y-93917809D01*
X171123157Y-93707765D01*
X171145587Y-93595000D01*
X173856723Y-93595000D01*
X173972191Y-93767809D01*
X174182235Y-93908157D01*
X174430000Y-93957440D01*
X175330000Y-93957440D01*
X175577765Y-93908157D01*
X175787809Y-93767809D01*
X175928157Y-93557765D01*
X175977440Y-93310000D01*
X175977440Y-92110000D01*
X177082560Y-92110000D01*
X177082560Y-93310000D01*
X177131843Y-93557765D01*
X177272191Y-93767809D01*
X177482235Y-93908157D01*
X177730000Y-93957440D01*
X178630000Y-93957440D01*
X178877765Y-93908157D01*
X179087809Y-93767809D01*
X179203277Y-93595000D01*
X181233422Y-93595000D01*
X182322560Y-94684139D01*
X182322560Y-94780000D01*
X182371843Y-95027765D01*
X182512191Y-95237809D01*
X182722235Y-95378157D01*
X182970000Y-95427440D01*
X184408097Y-95427440D01*
X184560182Y-95794603D01*
X184865397Y-96099818D01*
X185264180Y-96265000D01*
X185695820Y-96265000D01*
X186094603Y-96099818D01*
X186399818Y-95794603D01*
X186565000Y-95395820D01*
X186565000Y-94964180D01*
X186399818Y-94565397D01*
X186094603Y-94260182D01*
X185695820Y-94095000D01*
X185264180Y-94095000D01*
X185117440Y-94155782D01*
X185117440Y-94080000D01*
X185114202Y-94063720D01*
X185227809Y-93987809D01*
X185368157Y-93777765D01*
X185417440Y-93530000D01*
X185417440Y-92530000D01*
X185368157Y-92282235D01*
X185227809Y-92072191D01*
X185017765Y-91931843D01*
X184770000Y-91882560D01*
X183970000Y-91882560D01*
X183722235Y-91931843D01*
X183512191Y-92072191D01*
X183371843Y-92282235D01*
X183322560Y-92530000D01*
X183322560Y-93180981D01*
X182287425Y-92145847D01*
X182238049Y-92071951D01*
X181945310Y-91876348D01*
X181687165Y-91825000D01*
X181687161Y-91825000D01*
X181600000Y-91807663D01*
X181512839Y-91825000D01*
X179203277Y-91825000D01*
X179087809Y-91652191D01*
X178877765Y-91511843D01*
X178630000Y-91462560D01*
X177730000Y-91462560D01*
X177482235Y-91511843D01*
X177272191Y-91652191D01*
X177131843Y-91862235D01*
X177082560Y-92110000D01*
X175977440Y-92110000D01*
X175928157Y-91862235D01*
X175787809Y-91652191D01*
X175577765Y-91511843D01*
X175330000Y-91462560D01*
X174430000Y-91462560D01*
X174182235Y-91511843D01*
X173972191Y-91652191D01*
X173856723Y-91825000D01*
X171145587Y-91825000D01*
X171123157Y-91712235D01*
X170982809Y-91502191D01*
X170886741Y-91438000D01*
X179015710Y-91438000D01*
X179048365Y-91470655D01*
X179392017Y-91613000D01*
X179763983Y-91613000D01*
X180107635Y-91470655D01*
X180370655Y-91207635D01*
X180513000Y-90863983D01*
X180513000Y-90492017D01*
X180370655Y-90148365D01*
X180107635Y-89885345D01*
X179763983Y-89743000D01*
X179497000Y-89743000D01*
X179497000Y-89476017D01*
X179357442Y-89139094D01*
X182035853Y-89492633D01*
X182037192Y-89493082D01*
X182102636Y-89501448D01*
X182168212Y-89510104D01*
X182169624Y-89510012D01*
X184568132Y-89816632D01*
X185997151Y-90085667D01*
X186386786Y-90211276D01*
X186641923Y-90338470D01*
X186827448Y-90480016D01*
X187022541Y-90687191D01*
X187361533Y-91090408D01*
X187361533Y-92021224D01*
X187227765Y-91931843D01*
X186980000Y-91882560D01*
X186180000Y-91882560D01*
X185932235Y-91931843D01*
X185722191Y-92072191D01*
X185581843Y-92282235D01*
X185532560Y-92530000D01*
X185532560Y-93530000D01*
X185581843Y-93777765D01*
X185722191Y-93987809D01*
X185932235Y-94128157D01*
X186180000Y-94177440D01*
X186980000Y-94177440D01*
X187227765Y-94128157D01*
X187361532Y-94038776D01*
X187361532Y-96906439D01*
X187346682Y-99311301D01*
X187227765Y-99231843D01*
X186980000Y-99182560D01*
X186180000Y-99182560D01*
X185932235Y-99231843D01*
X185722191Y-99372191D01*
X185581843Y-99582235D01*
X185532560Y-99830000D01*
X185532560Y-100830000D01*
X185581843Y-101077765D01*
X185722191Y-101287809D01*
X185932235Y-101428157D01*
X186180000Y-101477440D01*
X186980000Y-101477440D01*
X187227765Y-101428157D01*
X187315192Y-101369740D01*
X187288481Y-102033564D01*
X187202571Y-102843406D01*
X187087537Y-103298176D01*
X186973685Y-103497676D01*
X186819788Y-103628670D01*
X186547352Y-103772646D01*
X186122958Y-103898677D01*
X185245894Y-104076935D01*
X182734331Y-104454481D01*
X181586049Y-104584465D01*
X180264786Y-104682841D01*
X178370709Y-104754002D01*
X175541907Y-104800963D01*
X175444737Y-104791600D01*
X175341858Y-104823045D01*
X175236714Y-104845780D01*
X175212406Y-104862612D01*
X175184129Y-104871255D01*
X175101116Y-104939676D01*
X175012674Y-105000918D01*
X174996657Y-105025773D01*
X174973841Y-105044578D01*
X174923330Y-105139559D01*
X174865058Y-105229984D01*
X174859772Y-105259074D01*
X174845889Y-105285180D01*
X174835571Y-105392258D01*
X174816338Y-105498101D01*
X174822587Y-105527001D01*
X174819751Y-105556432D01*
X174851196Y-105659311D01*
X174873931Y-105764455D01*
X174881787Y-105775800D01*
X174750760Y-106100252D01*
X173983816Y-107680103D01*
X172921940Y-109775231D01*
X172889722Y-109811713D01*
X172860895Y-109895676D01*
X172851852Y-109913518D01*
X172839025Y-109959374D01*
X172801231Y-110069455D01*
X172802503Y-110089944D01*
X172796973Y-110109713D01*
X172810901Y-110225275D01*
X172818111Y-110341441D01*
X172827125Y-110359882D01*
X172829582Y-110380263D01*
X172886670Y-110481691D01*
X172907581Y-110524468D01*
X172919702Y-110540378D01*
X172963245Y-110617741D01*
X173001533Y-110647792D01*
X173691368Y-111553292D01*
X173693385Y-111557287D01*
X173732208Y-111606900D01*
X173770417Y-111657055D01*
X173773774Y-111660020D01*
X176323071Y-114917877D01*
X177583686Y-116625842D01*
X177920408Y-117161089D01*
X177888450Y-117206594D01*
X177164484Y-118049314D01*
X175940612Y-119344268D01*
X174241632Y-121061655D01*
X172031995Y-123245509D01*
X170823469Y-124365092D01*
X170542731Y-124577584D01*
X169461112Y-123799753D01*
X167139385Y-122005039D01*
X164287756Y-119757000D01*
X168095306Y-119757000D01*
X168216017Y-119807000D01*
X168587983Y-119807000D01*
X168931635Y-119664655D01*
X169194655Y-119401635D01*
X169337000Y-119057983D01*
X169337000Y-118686017D01*
X169194655Y-118342365D01*
X168931635Y-118079345D01*
X168587983Y-117937000D01*
X168216017Y-117937000D01*
X168095306Y-117987000D01*
X161853025Y-117987000D01*
X162018327Y-117821699D01*
X162115000Y-117588310D01*
X162115000Y-117247750D01*
X161956250Y-117089000D01*
X160757000Y-117089000D01*
X160757000Y-117109000D01*
X160503000Y-117109000D01*
X160503000Y-117089000D01*
X159303750Y-117089000D01*
X159145000Y-117247750D01*
X159145000Y-117588310D01*
X159241673Y-117821699D01*
X159406975Y-117987000D01*
X155553025Y-117987000D01*
X155718327Y-117821699D01*
X155815000Y-117588310D01*
X155815000Y-117247750D01*
X155656250Y-117089000D01*
X154457000Y-117089000D01*
X154457000Y-117109000D01*
X154203000Y-117109000D01*
X154203000Y-117089000D01*
X153003750Y-117089000D01*
X152845000Y-117247750D01*
X152845000Y-117588310D01*
X152941673Y-117821699D01*
X153106975Y-117987000D01*
X152741161Y-117987000D01*
X152654000Y-117969663D01*
X152566839Y-117987000D01*
X152566835Y-117987000D01*
X152308690Y-118038348D01*
X152089845Y-118184576D01*
X152089844Y-118184577D01*
X152015951Y-118233951D01*
X151966577Y-118307844D01*
X150467077Y-119807344D01*
X150346365Y-119857345D01*
X150083345Y-120120365D01*
X149941000Y-120464017D01*
X149941000Y-120835983D01*
X150083345Y-121179635D01*
X150346365Y-121442655D01*
X150690017Y-121585000D01*
X151061983Y-121585000D01*
X151405635Y-121442655D01*
X151668655Y-121179635D01*
X151718656Y-121058923D01*
X153020579Y-119757000D01*
X162757782Y-119757000D01*
X160966078Y-120665514D01*
X159894047Y-121174735D01*
X158674064Y-121699534D01*
X157457697Y-122177567D01*
X156392514Y-122548079D01*
X154771461Y-123080171D01*
X154754932Y-123082998D01*
X154707460Y-123101179D01*
X154659192Y-123117022D01*
X154644595Y-123125254D01*
X153922612Y-123401756D01*
X153800525Y-123445923D01*
X153744967Y-123496634D01*
X153681319Y-123536724D01*
X153645298Y-123587609D01*
X153599253Y-123629637D01*
X153567332Y-123697747D01*
X153523868Y-123759145D01*
X153495111Y-123885778D01*
X153414120Y-124213995D01*
X153404395Y-124240016D01*
X153397993Y-124279351D01*
X153388450Y-124318026D01*
X153387185Y-124345765D01*
X153251601Y-125178870D01*
X153248413Y-125188204D01*
X153240780Y-125245359D01*
X153231513Y-125302301D01*
X153231859Y-125312163D01*
X152843634Y-128219167D01*
X152720310Y-129094245D01*
X152458983Y-128986000D01*
X152087017Y-128986000D01*
X151743365Y-129128345D01*
X151480345Y-129391365D01*
X151430344Y-129512078D01*
X151077421Y-129865001D01*
X148980000Y-129865001D01*
X148980000Y-129685750D01*
X148821250Y-129527000D01*
X148072000Y-129527000D01*
X148072000Y-129547000D01*
X147818000Y-129547000D01*
X147818000Y-129527000D01*
X147798000Y-129527000D01*
X147798000Y-129273000D01*
X147818000Y-129273000D01*
X147818000Y-128123750D01*
X148072000Y-128123750D01*
X148072000Y-129273000D01*
X148821250Y-129273000D01*
X148980000Y-129114250D01*
X148980000Y-128473690D01*
X148950965Y-128403593D01*
X148987191Y-128457809D01*
X149197235Y-128598157D01*
X149445000Y-128647440D01*
X151545000Y-128647440D01*
X151792765Y-128598157D01*
X152002809Y-128457809D01*
X152143157Y-128247765D01*
X152192440Y-128000000D01*
X152192440Y-125000000D01*
X152143157Y-124752235D01*
X152002809Y-124542191D01*
X151792765Y-124401843D01*
X151545000Y-124352560D01*
X149445000Y-124352560D01*
X149197235Y-124401843D01*
X148987191Y-124542191D01*
X148846843Y-124752235D01*
X148797560Y-125000000D01*
X148797560Y-128000000D01*
X148835931Y-128192905D01*
X148704698Y-128061673D01*
X148471309Y-127965000D01*
X148230750Y-127965000D01*
X148072000Y-128123750D01*
X147818000Y-128123750D01*
X147659250Y-127965000D01*
X147418691Y-127965000D01*
X147333968Y-128000093D01*
X147095000Y-127952560D01*
X146295000Y-127952560D01*
X146047235Y-128001843D01*
X145837191Y-128142191D01*
X145804393Y-128191276D01*
X145842440Y-128000000D01*
X145842440Y-125000000D01*
X145793157Y-124752235D01*
X145652809Y-124542191D01*
X145442765Y-124401843D01*
X145195000Y-124352560D01*
X143095000Y-124352560D01*
X142847235Y-124401843D01*
X142637191Y-124542191D01*
X142496843Y-124752235D01*
X142447560Y-125000000D01*
X142447560Y-128000000D01*
X142496843Y-128247765D01*
X142637191Y-128457809D01*
X142847235Y-128598157D01*
X143095000Y-128647440D01*
X145195000Y-128647440D01*
X145442765Y-128598157D01*
X145652809Y-128457809D01*
X145685607Y-128408724D01*
X145647560Y-128600000D01*
X145647560Y-130200000D01*
X145696843Y-130447765D01*
X145809345Y-130616134D01*
X145792663Y-130700000D01*
X145861348Y-131045309D01*
X146007576Y-131264154D01*
X146007578Y-131264156D01*
X146056952Y-131338049D01*
X146086924Y-131358075D01*
X146106952Y-131388050D01*
X146399691Y-131583653D01*
X146657836Y-131635001D01*
X146657841Y-131635001D01*
X146745000Y-131652338D01*
X146832160Y-131635001D01*
X151356838Y-131635001D01*
X151443999Y-131652338D01*
X151531160Y-131635001D01*
X151531164Y-131635001D01*
X151789309Y-131583653D01*
X152082048Y-131388050D01*
X152131424Y-131314154D01*
X152452746Y-130992832D01*
X152421305Y-131215930D01*
X152248569Y-132146138D01*
X152240120Y-132174542D01*
X152148479Y-132188697D01*
X150911112Y-132278761D01*
X147161125Y-132359974D01*
X143374258Y-132298445D01*
X142088239Y-132214631D01*
X141847272Y-132181260D01*
X141699334Y-131584491D01*
X141497810Y-130320182D01*
X141240900Y-128328574D01*
X140755066Y-124166412D01*
X140756201Y-124162217D01*
X140739301Y-124031357D01*
X140731952Y-123968396D01*
X140730650Y-123964366D01*
X140721298Y-123891953D01*
X140689159Y-123835968D01*
X140669309Y-123774541D01*
X140621977Y-123718941D01*
X140619870Y-123715271D01*
X140578237Y-123667561D01*
X140541474Y-123624376D01*
X140510640Y-123569718D01*
X140454446Y-123525701D01*
X140452738Y-123523743D01*
X140401363Y-123484120D01*
X140350260Y-123444090D01*
X140347940Y-123442917D01*
X140291418Y-123399324D01*
X140227532Y-123382037D01*
X140084742Y-123309840D01*
X140033519Y-123282184D01*
X140024631Y-123279447D01*
X140016334Y-123275252D01*
X139960270Y-123259628D01*
X139326522Y-123064479D01*
X139321797Y-123062021D01*
X139262097Y-123044640D01*
X139202666Y-123026340D01*
X139197367Y-123025796D01*
X137802170Y-122619612D01*
X136062717Y-121982807D01*
X134263556Y-121222363D01*
X132650126Y-120434953D01*
X131379862Y-119757000D01*
X133259421Y-119757000D01*
X134462576Y-120960156D01*
X134511950Y-121034049D01*
X134585843Y-121083423D01*
X134585844Y-121083424D01*
X134630295Y-121113125D01*
X134804689Y-121229652D01*
X135062834Y-121281000D01*
X135062838Y-121281000D01*
X135149998Y-121298337D01*
X135237158Y-121281000D01*
X147013306Y-121281000D01*
X147134017Y-121331000D01*
X147505983Y-121331000D01*
X147849635Y-121188655D01*
X148112655Y-120925635D01*
X148255000Y-120581983D01*
X148255000Y-120210017D01*
X148112655Y-119866365D01*
X147849635Y-119603345D01*
X147505983Y-119461000D01*
X147134017Y-119461000D01*
X147013306Y-119511000D01*
X135516578Y-119511000D01*
X134313424Y-118307847D01*
X134264048Y-118233951D01*
X134059087Y-118097000D01*
X134137002Y-118097000D01*
X134137002Y-117938252D01*
X134295750Y-118097000D01*
X134986309Y-118097000D01*
X135219698Y-118000327D01*
X135398327Y-117821699D01*
X135495000Y-117588310D01*
X135495000Y-117247750D01*
X138825000Y-117247750D01*
X138825000Y-117588310D01*
X138921673Y-117821699D01*
X139100302Y-118000327D01*
X139333691Y-118097000D01*
X140024250Y-118097000D01*
X140183000Y-117938250D01*
X140183000Y-117089000D01*
X140437000Y-117089000D01*
X140437000Y-117938250D01*
X140595750Y-118097000D01*
X141286309Y-118097000D01*
X141519698Y-118000327D01*
X141698327Y-117821699D01*
X141795000Y-117588310D01*
X141795000Y-117247750D01*
X141636250Y-117089000D01*
X140437000Y-117089000D01*
X140183000Y-117089000D01*
X138983750Y-117089000D01*
X138825000Y-117247750D01*
X135495000Y-117247750D01*
X135336250Y-117089000D01*
X134137000Y-117089000D01*
X134137000Y-117109000D01*
X133883000Y-117109000D01*
X133883000Y-117089000D01*
X132683750Y-117089000D01*
X132525000Y-117247750D01*
X132525000Y-117588310D01*
X132621673Y-117821699D01*
X132786975Y-117987000D01*
X130354694Y-117987000D01*
X130233983Y-117937000D01*
X129862017Y-117937000D01*
X129518365Y-118079345D01*
X129255345Y-118342365D01*
X129113000Y-118686017D01*
X129113000Y-119057983D01*
X129255345Y-119401635D01*
X129518365Y-119664655D01*
X129759459Y-119764519D01*
X126838583Y-122078791D01*
X124461180Y-123916786D01*
X123546185Y-124558477D01*
X123016048Y-124148049D01*
X121780187Y-122995902D01*
X119803194Y-121049630D01*
X118109940Y-119337944D01*
X116889680Y-118046584D01*
X116167841Y-117206020D01*
X116136372Y-117161177D01*
X116473183Y-116625781D01*
X116687288Y-116335690D01*
X132525000Y-116335690D01*
X132525000Y-116676250D01*
X132683750Y-116835000D01*
X133883000Y-116835000D01*
X133883000Y-115985750D01*
X134137000Y-115985750D01*
X134137000Y-116835000D01*
X135336250Y-116835000D01*
X135495000Y-116676250D01*
X135495000Y-116335690D01*
X138825000Y-116335690D01*
X138825000Y-116676250D01*
X138983750Y-116835000D01*
X140183000Y-116835000D01*
X140183000Y-115985750D01*
X140437000Y-115985750D01*
X140437000Y-116835000D01*
X141636250Y-116835000D01*
X141795000Y-116676250D01*
X141795000Y-116335690D01*
X141698327Y-116102301D01*
X141519698Y-115923673D01*
X141286309Y-115827000D01*
X140595750Y-115827000D01*
X140437000Y-115985750D01*
X140183000Y-115985750D01*
X140024250Y-115827000D01*
X139333691Y-115827000D01*
X139100302Y-115923673D01*
X138921673Y-116102301D01*
X138825000Y-116335690D01*
X135495000Y-116335690D01*
X135398327Y-116102301D01*
X135219698Y-115923673D01*
X134986309Y-115827000D01*
X134295750Y-115827000D01*
X134137000Y-115985750D01*
X133883000Y-115985750D01*
X133724250Y-115827000D01*
X133033691Y-115827000D01*
X132800302Y-115923673D01*
X132621673Y-116102301D01*
X132525000Y-116335690D01*
X116687288Y-116335690D01*
X117733774Y-114917807D01*
X120283639Y-111659917D01*
X120287106Y-111656853D01*
X120325167Y-111606858D01*
X120363942Y-111557316D01*
X120366031Y-111553181D01*
X121055375Y-110647688D01*
X121093569Y-110617711D01*
X121127167Y-110558017D01*
X127335000Y-110558017D01*
X127335000Y-110929983D01*
X127477345Y-111273635D01*
X127740365Y-111536655D01*
X128084017Y-111679000D01*
X128455983Y-111679000D01*
X128799635Y-111536655D01*
X129062655Y-111273635D01*
X129177655Y-110996000D01*
X141078345Y-110996000D01*
X141193345Y-111273635D01*
X141456365Y-111536655D01*
X141800017Y-111679000D01*
X142008198Y-111679000D01*
X141537002Y-112150197D01*
X141407765Y-112063843D01*
X141160000Y-112014560D01*
X139460000Y-112014560D01*
X139212235Y-112063843D01*
X139002191Y-112204191D01*
X138870018Y-112402000D01*
X135449982Y-112402000D01*
X135317809Y-112204191D01*
X135107765Y-112063843D01*
X134860000Y-112014560D01*
X133160000Y-112014560D01*
X132912235Y-112063843D01*
X132702191Y-112204191D01*
X132561843Y-112414235D01*
X132512560Y-112662000D01*
X132512560Y-113662000D01*
X132561843Y-113909765D01*
X132702191Y-114119809D01*
X132912235Y-114260157D01*
X133160000Y-114309440D01*
X134860000Y-114309440D01*
X135107765Y-114260157D01*
X135317809Y-114119809D01*
X135449982Y-113922000D01*
X138870018Y-113922000D01*
X139002191Y-114119809D01*
X139212235Y-114260157D01*
X139460000Y-114309440D01*
X141160000Y-114309440D01*
X141407765Y-114260157D01*
X141617809Y-114119809D01*
X141749982Y-113922000D01*
X142692560Y-113922000D01*
X142692560Y-114492000D01*
X142741843Y-114739765D01*
X142882191Y-114949809D01*
X143092235Y-115090157D01*
X143340000Y-115139440D01*
X144460000Y-115139440D01*
X144707765Y-115090157D01*
X144780000Y-115041891D01*
X144852235Y-115090157D01*
X145100000Y-115139440D01*
X146220000Y-115139440D01*
X146467765Y-115090157D01*
X146677809Y-114949809D01*
X146818157Y-114739765D01*
X146830642Y-114677000D01*
X147809358Y-114677000D01*
X147821843Y-114739765D01*
X147962191Y-114949809D01*
X148172235Y-115090157D01*
X148420000Y-115139440D01*
X149280307Y-115139440D01*
X149179000Y-115384017D01*
X149179000Y-115755983D01*
X149321345Y-116099635D01*
X149584365Y-116362655D01*
X149928017Y-116505000D01*
X150299983Y-116505000D01*
X150643635Y-116362655D01*
X150676290Y-116330000D01*
X152847357Y-116330000D01*
X152845000Y-116335690D01*
X152845000Y-116676250D01*
X153003750Y-116835000D01*
X154203000Y-116835000D01*
X154203000Y-116815000D01*
X154457000Y-116815000D01*
X154457000Y-116835000D01*
X155656250Y-116835000D01*
X155815000Y-116676250D01*
X155815000Y-116335690D01*
X155812643Y-116330000D01*
X159147357Y-116330000D01*
X159145000Y-116335690D01*
X159145000Y-116676250D01*
X159303750Y-116835000D01*
X160503000Y-116835000D01*
X160503000Y-116815000D01*
X160757000Y-116815000D01*
X160757000Y-116835000D01*
X161956250Y-116835000D01*
X162115000Y-116676250D01*
X162115000Y-116335690D01*
X162112643Y-116330000D01*
X163176345Y-116330000D01*
X163291345Y-116607635D01*
X163554365Y-116870655D01*
X163898017Y-117013000D01*
X164269983Y-117013000D01*
X164613635Y-116870655D01*
X164876655Y-116607635D01*
X165019000Y-116263983D01*
X165019000Y-115892017D01*
X164876655Y-115548365D01*
X164613635Y-115285345D01*
X164269983Y-115143000D01*
X164223802Y-115143000D01*
X164166330Y-115085529D01*
X164123929Y-115022071D01*
X163872537Y-114854096D01*
X163650852Y-114810000D01*
X163650847Y-114810000D01*
X163576000Y-114795112D01*
X163501153Y-114810000D01*
X151851227Y-114810000D01*
X151898157Y-114739765D01*
X151935505Y-114552000D01*
X153625153Y-114552000D01*
X153700000Y-114566888D01*
X153774847Y-114552000D01*
X153774852Y-114552000D01*
X153996537Y-114507904D01*
X154247929Y-114339929D01*
X154268301Y-114309440D01*
X155180000Y-114309440D01*
X155427765Y-114260157D01*
X155637809Y-114119809D01*
X155769982Y-113922000D01*
X159190018Y-113922000D01*
X159322191Y-114119809D01*
X159532235Y-114260157D01*
X159780000Y-114309440D01*
X161480000Y-114309440D01*
X161727765Y-114260157D01*
X161937809Y-114119809D01*
X162078157Y-113909765D01*
X162127440Y-113662000D01*
X162127440Y-112662000D01*
X162078157Y-112414235D01*
X161937809Y-112204191D01*
X161727765Y-112063843D01*
X161480000Y-112014560D01*
X159780000Y-112014560D01*
X159532235Y-112063843D01*
X159322191Y-112204191D01*
X159190018Y-112402000D01*
X155769982Y-112402000D01*
X155637809Y-112204191D01*
X155427765Y-112063843D01*
X155180000Y-112014560D01*
X153480000Y-112014560D01*
X153232235Y-112063843D01*
X153022191Y-112204191D01*
X152881843Y-112414235D01*
X152832560Y-112662000D01*
X152832560Y-113032000D01*
X151935505Y-113032000D01*
X151898157Y-112844235D01*
X151757809Y-112634191D01*
X151547765Y-112493843D01*
X151300000Y-112444560D01*
X150607362Y-112444560D01*
X149692331Y-111529530D01*
X149649929Y-111466071D01*
X149398537Y-111298096D01*
X149176852Y-111254000D01*
X149176847Y-111254000D01*
X149102000Y-111239112D01*
X149027153Y-111254000D01*
X147628290Y-111254000D01*
X147595635Y-111221345D01*
X147251983Y-111079000D01*
X146880017Y-111079000D01*
X146536365Y-111221345D01*
X146431000Y-111326710D01*
X146325635Y-111221345D01*
X145981983Y-111079000D01*
X145610017Y-111079000D01*
X145266365Y-111221345D01*
X145003345Y-111484365D01*
X144861000Y-111828017D01*
X144861000Y-112199983D01*
X144911000Y-112320694D01*
X144911000Y-112482154D01*
X144852235Y-112493843D01*
X144780000Y-112542109D01*
X144707765Y-112493843D01*
X144460000Y-112444560D01*
X143639730Y-112444560D01*
X143794655Y-112289635D01*
X143937000Y-111945983D01*
X143937000Y-111574017D01*
X143794655Y-111230365D01*
X143531635Y-110967345D01*
X143187983Y-110825000D01*
X142921000Y-110825000D01*
X142921000Y-110558017D01*
X142778655Y-110214365D01*
X142515635Y-109951345D01*
X142171983Y-109809000D01*
X142125802Y-109809000D01*
X142068330Y-109751529D01*
X142025929Y-109688071D01*
X141997413Y-109669017D01*
X151655500Y-109669017D01*
X151655500Y-110040983D01*
X151797845Y-110384635D01*
X152060865Y-110647655D01*
X152404517Y-110790000D01*
X152776483Y-110790000D01*
X153120135Y-110647655D01*
X153218290Y-110549500D01*
X165393839Y-110549500D01*
X165481000Y-110566837D01*
X165568161Y-110549500D01*
X165568165Y-110549500D01*
X165826310Y-110498152D01*
X166119049Y-110302549D01*
X166168425Y-110228653D01*
X166397922Y-109999156D01*
X166518635Y-109949155D01*
X166781655Y-109686135D01*
X166924000Y-109342483D01*
X166924000Y-108970517D01*
X166781655Y-108626865D01*
X166518635Y-108363845D01*
X166174983Y-108221500D01*
X165803017Y-108221500D01*
X165459365Y-108363845D01*
X165196345Y-108626865D01*
X165146344Y-108747578D01*
X165114422Y-108779500D01*
X152868161Y-108779500D01*
X152781000Y-108762163D01*
X152693839Y-108779500D01*
X152693835Y-108779500D01*
X152435690Y-108830848D01*
X152142951Y-109026451D01*
X152141202Y-109029068D01*
X152060865Y-109062345D01*
X151797845Y-109325365D01*
X151655500Y-109669017D01*
X141997413Y-109669017D01*
X141774537Y-109520096D01*
X141552852Y-109476000D01*
X141552847Y-109476000D01*
X141478000Y-109461112D01*
X141403153Y-109476000D01*
X128852846Y-109476000D01*
X128777999Y-109461112D01*
X128703152Y-109476000D01*
X128703148Y-109476000D01*
X128481463Y-109520096D01*
X128481461Y-109520097D01*
X128481462Y-109520097D01*
X128293526Y-109645671D01*
X128293524Y-109645673D01*
X128230071Y-109688071D01*
X128187672Y-109751525D01*
X128130198Y-109809000D01*
X128084017Y-109809000D01*
X127740365Y-109951345D01*
X127477345Y-110214365D01*
X127335000Y-110558017D01*
X121127167Y-110558017D01*
X121137169Y-110540248D01*
X121149356Y-110524239D01*
X121170203Y-110481556D01*
X121227232Y-110380233D01*
X121229703Y-110359733D01*
X121238764Y-110341181D01*
X121245927Y-110225125D01*
X121259841Y-110109681D01*
X121254279Y-110089797D01*
X121255551Y-110069189D01*
X121217759Y-109959234D01*
X121204962Y-109913486D01*
X121195866Y-109895539D01*
X121166973Y-109811477D01*
X121134821Y-109775095D01*
X120073067Y-107680213D01*
X119306404Y-106100384D01*
X119252762Y-105967442D01*
X119276744Y-105952146D01*
X119315247Y-105897095D01*
X119363971Y-105850834D01*
X119392588Y-105786515D01*
X119432929Y-105728835D01*
X119447434Y-105663240D01*
X119474745Y-105601855D01*
X119476570Y-105531484D01*
X119491768Y-105462753D01*
X119480067Y-105396600D01*
X119481808Y-105329438D01*
X119456563Y-105263724D01*
X119444303Y-105194411D01*
X119408178Y-105137773D01*
X119384084Y-105075054D01*
X119335613Y-105024003D01*
X119297761Y-104964657D01*
X119242709Y-104926153D01*
X119196449Y-104877431D01*
X119132133Y-104848816D01*
X119074450Y-104808472D01*
X119008853Y-104793966D01*
X118947470Y-104766656D01*
X118877102Y-104764832D01*
X118875530Y-104764484D01*
X118809435Y-104763077D01*
X118743813Y-104761376D01*
X118742237Y-104761647D01*
X113540522Y-104650940D01*
X112135268Y-104563964D01*
X111069344Y-104450699D01*
X108960960Y-104172240D01*
X107843563Y-103960884D01*
X107823700Y-103954017D01*
X141305000Y-103954017D01*
X141305000Y-104325983D01*
X141447345Y-104669635D01*
X141710365Y-104932655D01*
X142054017Y-105075000D01*
X142425983Y-105075000D01*
X142715454Y-104955097D01*
X142741843Y-105087765D01*
X142882191Y-105297809D01*
X143092235Y-105438157D01*
X143340000Y-105487440D01*
X144460000Y-105487440D01*
X144707765Y-105438157D01*
X144780000Y-105389891D01*
X144850001Y-105436664D01*
X144850001Y-106023835D01*
X144832663Y-106111000D01*
X144861000Y-106253462D01*
X144861000Y-106357983D01*
X144900997Y-106454545D01*
X144901348Y-106456309D01*
X144902347Y-106457805D01*
X145003345Y-106701635D01*
X145266365Y-106964655D01*
X145387078Y-107014656D01*
X145616575Y-107244153D01*
X145665951Y-107318049D01*
X145958690Y-107513652D01*
X146216835Y-107565000D01*
X146216839Y-107565000D01*
X146303999Y-107582337D01*
X146391159Y-107565000D01*
X156915839Y-107565000D01*
X157003000Y-107582337D01*
X157090161Y-107565000D01*
X157090165Y-107565000D01*
X157348310Y-107513652D01*
X157641049Y-107318049D01*
X157690425Y-107244153D01*
X159012560Y-105922018D01*
X159012560Y-105923000D01*
X159061843Y-106170765D01*
X159202191Y-106380809D01*
X159412235Y-106521157D01*
X159660000Y-106570440D01*
X160720000Y-106570440D01*
X160967765Y-106521157D01*
X161177809Y-106380809D01*
X161290000Y-106212905D01*
X161402191Y-106380809D01*
X161491086Y-106440207D01*
X161505000Y-106510161D01*
X161505000Y-106510165D01*
X161516990Y-106570440D01*
X161556348Y-106768309D01*
X161702576Y-106987154D01*
X161702578Y-106987156D01*
X161751952Y-107061049D01*
X161825845Y-107110423D01*
X162213575Y-107498153D01*
X162262951Y-107572049D01*
X162555690Y-107767652D01*
X162813835Y-107819000D01*
X162813839Y-107819000D01*
X162900999Y-107836337D01*
X162988159Y-107819000D01*
X166674413Y-107819000D01*
X166696843Y-107931765D01*
X166837191Y-108141809D01*
X167047235Y-108282157D01*
X167295000Y-108331440D01*
X168440000Y-108331440D01*
X168687765Y-108282157D01*
X168897809Y-108141809D01*
X168910000Y-108123564D01*
X168922191Y-108141809D01*
X169132235Y-108282157D01*
X169380000Y-108331440D01*
X170525000Y-108331440D01*
X170772765Y-108282157D01*
X170982809Y-108141809D01*
X171123157Y-107931765D01*
X171172440Y-107684000D01*
X171172440Y-106184000D01*
X171123157Y-105936235D01*
X170982809Y-105726191D01*
X170844900Y-105634043D01*
X170837500Y-105596839D01*
X170837500Y-104890717D01*
X170861000Y-104833983D01*
X170861000Y-104462017D01*
X170718655Y-104118365D01*
X170455635Y-103855345D01*
X170111983Y-103713000D01*
X169740017Y-103713000D01*
X169396365Y-103855345D01*
X169385894Y-103865816D01*
X168653925Y-103133847D01*
X168604549Y-103059951D01*
X168311810Y-102864348D01*
X168053665Y-102813000D01*
X168053661Y-102813000D01*
X167966500Y-102795663D01*
X167879339Y-102813000D01*
X163224871Y-102813000D01*
X163167765Y-102774843D01*
X162920000Y-102725560D01*
X161860000Y-102725560D01*
X161612235Y-102774843D01*
X161402191Y-102915191D01*
X161290000Y-103083095D01*
X161225590Y-102986700D01*
X161447655Y-102764635D01*
X161590000Y-102420983D01*
X161590000Y-102049017D01*
X161447655Y-101705365D01*
X161410307Y-101668017D01*
X172801000Y-101668017D01*
X172801000Y-102039983D01*
X172943345Y-102383635D01*
X173206365Y-102646655D01*
X173550017Y-102789000D01*
X173921983Y-102789000D01*
X174042694Y-102739000D01*
X178982839Y-102739000D01*
X179070000Y-102756337D01*
X179157161Y-102739000D01*
X179157165Y-102739000D01*
X179415310Y-102687652D01*
X179708049Y-102492049D01*
X179757425Y-102418153D01*
X180240923Y-101934655D01*
X180361635Y-101884655D01*
X180624655Y-101621635D01*
X180767000Y-101277983D01*
X180767000Y-100906017D01*
X180624655Y-100562365D01*
X180361635Y-100299345D01*
X180017983Y-100157000D01*
X179646017Y-100157000D01*
X179302365Y-100299345D01*
X179039345Y-100562365D01*
X178989345Y-100683077D01*
X178703422Y-100969000D01*
X174042694Y-100969000D01*
X173921983Y-100919000D01*
X173550017Y-100919000D01*
X173206365Y-101061345D01*
X172943345Y-101324365D01*
X172801000Y-101668017D01*
X161410307Y-101668017D01*
X161184635Y-101442345D01*
X160840983Y-101300000D01*
X160469017Y-101300000D01*
X160125365Y-101442345D01*
X159862345Y-101705365D01*
X159812344Y-101826078D01*
X159625845Y-102012577D01*
X159551952Y-102061951D01*
X159502578Y-102135844D01*
X159502576Y-102135846D01*
X159356348Y-102354691D01*
X159287663Y-102700000D01*
X159305001Y-102787165D01*
X159305001Y-102846495D01*
X159202191Y-102915191D01*
X159061843Y-103125235D01*
X159012560Y-103373000D01*
X159012560Y-103418861D01*
X156636422Y-105795000D01*
X146670578Y-105795000D01*
X146638656Y-105763078D01*
X146620000Y-105718039D01*
X146620000Y-105336436D01*
X146677809Y-105297809D01*
X146818157Y-105087765D01*
X146867440Y-104840000D01*
X146867440Y-103440000D01*
X146818157Y-103192235D01*
X146771227Y-103122000D01*
X147513198Y-103122000D01*
X147745672Y-103354475D01*
X147779501Y-103405104D01*
X147772560Y-103440000D01*
X147772560Y-104840000D01*
X147821843Y-105087765D01*
X147962191Y-105297809D01*
X148172235Y-105438157D01*
X148420000Y-105487440D01*
X149540000Y-105487440D01*
X149787765Y-105438157D01*
X149855492Y-105392903D01*
X150053691Y-105475000D01*
X150454250Y-105475000D01*
X150613000Y-105316250D01*
X150613000Y-104267000D01*
X150867000Y-104267000D01*
X150867000Y-105316250D01*
X151025750Y-105475000D01*
X151426309Y-105475000D01*
X151659698Y-105378327D01*
X151838327Y-105199699D01*
X151935000Y-104966310D01*
X151935000Y-104425750D01*
X151776250Y-104267000D01*
X150867000Y-104267000D01*
X150613000Y-104267000D01*
X150593000Y-104267000D01*
X150593000Y-104013000D01*
X150613000Y-104013000D01*
X150613000Y-102963750D01*
X150867000Y-102963750D01*
X150867000Y-104013000D01*
X151776250Y-104013000D01*
X151935000Y-103854250D01*
X151935000Y-103313690D01*
X151838327Y-103080301D01*
X151659698Y-102901673D01*
X151426309Y-102805000D01*
X151025750Y-102805000D01*
X150867000Y-102963750D01*
X150613000Y-102963750D01*
X150454250Y-102805000D01*
X150053691Y-102805000D01*
X149855492Y-102887097D01*
X149787765Y-102841843D01*
X149642045Y-102812858D01*
X149527929Y-102642071D01*
X149464473Y-102599671D01*
X149250331Y-102385529D01*
X149207929Y-102322071D01*
X148956537Y-102154096D01*
X148734852Y-102110000D01*
X148734847Y-102110000D01*
X148660000Y-102095112D01*
X148639910Y-102099108D01*
X148418330Y-101877529D01*
X148375929Y-101814071D01*
X148124537Y-101646096D01*
X147902852Y-101602000D01*
X147902847Y-101602000D01*
X147828000Y-101587112D01*
X147753153Y-101602000D01*
X143310290Y-101602000D01*
X143277635Y-101569345D01*
X142933983Y-101427000D01*
X142562017Y-101427000D01*
X142218365Y-101569345D01*
X141955345Y-101832365D01*
X141813000Y-102176017D01*
X141813000Y-102547983D01*
X141955345Y-102891635D01*
X142218365Y-103154655D01*
X142339909Y-103205000D01*
X142054017Y-103205000D01*
X141710365Y-103347345D01*
X141447345Y-103610365D01*
X141305000Y-103954017D01*
X107823700Y-103954017D01*
X107589320Y-103872991D01*
X107446438Y-103793163D01*
X107199334Y-103562342D01*
X107481000Y-103643000D01*
X108331000Y-103643000D01*
X108331000Y-102235000D01*
X108585000Y-102235000D01*
X108585000Y-103643000D01*
X109435000Y-103643000D01*
X110012752Y-103477554D01*
X110483212Y-103103606D01*
X110774756Y-102578086D01*
X110799036Y-102472740D01*
X110678378Y-102235000D01*
X108585000Y-102235000D01*
X108331000Y-102235000D01*
X108311000Y-102235000D01*
X108311000Y-101981000D01*
X108331000Y-101981000D01*
X108331000Y-101961000D01*
X108585000Y-101961000D01*
X108585000Y-101981000D01*
X110678378Y-101981000D01*
X110799036Y-101743260D01*
X110774756Y-101637914D01*
X110650545Y-101414017D01*
X120477000Y-101414017D01*
X120477000Y-101785983D01*
X120619345Y-102129635D01*
X120882365Y-102392655D01*
X121226017Y-102535000D01*
X121597983Y-102535000D01*
X121718694Y-102485000D01*
X126947311Y-102485000D01*
X127068017Y-102534998D01*
X127439983Y-102534998D01*
X127783635Y-102392653D01*
X128046655Y-102129633D01*
X128189000Y-101785981D01*
X128189000Y-101414015D01*
X128046655Y-101070363D01*
X127783635Y-100807343D01*
X127439983Y-100664998D01*
X127068017Y-100664998D01*
X126947301Y-100715000D01*
X121718694Y-100715000D01*
X121597983Y-100665000D01*
X121226017Y-100665000D01*
X120882365Y-100807345D01*
X120619345Y-101070365D01*
X120477000Y-101414017D01*
X110650545Y-101414017D01*
X110483212Y-101112394D01*
X110152723Y-100849703D01*
X110414673Y-100674673D01*
X110562790Y-100453000D01*
X159780422Y-100453000D01*
X159812344Y-100484922D01*
X159862345Y-100605635D01*
X160125365Y-100868655D01*
X160469017Y-101011000D01*
X160840983Y-101011000D01*
X161184635Y-100868655D01*
X161447655Y-100605635D01*
X161590000Y-100261983D01*
X161590000Y-99890017D01*
X161447655Y-99546365D01*
X161184635Y-99283345D01*
X161063922Y-99233344D01*
X160908576Y-99077998D01*
X161184625Y-98963655D01*
X161209649Y-98938631D01*
X161249191Y-98997809D01*
X161459235Y-99138157D01*
X161707000Y-99187440D01*
X162852000Y-99187440D01*
X163099765Y-99138157D01*
X163309809Y-98997809D01*
X163326622Y-98972647D01*
X163432302Y-99078327D01*
X163665691Y-99175000D01*
X164078750Y-99175000D01*
X164237500Y-99016250D01*
X164237500Y-97917000D01*
X164217500Y-97917000D01*
X164217500Y-97663000D01*
X164237500Y-97663000D01*
X164237500Y-96563750D01*
X164491500Y-96563750D01*
X164491500Y-97663000D01*
X164511500Y-97663000D01*
X164511500Y-97917000D01*
X164491500Y-97917000D01*
X164491500Y-99016250D01*
X164650250Y-99175000D01*
X165063309Y-99175000D01*
X165296698Y-99078327D01*
X165475327Y-98899699D01*
X165572000Y-98666310D01*
X165572000Y-98153428D01*
X165640845Y-98319635D01*
X165903865Y-98582655D01*
X166247517Y-98725000D01*
X166619483Y-98725000D01*
X166963135Y-98582655D01*
X167226155Y-98319635D01*
X167228075Y-98315000D01*
X182383359Y-98315000D01*
X182371843Y-98332235D01*
X182322560Y-98580000D01*
X182322560Y-99280000D01*
X182371843Y-99527765D01*
X182512191Y-99737809D01*
X182722235Y-99878157D01*
X182970000Y-99927440D01*
X183322560Y-99927440D01*
X183322560Y-100830000D01*
X183371843Y-101077765D01*
X183512191Y-101287809D01*
X183722235Y-101428157D01*
X183970000Y-101477440D01*
X184770000Y-101477440D01*
X185017765Y-101428157D01*
X185227809Y-101287809D01*
X185368157Y-101077765D01*
X185417440Y-100830000D01*
X185417440Y-99830000D01*
X185368157Y-99582235D01*
X185227809Y-99372191D01*
X185114202Y-99296280D01*
X185117440Y-99280000D01*
X185117440Y-99204218D01*
X185264180Y-99265000D01*
X185695820Y-99265000D01*
X186094603Y-99099818D01*
X186399818Y-98794603D01*
X186565000Y-98395820D01*
X186565000Y-97964180D01*
X186399818Y-97565397D01*
X186094603Y-97260182D01*
X185695820Y-97095000D01*
X185264180Y-97095000D01*
X185117440Y-97155782D01*
X185117440Y-97080000D01*
X185068157Y-96832235D01*
X184927809Y-96622191D01*
X184717765Y-96481843D01*
X184470000Y-96432560D01*
X182970000Y-96432560D01*
X182722235Y-96481843D01*
X182627715Y-96545000D01*
X166880661Y-96545000D01*
X166793500Y-96527663D01*
X166706339Y-96545000D01*
X166706335Y-96545000D01*
X166448190Y-96596348D01*
X166155451Y-96791951D01*
X166106075Y-96865847D01*
X166024578Y-96947344D01*
X165903865Y-96997345D01*
X165640845Y-97260365D01*
X165572000Y-97426572D01*
X165572000Y-96913690D01*
X165475327Y-96680301D01*
X165296698Y-96501673D01*
X165063309Y-96405000D01*
X164650250Y-96405000D01*
X164491500Y-96563750D01*
X164237500Y-96563750D01*
X164078750Y-96405000D01*
X163665691Y-96405000D01*
X163432302Y-96501673D01*
X163326622Y-96607353D01*
X163309809Y-96582191D01*
X163164500Y-96485098D01*
X163164500Y-96382671D01*
X163241000Y-96197983D01*
X163241000Y-95826017D01*
X163098655Y-95482365D01*
X162835635Y-95219345D01*
X162603037Y-95123000D01*
X162835635Y-95026655D01*
X163098655Y-94763635D01*
X163241000Y-94419983D01*
X163241000Y-94048017D01*
X163213674Y-93982045D01*
X163309809Y-93917809D01*
X163326622Y-93892647D01*
X163432302Y-93998327D01*
X163665691Y-94095000D01*
X164078750Y-94095000D01*
X164237500Y-93936250D01*
X164237500Y-92837000D01*
X164491500Y-92837000D01*
X164491500Y-93936250D01*
X164650250Y-94095000D01*
X165063309Y-94095000D01*
X165296698Y-93998327D01*
X165475327Y-93819699D01*
X165572000Y-93586310D01*
X165572000Y-92995750D01*
X166660000Y-92995750D01*
X166660000Y-93586310D01*
X166756673Y-93819699D01*
X166935302Y-93998327D01*
X167168691Y-94095000D01*
X167581750Y-94095000D01*
X167740500Y-93936250D01*
X167740500Y-92837000D01*
X166818750Y-92837000D01*
X166660000Y-92995750D01*
X165572000Y-92995750D01*
X165413250Y-92837000D01*
X164491500Y-92837000D01*
X164237500Y-92837000D01*
X164217500Y-92837000D01*
X164217500Y-92583000D01*
X164237500Y-92583000D01*
X164237500Y-91483750D01*
X164491500Y-91483750D01*
X164491500Y-92583000D01*
X165413250Y-92583000D01*
X165572000Y-92424250D01*
X165572000Y-91833690D01*
X165475327Y-91600301D01*
X165296698Y-91421673D01*
X165063309Y-91325000D01*
X164650250Y-91325000D01*
X164491500Y-91483750D01*
X164237500Y-91483750D01*
X164078750Y-91325000D01*
X163665691Y-91325000D01*
X163432302Y-91421673D01*
X163326622Y-91527353D01*
X163309809Y-91502191D01*
X163164500Y-91405098D01*
X163164500Y-91302671D01*
X163241000Y-91117983D01*
X163241000Y-90746017D01*
X163098655Y-90402365D01*
X162835635Y-90139345D01*
X162491983Y-89997000D01*
X162120017Y-89997000D01*
X161776365Y-90139345D01*
X161513345Y-90402365D01*
X161371000Y-90746017D01*
X161371000Y-91117983D01*
X161394501Y-91174719D01*
X161394501Y-91405097D01*
X161249191Y-91502191D01*
X161108843Y-91712235D01*
X161086413Y-91825000D01*
X156214548Y-91825000D01*
X156087337Y-91740000D01*
X156305337Y-91594337D01*
X156567245Y-91202364D01*
X156659215Y-90740000D01*
X156567245Y-90277636D01*
X156305337Y-89885663D01*
X156087337Y-89740000D01*
X156305337Y-89594337D01*
X156567245Y-89202364D01*
X156659215Y-88740000D01*
X156567245Y-88277636D01*
X156305337Y-87885663D01*
X156087337Y-87740000D01*
X156305337Y-87594337D01*
X156567245Y-87202364D01*
X156659215Y-86740000D01*
X156567245Y-86277636D01*
X156305337Y-85885663D01*
X156087337Y-85740000D01*
X156305337Y-85594337D01*
X156567245Y-85202364D01*
X156659215Y-84740000D01*
X156567245Y-84277636D01*
X156305337Y-83885663D01*
X156087337Y-83740000D01*
X156305337Y-83594337D01*
X156325608Y-83564000D01*
X159214495Y-83564000D01*
X159251843Y-83751765D01*
X159392191Y-83961809D01*
X159602235Y-84102157D01*
X159850000Y-84151440D01*
X160970000Y-84151440D01*
X161217765Y-84102157D01*
X161290000Y-84053891D01*
X161362235Y-84102157D01*
X161385587Y-84106802D01*
X161371000Y-84142017D01*
X161371000Y-84513983D01*
X161513345Y-84857635D01*
X161776365Y-85120655D01*
X162120017Y-85263000D01*
X162491983Y-85263000D01*
X162835635Y-85120655D01*
X163098655Y-84857635D01*
X163241000Y-84513983D01*
X163241000Y-84142017D01*
X163191000Y-84021306D01*
X163191000Y-83957033D01*
X163328157Y-83751765D01*
X163377440Y-83504000D01*
X163377440Y-82104000D01*
X163328157Y-81856235D01*
X163187809Y-81646191D01*
X163130000Y-81607564D01*
X163130000Y-81517158D01*
X163177500Y-81402483D01*
X163177500Y-81030517D01*
X163035155Y-80686865D01*
X162772135Y-80423845D01*
X162428483Y-80281500D01*
X162056517Y-80281500D01*
X161712865Y-80423845D01*
X161449845Y-80686865D01*
X161307500Y-81030517D01*
X161307500Y-81402483D01*
X161352897Y-81512082D01*
X161290000Y-81554109D01*
X161217765Y-81505843D01*
X160970000Y-81456560D01*
X159850000Y-81456560D01*
X159602235Y-81505843D01*
X159392191Y-81646191D01*
X159251843Y-81856235D01*
X159214495Y-82044000D01*
X156411134Y-82044000D01*
X156305337Y-81885663D01*
X156087337Y-81740000D01*
X156305337Y-81594337D01*
X156567245Y-81202364D01*
X156659215Y-80740000D01*
X156567245Y-80277636D01*
X156305337Y-79885663D01*
X156278917Y-79868010D01*
X156458809Y-79747809D01*
X156599157Y-79537765D01*
X156648440Y-79290000D01*
X156648440Y-78190000D01*
X156599157Y-77942235D01*
X156458809Y-77732191D01*
X156248765Y-77591843D01*
X156247152Y-77591522D01*
X156251273Y-77590106D01*
X156295354Y-77564041D01*
X156324845Y-77524219D01*
X156674095Y-76784444D01*
X156685725Y-76741758D01*
X156780975Y-75697183D01*
X156781438Y-75689629D01*
X156836105Y-73945750D01*
X159040000Y-73945750D01*
X159040000Y-74536310D01*
X159136673Y-74769699D01*
X159315302Y-74948327D01*
X159548691Y-75045000D01*
X159961750Y-75045000D01*
X160120500Y-74886250D01*
X160120500Y-73787000D01*
X159198750Y-73787000D01*
X159040000Y-73945750D01*
X156836105Y-73945750D01*
X156844938Y-73663979D01*
X156844865Y-73654138D01*
X156804647Y-72783690D01*
X159040000Y-72783690D01*
X159040000Y-73374250D01*
X159198750Y-73533000D01*
X160120500Y-73533000D01*
X160120500Y-72433750D01*
X159961750Y-72275000D01*
X159548691Y-72275000D01*
X159315302Y-72371673D01*
X159136673Y-72550301D01*
X159040000Y-72783690D01*
X156804647Y-72783690D01*
X156755965Y-71730088D01*
X156754432Y-71715433D01*
X156608382Y-70823258D01*
X156602193Y-70799799D01*
X156329143Y-70060024D01*
X156290958Y-70006149D01*
X156247349Y-69982616D01*
X155298024Y-69690516D01*
X155277022Y-69685956D01*
X154200697Y-69546256D01*
X154195881Y-69545725D01*
X151967031Y-69342525D01*
X151955500Y-69342000D01*
X142176500Y-69342000D01*
X142163542Y-69342663D01*
X139934692Y-69571263D01*
X139932939Y-69571455D01*
X138866260Y-69695849D01*
X138845141Y-69700153D01*
X137886170Y-69982159D01*
X137828967Y-70017548D01*
X137802965Y-70059731D01*
X137517215Y-70828081D01*
X137510561Y-70854147D01*
X137377211Y-71774897D01*
X137376044Y-71787059D01*
X137287144Y-73653959D01*
X137287116Y-73665416D01*
X137376016Y-75748216D01*
X137376516Y-75755291D01*
X137484466Y-76847491D01*
X137490980Y-76876955D01*
X137802130Y-77765955D01*
X137815769Y-77793599D01*
X137850490Y-77828954D01*
X137869467Y-77837017D01*
X137796663Y-77885663D01*
X137733629Y-77980000D01*
X128324290Y-77980000D01*
X128291635Y-77947345D01*
X127947983Y-77805000D01*
X127576017Y-77805000D01*
X127232365Y-77947345D01*
X126969345Y-78210365D01*
X126827000Y-78554017D01*
X126827000Y-78925983D01*
X126969345Y-79269635D01*
X127232365Y-79532655D01*
X127576017Y-79675000D01*
X127947983Y-79675000D01*
X128291635Y-79532655D01*
X128324290Y-79500000D01*
X137733629Y-79500000D01*
X137796663Y-79594337D01*
X138014663Y-79740000D01*
X137796663Y-79885663D01*
X137712247Y-80012000D01*
X128324290Y-80012000D01*
X128291635Y-79979345D01*
X127947983Y-79837000D01*
X127576017Y-79837000D01*
X127232365Y-79979345D01*
X126969345Y-80242365D01*
X126827000Y-80586017D01*
X126827000Y-80957983D01*
X126969345Y-81301635D01*
X127232365Y-81564655D01*
X127576017Y-81707000D01*
X127589000Y-81707000D01*
X127589000Y-81719983D01*
X127731345Y-82063635D01*
X127994365Y-82326655D01*
X128338017Y-82469000D01*
X128709983Y-82469000D01*
X129053635Y-82326655D01*
X129086290Y-82294000D01*
X136851710Y-82294000D01*
X136884365Y-82326655D01*
X137228017Y-82469000D01*
X137496690Y-82469000D01*
X137442785Y-82740000D01*
X137534755Y-83202364D01*
X137796663Y-83594337D01*
X138014663Y-83740000D01*
X137796663Y-83885663D01*
X137733629Y-83980000D01*
X137632802Y-83980000D01*
X137587000Y-83934198D01*
X137587000Y-83888017D01*
X137444655Y-83544365D01*
X137181635Y-83281345D01*
X136837983Y-83139000D01*
X136466017Y-83139000D01*
X136122365Y-83281345D01*
X135859345Y-83544365D01*
X135717000Y-83888017D01*
X135717000Y-84259983D01*
X135859345Y-84603635D01*
X136122365Y-84866655D01*
X136466017Y-85009000D01*
X136512198Y-85009000D01*
X136727671Y-85224473D01*
X136770071Y-85287929D01*
X137021463Y-85455904D01*
X137243148Y-85500000D01*
X137243152Y-85500000D01*
X137317999Y-85514888D01*
X137392846Y-85500000D01*
X137733629Y-85500000D01*
X137796663Y-85594337D01*
X138014663Y-85740000D01*
X137796663Y-85885663D01*
X137534755Y-86277636D01*
X137442785Y-86740000D01*
X137534755Y-87202364D01*
X137796663Y-87594337D01*
X138014663Y-87740000D01*
X137796663Y-87885663D01*
X137534755Y-88277636D01*
X137442785Y-88740000D01*
X137534755Y-89202364D01*
X137796663Y-89594337D01*
X138064663Y-89773409D01*
X137896663Y-89885663D01*
X137634755Y-90277636D01*
X137542785Y-90740000D01*
X137634755Y-91202364D01*
X137896663Y-91594337D01*
X138064781Y-91706670D01*
X137723276Y-91991882D01*
X137507602Y-92403854D01*
X137507197Y-92430256D01*
X137632639Y-92613000D01*
X139224000Y-92613000D01*
X139224000Y-92593000D01*
X139478000Y-92593000D01*
X139478000Y-92613000D01*
X141069361Y-92613000D01*
X141194803Y-92430256D01*
X141194398Y-92403854D01*
X140978724Y-91991882D01*
X140726111Y-91780910D01*
X141005337Y-91594337D01*
X141068371Y-91500000D01*
X141612026Y-91500000D01*
X141701345Y-91715635D01*
X141964365Y-91978655D01*
X142308017Y-92121000D01*
X142679983Y-92121000D01*
X143023635Y-91978655D01*
X143286655Y-91715635D01*
X143429000Y-91371983D01*
X143429000Y-91000017D01*
X143286655Y-90656365D01*
X143023635Y-90393345D01*
X142679983Y-90251000D01*
X142635304Y-90251000D01*
X142595929Y-90192071D01*
X142344537Y-90024096D01*
X142162225Y-89987832D01*
X142261635Y-89946655D01*
X142524655Y-89683635D01*
X142667000Y-89339983D01*
X142667000Y-88968017D01*
X142524655Y-88624365D01*
X142261635Y-88361345D01*
X141917983Y-88219000D01*
X141883922Y-88219000D01*
X141865929Y-88192071D01*
X141614537Y-88024096D01*
X141392852Y-87980000D01*
X141392847Y-87980000D01*
X141318000Y-87965112D01*
X141243153Y-87980000D01*
X140968371Y-87980000D01*
X140905337Y-87885663D01*
X140687337Y-87740000D01*
X140854957Y-87628000D01*
X145741710Y-87628000D01*
X145774365Y-87660655D01*
X146118017Y-87803000D01*
X146489983Y-87803000D01*
X146833635Y-87660655D01*
X147096655Y-87397635D01*
X147239000Y-87053983D01*
X147239000Y-86682017D01*
X147096655Y-86338365D01*
X146833635Y-86075345D01*
X146489983Y-85933000D01*
X146118017Y-85933000D01*
X145774365Y-86075345D01*
X145741710Y-86108000D01*
X141053898Y-86108000D01*
X140905337Y-85885663D01*
X140687337Y-85740000D01*
X140905337Y-85594337D01*
X141167245Y-85202364D01*
X141259215Y-84740000D01*
X141167245Y-84277636D01*
X140905337Y-83885663D01*
X140687337Y-83740000D01*
X140905337Y-83594337D01*
X141167245Y-83202364D01*
X141259215Y-82740000D01*
X141167245Y-82277636D01*
X140905337Y-81885663D01*
X140687337Y-81740000D01*
X140905337Y-81594337D01*
X141167245Y-81202364D01*
X141259215Y-80740000D01*
X141167245Y-80277636D01*
X140905337Y-79885663D01*
X140687337Y-79740000D01*
X140905337Y-79594337D01*
X141167245Y-79202364D01*
X141259215Y-78740000D01*
X141167245Y-78277636D01*
X140975680Y-77990939D01*
X142179265Y-77946234D01*
X151955602Y-77882752D01*
X152939810Y-77886910D01*
X152902843Y-77942235D01*
X152895331Y-77980000D01*
X144854848Y-77980000D01*
X144780000Y-77965112D01*
X144705152Y-77980000D01*
X144705148Y-77980000D01*
X144531605Y-78014520D01*
X144483462Y-78024096D01*
X144326942Y-78128680D01*
X144232071Y-78192071D01*
X144189671Y-78255527D01*
X143878198Y-78567000D01*
X143832017Y-78567000D01*
X143488365Y-78709345D01*
X143225345Y-78972365D01*
X143083000Y-79316017D01*
X143083000Y-79687983D01*
X143225345Y-80031635D01*
X143488365Y-80294655D01*
X143832017Y-80437000D01*
X144203983Y-80437000D01*
X144547635Y-80294655D01*
X144810655Y-80031635D01*
X144953000Y-79687983D01*
X144953000Y-79641802D01*
X145094802Y-79500000D01*
X152895331Y-79500000D01*
X152902843Y-79537765D01*
X153043191Y-79747809D01*
X153223083Y-79868010D01*
X153196663Y-79885663D01*
X152934755Y-80277636D01*
X152842785Y-80740000D01*
X152934755Y-81202364D01*
X153196663Y-81594337D01*
X153414663Y-81740000D01*
X153196663Y-81885663D01*
X152934755Y-82277636D01*
X152842785Y-82740000D01*
X152934755Y-83202364D01*
X153196663Y-83594337D01*
X153414663Y-83740000D01*
X153196663Y-83885663D01*
X152934755Y-84277636D01*
X152842785Y-84740000D01*
X152934755Y-85202364D01*
X153196663Y-85594337D01*
X153414663Y-85740000D01*
X153196663Y-85885663D01*
X152934755Y-86277636D01*
X152842785Y-86740000D01*
X152934755Y-87202364D01*
X153196663Y-87594337D01*
X153414663Y-87740000D01*
X153196663Y-87885663D01*
X152934755Y-88277636D01*
X152842785Y-88740000D01*
X152934755Y-89202364D01*
X153196663Y-89594337D01*
X153414663Y-89740000D01*
X153196663Y-89885663D01*
X152934755Y-90277636D01*
X152842785Y-90740000D01*
X152934755Y-91202364D01*
X153196663Y-91594337D01*
X153414663Y-91740000D01*
X153196663Y-91885663D01*
X152934755Y-92277636D01*
X152842785Y-92740000D01*
X152888020Y-92967410D01*
X152523363Y-92723755D01*
X152061000Y-92631785D01*
X151598636Y-92723755D01*
X151206663Y-92985663D01*
X151061000Y-93203663D01*
X150915337Y-92985663D01*
X150523363Y-92723755D01*
X150061000Y-92631785D01*
X149598636Y-92723755D01*
X149206663Y-92985663D01*
X149061000Y-93203663D01*
X148915337Y-92985663D01*
X148523363Y-92723755D01*
X148061000Y-92631785D01*
X147598636Y-92723755D01*
X147206663Y-92985663D01*
X147061000Y-93203663D01*
X146915337Y-92985663D01*
X146523363Y-92723755D01*
X146061000Y-92631785D01*
X145598636Y-92723755D01*
X145206663Y-92985663D01*
X145061000Y-93203663D01*
X144915337Y-92985663D01*
X144523363Y-92723755D01*
X144061000Y-92631785D01*
X143598636Y-92723755D01*
X143206663Y-92985663D01*
X143061000Y-93203663D01*
X142915337Y-92985663D01*
X142523363Y-92723755D01*
X142061000Y-92631785D01*
X141598636Y-92723755D01*
X141206663Y-92985663D01*
X141179116Y-93026891D01*
X141069361Y-92867000D01*
X139478000Y-92867000D01*
X139478000Y-93925000D01*
X140178000Y-93925000D01*
X140621813Y-93786196D01*
X140911634Y-93544149D01*
X140876000Y-93723291D01*
X140876000Y-95256710D01*
X140944755Y-95602364D01*
X141206664Y-95994337D01*
X141598637Y-96256245D01*
X142061000Y-96348215D01*
X142523364Y-96256245D01*
X142915337Y-95994337D01*
X143061000Y-95776337D01*
X143206664Y-95994337D01*
X143598637Y-96256245D01*
X144061000Y-96348215D01*
X144523364Y-96256245D01*
X144915337Y-95994337D01*
X145061000Y-95776337D01*
X145206664Y-95994337D01*
X145598637Y-96256245D01*
X146061000Y-96348215D01*
X146523364Y-96256245D01*
X146915337Y-95994337D01*
X147061000Y-95776337D01*
X147206664Y-95994337D01*
X147598637Y-96256245D01*
X148061000Y-96348215D01*
X148523364Y-96256245D01*
X148915337Y-95994337D01*
X149061000Y-95776337D01*
X149206664Y-95994337D01*
X149598637Y-96256245D01*
X150061000Y-96348215D01*
X150523364Y-96256245D01*
X150915337Y-95994337D01*
X151061000Y-95776337D01*
X151206664Y-95994337D01*
X151598637Y-96256245D01*
X152061000Y-96348215D01*
X152523364Y-96256245D01*
X152915337Y-95994337D01*
X153177245Y-95602364D01*
X153246000Y-95256710D01*
X153246000Y-93723290D01*
X153223980Y-93612590D01*
X153588636Y-93856245D01*
X153934290Y-93925000D01*
X155567710Y-93925000D01*
X155913364Y-93856245D01*
X156304345Y-93595000D01*
X161086413Y-93595000D01*
X161108843Y-93707765D01*
X161249191Y-93917809D01*
X161386837Y-94009782D01*
X161371000Y-94048017D01*
X161371000Y-94419983D01*
X161513345Y-94763635D01*
X161776365Y-95026655D01*
X162008963Y-95123000D01*
X161776365Y-95219345D01*
X161513345Y-95482365D01*
X161371000Y-95826017D01*
X161371000Y-96197983D01*
X161394501Y-96254719D01*
X161394501Y-96485097D01*
X161249191Y-96582191D01*
X161108843Y-96792235D01*
X161087811Y-96897971D01*
X161035990Y-96887663D01*
X160948829Y-96905000D01*
X160948825Y-96905000D01*
X160690680Y-96956348D01*
X160397941Y-97151951D01*
X160348566Y-97225846D01*
X160246068Y-97328344D01*
X160125355Y-97378345D01*
X159862335Y-97641365D01*
X159719990Y-97985017D01*
X159719990Y-98356983D01*
X159855030Y-98683000D01*
X110562790Y-98683000D01*
X110414673Y-98461327D01*
X110170237Y-98298000D01*
X110414673Y-98134673D01*
X110646312Y-97788000D01*
X127179153Y-97788000D01*
X127254000Y-97802888D01*
X127328847Y-97788000D01*
X127328852Y-97788000D01*
X127550537Y-97743904D01*
X127801929Y-97575929D01*
X127844330Y-97512471D01*
X127901802Y-97455000D01*
X127947983Y-97455000D01*
X128291635Y-97312655D01*
X128554655Y-97049635D01*
X128697000Y-96705983D01*
X128697000Y-96334017D01*
X128554655Y-95990365D01*
X128291635Y-95727345D01*
X127947983Y-95585000D01*
X127576017Y-95585000D01*
X127232365Y-95727345D01*
X126969345Y-95990365D01*
X126854345Y-96268000D01*
X110646312Y-96268000D01*
X110414673Y-95921327D01*
X110170237Y-95758000D01*
X110414673Y-95594673D01*
X110753938Y-95086927D01*
X110873072Y-94488000D01*
X110791731Y-94079071D01*
X111712792Y-93158010D01*
X119207000Y-93158010D01*
X119207000Y-93403983D01*
X119349345Y-93747635D01*
X119612365Y-94010655D01*
X119956017Y-94153000D01*
X120327983Y-94153000D01*
X120671635Y-94010655D01*
X120704290Y-93978000D01*
X124913710Y-93978000D01*
X124946365Y-94010655D01*
X125290017Y-94153000D01*
X125661983Y-94153000D01*
X126005635Y-94010655D01*
X126268655Y-93747635D01*
X126411000Y-93403983D01*
X126411000Y-93158010D01*
X126475143Y-93158010D01*
X126549990Y-93172898D01*
X126624837Y-93158010D01*
X126624842Y-93158010D01*
X126846527Y-93113914D01*
X126942564Y-93049744D01*
X137507197Y-93049744D01*
X137507602Y-93076146D01*
X137723276Y-93488118D01*
X138080187Y-93786196D01*
X138524000Y-93925000D01*
X139224000Y-93925000D01*
X139224000Y-92867000D01*
X137632639Y-92867000D01*
X137507197Y-93049744D01*
X126942564Y-93049744D01*
X127097919Y-92945939D01*
X127139974Y-92883000D01*
X127185983Y-92883000D01*
X127529635Y-92740655D01*
X127792655Y-92477635D01*
X127935000Y-92133983D01*
X127935000Y-91762017D01*
X127792655Y-91418365D01*
X127529635Y-91155345D01*
X127185983Y-91013000D01*
X126814017Y-91013000D01*
X126500962Y-91142672D01*
X126259635Y-90901345D01*
X125915983Y-90759000D01*
X125544017Y-90759000D01*
X125200365Y-90901345D01*
X124937345Y-91164365D01*
X124927555Y-91188000D01*
X110646312Y-91188000D01*
X110414673Y-90841327D01*
X109906927Y-90502062D01*
X109459182Y-90413000D01*
X107456818Y-90413000D01*
X107268738Y-90450411D01*
X107416086Y-90338088D01*
X107671526Y-90210880D01*
X108061022Y-90085573D01*
X109487990Y-89818445D01*
X111881170Y-89516013D01*
X111883079Y-89516138D01*
X111948124Y-89507552D01*
X112013133Y-89499337D01*
X112014946Y-89498732D01*
X115267349Y-89069428D01*
X115312190Y-89075425D01*
X115401267Y-89051752D01*
X115424456Y-89048691D01*
X115466334Y-89034460D01*
X115575558Y-89005432D01*
X115594628Y-88990861D01*
X115617348Y-88983140D01*
X115702292Y-88908596D01*
X115792093Y-88839980D01*
X115804134Y-88819223D01*
X115822171Y-88803394D01*
X115872123Y-88702015D01*
X115894316Y-88663756D01*
X115901880Y-88641623D01*
X115942616Y-88558947D01*
X115945560Y-88513803D01*
X116511060Y-86858996D01*
X117175546Y-85080804D01*
X118012412Y-83143548D01*
X118672702Y-81694078D01*
X118681068Y-81681295D01*
X118700610Y-81632814D01*
X118722296Y-81585209D01*
X118725798Y-81570327D01*
X118941442Y-81035345D01*
X118943685Y-81033017D01*
X118992281Y-80909221D01*
X119016392Y-80849406D01*
X119016977Y-80846310D01*
X119043262Y-80779351D01*
X119042039Y-80713724D01*
X119054230Y-80649226D01*
X119039524Y-80578808D01*
X119038183Y-80506888D01*
X119011939Y-80446725D01*
X118998520Y-80382471D01*
X118957989Y-80323046D01*
X118956728Y-80320156D01*
X118919897Y-80267198D01*
X118844968Y-80157341D01*
X118842263Y-80155570D01*
X118353784Y-79453204D01*
X118346464Y-79438400D01*
X118315333Y-79397918D01*
X118286178Y-79355996D01*
X118274286Y-79344539D01*
X116918956Y-77582057D01*
X116918353Y-77580850D01*
X116877699Y-77528407D01*
X116837525Y-77476164D01*
X116836517Y-77475281D01*
X115368076Y-75581002D01*
X114575814Y-74439087D01*
X114400370Y-74104559D01*
X114312656Y-73852188D01*
X114273831Y-73613491D01*
X114263768Y-73325777D01*
X114292933Y-72920319D01*
X114320687Y-72830620D01*
X114385077Y-72708824D01*
X114798292Y-72189814D01*
X115645405Y-71298648D01*
X116000221Y-70934017D01*
X122001010Y-70934017D01*
X122001010Y-71305983D01*
X122143355Y-71649635D01*
X122406375Y-71912655D01*
X122750027Y-72055000D01*
X123121993Y-72055000D01*
X123465645Y-71912655D01*
X123728665Y-71649635D01*
X123871010Y-71305983D01*
X123871010Y-71259801D01*
X124266812Y-70864000D01*
X129993714Y-70864000D01*
X130026369Y-70896655D01*
X130370021Y-71039000D01*
X130741987Y-71039000D01*
X131085639Y-70896655D01*
X131348659Y-70633635D01*
X131491004Y-70289983D01*
X131491004Y-69918017D01*
X131348659Y-69574365D01*
X131085639Y-69311345D01*
X130741987Y-69169000D01*
X130370021Y-69169000D01*
X130026369Y-69311345D01*
X129993714Y-69344000D01*
X124026857Y-69344000D01*
X123952010Y-69329112D01*
X123877163Y-69344000D01*
X123877158Y-69344000D01*
X123655473Y-69388096D01*
X123404081Y-69556071D01*
X123361681Y-69619527D01*
X122796209Y-70185000D01*
X122750027Y-70185000D01*
X122406375Y-70327345D01*
X122143355Y-70590365D01*
X122001010Y-70934017D01*
X116000221Y-70934017D01*
X117148716Y-69753754D01*
X117182273Y-69734728D01*
X117242983Y-69656879D01*
X117263876Y-69635408D01*
X117284386Y-69603787D01*
X117349854Y-69519837D01*
X117358031Y-69490248D01*
X117374739Y-69464489D01*
X117394085Y-69359787D01*
X117422443Y-69257173D01*
X117418674Y-69226707D01*
X117424253Y-69196515D01*
X117402059Y-69092385D01*
X117388989Y-68986724D01*
X117373846Y-68960015D01*
X117367447Y-68929991D01*
X117307102Y-68842291D01*
X117288511Y-68809501D01*
X117268934Y-68786822D01*
X117212973Y-68705494D01*
X117180609Y-68684502D01*
X112861930Y-63681526D01*
X107919642Y-57932326D01*
X107368364Y-57269820D01*
X107292773Y-57171894D01*
X107222128Y-57131378D01*
X107158831Y-57080147D01*
X107105042Y-57064228D01*
X107056380Y-57036320D01*
X106975612Y-57025924D01*
X106897524Y-57002814D01*
X106841734Y-57008692D01*
X106786100Y-57001531D01*
X106707501Y-57022834D01*
X106626515Y-57031367D01*
X106517854Y-57090400D01*
X105796159Y-57448893D01*
X105468267Y-57576942D01*
X105078906Y-57671131D01*
X104629952Y-57732689D01*
X104155087Y-57756804D01*
X103685944Y-57742189D01*
X103254812Y-57690193D01*
X102897513Y-57606673D01*
X102629401Y-57498498D01*
X102230186Y-57258099D01*
X101862070Y-56977793D01*
X101539961Y-56670651D01*
X101263457Y-56340237D01*
X101032328Y-55989964D01*
X100846514Y-55623138D01*
X100706114Y-55242992D01*
X100611379Y-54852721D01*
X100562685Y-54455437D01*
X100560550Y-54054202D01*
X100605646Y-53651997D01*
X100698855Y-53251696D01*
X100841300Y-52856159D01*
X101034407Y-52468220D01*
X101279889Y-52090859D01*
X101579973Y-51726945D01*
X101870865Y-51443588D01*
X102180681Y-51201210D01*
X102506589Y-50998791D01*
X102846040Y-50835383D01*
X103196355Y-50710339D01*
X103554714Y-50623196D01*
X103918123Y-50573605D01*
X104278205Y-50561427D01*
X104750508Y-50600075D01*
X104750508Y-50600075D01*
G37*
X104750508Y-50600075D02*
X105208181Y-50698268D01*
X105649397Y-50855319D01*
X106067375Y-51070025D01*
X106455779Y-51341335D01*
X106808707Y-51668644D01*
X107120513Y-52052106D01*
X107383076Y-52488881D01*
X107676499Y-53208173D01*
X107816226Y-53903925D01*
X107828483Y-54210640D01*
X107805997Y-54527363D01*
X107748255Y-54838284D01*
X107648182Y-55166476D01*
X107260259Y-56259346D01*
X107232746Y-56300081D01*
X107215088Y-56386603D01*
X107208558Y-56404999D01*
X107201624Y-56452575D01*
X107178253Y-56567087D01*
X107182065Y-56586764D01*
X107179175Y-56606593D01*
X107207856Y-56719879D01*
X107217003Y-56767093D01*
X107224385Y-56785168D01*
X107246056Y-56870768D01*
X107266420Y-56898081D01*
X107268934Y-56922479D01*
X107316156Y-57009879D01*
X107327713Y-57038178D01*
X107348153Y-57069101D01*
X107365775Y-57101716D01*
X107385275Y-57125260D01*
X107440053Y-57208131D01*
X107471504Y-57229373D01*
X107622076Y-57411174D01*
X107642045Y-57440467D01*
X107664996Y-57462996D01*
X107685514Y-57487769D01*
X107713023Y-57510139D01*
X108661733Y-58441391D01*
X108670575Y-58453237D01*
X108709782Y-58488556D01*
X108747463Y-58525543D01*
X108759837Y-58533646D01*
X110439687Y-60046888D01*
X110443414Y-60051702D01*
X110489730Y-60091967D01*
X110535402Y-60133110D01*
X110540642Y-60136229D01*
X113004499Y-62278233D01*
X113005613Y-62279656D01*
X113055340Y-62322432D01*
X113104956Y-62365567D01*
X113106528Y-62366466D01*
X118711127Y-67187673D01*
X118734212Y-67222439D01*
X118813567Y-67275794D01*
X118833922Y-67293304D01*
X118869436Y-67313358D01*
X118960357Y-67374490D01*
X118987344Y-67379939D01*
X119011318Y-67393477D01*
X119120072Y-67406740D01*
X119227476Y-67428427D01*
X119254497Y-67423133D01*
X119281824Y-67426466D01*
X119387373Y-67397101D01*
X119494901Y-67376035D01*
X119517839Y-67360804D01*
X119544362Y-67353425D01*
X119630639Y-67285904D01*
X119664619Y-67263341D01*
X119683662Y-67244408D01*
X119758965Y-67185475D01*
X119779484Y-67149138D01*
X121239598Y-65697437D01*
X122059816Y-64905895D01*
X122560479Y-64500950D01*
X122889017Y-64340831D01*
X123304544Y-64262371D01*
X123600079Y-64233117D01*
X123797251Y-64236776D01*
X123974198Y-64281228D01*
X124258622Y-64420552D01*
X124714623Y-64717802D01*
X125376557Y-65205938D01*
X127500927Y-66867057D01*
X130130003Y-68939396D01*
X130159157Y-68977914D01*
X130236056Y-69022991D01*
X130252046Y-69035595D01*
X130294150Y-69057045D01*
X130394253Y-69115724D01*
X130414952Y-69118588D01*
X130433572Y-69128074D01*
X130549257Y-69137172D01*
X130664190Y-69153075D01*
X130684408Y-69147800D01*
X130705244Y-69149439D01*
X130815604Y-69113573D01*
X130861317Y-69101647D01*
X130879635Y-69092764D01*
X130964411Y-69065212D01*
X131001143Y-69033836D01*
X132890545Y-68117540D01*
X134830548Y-67264278D01*
X136505731Y-66635466D01*
X134074528Y-69066671D01*
X134011072Y-69109071D01*
X133968672Y-69172527D01*
X133968671Y-69172528D01*
X133843097Y-69360463D01*
X133784112Y-69657000D01*
X133799001Y-69731851D01*
X133799001Y-70051424D01*
X133676235Y-70075843D01*
X133604000Y-70124109D01*
X133531765Y-70075843D01*
X133284000Y-70026560D01*
X132164000Y-70026560D01*
X131916235Y-70075843D01*
X131706191Y-70216191D01*
X131565843Y-70426235D01*
X131516560Y-70674000D01*
X131516560Y-72074000D01*
X131565843Y-72321765D01*
X131706191Y-72531809D01*
X131750025Y-72561098D01*
X131746663Y-72578000D01*
X131815348Y-72923309D01*
X131961576Y-73142154D01*
X131961578Y-73142156D01*
X132010952Y-73216049D01*
X132084845Y-73265423D01*
X132189844Y-73370422D01*
X132239845Y-73491135D01*
X132502865Y-73754155D01*
X132846517Y-73896500D01*
X133218483Y-73896500D01*
X133562135Y-73754155D01*
X133825155Y-73491135D01*
X133967500Y-73147483D01*
X133967500Y-72775517D01*
X133945101Y-72721440D01*
X135044000Y-72721440D01*
X135291765Y-72672157D01*
X135501809Y-72531809D01*
X135642157Y-72321765D01*
X135691440Y-72074000D01*
X135691440Y-70674000D01*
X135642157Y-70426235D01*
X135501809Y-70216191D01*
X135319000Y-70094041D01*
X135319000Y-69971801D01*
X137474803Y-67816000D01*
X145274153Y-67816000D01*
X145349000Y-67830888D01*
X145423847Y-67816000D01*
X145423852Y-67816000D01*
X145645537Y-67771904D01*
X145840790Y-67641440D01*
X146746000Y-67641440D01*
X146993765Y-67592157D01*
X147061492Y-67546903D01*
X147259691Y-67629000D01*
X147660250Y-67629000D01*
X147819000Y-67470250D01*
X147819000Y-66421000D01*
X148073000Y-66421000D01*
X148073000Y-67470250D01*
X148231750Y-67629000D01*
X148632309Y-67629000D01*
X148865698Y-67532327D01*
X149044327Y-67353699D01*
X149141000Y-67120310D01*
X149141000Y-66579750D01*
X148982250Y-66421000D01*
X148073000Y-66421000D01*
X147819000Y-66421000D01*
X147799000Y-66421000D01*
X147799000Y-66167000D01*
X147819000Y-66167000D01*
X147819000Y-65117750D01*
X148073000Y-65117750D01*
X148073000Y-66167000D01*
X148982250Y-66167000D01*
X149141000Y-66008250D01*
X149141000Y-65467690D01*
X149044327Y-65234301D01*
X148865698Y-65055673D01*
X148632309Y-64959000D01*
X148231750Y-64959000D01*
X148073000Y-65117750D01*
X147819000Y-65117750D01*
X147660250Y-64959000D01*
X147259691Y-64959000D01*
X147061492Y-65041097D01*
X146993765Y-64995843D01*
X146746000Y-64946560D01*
X145626000Y-64946560D01*
X145378235Y-64995843D01*
X145168191Y-65136191D01*
X145027843Y-65346235D01*
X144978560Y-65594000D01*
X144978560Y-66296000D01*
X137458913Y-66296000D01*
X137587531Y-66251086D01*
X137608860Y-66246701D01*
X137651091Y-66228890D01*
X137694353Y-66213783D01*
X137713112Y-66202734D01*
X138259932Y-65972116D01*
X138307701Y-65954641D01*
X138321965Y-65945954D01*
X138337355Y-65939463D01*
X138379470Y-65910930D01*
X138624749Y-65761545D01*
X138655639Y-65753838D01*
X138740307Y-65691165D01*
X138771542Y-65672142D01*
X138794416Y-65651113D01*
X138819386Y-65632630D01*
X138843970Y-65605557D01*
X138921520Y-65534262D01*
X138929241Y-65517634D01*
X138971962Y-65484181D01*
X139034355Y-65373619D01*
X139099737Y-65264765D01*
X139111177Y-65188132D01*
X139121785Y-65155484D01*
X139142599Y-65092129D01*
X139142736Y-65091000D01*
X139143087Y-65089921D01*
X139150904Y-65023874D01*
X139167205Y-64889895D01*
X139166893Y-64888774D01*
X139620097Y-61059415D01*
X139642863Y-60887502D01*
X139645285Y-60892327D01*
X139647680Y-60899454D01*
X139649796Y-60906380D01*
X139651184Y-60915245D01*
X139659098Y-60936817D01*
X139665869Y-60958972D01*
X139670150Y-60966942D01*
X139672645Y-60973743D01*
X139674874Y-60980374D01*
X139676501Y-60989188D01*
X139685064Y-61010697D01*
X139692495Y-61032808D01*
X139696986Y-61040642D01*
X139699569Y-61047130D01*
X139701902Y-61053489D01*
X139703762Y-61062230D01*
X139712957Y-61083622D01*
X139721051Y-61105683D01*
X139725749Y-61113381D01*
X139728411Y-61119574D01*
X139730839Y-61125672D01*
X139732927Y-61134335D01*
X139742762Y-61155618D01*
X139751512Y-61177597D01*
X139756404Y-61185142D01*
X139759154Y-61191092D01*
X139761652Y-61196905D01*
X139763963Y-61205481D01*
X139774431Y-61226632D01*
X139783833Y-61248506D01*
X139788910Y-61255890D01*
X139791711Y-61261551D01*
X139794304Y-61267161D01*
X139796830Y-61275636D01*
X139807916Y-61296620D01*
X139817968Y-61318373D01*
X139823223Y-61325592D01*
X139826098Y-61331034D01*
X139828754Y-61336402D01*
X139831492Y-61344775D01*
X139843200Y-61365592D01*
X139853885Y-61387182D01*
X139859304Y-61394223D01*
X139862246Y-61399455D01*
X139864967Y-61404605D01*
X139867906Y-61412859D01*
X139880219Y-61433474D01*
X139891540Y-61454902D01*
X139897117Y-61461765D01*
X139900111Y-61466778D01*
X139902907Y-61471749D01*
X139906046Y-61479890D01*
X139918964Y-61500298D01*
X139930897Y-61521514D01*
X139936620Y-61528190D01*
X139939670Y-61533009D01*
X139942540Y-61537814D01*
X139945864Y-61545816D01*
X139959349Y-61565956D01*
X139971908Y-61586982D01*
X139977778Y-61593479D01*
X139980887Y-61598121D01*
X139983823Y-61602759D01*
X139987330Y-61610631D01*
X140001400Y-61630528D01*
X140014554Y-61651308D01*
X140020549Y-61657607D01*
X140023714Y-61662082D01*
X140026719Y-61666570D01*
X140030402Y-61674304D01*
X140045034Y-61693923D01*
X140058777Y-61714448D01*
X140064896Y-61720555D01*
X140068120Y-61724878D01*
X140071197Y-61729229D01*
X140075048Y-61736819D01*
X140090230Y-61756144D01*
X140104551Y-61776396D01*
X140110784Y-61782307D01*
X140114076Y-61786498D01*
X140117221Y-61790715D01*
X140121236Y-61798162D01*
X140136963Y-61817186D01*
X140151832Y-61837123D01*
X140158164Y-61842831D01*
X140161538Y-61846912D01*
X140164759Y-61851013D01*
X140168927Y-61858306D01*
X140185166Y-61876989D01*
X140200589Y-61896621D01*
X140207021Y-61902133D01*
X140210449Y-61906077D01*
X140213776Y-61910101D01*
X140218088Y-61917235D01*
X140234821Y-61935559D01*
X140250790Y-61954875D01*
X140257317Y-61960192D01*
X140260810Y-61964017D01*
X140264238Y-61967961D01*
X140268696Y-61974946D01*
X140285929Y-61992917D01*
X140302394Y-62011860D01*
X140308998Y-62016974D01*
X140312604Y-62020734D01*
X140316106Y-62024569D01*
X140320696Y-62031391D01*
X140338393Y-62048975D01*
X140355370Y-62067565D01*
X140362053Y-62072483D01*
X140365745Y-62076151D01*
X140369359Y-62079919D01*
X140374086Y-62086593D01*
X140392266Y-62103808D01*
X140409695Y-62121983D01*
X140416437Y-62126695D01*
X140420241Y-62130297D01*
X140423961Y-62133993D01*
X140428805Y-62140497D01*
X140447395Y-62157277D01*
X140465312Y-62175079D01*
X140472127Y-62179601D01*
X140476030Y-62183124D01*
X140479878Y-62186768D01*
X140484841Y-62193111D01*
X140503864Y-62209480D01*
X140522225Y-62226866D01*
X140529093Y-62231189D01*
X140533093Y-62234631D01*
X140537088Y-62238237D01*
X140542165Y-62244420D01*
X140561588Y-62260352D01*
X140580368Y-62277303D01*
X140587287Y-62281431D01*
X140591436Y-62284834D01*
X140595549Y-62288374D01*
X140600732Y-62294392D01*
X140620538Y-62309876D01*
X140639731Y-62326391D01*
X140646696Y-62330326D01*
X140650982Y-62333676D01*
X140655250Y-62337177D01*
X140660543Y-62343041D01*
X140680735Y-62358081D01*
X140700287Y-62374118D01*
X140707286Y-62377856D01*
X140711722Y-62381161D01*
X140716159Y-62384630D01*
X140721542Y-62390322D01*
X140742042Y-62404865D01*
X140761990Y-62420459D01*
X140769036Y-62424013D01*
X140773630Y-62427272D01*
X140778225Y-62430695D01*
X140783704Y-62436227D01*
X140804558Y-62450308D01*
X140824844Y-62465418D01*
X140831913Y-62468779D01*
X140836673Y-62471994D01*
X140841450Y-62475382D01*
X140847015Y-62480749D01*
X140868166Y-62494333D01*
X140888790Y-62508964D01*
X140895889Y-62512140D01*
X140900794Y-62515290D01*
X140905789Y-62518663D01*
X140911441Y-62523869D01*
X140932878Y-62536954D01*
X140953804Y-62551084D01*
X140960927Y-62554075D01*
X140966048Y-62557201D01*
X140971228Y-62560528D01*
X140976962Y-62565573D01*
X140998668Y-62578152D01*
X141019877Y-62591774D01*
X141027018Y-62594581D01*
X141032344Y-62597668D01*
X141037719Y-62600949D01*
X141043524Y-62605827D01*
X141065477Y-62617892D01*
X141086971Y-62631012D01*
X141094127Y-62633638D01*
X141099660Y-62636679D01*
X141105257Y-62639922D01*
X141111145Y-62644647D01*
X141133365Y-62656211D01*
X141155067Y-62668788D01*
X141162222Y-62671230D01*
X141167978Y-62674225D01*
X141173819Y-62677436D01*
X141179769Y-62681993D01*
X141202156Y-62693009D01*
X141224112Y-62705076D01*
X141231287Y-62707344D01*
X141237275Y-62710291D01*
X141243366Y-62713461D01*
X141249383Y-62717858D01*
X141271971Y-62728348D01*
X141294127Y-62739879D01*
X141301302Y-62741970D01*
X141307527Y-62744861D01*
X141313869Y-62747981D01*
X141319941Y-62752213D01*
X141342684Y-62762161D01*
X141365051Y-62773167D01*
X141372231Y-62775084D01*
X141378703Y-62777915D01*
X141385313Y-62780985D01*
X141391446Y-62785058D01*
X141414357Y-62794473D01*
X141436876Y-62804931D01*
X141444047Y-62806674D01*
X141450768Y-62809436D01*
X141457678Y-62812458D01*
X141463866Y-62816371D01*
X141486890Y-62825235D01*
X141509551Y-62835147D01*
X141516720Y-62836720D01*
X141523729Y-62839418D01*
X141530926Y-62842376D01*
X141537159Y-62846125D01*
X141560280Y-62854438D01*
X141583085Y-62863810D01*
X141590248Y-62865214D01*
X141597554Y-62867841D01*
X141605027Y-62870718D01*
X141611312Y-62874310D01*
X141634553Y-62882086D01*
X141657445Y-62890899D01*
X141664585Y-62892133D01*
X141672192Y-62894678D01*
X141679975Y-62897477D01*
X141686310Y-62900912D01*
X141709634Y-62908141D01*
X141732584Y-62916393D01*
X141739702Y-62917460D01*
X141747650Y-62919923D01*
X141755731Y-62922627D01*
X141762091Y-62925895D01*
X141785426Y-62932562D01*
X141808495Y-62940280D01*
X141815605Y-62941184D01*
X141823817Y-62943530D01*
X141832272Y-62946151D01*
X141838667Y-62949259D01*
X141862047Y-62955379D01*
X141885160Y-62962543D01*
X141892240Y-62963283D01*
X141900763Y-62965515D01*
X141909575Y-62968032D01*
X141916005Y-62970982D01*
X141939391Y-62976551D01*
X141962517Y-62983158D01*
X141969571Y-62983737D01*
X141978457Y-62985853D01*
X141987611Y-62988250D01*
X141994069Y-62991040D01*
X142017443Y-62996059D01*
X142040577Y-63002115D01*
X142047601Y-63002535D01*
X142056863Y-63004523D01*
X142066344Y-63006781D01*
X142072817Y-63009409D01*
X142096163Y-63013882D01*
X142119312Y-63019394D01*
X142126301Y-63019656D01*
X142135895Y-63021494D01*
X142145763Y-63023613D01*
X142152270Y-63026087D01*
X142175622Y-63030024D01*
X142198679Y-63034975D01*
X142205611Y-63035080D01*
X142215618Y-63036767D01*
X142225849Y-63038727D01*
X142232355Y-63041037D01*
X142255577Y-63044423D01*
X142278639Y-63048841D01*
X142285547Y-63048792D01*
X142295868Y-63050297D01*
X142306544Y-63052097D01*
X142313056Y-63054247D01*
X142336205Y-63057098D01*
X142359214Y-63060977D01*
X142366072Y-63060776D01*
X142376806Y-63062098D01*
X142387834Y-63063706D01*
X142394356Y-63065699D01*
X142417427Y-63068020D01*
X142440327Y-63071359D01*
X142447124Y-63071008D01*
X142458254Y-63072128D01*
X142469710Y-63073539D01*
X142476227Y-63075373D01*
X142499158Y-63077165D01*
X142521966Y-63079974D01*
X142528712Y-63079475D01*
X142540212Y-63080374D01*
X142552124Y-63081572D01*
X142558630Y-63083248D01*
X142581403Y-63084518D01*
X142604111Y-63086803D01*
X142610802Y-63086158D01*
X142622735Y-63086824D01*
X142635047Y-63087786D01*
X142641545Y-63089306D01*
X142664178Y-63090063D01*
X142686736Y-63091826D01*
X142693357Y-63091039D01*
X142705696Y-63091451D01*
X142718454Y-63092163D01*
X142724933Y-63093527D01*
X142747390Y-63093777D01*
X142769798Y-63095027D01*
X142776350Y-63094100D01*
X142789140Y-63094242D01*
X142797496Y-63094521D01*
X142800556Y-63095130D01*
X142815694Y-63095130D01*
X142853281Y-63096387D01*
X142860928Y-63095130D01*
X142868891Y-63095130D01*
X142937143Y-63095890D01*
X142941199Y-63095130D01*
X151072367Y-63095130D01*
X151076423Y-63095890D01*
X151144675Y-63095130D01*
X151152639Y-63095130D01*
X151160286Y-63096387D01*
X151197873Y-63095130D01*
X151213010Y-63095130D01*
X151216069Y-63094521D01*
X151224427Y-63094242D01*
X151237217Y-63094100D01*
X151243769Y-63095027D01*
X151266178Y-63093777D01*
X151288634Y-63093527D01*
X151295113Y-63092163D01*
X151307873Y-63091451D01*
X151320211Y-63091039D01*
X151326832Y-63091826D01*
X151349394Y-63090063D01*
X151372022Y-63089306D01*
X151378518Y-63087787D01*
X151390846Y-63086823D01*
X151402766Y-63086158D01*
X151409456Y-63086803D01*
X151432164Y-63084518D01*
X151454940Y-63083248D01*
X151461445Y-63081573D01*
X151473336Y-63080376D01*
X151484863Y-63079475D01*
X151491604Y-63079974D01*
X151514396Y-63077167D01*
X151537343Y-63075374D01*
X151543864Y-63073539D01*
X151555305Y-63072130D01*
X151566445Y-63071009D01*
X151573243Y-63071360D01*
X151596147Y-63068021D01*
X151619216Y-63065700D01*
X151625737Y-63063707D01*
X151636786Y-63062096D01*
X151647508Y-63060776D01*
X151654361Y-63060977D01*
X151677359Y-63057100D01*
X151700519Y-63054248D01*
X151707033Y-63052097D01*
X151717674Y-63050304D01*
X151728028Y-63048794D01*
X151734938Y-63048843D01*
X151758012Y-63044423D01*
X151781222Y-63041039D01*
X151787723Y-63038731D01*
X151798012Y-63036760D01*
X151807966Y-63035082D01*
X151814900Y-63034977D01*
X151837969Y-63030024D01*
X151861311Y-63026089D01*
X151867814Y-63023616D01*
X151877669Y-63021500D01*
X151887284Y-63019658D01*
X151894273Y-63019397D01*
X151917430Y-63013883D01*
X151940766Y-63009413D01*
X151947234Y-63006787D01*
X151956755Y-63004520D01*
X151965986Y-63002538D01*
X151973010Y-63002119D01*
X151996150Y-62996062D01*
X152019518Y-62991045D01*
X152025972Y-62988256D01*
X152035112Y-62985864D01*
X152044025Y-62983742D01*
X152051076Y-62983163D01*
X152074195Y-62976559D01*
X152097587Y-62970989D01*
X152104018Y-62968039D01*
X152112830Y-62965521D01*
X152121361Y-62963288D01*
X152128435Y-62962549D01*
X152151534Y-62955391D01*
X152174930Y-62949267D01*
X152181327Y-62946158D01*
X152189775Y-62943540D01*
X152197994Y-62941193D01*
X152205108Y-62940288D01*
X152228202Y-62932563D01*
X152251511Y-62925904D01*
X152257861Y-62922641D01*
X152265992Y-62919921D01*
X152273903Y-62917470D01*
X152281022Y-62916403D01*
X152303981Y-62908149D01*
X152327296Y-62900924D01*
X152333627Y-62897491D01*
X152341406Y-62894694D01*
X152349036Y-62892142D01*
X152356172Y-62890909D01*
X152379057Y-62882100D01*
X152402302Y-62874324D01*
X152408586Y-62870733D01*
X152416065Y-62867854D01*
X152423376Y-62865226D01*
X152430530Y-62863824D01*
X152453320Y-62854461D01*
X152476459Y-62846142D01*
X152482694Y-62842392D01*
X152489868Y-62839445D01*
X152496910Y-62836734D01*
X152504073Y-62835163D01*
X152526723Y-62825258D01*
X152549763Y-62816389D01*
X152555952Y-62812476D01*
X152562832Y-62809467D01*
X152569597Y-62806688D01*
X152576761Y-62804947D01*
X152599257Y-62794502D01*
X152622184Y-62785082D01*
X152628321Y-62781007D01*
X152634937Y-62777935D01*
X152641409Y-62775105D01*
X152648585Y-62773189D01*
X152670950Y-62762186D01*
X152693698Y-62752238D01*
X152699768Y-62748008D01*
X152706115Y-62744886D01*
X152712349Y-62741991D01*
X152719524Y-62739901D01*
X152741686Y-62728369D01*
X152764268Y-62717884D01*
X152770281Y-62713490D01*
X152776377Y-62710318D01*
X152782372Y-62707369D01*
X152789542Y-62705103D01*
X152811490Y-62693043D01*
X152833884Y-62682026D01*
X152839834Y-62677470D01*
X152845683Y-62674255D01*
X152851438Y-62671261D01*
X152858596Y-62668819D01*
X152880317Y-62656234D01*
X152902522Y-62644680D01*
X152908404Y-62639961D01*
X152914026Y-62636704D01*
X152919542Y-62633673D01*
X152926703Y-62631046D01*
X152948216Y-62617918D01*
X152970149Y-62605866D01*
X152975948Y-62600993D01*
X152981350Y-62597697D01*
X152986665Y-62594617D01*
X152993801Y-62591813D01*
X153015006Y-62578197D01*
X153036722Y-62565615D01*
X153042456Y-62560571D01*
X153047637Y-62557244D01*
X153052767Y-62554114D01*
X153059884Y-62551126D01*
X153080808Y-62537001D01*
X153102253Y-62523914D01*
X153107903Y-62518711D01*
X153112878Y-62515352D01*
X153117817Y-62512180D01*
X153124916Y-62509006D01*
X153145540Y-62494380D01*
X153166685Y-62480802D01*
X153172249Y-62475437D01*
X153177050Y-62472033D01*
X153181800Y-62468826D01*
X153188873Y-62465464D01*
X153209169Y-62450350D01*
X153230008Y-62436283D01*
X153235484Y-62430755D01*
X153240103Y-62427315D01*
X153244684Y-62424066D01*
X153251725Y-62420516D01*
X153271671Y-62404927D01*
X153292186Y-62390378D01*
X153297569Y-62384687D01*
X153302010Y-62381216D01*
X153306444Y-62377914D01*
X153313446Y-62374175D01*
X153333019Y-62358125D01*
X153353196Y-62343100D01*
X153358482Y-62337245D01*
X153362762Y-62333736D01*
X153367048Y-62330386D01*
X153374014Y-62326452D01*
X153393210Y-62309939D01*
X153413009Y-62294465D01*
X153418191Y-62288449D01*
X153422321Y-62284896D01*
X153426473Y-62281492D01*
X153433389Y-62277367D01*
X153452167Y-62260422D01*
X153471594Y-62244492D01*
X153476671Y-62238311D01*
X153480668Y-62234704D01*
X153484678Y-62231254D01*
X153491544Y-62226934D01*
X153509907Y-62209552D01*
X153528930Y-62193187D01*
X153533891Y-62186847D01*
X153537745Y-62183199D01*
X153541653Y-62179673D01*
X153548469Y-62175152D01*
X153566395Y-62157347D01*
X153584979Y-62140577D01*
X153589821Y-62134079D01*
X153593563Y-62130362D01*
X153597362Y-62126765D01*
X153604106Y-62122053D01*
X153621538Y-62103880D01*
X153639711Y-62086677D01*
X153644437Y-62080007D01*
X153648045Y-62076245D01*
X153651763Y-62072553D01*
X153658443Y-62067639D01*
X153675410Y-62049065D01*
X153693114Y-62031480D01*
X153697707Y-62024656D01*
X153701222Y-62020807D01*
X153704823Y-62017054D01*
X153711424Y-62011944D01*
X153727891Y-61993005D01*
X153745132Y-61975031D01*
X153749590Y-61968048D01*
X153753023Y-61964100D01*
X153756517Y-61960275D01*
X153763047Y-61954957D01*
X153779027Y-61935633D01*
X153795752Y-61917324D01*
X153800061Y-61910197D01*
X153803387Y-61906175D01*
X153806822Y-61902225D01*
X153813254Y-61896715D01*
X153828680Y-61877086D01*
X153844921Y-61858407D01*
X153849089Y-61851116D01*
X153852338Y-61846981D01*
X153855690Y-61842928D01*
X153862031Y-61837214D01*
X153876924Y-61817251D01*
X153892630Y-61798259D01*
X153896639Y-61790825D01*
X153899802Y-61786586D01*
X153903095Y-61782396D01*
X153909325Y-61776489D01*
X153923642Y-61756250D01*
X153938827Y-61736928D01*
X153942679Y-61729339D01*
X153945763Y-61724979D01*
X153948996Y-61720646D01*
X153955118Y-61714538D01*
X153968867Y-61694011D01*
X153983492Y-61674408D01*
X153987174Y-61666680D01*
X153990185Y-61662185D01*
X153993361Y-61657694D01*
X153999353Y-61651401D01*
X154012495Y-61630646D01*
X154026578Y-61610739D01*
X154030090Y-61602861D01*
X154033018Y-61598237D01*
X154036140Y-61593576D01*
X154042005Y-61587087D01*
X154054561Y-61566075D01*
X154068061Y-61545919D01*
X154071387Y-61537914D01*
X154074258Y-61533109D01*
X154077312Y-61528288D01*
X154083042Y-61521605D01*
X154094989Y-61500370D01*
X154107891Y-61479996D01*
X154111027Y-61471867D01*
X154113834Y-61466878D01*
X154116833Y-61461858D01*
X154122411Y-61454996D01*
X154133727Y-61433586D01*
X154146041Y-61412977D01*
X154148983Y-61404719D01*
X154151718Y-61399544D01*
X154154656Y-61394322D01*
X154160078Y-61387279D01*
X154170771Y-61365681D01*
X154182476Y-61344877D01*
X154185213Y-61336510D01*
X154187883Y-61331116D01*
X154190751Y-61325690D01*
X154196007Y-61318472D01*
X154206063Y-61296719D01*
X154217150Y-61275741D01*
X154219677Y-61267269D01*
X154222263Y-61261675D01*
X154225083Y-61255979D01*
X154230159Y-61248598D01*
X154239558Y-61226740D01*
X154250030Y-61205589D01*
X154252343Y-61197010D01*
X154254843Y-61191196D01*
X154257604Y-61185224D01*
X154262496Y-61177681D01*
X154271242Y-61155721D01*
X154281078Y-61134444D01*
X154283168Y-61125777D01*
X154285596Y-61119681D01*
X154288267Y-61113470D01*
X154292962Y-61105780D01*
X154301051Y-61083742D01*
X154310258Y-61062331D01*
X154312121Y-61053582D01*
X154314454Y-61047226D01*
X154317042Y-61040727D01*
X154321539Y-61032885D01*
X154328978Y-61010759D01*
X154337533Y-60989278D01*
X154339160Y-60980472D01*
X154341394Y-60973826D01*
X154343892Y-60967019D01*
X154348174Y-60959051D01*
X154354941Y-60936916D01*
X154362857Y-60915350D01*
X154364247Y-60906480D01*
X154366370Y-60899534D01*
X154368767Y-60892406D01*
X154372828Y-60884317D01*
X154378934Y-60862163D01*
X154382499Y-60851560D01*
X154421414Y-61144584D01*
X154896807Y-65040429D01*
X154890385Y-65090914D01*
X154913161Y-65174453D01*
X154915318Y-65192126D01*
X154930875Y-65239423D01*
X154962067Y-65353828D01*
X154973261Y-65368285D01*
X154978973Y-65385651D01*
X155056308Y-65475540D01*
X155086792Y-65514910D01*
X155100227Y-65526589D01*
X155156700Y-65592229D01*
X155202130Y-65615170D01*
X155206032Y-65618562D01*
X155217015Y-65637546D01*
X155308316Y-65707474D01*
X155343223Y-65737818D01*
X155361785Y-65748427D01*
X155378752Y-65761422D01*
X155420239Y-65781835D01*
X155520098Y-65838908D01*
X155541856Y-65841676D01*
X155827611Y-65982278D01*
X155856524Y-66000198D01*
X155887988Y-66011987D01*
X155918141Y-66026823D01*
X155951009Y-66035598D01*
X157292242Y-66538116D01*
X158683059Y-67060000D01*
X151881196Y-67060000D01*
X151760485Y-67010000D01*
X151388519Y-67010000D01*
X151044867Y-67152345D01*
X150781847Y-67415365D01*
X150639502Y-67759017D01*
X150639502Y-68130983D01*
X150781847Y-68474635D01*
X151044867Y-68737655D01*
X151388519Y-68880000D01*
X151760485Y-68880000D01*
X151881196Y-68830000D01*
X158510422Y-68830000D01*
X161447501Y-71767080D01*
X161447501Y-72355097D01*
X161302191Y-72452191D01*
X161285378Y-72477353D01*
X161179698Y-72371673D01*
X160946309Y-72275000D01*
X160533250Y-72275000D01*
X160374500Y-72433750D01*
X160374500Y-73533000D01*
X160394500Y-73533000D01*
X160394500Y-73787000D01*
X160374500Y-73787000D01*
X160374500Y-74886250D01*
X160533250Y-75045000D01*
X160946309Y-75045000D01*
X161179698Y-74948327D01*
X161285378Y-74842647D01*
X161302191Y-74867809D01*
X161357500Y-74904766D01*
X161357500Y-75004306D01*
X161307500Y-75125017D01*
X161307500Y-75496983D01*
X161449845Y-75840635D01*
X161712865Y-76103655D01*
X162056517Y-76246000D01*
X162428483Y-76246000D01*
X162772135Y-76103655D01*
X163035155Y-75840635D01*
X163177500Y-75496983D01*
X163177500Y-75125017D01*
X163130897Y-75012507D01*
X163152765Y-75008157D01*
X163362809Y-74867809D01*
X163503157Y-74657765D01*
X163552440Y-74410000D01*
X163552440Y-72910000D01*
X163503157Y-72662235D01*
X163362809Y-72452191D01*
X163217500Y-72355098D01*
X163217500Y-71487661D01*
X163234837Y-71400500D01*
X163217500Y-71313339D01*
X163217500Y-71313335D01*
X163166152Y-71055190D01*
X163148445Y-71028690D01*
X163019924Y-70836345D01*
X163019923Y-70836344D01*
X162970549Y-70762451D01*
X162896656Y-70713077D01*
X159621344Y-67437766D01*
X161153617Y-68111512D01*
X163030879Y-69021749D01*
X163067634Y-69053135D01*
X163152390Y-69080666D01*
X163170687Y-69089538D01*
X163216426Y-69101467D01*
X163326813Y-69137324D01*
X163347624Y-69135684D01*
X163367818Y-69140951D01*
X163482781Y-69125035D01*
X163598480Y-69115919D01*
X163617074Y-69106443D01*
X163637754Y-69103580D01*
X163737882Y-69044876D01*
X163779993Y-69023415D01*
X163795960Y-69010825D01*
X163872839Y-68965752D01*
X163902006Y-68927211D01*
X166670875Y-66744037D01*
X168796314Y-65101544D01*
X169858724Y-64337869D01*
X169956036Y-64303078D01*
X170166404Y-64267957D01*
X170807208Y-64271099D01*
X171175629Y-64344186D01*
X171520976Y-64523379D01*
X172081485Y-64989449D01*
X173008236Y-65889062D01*
X174660637Y-67533001D01*
X174681480Y-67569801D01*
X174756424Y-67628297D01*
X174775068Y-67646846D01*
X174809499Y-67669725D01*
X174896298Y-67737474D01*
X174922286Y-67744668D01*
X174944749Y-67759594D01*
X175052807Y-67780800D01*
X175158931Y-67810178D01*
X175185696Y-67806879D01*
X175212158Y-67812072D01*
X175320098Y-67790313D01*
X175429393Y-67776842D01*
X175452859Y-67763551D01*
X175479295Y-67758222D01*
X175570697Y-67696809D01*
X175606660Y-67676440D01*
X175626572Y-67659267D01*
X175705488Y-67606243D01*
X175728895Y-67571017D01*
X181379346Y-62697707D01*
X181381010Y-62696752D01*
X181430296Y-62653764D01*
X181480057Y-62610847D01*
X181481243Y-62609327D01*
X183881511Y-60515781D01*
X183886492Y-60512810D01*
X183932228Y-60471544D01*
X183978805Y-60430919D01*
X183982360Y-60426312D01*
X185696080Y-58880086D01*
X185706663Y-58873239D01*
X185746066Y-58834985D01*
X185786885Y-58798156D01*
X185794424Y-58788038D01*
X186813516Y-57798676D01*
X186835739Y-57781584D01*
X186861794Y-57751806D01*
X186890195Y-57724234D01*
X186906121Y-57701147D01*
X187068629Y-57515421D01*
X187079171Y-57509757D01*
X187158064Y-57413208D01*
X187194894Y-57371116D01*
X187200707Y-57361022D01*
X187208078Y-57352001D01*
X187234343Y-57302611D01*
X187293277Y-57200269D01*
X187314236Y-57177788D01*
X187346196Y-57092275D01*
X187356766Y-57072399D01*
X187369770Y-57029201D01*
X187409640Y-56922524D01*
X187408831Y-56899441D01*
X187415490Y-56877321D01*
X187404086Y-56764003D01*
X187402507Y-56718923D01*
X187397345Y-56697010D01*
X187388204Y-56606181D01*
X187366372Y-56565544D01*
X187276480Y-56183985D01*
X187272659Y-56153433D01*
X187261048Y-56118483D01*
X187252602Y-56082634D01*
X187239830Y-56054617D01*
X187012666Y-55370848D01*
X186911745Y-55044605D01*
X186856694Y-54757299D01*
X186838821Y-54104964D01*
X186957149Y-53449825D01*
X187219274Y-52777707D01*
X187444095Y-52389171D01*
X187712354Y-52034406D01*
X188014781Y-51721876D01*
X188347247Y-51451749D01*
X188705435Y-51224648D01*
X189084766Y-51041469D01*
X189480373Y-50903209D01*
X189887155Y-50810827D01*
X190299926Y-50765136D01*
X190713462Y-50766771D01*
X191122743Y-50816195D01*
X191523016Y-50913782D01*
X191909982Y-51059983D01*
X192279767Y-51255544D01*
X192628848Y-51501734D01*
X192958929Y-51805245D01*
X193520102Y-52447239D01*
X193672554Y-52678642D01*
X193777034Y-52900805D01*
X193849268Y-53148029D01*
X193896731Y-53455880D01*
X193932248Y-54422220D01*
X193914431Y-55146124D01*
X193853355Y-55603228D01*
X193739862Y-55932749D01*
X193531661Y-56296921D01*
X193087634Y-56867629D01*
X192587074Y-57316661D01*
X192034610Y-57653420D01*
X191439210Y-57878206D01*
X190808789Y-57989435D01*
X190151060Y-57983424D01*
X189474270Y-57854590D01*
X188761753Y-57586085D01*
X188131034Y-57286479D01*
X188027485Y-57230288D01*
X187940647Y-57221181D01*
X187855972Y-57199820D01*
X187806345Y-57207096D01*
X187756461Y-57201865D01*
X187672741Y-57226686D01*
X187586346Y-57239353D01*
X187543281Y-57265067D01*
X187495192Y-57279324D01*
X187427341Y-57334295D01*
X187352371Y-57379059D01*
X187282031Y-57473569D01*
X186735519Y-58130992D01*
X181693202Y-63979004D01*
X177271890Y-69083486D01*
X177237702Y-69105901D01*
X177183412Y-69185636D01*
X177165285Y-69206564D01*
X177145525Y-69241280D01*
X177084332Y-69331154D01*
X177078551Y-69358948D01*
X177064509Y-69383618D01*
X177050979Y-69491502D01*
X177028837Y-69597953D01*
X177034132Y-69625841D01*
X177030599Y-69654009D01*
X177059386Y-69758861D01*
X177079666Y-69865679D01*
X177095231Y-69889420D01*
X177102747Y-69916795D01*
X177169462Y-70002643D01*
X177191367Y-70036053D01*
X177210776Y-70055804D01*
X177269966Y-70131968D01*
X177305494Y-70152190D01*
X178509429Y-71377330D01*
X179287117Y-72255478D01*
X179520346Y-72594643D01*
X179677585Y-72896415D01*
X179767126Y-73162235D01*
X179804463Y-73414038D01*
X179796510Y-73681359D01*
X179752220Y-73921512D01*
X179591689Y-74217314D01*
X179088250Y-74961088D01*
X177446085Y-77158012D01*
X175862237Y-79226248D01*
X175851168Y-79236882D01*
X175821272Y-79279741D01*
X175789529Y-79321192D01*
X175782759Y-79334953D01*
X175216077Y-80147351D01*
X175213783Y-80148843D01*
X175138254Y-80258919D01*
X175101098Y-80312185D01*
X175100029Y-80314627D01*
X175059603Y-80373543D01*
X175045904Y-80438234D01*
X175019382Y-80498804D01*
X175017951Y-80570240D01*
X175003149Y-80640141D01*
X175015248Y-80705146D01*
X175013924Y-80771258D01*
X175039940Y-80837805D01*
X175040428Y-80840426D01*
X175064541Y-80900732D01*
X175113147Y-81025062D01*
X175115043Y-81027035D01*
X175330976Y-81567079D01*
X175334632Y-81582664D01*
X175355977Y-81629605D01*
X175375124Y-81677492D01*
X175383854Y-81690912D01*
X176044345Y-83143459D01*
X176881571Y-85080927D01*
X177546073Y-86858432D01*
X178021212Y-88258185D01*
X177966839Y-88269000D01*
X168006578Y-88269000D01*
X167974656Y-88237078D01*
X167924655Y-88116365D01*
X167661635Y-87853345D01*
X167317983Y-87711000D01*
X166946017Y-87711000D01*
X166602365Y-87853345D01*
X166339345Y-88116365D01*
X166197000Y-88460017D01*
X166197000Y-88831983D01*
X166339345Y-89175635D01*
X166602365Y-89438655D01*
X166723078Y-89488656D01*
X166952575Y-89718153D01*
X167001951Y-89792049D01*
X167190449Y-89918000D01*
X166918445Y-89918000D01*
X166908655Y-89894365D01*
X166645635Y-89631345D01*
X166301983Y-89489000D01*
X165930017Y-89489000D01*
X165586365Y-89631345D01*
X165323345Y-89894365D01*
X165181000Y-90238017D01*
X165181000Y-90609983D01*
X165323345Y-90953635D01*
X165586365Y-91216655D01*
X165930017Y-91359000D01*
X166021226Y-91359000D01*
X166073463Y-91393904D01*
X166295148Y-91438000D01*
X166295152Y-91438000D01*
X166369999Y-91452888D01*
X166444846Y-91438000D01*
X166918975Y-91438000D01*
X166756673Y-91600301D01*
X166660000Y-91833690D01*
X166660000Y-92424250D01*
X166818750Y-92583000D01*
X167740500Y-92583000D01*
X167740500Y-92563000D01*
X167994500Y-92563000D01*
X167994500Y-92583000D01*
X168014500Y-92583000D01*
X168014500Y-92837000D01*
X167994500Y-92837000D01*
X167994500Y-93936250D01*
X168153250Y-94095000D01*
X168566309Y-94095000D01*
X168799698Y-93998327D01*
X168905378Y-93892647D01*
X168922191Y-93917809D01*
X169041000Y-93997195D01*
X169041000Y-94181306D01*
X168991000Y-94302017D01*
X168991000Y-94673983D01*
X169133345Y-95017635D01*
X169396365Y-95280655D01*
X169740017Y-95423000D01*
X170111983Y-95423000D01*
X170455635Y-95280655D01*
X170718655Y-95017635D01*
X170861000Y-94673983D01*
X170861000Y-94302017D01*
X170811000Y-94181306D01*
X170811000Y-94032609D01*
X170982809Y-93917809D01*
X171123157Y-93707765D01*
X171145587Y-93595000D01*
X173856723Y-93595000D01*
X173972191Y-93767809D01*
X174182235Y-93908157D01*
X174430000Y-93957440D01*
X175330000Y-93957440D01*
X175577765Y-93908157D01*
X175787809Y-93767809D01*
X175928157Y-93557765D01*
X175977440Y-93310000D01*
X175977440Y-92110000D01*
X177082560Y-92110000D01*
X177082560Y-93310000D01*
X177131843Y-93557765D01*
X177272191Y-93767809D01*
X177482235Y-93908157D01*
X177730000Y-93957440D01*
X178630000Y-93957440D01*
X178877765Y-93908157D01*
X179087809Y-93767809D01*
X179203277Y-93595000D01*
X181233422Y-93595000D01*
X182322560Y-94684139D01*
X182322560Y-94780000D01*
X182371843Y-95027765D01*
X182512191Y-95237809D01*
X182722235Y-95378157D01*
X182970000Y-95427440D01*
X184408097Y-95427440D01*
X184560182Y-95794603D01*
X184865397Y-96099818D01*
X185264180Y-96265000D01*
X185695820Y-96265000D01*
X186094603Y-96099818D01*
X186399818Y-95794603D01*
X186565000Y-95395820D01*
X186565000Y-94964180D01*
X186399818Y-94565397D01*
X186094603Y-94260182D01*
X185695820Y-94095000D01*
X185264180Y-94095000D01*
X185117440Y-94155782D01*
X185117440Y-94080000D01*
X185114202Y-94063720D01*
X185227809Y-93987809D01*
X185368157Y-93777765D01*
X185417440Y-93530000D01*
X185417440Y-92530000D01*
X185368157Y-92282235D01*
X185227809Y-92072191D01*
X185017765Y-91931843D01*
X184770000Y-91882560D01*
X183970000Y-91882560D01*
X183722235Y-91931843D01*
X183512191Y-92072191D01*
X183371843Y-92282235D01*
X183322560Y-92530000D01*
X183322560Y-93180981D01*
X182287425Y-92145847D01*
X182238049Y-92071951D01*
X181945310Y-91876348D01*
X181687165Y-91825000D01*
X181687161Y-91825000D01*
X181600000Y-91807663D01*
X181512839Y-91825000D01*
X179203277Y-91825000D01*
X179087809Y-91652191D01*
X178877765Y-91511843D01*
X178630000Y-91462560D01*
X177730000Y-91462560D01*
X177482235Y-91511843D01*
X177272191Y-91652191D01*
X177131843Y-91862235D01*
X177082560Y-92110000D01*
X175977440Y-92110000D01*
X175928157Y-91862235D01*
X175787809Y-91652191D01*
X175577765Y-91511843D01*
X175330000Y-91462560D01*
X174430000Y-91462560D01*
X174182235Y-91511843D01*
X173972191Y-91652191D01*
X173856723Y-91825000D01*
X171145587Y-91825000D01*
X171123157Y-91712235D01*
X170982809Y-91502191D01*
X170886741Y-91438000D01*
X179015710Y-91438000D01*
X179048365Y-91470655D01*
X179392017Y-91613000D01*
X179763983Y-91613000D01*
X180107635Y-91470655D01*
X180370655Y-91207635D01*
X180513000Y-90863983D01*
X180513000Y-90492017D01*
X180370655Y-90148365D01*
X180107635Y-89885345D01*
X179763983Y-89743000D01*
X179497000Y-89743000D01*
X179497000Y-89476017D01*
X179357442Y-89139094D01*
X182035853Y-89492633D01*
X182037192Y-89493082D01*
X182102636Y-89501448D01*
X182168212Y-89510104D01*
X182169624Y-89510012D01*
X184568132Y-89816632D01*
X185997151Y-90085667D01*
X186386786Y-90211276D01*
X186641923Y-90338470D01*
X186827448Y-90480016D01*
X187022541Y-90687191D01*
X187361533Y-91090408D01*
X187361533Y-92021224D01*
X187227765Y-91931843D01*
X186980000Y-91882560D01*
X186180000Y-91882560D01*
X185932235Y-91931843D01*
X185722191Y-92072191D01*
X185581843Y-92282235D01*
X185532560Y-92530000D01*
X185532560Y-93530000D01*
X185581843Y-93777765D01*
X185722191Y-93987809D01*
X185932235Y-94128157D01*
X186180000Y-94177440D01*
X186980000Y-94177440D01*
X187227765Y-94128157D01*
X187361532Y-94038776D01*
X187361532Y-96906439D01*
X187346682Y-99311301D01*
X187227765Y-99231843D01*
X186980000Y-99182560D01*
X186180000Y-99182560D01*
X185932235Y-99231843D01*
X185722191Y-99372191D01*
X185581843Y-99582235D01*
X185532560Y-99830000D01*
X185532560Y-100830000D01*
X185581843Y-101077765D01*
X185722191Y-101287809D01*
X185932235Y-101428157D01*
X186180000Y-101477440D01*
X186980000Y-101477440D01*
X187227765Y-101428157D01*
X187315192Y-101369740D01*
X187288481Y-102033564D01*
X187202571Y-102843406D01*
X187087537Y-103298176D01*
X186973685Y-103497676D01*
X186819788Y-103628670D01*
X186547352Y-103772646D01*
X186122958Y-103898677D01*
X185245894Y-104076935D01*
X182734331Y-104454481D01*
X181586049Y-104584465D01*
X180264786Y-104682841D01*
X178370709Y-104754002D01*
X175541907Y-104800963D01*
X175444737Y-104791600D01*
X175341858Y-104823045D01*
X175236714Y-104845780D01*
X175212406Y-104862612D01*
X175184129Y-104871255D01*
X175101116Y-104939676D01*
X175012674Y-105000918D01*
X174996657Y-105025773D01*
X174973841Y-105044578D01*
X174923330Y-105139559D01*
X174865058Y-105229984D01*
X174859772Y-105259074D01*
X174845889Y-105285180D01*
X174835571Y-105392258D01*
X174816338Y-105498101D01*
X174822587Y-105527001D01*
X174819751Y-105556432D01*
X174851196Y-105659311D01*
X174873931Y-105764455D01*
X174881787Y-105775800D01*
X174750760Y-106100252D01*
X173983816Y-107680103D01*
X172921940Y-109775231D01*
X172889722Y-109811713D01*
X172860895Y-109895676D01*
X172851852Y-109913518D01*
X172839025Y-109959374D01*
X172801231Y-110069455D01*
X172802503Y-110089944D01*
X172796973Y-110109713D01*
X172810901Y-110225275D01*
X172818111Y-110341441D01*
X172827125Y-110359882D01*
X172829582Y-110380263D01*
X172886670Y-110481691D01*
X172907581Y-110524468D01*
X172919702Y-110540378D01*
X172963245Y-110617741D01*
X173001533Y-110647792D01*
X173691368Y-111553292D01*
X173693385Y-111557287D01*
X173732208Y-111606900D01*
X173770417Y-111657055D01*
X173773774Y-111660020D01*
X176323071Y-114917877D01*
X177583686Y-116625842D01*
X177920408Y-117161089D01*
X177888450Y-117206594D01*
X177164484Y-118049314D01*
X175940612Y-119344268D01*
X174241632Y-121061655D01*
X172031995Y-123245509D01*
X170823469Y-124365092D01*
X170542731Y-124577584D01*
X169461112Y-123799753D01*
X167139385Y-122005039D01*
X164287756Y-119757000D01*
X168095306Y-119757000D01*
X168216017Y-119807000D01*
X168587983Y-119807000D01*
X168931635Y-119664655D01*
X169194655Y-119401635D01*
X169337000Y-119057983D01*
X169337000Y-118686017D01*
X169194655Y-118342365D01*
X168931635Y-118079345D01*
X168587983Y-117937000D01*
X168216017Y-117937000D01*
X168095306Y-117987000D01*
X161853025Y-117987000D01*
X162018327Y-117821699D01*
X162115000Y-117588310D01*
X162115000Y-117247750D01*
X161956250Y-117089000D01*
X160757000Y-117089000D01*
X160757000Y-117109000D01*
X160503000Y-117109000D01*
X160503000Y-117089000D01*
X159303750Y-117089000D01*
X159145000Y-117247750D01*
X159145000Y-117588310D01*
X159241673Y-117821699D01*
X159406975Y-117987000D01*
X155553025Y-117987000D01*
X155718327Y-117821699D01*
X155815000Y-117588310D01*
X155815000Y-117247750D01*
X155656250Y-117089000D01*
X154457000Y-117089000D01*
X154457000Y-117109000D01*
X154203000Y-117109000D01*
X154203000Y-117089000D01*
X153003750Y-117089000D01*
X152845000Y-117247750D01*
X152845000Y-117588310D01*
X152941673Y-117821699D01*
X153106975Y-117987000D01*
X152741161Y-117987000D01*
X152654000Y-117969663D01*
X152566839Y-117987000D01*
X152566835Y-117987000D01*
X152308690Y-118038348D01*
X152089845Y-118184576D01*
X152089844Y-118184577D01*
X152015951Y-118233951D01*
X151966577Y-118307844D01*
X150467077Y-119807344D01*
X150346365Y-119857345D01*
X150083345Y-120120365D01*
X149941000Y-120464017D01*
X149941000Y-120835983D01*
X150083345Y-121179635D01*
X150346365Y-121442655D01*
X150690017Y-121585000D01*
X151061983Y-121585000D01*
X151405635Y-121442655D01*
X151668655Y-121179635D01*
X151718656Y-121058923D01*
X153020579Y-119757000D01*
X162757782Y-119757000D01*
X160966078Y-120665514D01*
X159894047Y-121174735D01*
X158674064Y-121699534D01*
X157457697Y-122177567D01*
X156392514Y-122548079D01*
X154771461Y-123080171D01*
X154754932Y-123082998D01*
X154707460Y-123101179D01*
X154659192Y-123117022D01*
X154644595Y-123125254D01*
X153922612Y-123401756D01*
X153800525Y-123445923D01*
X153744967Y-123496634D01*
X153681319Y-123536724D01*
X153645298Y-123587609D01*
X153599253Y-123629637D01*
X153567332Y-123697747D01*
X153523868Y-123759145D01*
X153495111Y-123885778D01*
X153414120Y-124213995D01*
X153404395Y-124240016D01*
X153397993Y-124279351D01*
X153388450Y-124318026D01*
X153387185Y-124345765D01*
X153251601Y-125178870D01*
X153248413Y-125188204D01*
X153240780Y-125245359D01*
X153231513Y-125302301D01*
X153231859Y-125312163D01*
X152843634Y-128219167D01*
X152720310Y-129094245D01*
X152458983Y-128986000D01*
X152087017Y-128986000D01*
X151743365Y-129128345D01*
X151480345Y-129391365D01*
X151430344Y-129512078D01*
X151077421Y-129865001D01*
X148980000Y-129865001D01*
X148980000Y-129685750D01*
X148821250Y-129527000D01*
X148072000Y-129527000D01*
X148072000Y-129547000D01*
X147818000Y-129547000D01*
X147818000Y-129527000D01*
X147798000Y-129527000D01*
X147798000Y-129273000D01*
X147818000Y-129273000D01*
X147818000Y-128123750D01*
X148072000Y-128123750D01*
X148072000Y-129273000D01*
X148821250Y-129273000D01*
X148980000Y-129114250D01*
X148980000Y-128473690D01*
X148950965Y-128403593D01*
X148987191Y-128457809D01*
X149197235Y-128598157D01*
X149445000Y-128647440D01*
X151545000Y-128647440D01*
X151792765Y-128598157D01*
X152002809Y-128457809D01*
X152143157Y-128247765D01*
X152192440Y-128000000D01*
X152192440Y-125000000D01*
X152143157Y-124752235D01*
X152002809Y-124542191D01*
X151792765Y-124401843D01*
X151545000Y-124352560D01*
X149445000Y-124352560D01*
X149197235Y-124401843D01*
X148987191Y-124542191D01*
X148846843Y-124752235D01*
X148797560Y-125000000D01*
X148797560Y-128000000D01*
X148835931Y-128192905D01*
X148704698Y-128061673D01*
X148471309Y-127965000D01*
X148230750Y-127965000D01*
X148072000Y-128123750D01*
X147818000Y-128123750D01*
X147659250Y-127965000D01*
X147418691Y-127965000D01*
X147333968Y-128000093D01*
X147095000Y-127952560D01*
X146295000Y-127952560D01*
X146047235Y-128001843D01*
X145837191Y-128142191D01*
X145804393Y-128191276D01*
X145842440Y-128000000D01*
X145842440Y-125000000D01*
X145793157Y-124752235D01*
X145652809Y-124542191D01*
X145442765Y-124401843D01*
X145195000Y-124352560D01*
X143095000Y-124352560D01*
X142847235Y-124401843D01*
X142637191Y-124542191D01*
X142496843Y-124752235D01*
X142447560Y-125000000D01*
X142447560Y-128000000D01*
X142496843Y-128247765D01*
X142637191Y-128457809D01*
X142847235Y-128598157D01*
X143095000Y-128647440D01*
X145195000Y-128647440D01*
X145442765Y-128598157D01*
X145652809Y-128457809D01*
X145685607Y-128408724D01*
X145647560Y-128600000D01*
X145647560Y-130200000D01*
X145696843Y-130447765D01*
X145809345Y-130616134D01*
X145792663Y-130700000D01*
X145861348Y-131045309D01*
X146007576Y-131264154D01*
X146007578Y-131264156D01*
X146056952Y-131338049D01*
X146086924Y-131358075D01*
X146106952Y-131388050D01*
X146399691Y-131583653D01*
X146657836Y-131635001D01*
X146657841Y-131635001D01*
X146745000Y-131652338D01*
X146832160Y-131635001D01*
X151356838Y-131635001D01*
X151443999Y-131652338D01*
X151531160Y-131635001D01*
X151531164Y-131635001D01*
X151789309Y-131583653D01*
X152082048Y-131388050D01*
X152131424Y-131314154D01*
X152452746Y-130992832D01*
X152421305Y-131215930D01*
X152248569Y-132146138D01*
X152240120Y-132174542D01*
X152148479Y-132188697D01*
X150911112Y-132278761D01*
X147161125Y-132359974D01*
X143374258Y-132298445D01*
X142088239Y-132214631D01*
X141847272Y-132181260D01*
X141699334Y-131584491D01*
X141497810Y-130320182D01*
X141240900Y-128328574D01*
X140755066Y-124166412D01*
X140756201Y-124162217D01*
X140739301Y-124031357D01*
X140731952Y-123968396D01*
X140730650Y-123964366D01*
X140721298Y-123891953D01*
X140689159Y-123835968D01*
X140669309Y-123774541D01*
X140621977Y-123718941D01*
X140619870Y-123715271D01*
X140578237Y-123667561D01*
X140541474Y-123624376D01*
X140510640Y-123569718D01*
X140454446Y-123525701D01*
X140452738Y-123523743D01*
X140401363Y-123484120D01*
X140350260Y-123444090D01*
X140347940Y-123442917D01*
X140291418Y-123399324D01*
X140227532Y-123382037D01*
X140084742Y-123309840D01*
X140033519Y-123282184D01*
X140024631Y-123279447D01*
X140016334Y-123275252D01*
X139960270Y-123259628D01*
X139326522Y-123064479D01*
X139321797Y-123062021D01*
X139262097Y-123044640D01*
X139202666Y-123026340D01*
X139197367Y-123025796D01*
X137802170Y-122619612D01*
X136062717Y-121982807D01*
X134263556Y-121222363D01*
X132650126Y-120434953D01*
X131379862Y-119757000D01*
X133259421Y-119757000D01*
X134462576Y-120960156D01*
X134511950Y-121034049D01*
X134585843Y-121083423D01*
X134585844Y-121083424D01*
X134630295Y-121113125D01*
X134804689Y-121229652D01*
X135062834Y-121281000D01*
X135062838Y-121281000D01*
X135149998Y-121298337D01*
X135237158Y-121281000D01*
X147013306Y-121281000D01*
X147134017Y-121331000D01*
X147505983Y-121331000D01*
X147849635Y-121188655D01*
X148112655Y-120925635D01*
X148255000Y-120581983D01*
X148255000Y-120210017D01*
X148112655Y-119866365D01*
X147849635Y-119603345D01*
X147505983Y-119461000D01*
X147134017Y-119461000D01*
X147013306Y-119511000D01*
X135516578Y-119511000D01*
X134313424Y-118307847D01*
X134264048Y-118233951D01*
X134059087Y-118097000D01*
X134137002Y-118097000D01*
X134137002Y-117938252D01*
X134295750Y-118097000D01*
X134986309Y-118097000D01*
X135219698Y-118000327D01*
X135398327Y-117821699D01*
X135495000Y-117588310D01*
X135495000Y-117247750D01*
X138825000Y-117247750D01*
X138825000Y-117588310D01*
X138921673Y-117821699D01*
X139100302Y-118000327D01*
X139333691Y-118097000D01*
X140024250Y-118097000D01*
X140183000Y-117938250D01*
X140183000Y-117089000D01*
X140437000Y-117089000D01*
X140437000Y-117938250D01*
X140595750Y-118097000D01*
X141286309Y-118097000D01*
X141519698Y-118000327D01*
X141698327Y-117821699D01*
X141795000Y-117588310D01*
X141795000Y-117247750D01*
X141636250Y-117089000D01*
X140437000Y-117089000D01*
X140183000Y-117089000D01*
X138983750Y-117089000D01*
X138825000Y-117247750D01*
X135495000Y-117247750D01*
X135336250Y-117089000D01*
X134137000Y-117089000D01*
X134137000Y-117109000D01*
X133883000Y-117109000D01*
X133883000Y-117089000D01*
X132683750Y-117089000D01*
X132525000Y-117247750D01*
X132525000Y-117588310D01*
X132621673Y-117821699D01*
X132786975Y-117987000D01*
X130354694Y-117987000D01*
X130233983Y-117937000D01*
X129862017Y-117937000D01*
X129518365Y-118079345D01*
X129255345Y-118342365D01*
X129113000Y-118686017D01*
X129113000Y-119057983D01*
X129255345Y-119401635D01*
X129518365Y-119664655D01*
X129759459Y-119764519D01*
X126838583Y-122078791D01*
X124461180Y-123916786D01*
X123546185Y-124558477D01*
X123016048Y-124148049D01*
X121780187Y-122995902D01*
X119803194Y-121049630D01*
X118109940Y-119337944D01*
X116889680Y-118046584D01*
X116167841Y-117206020D01*
X116136372Y-117161177D01*
X116473183Y-116625781D01*
X116687288Y-116335690D01*
X132525000Y-116335690D01*
X132525000Y-116676250D01*
X132683750Y-116835000D01*
X133883000Y-116835000D01*
X133883000Y-115985750D01*
X134137000Y-115985750D01*
X134137000Y-116835000D01*
X135336250Y-116835000D01*
X135495000Y-116676250D01*
X135495000Y-116335690D01*
X138825000Y-116335690D01*
X138825000Y-116676250D01*
X138983750Y-116835000D01*
X140183000Y-116835000D01*
X140183000Y-115985750D01*
X140437000Y-115985750D01*
X140437000Y-116835000D01*
X141636250Y-116835000D01*
X141795000Y-116676250D01*
X141795000Y-116335690D01*
X141698327Y-116102301D01*
X141519698Y-115923673D01*
X141286309Y-115827000D01*
X140595750Y-115827000D01*
X140437000Y-115985750D01*
X140183000Y-115985750D01*
X140024250Y-115827000D01*
X139333691Y-115827000D01*
X139100302Y-115923673D01*
X138921673Y-116102301D01*
X138825000Y-116335690D01*
X135495000Y-116335690D01*
X135398327Y-116102301D01*
X135219698Y-115923673D01*
X134986309Y-115827000D01*
X134295750Y-115827000D01*
X134137000Y-115985750D01*
X133883000Y-115985750D01*
X133724250Y-115827000D01*
X133033691Y-115827000D01*
X132800302Y-115923673D01*
X132621673Y-116102301D01*
X132525000Y-116335690D01*
X116687288Y-116335690D01*
X117733774Y-114917807D01*
X120283639Y-111659917D01*
X120287106Y-111656853D01*
X120325167Y-111606858D01*
X120363942Y-111557316D01*
X120366031Y-111553181D01*
X121055375Y-110647688D01*
X121093569Y-110617711D01*
X121127167Y-110558017D01*
X127335000Y-110558017D01*
X127335000Y-110929983D01*
X127477345Y-111273635D01*
X127740365Y-111536655D01*
X128084017Y-111679000D01*
X128455983Y-111679000D01*
X128799635Y-111536655D01*
X129062655Y-111273635D01*
X129177655Y-110996000D01*
X141078345Y-110996000D01*
X141193345Y-111273635D01*
X141456365Y-111536655D01*
X141800017Y-111679000D01*
X142008198Y-111679000D01*
X141537002Y-112150197D01*
X141407765Y-112063843D01*
X141160000Y-112014560D01*
X139460000Y-112014560D01*
X139212235Y-112063843D01*
X139002191Y-112204191D01*
X138870018Y-112402000D01*
X135449982Y-112402000D01*
X135317809Y-112204191D01*
X135107765Y-112063843D01*
X134860000Y-112014560D01*
X133160000Y-112014560D01*
X132912235Y-112063843D01*
X132702191Y-112204191D01*
X132561843Y-112414235D01*
X132512560Y-112662000D01*
X132512560Y-113662000D01*
X132561843Y-113909765D01*
X132702191Y-114119809D01*
X132912235Y-114260157D01*
X133160000Y-114309440D01*
X134860000Y-114309440D01*
X135107765Y-114260157D01*
X135317809Y-114119809D01*
X135449982Y-113922000D01*
X138870018Y-113922000D01*
X139002191Y-114119809D01*
X139212235Y-114260157D01*
X139460000Y-114309440D01*
X141160000Y-114309440D01*
X141407765Y-114260157D01*
X141617809Y-114119809D01*
X141749982Y-113922000D01*
X142692560Y-113922000D01*
X142692560Y-114492000D01*
X142741843Y-114739765D01*
X142882191Y-114949809D01*
X143092235Y-115090157D01*
X143340000Y-115139440D01*
X144460000Y-115139440D01*
X144707765Y-115090157D01*
X144780000Y-115041891D01*
X144852235Y-115090157D01*
X145100000Y-115139440D01*
X146220000Y-115139440D01*
X146467765Y-115090157D01*
X146677809Y-114949809D01*
X146818157Y-114739765D01*
X146830642Y-114677000D01*
X147809358Y-114677000D01*
X147821843Y-114739765D01*
X147962191Y-114949809D01*
X148172235Y-115090157D01*
X148420000Y-115139440D01*
X149280307Y-115139440D01*
X149179000Y-115384017D01*
X149179000Y-115755983D01*
X149321345Y-116099635D01*
X149584365Y-116362655D01*
X149928017Y-116505000D01*
X150299983Y-116505000D01*
X150643635Y-116362655D01*
X150676290Y-116330000D01*
X152847357Y-116330000D01*
X152845000Y-116335690D01*
X152845000Y-116676250D01*
X153003750Y-116835000D01*
X154203000Y-116835000D01*
X154203000Y-116815000D01*
X154457000Y-116815000D01*
X154457000Y-116835000D01*
X155656250Y-116835000D01*
X155815000Y-116676250D01*
X155815000Y-116335690D01*
X155812643Y-116330000D01*
X159147357Y-116330000D01*
X159145000Y-116335690D01*
X159145000Y-116676250D01*
X159303750Y-116835000D01*
X160503000Y-116835000D01*
X160503000Y-116815000D01*
X160757000Y-116815000D01*
X160757000Y-116835000D01*
X161956250Y-116835000D01*
X162115000Y-116676250D01*
X162115000Y-116335690D01*
X162112643Y-116330000D01*
X163176345Y-116330000D01*
X163291345Y-116607635D01*
X163554365Y-116870655D01*
X163898017Y-117013000D01*
X164269983Y-117013000D01*
X164613635Y-116870655D01*
X164876655Y-116607635D01*
X165019000Y-116263983D01*
X165019000Y-115892017D01*
X164876655Y-115548365D01*
X164613635Y-115285345D01*
X164269983Y-115143000D01*
X164223802Y-115143000D01*
X164166330Y-115085529D01*
X164123929Y-115022071D01*
X163872537Y-114854096D01*
X163650852Y-114810000D01*
X163650847Y-114810000D01*
X163576000Y-114795112D01*
X163501153Y-114810000D01*
X151851227Y-114810000D01*
X151898157Y-114739765D01*
X151935505Y-114552000D01*
X153625153Y-114552000D01*
X153700000Y-114566888D01*
X153774847Y-114552000D01*
X153774852Y-114552000D01*
X153996537Y-114507904D01*
X154247929Y-114339929D01*
X154268301Y-114309440D01*
X155180000Y-114309440D01*
X155427765Y-114260157D01*
X155637809Y-114119809D01*
X155769982Y-113922000D01*
X159190018Y-113922000D01*
X159322191Y-114119809D01*
X159532235Y-114260157D01*
X159780000Y-114309440D01*
X161480000Y-114309440D01*
X161727765Y-114260157D01*
X161937809Y-114119809D01*
X162078157Y-113909765D01*
X162127440Y-113662000D01*
X162127440Y-112662000D01*
X162078157Y-112414235D01*
X161937809Y-112204191D01*
X161727765Y-112063843D01*
X161480000Y-112014560D01*
X159780000Y-112014560D01*
X159532235Y-112063843D01*
X159322191Y-112204191D01*
X159190018Y-112402000D01*
X155769982Y-112402000D01*
X155637809Y-112204191D01*
X155427765Y-112063843D01*
X155180000Y-112014560D01*
X153480000Y-112014560D01*
X153232235Y-112063843D01*
X153022191Y-112204191D01*
X152881843Y-112414235D01*
X152832560Y-112662000D01*
X152832560Y-113032000D01*
X151935505Y-113032000D01*
X151898157Y-112844235D01*
X151757809Y-112634191D01*
X151547765Y-112493843D01*
X151300000Y-112444560D01*
X150607362Y-112444560D01*
X149692331Y-111529530D01*
X149649929Y-111466071D01*
X149398537Y-111298096D01*
X149176852Y-111254000D01*
X149176847Y-111254000D01*
X149102000Y-111239112D01*
X149027153Y-111254000D01*
X147628290Y-111254000D01*
X147595635Y-111221345D01*
X147251983Y-111079000D01*
X146880017Y-111079000D01*
X146536365Y-111221345D01*
X146431000Y-111326710D01*
X146325635Y-111221345D01*
X145981983Y-111079000D01*
X145610017Y-111079000D01*
X145266365Y-111221345D01*
X145003345Y-111484365D01*
X144861000Y-111828017D01*
X144861000Y-112199983D01*
X144911000Y-112320694D01*
X144911000Y-112482154D01*
X144852235Y-112493843D01*
X144780000Y-112542109D01*
X144707765Y-112493843D01*
X144460000Y-112444560D01*
X143639730Y-112444560D01*
X143794655Y-112289635D01*
X143937000Y-111945983D01*
X143937000Y-111574017D01*
X143794655Y-111230365D01*
X143531635Y-110967345D01*
X143187983Y-110825000D01*
X142921000Y-110825000D01*
X142921000Y-110558017D01*
X142778655Y-110214365D01*
X142515635Y-109951345D01*
X142171983Y-109809000D01*
X142125802Y-109809000D01*
X142068330Y-109751529D01*
X142025929Y-109688071D01*
X141997413Y-109669017D01*
X151655500Y-109669017D01*
X151655500Y-110040983D01*
X151797845Y-110384635D01*
X152060865Y-110647655D01*
X152404517Y-110790000D01*
X152776483Y-110790000D01*
X153120135Y-110647655D01*
X153218290Y-110549500D01*
X165393839Y-110549500D01*
X165481000Y-110566837D01*
X165568161Y-110549500D01*
X165568165Y-110549500D01*
X165826310Y-110498152D01*
X166119049Y-110302549D01*
X166168425Y-110228653D01*
X166397922Y-109999156D01*
X166518635Y-109949155D01*
X166781655Y-109686135D01*
X166924000Y-109342483D01*
X166924000Y-108970517D01*
X166781655Y-108626865D01*
X166518635Y-108363845D01*
X166174983Y-108221500D01*
X165803017Y-108221500D01*
X165459365Y-108363845D01*
X165196345Y-108626865D01*
X165146344Y-108747578D01*
X165114422Y-108779500D01*
X152868161Y-108779500D01*
X152781000Y-108762163D01*
X152693839Y-108779500D01*
X152693835Y-108779500D01*
X152435690Y-108830848D01*
X152142951Y-109026451D01*
X152141202Y-109029068D01*
X152060865Y-109062345D01*
X151797845Y-109325365D01*
X151655500Y-109669017D01*
X141997413Y-109669017D01*
X141774537Y-109520096D01*
X141552852Y-109476000D01*
X141552847Y-109476000D01*
X141478000Y-109461112D01*
X141403153Y-109476000D01*
X128852846Y-109476000D01*
X128777999Y-109461112D01*
X128703152Y-109476000D01*
X128703148Y-109476000D01*
X128481463Y-109520096D01*
X128481461Y-109520097D01*
X128481462Y-109520097D01*
X128293526Y-109645671D01*
X128293524Y-109645673D01*
X128230071Y-109688071D01*
X128187672Y-109751525D01*
X128130198Y-109809000D01*
X128084017Y-109809000D01*
X127740365Y-109951345D01*
X127477345Y-110214365D01*
X127335000Y-110558017D01*
X121127167Y-110558017D01*
X121137169Y-110540248D01*
X121149356Y-110524239D01*
X121170203Y-110481556D01*
X121227232Y-110380233D01*
X121229703Y-110359733D01*
X121238764Y-110341181D01*
X121245927Y-110225125D01*
X121259841Y-110109681D01*
X121254279Y-110089797D01*
X121255551Y-110069189D01*
X121217759Y-109959234D01*
X121204962Y-109913486D01*
X121195866Y-109895539D01*
X121166973Y-109811477D01*
X121134821Y-109775095D01*
X120073067Y-107680213D01*
X119306404Y-106100384D01*
X119252762Y-105967442D01*
X119276744Y-105952146D01*
X119315247Y-105897095D01*
X119363971Y-105850834D01*
X119392588Y-105786515D01*
X119432929Y-105728835D01*
X119447434Y-105663240D01*
X119474745Y-105601855D01*
X119476570Y-105531484D01*
X119491768Y-105462753D01*
X119480067Y-105396600D01*
X119481808Y-105329438D01*
X119456563Y-105263724D01*
X119444303Y-105194411D01*
X119408178Y-105137773D01*
X119384084Y-105075054D01*
X119335613Y-105024003D01*
X119297761Y-104964657D01*
X119242709Y-104926153D01*
X119196449Y-104877431D01*
X119132133Y-104848816D01*
X119074450Y-104808472D01*
X119008853Y-104793966D01*
X118947470Y-104766656D01*
X118877102Y-104764832D01*
X118875530Y-104764484D01*
X118809435Y-104763077D01*
X118743813Y-104761376D01*
X118742237Y-104761647D01*
X113540522Y-104650940D01*
X112135268Y-104563964D01*
X111069344Y-104450699D01*
X108960960Y-104172240D01*
X107843563Y-103960884D01*
X107823700Y-103954017D01*
X141305000Y-103954017D01*
X141305000Y-104325983D01*
X141447345Y-104669635D01*
X141710365Y-104932655D01*
X142054017Y-105075000D01*
X142425983Y-105075000D01*
X142715454Y-104955097D01*
X142741843Y-105087765D01*
X142882191Y-105297809D01*
X143092235Y-105438157D01*
X143340000Y-105487440D01*
X144460000Y-105487440D01*
X144707765Y-105438157D01*
X144780000Y-105389891D01*
X144850001Y-105436664D01*
X144850001Y-106023835D01*
X144832663Y-106111000D01*
X144861000Y-106253462D01*
X144861000Y-106357983D01*
X144900997Y-106454545D01*
X144901348Y-106456309D01*
X144902347Y-106457805D01*
X145003345Y-106701635D01*
X145266365Y-106964655D01*
X145387078Y-107014656D01*
X145616575Y-107244153D01*
X145665951Y-107318049D01*
X145958690Y-107513652D01*
X146216835Y-107565000D01*
X146216839Y-107565000D01*
X146303999Y-107582337D01*
X146391159Y-107565000D01*
X156915839Y-107565000D01*
X157003000Y-107582337D01*
X157090161Y-107565000D01*
X157090165Y-107565000D01*
X157348310Y-107513652D01*
X157641049Y-107318049D01*
X157690425Y-107244153D01*
X159012560Y-105922018D01*
X159012560Y-105923000D01*
X159061843Y-106170765D01*
X159202191Y-106380809D01*
X159412235Y-106521157D01*
X159660000Y-106570440D01*
X160720000Y-106570440D01*
X160967765Y-106521157D01*
X161177809Y-106380809D01*
X161290000Y-106212905D01*
X161402191Y-106380809D01*
X161491086Y-106440207D01*
X161505000Y-106510161D01*
X161505000Y-106510165D01*
X161516990Y-106570440D01*
X161556348Y-106768309D01*
X161702576Y-106987154D01*
X161702578Y-106987156D01*
X161751952Y-107061049D01*
X161825845Y-107110423D01*
X162213575Y-107498153D01*
X162262951Y-107572049D01*
X162555690Y-107767652D01*
X162813835Y-107819000D01*
X162813839Y-107819000D01*
X162900999Y-107836337D01*
X162988159Y-107819000D01*
X166674413Y-107819000D01*
X166696843Y-107931765D01*
X166837191Y-108141809D01*
X167047235Y-108282157D01*
X167295000Y-108331440D01*
X168440000Y-108331440D01*
X168687765Y-108282157D01*
X168897809Y-108141809D01*
X168910000Y-108123564D01*
X168922191Y-108141809D01*
X169132235Y-108282157D01*
X169380000Y-108331440D01*
X170525000Y-108331440D01*
X170772765Y-108282157D01*
X170982809Y-108141809D01*
X171123157Y-107931765D01*
X171172440Y-107684000D01*
X171172440Y-106184000D01*
X171123157Y-105936235D01*
X170982809Y-105726191D01*
X170844900Y-105634043D01*
X170837500Y-105596839D01*
X170837500Y-104890717D01*
X170861000Y-104833983D01*
X170861000Y-104462017D01*
X170718655Y-104118365D01*
X170455635Y-103855345D01*
X170111983Y-103713000D01*
X169740017Y-103713000D01*
X169396365Y-103855345D01*
X169385894Y-103865816D01*
X168653925Y-103133847D01*
X168604549Y-103059951D01*
X168311810Y-102864348D01*
X168053665Y-102813000D01*
X168053661Y-102813000D01*
X167966500Y-102795663D01*
X167879339Y-102813000D01*
X163224871Y-102813000D01*
X163167765Y-102774843D01*
X162920000Y-102725560D01*
X161860000Y-102725560D01*
X161612235Y-102774843D01*
X161402191Y-102915191D01*
X161290000Y-103083095D01*
X161225590Y-102986700D01*
X161447655Y-102764635D01*
X161590000Y-102420983D01*
X161590000Y-102049017D01*
X161447655Y-101705365D01*
X161410307Y-101668017D01*
X172801000Y-101668017D01*
X172801000Y-102039983D01*
X172943345Y-102383635D01*
X173206365Y-102646655D01*
X173550017Y-102789000D01*
X173921983Y-102789000D01*
X174042694Y-102739000D01*
X178982839Y-102739000D01*
X179070000Y-102756337D01*
X179157161Y-102739000D01*
X179157165Y-102739000D01*
X179415310Y-102687652D01*
X179708049Y-102492049D01*
X179757425Y-102418153D01*
X180240923Y-101934655D01*
X180361635Y-101884655D01*
X180624655Y-101621635D01*
X180767000Y-101277983D01*
X180767000Y-100906017D01*
X180624655Y-100562365D01*
X180361635Y-100299345D01*
X180017983Y-100157000D01*
X179646017Y-100157000D01*
X179302365Y-100299345D01*
X179039345Y-100562365D01*
X178989345Y-100683077D01*
X178703422Y-100969000D01*
X174042694Y-100969000D01*
X173921983Y-100919000D01*
X173550017Y-100919000D01*
X173206365Y-101061345D01*
X172943345Y-101324365D01*
X172801000Y-101668017D01*
X161410307Y-101668017D01*
X161184635Y-101442345D01*
X160840983Y-101300000D01*
X160469017Y-101300000D01*
X160125365Y-101442345D01*
X159862345Y-101705365D01*
X159812344Y-101826078D01*
X159625845Y-102012577D01*
X159551952Y-102061951D01*
X159502578Y-102135844D01*
X159502576Y-102135846D01*
X159356348Y-102354691D01*
X159287663Y-102700000D01*
X159305001Y-102787165D01*
X159305001Y-102846495D01*
X159202191Y-102915191D01*
X159061843Y-103125235D01*
X159012560Y-103373000D01*
X159012560Y-103418861D01*
X156636422Y-105795000D01*
X146670578Y-105795000D01*
X146638656Y-105763078D01*
X146620000Y-105718039D01*
X146620000Y-105336436D01*
X146677809Y-105297809D01*
X146818157Y-105087765D01*
X146867440Y-104840000D01*
X146867440Y-103440000D01*
X146818157Y-103192235D01*
X146771227Y-103122000D01*
X147513198Y-103122000D01*
X147745672Y-103354475D01*
X147779501Y-103405104D01*
X147772560Y-103440000D01*
X147772560Y-104840000D01*
X147821843Y-105087765D01*
X147962191Y-105297809D01*
X148172235Y-105438157D01*
X148420000Y-105487440D01*
X149540000Y-105487440D01*
X149787765Y-105438157D01*
X149855492Y-105392903D01*
X150053691Y-105475000D01*
X150454250Y-105475000D01*
X150613000Y-105316250D01*
X150613000Y-104267000D01*
X150867000Y-104267000D01*
X150867000Y-105316250D01*
X151025750Y-105475000D01*
X151426309Y-105475000D01*
X151659698Y-105378327D01*
X151838327Y-105199699D01*
X151935000Y-104966310D01*
X151935000Y-104425750D01*
X151776250Y-104267000D01*
X150867000Y-104267000D01*
X150613000Y-104267000D01*
X150593000Y-104267000D01*
X150593000Y-104013000D01*
X150613000Y-104013000D01*
X150613000Y-102963750D01*
X150867000Y-102963750D01*
X150867000Y-104013000D01*
X151776250Y-104013000D01*
X151935000Y-103854250D01*
X151935000Y-103313690D01*
X151838327Y-103080301D01*
X151659698Y-102901673D01*
X151426309Y-102805000D01*
X151025750Y-102805000D01*
X150867000Y-102963750D01*
X150613000Y-102963750D01*
X150454250Y-102805000D01*
X150053691Y-102805000D01*
X149855492Y-102887097D01*
X149787765Y-102841843D01*
X149642045Y-102812858D01*
X149527929Y-102642071D01*
X149464473Y-102599671D01*
X149250331Y-102385529D01*
X149207929Y-102322071D01*
X148956537Y-102154096D01*
X148734852Y-102110000D01*
X148734847Y-102110000D01*
X148660000Y-102095112D01*
X148639910Y-102099108D01*
X148418330Y-101877529D01*
X148375929Y-101814071D01*
X148124537Y-101646096D01*
X147902852Y-101602000D01*
X147902847Y-101602000D01*
X147828000Y-101587112D01*
X147753153Y-101602000D01*
X143310290Y-101602000D01*
X143277635Y-101569345D01*
X142933983Y-101427000D01*
X142562017Y-101427000D01*
X142218365Y-101569345D01*
X141955345Y-101832365D01*
X141813000Y-102176017D01*
X141813000Y-102547983D01*
X141955345Y-102891635D01*
X142218365Y-103154655D01*
X142339909Y-103205000D01*
X142054017Y-103205000D01*
X141710365Y-103347345D01*
X141447345Y-103610365D01*
X141305000Y-103954017D01*
X107823700Y-103954017D01*
X107589320Y-103872991D01*
X107446438Y-103793163D01*
X107199334Y-103562342D01*
X107481000Y-103643000D01*
X108331000Y-103643000D01*
X108331000Y-102235000D01*
X108585000Y-102235000D01*
X108585000Y-103643000D01*
X109435000Y-103643000D01*
X110012752Y-103477554D01*
X110483212Y-103103606D01*
X110774756Y-102578086D01*
X110799036Y-102472740D01*
X110678378Y-102235000D01*
X108585000Y-102235000D01*
X108331000Y-102235000D01*
X108311000Y-102235000D01*
X108311000Y-101981000D01*
X108331000Y-101981000D01*
X108331000Y-101961000D01*
X108585000Y-101961000D01*
X108585000Y-101981000D01*
X110678378Y-101981000D01*
X110799036Y-101743260D01*
X110774756Y-101637914D01*
X110650545Y-101414017D01*
X120477000Y-101414017D01*
X120477000Y-101785983D01*
X120619345Y-102129635D01*
X120882365Y-102392655D01*
X121226017Y-102535000D01*
X121597983Y-102535000D01*
X121718694Y-102485000D01*
X126947311Y-102485000D01*
X127068017Y-102534998D01*
X127439983Y-102534998D01*
X127783635Y-102392653D01*
X128046655Y-102129633D01*
X128189000Y-101785981D01*
X128189000Y-101414015D01*
X128046655Y-101070363D01*
X127783635Y-100807343D01*
X127439983Y-100664998D01*
X127068017Y-100664998D01*
X126947301Y-100715000D01*
X121718694Y-100715000D01*
X121597983Y-100665000D01*
X121226017Y-100665000D01*
X120882365Y-100807345D01*
X120619345Y-101070365D01*
X120477000Y-101414017D01*
X110650545Y-101414017D01*
X110483212Y-101112394D01*
X110152723Y-100849703D01*
X110414673Y-100674673D01*
X110562790Y-100453000D01*
X159780422Y-100453000D01*
X159812344Y-100484922D01*
X159862345Y-100605635D01*
X160125365Y-100868655D01*
X160469017Y-101011000D01*
X160840983Y-101011000D01*
X161184635Y-100868655D01*
X161447655Y-100605635D01*
X161590000Y-100261983D01*
X161590000Y-99890017D01*
X161447655Y-99546365D01*
X161184635Y-99283345D01*
X161063922Y-99233344D01*
X160908576Y-99077998D01*
X161184625Y-98963655D01*
X161209649Y-98938631D01*
X161249191Y-98997809D01*
X161459235Y-99138157D01*
X161707000Y-99187440D01*
X162852000Y-99187440D01*
X163099765Y-99138157D01*
X163309809Y-98997809D01*
X163326622Y-98972647D01*
X163432302Y-99078327D01*
X163665691Y-99175000D01*
X164078750Y-99175000D01*
X164237500Y-99016250D01*
X164237500Y-97917000D01*
X164217500Y-97917000D01*
X164217500Y-97663000D01*
X164237500Y-97663000D01*
X164237500Y-96563750D01*
X164491500Y-96563750D01*
X164491500Y-97663000D01*
X164511500Y-97663000D01*
X164511500Y-97917000D01*
X164491500Y-97917000D01*
X164491500Y-99016250D01*
X164650250Y-99175000D01*
X165063309Y-99175000D01*
X165296698Y-99078327D01*
X165475327Y-98899699D01*
X165572000Y-98666310D01*
X165572000Y-98153428D01*
X165640845Y-98319635D01*
X165903865Y-98582655D01*
X166247517Y-98725000D01*
X166619483Y-98725000D01*
X166963135Y-98582655D01*
X167226155Y-98319635D01*
X167228075Y-98315000D01*
X182383359Y-98315000D01*
X182371843Y-98332235D01*
X182322560Y-98580000D01*
X182322560Y-99280000D01*
X182371843Y-99527765D01*
X182512191Y-99737809D01*
X182722235Y-99878157D01*
X182970000Y-99927440D01*
X183322560Y-99927440D01*
X183322560Y-100830000D01*
X183371843Y-101077765D01*
X183512191Y-101287809D01*
X183722235Y-101428157D01*
X183970000Y-101477440D01*
X184770000Y-101477440D01*
X185017765Y-101428157D01*
X185227809Y-101287809D01*
X185368157Y-101077765D01*
X185417440Y-100830000D01*
X185417440Y-99830000D01*
X185368157Y-99582235D01*
X185227809Y-99372191D01*
X185114202Y-99296280D01*
X185117440Y-99280000D01*
X185117440Y-99204218D01*
X185264180Y-99265000D01*
X185695820Y-99265000D01*
X186094603Y-99099818D01*
X186399818Y-98794603D01*
X186565000Y-98395820D01*
X186565000Y-97964180D01*
X186399818Y-97565397D01*
X186094603Y-97260182D01*
X185695820Y-97095000D01*
X185264180Y-97095000D01*
X185117440Y-97155782D01*
X185117440Y-97080000D01*
X185068157Y-96832235D01*
X184927809Y-96622191D01*
X184717765Y-96481843D01*
X184470000Y-96432560D01*
X182970000Y-96432560D01*
X182722235Y-96481843D01*
X182627715Y-96545000D01*
X166880661Y-96545000D01*
X166793500Y-96527663D01*
X166706339Y-96545000D01*
X166706335Y-96545000D01*
X166448190Y-96596348D01*
X166155451Y-96791951D01*
X166106075Y-96865847D01*
X166024578Y-96947344D01*
X165903865Y-96997345D01*
X165640845Y-97260365D01*
X165572000Y-97426572D01*
X165572000Y-96913690D01*
X165475327Y-96680301D01*
X165296698Y-96501673D01*
X165063309Y-96405000D01*
X164650250Y-96405000D01*
X164491500Y-96563750D01*
X164237500Y-96563750D01*
X164078750Y-96405000D01*
X163665691Y-96405000D01*
X163432302Y-96501673D01*
X163326622Y-96607353D01*
X163309809Y-96582191D01*
X163164500Y-96485098D01*
X163164500Y-96382671D01*
X163241000Y-96197983D01*
X163241000Y-95826017D01*
X163098655Y-95482365D01*
X162835635Y-95219345D01*
X162603037Y-95123000D01*
X162835635Y-95026655D01*
X163098655Y-94763635D01*
X163241000Y-94419983D01*
X163241000Y-94048017D01*
X163213674Y-93982045D01*
X163309809Y-93917809D01*
X163326622Y-93892647D01*
X163432302Y-93998327D01*
X163665691Y-94095000D01*
X164078750Y-94095000D01*
X164237500Y-93936250D01*
X164237500Y-92837000D01*
X164491500Y-92837000D01*
X164491500Y-93936250D01*
X164650250Y-94095000D01*
X165063309Y-94095000D01*
X165296698Y-93998327D01*
X165475327Y-93819699D01*
X165572000Y-93586310D01*
X165572000Y-92995750D01*
X166660000Y-92995750D01*
X166660000Y-93586310D01*
X166756673Y-93819699D01*
X166935302Y-93998327D01*
X167168691Y-94095000D01*
X167581750Y-94095000D01*
X167740500Y-93936250D01*
X167740500Y-92837000D01*
X166818750Y-92837000D01*
X166660000Y-92995750D01*
X165572000Y-92995750D01*
X165413250Y-92837000D01*
X164491500Y-92837000D01*
X164237500Y-92837000D01*
X164217500Y-92837000D01*
X164217500Y-92583000D01*
X164237500Y-92583000D01*
X164237500Y-91483750D01*
X164491500Y-91483750D01*
X164491500Y-92583000D01*
X165413250Y-92583000D01*
X165572000Y-92424250D01*
X165572000Y-91833690D01*
X165475327Y-91600301D01*
X165296698Y-91421673D01*
X165063309Y-91325000D01*
X164650250Y-91325000D01*
X164491500Y-91483750D01*
X164237500Y-91483750D01*
X164078750Y-91325000D01*
X163665691Y-91325000D01*
X163432302Y-91421673D01*
X163326622Y-91527353D01*
X163309809Y-91502191D01*
X163164500Y-91405098D01*
X163164500Y-91302671D01*
X163241000Y-91117983D01*
X163241000Y-90746017D01*
X163098655Y-90402365D01*
X162835635Y-90139345D01*
X162491983Y-89997000D01*
X162120017Y-89997000D01*
X161776365Y-90139345D01*
X161513345Y-90402365D01*
X161371000Y-90746017D01*
X161371000Y-91117983D01*
X161394501Y-91174719D01*
X161394501Y-91405097D01*
X161249191Y-91502191D01*
X161108843Y-91712235D01*
X161086413Y-91825000D01*
X156214548Y-91825000D01*
X156087337Y-91740000D01*
X156305337Y-91594337D01*
X156567245Y-91202364D01*
X156659215Y-90740000D01*
X156567245Y-90277636D01*
X156305337Y-89885663D01*
X156087337Y-89740000D01*
X156305337Y-89594337D01*
X156567245Y-89202364D01*
X156659215Y-88740000D01*
X156567245Y-88277636D01*
X156305337Y-87885663D01*
X156087337Y-87740000D01*
X156305337Y-87594337D01*
X156567245Y-87202364D01*
X156659215Y-86740000D01*
X156567245Y-86277636D01*
X156305337Y-85885663D01*
X156087337Y-85740000D01*
X156305337Y-85594337D01*
X156567245Y-85202364D01*
X156659215Y-84740000D01*
X156567245Y-84277636D01*
X156305337Y-83885663D01*
X156087337Y-83740000D01*
X156305337Y-83594337D01*
X156325608Y-83564000D01*
X159214495Y-83564000D01*
X159251843Y-83751765D01*
X159392191Y-83961809D01*
X159602235Y-84102157D01*
X159850000Y-84151440D01*
X160970000Y-84151440D01*
X161217765Y-84102157D01*
X161290000Y-84053891D01*
X161362235Y-84102157D01*
X161385587Y-84106802D01*
X161371000Y-84142017D01*
X161371000Y-84513983D01*
X161513345Y-84857635D01*
X161776365Y-85120655D01*
X162120017Y-85263000D01*
X162491983Y-85263000D01*
X162835635Y-85120655D01*
X163098655Y-84857635D01*
X163241000Y-84513983D01*
X163241000Y-84142017D01*
X163191000Y-84021306D01*
X163191000Y-83957033D01*
X163328157Y-83751765D01*
X163377440Y-83504000D01*
X163377440Y-82104000D01*
X163328157Y-81856235D01*
X163187809Y-81646191D01*
X163130000Y-81607564D01*
X163130000Y-81517158D01*
X163177500Y-81402483D01*
X163177500Y-81030517D01*
X163035155Y-80686865D01*
X162772135Y-80423845D01*
X162428483Y-80281500D01*
X162056517Y-80281500D01*
X161712865Y-80423845D01*
X161449845Y-80686865D01*
X161307500Y-81030517D01*
X161307500Y-81402483D01*
X161352897Y-81512082D01*
X161290000Y-81554109D01*
X161217765Y-81505843D01*
X160970000Y-81456560D01*
X159850000Y-81456560D01*
X159602235Y-81505843D01*
X159392191Y-81646191D01*
X159251843Y-81856235D01*
X159214495Y-82044000D01*
X156411134Y-82044000D01*
X156305337Y-81885663D01*
X156087337Y-81740000D01*
X156305337Y-81594337D01*
X156567245Y-81202364D01*
X156659215Y-80740000D01*
X156567245Y-80277636D01*
X156305337Y-79885663D01*
X156278917Y-79868010D01*
X156458809Y-79747809D01*
X156599157Y-79537765D01*
X156648440Y-79290000D01*
X156648440Y-78190000D01*
X156599157Y-77942235D01*
X156458809Y-77732191D01*
X156248765Y-77591843D01*
X156247152Y-77591522D01*
X156251273Y-77590106D01*
X156295354Y-77564041D01*
X156324845Y-77524219D01*
X156674095Y-76784444D01*
X156685725Y-76741758D01*
X156780975Y-75697183D01*
X156781438Y-75689629D01*
X156836105Y-73945750D01*
X159040000Y-73945750D01*
X159040000Y-74536310D01*
X159136673Y-74769699D01*
X159315302Y-74948327D01*
X159548691Y-75045000D01*
X159961750Y-75045000D01*
X160120500Y-74886250D01*
X160120500Y-73787000D01*
X159198750Y-73787000D01*
X159040000Y-73945750D01*
X156836105Y-73945750D01*
X156844938Y-73663979D01*
X156844865Y-73654138D01*
X156804647Y-72783690D01*
X159040000Y-72783690D01*
X159040000Y-73374250D01*
X159198750Y-73533000D01*
X160120500Y-73533000D01*
X160120500Y-72433750D01*
X159961750Y-72275000D01*
X159548691Y-72275000D01*
X159315302Y-72371673D01*
X159136673Y-72550301D01*
X159040000Y-72783690D01*
X156804647Y-72783690D01*
X156755965Y-71730088D01*
X156754432Y-71715433D01*
X156608382Y-70823258D01*
X156602193Y-70799799D01*
X156329143Y-70060024D01*
X156290958Y-70006149D01*
X156247349Y-69982616D01*
X155298024Y-69690516D01*
X155277022Y-69685956D01*
X154200697Y-69546256D01*
X154195881Y-69545725D01*
X151967031Y-69342525D01*
X151955500Y-69342000D01*
X142176500Y-69342000D01*
X142163542Y-69342663D01*
X139934692Y-69571263D01*
X139932939Y-69571455D01*
X138866260Y-69695849D01*
X138845141Y-69700153D01*
X137886170Y-69982159D01*
X137828967Y-70017548D01*
X137802965Y-70059731D01*
X137517215Y-70828081D01*
X137510561Y-70854147D01*
X137377211Y-71774897D01*
X137376044Y-71787059D01*
X137287144Y-73653959D01*
X137287116Y-73665416D01*
X137376016Y-75748216D01*
X137376516Y-75755291D01*
X137484466Y-76847491D01*
X137490980Y-76876955D01*
X137802130Y-77765955D01*
X137815769Y-77793599D01*
X137850490Y-77828954D01*
X137869467Y-77837017D01*
X137796663Y-77885663D01*
X137733629Y-77980000D01*
X128324290Y-77980000D01*
X128291635Y-77947345D01*
X127947983Y-77805000D01*
X127576017Y-77805000D01*
X127232365Y-77947345D01*
X126969345Y-78210365D01*
X126827000Y-78554017D01*
X126827000Y-78925983D01*
X126969345Y-79269635D01*
X127232365Y-79532655D01*
X127576017Y-79675000D01*
X127947983Y-79675000D01*
X128291635Y-79532655D01*
X128324290Y-79500000D01*
X137733629Y-79500000D01*
X137796663Y-79594337D01*
X138014663Y-79740000D01*
X137796663Y-79885663D01*
X137712247Y-80012000D01*
X128324290Y-80012000D01*
X128291635Y-79979345D01*
X127947983Y-79837000D01*
X127576017Y-79837000D01*
X127232365Y-79979345D01*
X126969345Y-80242365D01*
X126827000Y-80586017D01*
X126827000Y-80957983D01*
X126969345Y-81301635D01*
X127232365Y-81564655D01*
X127576017Y-81707000D01*
X127589000Y-81707000D01*
X127589000Y-81719983D01*
X127731345Y-82063635D01*
X127994365Y-82326655D01*
X128338017Y-82469000D01*
X128709983Y-82469000D01*
X129053635Y-82326655D01*
X129086290Y-82294000D01*
X136851710Y-82294000D01*
X136884365Y-82326655D01*
X137228017Y-82469000D01*
X137496690Y-82469000D01*
X137442785Y-82740000D01*
X137534755Y-83202364D01*
X137796663Y-83594337D01*
X138014663Y-83740000D01*
X137796663Y-83885663D01*
X137733629Y-83980000D01*
X137632802Y-83980000D01*
X137587000Y-83934198D01*
X137587000Y-83888017D01*
X137444655Y-83544365D01*
X137181635Y-83281345D01*
X136837983Y-83139000D01*
X136466017Y-83139000D01*
X136122365Y-83281345D01*
X135859345Y-83544365D01*
X135717000Y-83888017D01*
X135717000Y-84259983D01*
X135859345Y-84603635D01*
X136122365Y-84866655D01*
X136466017Y-85009000D01*
X136512198Y-85009000D01*
X136727671Y-85224473D01*
X136770071Y-85287929D01*
X137021463Y-85455904D01*
X137243148Y-85500000D01*
X137243152Y-85500000D01*
X137317999Y-85514888D01*
X137392846Y-85500000D01*
X137733629Y-85500000D01*
X137796663Y-85594337D01*
X138014663Y-85740000D01*
X137796663Y-85885663D01*
X137534755Y-86277636D01*
X137442785Y-86740000D01*
X137534755Y-87202364D01*
X137796663Y-87594337D01*
X138014663Y-87740000D01*
X137796663Y-87885663D01*
X137534755Y-88277636D01*
X137442785Y-88740000D01*
X137534755Y-89202364D01*
X137796663Y-89594337D01*
X138064663Y-89773409D01*
X137896663Y-89885663D01*
X137634755Y-90277636D01*
X137542785Y-90740000D01*
X137634755Y-91202364D01*
X137896663Y-91594337D01*
X138064781Y-91706670D01*
X137723276Y-91991882D01*
X137507602Y-92403854D01*
X137507197Y-92430256D01*
X137632639Y-92613000D01*
X139224000Y-92613000D01*
X139224000Y-92593000D01*
X139478000Y-92593000D01*
X139478000Y-92613000D01*
X141069361Y-92613000D01*
X141194803Y-92430256D01*
X141194398Y-92403854D01*
X140978724Y-91991882D01*
X140726111Y-91780910D01*
X141005337Y-91594337D01*
X141068371Y-91500000D01*
X141612026Y-91500000D01*
X141701345Y-91715635D01*
X141964365Y-91978655D01*
X142308017Y-92121000D01*
X142679983Y-92121000D01*
X143023635Y-91978655D01*
X143286655Y-91715635D01*
X143429000Y-91371983D01*
X143429000Y-91000017D01*
X143286655Y-90656365D01*
X143023635Y-90393345D01*
X142679983Y-90251000D01*
X142635304Y-90251000D01*
X142595929Y-90192071D01*
X142344537Y-90024096D01*
X142162225Y-89987832D01*
X142261635Y-89946655D01*
X142524655Y-89683635D01*
X142667000Y-89339983D01*
X142667000Y-88968017D01*
X142524655Y-88624365D01*
X142261635Y-88361345D01*
X141917983Y-88219000D01*
X141883922Y-88219000D01*
X141865929Y-88192071D01*
X141614537Y-88024096D01*
X141392852Y-87980000D01*
X141392847Y-87980000D01*
X141318000Y-87965112D01*
X141243153Y-87980000D01*
X140968371Y-87980000D01*
X140905337Y-87885663D01*
X140687337Y-87740000D01*
X140854957Y-87628000D01*
X145741710Y-87628000D01*
X145774365Y-87660655D01*
X146118017Y-87803000D01*
X146489983Y-87803000D01*
X146833635Y-87660655D01*
X147096655Y-87397635D01*
X147239000Y-87053983D01*
X147239000Y-86682017D01*
X147096655Y-86338365D01*
X146833635Y-86075345D01*
X146489983Y-85933000D01*
X146118017Y-85933000D01*
X145774365Y-86075345D01*
X145741710Y-86108000D01*
X141053898Y-86108000D01*
X140905337Y-85885663D01*
X140687337Y-85740000D01*
X140905337Y-85594337D01*
X141167245Y-85202364D01*
X141259215Y-84740000D01*
X141167245Y-84277636D01*
X140905337Y-83885663D01*
X140687337Y-83740000D01*
X140905337Y-83594337D01*
X141167245Y-83202364D01*
X141259215Y-82740000D01*
X141167245Y-82277636D01*
X140905337Y-81885663D01*
X140687337Y-81740000D01*
X140905337Y-81594337D01*
X141167245Y-81202364D01*
X141259215Y-80740000D01*
X141167245Y-80277636D01*
X140905337Y-79885663D01*
X140687337Y-79740000D01*
X140905337Y-79594337D01*
X141167245Y-79202364D01*
X141259215Y-78740000D01*
X141167245Y-78277636D01*
X140975680Y-77990939D01*
X142179265Y-77946234D01*
X151955602Y-77882752D01*
X152939810Y-77886910D01*
X152902843Y-77942235D01*
X152895331Y-77980000D01*
X144854848Y-77980000D01*
X144780000Y-77965112D01*
X144705152Y-77980000D01*
X144705148Y-77980000D01*
X144531605Y-78014520D01*
X144483462Y-78024096D01*
X144326942Y-78128680D01*
X144232071Y-78192071D01*
X144189671Y-78255527D01*
X143878198Y-78567000D01*
X143832017Y-78567000D01*
X143488365Y-78709345D01*
X143225345Y-78972365D01*
X143083000Y-79316017D01*
X143083000Y-79687983D01*
X143225345Y-80031635D01*
X143488365Y-80294655D01*
X143832017Y-80437000D01*
X144203983Y-80437000D01*
X144547635Y-80294655D01*
X144810655Y-80031635D01*
X144953000Y-79687983D01*
X144953000Y-79641802D01*
X145094802Y-79500000D01*
X152895331Y-79500000D01*
X152902843Y-79537765D01*
X153043191Y-79747809D01*
X153223083Y-79868010D01*
X153196663Y-79885663D01*
X152934755Y-80277636D01*
X152842785Y-80740000D01*
X152934755Y-81202364D01*
X153196663Y-81594337D01*
X153414663Y-81740000D01*
X153196663Y-81885663D01*
X152934755Y-82277636D01*
X152842785Y-82740000D01*
X152934755Y-83202364D01*
X153196663Y-83594337D01*
X153414663Y-83740000D01*
X153196663Y-83885663D01*
X152934755Y-84277636D01*
X152842785Y-84740000D01*
X152934755Y-85202364D01*
X153196663Y-85594337D01*
X153414663Y-85740000D01*
X153196663Y-85885663D01*
X152934755Y-86277636D01*
X152842785Y-86740000D01*
X152934755Y-87202364D01*
X153196663Y-87594337D01*
X153414663Y-87740000D01*
X153196663Y-87885663D01*
X152934755Y-88277636D01*
X152842785Y-88740000D01*
X152934755Y-89202364D01*
X153196663Y-89594337D01*
X153414663Y-89740000D01*
X153196663Y-89885663D01*
X152934755Y-90277636D01*
X152842785Y-90740000D01*
X152934755Y-91202364D01*
X153196663Y-91594337D01*
X153414663Y-91740000D01*
X153196663Y-91885663D01*
X152934755Y-92277636D01*
X152842785Y-92740000D01*
X152888020Y-92967410D01*
X152523363Y-92723755D01*
X152061000Y-92631785D01*
X151598636Y-92723755D01*
X151206663Y-92985663D01*
X151061000Y-93203663D01*
X150915337Y-92985663D01*
X150523363Y-92723755D01*
X150061000Y-92631785D01*
X149598636Y-92723755D01*
X149206663Y-92985663D01*
X149061000Y-93203663D01*
X148915337Y-92985663D01*
X148523363Y-92723755D01*
X148061000Y-92631785D01*
X147598636Y-92723755D01*
X147206663Y-92985663D01*
X147061000Y-93203663D01*
X146915337Y-92985663D01*
X146523363Y-92723755D01*
X146061000Y-92631785D01*
X145598636Y-92723755D01*
X145206663Y-92985663D01*
X145061000Y-93203663D01*
X144915337Y-92985663D01*
X144523363Y-92723755D01*
X144061000Y-92631785D01*
X143598636Y-92723755D01*
X143206663Y-92985663D01*
X143061000Y-93203663D01*
X142915337Y-92985663D01*
X142523363Y-92723755D01*
X142061000Y-92631785D01*
X141598636Y-92723755D01*
X141206663Y-92985663D01*
X141179116Y-93026891D01*
X141069361Y-92867000D01*
X139478000Y-92867000D01*
X139478000Y-93925000D01*
X140178000Y-93925000D01*
X140621813Y-93786196D01*
X140911634Y-93544149D01*
X140876000Y-93723291D01*
X140876000Y-95256710D01*
X140944755Y-95602364D01*
X141206664Y-95994337D01*
X141598637Y-96256245D01*
X142061000Y-96348215D01*
X142523364Y-96256245D01*
X142915337Y-95994337D01*
X143061000Y-95776337D01*
X143206664Y-95994337D01*
X143598637Y-96256245D01*
X144061000Y-96348215D01*
X144523364Y-96256245D01*
X144915337Y-95994337D01*
X145061000Y-95776337D01*
X145206664Y-95994337D01*
X145598637Y-96256245D01*
X146061000Y-96348215D01*
X146523364Y-96256245D01*
X146915337Y-95994337D01*
X147061000Y-95776337D01*
X147206664Y-95994337D01*
X147598637Y-96256245D01*
X148061000Y-96348215D01*
X148523364Y-96256245D01*
X148915337Y-95994337D01*
X149061000Y-95776337D01*
X149206664Y-95994337D01*
X149598637Y-96256245D01*
X150061000Y-96348215D01*
X150523364Y-96256245D01*
X150915337Y-95994337D01*
X151061000Y-95776337D01*
X151206664Y-95994337D01*
X151598637Y-96256245D01*
X152061000Y-96348215D01*
X152523364Y-96256245D01*
X152915337Y-95994337D01*
X153177245Y-95602364D01*
X153246000Y-95256710D01*
X153246000Y-93723290D01*
X153223980Y-93612590D01*
X153588636Y-93856245D01*
X153934290Y-93925000D01*
X155567710Y-93925000D01*
X155913364Y-93856245D01*
X156304345Y-93595000D01*
X161086413Y-93595000D01*
X161108843Y-93707765D01*
X161249191Y-93917809D01*
X161386837Y-94009782D01*
X161371000Y-94048017D01*
X161371000Y-94419983D01*
X161513345Y-94763635D01*
X161776365Y-95026655D01*
X162008963Y-95123000D01*
X161776365Y-95219345D01*
X161513345Y-95482365D01*
X161371000Y-95826017D01*
X161371000Y-96197983D01*
X161394501Y-96254719D01*
X161394501Y-96485097D01*
X161249191Y-96582191D01*
X161108843Y-96792235D01*
X161087811Y-96897971D01*
X161035990Y-96887663D01*
X160948829Y-96905000D01*
X160948825Y-96905000D01*
X160690680Y-96956348D01*
X160397941Y-97151951D01*
X160348566Y-97225846D01*
X160246068Y-97328344D01*
X160125355Y-97378345D01*
X159862335Y-97641365D01*
X159719990Y-97985017D01*
X159719990Y-98356983D01*
X159855030Y-98683000D01*
X110562790Y-98683000D01*
X110414673Y-98461327D01*
X110170237Y-98298000D01*
X110414673Y-98134673D01*
X110646312Y-97788000D01*
X127179153Y-97788000D01*
X127254000Y-97802888D01*
X127328847Y-97788000D01*
X127328852Y-97788000D01*
X127550537Y-97743904D01*
X127801929Y-97575929D01*
X127844330Y-97512471D01*
X127901802Y-97455000D01*
X127947983Y-97455000D01*
X128291635Y-97312655D01*
X128554655Y-97049635D01*
X128697000Y-96705983D01*
X128697000Y-96334017D01*
X128554655Y-95990365D01*
X128291635Y-95727345D01*
X127947983Y-95585000D01*
X127576017Y-95585000D01*
X127232365Y-95727345D01*
X126969345Y-95990365D01*
X126854345Y-96268000D01*
X110646312Y-96268000D01*
X110414673Y-95921327D01*
X110170237Y-95758000D01*
X110414673Y-95594673D01*
X110753938Y-95086927D01*
X110873072Y-94488000D01*
X110791731Y-94079071D01*
X111712792Y-93158010D01*
X119207000Y-93158010D01*
X119207000Y-93403983D01*
X119349345Y-93747635D01*
X119612365Y-94010655D01*
X119956017Y-94153000D01*
X120327983Y-94153000D01*
X120671635Y-94010655D01*
X120704290Y-93978000D01*
X124913710Y-93978000D01*
X124946365Y-94010655D01*
X125290017Y-94153000D01*
X125661983Y-94153000D01*
X126005635Y-94010655D01*
X126268655Y-93747635D01*
X126411000Y-93403983D01*
X126411000Y-93158010D01*
X126475143Y-93158010D01*
X126549990Y-93172898D01*
X126624837Y-93158010D01*
X126624842Y-93158010D01*
X126846527Y-93113914D01*
X126942564Y-93049744D01*
X137507197Y-93049744D01*
X137507602Y-93076146D01*
X137723276Y-93488118D01*
X138080187Y-93786196D01*
X138524000Y-93925000D01*
X139224000Y-93925000D01*
X139224000Y-92867000D01*
X137632639Y-92867000D01*
X137507197Y-93049744D01*
X126942564Y-93049744D01*
X127097919Y-92945939D01*
X127139974Y-92883000D01*
X127185983Y-92883000D01*
X127529635Y-92740655D01*
X127792655Y-92477635D01*
X127935000Y-92133983D01*
X127935000Y-91762017D01*
X127792655Y-91418365D01*
X127529635Y-91155345D01*
X127185983Y-91013000D01*
X126814017Y-91013000D01*
X126500962Y-91142672D01*
X126259635Y-90901345D01*
X125915983Y-90759000D01*
X125544017Y-90759000D01*
X125200365Y-90901345D01*
X124937345Y-91164365D01*
X124927555Y-91188000D01*
X110646312Y-91188000D01*
X110414673Y-90841327D01*
X109906927Y-90502062D01*
X109459182Y-90413000D01*
X107456818Y-90413000D01*
X107268738Y-90450411D01*
X107416086Y-90338088D01*
X107671526Y-90210880D01*
X108061022Y-90085573D01*
X109487990Y-89818445D01*
X111881170Y-89516013D01*
X111883079Y-89516138D01*
X111948124Y-89507552D01*
X112013133Y-89499337D01*
X112014946Y-89498732D01*
X115267349Y-89069428D01*
X115312190Y-89075425D01*
X115401267Y-89051752D01*
X115424456Y-89048691D01*
X115466334Y-89034460D01*
X115575558Y-89005432D01*
X115594628Y-88990861D01*
X115617348Y-88983140D01*
X115702292Y-88908596D01*
X115792093Y-88839980D01*
X115804134Y-88819223D01*
X115822171Y-88803394D01*
X115872123Y-88702015D01*
X115894316Y-88663756D01*
X115901880Y-88641623D01*
X115942616Y-88558947D01*
X115945560Y-88513803D01*
X116511060Y-86858996D01*
X117175546Y-85080804D01*
X118012412Y-83143548D01*
X118672702Y-81694078D01*
X118681068Y-81681295D01*
X118700610Y-81632814D01*
X118722296Y-81585209D01*
X118725798Y-81570327D01*
X118941442Y-81035345D01*
X118943685Y-81033017D01*
X118992281Y-80909221D01*
X119016392Y-80849406D01*
X119016977Y-80846310D01*
X119043262Y-80779351D01*
X119042039Y-80713724D01*
X119054230Y-80649226D01*
X119039524Y-80578808D01*
X119038183Y-80506888D01*
X119011939Y-80446725D01*
X118998520Y-80382471D01*
X118957989Y-80323046D01*
X118956728Y-80320156D01*
X118919897Y-80267198D01*
X118844968Y-80157341D01*
X118842263Y-80155570D01*
X118353784Y-79453204D01*
X118346464Y-79438400D01*
X118315333Y-79397918D01*
X118286178Y-79355996D01*
X118274286Y-79344539D01*
X116918956Y-77582057D01*
X116918353Y-77580850D01*
X116877699Y-77528407D01*
X116837525Y-77476164D01*
X116836517Y-77475281D01*
X115368076Y-75581002D01*
X114575814Y-74439087D01*
X114400370Y-74104559D01*
X114312656Y-73852188D01*
X114273831Y-73613491D01*
X114263768Y-73325777D01*
X114292933Y-72920319D01*
X114320687Y-72830620D01*
X114385077Y-72708824D01*
X114798292Y-72189814D01*
X115645405Y-71298648D01*
X116000221Y-70934017D01*
X122001010Y-70934017D01*
X122001010Y-71305983D01*
X122143355Y-71649635D01*
X122406375Y-71912655D01*
X122750027Y-72055000D01*
X123121993Y-72055000D01*
X123465645Y-71912655D01*
X123728665Y-71649635D01*
X123871010Y-71305983D01*
X123871010Y-71259801D01*
X124266812Y-70864000D01*
X129993714Y-70864000D01*
X130026369Y-70896655D01*
X130370021Y-71039000D01*
X130741987Y-71039000D01*
X131085639Y-70896655D01*
X131348659Y-70633635D01*
X131491004Y-70289983D01*
X131491004Y-69918017D01*
X131348659Y-69574365D01*
X131085639Y-69311345D01*
X130741987Y-69169000D01*
X130370021Y-69169000D01*
X130026369Y-69311345D01*
X129993714Y-69344000D01*
X124026857Y-69344000D01*
X123952010Y-69329112D01*
X123877163Y-69344000D01*
X123877158Y-69344000D01*
X123655473Y-69388096D01*
X123404081Y-69556071D01*
X123361681Y-69619527D01*
X122796209Y-70185000D01*
X122750027Y-70185000D01*
X122406375Y-70327345D01*
X122143355Y-70590365D01*
X122001010Y-70934017D01*
X116000221Y-70934017D01*
X117148716Y-69753754D01*
X117182273Y-69734728D01*
X117242983Y-69656879D01*
X117263876Y-69635408D01*
X117284386Y-69603787D01*
X117349854Y-69519837D01*
X117358031Y-69490248D01*
X117374739Y-69464489D01*
X117394085Y-69359787D01*
X117422443Y-69257173D01*
X117418674Y-69226707D01*
X117424253Y-69196515D01*
X117402059Y-69092385D01*
X117388989Y-68986724D01*
X117373846Y-68960015D01*
X117367447Y-68929991D01*
X117307102Y-68842291D01*
X117288511Y-68809501D01*
X117268934Y-68786822D01*
X117212973Y-68705494D01*
X117180609Y-68684502D01*
X112861930Y-63681526D01*
X107919642Y-57932326D01*
X107368364Y-57269820D01*
X107292773Y-57171894D01*
X107222128Y-57131378D01*
X107158831Y-57080147D01*
X107105042Y-57064228D01*
X107056380Y-57036320D01*
X106975612Y-57025924D01*
X106897524Y-57002814D01*
X106841734Y-57008692D01*
X106786100Y-57001531D01*
X106707501Y-57022834D01*
X106626515Y-57031367D01*
X106517854Y-57090400D01*
X105796159Y-57448893D01*
X105468267Y-57576942D01*
X105078906Y-57671131D01*
X104629952Y-57732689D01*
X104155087Y-57756804D01*
X103685944Y-57742189D01*
X103254812Y-57690193D01*
X102897513Y-57606673D01*
X102629401Y-57498498D01*
X102230186Y-57258099D01*
X101862070Y-56977793D01*
X101539961Y-56670651D01*
X101263457Y-56340237D01*
X101032328Y-55989964D01*
X100846514Y-55623138D01*
X100706114Y-55242992D01*
X100611379Y-54852721D01*
X100562685Y-54455437D01*
X100560550Y-54054202D01*
X100605646Y-53651997D01*
X100698855Y-53251696D01*
X100841300Y-52856159D01*
X101034407Y-52468220D01*
X101279889Y-52090859D01*
X101579973Y-51726945D01*
X101870865Y-51443588D01*
X102180681Y-51201210D01*
X102506589Y-50998791D01*
X102846040Y-50835383D01*
X103196355Y-50710339D01*
X103554714Y-50623196D01*
X103918123Y-50573605D01*
X104278205Y-50561427D01*
X104750508Y-50600075D01*
G36*
X168581659Y-105564737D02*
X168440000Y-105536560D01*
X167295000Y-105536560D01*
X167047235Y-105585843D01*
X166837191Y-105726191D01*
X166696843Y-105936235D01*
X166674413Y-106049000D01*
X163542377Y-106049000D01*
X163567440Y-105923000D01*
X163567440Y-105273000D01*
X163540064Y-105135369D01*
X163555000Y-105099310D01*
X163555000Y-104933750D01*
X163396250Y-104775000D01*
X163317659Y-104775000D01*
X163167765Y-104674843D01*
X163032815Y-104648000D01*
X163167765Y-104621157D01*
X163224871Y-104583000D01*
X167599922Y-104583000D01*
X168581659Y-105564737D01*
X168581659Y-105564737D01*
G37*
X168581659Y-105564737D02*
X168440000Y-105536560D01*
X167295000Y-105536560D01*
X167047235Y-105585843D01*
X166837191Y-105726191D01*
X166696843Y-105936235D01*
X166674413Y-106049000D01*
X163542377Y-106049000D01*
X163567440Y-105923000D01*
X163567440Y-105273000D01*
X163540064Y-105135369D01*
X163555000Y-105099310D01*
X163555000Y-104933750D01*
X163396250Y-104775000D01*
X163317659Y-104775000D01*
X163167765Y-104674843D01*
X163032815Y-104648000D01*
X163167765Y-104621157D01*
X163224871Y-104583000D01*
X167599922Y-104583000D01*
X168581659Y-105564737D01*
M02*
