M48
;DRILL file {KiCad 5.0.0-rc2-dev-unknown-5e5e80d~64~ubuntu16.04.1} date Fri May  4 15:59:20 2018
;FORMAT={-:-/ absolute / metric / decimal}
FMAT,2
METRIC,TZ
T1C0.400
%
G90
G05
M71
T1
X111.76Y-94.742
X119.126Y-68.834
X120.142Y-93.218
X121.412Y-101.6
X122.936Y-71.12
X123.444Y-111.506
X125.476Y-93.218
X125.73Y-91.694
X127.Y-91.948
X127.254Y-101.6
X127.762Y-78.74
X127.762Y-80.772
X127.762Y-96.52
X128.27Y-110.744
X128.524Y-81.534
X130.048Y-118.872
X130.556Y-70.104
X133.032Y-72.962
X135.89Y-101.346
X136.652Y-84.074
X136.652Y-92.964
X137.414Y-81.534
X141.732Y-89.154
X141.986Y-110.744
X142.24Y-104.14
X142.494Y-91.186
X142.748Y-102.362
X143.002Y-111.76
X144.018Y-79.502
X144.272Y-122.999
X144.653Y-109.283
X145.796Y-106.172
X145.796Y-112.014
X146.304Y-86.868
X146.304Y-123.761
X146.685Y-127.254
X147.066Y-112.014
X147.32Y-120.396
X150.114Y-115.57
X150.876Y-120.65
X151.575Y-67.945
X152.273Y-129.921
X152.4Y-101.346
X152.59Y-109.855
X157.353Y-66.739
X157.924Y-71.882
X160.655Y-98.171
X160.655Y-100.076
X160.655Y-102.235
X162.243Y-75.311
X162.243Y-81.216
X162.306Y-84.328
X162.306Y-90.932
X162.306Y-94.234
X162.306Y-96.012
X164.084Y-113.538
X164.084Y-116.078
X164.338Y-94.234
X164.338Y-96.139
X164.338Y-99.314
X164.338Y-104.648
X164.846Y-108.013
X165.989Y-109.156
X166.116Y-90.424
X166.433Y-97.79
X167.132Y-88.646
X168.402Y-118.872
X169.926Y-94.488
X169.926Y-104.648
X172.974Y-95.25
X173.736Y-101.854
X175.514Y-69.342
X178.562Y-89.662
X179.578Y-90.678
X179.832Y-101.092
T0
M30
