G04 #@! TF.GenerationSoftware,KiCad,Pcbnew,5.0.0-rc2-dev-unknown-5e5e80d~64~ubuntu16.04.1*
G04 #@! TF.CreationDate,2018-05-04T15:58:43+02:00*
G04 #@! TF.ProjectId,ripolab_pcb,7269706F6C61625F7063622E6B696361,rev?*
G04 #@! TF.SameCoordinates,Original*
G04 #@! TF.FileFunction,Soldermask,Bot*
G04 #@! TF.FilePolarity,Negative*
%FSLAX46Y46*%
G04 Gerber Fmt 4.6, Leading zero omitted, Abs format (unit mm)*
G04 Created by KiCad (PCBNEW 5.0.0-rc2-dev-unknown-5e5e80d~64~ubuntu16.04.1) date Fri May  4 15:58:43 2018*
%MOMM*%
%LPD*%
G01*
G04 APERTURE LIST*
%ADD10C,0.150000*%
%ADD11O,3.900000X2.200000*%
%ADD12R,1.300000X1.600000*%
%ADD13R,1.520000X1.800000*%
%ADD14R,2.100000X1.400000*%
%ADD15O,2.900000X1.500000*%
%ADD16O,1.500000X2.800000*%
%ADD17R,2.900000X1.500000*%
%ADD18R,1.460000X1.050000*%
%ADD19R,1.200000X1.400000*%
%ADD20R,1.900000X1.100000*%
%ADD21C,1.300000*%
%ADD22R,1.545000X1.900000*%
%ADD23R,1.200000X2.000000*%
%ADD24R,2.500000X3.400000*%
G04 APERTURE END LIST*
D10*
X123802694Y-122156457D02*
X124274098Y-121685053D01*
X124139411Y-121819740D02*
X124173083Y-121718724D01*
X124173083Y-121651381D01*
X124139411Y-121550366D01*
X124072068Y-121483022D01*
X123364961Y-121718724D02*
X123836366Y-121247320D01*
X124072068Y-121011618D02*
X124072068Y-121078961D01*
X124004724Y-121078961D01*
X124004724Y-121011618D01*
X124072068Y-121011618D01*
X124004724Y-121078961D01*
X123499648Y-120910602D02*
X122792541Y-121617709D01*
X123465976Y-120944274D02*
X123432305Y-120843259D01*
X123297618Y-120708572D01*
X123196602Y-120674900D01*
X123129259Y-120674900D01*
X123028244Y-120708572D01*
X122826213Y-120910602D01*
X122792541Y-121011618D01*
X122792541Y-121078961D01*
X122826213Y-121179976D01*
X122960900Y-121314663D01*
X123061915Y-121348335D01*
X122287465Y-120641228D02*
X122388480Y-120674900D01*
X122455824Y-120674900D01*
X122556839Y-120641228D01*
X122758870Y-120439198D01*
X122792541Y-120338183D01*
X122792541Y-120270839D01*
X122758870Y-120169824D01*
X122657854Y-120068809D01*
X122556839Y-120035137D01*
X122489496Y-120035137D01*
X122388480Y-120068809D01*
X122186450Y-120270839D01*
X122152778Y-120371854D01*
X122152778Y-120439198D01*
X122186450Y-120540213D01*
X122287465Y-120641228D01*
X121647702Y-120001465D02*
X121748717Y-120035137D01*
X121849732Y-120001465D01*
X122455824Y-119395374D01*
X121075282Y-119429045D02*
X121445671Y-119058656D01*
X121546687Y-119024984D01*
X121647702Y-119058656D01*
X121782389Y-119193343D01*
X121816061Y-119294358D01*
X121108954Y-119395374D02*
X121142625Y-119496389D01*
X121310984Y-119664748D01*
X121412000Y-119698419D01*
X121513015Y-119664748D01*
X121580358Y-119597404D01*
X121614030Y-119496389D01*
X121580358Y-119395374D01*
X121412000Y-119227015D01*
X121378328Y-119126000D01*
X120738564Y-119092328D02*
X121445671Y-118385221D01*
X121176297Y-118654595D02*
X121142625Y-118553580D01*
X121007938Y-118418893D01*
X120906923Y-118385221D01*
X120839580Y-118385221D01*
X120738564Y-118418893D01*
X120536534Y-118620923D01*
X120502862Y-118721938D01*
X120502862Y-118789282D01*
X120536534Y-118890297D01*
X120671221Y-119024984D01*
X120772236Y-119058656D01*
X120166145Y-118385221D02*
X120098801Y-118385221D01*
X120098801Y-118452564D01*
X120166145Y-118452564D01*
X120166145Y-118385221D01*
X120098801Y-118452564D01*
X119661068Y-118014832D02*
X119762084Y-118048503D01*
X119829427Y-118048503D01*
X119930442Y-118014832D01*
X120132473Y-117812801D01*
X120166145Y-117711786D01*
X120166145Y-117644442D01*
X120132473Y-117543427D01*
X120031458Y-117442412D01*
X119930442Y-117408740D01*
X119863099Y-117408740D01*
X119762084Y-117442412D01*
X119560053Y-117644442D01*
X119526381Y-117745458D01*
X119526381Y-117812801D01*
X119560053Y-117913816D01*
X119661068Y-118014832D01*
X119122320Y-117476084D02*
X119593725Y-117004679D01*
X119459038Y-117139366D02*
X119492710Y-117038351D01*
X119492710Y-116971007D01*
X119459038Y-116869992D01*
X119391694Y-116802649D01*
X118852946Y-116263901D02*
X118280527Y-116836320D01*
X118246855Y-116937336D01*
X118246855Y-117004679D01*
X118280527Y-117105694D01*
X118381542Y-117206710D01*
X118482557Y-117240381D01*
X118415214Y-116701633D02*
X118448885Y-116802649D01*
X118583572Y-116937336D01*
X118684588Y-116971007D01*
X118751931Y-116971007D01*
X118852946Y-116937336D01*
X119054977Y-116735305D01*
X119088649Y-116634290D01*
X119088649Y-116566946D01*
X119054977Y-116465931D01*
X118920290Y-116331244D01*
X118819275Y-116297572D01*
X175401289Y-117681038D02*
X175401289Y-117613694D01*
X175434961Y-117512679D01*
X175502305Y-117445336D01*
X175603320Y-117411664D01*
X175670663Y-117411664D01*
X175771679Y-117445336D01*
X175839022Y-117512679D01*
X175872694Y-117613694D01*
X175872694Y-117681038D01*
X175839022Y-117782053D01*
X175771679Y-117849397D01*
X175670663Y-117883068D01*
X175603320Y-117883068D01*
X175333946Y-117613694D02*
X175603320Y-117883068D01*
X175603320Y-117950412D01*
X175569648Y-117984084D01*
X175468633Y-118017755D01*
X175367618Y-117984084D01*
X175199259Y-117815725D01*
X175165587Y-117647366D01*
X175199259Y-117479007D01*
X175300274Y-117310649D01*
X175468633Y-117209633D01*
X175636992Y-117175962D01*
X175805350Y-117209633D01*
X175973709Y-117310649D01*
X176074724Y-117479007D01*
X176108396Y-117647366D01*
X176074724Y-117815725D01*
X175973709Y-117984084D01*
X175805350Y-118085099D01*
X175636992Y-118118771D01*
X174862541Y-118893221D02*
X174761526Y-118320801D01*
X175266602Y-118489160D02*
X174559496Y-117782053D01*
X174290122Y-118051427D01*
X174256450Y-118152442D01*
X174256450Y-118219786D01*
X174290122Y-118320801D01*
X174391137Y-118421816D01*
X174492152Y-118455488D01*
X174559496Y-118455488D01*
X174660511Y-118421816D01*
X174929885Y-118152442D01*
X174559496Y-119196267D02*
X174088091Y-118724862D01*
X173852389Y-118489160D02*
X173919732Y-118489160D01*
X173919732Y-118556503D01*
X173852389Y-118556503D01*
X173852389Y-118489160D01*
X173919732Y-118556503D01*
X173751374Y-119061580D02*
X174458480Y-119768687D01*
X173785045Y-119095251D02*
X173684030Y-119128923D01*
X173549343Y-119263610D01*
X173515671Y-119364625D01*
X173515671Y-119431969D01*
X173549343Y-119532984D01*
X173751374Y-119735015D01*
X173852389Y-119768687D01*
X173919732Y-119768687D01*
X174020748Y-119735015D01*
X174155435Y-119600328D01*
X174189106Y-119499312D01*
X173482000Y-120273763D02*
X173515671Y-120172748D01*
X173515671Y-120105404D01*
X173482000Y-120004389D01*
X173279969Y-119802358D01*
X173178954Y-119768687D01*
X173111610Y-119768687D01*
X173010595Y-119802358D01*
X172909580Y-119903374D01*
X172875908Y-120004389D01*
X172875908Y-120071732D01*
X172909580Y-120172748D01*
X173111610Y-120374778D01*
X173212625Y-120408450D01*
X173279969Y-120408450D01*
X173380984Y-120374778D01*
X173482000Y-120273763D01*
X172606534Y-121149228D02*
X172943251Y-120812511D01*
X172236145Y-120105404D01*
X172067786Y-121687976D02*
X171697397Y-121317587D01*
X171663725Y-121216572D01*
X171697397Y-121115557D01*
X171832084Y-120980870D01*
X171933099Y-120947198D01*
X172034114Y-121654305D02*
X172135129Y-121620633D01*
X172303488Y-121452274D01*
X172337160Y-121351259D01*
X172303488Y-121250244D01*
X172236145Y-121182900D01*
X172135129Y-121149228D01*
X172034114Y-121182900D01*
X171865755Y-121351259D01*
X171764740Y-121384931D01*
X171731068Y-122024694D02*
X171023962Y-121317587D01*
X171293336Y-121586961D02*
X171192320Y-121620633D01*
X171057633Y-121755320D01*
X171023962Y-121856335D01*
X171023962Y-121923679D01*
X171057633Y-122024694D01*
X171259664Y-122226724D01*
X171360679Y-122260396D01*
X171428023Y-122260396D01*
X171529038Y-122226724D01*
X171663725Y-122092037D01*
X171697397Y-121991022D01*
D11*
X108458000Y-99568000D03*
D12*
X178180000Y-92710000D03*
X174880000Y-92710000D03*
D11*
X108458000Y-102108000D03*
D13*
X146186000Y-66294000D03*
X147946000Y-66294000D03*
D14*
X160630000Y-113162000D03*
X154330000Y-113162000D03*
X160630000Y-116962000D03*
X154330000Y-116962000D03*
X140310000Y-113162000D03*
X134010000Y-113162000D03*
X140310000Y-116962000D03*
X134010000Y-116962000D03*
D15*
X139351000Y-78740000D03*
X139351000Y-80740000D03*
X139351000Y-82740000D03*
X139351000Y-84740000D03*
X139351000Y-86740000D03*
X139351000Y-88740000D03*
X139451000Y-90740000D03*
X139351000Y-92740000D03*
D16*
X142061000Y-94490000D03*
X144061000Y-94490000D03*
X146061000Y-94490000D03*
X148061000Y-94490000D03*
X150061000Y-94490000D03*
X152061000Y-94490000D03*
D15*
X154751000Y-92740000D03*
X154751000Y-90740000D03*
X154751000Y-88740000D03*
X154751000Y-86740000D03*
X154751000Y-84740000D03*
X154751000Y-82740000D03*
X154751000Y-80740000D03*
D17*
X154751000Y-78740000D03*
D11*
X108458000Y-97028000D03*
X108458000Y-94488000D03*
X108458000Y-91948000D03*
D13*
X160410000Y-82804000D03*
X162170000Y-82804000D03*
X150740000Y-113792000D03*
X148980000Y-113792000D03*
X148980000Y-104140000D03*
X150740000Y-104140000D03*
X143900000Y-113792000D03*
X145660000Y-113792000D03*
X143900000Y-104140000D03*
X145660000Y-104140000D03*
X134484000Y-71374000D03*
X132724000Y-71374000D03*
D18*
X160190000Y-103698000D03*
X160190000Y-105598000D03*
X162390000Y-105598000D03*
X162390000Y-104648000D03*
X162390000Y-103698000D03*
D19*
X184370000Y-93030000D03*
X184370000Y-100330000D03*
X186580000Y-100330000D03*
X186580000Y-93030000D03*
D20*
X183720000Y-98930000D03*
X183720000Y-97430000D03*
X183720000Y-94430000D03*
D21*
X185480000Y-98180000D03*
X185480000Y-95180000D03*
D22*
X164364500Y-97790000D03*
X162279500Y-97790000D03*
X162279500Y-92710000D03*
X164364500Y-92710000D03*
X160247500Y-73660000D03*
X162332500Y-73660000D03*
D23*
X146695000Y-129400000D03*
X147945000Y-129400000D03*
D24*
X144145000Y-126500000D03*
X150495000Y-126500000D03*
D22*
X169952500Y-92710000D03*
X167867500Y-92710000D03*
X169952500Y-106934000D03*
X167867500Y-106934000D03*
M02*
