<?xml version="1.0" encoding="UTF-8" standalone="no"?>
<!-- Created with Inkscape (http://www.inkscape.org/) -->

<svg
   xmlns:dc="http://purl.org/dc/elements/1.1/"
   xmlns:cc="http://creativecommons.org/ns#"
   xmlns:rdf="http://www.w3.org/1999/02/22-rdf-syntax-ns#"
   xmlns:svg="http://www.w3.org/2000/svg"
   xmlns="http://www.w3.org/2000/svg"
   xmlns:sodipodi="http://sodipodi.sourceforge.net/DTD/sodipodi-0.dtd"
   xmlns:inkscape="http://www.inkscape.org/namespaces/inkscape"
   width="50mm"
   height="12mm"
   viewBox="0 0 177.16535 42.519685"
   id="svg2"
   version="1.1"
   inkscape:version="0.91 r13725"
   sodipodi:docname="letra_ripolab_hacklab_50x12mm_v2.svg">
  <defs
     id="defs4" />
  <sodipodi:namedview
     id="base"
     pagecolor="#ffffff"
     bordercolor="#666666"
     borderopacity="1.0"
     inkscape:pageopacity="0.0"
     inkscape:pageshadow="2"
     inkscape:zoom="5.6"
     inkscape:cx="100.39258"
     inkscape:cy="17.739866"
     inkscape:document-units="mm"
     inkscape:current-layer="layer1"
     showgrid="false"
     inkscape:window-width="1865"
     inkscape:window-height="1056"
     inkscape:window-x="55"
     inkscape:window-y="24"
     inkscape:window-maximized="1" />
  <metadata
     id="metadata7">
    <rdf:RDF>
      <cc:Work
         rdf:about="">
        <dc:format>image/svg+xml</dc:format>
        <dc:type
           rdf:resource="http://purl.org/dc/dcmitype/StillImage" />
        <dc:title></dc:title>
      </cc:Work>
    </rdf:RDF>
  </metadata>
  <g
     inkscape:label="SilkS"
     inkscape:groupmode="layer"
     id="layer1"
     transform="translate(0,-1009.8425)">
    <g
       style="font-style:normal;font-variant:normal;font-weight:normal;font-stretch:normal;font-size:30.14778328px;line-height:125%;font-family:'Share Tech Mono';-inkscape-font-specification:'Share Tech Mono, Normal';text-align:start;letter-spacing:0px;word-spacing:0px;writing-mode:lr-tb;text-anchor:start;fill:#000000;fill-opacity:1;stroke:none;stroke-width:1px;stroke-linecap:butt;stroke-linejoin:miter;stroke-opacity:1"
       id="text3336"
       transform="matrix(0.80296792,0,0,0.80296792,0.05910786,198.98228)">
      <path
         inkscape:connector-curvature="0"
         d="m 2.9228482,1022.2585 0,8.7428 -2.62285713,0 0,-21.1034 5.66778323,0 q 2.5625616,0 3.8589163,1.1456 1.3265024,1.1155 1.3265024,3.5574 l 0,2.8942 q 0,3.4067 -2.7133004,4.2509 l 4.1905414,9.2553 -2.864039,0 -3.889064,-8.7428 -2.9544828,0 z m 5.6074877,-7.9289 q 0,-1.1456 -0.5426601,-1.6581 -0.5125123,-0.5125 -1.6581281,-0.5125 l -3.4066995,0 0,7.8384 3.4066995,0 q 1.1456158,0 1.6581281,-0.5125 0.5426601,-0.5427 0.5426601,-1.6883 l 0,-3.467 z"
         id="path3374" />
      <path
         inkscape:connector-curvature="0"
         d="m 23.998033,1009.8979 0,2.7133 -2.86404,0 0,-2.7133 2.86404,0 z m -7.145025,8.2906 0,-2.261 6.994286,0 0,12.8128 4.461872,0 0,2.261 -7.024434,0 0,-12.8128 -4.431724,0 z"
         id="path3376" />
      <path
         inkscape:connector-curvature="0"
         d="m 35.727405,1015.9275 0,0.7235 q 0.934581,-0.7235 2.411822,-0.7235 l 1.08532,0 q 2.653005,0 3.889064,1.1456 1.23606,1.1154 1.23606,3.678 l 0,5.4266 q 0,2.5324 -1.266207,3.678 -1.236059,1.1456 -3.858917,1.1456 l -3.346404,0 0,5.1252 -2.562561,0 0,-20.199 2.411823,0 z m 2.110344,2.261 q -0.994877,0 -1.477241,0.5427 -0.482365,0.5125 -0.482365,1.1155 l 0,8.8936 3.647882,0 q 1.115468,0 1.688276,-0.5126 0.572808,-0.5125 0.572808,-1.447 l 0,-6.6326 q 0,-0.9345 -0.572808,-1.4471 -0.572808,-0.5125 -1.688276,-0.5125 l -1.688276,0 z"
         id="path3378" />
      <path
         inkscape:connector-curvature="0"
         d="m 60.691651,1026.1777 q 0,2.5324 -1.266207,3.678 -1.236059,1.1456 -3.858916,1.1456 l -0.994877,0 q -2.622857,0 -3.889064,-1.1456 -1.236059,-1.1456 -1.236059,-3.678 l 0,-5.4266 q 0,-2.5324 1.236059,-3.678 1.266207,-1.1456 3.889064,-1.1456 l 0.994877,0 q 2.622857,0 3.858916,1.1456 1.266207,1.1456 1.266207,3.678 l 0,5.4266 z m -2.562561,-6.0296 q 0,-0.9345 -0.572808,-1.4471 -0.572808,-0.5125 -1.688276,-0.5125 l -1.597833,0 q -1.115468,0 -1.688275,0.5125 -0.572808,0.5126 -0.572808,1.4471 l 0,6.6326 q 0,0.9345 0.572808,1.447 0.572807,0.5126 1.688275,0.5126 l 1.597833,0 q 1.115468,0 1.688276,-0.5126 0.572808,-0.5125 0.572808,-1.447 l 0,-6.6326 z"
         id="path3380" />
      <path
         inkscape:connector-curvature="0"
         d="m 72.300434,1031.0013 q -1.025025,0 -1.808867,-0.7235 -0.753695,-0.7236 -0.753695,-2.2912 l 0,-15.8276 -4.431724,0 0,-2.2611 6.994286,0 0,17.9379 q 0,0.4824 0.241182,0.6934 0.241182,0.2111 0.81399,0.2111 l 4.009655,0 0,2.261 -5.064827,0 z"
         id="path3382" />
      <path
         inkscape:connector-curvature="0"
         d="m 92.01897,1031.0013 q -0.391921,0 -0.874286,-0.2411 -0.452217,-0.2412 -0.783842,-0.6633 -0.693399,0.9044 -1.839015,0.9044 l -2.683153,0 q -2.291231,0 -3.346404,-0.9044 -1.025024,-0.9346 -1.025024,-3.1655 l 0,-0.603 q 0,-4.6729 4.401576,-4.6729 l 3.738325,0 0,-1.5074 q 0,-0.9345 -0.572808,-1.4471 -0.572807,-0.5125 -1.688275,-0.5125 l -4.672907,0 0,-2.261 4.371429,0 q 2.622857,0 3.858916,1.1456 1.266207,1.1456 1.266207,3.678 l 0,7.2355 q 0,0.4522 0.331625,0.6934 0.361774,0.211 1.175764,0.211 l 0,2.1103 -1.658128,0 z m -3.798621,-2.261 q 0.904434,0 1.145616,-0.4221 0.241182,-0.4221 0.241182,-1.0853 l 0,-3.3163 -3.768473,0 q -0.783842,0 -1.296354,0.5125 -0.512513,0.5125 -0.512513,1.2964 l 0,1.5074 q 0,0.7838 0.361774,1.1456 0.361773,0.3618 1.145616,0.3618 l 2.683152,0 z"
         id="path3384" />
      <path
         inkscape:connector-curvature="0"
         d="m 109.35582,1026.1777 q 0,2.5324 -1.2662,3.678 -1.23606,1.1456 -3.85892,1.1456 l -5.908965,0 0,-21.1034 2.562565,0 0,6.6325 q 0.90443,-0.6029 2.26108,-0.6029 l 1.08532,0 q 2.65301,0 3.88906,1.1456 1.23606,1.1154 1.23606,3.678 l 0,5.4266 z m -6.51192,-7.9892 q -0.99487,0 -1.47724,0.5427 -0.48236,0.5125 -0.48236,1.1155 l 0,8.8936 3.64788,0 q 1.11547,0 1.68827,-0.5126 0.57281,-0.5125 0.57281,-1.447 l 0,-6.6326 q 0,-0.9345 -0.57281,-1.4471 -0.5728,-0.5125 -1.68827,-0.5125 l -1.68828,0 z"
         id="path3386" />
    </g>
    <g
       style="font-style:normal;font-variant:normal;font-weight:normal;font-stretch:normal;font-size:30.14778328px;line-height:125%;font-family:'Share Tech Mono';-inkscape-font-specification:'Share Tech Mono, Normal';text-align:start;letter-spacing:0px;word-spacing:0px;writing-mode:lr-tb;text-anchor:start;fill:#000000;fill-opacity:1;stroke:none;stroke-width:1px;stroke-linecap:butt;stroke-linejoin:miter;stroke-opacity:1"
       id="text3336-5"
       transform="matrix(0.80296792,0,0,0.80296792,34.773392,202.98228)">
      <path
         inkscape:connector-curvature="0"
         d="m 70.539257,1042.7867 0,9.7076 -2.622857,0 0,-21.1035 2.622857,0 0,9.1649 6.210444,0 0,-9.1649 2.622857,0 0,21.1035 -2.622857,0 0,-9.7076 -6.210444,0 z"
         id="path3359" />
      <path
         inkscape:connector-curvature="0"
         d="m 94.327742,1052.4943 q -0.391921,0 -0.874285,-0.2412 -0.452217,-0.2412 -0.783843,-0.6633 -0.693399,0.9045 -1.839014,0.9045 l -2.683153,0 q -2.291232,0 -3.346404,-0.9045 -1.025025,-0.9346 -1.025025,-3.1655 l 0,-0.6029 q 0,-4.673 4.401577,-4.673 l 3.738325,0 0,-1.5073 q 0,-0.9346 -0.572808,-1.4471 -0.572808,-0.5125 -1.688276,-0.5125 l -4.672906,0 0,-2.2611 4.371428,0 q 2.622857,0 3.858917,1.1456 1.266206,1.1456 1.266206,3.678 l 0,7.2355 q 0,0.4522 0.331626,0.6934 0.361773,0.211 1.175764,0.211 l 0,2.1104 -1.658129,0 z m -3.79862,-2.2611 q 0.904433,0 1.145616,-0.4221 0.241182,-0.4221 0.241182,-1.0853 l 0,-3.3163 -3.768473,0 q -0.783842,0 -1.296355,0.5125 -0.512512,0.5126 -0.512512,1.2964 l 0,1.5074 q 0,0.7838 0.361773,1.1456 0.361774,0.3618 1.145616,0.3618 l 2.683153,0 z"
         id="path3361" />
      <path
         inkscape:connector-curvature="0"
         d="m 106.75051,1052.4943 q -2.653,0 -3.88906,-1.1155 -1.23606,-1.1456 -1.23606,-3.7082 l 0,-5.4266 q 0,-2.5324 1.23606,-3.678 1.26621,-1.1456 3.88906,-1.1456 l 3.88907,0 0,2.2611 -4.19054,0 q -1.11547,0 -1.68828,0.5125 -0.57281,0.5125 -0.57281,1.4471 l 0,6.6325 q 0,0.9346 0.57281,1.4471 0.57281,0.5125 1.68828,0.5125 l 4.19054,0 0,2.2611 -3.88907,0 z"
         id="path3363" />
      <path
         inkscape:connector-curvature="0"
         d="m 119.71594,1046.0426 0,6.4517 -2.56256,0 0,-21.1035 2.56256,0 0,11.3959 4.7332,-5.3663 3.22582,0 -5.24572,5.9391 5.66779,9.1348 -3.16552,0 -4.43173,-7.3561 -0.78384,0.9044 z"
         id="path3365" />
      <path
         inkscape:connector-curvature="0"
         d="m 139.61537,1052.4943 q -1.02503,0 -1.80887,-0.7236 -0.7537,-0.7235 -0.7537,-2.2912 l 0,-15.8276 -4.43172,0 0,-2.2611 6.99429,0 0,17.9379 q 0,0.4824 0.24118,0.6934 0.24118,0.2111 0.81399,0.2111 l 4.00965,0 0,2.2611 -5.06482,0 z"
         id="path3367" />
      <path
         inkscape:connector-curvature="0"
         d="m 159.3339,1052.4943 q -0.39192,0 -0.87428,-0.2412 -0.45222,-0.2412 -0.78385,-0.6633 -0.6934,0.9045 -1.83901,0.9045 l -2.68315,0 q -2.29124,0 -3.34641,-0.9045 -1.02502,-0.9346 -1.02502,-3.1655 l 0,-0.6029 q 0,-4.673 4.40157,-4.673 l 3.73833,0 0,-1.5073 q 0,-0.9346 -0.57281,-1.4471 -0.57281,-0.5125 -1.68828,-0.5125 l -4.6729,0 0,-2.2611 4.37143,0 q 2.62285,0 3.85891,1.1456 1.26621,1.1456 1.26621,3.678 l 0,7.2355 q 0,0.4522 0.33163,0.6934 0.36177,0.211 1.17576,0.211 l 0,2.1104 -1.65813,0 z m -3.79862,-2.2611 q 0.90443,0 1.14562,-0.4221 0.24118,-0.4221 0.24118,-1.0853 l 0,-3.3163 -3.76847,0 q -0.78385,0 -1.29636,0.5125 -0.51251,0.5126 -0.51251,1.2964 l 0,1.5074 q 0,0.7838 0.36177,1.1456 0.36178,0.3618 1.14562,0.3618 l 2.68315,0 z"
         id="path3369" />
      <path
         inkscape:connector-curvature="0"
         d="m 176.67076,1047.6706 q 0,2.5324 -1.26621,3.678 -1.23606,1.1457 -3.85892,1.1457 l -5.90896,0 0,-21.1035 2.56256,0 0,6.6325 q 0.90443,-0.6029 2.26108,-0.6029 l 1.08532,0 q 2.65301,0 3.88907,1.1456 1.23606,1.1155 1.23606,3.678 l 0,5.4266 z m -6.51193,-7.9891 q -0.99487,0 -1.47724,0.5426 -0.48236,0.5125 -0.48236,1.1155 l 0,8.8936 3.64788,0 q 1.11547,0 1.68828,-0.5125 0.5728,-0.5125 0.5728,-1.4471 l 0,-6.6325 q 0,-0.9346 -0.5728,-1.4471 -0.57281,-0.5125 -1.68828,-0.5125 l -1.68828,0 z"
         id="path3371" />
    </g>
  </g>
</svg>
