<?xml version="1.0" encoding="UTF-8" standalone="no"?>
<!-- Created with Inkscape (http://www.inkscape.org/) -->

<svg
   xmlns:osb="http://www.openswatchbook.org/uri/2009/osb"
   xmlns:dc="http://purl.org/dc/elements/1.1/"
   xmlns:cc="http://creativecommons.org/ns#"
   xmlns:rdf="http://www.w3.org/1999/02/22-rdf-syntax-ns#"
   xmlns:svg="http://www.w3.org/2000/svg"
   xmlns="http://www.w3.org/2000/svg"
   xmlns:sodipodi="http://sodipodi.sourceforge.net/DTD/sodipodi-0.dtd"
   xmlns:inkscape="http://www.inkscape.org/namespaces/inkscape"
   width="100mm"
   height="100mm"
   viewBox="0 0 354.33071 354.3307"
   id="svg2"
   version="1.1"
   inkscape:version="0.91 r13725"
   sodipodi:docname="logo_pcb_cara.svg">
  <defs
     id="defs4">
    <linearGradient
       id="linearGradient5612"
       osb:paint="solid">
      <stop
         style="stop-color:#000000;stop-opacity:1;"
         offset="0"
         id="stop5614" />
    </linearGradient>
  </defs>
  <sodipodi:namedview
     id="base"
     pagecolor="#ffffff"
     bordercolor="#666666"
     borderopacity="1.0"
     inkscape:pageopacity="0.0"
     inkscape:pageshadow="2"
     inkscape:zoom="1.2871553"
     inkscape:cx="415.47534"
     inkscape:cy="12.529353"
     inkscape:document-units="mm"
     inkscape:current-layer="layer3"
     showgrid="false"
     units="mm"
     inkscape:window-width="1858"
     inkscape:window-height="1053"
     inkscape:window-x="62"
     inkscape:window-y="27"
     inkscape:window-maximized="1" />
  <metadata
     id="metadata7">
    <rdf:RDF>
      <cc:Work
         rdf:about="">
        <dc:format>image/svg+xml</dc:format>
        <dc:type
           rdf:resource="http://purl.org/dc/dcmitype/StillImage" />
        <dc:title></dc:title>
      </cc:Work>
    </rdf:RDF>
  </metadata>
  <g
     inkscape:groupmode="layer"
     id="layer3"
     inkscape:label="SilkS"
     style="display:inline">
    <path
       style="display:inline;opacity:1;fill:#000000;fill-opacity:1;stroke:#000000;stroke-width:0.025;stroke-linecap:round;stroke-linejoin:round;stroke-miterlimit:4;stroke-dasharray:none;stroke-dashoffset:0;stroke-opacity:1"
       d="m 94.333128,171.51495 c 0.165652,-0.96731 -3.61274,-10.08196 -4.279231,-10.32283 -0.261475,-0.0945 -2.978534,-0.60925 -6.037909,-1.14388 l -5.5625,-0.97207 0.0017,-6.00066 0.0017,-6.00066 4.265515,-0.822 c 2.346032,-0.45211 5.139649,-1.09815 6.208037,-1.43565 l 1.942522,-0.61365 0.95486,-2.03477 c 0.525172,-1.11912 1.424982,-3.22933 1.999578,-4.68935 l 1.044719,-2.65458 -2.802672,-4.125 c -1.541469,-2.26875 -3.04862,-4.61182 -3.349223,-5.20682 l -0.54655,-1.08182 0.682945,-0.91818 c 0.953231,-1.28156 6.891176,-7.29318 7.203804,-7.29318 0.141118,0 2.640235,1.58562 5.553597,3.5236 4.37992,2.91354 5.39808,3.49165 5.88077,3.33912 0.32107,-0.10146 1.92567,-0.78381 3.56579,-1.51634 3.44859,-1.54025 4.65304,-2.55112 5.39158,-4.52506 0.4115,-1.09983 2.00139,-8.75217 2.00139,-9.63294 0,-0.18434 1.84425,-0.21098 6.05591,-0.0875 3.33076,0.0977 6.10358,0.22525 6.16184,0.28351 0.0582,0.0583 0.58043,2.75543 1.1604,5.99373 0.57997,3.2383 1.09777,5.925 1.15067,5.97044 0.19314,0.16592 9.24266,3.65141 9.48029,3.65141 0.13474,0 2.43338,-1.52058 5.1081,-3.37907 2.67471,-1.85849 5.00816,-3.43473 5.18545,-3.50276 0.18327,-0.0703 2.1269,1.68409 4.50513,4.06657 l 4.1828,4.19026 -3.6203,5.18608 c -1.99116,2.85235 -3.62029,5.25496 -3.62029,5.33914 0,0.0842 0.91627,2.2199 2.03616,4.74605 1.45648,3.28542 2.17786,4.63797 2.53392,4.75098 0.27378,0.0869 3.0237,0.643 6.11095,1.2358 3.08724,0.5928 5.67244,1.13709 5.74489,1.20953 0.0724,0.0725 0.0344,2.80861 -0.0846,6.08037 l -0.21631,5.94865 -1.25,0.21167 c -3.6151,0.61217 -7.50903,1.4739 -8.73797,1.9337 -1.69951,0.63587 -2.09112,1.23743 -4.20031,6.45219 -1.17782,2.91206 -1.4231,3.74485 -1.20557,4.09334 0.25856,0.41423 -0.32215,0.43741 -10.91653,0.43578 l -11.18962,-0.002 -1.31563,-3.15639 c -1.02126,-2.45019 -1.25166,-3.23346 -1.02975,-3.50085 0.15722,-0.18944 1.07242,-0.86735 2.03376,-1.50645 3.93392,-2.61526 6.1916,-8.5352 5.19991,-13.63489 -1.63442,-8.40491 -11.50416,-13.17061 -19.25049,-9.29528 -3.66972,1.83589 -6.76881,6.10735 -7.23527,9.97231 -0.57376,4.75411 1.15881,8.8482 5.49938,12.99516 l 2.04255,1.95144 -1.22223,3.0267 -1.22223,3.0267 -11.05677,0.0651 -11.056771,0.0651 0.118178,-0.69009 z"
       id="path4158"
       inkscape:connector-curvature="0"
       transform="translate(0,-1.5258789e-5)" />
    <path
       style="display:inline;opacity:1;fill:#000000;fill-opacity:1;stroke:#000000;stroke-width:0.05;stroke-linecap:round;stroke-linejoin:round;stroke-miterlimit:4;stroke-dasharray:none;stroke-dashoffset:0;stroke-opacity:1"
       d="m 166.68927,269.8895 c -7.62411,-0.88555 -18.0497,-4.14658 -25.9071,-8.1035 -10.27635,-5.17509 -21.86891,-15.02037 -28.6186,-24.30507 l -3.06312,-4.21356 0,-5.41144 0,-5.41144 67,0 67,0 0,5.8115 0,5.81151 -2.35977,3.31349 c -6.28107,8.81964 -17.17281,18.17285 -28.14023,24.16526 -12.66114,6.91783 -30.4116,10.14354 -45.91118,8.34325 z"
       id="path5618"
       inkscape:connector-curvature="0"
       transform="translate(0,-1.5258789e-5)" />
    <path
       style="display:inline;opacity:1;fill:#000000;fill-opacity:1;stroke:#000000;stroke-width:0.05;stroke-linecap:round;stroke-linejoin:round;stroke-miterlimit:4;stroke-dasharray:none;stroke-dashoffset:0;stroke-opacity:1"
       d="m 197.3793,167.07727 c -1.08414,-2.68553 -2.16152,-5.0139 -2.39419,-5.17415 -0.23267,-0.16025 -3.0019,-0.71038 -6.15384,-1.22251 l -5.73082,-0.93115 0,-5.86276 0,-5.86276 1.625,-0.33067 c 7.54147,-1.53461 10.43155,-2.41048 11.09924,-3.36374 0.39724,-0.56714 1.42611,-2.77725 2.28637,-4.91136 l 1.56411,-3.88019 -3.28736,-4.88215 c -1.80805,-2.68517 -3.28736,-5.09863 -3.28736,-5.36323 0,-0.2646 1.74375,-2.25437 3.875,-4.4217 l 3.875,-3.9406 5.25,3.50619 c 2.8875,1.92841 5.48135,3.5066 5.76411,3.50709 0.98789,0.002 7.4932,-3.36766 8.3385,-4.31889 0.9355,-1.05274 2.073,-4.96587 2.63224,-9.0552 l 0.35899,-2.625 3.12973,0 c 1.72136,0 4.4719,0.14028 6.11232,0.31174 l 2.98258,0.31174 0.8965,5.31326 c 0.49307,2.92229 1.06437,5.62177 1.26955,5.99885 0.32883,0.60432 8.44353,4.06441 9.53197,4.06441 0.23059,0 2.71919,-1.58953 5.53022,-3.53228 4.88784,-3.37808 5.14728,-3.49267 5.94292,-2.625 0.45758,0.499 2.26422,2.43275 4.01476,4.29721 l 3.18279,3.38993 -3.55074,5.15819 -3.55073,5.15819 2.03172,4.61761 c 1.35307,3.0752 2.38259,4.75017 3.08215,5.01448 0.57773,0.21829 3.36317,0.81575 6.18986,1.32769 l 5.13944,0.93081 -0.13944,5.98094 -0.13944,5.98093 -4.75,0.9178 c -2.6125,0.50479 -5.3125,1.32347 -6,1.8193 -0.77136,0.55632 -1.92009,2.55757 -3,5.22642 l -1.75,4.32491 -11.05833,0.006 -11.05834,0.006 -1.09282,-2.625 -1.09282,-2.625 1.40115,-1.10452 c 4.2253,-3.3308 6.15116,-6.87204 6.15116,-11.31068 0,-4.08704 -0.83337,-6.50474 -3.1489,-9.13532 -3.06205,-3.47868 -5.29299,-4.43637 -10.3511,-4.44351 -3.70729,-0.005 -4.53732,0.1635 -6.5,1.32142 -4.61775,2.72431 -6.75738,6.43246 -6.73515,11.67258 0.0179,4.21929 1.12891,6.64017 4.85585,10.58086 l 2.51027,2.65425 -0.9774,2.38244 -0.97741,2.38245 -10.96308,0.13278 -10.96308,0.13279 -1.97115,-4.88279 z"
       id="path5620"
       inkscape:connector-curvature="0"
       transform="translate(0,-1.5258789e-5)" />
  </g>
</svg>
