  0
SECTION
  2
HEADER
  9
$ACADVER
  1
AC1014
  9
$HANDSEED
  5
FFFF
  9
$MEASUREMENT
 70
     1
  0
ENDSEC
  0
SECTION
  2
TABLES
  0
TABLE
  2
VPORT
  5
8
330
0
100
AcDbSymbolTable
 70
     4
  0
VPORT
  5
2E
330
8
100
AcDbSymbolTableRecord
100
AcDbViewportTableRecord
  2
*ACTIVE
 70
     0
 10
0.0
 20
0.0
 11
1.0
 21
1.0
 12
210.0
 22
148.5
 13
0.0
 23
0.0
 14
10.0
 24
10.0
 15
10.0
 25
10.0
 16
0.0
 26
0.0
 36
1.0
 17
0.0
 27
0.0
 37
0.0
 40
341.0
 41
1.24
 42
50.0
 43
0.0
 44
0.0
 50
0.0
 51
0.0
 71
     0
 72
   100
 73
     1
 74
     3
 75
     0
 76
     0
 77
     0
 78
     0
  0
ENDTAB
  0
TABLE
  2
LTYPE
  5
5
330
0
100
AcDbSymbolTable
 70
     1
  0
LTYPE
  5
14
330
5
100
AcDbSymbolTableRecord
100
AcDbLinetypeTableRecord
  2
BYBLOCK
 70
     0
  3

 72
    65
 73
     0
 40
0.0
  0
LTYPE
  5
15
330
5
100
AcDbSymbolTableRecord
100
AcDbLinetypeTableRecord
  2
BYLAYER
 70
     0
  3

 72
    65
 73
     0
 40
0.0
  0
LTYPE
  5
16
330
5
100
AcDbSymbolTableRecord
100
AcDbLinetypeTableRecord
  2
CONTINUOUS
 70
     0
  3
Solid line
 72
    65
 73
     0
 40
0.0
  0
ENDTAB
  0
TABLE
  2
LAYER
  5
2
100
AcDbSymbolTable
 70
2
  0
LAYER
  5
50
100
AcDbSymbolTableRecord
100
AcDbLayerTableRecord
  2
0
 70
0
  6
CONTINUOUS
  0
LAYER
  5
51
100
AcDbSymbolTableRecord
100
AcDbLayerTableRecord
  2
Edge.Cuts
 70
0
  6
CONTINUOUS
  0
ENDTAB
  0
TABLE
  2
STYLE
  5
3
330
0
100
AcDbSymbolTable
 70
     1
  0
STYLE
  5
11
330
3
100
AcDbSymbolTableRecord
100
AcDbTextStyleTableRecord
  2
STANDARD
 70
     0
 40
0.0
 41
1.0
 50
0.0
 71
     0
 42
2.5
  3
txt
  4

  0
ENDTAB
  0
TABLE
  2
VIEW
  5
6
330
0
100
AcDbSymbolTable
 70
     0
  0
ENDTAB
  0
TABLE
  2
UCS
  5
7
330
0
100
AcDbSymbolTable
 70
     0
  0
ENDTAB
  0
TABLE
  2
APPID
  5
9
330
0
100
AcDbSymbolTable
 70
     2
  0
APPID
  5
12
330
9
100
AcDbSymbolTableRecord
100
AcDbRegAppTableRecord
  2
ACAD
 70
     0
  0
ENDTAB
  0
TABLE
  2
DIMSTYLE
  5
A
330
0
100
AcDbSymbolTable
 70
     1
  0
DIMSTYLE
105
27
330
A
100
AcDbSymbolTableRecord
100
AcDbDimStyleTableRecord
  2
ISO-25
 70
     0
  3

  4

  5

  6

  7

 40
1.0
 41
2.5
 42
0.625
 43
3.75
 44
1.25
 45
0.0
 46
0.0
 47
0.0
 48
0.0
140
2.5
141
2.5
142
0.0
143
0.03937007874016
144
1.0
145
0.0
146
1.0
147
0.625
 71
     0
 72
     0
 73
     0
 74
     0
 75
     0
 76
     0
 77
     1
 78
     8
170
     0
171
     3
172
     1
173
     0
174
     0
175
     0
176
     0
177
     0
178
     0
270
     2
271
     2
272
     2
273
     2
274
     3
340
11
275
     0
280
     0
281
     0
282
     0
283
     0
284
     8
285
     0
286
     0
287
     3
288
     0
  0
ENDTAB
  0
TABLE
  2
BLOCK_RECORD
  5
1
330
0
100
AcDbSymbolTable
 70
     1
  0
BLOCK_RECORD
  5
1F
330
1
100
AcDbSymbolTableRecord
100
AcDbBlockTableRecord
  2
*MODEL_SPACE
  0
BLOCK_RECORD
  5
1B
330
1
100
AcDbSymbolTableRecord
100
AcDbBlockTableRecord
  2
*PAPER_SPACE
  0
ENDTAB
  0
ENDSEC
  0
SECTION
  2
BLOCKS
  0
BLOCK
  5
20
330
1F
100
AcDbEntity
  8
0
100
AcDbBlockBegin
  2
*MODEL_SPACE
 70
     0
 10
0.0
 20
0.0
 30
0.0
  3
*MODEL_SPACE
  1

  0
ENDBLK
  5
21
330
1F
100
AcDbEntity
  8
0
100
AcDbBlockEnd
  0
BLOCK
  5
1C
330
1B
100
AcDbEntity
 67
     1
  8
0
100
AcDbBlockBegin
  2
*PAPER_SPACE
  1

  0
ENDBLK
  5
1D
330
1B
100
AcDbEntity
 67
     1
  8
0
100
AcDbBlockEnd
  0
ENDSEC
  0
SECTION
  2
ENTITIES
  0
LWPOLYLINE
  5
100
100
AcDbEntity
  8
Edge.Cuts
 62
7
100
AcDbPolyline
 90
276
 70
0
 10
2.484560
 20
4.510338
 30
0.0
 10
2.417116
 20
4.509587
 30
0.0
 10
2.350074
 20
4.507346
 30
0.0
 10
2.283456
 20
4.503632
 30
0.0
 10
2.217282
 20
4.498463
 30
0.0
 10
2.151575
 20
4.491856
 30
0.0
 10
2.086355
 20
4.483828
 30
0.0
 10
2.021643
 20
4.474397
 30
0.0
 10
1.957460
 20
4.463581
 30
0.0
 10
1.893828
 20
4.451397
 30
0.0
 10
1.830767
 20
4.437862
 30
0.0
 10
1.768299
 20
4.422994
 30
0.0
 10
1.706445
 20
4.406810
 30
0.0
 10
1.645225
 20
4.389327
 30
0.0
 10
1.584661
 20
4.370564
 30
0.0
 10
1.524774
 20
4.350537
 30
0.0
 10
1.465586
 20
4.329265
 30
0.0
 10
1.407116
 20
4.306763
 30
0.0
 10
1.349387
 20
4.283051
 30
0.0
 10
1.292420
 20
4.258145
 30
0.0
 10
1.236234
 20
4.232062
 30
0.0
 10
1.180853
 20
4.204821
 30
0.0
 10
1.126296
 20
4.176439
 30
0.0
 10
1.072585
 20
4.146932
 30
0.0
 10
1.019741
 20
4.116319
 30
0.0
 10
0.967785
 20
4.084618
 30
0.0
 10
0.916738
 20
4.051844
 30
0.0
 10
0.866622
 20
4.018016
 30
0.0
 10
0.817456
 20
3.983152
 30
0.0
 10
0.769263
 20
3.947269
 30
0.0
 10
0.722064
 20
3.910383
 30
0.0
 10
0.675880
 20
3.872514
 30
0.0
 10
0.630731
 20
3.833677
 30
0.0
 10
0.586639
 20
3.793891
 30
0.0
 10
0.543625
 20
3.753173
 30
0.0
 10
0.501710
 20
3.711540
 30
0.0
 10
0.460915
 20
3.669010
 30
0.0
 10
0.421261
 20
3.625601
 30
0.0
 10
0.382770
 20
3.581329
 30
0.0
 10
0.345462
 20
3.536213
 30
0.0
 10
0.309359
 20
3.490269
 30
0.0
 10
0.274482
 20
3.443515
 30
0.0
 10
0.240851
 20
3.395969
 30
0.0
 10
0.208488
 20
3.347647
 30
0.0
 10
0.177414
 20
3.298568
 30
0.0
 10
0.147651
 20
3.248749
 30
0.0
 10
0.119218
 20
3.198207
 30
0.0
 10
0.092138
 20
3.146960
 30
0.0
 10
0.066431
 20
3.095025
 30
0.0
 10
0.042119
 20
3.042420
 30
0.0
 10
0.019222
 20
2.989162
 30
0.0
 10
-0.002238
 20
2.935268
 30
0.0
 10
-0.022240
 20
2.880757
 30
0.0
 10
-0.040764
 20
2.825644
 30
0.0
 10
-0.057787
 20
2.769949
 30
0.0
 10
-0.073289
 20
2.713688
 30
0.0
 10
-0.087249
 20
2.656879
 30
0.0
 10
-0.099646
 20
2.599538
 30
0.0
 10
-0.110458
 20
2.541685
 30
0.0
 10
-0.119665
 20
2.483335
 30
0.0
 10
-0.127245
 20
2.424507
 30
0.0
 10
-0.130418
 20
2.394919
 30
0.0
 10
-0.133177
 20
2.365218
 30
0.0
 10
-0.135519
 20
2.335406
 30
0.0
 10
-0.137441
 20
2.305486
 30
0.0
 10
-0.138940
 20
2.275458
 30
0.0
 10
-0.140014
 20
2.245327
 30
0.0
 10
-0.140661
 20
2.215093
 30
0.0
 10
-0.140877
 20
2.184759
 30
0.0
 10
-0.140661
 20
2.154425
 30
0.0
 10
-0.140014
 20
2.124191
 30
0.0
 10
-0.138940
 20
2.094059
 30
0.0
 10
-0.137441
 20
2.064032
 30
0.0
 10
-0.135519
 20
2.034110
 30
0.0
 10
-0.133177
 20
2.004297
 30
0.0
 10
-0.130418
 20
1.974595
 30
0.0
 10
-0.127245
 20
1.945005
 30
0.0
 10
-0.119665
 20
1.886174
 30
0.0
 10
-0.110458
 20
1.827821
 30
0.0
 10
-0.099646
 20
1.769963
 30
0.0
 10
-0.087249
 20
1.712617
 30
0.0
 10
-0.073289
 20
1.655802
 30
0.0
 10
-0.057787
 20
1.599534
 30
0.0
 10
-0.040764
 20
1.543832
 30
0.0
 10
-0.022240
 20
1.488712
 30
0.0
 10
-0.002238
 20
1.434192
 30
0.0
 10
0.019222
 20
1.380290
 30
0.0
 10
0.042119
 20
1.327023
 30
0.0
 10
0.066431
 20
1.274409
 30
0.0
 10
0.092138
 20
1.222464
 30
0.0
 10
0.119218
 20
1.171207
 30
0.0
 10
0.147651
 20
1.120654
 30
0.0
 10
0.177414
 20
1.070824
 30
0.0
 10
0.208488
 20
1.021734
 30
0.0
 10
0.240851
 20
0.973401
 30
0.0
 10
0.274482
 20
0.925843
 30
0.0
 10
0.309359
 20
0.879078
 30
0.0
 10
0.345462
 20
0.833122
 30
0.0
 10
0.382770
 20
0.787993
 30
0.0
 10
0.421261
 20
0.743709
 30
0.0
 10
0.460915
 20
0.700286
 30
0.0
 10
0.501710
 20
0.657744
 30
0.0
 10
0.543625
 20
0.616098
 30
0.0
 10
0.586639
 20
0.575368
 30
0.0
 10
0.630731
 20
0.535569
 30
0.0
 10
0.675880
 20
0.496719
 30
0.0
 10
0.722064
 20
0.458837
 30
0.0
 10
0.769263
 20
0.421938
 30
0.0
 10
0.817456
 20
0.386042
 30
0.0
 10
0.866622
 20
0.351165
 30
0.0
 10
0.916738
 20
0.317325
 30
0.0
 10
0.967785
 20
0.284539
 30
0.0
 10
1.019741
 20
0.252825
 30
0.0
 10
1.072585
 20
0.222201
 30
0.0
 10
1.126296
 20
0.192682
 30
0.0
 10
1.180853
 20
0.164288
 30
0.0
 10
1.236234
 20
0.137036
 30
0.0
 10
1.292420
 20
0.110943
 30
0.0
 10
1.349387
 20
0.086026
 30
0.0
 10
1.407116
 20
0.062303
 30
0.0
 10
1.465586
 20
0.039792
 30
0.0
 10
1.524774
 20
0.018510
 30
0.0
 10
1.584661
 20
-0.001526
 30
0.0
 10
1.645225
 20
-0.020297
 30
0.0
 10
1.706445
 20
-0.037788
 30
0.0
 10
1.768299
 20
-0.053980
 30
0.0
 10
1.830767
 20
-0.068855
 30
0.0
 10
1.893828
 20
-0.082396
 30
0.0
 10
1.957460
 20
-0.094587
 30
0.0
 10
2.021643
 20
-0.105408
 30
0.0
 10
2.086355
 20
-0.114843
 30
0.0
 10
2.151575
 20
-0.122875
 30
0.0
 10
2.217282
 20
-0.129486
 30
0.0
 10
2.283456
 20
-0.134658
 30
0.0
 10
2.350074
 20
-0.138374
 30
0.0
 10
2.417116
 20
-0.140616
 30
0.0
 10
2.484560
 20
-0.141367
 30
0.0
 10
10.752238
 20
-0.141367
 30
0.0
 10
10.819683
 20
-0.140616
 30
0.0
 10
10.886726
 20
-0.138374
 30
0.0
 10
10.953346
 20
-0.134658
 30
0.0
 10
11.019522
 20
-0.129486
 30
0.0
 10
11.085233
 20
-0.122875
 30
0.0
 10
11.150457
 20
-0.114843
 30
0.0
 10
11.215174
 20
-0.105408
 30
0.0
 10
11.279362
 20
-0.094587
 30
0.0
 10
11.343000
 20
-0.082396
 30
0.0
 10
11.406068
 20
-0.068855
 30
0.0
 10
11.468543
 20
-0.053980
 30
0.0
 10
11.530405
 20
-0.037788
 30
0.0
 10
11.591633
 20
-0.020297
 30
0.0
 10
11.652206
 20
-0.001526
 30
0.0
 10
11.712102
 20
0.018510
 30
0.0
 10
11.771300
 20
0.039792
 30
0.0
 10
11.829779
 20
0.062303
 30
0.0
 10
11.887519
 20
0.086026
 30
0.0
 10
11.944497
 20
0.110943
 30
0.0
 10
12.000693
 20
0.137036
 30
0.0
 10
12.056086
 20
0.164288
 30
0.0
 10
12.110654
 20
0.192682
 30
0.0
 10
12.164377
 20
0.222201
 30
0.0
 10
12.217233
 20
0.252825
 30
0.0
 10
12.269201
 20
0.284539
 30
0.0
 10
12.320261
 20
0.317325
 30
0.0
 10
12.370390
 20
0.351165
 30
0.0
 10
12.419568
 20
0.386042
 30
0.0
 10
12.467773
 20
0.421938
 30
0.0
 10
12.514986
 20
0.458837
 30
0.0
 10
12.561183
 20
0.496719
 30
0.0
 10
12.606345
 20
0.535569
 30
0.0
 10
12.650450
 20
0.575368
 30
0.0
 10
12.693477
 20
0.616098
 30
0.0
 10
12.735405
 20
0.657744
 30
0.0
 10
12.776212
 20
0.700286
 30
0.0
 10
12.815878
 20
0.743709
 30
0.0
 10
12.854382
 20
0.787993
 30
0.0
 10
12.891702
 20
0.833122
 30
0.0
 10
12.927818
 20
0.879078
 30
0.0
 10
12.962707
 20
0.925843
 30
0.0
 10
12.996350
 20
0.973401
 30
0.0
 10
13.028724
 20
1.021734
 30
0.0
 10
13.059809
 20
1.070824
 30
0.0
 10
13.089584
 20
1.120654
 30
0.0
 10
13.118027
 20
1.171207
 30
0.0
 10
13.145117
 20
1.222464
 30
0.0
 10
13.170834
 20
1.274409
 30
0.0
 10
13.195156
 20
1.327023
 30
0.0
 10
13.218062
 20
1.380290
 30
0.0
 10
13.239530
 20
1.434192
 30
0.0
 10
13.259541
 20
1.488712
 30
0.0
 10
13.278072
 20
1.543832
 30
0.0
 10
13.295102
 20
1.599534
 30
0.0
 10
13.310611
 20
1.655802
 30
0.0
 10
13.324577
 20
1.712617
 30
0.0
 10
13.336979
 20
1.769963
 30
0.0
 10
13.347796
 20
1.827821
 30
0.0
 10
13.357006
 20
1.886174
 30
0.0
 10
13.364590
 20
1.945005
 30
0.0
 10
13.367765
 20
1.974595
 30
0.0
 10
13.370525
 20
2.004297
 30
0.0
 10
13.372868
 20
2.034110
 30
0.0
 10
13.374790
 20
2.064032
 30
0.0
 10
13.376290
 20
2.094059
 30
0.0
 10
13.377365
 20
2.124191
 30
0.0
 10
13.378012
 20
2.154425
 30
0.0
 10
13.378228
 20
2.184759
 30
0.0
 10
13.378012
 20
2.215093
 30
0.0
 10
13.377365
 20
2.245327
 30
0.0
 10
13.376290
 20
2.275458
 30
0.0
 10
13.374790
 20
2.305486
 30
0.0
 10
13.372868
 20
2.335406
 30
0.0
 10
13.370525
 20
2.365218
 30
0.0
 10
13.367765
 20
2.394919
 30
0.0
 10
13.364590
 20
2.424507
 30
0.0
 10
13.357006
 20
2.483335
 30
0.0
 10
13.347796
 20
2.541685
 30
0.0
 10
13.336979
 20
2.599538
 30
0.0
 10
13.324577
 20
2.656879
 30
0.0
 10
13.310611
 20
2.713688
 30
0.0
 10
13.295102
 20
2.769949
 30
0.0
 10
13.278072
 20
2.825644
 30
0.0
 10
13.259541
 20
2.880757
 30
0.0
 10
13.239530
 20
2.935268
 30
0.0
 10
13.218062
 20
2.989162
 30
0.0
 10
13.195156
 20
3.042420
 30
0.0
 10
13.170834
 20
3.095025
 30
0.0
 10
13.145117
 20
3.146960
 30
0.0
 10
13.118027
 20
3.198207
 30
0.0
 10
13.089584
 20
3.248749
 30
0.0
 10
13.059809
 20
3.298568
 30
0.0
 10
13.028724
 20
3.347647
 30
0.0
 10
12.996350
 20
3.395969
 30
0.0
 10
12.962707
 20
3.443515
 30
0.0
 10
12.927818
 20
3.490269
 30
0.0
 10
12.891702
 20
3.536213
 30
0.0
 10
12.854382
 20
3.581329
 30
0.0
 10
12.815878
 20
3.625601
 30
0.0
 10
12.776212
 20
3.669010
 30
0.0
 10
12.735405
 20
3.711540
 30
0.0
 10
12.693477
 20
3.753173
 30
0.0
 10
12.650450
 20
3.793891
 30
0.0
 10
12.606345
 20
3.833677
 30
0.0
 10
12.561183
 20
3.872514
 30
0.0
 10
12.514986
 20
3.910383
 30
0.0
 10
12.467773
 20
3.947269
 30
0.0
 10
12.419568
 20
3.983152
 30
0.0
 10
12.370390
 20
4.018016
 30
0.0
 10
12.320261
 20
4.051844
 30
0.0
 10
12.269201
 20
4.084618
 30
0.0
 10
12.217233
 20
4.116319
 30
0.0
 10
12.164377
 20
4.146932
 30
0.0
 10
12.110654
 20
4.176439
 30
0.0
 10
12.056086
 20
4.204821
 30
0.0
 10
12.000693
 20
4.232062
 30
0.0
 10
11.944497
 20
4.258145
 30
0.0
 10
11.887519
 20
4.283051
 30
0.0
 10
11.829779
 20
4.306763
 30
0.0
 10
11.771300
 20
4.329265
 30
0.0
 10
11.712102
 20
4.350537
 30
0.0
 10
11.652206
 20
4.370564
 30
0.0
 10
11.591633
 20
4.389327
 30
0.0
 10
11.530405
 20
4.406810
 30
0.0
 10
11.468543
 20
4.422994
 30
0.0
 10
11.406068
 20
4.437862
 30
0.0
 10
11.343000
 20
4.451397
 30
0.0
 10
11.279362
 20
4.463581
 30
0.0
 10
11.215174
 20
4.474397
 30
0.0
 10
11.150457
 20
4.483828
 30
0.0
 10
11.085233
 20
4.491856
 30
0.0
 10
11.019522
 20
4.498463
 30
0.0
 10
10.953346
 20
4.503632
 30
0.0
 10
10.886726
 20
4.507346
 30
0.0
 10
10.819683
 20
4.509587
 30
0.0
 10
10.752238
 20
4.510338
 30
0.0
 10
2.484560
 20
4.510338
 30
0.0
 10
2.484560
 20
4.510338
 30
0.0
  0
LWPOLYLINE
  5
101
100
AcDbEntity
  8
Edge.Cuts
 62
7
100
AcDbPolyline
 90
260
 70
0
 10
2.484560
 20
4.228116
 30
0.0
 10
10.752238
 20
4.228116
 30
0.0
 10
10.813429
 20
4.227445
 30
0.0
 10
10.874199
 20
4.225444
 30
0.0
 10
10.934530
 20
4.222130
 30
0.0
 10
10.994405
 20
4.217517
 30
0.0
 10
11.053806
 20
4.211624
 30
0.0
 10
11.112717
 20
4.204466
 30
0.0
 10
11.171120
 20
4.196059
 30
0.0
 10
11.228997
 20
4.186420
 30
0.0
 10
11.286332
 20
4.175565
 30
0.0
 10
11.343106
 20
4.163511
 30
0.0
 10
11.399303
 20
4.150274
 30
0.0
 10
11.454904
 20
4.135870
 30
0.0
 10
11.509894
 20
4.120316
 30
0.0
 10
11.564254
 20
4.103628
 30
0.0
 10
11.617967
 20
4.085822
 30
0.0
 10
11.671016
 20
4.066915
 30
0.0
 10
11.723383
 20
4.046922
 30
0.0
 10
11.775051
 20
4.025862
 30
0.0
 10
11.826003
 20
4.003749
 30
0.0
 10
11.876221
 20
3.980600
 30
0.0
 10
11.925688
 20
3.956431
 30
0.0
 10
11.974386
 20
3.931260
 30
0.0
 10
12.022299
 20
3.905101
 30
0.0
 10
12.069408
 20
3.877972
 30
0.0
 10
12.115697
 20
3.849889
 30
0.0
 10
12.161149
 20
3.820869
 30
0.0
 10
12.205745
 20
3.790926
 30
0.0
 10
12.249468
 20
3.760079
 30
0.0
 10
12.292302
 20
3.728343
 30
0.0
 10
12.334228
 20
3.695735
 30
0.0
 10
12.375230
 20
3.662270
 30
0.0
 10
12.415290
 20
3.627966
 30
0.0
 10
12.454390
 20
3.592839
 30
0.0
 10
12.492514
 20
3.556905
 30
0.0
 10
12.529644
 20
3.520180
 30
0.0
 10
12.565763
 20
3.482681
 30
0.0
 10
12.600852
 20
3.444424
 30
0.0
 10
12.634896
 20
3.405425
 30
0.0
 10
12.667876
 20
3.365702
 30
0.0
 10
12.699776
 20
3.325269
 30
0.0
 10
12.730577
 20
3.284144
 30
0.0
 10
12.760263
 20
3.242343
 30
0.0
 10
12.788816
 20
3.199882
 30
0.0
 10
12.816218
 20
3.156778
 30
0.0
 10
12.842453
 20
3.113047
 30
0.0
 10
12.867504
 20
3.068704
 30
0.0
 10
12.891352
 20
3.023768
 30
0.0
 10
12.913980
 20
2.978254
 30
0.0
 10
12.935372
 20
2.932178
 30
0.0
 10
12.955509
 20
2.885556
 30
0.0
 10
12.974374
 20
2.838406
 30
0.0
 10
12.991950
 20
2.790743
 30
0.0
 10
13.008220
 20
2.742584
 30
0.0
 10
13.023167
 20
2.693945
 30
0.0
 10
13.036772
 20
2.644842
 30
0.0
 10
13.049019
 20
2.595293
 30
0.0
 10
13.059889
 20
2.545312
 30
0.0
 10
13.069367
 20
2.494917
 30
0.0
 10
13.077434
 20
2.444124
 30
0.0
 10
13.084074
 20
2.392949
 30
0.0
 10
13.089268
 20
2.341409
 30
0.0
 10
13.093000
 20
2.289520
 30
0.0
 10
13.095251
 20
2.237298
 30
0.0
 10
13.096006
 20
2.184759
 30
0.0
 10
13.095251
 20
2.132221
 30
0.0
 10
13.093000
 20
2.079997
 30
0.0
 10
13.089268
 20
2.028106
 30
0.0
 10
13.084074
 20
1.976563
 30
0.0
 10
13.077434
 20
1.925385
 30
0.0
 10
13.069367
 20
1.874588
 30
0.0
 10
13.059889
 20
1.824189
 30
0.0
 10
13.049019
 20
1.774203
 30
0.0
 10
13.036772
 20
1.724647
 30
0.0
 10
13.023167
 20
1.675538
 30
0.0
 10
13.008220
 20
1.626892
 30
0.0
 10
12.991950
 20
1.578726
 30
0.0
 10
12.974374
 20
1.531055
 30
0.0
 10
12.955509
 20
1.483896
 30
0.0
 10
12.935372
 20
1.437266
 30
0.0
 10
12.913980
 20
1.391180
 30
0.0
 10
12.891352
 20
1.345656
 30
0.0
 10
12.867504
 20
1.300710
 30
0.0
 10
12.842453
 20
1.256357
 30
0.0
 10
12.816218
 20
1.212615
 30
0.0
 10
12.788816
 20
1.169499
 30
0.0
 10
12.760263
 20
1.127027
 30
0.0
 10
12.730577
 20
1.085214
 30
0.0
 10
12.699776
 20
1.044077
 30
0.0
 10
12.667876
 20
1.003633
 30
0.0
 10
12.634896
 20
0.963897
 30
0.0
 10
12.600852
 20
0.924886
 30
0.0
 10
12.565763
 20
0.886616
 30
0.0
 10
12.529644
 20
0.849104
 30
0.0
 10
12.492514
 20
0.812367
 30
0.0
 10
12.454390
 20
0.776419
 30
0.0
 10
12.415290
 20
0.741279
 30
0.0
 10
12.375230
 20
0.706962
 30
0.0
 10
12.334228
 20
0.673485
 30
0.0
 10
12.292302
 20
0.640864
 30
0.0
 10
12.249468
 20
0.609115
 30
0.0
 10
12.205745
 20
0.578255
 30
0.0
 10
12.161149
 20
0.548301
 30
0.0
 10
12.115697
 20
0.519268
 30
0.0
 10
12.069408
 20
0.491172
 30
0.0
 10
12.022299
 20
0.464031
 30
0.0
 10
11.974386
 20
0.437861
 30
0.0
 10
11.925688
 20
0.412678
 30
0.0
 10
11.876221
 20
0.388499
 30
0.0
 10
11.826003
 20
0.365339
 30
0.0
 10
11.775051
 20
0.343215
 30
0.0
 10
11.723383
 20
0.322144
 30
0.0
 10
11.671016
 20
0.302142
 30
0.0
 10
11.617967
 20
0.283225
 30
0.0
 10
11.564254
 20
0.265411
 30
0.0
 10
11.509894
 20
0.248714
 30
0.0
 10
11.454904
 20
0.233151
 30
0.0
 10
11.399303
 20
0.218740
 30
0.0
 10
11.343106
 20
0.205496
 30
0.0
 10
11.286332
 20
0.193435
 30
0.0
 10
11.228997
 20
0.182574
 30
0.0
 10
11.171120
 20
0.172930
 30
0.0
 10
11.112717
 20
0.164519
 30
0.0
 10
11.053806
 20
0.157356
 30
0.0
 10
10.994405
 20
0.151460
 30
0.0
 10
10.934530
 20
0.146845
 30
0.0
 10
10.874199
 20
0.143528
 30
0.0
 10
10.813429
 20
0.141526
 30
0.0
 10
10.752238
 20
0.140855
 30
0.0
 10
2.484560
 20
0.140855
 30
0.0
 10
2.423370
 20
0.141526
 30
0.0
 10
2.362601
 20
0.143528
 30
0.0
 10
2.302272
 20
0.146845
 30
0.0
 10
2.242400
 20
0.151460
 30
0.0
 10
2.183002
 20
0.157356
 30
0.0
 10
2.124095
 20
0.164519
 30
0.0
 10
2.065697
 20
0.172930
 30
0.0
 10
2.007825
 20
0.182574
 30
0.0
 10
1.950497
 20
0.193435
 30
0.0
 10
1.893729
 20
0.205496
 30
0.0
 10
1.837540
 20
0.218740
 30
0.0
 10
1.781946
 20
0.233151
 30
0.0
 10
1.726964
 20
0.248714
 30
0.0
 10
1.672613
 20
0.265411
 30
0.0
 10
1.618909
 20
0.283225
 30
0.0
 10
1.565870
 20
0.302142
 30
0.0
 10
1.513513
 20
0.322144
 30
0.0
 10
1.461855
 20
0.343215
 30
0.0
 10
1.410914
 20
0.365339
 30
0.0
 10
1.360707
 20
0.388499
 30
0.0
 10
1.311251
 20
0.412678
 30
0.0
 10
1.262564
 20
0.437861
 30
0.0
 10
1.214663
 20
0.464031
 30
0.0
 10
1.167566
 20
0.491172
 30
0.0
 10
1.121289
 20
0.519268
 30
0.0
 10
1.075850
 20
0.548301
 30
0.0
 10
1.031267
 20
0.578255
 30
0.0
 10
0.987556
 20
0.609115
 30
0.0
 10
0.944735
 20
0.640864
 30
0.0
 10
0.902821
 20
0.673485
 30
0.0
 10
0.861832
 20
0.706962
 30
0.0
 10
0.821786
 20
0.741279
 30
0.0
 10
0.782698
 20
0.776419
 30
0.0
 10
0.744587
 20
0.812367
 30
0.0
 10
0.707470
 20
0.849104
 30
0.0
 10
0.671364
 20
0.886616
 30
0.0
 10
0.636287
 20
0.924886
 30
0.0
 10
0.602256
 20
0.963897
 30
0.0
 10
0.569288
 20
1.003633
 30
0.0
 10
0.537401
 20
1.044077
 30
0.0
 10
0.506612
 20
1.085214
 30
0.0
 10
0.476938
 20
1.127027
 30
0.0
 10
0.448397
 20
1.169499
 30
0.0
 10
0.421005
 20
1.212615
 30
0.0
 10
0.394781
 20
1.256357
 30
0.0
 10
0.369741
 20
1.300710
 30
0.0
 10
0.345903
 20
1.345656
 30
0.0
 10
0.323285
 20
1.391180
 30
0.0
 10
0.301903
 20
1.437266
 30
0.0
 10
0.281775
 20
1.483896
 30
0.0
 10
0.262918
 20
1.531055
 30
0.0
 10
0.245350
 20
1.578726
 30
0.0
 10
0.229088
 20
1.626892
 30
0.0
 10
0.214148
 20
1.675538
 30
0.0
 10
0.200550
 20
1.724647
 30
0.0
 10
0.188309
 20
1.774203
 30
0.0
 10
0.177443
 20
1.824189
 30
0.0
 10
0.167970
 20
1.874588
 30
0.0
 10
0.159907
 20
1.925385
 30
0.0
 10
0.153271
 20
1.976563
 30
0.0
 10
0.148080
 20
2.028106
 30
0.0
 10
0.144350
 20
2.079997
 30
0.0
 10
0.142099
 20
2.132221
 30
0.0
 10
0.141345
 20
2.184759
 30
0.0
 10
0.142099
 20
2.237298
 30
0.0
 10
0.144350
 20
2.289520
 30
0.0
 10
0.148080
 20
2.341409
 30
0.0
 10
0.153271
 20
2.392949
 30
0.0
 10
0.159907
 20
2.444124
 30
0.0
 10
0.167970
 20
2.494917
 30
0.0
 10
0.177443
 20
2.545312
 30
0.0
 10
0.188309
 20
2.595293
 30
0.0
 10
0.200550
 20
2.644842
 30
0.0
 10
0.214148
 20
2.693945
 30
0.0
 10
0.229088
 20
2.742584
 30
0.0
 10
0.245350
 20
2.790743
 30
0.0
 10
0.262918
 20
2.838406
 30
0.0
 10
0.281775
 20
2.885556
 30
0.0
 10
0.301903
 20
2.932178
 30
0.0
 10
0.323285
 20
2.978254
 30
0.0
 10
0.345903
 20
3.023768
 30
0.0
 10
0.369741
 20
3.068704
 30
0.0
 10
0.394781
 20
3.113047
 30
0.0
 10
0.421005
 20
3.156778
 30
0.0
 10
0.448397
 20
3.199882
 30
0.0
 10
0.476938
 20
3.242343
 30
0.0
 10
0.506612
 20
3.284144
 30
0.0
 10
0.537401
 20
3.325269
 30
0.0
 10
0.569288
 20
3.365702
 30
0.0
 10
0.602256
 20
3.405425
 30
0.0
 10
0.636287
 20
3.444424
 30
0.0
 10
0.671364
 20
3.482681
 30
0.0
 10
0.707470
 20
3.520180
 30
0.0
 10
0.744587
 20
3.556905
 30
0.0
 10
0.782698
 20
3.592839
 30
0.0
 10
0.821786
 20
3.627966
 30
0.0
 10
0.861832
 20
3.662270
 30
0.0
 10
0.902821
 20
3.695735
 30
0.0
 10
0.944735
 20
3.728343
 30
0.0
 10
0.987556
 20
3.760079
 30
0.0
 10
1.031267
 20
3.790926
 30
0.0
 10
1.075850
 20
3.820869
 30
0.0
 10
1.121289
 20
3.849889
 30
0.0
 10
1.167566
 20
3.877972
 30
0.0
 10
1.214663
 20
3.905101
 30
0.0
 10
1.262564
 20
3.931260
 30
0.0
 10
1.311251
 20
3.956431
 30
0.0
 10
1.360707
 20
3.980600
 30
0.0
 10
1.410914
 20
4.003749
 30
0.0
 10
1.461855
 20
4.025862
 30
0.0
 10
1.513513
 20
4.046922
 30
0.0
 10
1.565870
 20
4.066915
 30
0.0
 10
1.618909
 20
4.085822
 30
0.0
 10
1.672613
 20
4.103628
 30
0.0
 10
1.726964
 20
4.120316
 30
0.0
 10
1.781946
 20
4.135870
 30
0.0
 10
1.837540
 20
4.150274
 30
0.0
 10
1.893729
 20
4.163511
 30
0.0
 10
1.950497
 20
4.175565
 30
0.0
 10
2.007825
 20
4.186420
 30
0.0
 10
2.065697
 20
4.196059
 30
0.0
 10
2.124095
 20
4.204466
 30
0.0
 10
2.183002
 20
4.211624
 30
0.0
 10
2.242400
 20
4.217517
 30
0.0
 10
2.302272
 20
4.222130
 30
0.0
 10
2.362601
 20
4.225444
 30
0.0
 10
2.423370
 20
4.227445
 30
0.0
 10
2.484560
 20
4.228116
 30
0.0
 10
2.484560
 20
4.228116
 30
0.0
  0
ENDSEC
  0
SECTION
  2
OBJECTS
  0
DICTIONARY
  5
C
330
0
100
AcDbDictionary
  3
ACAD_GROUP
350
D
  3
ACAD_MLINESTYLE
350
17
  0
DICTIONARY
  5
D
330
C
100
AcDbDictionary
  0
DICTIONARY
  5
1A
330
C
100
AcDbDictionary
  0
DICTIONARY
  5
17
330
C
100
AcDbDictionary
  3
STANDARD
350
18
  0
DICTIONARY
  5
19
330
C
100
AcDbDictionary
  0
ENDSEC
  0
EOF
