  0
SECTION
  2
HEADER
  9
$ACADVER
  1
AC1014
  9
$HANDSEED
  5
FFFF
  9
$MEASUREMENT
 70
     1
  0
ENDSEC
  0
SECTION
  2
TABLES
  0
TABLE
  2
VPORT
  5
8
330
0
100
AcDbSymbolTable
 70
     4
  0
VPORT
  5
2E
330
8
100
AcDbSymbolTableRecord
100
AcDbViewportTableRecord
  2
*ACTIVE
 70
     0
 10
0.0
 20
0.0
 11
1.0
 21
1.0
 12
210.0
 22
148.5
 13
0.0
 23
0.0
 14
10.0
 24
10.0
 15
10.0
 25
10.0
 16
0.0
 26
0.0
 36
1.0
 17
0.0
 27
0.0
 37
0.0
 40
341.0
 41
1.24
 42
50.0
 43
0.0
 44
0.0
 50
0.0
 51
0.0
 71
     0
 72
   100
 73
     1
 74
     3
 75
     0
 76
     0
 77
     0
 78
     0
  0
ENDTAB
  0
TABLE
  2
LTYPE
  5
5
330
0
100
AcDbSymbolTable
 70
     1
  0
LTYPE
  5
14
330
5
100
AcDbSymbolTableRecord
100
AcDbLinetypeTableRecord
  2
BYBLOCK
 70
     0
  3

 72
    65
 73
     0
 40
0.0
  0
LTYPE
  5
15
330
5
100
AcDbSymbolTableRecord
100
AcDbLinetypeTableRecord
  2
BYLAYER
 70
     0
  3

 72
    65
 73
     0
 40
0.0
  0
LTYPE
  5
16
330
5
100
AcDbSymbolTableRecord
100
AcDbLinetypeTableRecord
  2
CONTINUOUS
 70
     0
  3
Solid line
 72
    65
 73
     0
 40
0.0
  0
ENDTAB
  0
TABLE
  2
LAYER
  5
2
100
AcDbSymbolTable
 70
4
  0
LAYER
  5
50
100
AcDbSymbolTableRecord
100
AcDbLayerTableRecord
  2
0
 70
0
  6
CONTINUOUS
  0
LAYER
  5
51
100
AcDbSymbolTableRecord
100
AcDbLayerTableRecord
  2
Edge.Cuts
 70
0
  6
CONTINUOUS
  0
LAYER
  5
52
100
AcDbSymbolTableRecord
100
AcDbLayerTableRecord
  2
Cuts
 70
0
  6
CONTINUOUS
  0
LAYER
  5
53
100
AcDbSymbolTableRecord
100
AcDbLayerTableRecord
  2
Mask
 70
0
  6
CONTINUOUS
  0
ENDTAB
  0
TABLE
  2
STYLE
  5
3
330
0
100
AcDbSymbolTable
 70
     1
  0
STYLE
  5
11
330
3
100
AcDbSymbolTableRecord
100
AcDbTextStyleTableRecord
  2
STANDARD
 70
     0
 40
0.0
 41
1.0
 50
0.0
 71
     0
 42
2.5
  3
txt
  4

  0
ENDTAB
  0
TABLE
  2
VIEW
  5
6
330
0
100
AcDbSymbolTable
 70
     0
  0
ENDTAB
  0
TABLE
  2
UCS
  5
7
330
0
100
AcDbSymbolTable
 70
     0
  0
ENDTAB
  0
TABLE
  2
APPID
  5
9
330
0
100
AcDbSymbolTable
 70
     2
  0
APPID
  5
12
330
9
100
AcDbSymbolTableRecord
100
AcDbRegAppTableRecord
  2
ACAD
 70
     0
  0
ENDTAB
  0
TABLE
  2
DIMSTYLE
  5
A
330
0
100
AcDbSymbolTable
 70
     1
  0
DIMSTYLE
105
27
330
A
100
AcDbSymbolTableRecord
100
AcDbDimStyleTableRecord
  2
ISO-25
 70
     0
  3

  4

  5

  6

  7

 40
1.0
 41
2.5
 42
0.625
 43
3.75
 44
1.25
 45
0.0
 46
0.0
 47
0.0
 48
0.0
140
2.5
141
2.5
142
0.0
143
0.03937007874016
144
1.0
145
0.0
146
1.0
147
0.625
 71
     0
 72
     0
 73
     0
 74
     0
 75
     0
 76
     0
 77
     1
 78
     8
170
     0
171
     3
172
     1
173
     0
174
     0
175
     0
176
     0
177
     0
178
     0
270
     2
271
     2
272
     2
273
     2
274
     3
340
11
275
     0
280
     0
281
     0
282
     0
283
     0
284
     8
285
     0
286
     0
287
     3
288
     0
  0
ENDTAB
  0
TABLE
  2
BLOCK_RECORD
  5
1
330
0
100
AcDbSymbolTable
 70
     1
  0
BLOCK_RECORD
  5
1F
330
1
100
AcDbSymbolTableRecord
100
AcDbBlockTableRecord
  2
*MODEL_SPACE
  0
BLOCK_RECORD
  5
1B
330
1
100
AcDbSymbolTableRecord
100
AcDbBlockTableRecord
  2
*PAPER_SPACE
  0
ENDTAB
  0
ENDSEC
  0
SECTION
  2
BLOCKS
  0
BLOCK
  5
20
330
1F
100
AcDbEntity
  8
0
100
AcDbBlockBegin
  2
*MODEL_SPACE
 70
     0
 10
0.0
 20
0.0
 30
0.0
  3
*MODEL_SPACE
  1

  0
ENDBLK
  5
21
330
1F
100
AcDbEntity
  8
0
100
AcDbBlockEnd
  0
BLOCK
  5
1C
330
1B
100
AcDbEntity
 67
     1
  8
0
100
AcDbBlockBegin
  2
*PAPER_SPACE
  1

  0
ENDBLK
  5
1D
330
1B
100
AcDbEntity
 67
     1
  8
0
100
AcDbBlockEnd
  0
ENDSEC
  0
SECTION
  2
ENTITIES
  0
LWPOLYLINE
  5
100
100
AcDbEntity
  8
Cuts
 62
7
100
AcDbPolyline
 90
325
 70
0
 10
7.139891
 20
91.958129
 30
0.0
 10
6.705087
 20
91.943423
 30
0.0
 10
6.272143
 20
91.884344
 30
0.0
 10
5.844751
 20
91.780414
 30
0.0
 10
5.426600
 20
91.631155
 30
0.0
 10
5.021384
 20
91.436089
 30
0.0
 10
4.632791
 20
91.194738
 30
0.0
 10
4.264514
 20
90.906624
 30
0.0
 10
3.920243
 20
90.571270
 30
0.0
 10
3.571784
 20
90.148691
 30
0.0
 10
3.283729
 20
89.705884
 30
0.0
 10
3.055318
 20
89.247023
 30
0.0
 10
2.885791
 20
88.776283
 30
0.0
 10
2.774387
 20
88.297838
 30
0.0
 10
2.720346
 20
87.815861
 30
0.0
 10
2.722908
 20
87.334528
 30
0.0
 10
2.781313
 20
86.858011
 30
0.0
 10
2.894799
 20
86.390487
 30
0.0
 10
3.062608
 20
85.936129
 30
0.0
 10
3.283978
 20
85.499110
 30
0.0
 10
3.558150
 20
85.083606
 30
0.0
 10
3.884362
 20
84.693790
 30
0.0
 10
4.261856
 20
84.333837
 30
0.0
 10
4.689870
 20
84.007921
 30
0.0
 10
5.167644
 20
83.720216
 30
0.0
 10
5.535177
 20
83.571928
 30
0.0
 10
5.980488
 20
83.467835
 30
0.0
 10
6.479165
 20
83.407692
 30
0.0
 10
7.006798
 20
83.391255
 30
0.0
 10
7.538976
 20
83.418281
 30
0.0
 10
8.051287
 20
83.488526
 30
0.0
 10
8.519320
 20
83.601746
 30
0.0
 10
8.918664
 20
83.757698
 30
0.0
 10
9.678790
 20
84.135281
 30
0.0
 10
10.241580
 20
83.458939
 30
0.0
 10
15.187635
 20
77.705355
 30
0.0
 10
19.570899
 20
72.627559
 30
0.0
 10
17.996628
 20
71.009742
 30
0.0
 10
17.126108
 20
70.093951
 30
0.0
 10
16.654370
 20
69.501434
 30
0.0
 10
16.530207
 20
69.266575
 30
0.0
 10
16.460332
 20
69.040746
 30
0.0
 10
16.422908
 20
68.520455
 30
0.0
 10
16.435764
 20
68.152883
 30
0.0
 10
16.491092
 20
67.812721
 30
0.0
 10
16.615065
 20
67.456026
 30
0.0
 10
16.833856
 20
67.038845
 30
0.0
 10
17.660580
 20
65.847258
 30
0.0
 10
19.180639
 20
63.886389
 30
0.0
 10
20.607330
 20
62.031108
 30
0.0
 10
21.200843
 20
61.177716
 30
0.0
 10
20.915962
 20
60.470967
 30
0.0
 10
20.231255
 20
58.967896
 30
0.0
 10
19.384899
 20
57.008670
 30
0.0
 10
18.711003
 20
55.205298
 30
0.0
 10
18.112935
 20
53.455190
 30
0.0
 10
14.705322
 20
53.005399
 30
0.0
 10
12.226946
 20
52.692202
 30
0.0
 10
10.737441
 20
52.413367
 30
0.0
 10
10.257489
 20
52.258960
 30
0.0
 10
9.897522
 20
52.079698
 30
0.0
 10
9.615131
 20
51.864431
 30
0.0
 10
9.367904
 20
51.602006
 30
0.0
 10
8.855274
 20
50.992911
 30
0.0
 10
8.855274
 20
44.757014
 30
0.0
 10
8.855274
 20
38.521116
 30
0.0
 10
9.422475
 20
37.914779
 30
0.0
 10
9.884672
 20
37.483038
 30
0.0
 10
10.153174
 20
37.333026
 30
0.0
 10
10.512064
 20
37.208955
 30
0.0
 10
11.697367
 20
36.984755
 30
0.0
 10
13.833299
 20
36.702657
 30
0.0
 10
14.922909
 20
36.586875
 30
0.0
 10
16.357064
 20
36.498111
 30
0.0
 10
21.638508
 20
36.385707
 30
0.0
 10
21.311271
 20
36.329390
 30
0.0
 10
21.200843
 20
36.258377
 30
0.0
 10
21.524917
 20
35.455212
 30
0.0
 10
22.304376
 20
33.849015
 30
0.0
 10
23.408460
 20
31.670612
 30
0.0
 10
22.627939
 20
30.645352
 30
0.0
 10
20.033369
 20
27.330342
 30
0.0
 10
18.751917
 20
25.594102
 30
0.0
 10
18.361408
 20
24.973346
 30
0.0
 10
18.217114
 20
24.635453
 30
0.0
 10
18.280647
 20
24.478458
 30
0.0
 10
18.471360
 20
24.206698
 30
0.0
 10
19.225610
 20
23.328391
 30
0.0
 10
20.462425
 20
22.019510
 30
0.0
 10
22.164367
 20
20.299041
 30
0.0
 10
24.151241
 20
18.343040
 30
0.0
 10
25.416892
 20
17.163120
 30
0.0
 10
26.138868
 20
16.604170
 30
0.0
 10
26.351461
 20
16.509093
 30
0.0
 10
26.494714
 20
16.511068
 30
0.0
 10
27.712543
 20
17.365137
 30
0.0
 10
30.105725
 20
19.215330
 30
0.0
 10
33.335846
 20
21.774623
 30
0.0
 10
35.183521
 20
20.788499
 30
0.0
 10
36.824773
 20
19.987510
 30
0.0
 10
38.656463
 20
19.213315
 30
0.0
 10
40.433439
 20
18.562773
 30
0.0
 10
41.910550
 20
18.132742
 30
0.0
 10
42.612454
 20
17.916605
 30
0.0
 10
42.825972
 20
17.808647
 30
0.0
 10
42.904393
 20
17.718779
 30
0.0
 10
43.405998
 20
13.421505
 30
0.0
 10
43.664745
 20
11.415662
 30
0.0
 10
43.872455
 20
10.112543
 30
0.0
 10
44.055569
 20
9.373877
 30
0.0
 10
44.146168
 20
9.173005
 30
0.0
 10
44.240537
 20
9.061392
 30
0.0
 10
44.449337
 20
8.994446
 30
0.0
 10
44.863890
 20
8.937036
 30
0.0
 10
46.191401
 20
8.850518
 30
0.0
 10
50.007974
 20
8.788506
 30
0.0
 10
53.788409
 20
8.870378
 30
0.0
 10
55.070745
 20
8.963715
 30
0.0
 10
55.455936
 20
9.023213
 30
0.0
 10
55.630851
 20
9.091158
 30
0.0
 10
55.760451
 20
9.526833
 30
0.0
 10
55.942518
 20
10.507293
 30
0.0
 10
56.367274
 20
13.521276
 30
0.0
 10
56.763454
 20
16.487852
 30
0.0
 10
56.914663
 20
17.416965
 30
0.0
 10
57.006685
 20
17.789888
 30
0.0
 10
57.781918
 20
18.086782
 30
0.0
 10
59.456836
 20
18.636554
 30
0.0
 10
60.540587
 20
19.013524
 30
0.0
 10
61.779729
 20
19.500507
 30
0.0
 10
63.021453
 20
20.034658
 30
0.0
 10
64.112953
 20
20.553128
 30
0.0
 10
66.453410
 20
21.739895
 30
0.0
 10
69.562816
 20
19.288640
 30
0.0
 10
71.896534
 20
17.484656
 30
0.0
 10
73.140756
 20
16.589890
 30
0.0
 10
73.304454
 20
16.527262
 30
0.0
 10
73.490796
 20
16.540526
 30
0.0
 10
73.744181
 20
16.666719
 30
0.0
 10
74.109013
 20
16.942862
 30
0.0
 10
75.350630
 20
18.093099
 30
0.0
 10
77.570872
 20
20.287433
 30
0.0
 10
79.278054
 20
22.013112
 30
0.0
 10
80.518483
 20
23.325583
 30
0.0
 10
81.274816
 20
24.205978
 30
0.0
 10
81.466024
 20
24.478247
 30
0.0
 10
81.529702
 20
24.635422
 30
0.0
 10
81.385447
 20
24.973315
 30
0.0
 10
80.994933
 20
25.594071
 30
0.0
 10
79.713447
 20
27.330311
 30
0.0
 10
77.119426
 20
30.645321
 30
0.0
 10
76.338354
 20
31.670581
 30
0.0
 10
77.442438
 20
33.848984
 30
0.0
 10
78.222173
 20
35.455181
 30
0.0
 10
78.546523
 20
36.258346
 30
0.0
 10
78.496617
 20
36.305861
 30
0.0
 10
78.359660
 20
36.347091
 30
0.0
 10
81.234260
 20
36.394812
 30
0.0
 10
83.148108
 20
36.466716
 30
0.0
 10
84.495008
 20
36.567001
 30
0.0
 10
85.668776
 20
36.699869
 30
0.0
 10
88.210111
 20
37.081890
 30
0.0
 10
89.133996
 20
37.269664
 30
0.0
 10
89.652410
 20
37.423616
 30
0.0
 10
90.051433
 20
37.634490
 30
0.0
 10
90.354110
 20
37.892122
 30
0.0
 10
90.573733
 20
38.276963
 30
0.0
 10
90.723607
 20
38.869466
 30
0.0
 10
90.817025
 20
39.750081
 30
0.0
 10
90.867289
 20
40.999259
 30
0.0
 10
90.891532
 20
44.925103
 30
0.0
 10
90.891532
 20
50.992880
 30
0.0
 10
90.379454
 20
51.601975
 30
0.0
 10
90.132617
 20
51.864100
 30
0.0
 10
89.850728
 20
52.079165
 30
0.0
 10
89.491157
 20
52.258424
 30
0.0
 10
89.011269
 20
52.413127
 30
0.0
 10
87.520029
 20
52.693876
 30
0.0
 10
85.035971
 20
53.011433
 30
0.0
 10
81.628361
 20
53.461224
 30
0.0
 10
81.036355
 20
55.205267
 30
0.0
 10
80.362182
 20
57.008639
 30
0.0
 10
79.515552
 20
58.967865
 30
0.0
 10
78.831118
 20
60.473066
 30
0.0
 10
78.546514
 20
61.184851
 30
0.0
 10
79.219394
 20
62.149492
 30
0.0
 10
80.837365
 20
64.262286
 30
0.0
 10
82.491515
 20
66.475244
 30
0.0
 10
83.022748
 20
67.260079
 30
0.0
 10
83.251139
 20
67.680923
 30
0.0
 10
83.324649
 20
68.079520
 30
0.0
 10
83.335966
 20
68.459927
 30
0.0
 10
83.280766
 20
68.832204
 30
0.0
 10
83.154715
 20
69.206408
 30
0.0
 10
82.953487
 20
69.592603
 30
0.0
 10
82.672755
 20
70.000848
 30
0.0
 10
81.855457
 20
70.923722
 30
0.0
 10
80.572229
 20
72.229551
 30
0.0
 10
85.056365
 20
77.406565
 30
0.0
 10
90.103291
 20
83.259920
 30
0.0
 10
90.665531
 20
83.936261
 30
0.0
 10
91.338564
 20
83.616556
 30
0.0
 10
92.133067
 20
83.317156
 30
0.0
 10
92.928341
 20
83.165767
 30
0.0
 10
93.710653
 20
83.158618
 30
0.0
 10
94.466269
 20
83.291936
 30
0.0
 10
95.181462
 20
83.561949
 30
0.0
 10
95.842497
 20
83.964887
 30
0.0
 10
96.435647
 20
84.496977
 30
0.0
 10
96.947180
 20
85.154448
 30
0.0
 10
97.211532
 20
85.616837
 30
0.0
 10
97.368270
 20
86.071916
 30
0.0
 10
97.443310
 20
86.633532
 30
0.0
 10
97.462557
 20
87.415533
 30
0.0
 10
97.424804
 20
88.442704
 30
0.0
 10
97.364406
 20
88.834459
 30
0.0
 10
97.264593
 20
89.176073
 30
0.0
 10
97.116556
 20
89.490854
 30
0.0
 10
96.911493
 20
89.802113
 30
0.0
 10
96.295083
 20
90.507300
 30
0.0
 10
95.904863
 20
90.866108
 30
0.0
 10
95.483739
 20
91.163107
 30
0.0
 10
95.037255
 20
91.399229
 30
0.0
 10
94.570948
 20
91.575407
 30
0.0
 10
94.090357
 20
91.692575
 30
0.0
 10
93.601018
 20
91.751666
 30
0.0
 10
93.108472
 20
91.753613
 30
0.0
 10
92.618261
 20
91.699349
 30
0.0
 10
92.135918
 20
91.589807
 30
0.0
 10
91.666983
 20
91.425919
 30
0.0
 10
91.216996
 20
91.208620
 30
0.0
 10
90.791496
 20
90.938842
 30
0.0
 10
90.396020
 20
90.617519
 30
0.0
 10
90.036108
 20
90.245583
 30
0.0
 10
89.717299
 20
89.823968
 30
0.0
 10
89.445132
 20
89.353607
 30
0.0
 10
89.139852
 20
88.570836
 30
0.0
 10
88.997138
 20
87.780681
 30
0.0
 10
89.018474
 20
87.001979
 30
0.0
 10
89.091127
 20
86.622812
 30
0.0
 10
89.205348
 20
86.253572
 30
0.0
 10
89.446326
 20
85.528222
 30
0.0
 10
89.565291
 20
85.023260
 30
0.0
 10
89.479953
 20
84.862785
 30
0.0
 10
89.209646
 20
84.553859
 30
0.0
 10
88.122921
 20
83.498836
 30
0.0
 10
86.322704
 20
81.874565
 30
0.0
 10
83.826590
 20
79.697418
 30
0.0
 10
78.055366
 20
74.719944
 30
0.0
 10
76.333370
 20
76.433121
 30
0.0
 10
75.384694
 20
77.354017
 30
0.0
 10
74.747086
 20
77.884194
 30
0.0
 10
74.249568
 20
78.142346
 30
0.0
 10
73.721160
 20
78.247170
 30
0.0
 10
72.956282
 20
78.250921
 30
0.0
 10
72.627967
 20
78.196108
 30
0.0
 10
72.382259
 20
78.108264
 30
0.0
 10
71.231833
 20
77.281320
 30
0.0
 10
69.094260
 20
75.629449
 30
0.0
 10
66.253845
 20
73.389861
 30
0.0
 10
64.286009
 20
74.344015
 30
0.0
 10
62.326274
 20
75.205718
 30
0.0
 10
60.377341
 20
75.937027
 30
0.0
 10
59.005030
 20
76.451188
 30
0.0
 10
58.586703
 20
76.657021
 30
0.0
 10
58.432102
 20
76.791411
 30
0.0
 10
57.945929
 20
80.775595
 30
0.0
 10
57.660890
 20
82.921902
 30
0.0
 10
57.446302
 20
84.116416
 30
0.0
 10
57.335956
 20
84.474453
 30
0.0
 10
57.207853
 20
84.735785
 30
0.0
 10
56.851217
 20
85.156654
 30
0.0
 10
56.237714
 20
85.769605
 30
0.0
 10
49.873933
 20
85.769605
 30
0.0
 10
43.509051
 20
85.769605
 30
0.0
 10
42.880113
 20
85.140117
 30
0.0
 10
42.513541
 20
84.713660
 30
0.0
 10
42.383400
 20
84.456448
 30
0.0
 10
42.272729
 20
84.107541
 30
0.0
 10
42.061932
 20
82.947526
 30
0.0
 10
41.785399
 20
80.859380
 30
0.0
 10
41.315764
 20
76.891181
 30
0.0
 10
41.287364
 20
76.804736
 30
0.0
 10
41.202613
 20
76.711402
 30
0.0
 10
40.854006
 20
76.499085
 30
0.0
 10
40.249831
 20
76.244278
 30
0.0
 10
39.369975
 20
75.937027
 30
0.0
 10
37.417081
 20
75.203970
 30
0.0
 10
35.448079
 20
74.337952
 30
0.0
 10
33.468112
 20
73.377734
 30
0.0
 10
30.768812
 20
75.505426
 30
0.0
 10
28.635867
 20
77.173250
 30
0.0
 10
27.950252
 20
77.678847
 30
0.0
 10
27.442585
 20
78.009776
 30
0.0
 10
27.055899
 20
78.199193
 30
0.0
 10
26.733228
 20
78.280253
 30
0.0
 10
26.417605
 20
78.286111
 30
0.0
 10
26.052063
 20
78.249926
 30
0.0
 10
25.516569
 20
78.148815
 30
0.0
 10
25.035311
 20
77.914264
 30
0.0
 10
24.450718
 20
77.441436
 30
0.0
 10
23.605218
 20
76.625495
 30
0.0
 10
22.074493
 20
75.103589
 30
0.0
 10
16.348469
 20
80.029249
 30
0.0
 10
13.788750
 20
82.254591
 30
0.0
 10
12.024169
 20
83.844159
 30
0.0
 10
11.015037
 20
84.834720
 30
0.0
 10
10.781361
 20
85.116861
 30
0.0
 10
10.721663
 20
85.263038
 30
0.0
 10
11.143894
 20
86.452561
 30
0.0
 10
11.259706
 20
86.832370
 30
0.0
 10
11.331539
 20
87.219172
 30
0.0
 10
11.359453
 20
87.612354
 30
0.0
 10
11.343511
 20
88.011296
 30
0.0
 10
11.180296
 20
88.824004
 30
0.0
 10
10.842380
 20
89.652365
 30
0.0
 10
10.527597
 20
90.176006
 30
0.0
 10
10.154803
 20
90.634472
 30
0.0
 10
9.731856
 20
91.026717
 30
0.0
 10
9.266615
 20
91.351698
 30
0.0
 10
8.766936
 20
91.608372
 30
0.0
 10
8.240680
 20
91.795692
 30
0.0
 10
7.695704
 20
91.912616
 30
0.0
 10
7.139867
 20
91.958099
 30
0.0
 10
7.139867
 20
91.958099
 30
0.0
  0
ENDSEC
  0
SECTION
  2
OBJECTS
  0
DICTIONARY
  5
C
330
0
100
AcDbDictionary
  3
ACAD_GROUP
350
D
  3
ACAD_MLINESTYLE
350
17
  0
DICTIONARY
  5
D
330
C
100
AcDbDictionary
  0
DICTIONARY
  5
1A
330
C
100
AcDbDictionary
  0
DICTIONARY
  5
17
330
C
100
AcDbDictionary
  3
STANDARD
350
18
  0
DICTIONARY
  5
19
330
C
100
AcDbDictionary
  0
ENDSEC
  0
EOF
