<?xml version="1.0" encoding="UTF-8" standalone="no"?>
<svg
   xmlns:dc="http://purl.org/dc/elements/1.1/"
   xmlns:cc="http://creativecommons.org/ns#"
   xmlns:rdf="http://www.w3.org/1999/02/22-rdf-syntax-ns#"
   xmlns:svg="http://www.w3.org/2000/svg"
   xmlns="http://www.w3.org/2000/svg"
   xmlns:sodipodi="http://sodipodi.sourceforge.net/DTD/sodipodi-0.dtd"
   xmlns:inkscape="http://www.inkscape.org/namespaces/inkscape"
   width="13.236859mm"
   height="4.3689842mm"
   id="svg3336"
   version="1.1"
   inkscape:version="0.91 r13725"
   sodipodi:docname="ripolab_pcb_corte_colgante.svg">
  <sodipodi:namedview
     pagecolor="#ffffff"
     bordercolor="#666666"
     borderopacity="1"
     objecttolerance="10"
     gridtolerance="10"
     guidetolerance="10"
     inkscape:pageopacity="0"
     inkscape:pageshadow="2"
     inkscape:window-width="1865"
     inkscape:window-height="1056"
     id="namedview3364"
     showgrid="false"
     inkscape:object-nodes="true"
     inkscape:object-paths="true"
     inkscape:snap-smooth-nodes="true"
     inkscape:snap-nodes="true"
     inkscape:zoom="9.8799617"
     inkscape:cx="7.3112892"
     inkscape:cy="4.8178809"
     inkscape:window-x="55"
     inkscape:window-y="24"
     inkscape:window-maximized="1"
     inkscape:current-layer="g3356"
     fit-margin-top="0"
     fit-margin-left="0"
     fit-margin-right="0"
     fit-margin-bottom="0"
     inkscape:document-units="mm"
     units="mm" />
  <metadata
     id="metadata3366">
    <rdf:RDF>
      <cc:Work
         rdf:about="">
        <dc:format>image/svg+xml</dc:format>
        <dc:type
           rdf:resource="http://purl.org/dc/dcmitype/StillImage" />
        <dc:title></dc:title>
      </cc:Work>
    </rdf:RDF>
  </metadata>
  <desc
     id="desc3338">/home/akirasan/Documentos/Github_ripolab/Placas-PCB/ripolab_pcb/ripolab_pcb_corte.dxf - scale = 1.000000, origin = (0.000000, 0.000000), auto = True</desc>
  <defs
     id="defs3340">
    <marker
       style="overflow:visible"
       refY="0"
       refX="0"
       orient="auto"
       id="DistanceX">
      <path
         inkscape:connector-curvature="0"
         id="path3343"
         style="stroke:#000000;stroke-width:0.5"
         d="M 3,-3 -3,3 M 0,-5 0,5" />
    </marker>
    <pattern
       y="0"
       x="0"
       width="8"
       patternUnits="userSpaceOnUse"
       id="Hatch"
       height="8">
      <path
         id="path3346"
         stroke-width="0.25"
         stroke="#000000"
         linecap="square"
         d="M8 4 l-4,4" />
      <path
         id="path3348"
         stroke-width="0.25"
         stroke="#000000"
         linecap="square"
         d="M6 2 l-4,4" />
      <path
         id="path3350"
         stroke-width="0.25"
         stroke="#000000"
         linecap="square"
         d="M4 0 l-4,4" />
    </pattern>
    <symbol
       id="*MODEL_SPACE" />
    <symbol
       id="*PAPER_SPACE" />
  </defs>
  <g
     transform="translate(-153.15933,-754.84656)"
     id="g3356"
     inkscape:label="Edge.Cuts"
     inkscape:groupmode="layer">
    <path
       inkscape:connector-curvature="0"
       id="rect3371"
       d="M161.96289 754.3457L161.723913168 754.348360768L161.486363145 754.356301866L161.250314703 754.369461485L161.015842617 754.387777817L160.783021659 754.411189054L160.551926602 754.439633386L160.322632218 754.473049004L160.095213281 754.511374102L159.869744564 754.554546868L159.64630084 754.602505496L159.424956881 754.655188176L159.205787461 754.712533101L158.988867352 754.77447846L158.774271328 754.840962446L158.562074161 754.911923249L158.352350625 754.987299063L158.145175492 755.067028076L157.940623535 755.151048482L157.738769528 755.239298471L157.539688242 755.331716235L157.343454452 755.428239966L157.15014293 755.528807853L156.959828448 755.63335809L156.772585781 755.741828867L156.588489701 755.854158376L156.40761498 755.970284808L156.230036393 756.090146354L156.055828711 756.213681206L155.885066708 756.340827555L155.717825156 756.471523593L155.554178829 756.605707511L155.3942025 756.7433175L155.237970941 756.884291752L155.085558926 757.028568458L154.937041227 757.176085809L154.792492617 757.326781997L154.65198787 757.480595213L154.515601758 757.637463649L154.383409054 757.797325496L154.255484531 757.960118945L154.131902963 758.125782188L154.012739121 758.294253416L153.89806778 758.465470821L153.787963711 758.639372593L153.682501688 758.815896924L153.581756484 758.994982006L153.485802872 759.17656603L153.394715625 759.360587187L153.308569515 759.54698367L153.227439316 759.735693668L153.151399801 759.926655373L153.080525742 760.119806978L153.014891913 760.315086672L152.954573086 760.512432648L152.899644034 760.711783097L152.850179531 760.913076211L152.806254349 761.11625018L152.767943262 761.321243196L152.735321041 761.527993451L152.708462461 761.736439136L152.697217902 761.841278449L152.687442294 761.946518442L152.679144982 762.052151387L152.672335312 762.15816956L152.667022633 762.264565234L152.66321629 762.371330682L152.66092563 762.47845818L152.66016 762.58594L152.66092563 762.693421943L152.66321629 762.80055027L152.667022633 762.907317243L152.672335312 763.013715125L152.679144982 763.11973618L152.687442294 763.225372669L152.697217902 763.330616856L152.708462461 763.435461003L152.735321041 763.643918229L152.767943262 763.850682449L152.806254349 764.055691764L152.850179531 764.258884277L152.899644034 764.46019809L152.954573086 764.659571303L153.014891913 764.85694202L153.080525742 765.052248342L153.151399801 765.245428371L153.227439316 765.436420209L153.308569515 765.625161958L153.394715625 765.811591719L153.485802872 765.995647594L153.581756484 766.177267686L153.682501688 766.356390097L153.787963711 766.532952927L153.89806778 766.70689428L154.012739121 766.878152256L154.131902963 767.046664958L154.255484531 767.212370488L154.383409054 767.375206948L154.515601758 767.535112439L154.65198787 767.692025063L154.792492617 767.845882922L154.937041227 767.996624119L155.085558926 768.144186754L155.237970941 768.288508931L155.3942025 768.42952875L155.554178829 768.567184314L155.717825156 768.701413724L155.885066708 768.832155083L156.055828711 768.959346492L156.230036393 769.082926053L156.40761498 769.202831868L156.588489701 769.319002039L156.772585781 769.431374668L156.959828448 769.539887857L157.15014293 769.644479707L157.343454452 769.74508832L157.539688242 769.841651799L157.738769528 769.934108246L157.940623535 770.022395761L158.145175492 770.106452447L158.352350625 770.186216406L158.562074161 770.26162574L158.774271328 770.332618551L158.988867352 770.39913294L159.205787461 770.461107009L159.424956881 770.518478861L159.64630084 770.571186597L159.869744564 770.619168319L160.095213281 770.662362129L160.322632218 770.700706129L160.551926602 770.73413842L160.783021659 770.762597105L161.015842617 770.786020286L161.250314703 770.804346063L161.486363145 770.817512541L161.723913168 770.825457819L161.96289 770.82812L191.25781 770.82812L191.496788707 770.825457819L191.734343358 770.817512541L191.97039909 770.804346063L192.204881042 770.786020286L192.437714352 770.762597105L192.668824158 770.73413842L192.898135597 770.700706129L193.125573809 770.662362129L193.35106393 770.619168319L193.574531098 770.571186597L193.795900453 770.518478861L194.015097131 770.461107009L194.232046272 770.39913294L194.446673012 770.332618551L194.65890249 770.26162574L194.868659844 770.186216406L195.075870212 770.106452447L195.280458731 770.022395761L195.482350541 769.934108246L195.681470779 769.841651799L195.877744582 769.74508832L196.07109709 769.644479707L196.26145344 769.539887857L196.44873877 769.431374668L196.632878217 769.319002039L196.813796921 769.202831868L196.991420019 769.082926053L197.165672649 768.959346492L197.336479949 768.832155083L197.503767057 768.701413724L197.667459112 768.567184314L197.82748125 768.42952875L197.983758611 768.288508931L198.136216331 768.144186754L198.284779551 767.996624119L198.429373406 767.845882922L198.569923035 767.692025063L198.706353577 767.535112439L198.838590169 767.375206948L198.966557949 767.212370488L199.090182056 767.046664958L199.209387627 766.878152256L199.3240998 766.70689428L199.434243713 766.532952927L199.539744505 766.356390097L199.640527314 766.177267686L199.736517276 765.995647594L199.827639531 765.811591719L199.913819217 765.625161958L199.994981471 765.436420209L200.071051431 765.245428371L200.141954236 765.052248342L200.207615023 764.85694202L200.267958931 764.659571303L200.322911097 764.46019809L200.37239666 764.258884277L200.416340758 764.055691764L200.454668528 763.850682449L200.487305108 763.643918229L200.514175637 763.435461003L200.525425238 763.330616856L200.535205253 763.225372669L200.543506324 763.11973618L200.550319093 763.013715125L200.555634203 762.907317243L200.559442296 762.80055027L200.561734014 762.693421943L200.5625 762.58594L200.561734014 762.47845818L200.559442296 762.371330682L200.555634203 762.264565234L200.550319093 762.15816956L200.543506324 762.052151387L200.535205253 761.946518442L200.525425238 761.841278449L200.514175637 761.736439136L200.487305108 761.527993451L200.454668528 761.321243196L200.416340758 761.11625018L200.37239666 760.913076211L200.322911097 760.711783097L200.267958931 760.512432648L200.207615023 760.315086672L200.141954236 760.119806978L200.071051431 759.926655373L199.994981471 759.735693668L199.913819217 759.54698367L199.827639531 759.360587187L199.736517276 759.17656603L199.640527314 758.994982006L199.539744505 758.815896924L199.434243713 758.639372593L199.3240998 758.465470821L199.209387627 758.294253416L199.090182056 758.125782188L198.966557949 757.960118945L198.838590169 757.797325496L198.706353577 757.637463649L198.569923035 757.480595213L198.429373406 757.326781997L198.284779551 757.176085809L198.136216331 757.028568458L197.983758611 756.884291752L197.82748125 756.7433175L197.667459112 756.605707511L197.503767057 756.471523593L197.336479949 756.340827555L197.165672649 756.213681206L196.991420019 756.090146354L196.813796921 755.970284808L196.632878217 755.854158376L196.44873877 755.741828867L196.26145344 755.63335809L196.07109709 755.528807853L195.877744582 755.428239966L195.681470779 755.331716235L195.482350541 755.239298471L195.280458731 755.151048482L195.075870212 755.067028076L194.868659844 754.987299063L194.65890249 754.911923249L194.446673012 754.840962446L194.232046272 754.77447846L194.015097131 754.712533101L193.795900453 754.655188176L193.574531098 754.602505496L193.35106393 754.554546868L193.125573809 754.511374102L192.898135597 754.473049004L192.668824158 754.439633386L192.437714352 754.411189054L192.204881042 754.387777817L191.97039909 754.369461485L191.734343358 754.356301866L191.496788707 754.348360768L191.25781 754.3457L161.96289 754.3457L161.96289 754.3457M161.96289 755.3457L191.25781 755.3457L191.474629007 755.348076053L191.689955036 755.355165583L191.903726597 755.366910644L192.115882202 755.383253293L192.326360361 755.404135586L192.535099586 755.429499577L192.742038386 755.459287323L192.947115273 755.493440879L193.150268759 755.5319023L193.351437353 755.574613643L193.550559567 755.621516962L193.747573911 755.672554314L193.942418897 755.727667754L194.135033035 755.786799337L194.325354837 755.849891119L194.513322812 755.916885156L194.698875473 755.987723504L194.88195133 756.062348217L195.062488894 756.140701352L195.240426675 756.222724963L195.415703185 756.308361108L195.588256934 756.397551841L195.758026434 756.490239217L195.924950195 756.586365293L196.088966729 756.685872124L196.250014545 756.788701765L196.408032156 756.894796273L196.562958071 757.004097703L196.714730803 757.116548109L196.86328886 757.232089549L197.008570756 757.350664078L197.150515 757.47221375L197.289060103 757.596680622L197.424144577 757.72400675L197.555706932 757.854134188L197.683685679 757.987004993L197.808019329 758.12256122L197.928646392 758.260744924L198.045505381 758.401498162L198.158534805 758.544762988L198.267673175 758.690481459L198.372859003 758.83859563L198.4740308 758.989047557L198.571127075 759.141779294L198.664086341 759.296732899L198.752847108 759.453850426L198.837347886 759.61307393L198.917527187 759.774345469L198.993323523 759.937607096L199.064675402 760.102800868L199.131521337 760.269868841L199.193799839 760.438753069L199.251449418 760.609395609L199.304408585 760.781738515L199.352615851 760.955723845L199.396009727 761.131293652L199.434528723 761.308389994L199.468111352 761.486954925L199.496696123 761.6669305L199.520221548 761.848258777L199.538626137 762.030881809L199.551848401 762.214741654L199.559826852 762.399780365L199.5625 762.58594L199.559826852 762.772100586L199.551848401 762.957143032L199.538626137 763.141009302L199.520221548 763.323641362L199.496696123 763.50498118L199.468111352 763.684970721L199.434528723 763.863551951L199.396009727 764.040666836L199.352615851 764.216257342L199.304408585 764.390265436L199.251449418 764.562633084L199.193799839 764.733302251L199.131521337 764.902214904L199.064675402 765.069313008L198.993323523 765.234538531L198.917527187 765.397833437L198.837347886 765.559139694L198.752847108 765.718399267L198.664086341 765.875554122L198.571127075 766.030546226L198.4740308 766.183317544L198.372859003 766.333810042L198.267673175 766.481965687L198.158534805 766.627726445L198.045505381 766.771034282L197.928646392 766.911831164L197.808019329 767.050059057L197.683685679 767.185659927L197.555706932 767.31857574L197.424144577 767.448748463L197.289060103 767.576120061L197.150515 767.7006325L197.008570756 767.822227747L196.86328886 767.940847768L196.714730803 768.056434529L196.562958071 768.168929995L196.408032156 768.278276134L196.250014545 768.38441491L196.088966729 768.487288291L195.924950195 768.586838242L195.758026434 768.68300673L195.588256934 768.77573572L195.415703185 768.864967178L195.240426675 768.950643071L195.062488894 769.032705365L194.88195133 769.111096026L194.698875473 769.18575702L194.513322812 769.256630312L194.325354837 769.32365787L194.135033035 769.38678166L193.942418897 769.445943646L193.747573911 769.501085796L193.550559567 769.552150075L193.351437353 769.59907845L193.150268759 769.641812887L192.947115273 769.680295352L192.742038386 769.71446781L192.535099586 769.744272228L192.326360361 769.769650573L192.115882202 769.79054481L191.903726597 769.806896905L191.689955036 769.818648824L191.474629007 769.825742534L191.25781 769.82812L161.96289 769.82812L161.746072868 769.825742534L161.530751466 769.818648824L161.316987196 769.806896905L161.104841458 769.79054481L160.89437565 769.769650573L160.685651174 769.744272228L160.478729429 769.71446781L160.273671816 769.680295352L160.070539735 769.641812887L159.869394585 769.59907845L159.670297767 769.552150075L159.473310681 769.501085796L159.278494727 769.445943646L159.085911305 769.38678166L158.895621814 769.32365787L158.707687656 769.256630312L158.52217023 769.18575702L158.339130937 769.111096026L158.158631175 769.032705365L157.980732346 768.950643071L157.80549585 768.864967178L157.632983086 768.77573572L157.463255454 768.68300673L157.296374355 768.586838242L157.132401189 768.487288291L156.971397356 768.38441491L156.813424256 768.278276134L156.658543289 768.168929995L156.506815854 768.056434529L156.358303353 767.940847768L156.213067185 767.822227747L156.07116875 767.7006325L155.932669448 767.576120061L155.79763068 767.448748463L155.666113845 767.31857574L155.538180344 767.185659927L155.413891577 767.050059057L155.293308943 766.911831164L155.176493842 766.771034282L155.063507676 766.627726445L154.954411843 766.481965687L154.849267744 766.333810042L154.74813678 766.183317544L154.651080349 766.030546226L154.558159853 765.875554122L154.46943669 765.718399267L154.384972262 765.559139694L154.304827969 765.397833437L154.22906521 765.234538531L154.157745385 765.069313008L154.090929895 764.902214904L154.028680139 764.733302251L153.971057518 764.562633084L153.918123432 764.390265436L153.869939281 764.216257342L153.826566465 764.040666836L153.788066384 763.863551951L153.754500437 763.684970721L153.725930026 763.50498118L153.70241655 763.323641362L153.68402141 763.141009302L153.670806004 762.957143032L153.662831734 762.772100586L153.66016 762.58594L153.662831734 762.399780365L153.670806004 762.214741654L153.68402141 762.030881809L153.70241655 761.848258777L153.725930026 761.6669305L153.754500437 761.486954925L153.788066384 761.308389994L153.826566465 761.131293652L153.869939281 760.955723845L153.918123432 760.781738515L153.971057518 760.609395609L154.028680139 760.438753069L154.090929895 760.269868841L154.157745385 760.102800868L154.22906521 759.937607096L154.304827969 759.774345469L154.384972262 759.61307393L154.46943669 759.453850426L154.558159853 759.296732899L154.651080349 759.141779294L154.74813678 758.989047557L154.849267744 758.83859563L154.954411843 758.690481459L155.063507676 758.544762988L155.176493842 758.401498162L155.293308943 758.260744924L155.413891577 758.12256122L155.538180344 757.987004993L155.666113845 757.854134188L155.79763068 757.72400675L155.932669448 757.596680622L156.07116875 757.47221375L156.213067185 757.350664078L156.358303353 757.232089549L156.506815854 757.116548109L156.658543289 757.004097703L156.813424256 756.894796273L156.971397356 756.788701765L157.132401189 756.685872124L157.296374355 756.586365293L157.463255454 756.490239217L157.632983086 756.397551841L157.80549585 756.308361108L157.980732346 756.222724963L158.158631175 756.140701352L158.339130937 756.062348217L158.52217023 755.987723504L158.707687656 755.916885156L158.895621814 755.849891119L159.085911305 755.786799337L159.278494727 755.727667754L159.473310681 755.672554314L159.670297767 755.621516962L159.869394585 755.574613643L160.070539735 755.5319023L160.273671816 755.493440879L160.478729429 755.459287323L160.685651174 755.429499577L160.89437565 755.404135586L161.104841458 755.383253293L161.316987196 755.366910644L161.530751466 755.355165583L161.746072868 755.348076053L161.96289 755.3457L161.96289 755.3457"
       style="color:#000000;font-style:normal;font-variant:normal;font-weight:normal;font-stretch:normal;font-size:medium;line-height:normal;font-family:sans-serif;text-indent:0;text-align:start;text-decoration:none;text-decoration-line:none;text-decoration-style:solid;text-decoration-color:#000000;letter-spacing:normal;word-spacing:normal;text-transform:none;direction:ltr;block-progression:tb;writing-mode:lr-tb;baseline-shift:baseline;text-anchor:start;white-space:normal;clip-rule:nonzero;display:inline;overflow:visible;visibility:visible;opacity:1;isolation:auto;mix-blend-mode:normal;color-interpolation:sRGB;color-interpolation-filters:linearRGB;solid-color:#000000;solid-opacity:1;fill-opacity:1;fill-rule:nonzero;stroke:none;stroke-width:1;stroke-linecap:butt;stroke-linejoin:miter;stroke-miterlimit:4;stroke-dasharray:none;stroke-dashoffset:0;stroke-opacity:1;color-rendering:auto;image-rendering:auto;shape-rendering:auto;text-rendering:auto;enable-background:accumulate" />
  </g>
</svg>
